<?xml version="1.0" encoding="utf-8" standalone="no"?>
<!DOCTYPE svg PUBLIC "-//W3C//DTD SVG 1.1//EN"
  "http://www.w3.org/Graphics/SVG/1.1/DTD/svg11.dtd">
<!-- Created with matplotlib (https://matplotlib.org/) -->
<svg height="280.512pt" version="1.1" viewBox="0 0 280.512 280.512" width="280.512pt" xmlns="http://www.w3.org/2000/svg" xmlns:xlink="http://www.w3.org/1999/xlink">
 <metadata>
  <rdf:RDF xmlns:cc="http://creativecommons.org/ns#" xmlns:dc="http://purl.org/dc/elements/1.1/" xmlns:rdf="http://www.w3.org/1999/02/22-rdf-syntax-ns#">
   <cc:Work>
    <dc:type rdf:resource="http://purl.org/dc/dcmitype/StillImage"/>
    <dc:date>2021-10-05T23:23:48.418797</dc:date>
    <dc:format>image/svg+xml</dc:format>
    <dc:creator>
     <cc:Agent>
      <dc:title>Matplotlib v3.3.4, https://matplotlib.org/</dc:title>
     </cc:Agent>
    </dc:creator>
   </cc:Work>
  </rdf:RDF>
 </metadata>
 <defs>
  <style type="text/css">*{stroke-linecap:butt;stroke-linejoin:round;}</style>
 </defs>
 <g id="figure_1">
  <g id="patch_1">
   <path d="M 0 280.512 
L 280.512 280.512 
L 280.512 0 
L 0 0 
z
" style="fill:#ffffff;"/>
  </g>
  <g id="axes_1">
   <g id="patch_2">
    <path clip-path="url(#p2b489bfa9a)" d="M 46.78529 165.301401 
C 52.29763 185.873734 64.450498 204.061787 81.347374 217.027216 
C 98.24425 229.992645 118.957954 237.024 140.256 237.024 
C 161.554046 237.024 182.26775 229.992645 199.164626 217.027216 
C 216.061502 204.061787 228.21437 185.873734 233.72671 165.301401 
" style="fill:none;stroke:#cd0000;stroke-linejoin:miter;stroke-width:3;"/>
   </g>
   <g id="patch_3">
    <path clip-path="url(#p2b489bfa9a)" d="M 120.307641 184.396359 
L 108.992932 181.568932 
Q 130.710202 166.215624 151.013258 149.448102 
L 143.234417 147.327448 
Q 152.426995 142.37751 164.448 140.256 
Q 162.32649 152.277005 157.376552 161.469583 
L 155.255898 153.690742 
Q 138.488376 173.993798 123.135068 195.711068 
L 120.307641 184.396359 
z
" style="fill:#eeea83;stroke:#cd0000;stroke-linecap:round;stroke-linejoin:miter;stroke-width:3;"/>
    <g id="patch_4">
     <path clip-path="url(#p2b489bfa9a)" d="M 140.256 261.216 
C 172.334967 261.216 203.104381 248.470891 225.787636 225.787636 
C 248.470891 203.104381 261.216 172.334967 261.216 140.256 
C 261.216 108.177033 248.470891 77.407619 225.787636 54.724364 
C 203.104381 32.041109 172.334967 19.296 140.256 19.296 
C 108.177033 19.296 77.407619 32.041109 54.724364 54.724364 
C 32.041109 77.407619 19.296 108.177033 19.296 140.256 
C 19.296 172.334967 32.041109 203.104381 54.724364 225.787636 
C 77.407619 248.470891 108.177033 261.216 140.256 261.216 
z
" style="fill:none;stroke:#1f9c25;stroke-linejoin:miter;stroke-width:6;"/>
    </g>
    <g id="patch_5">
     <path clip-path="url(#p2b489bfa9a)" d="M 43.488 140.256 
L 91.872 140.256 
L 67.68 98.354227 
z
" style="fill:none;stroke:#0000ff;stroke-linejoin:miter;stroke-width:3;"/>
    </g>
    <g id="patch_6">
     <path clip-path="url(#p2b489bfa9a)" d="M 237.024 140.256 
L 188.64 140.256 
L 212.832 98.354227 
" style="fill:none;stroke:#0000ff;stroke-linejoin:miter;stroke-width:3;"/>
    </g>
   </g>
  </g>
  <defs>
   <clipPath id="p2b489bfa9a">
    <rect height="266.112" width="266.112" x="7.2" y="7.2"/>
   </clipPath>
  </defs>
 </g>
</svg>
