<?xml version="1.0" encoding="utf-8" standalone="no"?>
<!DOCTYPE svg PUBLIC "-//W3C//DTD SVG 1.1//EN"
  "http://www.w3.org/Graphics/SVG/1.1/DTD/svg11.dtd">
<svg xmlns:xlink="http://www.w3.org/1999/xlink" width="297.359834pt" height="295.900366pt" viewBox="0 0 297.359834 295.900366" xmlns="http://www.w3.org/2000/svg" version="1.1">
 <metadata>
  <rdf:RDF xmlns:dc="http://purl.org/dc/elements/1.1/" xmlns:cc="http://creativecommons.org/ns#" xmlns:rdf="http://www.w3.org/1999/02/22-rdf-syntax-ns#">
   <cc:Work>
    <dc:type rdf:resource="http://purl.org/dc/dcmitype/StillImage"/>
    <dc:date>2022-05-14T21:07:25.012468</dc:date>
    <dc:format>image/svg+xml</dc:format>
    <dc:creator>
     <cc:Agent>
      <dc:title>Matplotlib v3.5.2, https://matplotlib.org/</dc:title>
     </cc:Agent>
    </dc:creator>
   </cc:Work>
  </rdf:RDF>
 </metadata>
 <defs>
  <style type="text/css">*{stroke-linejoin: round; stroke-linecap: butt}</style>
 </defs>
 <g id="figure_1">
  <g id="patch_1">
   <path d="M 0 295.900366 
L 297.359834 295.900366 
L 297.359834 0 
L 0 0 
z
" style="fill: #ffffff"/>
  </g>
  <g id="patch_2">
   <path d="M 7.2 273.312 
L 273.312 273.312 
L 273.312 7.2 
L 7.2 7.2 
z
" style="fill: #ffffff"/>
  </g>
  <g id="pane3d_1">
   <g id="patch_3">
    <path d="M 36.832607 218.845431 
L 117.342091 149.9149 
L 115.93652 18.519704 
L 30.668128 80.067902 
" style="fill: #f2f2f2; opacity: 0.5; stroke: #f2f2f2; stroke-linejoin: miter"/>
   </g>
  </g>
  <g id="pane3d_2">
   <g id="patch_4">
    <path d="M 117.342091 149.9149 
L 247.299674 188.383675 
L 253.048471 52.802633 
L 115.93652 18.519704 
" style="fill: #e6e6e6; opacity: 0.5; stroke: #e6e6e6; stroke-linejoin: miter"/>
   </g>
  </g>
  <g id="pane3d_3">
   <g id="patch_5">
    <path d="M 36.832607 218.845431 
L 173.947415 264.024759 
L 247.299674 188.383675 
L 117.342091 149.9149 
" style="fill: #ececec; opacity: 0.5; stroke: #ececec; stroke-linejoin: miter"/>
   </g>
  </g>
  <g id="axis3d_1">
   <g id="line2d_1">
    <path d="M 36.832607 218.845431 
L 173.947415 264.024759 
" style="fill: none; stroke: #000000; stroke-width: 0.8; stroke-linecap: square"/>
   </g>
   <g id="text_1">
    <!-- x -->
    <g transform="translate(86.026154 281.966821)scale(0.1 -0.1)">
     <defs>
      <path id="DejaVuSans-78" d="M 3513 3500 
L 2247 1797 
L 3578 0 
L 2900 0 
L 1881 1375 
L 863 0 
L 184 0 
L 1544 1831 
L 300 3500 
L 978 3500 
L 1906 2253 
L 2834 3500 
L 3513 3500 
z
" transform="scale(0.015625)"/>
     </defs>
     <use xlink:href="#DejaVuSans-78"/>
    </g>
   </g>
   <g id="Line3DCollection_1">
    <path d="M 45.171566 221.593118 
L 125.273513 152.262682 
L 124.285582 20.60727 
" style="fill: none; stroke: #b0b0b0; stroke-width: 0.8"/>
    <path d="M 74.147448 231.140671 
L 152.805288 160.41237 
L 153.286213 27.858473 
" style="fill: none; stroke: #b0b0b0; stroke-width: 0.8"/>
    <path d="M 103.734121 240.889479 
L 180.872605 168.720583 
L 182.881569 35.258379 
" style="fill: none; stroke: #b0b0b0; stroke-width: 0.8"/>
    <path d="M 133.951103 250.845974 
L 209.491242 177.191992 
L 213.090134 42.811609 
" style="fill: none; stroke: #b0b0b0; stroke-width: 0.8"/>
    <path d="M 164.818752 261.016864 
L 238.677606 185.831454 
L 243.931166 50.522979 
" style="fill: none; stroke: #b0b0b0; stroke-width: 0.8"/>
   </g>
   <g id="xtick_1">
    <g id="line2d_2">
     <path d="M 45.864437 220.993419 
L 43.783095 222.794878 
" style="fill: none; stroke: #000000; stroke-width: 0.8; stroke-linecap: square"/>
    </g>
    <g id="text_2">
     <!-- −1.0 -->
     <g transform="translate(26.27125 246.362284)scale(0.1 -0.1)">
      <defs>
       <path id="DejaVuSans-2212" d="M 678 2272 
L 4684 2272 
L 4684 1741 
L 678 1741 
L 678 2272 
z
" transform="scale(0.015625)"/>
       <path id="DejaVuSans-31" d="M 794 531 
L 1825 531 
L 1825 4091 
L 703 3866 
L 703 4441 
L 1819 4666 
L 2450 4666 
L 2450 531 
L 3481 531 
L 3481 0 
L 794 0 
L 794 531 
z
" transform="scale(0.015625)"/>
       <path id="DejaVuSans-2e" d="M 684 794 
L 1344 794 
L 1344 0 
L 684 0 
L 684 794 
z
" transform="scale(0.015625)"/>
       <path id="DejaVuSans-30" d="M 2034 4250 
Q 1547 4250 1301 3770 
Q 1056 3291 1056 2328 
Q 1056 1369 1301 889 
Q 1547 409 2034 409 
Q 2525 409 2770 889 
Q 3016 1369 3016 2328 
Q 3016 3291 2770 3770 
Q 2525 4250 2034 4250 
z
M 2034 4750 
Q 2819 4750 3233 4129 
Q 3647 3509 3647 2328 
Q 3647 1150 3233 529 
Q 2819 -91 2034 -91 
Q 1250 -91 836 529 
Q 422 1150 422 2328 
Q 422 3509 836 4129 
Q 1250 4750 2034 4750 
z
" transform="scale(0.015625)"/>
      </defs>
      <use xlink:href="#DejaVuSans-2212"/>
      <use xlink:href="#DejaVuSans-31" x="83.789062"/>
      <use xlink:href="#DejaVuSans-2e" x="147.412109"/>
      <use xlink:href="#DejaVuSans-30" x="179.199219"/>
     </g>
    </g>
   </g>
   <g id="xtick_2">
    <g id="line2d_3">
     <path d="M 74.828361 230.528402 
L 72.782913 232.367647 
" style="fill: none; stroke: #000000; stroke-width: 0.8; stroke-linecap: square"/>
    </g>
    <g id="text_3">
     <!-- −0.5 -->
     <g transform="translate(55.242983 256.111247)scale(0.1 -0.1)">
      <defs>
       <path id="DejaVuSans-35" d="M 691 4666 
L 3169 4666 
L 3169 4134 
L 1269 4134 
L 1269 2991 
Q 1406 3038 1543 3061 
Q 1681 3084 1819 3084 
Q 2600 3084 3056 2656 
Q 3513 2228 3513 1497 
Q 3513 744 3044 326 
Q 2575 -91 1722 -91 
Q 1428 -91 1123 -41 
Q 819 9 494 109 
L 494 744 
Q 775 591 1075 516 
Q 1375 441 1709 441 
Q 2250 441 2565 725 
Q 2881 1009 2881 1497 
Q 2881 1984 2565 2268 
Q 2250 2553 1709 2553 
Q 1456 2553 1204 2497 
Q 953 2441 691 2322 
L 691 4666 
z
" transform="scale(0.015625)"/>
      </defs>
      <use xlink:href="#DejaVuSans-2212"/>
      <use xlink:href="#DejaVuSans-30" x="83.789062"/>
      <use xlink:href="#DejaVuSans-2e" x="147.412109"/>
      <use xlink:href="#DejaVuSans-35" x="179.199219"/>
     </g>
    </g>
   </g>
   <g id="xtick_3">
    <g id="line2d_4">
     <path d="M 104.402415 240.26424 
L 102.394846 242.142473 
" style="fill: none; stroke: #000000; stroke-width: 0.8; stroke-linecap: square"/>
    </g>
    <g id="text_4">
     <!-- 0.0 -->
     <g transform="translate(89.016679 266.066188)scale(0.1 -0.1)">
      <use xlink:href="#DejaVuSans-30"/>
      <use xlink:href="#DejaVuSans-2e" x="63.623047"/>
      <use xlink:href="#DejaVuSans-30" x="95.410156"/>
     </g>
    </g>
   </g>
   <g id="xtick_4">
    <g id="line2d_5">
     <path d="M 134.606083 250.207349 
L 132.638481 252.125822 
" style="fill: none; stroke: #000000; stroke-width: 0.8; stroke-linecap: square"/>
    </g>
    <g id="text_5">
     <!-- 0.5 -->
     <g transform="translate(119.232258 276.233704)scale(0.1 -0.1)">
      <use xlink:href="#DejaVuSans-30"/>
      <use xlink:href="#DejaVuSans-2e" x="63.623047"/>
      <use xlink:href="#DejaVuSans-35" x="95.410156"/>
     </g>
    </g>
   </g>
   <g id="xtick_5">
    <g id="line2d_6">
     <path d="M 165.459687 260.364418 
L 163.534249 262.324438 
" style="fill: none; stroke: #000000; stroke-width: 0.8; stroke-linecap: square"/>
    </g>
    <g id="text_6">
     <!-- 1.0 -->
     <g transform="translate(150.100015 286.620678)scale(0.1 -0.1)">
      <use xlink:href="#DejaVuSans-31"/>
      <use xlink:href="#DejaVuSans-2e" x="63.623047"/>
      <use xlink:href="#DejaVuSans-30" x="95.410156"/>
     </g>
    </g>
   </g>
  </g>
  <g id="axis3d_2">
   <g id="line2d_7">
    <path d="M 247.299674 188.383675 
L 173.947415 264.024759 
" style="fill: none; stroke: #000000; stroke-width: 0.8; stroke-linecap: square"/>
   </g>
   <g id="text_7">
    <!-- y -->
    <g transform="translate(233.680665 258.992768)scale(0.1 -0.1)">
     <defs>
      <path id="DejaVuSans-79" d="M 2059 -325 
Q 1816 -950 1584 -1140 
Q 1353 -1331 966 -1331 
L 506 -1331 
L 506 -850 
L 844 -850 
Q 1081 -850 1212 -737 
Q 1344 -625 1503 -206 
L 1606 56 
L 191 3500 
L 800 3500 
L 1894 763 
L 2988 3500 
L 3597 3500 
L 2059 -325 
z
" transform="scale(0.015625)"/>
     </defs>
     <use xlink:href="#DejaVuSans-79"/>
    </g>
   </g>
   <g id="Line3DCollection_2">
    <path d="M 36.530896 75.836055 
L 42.345833 214.125123 
L 178.988009 258.826882 
" style="fill: none; stroke: #b0b0b0; stroke-width: 0.8"/>
    <path d="M 56.153998 61.671761 
L 60.822914 198.305434 
L 195.862308 241.426051 
" style="fill: none; stroke: #b0b0b0; stroke-width: 0.8"/>
    <path d="M 75.067893 48.019384 
L 78.66715 183.027574 
L 212.131225 224.649492 
" style="fill: none; stroke: #b0b0b0; stroke-width: 0.8"/>
    <path d="M 93.310347 34.851666 
L 95.910506 168.264173 
L 227.826763 208.464203 
" style="fill: none; stroke: #b0b0b0; stroke-width: 0.8"/>
    <path d="M 110.916489 22.143249 
L 112.582832 153.989679 
L 242.978709 192.839468 
" style="fill: none; stroke: #b0b0b0; stroke-width: 0.8"/>
   </g>
   <g id="xtick_6">
    <g id="line2d_8">
     <path d="M 177.841504 258.451809 
L 181.283731 259.577915 
" style="fill: none; stroke: #000000; stroke-width: 0.8; stroke-linecap: square"/>
    </g>
    <g id="text_8">
     <!-- −1.0 -->
     <g transform="translate(178.569202 281.483382)scale(0.1 -0.1)">
      <use xlink:href="#DejaVuSans-2212"/>
      <use xlink:href="#DejaVuSans-31" x="83.789062"/>
      <use xlink:href="#DejaVuSans-2e" x="147.412109"/>
      <use xlink:href="#DejaVuSans-30" x="179.199219"/>
     </g>
    </g>
   </g>
   <g id="xtick_7">
    <g id="line2d_9">
     <path d="M 194.730215 241.064552 
L 198.129124 242.149888 
" style="fill: none; stroke: #000000; stroke-width: 0.8; stroke-linecap: square"/>
    </g>
    <g id="text_9">
     <!-- −0.5 -->
     <g transform="translate(195.219051 263.818465)scale(0.1 -0.1)">
      <use xlink:href="#DejaVuSans-2212"/>
      <use xlink:href="#DejaVuSans-30" x="83.789062"/>
      <use xlink:href="#DejaVuSans-2e" x="147.412109"/>
      <use xlink:href="#DejaVuSans-35" x="179.199219"/>
     </g>
    </g>
   </g>
   <g id="xtick_8">
    <g id="line2d_10">
     <path d="M 211.013255 224.300844 
L 214.369713 225.347584 
" style="fill: none; stroke: #000000; stroke-width: 0.8; stroke-linecap: square"/>
    </g>
    <g id="text_10">
     <!-- 0.0 -->
     <g transform="translate(215.461776 246.786909)scale(0.1 -0.1)">
      <use xlink:href="#DejaVuSans-30"/>
      <use xlink:href="#DejaVuSans-2e" x="63.623047"/>
      <use xlink:href="#DejaVuSans-30" x="95.410156"/>
     </g>
    </g>
   </g>
   <g id="xtick_9">
    <g id="line2d_11">
     <path d="M 226.722634 208.127732 
L 230.037494 209.1379 
" style="fill: none; stroke: #000000; stroke-width: 0.8; stroke-linecap: square"/>
    </g>
    <g id="text_11">
     <!-- 0.5 -->
     <g transform="translate(230.949232 230.355251)scale(0.1 -0.1)">
      <use xlink:href="#DejaVuSans-30"/>
      <use xlink:href="#DejaVuSans-2e" x="63.623047"/>
      <use xlink:href="#DejaVuSans-35" x="95.410156"/>
     </g>
    </g>
   </g>
   <g id="xtick_10">
    <g id="line2d_12">
     <path d="M 241.88814 192.514547 
L 245.162247 193.490026 
" style="fill: none; stroke: #000000; stroke-width: 0.8; stroke-linecap: square"/>
    </g>
    <g id="text_12">
     <!-- 1.0 -->
     <g transform="translate(245.900617 214.492344)scale(0.1 -0.1)">
      <use xlink:href="#DejaVuSans-31"/>
      <use xlink:href="#DejaVuSans-2e" x="63.623047"/>
      <use xlink:href="#DejaVuSans-30" x="95.410156"/>
     </g>
    </g>
   </g>
  </g>
  <g id="axis3d_3">
   <g id="line2d_13">
    <path d="M 247.299674 188.383675 
L 253.048471 52.802633 
" style="fill: none; stroke: #000000; stroke-width: 0.8; stroke-linecap: square"/>
   </g>
   <g id="text_13">
    <!-- z -->
    <g transform="translate(284.911397 120.169327)scale(0.1 -0.1)">
     <defs>
      <path id="DejaVuSans-7a" d="M 353 3500 
L 3084 3500 
L 3084 2975 
L 922 459 
L 3084 459 
L 3084 0 
L 275 0 
L 275 525 
L 2438 3041 
L 353 3041 
L 353 3500 
z
" transform="scale(0.015625)"/>
     </defs>
     <use xlink:href="#DejaVuSans-7a"/>
    </g>
   </g>
   <g id="Line3DCollection_3">
    <path d="M 247.647412 180.182542 
L 117.256876 141.948872 
L 36.460397 210.466082 
" style="fill: none; stroke: #b0b0b0; stroke-width: 0.8"/>
    <path d="M 248.857611 151.640908 
L 116.960506 114.243645 
L 35.164357 181.289045 
" style="fill: none; stroke: #b0b0b0; stroke-width: 0.8"/>
    <path d="M 250.096364 122.425861 
L 116.657455 85.913979 
L 33.836653 151.399168 
" style="fill: none; stroke: #b0b0b0; stroke-width: 0.8"/>
    <path d="M 251.364692 92.513284 
L 116.347497 56.938522 
L 32.47611 120.770005 
" style="fill: none; stroke: #b0b0b0; stroke-width: 0.8"/>
    <path d="M 252.663669 61.877893 
L 116.030391 27.294939 
L 31.081494 89.373784 
" style="fill: none; stroke: #b0b0b0; stroke-width: 0.8"/>
   </g>
   <g id="xtick_11">
    <g id="line2d_14">
     <path d="M 246.556968 179.862797 
L 249.830697 180.822734 
" style="fill: none; stroke: #000000; stroke-width: 0.8; stroke-linecap: square"/>
    </g>
    <g id="text_14">
     <!-- −1.0 -->
     <g transform="translate(252.394996 185.359153)scale(0.1 -0.1)">
      <use xlink:href="#DejaVuSans-2212"/>
      <use xlink:href="#DejaVuSans-31" x="83.789062"/>
      <use xlink:href="#DejaVuSans-2e" x="147.412109"/>
      <use xlink:href="#DejaVuSans-30" x="179.199219"/>
     </g>
    </g>
   </g>
   <g id="xtick_12">
    <g id="line2d_15">
     <path d="M 247.75401 151.328 
L 251.067268 152.26742 
" style="fill: none; stroke: #000000; stroke-width: 0.8; stroke-linecap: square"/>
    </g>
    <g id="text_15">
     <!-- −0.5 -->
     <g transform="translate(253.798168 156.869367)scale(0.1 -0.1)">
      <use xlink:href="#DejaVuSans-2212"/>
      <use xlink:href="#DejaVuSans-30" x="83.789062"/>
      <use xlink:href="#DejaVuSans-2e" x="147.412109"/>
      <use xlink:href="#DejaVuSans-35" x="179.199219"/>
     </g>
    </g>
   </g>
   <g id="xtick_13">
    <g id="line2d_16">
     <path d="M 248.979284 122.120203 
L 252.333036 123.037864 
" style="fill: none; stroke: #000000; stroke-width: 0.8; stroke-linecap: square"/>
    </g>
    <g id="text_16">
     <!-- 0.0 -->
     <g transform="translate(259.424196 127.709298)scale(0.1 -0.1)">
      <use xlink:href="#DejaVuSans-30"/>
      <use xlink:href="#DejaVuSans-2e" x="63.623047"/>
      <use xlink:href="#DejaVuSans-30" x="95.410156"/>
     </g>
    </g>
   </g>
   <g id="xtick_14">
    <g id="line2d_17">
     <path d="M 250.233801 92.215313 
L 253.629048 93.109903 
" style="fill: none; stroke: #000000; stroke-width: 0.8; stroke-linecap: square"/>
    </g>
    <g id="text_17">
     <!-- 0.5 -->
     <g transform="translate(260.894571 97.85501)scale(0.1 -0.1)">
      <use xlink:href="#DejaVuSans-30"/>
      <use xlink:href="#DejaVuSans-2e" x="63.623047"/>
      <use xlink:href="#DejaVuSans-35" x="95.410156"/>
     </g>
    </g>
   </g>
   <g id="xtick_15">
    <g id="line2d_18">
     <path d="M 251.518622 61.588073 
L 254.956402 62.458202 
" style="fill: none; stroke: #000000; stroke-width: 0.8; stroke-linecap: square"/>
    </g>
    <g id="text_18">
     <!-- 1.0 -->
     <g transform="translate(262.400374 67.281413)scale(0.1 -0.1)">
      <use xlink:href="#DejaVuSans-31"/>
      <use xlink:href="#DejaVuSans-2e" x="63.623047"/>
      <use xlink:href="#DejaVuSans-30" x="95.410156"/>
     </g>
    </g>
   </g>
  </g>
  <g id="axes_1">
   <g id="Poly3DCollection_1">
    <path d="M 154.946866 144.137652 
L 156.069828 133.850279 
L 137.713155 133.371075 
L 138.277105 143.697061 
z
" clip-path="url(#p5de2780f6c)" style="fill: #600e9c"/>
    <path d="M 156.069828 133.850279 
L 156.906189 123.620039 
L 137.293175 123.114379 
L 137.713155 133.371075 
z
" clip-path="url(#p5de2780f6c)" style="fill: #5f0e9a"/>
    <path d="M 153.561155 154.262753 
L 154.946866 144.137652 
L 138.277105 143.697061 
L 138.973091 153.872506 
z
" clip-path="url(#p5de2780f6c)" style="fill: #600e9d"/>
    <path d="M 138.277105 143.697061 
L 137.713155 133.371075 
L 119.895887 135.746331 
L 122.102345 145.880466 
z
" clip-path="url(#p5de2780f6c)" style="fill: #550d8b"/>
    <path d="M 137.713155 133.371075 
L 137.293175 123.114379 
L 118.251956 125.621158 
L 119.895887 135.746331 
z
" clip-path="url(#p5de2780f6c)" style="fill: #530c87"/>
    <path d="M 138.973091 153.872506 
L 138.277105 143.697061 
L 122.102345 145.880466 
L 124.823786 155.805921 
z
" clip-path="url(#p5de2780f6c)" style="fill: #570d8d"/>
    <path d="M 156.906189 123.620039 
L 157.437212 113.665907 
L 137.026537 113.146099 
L 137.293175 123.114379 
z
" clip-path="url(#p5de2780f6c)" style="fill: #5d0e97"/>
    <path d="M 170.629986 147.167081 
L 173.351119 137.146583 
L 156.069828 133.850279 
L 154.946866 144.137652 
z
" clip-path="url(#p5de2780f6c)" style="fill: #6910ab"/>
    <path d="M 151.941406 164.008191 
L 153.561155 154.262753 
L 138.973091 153.872506 
L 139.78674 163.679287 
z
" clip-path="url(#p5de2780f6c)" style="fill: #610e9d"/>
    <path d="M 167.274911 156.944634 
L 170.629986 147.167081 
L 154.946866 144.137652 
L 153.561155 154.262753 
z
" clip-path="url(#p5de2780f6c)" style="fill: #6910aa"/>
    <path d="M 173.351119 137.146583 
L 175.379061 127.099407 
L 156.906189 123.620039 
L 156.069828 133.850279 
z
" clip-path="url(#p5de2780f6c)" style="fill: #6910aa"/>
    <path d="M 137.293175 123.114379 
L 137.026537 113.146099 
L 117.207921 115.723275 
L 118.251956 125.621158 
z
" clip-path="url(#p5de2780f6c)" style="fill: #510c84"/>
    <path d="M 139.78674 163.679287 
L 138.973091 153.872506 
L 124.823786 155.805921 
L 128.00307 165.308294 
z
" clip-path="url(#p5de2780f6c)" style="fill: #590d90"/>
    <path d="M 163.357022 166.267142 
L 167.274911 156.944634 
L 153.561155 154.262753 
L 151.941406 164.008191 
z
" clip-path="url(#p5de2780f6c)" style="fill: #6810a9"/>
    <path d="M 175.379061 127.099407 
L 176.667219 117.243339 
L 157.437212 113.665907 
L 156.906189 123.620039 
z
" clip-path="url(#p5de2780f6c)" style="fill: #6810a9"/>
    <path d="M 157.437212 113.665907 
L 157.649568 104.20392 
L 136.919913 103.682178 
L 137.026537 113.146099 
z
" clip-path="url(#p5de2780f6c)" style="fill: #5b0e94"/>
    <path d="M 122.102345 145.880466 
L 119.895887 135.746331 
L 104.201662 140.789463 
L 107.873762 150.512447 
z
" clip-path="url(#p5de2780f6c)" style="fill: #4b0b7a"/>
    <path d="M 150.120946 173.161136 
L 151.941406 164.008191 
L 139.78674 163.679287 
L 140.70136 172.903509 
z
" clip-path="url(#p5de2780f6c)" style="fill: #600e9d"/>
    <path d="M 124.823786 155.805921 
L 122.102345 145.880466 
L 107.873762 150.512447 
L 112.397267 159.903397 
z
" clip-path="url(#p5de2780f6c)" style="fill: #4e0c7e"/>
    <path d="M 137.026537 113.146099 
L 136.919913 103.682178 
L 116.790355 106.269046 
L 117.207921 115.723275 
z
" clip-path="url(#p5de2780f6c)" style="fill: #4f0c81"/>
    <path d="M 140.70136 172.903509 
L 139.78674 163.679287 
L 128.00307 165.308294 
L 131.574011 174.17906 
z
" clip-path="url(#p5de2780f6c)" style="fill: #5a0d92"/>
    <path d="M 119.895887 135.746331 
L 118.251956 125.621158 
L 101.463074 130.946807 
L 104.201662 140.789463 
z
" clip-path="url(#p5de2780f6c)" style="fill: #480b75"/>
    <path d="M 128.00307 165.308294 
L 124.823786 155.805921 
L 112.397267 159.903397 
L 117.673888 168.756548 
z
" clip-path="url(#p5de2780f6c)" style="fill: #510c83"/>
    <path d="M 158.958579 174.929351 
L 163.357022 166.267142 
L 151.941406 164.008191 
L 150.120946 173.161136 
z
" clip-path="url(#p5de2780f6c)" style="fill: #660fa6"/>
    <path d="M 176.667219 117.243339 
L 177.182476 107.794947 
L 157.649568 104.20392 
L 157.437212 113.665907 
z
" clip-path="url(#p5de2780f6c)" style="fill: #660fa6"/>
    <path d="M 178.85958 161.695489 
L 183.906078 152.540324 
L 170.629986 147.167081 
L 167.274911 156.944634 
z
" clip-path="url(#p5de2780f6c)" style="fill: #7011b5"/>
    <path d="M 183.906078 152.540324 
L 188.004976 142.99912 
L 173.351119 137.146583 
L 170.629986 147.167081 
z
" clip-path="url(#p5de2780f6c)" style="fill: #7111b7"/>
    <path d="M 118.251956 125.621158 
L 117.207921 115.723275 
L 99.722652 121.200617 
L 101.463074 130.946807 
z
" clip-path="url(#p5de2780f6c)" style="fill: #450a71"/>
    <path d="M 157.649568 104.20392 
L 157.535659 95.444461 
L 136.977107 94.932703 
L 136.919913 103.682178 
z
" clip-path="url(#p5de2780f6c)" style="fill: #590d91"/>
    <path d="M 172.976741 170.262949 
L 178.85958 161.695489 
L 167.274911 156.944634 
L 163.357022 166.267142 
z
" clip-path="url(#p5de2780f6c)" style="fill: #6e10b2"/>
    <path d="M 188.004976 142.99912 
L 191.063172 133.281649 
L 175.379061 127.099407 
L 173.351119 137.146583 
z
" clip-path="url(#p5de2780f6c)" style="fill: #7111b8"/>
    <path d="M 131.574011 174.17906 
L 128.00307 165.308294 
L 117.673888 168.756548 
L 123.590416 176.875532 
z
" clip-path="url(#p5de2780f6c)" style="fill: #530d88"/>
    <path d="M 148.137466 181.516109 
L 150.120946 173.161136 
L 140.70136 172.903509 
L 141.698064 181.338282 
z
" clip-path="url(#p5de2780f6c)" style="fill: #600e9b"/>
    <path d="M 136.919913 103.682178 
L 136.977107 94.932703 
L 117.014344 97.470014 
L 116.790355 106.269046 
z
" clip-path="url(#p5de2780f6c)" style="fill: #4d0c7d"/>
    <path d="M 141.698064 181.338282 
L 140.70136 172.903509 
L 131.574011 174.17906 
L 135.461957 182.218403 
z
" clip-path="url(#p5de2780f6c)" style="fill: #5b0e94"/>
    <path d="M 166.385402 178.051982 
L 172.976741 170.262949 
L 163.357022 166.267142 
L 158.958579 174.929351 
z
" clip-path="url(#p5de2780f6c)" style="fill: #6b10ae"/>
    <path d="M 154.172184 182.735716 
L 158.958579 174.929351 
L 150.120946 173.161136 
L 148.137466 181.516109 
z
" clip-path="url(#p5de2780f6c)" style="fill: #640fa2"/>
    <path d="M 191.063172 133.281649 
L 193.007291 123.60288 
L 176.667219 117.243339 
L 175.379061 127.099407 
z
" clip-path="url(#p5de2780f6c)" style="fill: #7011b7"/>
    <path d="M 177.182476 107.794947 
L 176.906081 98.966619 
L 157.535659 95.444461 
L 157.649568 104.20392 
z
" clip-path="url(#p5de2780f6c)" style="fill: #640fa3"/>
    <path d="M 117.207921 115.723275 
L 116.790355 106.269046 
L 99.026305 111.767843 
L 99.722652 121.200617 
z
" clip-path="url(#p5de2780f6c)" style="fill: #430a6d"/>
    <path d="M 135.461957 182.218403 
L 131.574011 174.17906 
L 123.590416 176.875532 
L 130.02003 184.076257 
z
" clip-path="url(#p5de2780f6c)" style="fill: #560d8c"/>
    <path d="M 112.397267 159.903397 
L 107.873762 150.512447 
L 96.917541 157.211009 
L 102.859444 165.818993 
z
" clip-path="url(#p5de2780f6c)" style="fill: #450a71"/>
    <path d="M 117.673888 168.756548 
L 112.397267 159.903397 
L 102.859444 165.818993 
L 109.775667 173.725068 
z
" clip-path="url(#p5de2780f6c)" style="fill: #490b77"/>
    <path d="M 107.873762 150.512447 
L 104.201662 140.789463 
L 92.085287 148.092611 
L 96.917541 157.211009 
z
" clip-path="url(#p5de2780f6c)" style="fill: #410a6a"/>
    <path d="M 159.228351 184.885681 
L 166.385402 178.051982 
L 158.958579 174.929351 
L 154.172184 182.735716 
z
" clip-path="url(#p5de2780f6c)" style="fill: #670fa8"/>
    <path d="M 157.535659 95.444461 
L 157.093991 87.589182 
L 137.198874 87.098861 
L 136.977107 94.932703 
z
" clip-path="url(#p5de2780f6c)" style="fill: #570d8d"/>
    <path d="M 123.590416 176.875532 
L 117.673888 168.756548 
L 109.775667 173.725068 
L 117.511559 180.752269 
z
" clip-path="url(#p5de2780f6c)" style="fill: #4e0c7e"/>
    <path d="M 193.007291 123.60288 
L 193.785265 114.179884 
L 177.182476 107.794947 
L 176.667219 117.243339 
z
" clip-path="url(#p5de2780f6c)" style="fill: #6f11b4"/>
    <path d="M 104.201662 140.789463 
L 101.463074 130.946807 
L 88.476374 138.666961 
L 92.085287 148.092611 
z
" clip-path="url(#p5de2780f6c)" style="fill: #3e0964"/>
    <path d="M 136.977107 94.932703 
L 137.198874 87.098861 
L 117.882746 89.529685 
L 117.014344 97.470014 
z
" clip-path="url(#p5de2780f6c)" style="fill: #4b0b7a"/>
    <path d="M 146.032713 188.87815 
L 148.137466 181.516109 
L 141.698064 181.338282 
L 142.755913 188.786893 
z
" clip-path="url(#p5de2780f6c)" style="fill: #5e0e9a"/>
    <path d="M 179.877967 175.646071 
L 187.209334 168.109857 
L 178.85958 161.695489 
L 172.976741 170.262949 
z
" clip-path="url(#p5de2780f6c)" style="fill: #7111b8"/>
    <path d="M 142.755913 188.786893 
L 141.698064 181.338282 
L 135.461957 182.218403 
L 139.58446 189.238376 
z
" clip-path="url(#p5de2780f6c)" style="fill: #5c0e95"/>
    <path d="M 187.209334 168.109857 
L 193.513164 159.808673 
L 183.906078 152.540324 
L 178.85958 161.695489 
z
" clip-path="url(#p5de2780f6c)" style="fill: #7411bc"/>
    <path d="M 116.790355 106.269046 
L 117.014344 97.470014 
L 99.399854 102.863018 
L 99.026305 111.767843 
z
" clip-path="url(#p5de2780f6c)" style="fill: #410a69"/>
    <path d="M 149.099889 189.503539 
L 154.172184 182.735716 
L 148.137466 181.516109 
L 146.032713 188.87815 
z
" clip-path="url(#p5de2780f6c)" style="fill: #610f9e"/>
    <path d="M 171.685536 182.248449 
L 179.877967 175.646071 
L 172.976741 170.262949 
L 166.385402 178.051982 
z
" clip-path="url(#p5de2780f6c)" style="fill: #6e10b2"/>
    <path d="M 130.02003 184.076257 
L 123.590416 176.875532 
L 117.511559 180.752269 
L 125.895538 186.740917 
z
" clip-path="url(#p5de2780f6c)" style="fill: #520c85"/>
    <path d="M 176.906081 98.966619 
L 175.834581 90.963245 
L 157.093991 87.589182 
L 157.535659 95.444461 
z
" clip-path="url(#p5de2780f6c)" style="fill: #610f9e"/>
    <path d="M 193.513164 159.808673 
L 198.643348 150.927916 
L 188.004976 142.99912 
L 183.906078 152.540324 
z
" clip-path="url(#p5de2780f6c)" style="fill: #7512bf"/>
    <path d="M 139.58446 189.238376 
L 135.461957 182.218403 
L 130.02003 184.076257 
L 136.823749 190.189954 
z
" clip-path="url(#p5de2780f6c)" style="fill: #590d90"/>
    <path d="M 151.661547 190.603915 
L 159.228351 184.885681 
L 154.172184 182.735716 
L 149.099889 189.503539 
z
" clip-path="url(#p5de2780f6c)" style="fill: #630fa1"/>
    <path d="M 162.816059 187.7673 
L 171.685536 182.248449 
L 166.385402 178.051982 
L 159.228351 184.885681 
z
" clip-path="url(#p5de2780f6c)" style="fill: #6910ab"/>
    <path d="M 101.463074 130.946807 
L 99.722652 121.200617 
L 86.180577 129.145828 
L 88.476374 138.666961 
z
" clip-path="url(#p5de2780f6c)" style="fill: #3b095f"/>
    <path d="M 193.785265 114.179884 
L 193.367919 105.22846 
L 176.906081 98.966619 
L 177.182476 107.794947 
z
" clip-path="url(#p5de2780f6c)" style="fill: #6d10b1"/>
    <path d="M 198.643348 150.927916 
L 202.476872 141.666678 
L 191.063172 133.281649 
L 188.004976 142.99912 
z
" clip-path="url(#p5de2780f6c)" style="fill: #7612c0"/>
    <path d="M 136.823749 190.189954 
L 130.02003 184.076257 
L 125.895538 186.740917 
L 134.741613 191.551318 
z
" clip-path="url(#p5de2780f6c)" style="fill: #560d8c"/>
    <path d="M 157.093991 87.589182 
L 156.329551 80.827478 
L 137.582731 80.369444 
L 137.198874 87.098861 
z
" clip-path="url(#p5de2780f6c)" style="fill: #540d89"/>
    <path d="M 153.468189 192.074611 
L 162.816059 187.7673 
L 159.228351 184.885681 
L 151.661547 190.603915 
z
" clip-path="url(#p5de2780f6c)" style="fill: #640fa3"/>
    <path d="M 117.511559 180.752269 
L 109.775667 173.725068 
L 105.095698 179.769926 
L 113.941329 185.455258 
z
" clip-path="url(#p5de2780f6c)" style="fill: #490b77"/>
    <path d="M 117.014344 97.470014 
L 117.882746 89.529685 
L 100.8477 94.694682 
L 99.399854 102.863018 
z
" clip-path="url(#p5de2780f6c)" style="fill: #3f0966"/>
    <path d="M 125.895538 186.740917 
L 117.511559 180.752269 
L 113.941329 185.455258 
L 123.496523 189.963421 
z
" clip-path="url(#p5de2780f6c)" style="fill: #4f0c80"/>
    <path d="M 109.775667 173.725068 
L 102.859444 165.818993 
L 97.163593 173.034664 
L 105.095698 179.769926 
z
" clip-path="url(#p5de2780f6c)" style="fill: #440a6e"/>
    <path d="M 99.722652 121.200617 
L 99.026305 111.767843 
L 85.261527 119.746248 
L 86.180577 129.145828 
z
" clip-path="url(#p5de2780f6c)" style="fill: #38085b"/>
    <path d="M 137.198874 87.098861 
L 137.582731 80.369444 
L 119.385437 82.639877 
L 117.882746 89.529685 
z
" clip-path="url(#p5de2780f6c)" style="fill: #490b76"/>
    <path d="M 202.476872 141.666678 
L 204.916492 132.234641 
L 193.007291 123.60288 
L 191.063172 133.281649 
z
" clip-path="url(#p5de2780f6c)" style="fill: #7612c0"/>
    <path d="M 143.852108 195.066455 
L 146.032713 188.87815 
L 142.755913 188.786893 
L 143.852108 195.066455 
z
" clip-path="url(#p5de2780f6c)" style="fill: #5d0e97"/>
    <path d="M 143.852108 195.066455 
L 142.755913 188.786893 
L 139.58446 189.238376 
L 143.852108 195.066455 
z
" clip-path="url(#p5de2780f6c)" style="fill: #5c0e95"/>
    <path d="M 143.852108 195.066455 
L 149.099889 189.503539 
L 146.032713 188.87815 
L 143.852108 195.066455 
z
" clip-path="url(#p5de2780f6c)" style="fill: #5e0e98"/>
    <path d="M 134.741613 191.551318 
L 125.895538 186.740917 
L 123.496523 189.963421 
L 133.543029 193.19227 
z
" clip-path="url(#p5de2780f6c)" style="fill: #540d89"/>
    <path d="M 102.859444 165.818993 
L 96.917541 157.211009 
L 90.330955 165.399831 
L 97.163593 173.034664 
z
" clip-path="url(#p5de2780f6c)" style="fill: #3f0966"/>
    <path d="M 143.852108 195.066455 
L 139.58446 189.238376 
L 136.823749 190.189954 
L 143.852108 195.066455 
z
" clip-path="url(#p5de2780f6c)" style="fill: #5b0e94"/>
    <path d="M 143.852108 195.066455 
L 151.661547 190.603915 
L 149.099889 189.503539 
L 143.852108 195.066455 
z
" clip-path="url(#p5de2780f6c)" style="fill: #5f0e9a"/>
    <path d="M 164.57529 191.109669 
L 174.32159 187.132 
L 171.685536 182.248449 
L 162.816059 187.7673 
z
" clip-path="url(#p5de2780f6c)" style="fill: #6a10ad"/>
    <path d="M 175.834581 90.963245 
L 173.980756 83.978464 
L 156.329551 80.827478 
L 157.093991 87.589182 
z
" clip-path="url(#p5de2780f6c)" style="fill: #5e0e99"/>
    <path d="M 174.32159 187.132 
L 183.354726 181.929708 
L 179.877967 175.646071 
L 171.685536 182.248449 
z
" clip-path="url(#p5de2780f6c)" style="fill: #6f11b4"/>
    <path d="M 143.852108 195.066455 
L 136.823749 190.189954 
L 134.741613 191.551318 
L 143.852108 195.066455 
z
" clip-path="url(#p5de2780f6c)" style="fill: #5a0e92"/>
    <path d="M 154.340643 193.774535 
L 164.57529 191.109669 
L 162.816059 187.7673 
L 153.468189 192.074611 
z
" clip-path="url(#p5de2780f6c)" style="fill: #650fa4"/>
    <path d="M 143.852108 195.066455 
L 153.468189 192.074611 
L 151.661547 190.603915 
L 143.852108 195.066455 
z
" clip-path="url(#p5de2780f6c)" style="fill: #5f0e9a"/>
    <path d="M 193.367919 105.22846 
L 191.750517 96.959397 
L 175.834581 90.963245 
L 176.906081 98.966619 
z
" clip-path="url(#p5de2780f6c)" style="fill: #6a10ac"/>
    <path d="M 183.354726 181.929708 
L 191.463645 175.617727 
L 187.209334 168.109857 
L 179.877967 175.646071 
z
" clip-path="url(#p5de2780f6c)" style="fill: #7211ba"/>
    <path d="M 143.852108 195.066455 
L 134.741613 191.551318 
L 133.543029 193.19227 
L 143.852108 195.066455 
z
" clip-path="url(#p5de2780f6c)" style="fill: #590d91"/>
    <path d="M 96.917541 157.211009 
L 92.085287 148.092611 
L 84.762026 157.03662 
L 90.330955 165.399831 
z
" clip-path="url(#p5de2780f6c)" style="fill: #3a095e"/>
    <path d="M 143.852108 195.066455 
L 154.340643 193.774535 
L 153.468189 192.074611 
L 143.852108 195.066455 
z
" clip-path="url(#p5de2780f6c)" style="fill: #5f0e9b"/>
    <path d="M 204.916492 132.234641 
L 205.89332 122.848628 
L 193.785265 114.179884 
L 193.007291 123.60288 
z
" clip-path="url(#p5de2780f6c)" style="fill: #7511be"/>
    <path d="M 143.852108 195.066455 
L 133.543029 193.19227 
L 133.349632 194.954305 
L 143.852108 195.066455 
z
" clip-path="url(#p5de2780f6c)" style="fill: #590d91"/>
    <path d="M 99.026305 111.767843 
L 99.399854 102.863018 
L 85.754578 110.686835 
L 85.261527 119.746248 
z
" clip-path="url(#p5de2780f6c)" style="fill: #360857"/>
    <path d="M 133.543029 193.19227 
L 123.496523 189.963421 
L 123.074433 193.43667 
L 133.349632 194.954305 
z
" clip-path="url(#p5de2780f6c)" style="fill: #530c86"/>
    <path d="M 143.852108 195.066455 
L 154.188461 195.538886 
L 154.340643 193.774535 
L 143.852108 195.066455 
z
" clip-path="url(#p5de2780f6c)" style="fill: #5f0e9a"/>
    <path d="M 191.463645 175.617727 
L 198.455174 168.336113 
L 193.513164 159.808673 
L 187.209334 168.109857 
z
" clip-path="url(#p5de2780f6c)" style="fill: #7512bf"/>
    <path d="M 143.852108 195.066455 
L 133.349632 194.954305 
L 134.186197 196.665309 
L 143.852108 195.066455 
z
" clip-path="url(#p5de2780f6c)" style="fill: #590d90"/>
    <path d="M 123.496523 189.963421 
L 113.941329 185.455258 
L 113.264677 190.54225 
L 123.074433 193.43667 
z
" clip-path="url(#p5de2780f6c)" style="fill: #4c0b7c"/>
    <path d="M 154.188461 195.538886 
L 164.314298 194.591952 
L 164.57529 191.109669 
L 154.340643 193.774535 
z
" clip-path="url(#p5de2780f6c)" style="fill: #640fa3"/>
    <path d="M 143.852108 195.066455 
L 153.020673 197.194666 
L 154.188461 195.538886 
L 143.852108 195.066455 
z
" clip-path="url(#p5de2780f6c)" style="fill: #5f0e9a"/>
    <path d="M 92.085287 148.092611 
L 88.476374 138.666961 
L 80.595725 148.134399 
L 84.762026 157.03662 
z
" clip-path="url(#p5de2780f6c)" style="fill: #360857"/>
    <path d="M 117.882746 89.529685 
L 119.385437 82.639877 
L 103.35156 87.461367 
L 100.8477 94.694682 
z
" clip-path="url(#p5de2780f6c)" style="fill: #3d0964"/>
    <path d="M 156.329551 80.827478 
L 155.254186 75.33244 
L 138.122764 74.91683 
L 137.582731 80.369444 
z
" clip-path="url(#p5de2780f6c)" style="fill: #510c84"/>
    <path d="M 143.852108 195.066455 
L 134.186197 196.665309 
L 135.975983 198.15625 
L 143.852108 195.066455 
z
" clip-path="url(#p5de2780f6c)" style="fill: #590d91"/>
    <path d="M 143.852108 195.066455 
L 150.947154 198.577707 
L 153.020673 197.194666 
L 143.852108 195.066455 
z
" clip-path="url(#p5de2780f6c)" style="fill: #5e0e98"/>
    <path d="M 113.941329 185.455258 
L 105.095698 179.769926 
L 104.151011 186.329919 
L 113.264677 190.54225 
z
" clip-path="url(#p5de2780f6c)" style="fill: #460b72"/>
    <path d="M 198.455174 168.336113 
L 204.15812 160.248013 
L 198.643348 150.927916 
L 193.513164 159.808673 
z
" clip-path="url(#p5de2780f6c)" style="fill: #7712c2"/>
    <path d="M 143.852108 195.066455 
L 135.975983 198.15625 
L 138.546256 199.278302 
L 143.852108 195.066455 
z
" clip-path="url(#p5de2780f6c)" style="fill: #590d91"/>
    <path d="M 164.314298 194.591952 
L 173.993634 192.238468 
L 174.32159 187.132 
L 164.57529 191.109669 
z
" clip-path="url(#p5de2780f6c)" style="fill: #6910ab"/>
    <path d="M 137.582731 80.369444 
L 138.122764 74.91683 
L 121.498597 76.976558 
L 119.385437 82.639877 
z
" clip-path="url(#p5de2780f6c)" style="fill: #470b73"/>
    <path d="M 143.852108 195.066455 
L 148.169588 199.54953 
L 150.947154 198.577707 
L 143.852108 195.066455 
z
" clip-path="url(#p5de2780f6c)" style="fill: #5d0e97"/>
    <path d="M 143.852108 195.066455 
L 138.546256 199.278302 
L 141.644229 199.91852 
L 143.852108 195.066455 
z
" clip-path="url(#p5de2780f6c)" style="fill: #5a0e92"/>
    <path d="M 133.349632 194.954305 
L 123.074433 193.43667 
L 124.693376 196.822248 
L 134.186197 196.665309 
z
" clip-path="url(#p5de2780f6c)" style="fill: #520c86"/>
    <path d="M 143.852108 195.066455 
L 144.962245 200.012095 
L 148.169588 199.54953 
L 143.852108 195.066455 
z
" clip-path="url(#p5de2780f6c)" style="fill: #5c0e95"/>
    <path d="M 143.852108 195.066455 
L 141.644229 199.91852 
L 144.962245 200.012095 
L 143.852108 195.066455 
z
" clip-path="url(#p5de2780f6c)" style="fill: #5b0e94"/>
    <path d="M 205.89332 122.848628 
L 205.369258 113.728755 
L 193.367919 105.22846 
L 193.785265 114.179884 
z
" clip-path="url(#p5de2780f6c)" style="fill: #7211ba"/>
    <path d="M 191.750517 96.959397 
L 188.95417 89.574305 
L 173.980756 83.978464 
L 175.834581 90.963245 
z
" clip-path="url(#p5de2780f6c)" style="fill: #660fa6"/>
    <path d="M 173.980756 83.978464 
L 171.374479 78.190432 
L 155.254186 75.33244 
L 156.329551 80.827478 
z
" clip-path="url(#p5de2780f6c)" style="fill: #5b0e93"/>
    <path d="M 153.020673 197.194666 
L 162.03567 197.872282 
L 164.314298 194.591952 
L 154.188461 195.538886 
z
" clip-path="url(#p5de2780f6c)" style="fill: #630fa1"/>
    <path d="M 88.476374 138.666961 
L 86.180577 129.145828 
L 77.942132 138.897602 
L 80.595725 148.134399 
z
" clip-path="url(#p5de2780f6c)" style="fill: #320851"/>
    <path d="M 105.095698 179.769926 
L 97.163593 173.034664 
L 95.951944 180.888405 
L 104.151011 186.329919 
z
" clip-path="url(#p5de2780f6c)" style="fill: #400a68"/>
    <path d="M 99.399854 102.863018 
L 100.8477 94.694682 
L 87.664834 102.183671 
L 85.754578 110.686835 
z
" clip-path="url(#p5de2780f6c)" style="fill: #340855"/>
    <path d="M 173.993634 192.238468 
L 182.996811 188.5223 
L 183.354726 181.929708 
L 174.32159 187.132 
z
" clip-path="url(#p5de2780f6c)" style="fill: #6e10b2"/>
    <path d="M 204.15812 160.248013 
L 208.427338 151.537157 
L 202.476872 141.666678 
L 198.643348 150.927916 
z
" clip-path="url(#p5de2780f6c)" style="fill: #7812c3"/>
    <path d="M 134.186197 196.665309 
L 124.693376 196.822248 
L 128.215185 199.78282 
L 135.975983 198.15625 
z
" clip-path="url(#p5de2780f6c)" style="fill: #530c86"/>
    <path d="M 123.074433 193.43667 
L 113.264677 190.54225 
L 115.597068 195.518966 
L 124.693376 196.822248 
z
" clip-path="url(#p5de2780f6c)" style="fill: #4c0b7b"/>
    <path d="M 150.947154 198.577707 
L 157.94487 200.621479 
L 162.03567 197.872282 
L 153.020673 197.194666 
z
" clip-path="url(#p5de2780f6c)" style="fill: #610f9e"/>
    <path d="M 97.163593 173.034664 
L 90.330955 165.399831 
L 88.869086 174.335481 
L 95.951944 180.888405 
z
" clip-path="url(#p5de2780f6c)" style="fill: #3a095f"/>
    <path d="M 182.996811 188.5223 
L 191.105279 183.518556 
L 191.463645 175.617727 
L 183.354726 181.929708 
z
" clip-path="url(#p5de2780f6c)" style="fill: #7111b8"/>
    <path d="M 119.385437 82.639877 
L 121.498597 76.976558 
L 106.869383 81.347148 
L 103.35156 87.461367 
z
" clip-path="url(#p5de2780f6c)" style="fill: #3c0962"/>
    <path d="M 162.03567 197.872282 
L 170.683999 197.066142 
L 173.993634 192.238468 
L 164.314298 194.591952 
z
" clip-path="url(#p5de2780f6c)" style="fill: #670fa8"/>
    <path d="M 86.180577 129.145828 
L 85.261527 119.746248 
L 76.879149 129.542121 
L 77.942132 138.897602 
z
" clip-path="url(#p5de2780f6c)" style="fill: #2f074d"/>
    <path d="M 205.369258 113.728755 
L 203.339169 105.094116 
L 191.750517 96.959397 
L 193.367919 105.22846 
z
" clip-path="url(#p5de2780f6c)" style="fill: #6f11b5"/>
    <path d="M 208.427338 151.537157 
L 211.147666 142.404804 
L 204.916492 132.234641 
L 202.476872 141.666678 
z
" clip-path="url(#p5de2780f6c)" style="fill: #7812c3"/>
    <path d="M 135.975983 198.15625 
L 128.215185 199.78282 
L 133.305023 202.017328 
L 138.546256 199.278302 
z
" clip-path="url(#p5de2780f6c)" style="fill: #540d89"/>
    <path d="M 155.254186 75.33244 
L 153.886927 71.256281 
L 138.809461 70.892422 
L 138.122764 74.91683 
z
" clip-path="url(#p5de2780f6c)" style="fill: #4e0c7f"/>
    <path d="M 148.169588 199.54953 
L 152.437061 202.558296 
L 157.94487 200.621479 
L 150.947154 198.577707 
z
" clip-path="url(#p5de2780f6c)" style="fill: #5e0e9a"/>
    <path d="M 113.264677 190.54225 
L 104.151011 186.329919 
L 107.116754 192.769501 
L 115.597068 195.518966 
z
" clip-path="url(#p5de2780f6c)" style="fill: #450a70"/>
    <path d="M 100.8477 94.694682 
L 103.35156 87.461367 
L 90.965489 94.445762 
L 87.664834 102.183671 
z
" clip-path="url(#p5de2780f6c)" style="fill: #330853"/>
    <path d="M 188.95417 89.574305 
L 185.026994 83.26101 
L 171.374479 78.190432 
L 173.980756 83.978464 
z
" clip-path="url(#p5de2780f6c)" style="fill: #620fa0"/>
    <path d="M 138.122764 74.91683 
L 138.809461 70.892422 
L 124.184118 72.69521 
L 121.498597 76.976558 
z
" clip-path="url(#p5de2780f6c)" style="fill: #450a70"/>
    <path d="M 138.546256 199.278302 
L 133.305023 202.017328 
L 139.46013 203.294775 
L 141.644229 199.91852 
z
" clip-path="url(#p5de2780f6c)" style="fill: #560d8c"/>
    <path d="M 90.330955 165.399831 
L 84.762026 157.03662 
L 83.082289 166.816592 
L 88.869086 174.335481 
z
" clip-path="url(#p5de2780f6c)" style="fill: #350856"/>
    <path d="M 144.962245 200.012095 
L 146.060653 203.481637 
L 152.437061 202.558296 
L 148.169588 199.54953 
z
" clip-path="url(#p5de2780f6c)" style="fill: #5c0e95"/>
    <path d="M 191.105279 183.518556 
L 198.116594 177.33326 
L 198.455174 168.336113 
L 191.463645 175.617727 
z
" clip-path="url(#p5de2780f6c)" style="fill: #7411bc"/>
    <path d="M 141.644229 199.91852 
L 139.46013 203.294775 
L 146.060653 203.481637 
L 144.962245 200.012095 
z
" clip-path="url(#p5de2780f6c)" style="fill: #590d90"/>
    <path d="M 124.693376 196.822248 
L 115.597068 195.518966 
L 120.754532 199.88568 
L 128.215185 199.78282 
z
" clip-path="url(#p5de2780f6c)" style="fill: #4c0b7c"/>
    <path d="M 171.374479 78.190432 
L 168.063397 73.757118 
L 153.886927 71.256281 
L 155.254186 75.33244 
z
" clip-path="url(#p5de2780f6c)" style="fill: #570d8d"/>
    <path d="M 170.683999 197.066142 
L 178.755401 194.775866 
L 182.996811 188.5223 
L 173.993634 192.238468 
z
" clip-path="url(#p5de2780f6c)" style="fill: #6b10ae"/>
    <path d="M 85.261527 119.746248 
L 85.754578 110.686835 
L 77.449467 120.291138 
L 76.879149 129.542121 
z
" clip-path="url(#p5de2780f6c)" style="fill: #2d0749"/>
    <path d="M 211.147666 142.404804 
L 212.237641 133.066087 
L 205.89332 122.848628 
L 204.916492 132.234641 
z
" clip-path="url(#p5de2780f6c)" style="fill: #7712c1"/>
    <path d="M 157.94487 200.621479 
L 164.678103 201.125177 
L 170.683999 197.066142 
L 162.03567 197.872282 
z
" clip-path="url(#p5de2780f6c)" style="fill: #640fa2"/>
    <path d="M 203.339169 105.094116 
L 199.832648 97.158024 
L 188.95417 89.574305 
L 191.750517 96.959397 
z
" clip-path="url(#p5de2780f6c)" style="fill: #6c10af"/>
    <path d="M 104.151011 186.329919 
L 95.951944 180.888405 
L 99.463101 188.621538 
L 107.116754 192.769501 
z
" clip-path="url(#p5de2780f6c)" style="fill: #3f0966"/>
    <path d="M 84.762026 157.03662 
L 80.595725 148.134399 
L 78.744789 158.502798 
L 83.082289 166.816592 
z
" clip-path="url(#p5de2780f6c)" style="fill: #30074f"/>
    <path d="M 198.116594 177.33326 
L 203.849572 170.102377 
L 204.15812 160.248013 
L 198.455174 168.336113 
z
" clip-path="url(#p5de2780f6c)" style="fill: #7512bf"/>
    <path d="M 121.498597 76.976558 
L 124.184118 72.69521 
L 111.33459 76.516761 
L 106.869383 81.347148 
z
" clip-path="url(#p5de2780f6c)" style="fill: #3c0961"/>
    <path d="M 128.215185 199.78282 
L 120.754532 199.88568 
L 128.254212 203.190635 
L 133.305023 202.017328 
z
" clip-path="url(#p5de2780f6c)" style="fill: #4f0c80"/>
    <path d="M 103.35156 87.461367 
L 106.869383 81.347148 
L 95.596619 87.670067 
L 90.965489 94.445762 
z
" clip-path="url(#p5de2780f6c)" style="fill: #330853"/>
    <path d="M 152.437061 202.558296 
L 156.551914 203.991942 
L 164.678103 201.125177 
L 157.94487 200.621479 
z
" clip-path="url(#p5de2780f6c)" style="fill: #600e9b"/>
    <path d="M 115.597068 195.518966 
L 107.116754 192.769501 
L 113.777831 198.437618 
L 120.754532 199.88568 
z
" clip-path="url(#p5de2780f6c)" style="fill: #460b72"/>
    <path d="M 178.755401 194.775866 
L 186.047246 191.035717 
L 191.105279 183.518556 
L 182.996811 188.5223 
z
" clip-path="url(#p5de2780f6c)" style="fill: #6e10b2"/>
    <path d="M 212.237641 133.066087 
L 211.652823 123.745713 
L 205.369258 113.728755 
L 205.89332 122.848628 
z
" clip-path="url(#p5de2780f6c)" style="fill: #7411bd"/>
    <path d="M 85.754578 110.686835 
L 87.664834 102.183671 
L 79.657994 111.370403 
L 77.449467 120.291138 
z
" clip-path="url(#p5de2780f6c)" style="fill: #2c0747"/>
    <path d="M 185.026994 83.26101 
L 180.044847 78.188563 
L 168.063397 73.757118 
L 171.374479 78.190432 
z
" clip-path="url(#p5de2780f6c)" style="fill: #5d0e98"/>
    <path d="M 153.886927 71.256281 
L 152.254205 68.725323 
L 139.629601 68.42165 
L 138.809461 70.892422 
z
" clip-path="url(#p5de2780f6c)" style="fill: #4b0b7b"/>
    <path d="M 80.595725 148.134399 
L 77.942132 138.897602 
L 75.978487 149.587958 
L 78.744789 158.502798 
z
" clip-path="url(#p5de2780f6c)" style="fill: #2d0748"/>
    <path d="M 138.809461 70.892422 
L 139.629601 68.42165 
L 127.38925 69.925777 
L 124.184118 72.69521 
z
" clip-path="url(#p5de2780f6c)" style="fill: #430a6e"/>
    <path d="M 133.305023 202.017328 
L 128.254212 203.190635 
L 137.352451 205.083594 
L 139.46013 203.294775 
z
" clip-path="url(#p5de2780f6c)" style="fill: #520c85"/>
    <path d="M 95.951944 180.888405 
L 88.869086 174.335481 
L 92.832732 183.157124 
L 99.463101 188.621538 
z
" clip-path="url(#p5de2780f6c)" style="fill: #39095c"/>
    <path d="M 203.849572 170.102377 
L 208.149465 161.990053 
L 208.427338 151.537157 
L 204.15812 160.248013 
z
" clip-path="url(#p5de2780f6c)" style="fill: #7612c0"/>
    <path d="M 146.060653 203.481637 
L 147.120845 205.36071 
L 156.551914 203.991942 
L 152.437061 202.558296 
z
" clip-path="url(#p5de2780f6c)" style="fill: #5b0e94"/>
    <path d="M 164.678103 201.125177 
L 170.980029 200.049569 
L 178.755401 194.775866 
L 170.683999 197.066142 
z
" clip-path="url(#p5de2780f6c)" style="fill: #660fa6"/>
    <path d="M 168.063397 73.757118 
L 164.113307 70.811223 
L 152.254205 68.725323 
L 153.886927 71.256281 
z
" clip-path="url(#p5de2780f6c)" style="fill: #530c86"/>
    <path d="M 199.832648 97.158024 
L 194.915207 90.122813 
L 185.026994 83.26101 
L 188.95417 89.574305 
z
" clip-path="url(#p5de2780f6c)" style="fill: #670fa7"/>
    <path d="M 139.46013 203.294775 
L 137.352451 205.083594 
L 147.120845 205.36071 
L 146.060653 203.481637 
z
" clip-path="url(#p5de2780f6c)" style="fill: #560d8c"/>
    <path d="M 211.652823 123.745713 
L 209.388547 114.67302 
L 203.339169 105.094116 
L 205.369258 113.728755 
z
" clip-path="url(#p5de2780f6c)" style="fill: #7111b8"/>
    <path d="M 87.664834 102.183671 
L 90.965489 94.445762 
L 83.469938 103.002972 
L 79.657994 111.370403 
z
" clip-path="url(#p5de2780f6c)" style="fill: #2b0646"/>
    <path d="M 186.047246 191.035717 
L 192.369744 185.915853 
L 198.116594 177.33326 
L 191.105279 183.518556 
z
" clip-path="url(#p5de2780f6c)" style="fill: #7011b5"/>
    <path d="M 124.184118 72.69521 
L 127.38925 69.925777 
L 116.6558 73.110416 
L 111.33459 76.516761 
z
" clip-path="url(#p5de2780f6c)" style="fill: #3b0961"/>
    <path d="M 106.869383 81.347148 
L 111.33459 76.516761 
L 101.464617 82.036186 
L 95.596619 87.670067 
z
" clip-path="url(#p5de2780f6c)" style="fill: #330853"/>
    <path d="M 77.942132 138.897602 
L 76.879149 129.542121 
L 74.869552 140.285071 
L 75.978487 149.587958 
z
" clip-path="url(#p5de2780f6c)" style="fill: #2a0643"/>
    <path d="M 120.754532 199.88568 
L 113.777831 198.437618 
L 123.520104 202.738677 
L 128.254212 203.190635 
z
" clip-path="url(#p5de2780f6c)" style="fill: #490b77"/>
    <path d="M 107.116754 192.769501 
L 99.463101 188.621538 
L 107.463516 195.447633 
L 113.777831 198.437618 
z
" clip-path="url(#p5de2780f6c)" style="fill: #400a68"/>
    <path d="M 208.149465 161.990053 
L 210.893008 153.185982 
L 211.147666 142.404804 
L 208.427338 151.537157 
z
" clip-path="url(#p5de2780f6c)" style="fill: #7612c0"/>
    <path d="M 88.869086 174.335481 
L 83.082289 166.816592 
L 87.402727 176.492591 
L 92.832732 183.157124 
z
" clip-path="url(#p5de2780f6c)" style="fill: #330853"/>
    <path d="M 156.551914 203.991942 
L 160.410914 203.782945 
L 170.980029 200.049569 
L 164.678103 201.125177 
z
" clip-path="url(#p5de2780f6c)" style="fill: #600e9d"/>
    <path d="M 180.044847 78.188563 
L 174.111472 74.501965 
L 164.113307 70.811223 
L 168.063397 73.757118 
z
" clip-path="url(#p5de2780f6c)" style="fill: #580d90"/>
    <path d="M 170.980029 200.049569 
L 176.68819 197.392226 
L 186.047246 191.035717 
L 178.755401 194.775866 
z
" clip-path="url(#p5de2780f6c)" style="fill: #6810a9"/>
    <path d="M 194.915207 90.122813 
L 188.688684 84.174323 
L 180.044847 78.188563 
L 185.026994 83.26101 
z
" clip-path="url(#p5de2780f6c)" style="fill: #620f9f"/>
    <path d="M 152.254205 68.725323 
L 150.389902 67.83471 
L 140.566224 67.598673 
L 139.629601 68.42165 
z
" clip-path="url(#p5de2780f6c)" style="fill: #490b76"/>
    <path d="M 209.388547 114.67302 
L 205.481883 106.076443 
L 199.832648 97.158024 
L 203.339169 105.094116 
z
" clip-path="url(#p5de2780f6c)" style="fill: #6d10b2"/>
    <path d="M 128.254212 203.190635 
L 123.520104 202.738677 
L 135.374314 205.206505 
L 137.352451 205.083594 
z
" clip-path="url(#p5de2780f6c)" style="fill: #4e0c7e"/>
    <path d="M 139.629601 68.42165 
L 140.566224 67.598673 
L 131.046591 68.767384 
L 127.38925 69.925777 
z
" clip-path="url(#p5de2780f6c)" style="fill: #420a6b"/>
    <path d="M 76.879149 129.542121 
L 77.449467 120.291138 
L 75.464581 130.82176 
L 74.869552 140.285071 
z
" clip-path="url(#p5de2780f6c)" style="fill: #270640"/>
    <path d="M 90.965489 94.445762 
L 95.596619 87.670067 
L 88.809755 95.403482 
L 83.469938 103.002972 
z
" clip-path="url(#p5de2780f6c)" style="fill: #2b0746"/>
    <path d="M 192.369744 185.915853 
L 197.551466 179.522751 
L 203.849572 170.102377 
L 198.116594 177.33326 
z
" clip-path="url(#p5de2780f6c)" style="fill: #7111b7"/>
    <path d="M 147.120845 205.36071 
L 148.116068 205.568043 
L 160.410914 203.782945 
L 156.551914 203.991942 
z
" clip-path="url(#p5de2780f6c)" style="fill: #5a0d92"/>
    <path d="M 210.893008 153.185982 
L 211.993087 143.901798 
L 212.237641 133.066087 
L 211.147666 142.404804 
z
" clip-path="url(#p5de2780f6c)" style="fill: #7511be"/>
    <path d="M 164.113307 70.811223 
L 159.608079 69.4549 
L 150.389902 67.83471 
L 152.254205 68.725323 
z
" clip-path="url(#p5de2780f6c)" style="fill: #4e0c7f"/>
    <path d="M 83.082289 166.816592 
L 78.744789 158.502798 
L 83.325032 168.777534 
L 87.402727 176.492591 
z
" clip-path="url(#p5de2780f6c)" style="fill: #2f074c"/>
    <path d="M 137.352451 205.083594 
L 135.374314 205.206505 
L 148.116068 205.568043 
L 147.120845 205.36071 
z
" clip-path="url(#p5de2780f6c)" style="fill: #530d88"/>
    <path d="M 99.463101 188.621538 
L 92.832732 183.157124 
L 101.979786 190.963265 
L 107.463516 195.447633 
z
" clip-path="url(#p5de2780f6c)" style="fill: #3a095f"/>
    <path d="M 111.33459 76.516761 
L 116.6558 73.110416 
L 108.44248 77.700841 
L 101.464617 82.036186 
z
" clip-path="url(#p5de2780f6c)" style="fill: #340855"/>
    <path d="M 127.38925 69.925777 
L 131.046591 68.767384 
L 122.717232 71.238487 
L 116.6558 73.110416 
z
" clip-path="url(#p5de2780f6c)" style="fill: #3c0961"/>
    <path d="M 113.777831 198.437618 
L 107.463516 195.447633 
L 119.226328 200.639546 
L 123.520104 202.738677 
z
" clip-path="url(#p5de2780f6c)" style="fill: #440a6e"/>
    <path d="M 205.481883 106.076443 
L 200.012579 98.177488 
L 194.915207 90.122813 
L 199.832648 97.158024 
z
" clip-path="url(#p5de2780f6c)" style="fill: #6910aa"/>
    <path d="M 77.449467 120.291138 
L 79.657994 111.370403 
L 77.767555 121.434899 
L 75.464581 130.82176 
z
" clip-path="url(#p5de2780f6c)" style="fill: #26063e"/>
    <path d="M 188.688684 84.174323 
L 181.290666 79.47621 
L 174.111472 74.501965 
L 180.044847 78.188563 
z
" clip-path="url(#p5de2780f6c)" style="fill: #5c0e96"/>
    <path d="M 174.111472 74.501965 
L 167.35785 72.316816 
L 159.608079 69.4549 
L 164.113307 70.811223 
z
" clip-path="url(#p5de2780f6c)" style="fill: #530c87"/>
    <path d="M 211.993087 143.901798 
L 211.402791 134.366478 
L 211.652823 123.745713 
L 212.237641 133.066087 
z
" clip-path="url(#p5de2780f6c)" style="fill: #7211ba"/>
    <path d="M 176.68819 197.392226 
L 181.649016 193.190357 
L 192.369744 185.915853 
L 186.047246 191.035717 
z
" clip-path="url(#p5de2780f6c)" style="fill: #6910aa"/>
    <path d="M 160.410914 203.782945 
L 163.912789 201.901695 
L 176.68819 197.392226 
L 170.980029 200.049569 
z
" clip-path="url(#p5de2780f6c)" style="fill: #610e9d"/>
    <path d="M 95.596619 87.670067 
L 101.464617 82.036186 
L 95.561164 88.772119 
L 88.809755 95.403482 
z
" clip-path="url(#p5de2780f6c)" style="fill: #2c0748"/>
    <path d="M 197.551466 179.522751 
L 201.444995 171.99859 
L 208.149465 161.990053 
L 203.849572 170.102377 
z
" clip-path="url(#p5de2780f6c)" style="fill: #7111b8"/>
    <path d="M 78.744789 158.502798 
L 75.978487 149.587958 
L 80.721001 160.192648 
L 83.325032 168.777534 
z
" clip-path="url(#p5de2780f6c)" style="fill: #2b0645"/>
    <path d="M 150.389902 67.83471 
L 148.33517 68.643104 
L 141.598709 68.481063 
L 140.566224 67.598673 
z
" clip-path="url(#p5de2780f6c)" style="fill: #460a71"/>
    <path d="M 92.832732 183.157124 
L 87.402727 176.492591 
L 97.479373 185.072034 
L 101.979786 190.963265 
z
" clip-path="url(#p5de2780f6c)" style="fill: #350856"/>
    <path d="M 123.520104 202.738677 
L 119.226328 200.639546 
L 133.577975 203.623274 
L 135.374314 205.206505 
z
" clip-path="url(#p5de2780f6c)" style="fill: #490b77"/>
    <path d="M 116.6558 73.110416 
L 122.717232 71.238487 
L 116.371131 74.792363 
L 108.44248 77.700841 
z
" clip-path="url(#p5de2780f6c)" style="fill: #360857"/>
    <path d="M 140.566224 67.598673 
L 141.598709 68.481063 
L 135.074555 69.283085 
L 131.046591 68.767384 
z
" clip-path="url(#p5de2780f6c)" style="fill: #410a6a"/>
    <path d="M 79.657994 111.370403 
L 83.469938 103.002972 
L 81.73786 112.364496 
L 77.767555 121.434899 
z
" clip-path="url(#p5de2780f6c)" style="fill: #26063d"/>
    <path d="M 159.608079 69.4549 
L 154.648991 69.754529 
L 148.33517 68.643104 
L 150.389902 67.83471 
z
" clip-path="url(#p5de2780f6c)" style="fill: #4a0b78"/>
    <path d="M 148.116068 205.568043 
L 149.019989 204.060683 
L 163.912789 201.901695 
L 160.410914 203.782945 
z
" clip-path="url(#p5de2780f6c)" style="fill: #590d90"/>
    <path d="M 200.012579 98.177488 
L 193.10279 91.184382 
L 188.688684 84.174323 
L 194.915207 90.122813 
z
" clip-path="url(#p5de2780f6c)" style="fill: #630fa1"/>
    <path d="M 211.402791 134.366478 
L 209.11855 124.820767 
L 209.388547 114.67302 
L 211.652823 123.745713 
z
" clip-path="url(#p5de2780f6c)" style="fill: #6f11b5"/>
    <path d="M 135.374314 205.206505 
L 133.577975 203.623274 
L 149.019989 204.060683 
L 148.116068 205.568043 
z
" clip-path="url(#p5de2780f6c)" style="fill: #510c83"/>
    <path d="M 107.463516 195.447633 
L 101.979786 190.963265 
L 115.49029 196.912703 
L 119.226328 200.639546 
z
" clip-path="url(#p5de2780f6c)" style="fill: #3f0966"/>
    <path d="M 101.464617 82.036186 
L 108.44248 77.700841 
L 103.568433 83.288471 
L 95.561164 88.772119 
z
" clip-path="url(#p5de2780f6c)" style="fill: #2e074b"/>
    <path d="M 201.444995 171.99859 
L 203.932442 163.51938 
L 210.893008 153.185982 
L 208.149465 161.990053 
z
" clip-path="url(#p5de2780f6c)" style="fill: #7011b7"/>
    <path d="M 75.978487 149.587958 
L 74.869552 140.285071 
L 79.676367 150.946332 
L 80.721001 160.192648 
z
" clip-path="url(#p5de2780f6c)" style="fill: #280640"/>
    <path d="M 181.290666 79.47621 
L 172.892749 76.164305 
L 167.35785 72.316816 
L 174.111472 74.501965 
z
" clip-path="url(#p5de2780f6c)" style="fill: #560d8c"/>
    <path d="M 131.046591 68.767384 
L 135.074555 69.283085 
L 129.379939 70.976324 
L 122.717232 71.238487 
z
" clip-path="url(#p5de2780f6c)" style="fill: #3c0962"/>
    <path d="M 181.649016 193.190357 
L 185.722733 187.522733 
L 197.551466 179.522751 
L 192.369744 185.915853 
z
" clip-path="url(#p5de2780f6c)" style="fill: #6910ab"/>
    <path d="M 167.35785 72.316816 
L 159.940586 71.714132 
L 154.648991 69.754529 
L 159.608079 69.4549 
z
" clip-path="url(#p5de2780f6c)" style="fill: #4d0c7e"/>
    <path d="M 163.912789 201.901695 
L 166.961192 198.360589 
L 181.649016 193.190357 
L 176.68819 197.392226 
z
" clip-path="url(#p5de2780f6c)" style="fill: #600e9d"/>
    <path d="M 83.469938 103.002972 
L 88.809755 95.403482 
L 87.289617 103.846973 
L 81.73786 112.364496 
z
" clip-path="url(#p5de2780f6c)" style="fill: #27063f"/>
    <path d="M 209.11855 124.820767 
L 205.182094 115.510752 
L 205.481883 106.076443 
L 209.388547 114.67302 
z
" clip-path="url(#p5de2780f6c)" style="fill: #6c10af"/>
    <path d="M 193.10279 91.184382 
L 184.915397 85.285628 
L 181.290666 79.47621 
L 188.688684 84.174323 
z
" clip-path="url(#p5de2780f6c)" style="fill: #5d0e98"/>
    <path d="M 87.402727 176.492591 
L 83.325032 168.777534 
L 94.094145 177.901674 
L 97.479373 185.072034 
z
" clip-path="url(#p5de2780f6c)" style="fill: #30074f"/>
    <path d="M 122.717232 71.238487 
L 129.379939 70.976324 
L 125.061944 73.40546 
L 116.371131 74.792363 
z
" clip-path="url(#p5de2780f6c)" style="fill: #38085b"/>
    <path d="M 74.869552 140.285071 
L 75.464581 130.82176 
L 80.236947 141.269994 
L 79.676367 150.946332 
z
" clip-path="url(#p5de2780f6c)" style="fill: #25063d"/>
    <path d="M 108.44248 77.700841 
L 116.371131 74.792363 
L 112.63906 79.105512 
L 103.568433 83.288471 
z
" clip-path="url(#p5de2780f6c)" style="fill: #310750"/>
    <path d="M 203.932442 163.51938 
L 204.930531 154.291714 
L 211.993087 143.901798 
L 210.893008 153.185982 
z
" clip-path="url(#p5de2780f6c)" style="fill: #6f11b4"/>
    <path d="M 119.226328 200.639546 
L 115.49029 196.912703 
L 132.013269 200.336515 
L 133.577975 203.623274 
z
" clip-path="url(#p5de2780f6c)" style="fill: #450a71"/>
    <path d="M 172.892749 76.164305 
L 163.697493 74.341307 
L 159.940586 71.714132 
L 167.35785 72.316816 
z
" clip-path="url(#p5de2780f6c)" style="fill: #500c81"/>
    <path d="M 148.33517 68.643104 
L 146.137943 71.167729 
L 142.70302 71.084825 
L 141.598709 68.481063 
z
" clip-path="url(#p5de2780f6c)" style="fill: #430a6d"/>
    <path d="M 88.809755 95.403482 
L 95.561164 88.772119 
L 94.292519 96.108075 
L 87.289617 103.846973 
z
" clip-path="url(#p5de2780f6c)" style="fill: #280641"/>
    <path d="M 141.598709 68.481063 
L 142.70302 71.084825 
L 139.378428 71.49499 
L 135.074555 69.283085 
z
" clip-path="url(#p5de2780f6c)" style="fill: #400a69"/>
    <path d="M 154.648991 69.754529 
L 149.353319 71.735895 
L 146.137943 71.167729 
L 148.33517 68.643104 
z
" clip-path="url(#p5de2780f6c)" style="fill: #460a72"/>
    <path d="M 205.182094 115.510752 
L 199.68096 106.680758 
L 200.012579 98.177488 
L 205.481883 106.076443 
z
" clip-path="url(#p5de2780f6c)" style="fill: #670fa7"/>
    <path d="M 149.019989 204.060683 
L 149.807476 200.838731 
L 166.961192 198.360589 
L 163.912789 201.901695 
z
" clip-path="url(#p5de2780f6c)" style="fill: #570d8d"/>
    <path d="M 101.979786 190.963265 
L 97.479373 185.072034 
L 112.419261 191.621776 
L 115.49029 196.912703 
z
" clip-path="url(#p5de2780f6c)" style="fill: #3a095e"/>
    <path d="M 185.722733 187.522733 
L 188.788452 180.510353 
L 201.444995 171.99859 
L 197.551466 179.522751 
z
" clip-path="url(#p5de2780f6c)" style="fill: #6910aa"/>
    <path d="M 184.915397 85.285628 
L 175.650824 80.643752 
L 172.892749 76.164305 
L 181.290666 79.47621 
z
" clip-path="url(#p5de2780f6c)" style="fill: #570d8d"/>
    <path d="M 135.074555 69.283085 
L 139.378428 71.49499 
L 136.484053 72.359549 
L 129.379939 70.976324 
z
" clip-path="url(#p5de2780f6c)" style="fill: #3e0964"/>
    <path d="M 133.577975 203.623274 
L 132.013269 200.336515 
L 149.807476 200.838731 
L 149.019989 204.060683 
z
" clip-path="url(#p5de2780f6c)" style="fill: #4e0c7e"/>
    <path d="M 159.940586 71.714132 
L 152.03918 72.735682 
L 149.353319 71.735895 
L 154.648991 69.754529 
z
" clip-path="url(#p5de2780f6c)" style="fill: #480b75"/>
    <path d="M 75.464581 130.82176 
L 77.767555 121.434899 
L 82.405427 131.412103 
L 80.236947 141.269994 
z
" clip-path="url(#p5de2780f6c)" style="fill: #24053b"/>
    <path d="M 83.325032 168.777534 
L 80.721001 160.192648 
L 91.929801 169.618909 
L 94.094145 177.901674 
z
" clip-path="url(#p5de2780f6c)" style="fill: #2d0748"/>
    <path d="M 116.371131 74.792363 
L 125.061944 73.40546 
L 122.547941 76.344047 
L 112.63906 79.105512 
z
" clip-path="url(#p5de2780f6c)" style="fill: #350856"/>
    <path d="M 204.930531 154.291714 
L 204.394912 144.548056 
L 211.402791 134.366478 
L 211.993087 143.901798 
z
" clip-path="url(#p5de2780f6c)" style="fill: #6d10b1"/>
    <path d="M 166.961192 198.360589 
L 169.467961 193.21719 
L 185.722733 187.522733 
L 181.649016 193.190357 
z
" clip-path="url(#p5de2780f6c)" style="fill: #600e9c"/>
    <path d="M 95.561164 88.772119 
L 103.568433 83.288471 
L 102.574304 89.35572 
L 94.292519 96.108075 
z
" clip-path="url(#p5de2780f6c)" style="fill: #2b0646"/>
    <path d="M 199.68096 106.680758 
L 192.747383 98.565845 
L 193.10279 91.184382 
L 200.012579 98.177488 
z
" clip-path="url(#p5de2780f6c)" style="fill: #620f9f"/>
    <path d="M 129.379939 70.976324 
L 136.484053 72.359549 
L 134.300572 73.596576 
L 125.061944 73.40546 
z
" clip-path="url(#p5de2780f6c)" style="fill: #3b0960"/>
    <path d="M 175.650824 80.643752 
L 165.542313 77.389546 
L 163.697493 74.341307 
L 172.892749 76.164305 
z
" clip-path="url(#p5de2780f6c)" style="fill: #500c83"/>
    <path d="M 163.697493 74.341307 
L 153.933994 74.072125 
L 152.03918 72.735682 
L 159.940586 71.714132 
z
" clip-path="url(#p5de2780f6c)" style="fill: #490b77"/>
    <path d="M 77.767555 121.434899 
L 81.73786 112.364496 
L 86.139526 121.63113 
L 82.405427 131.412103 
z
" clip-path="url(#p5de2780f6c)" style="fill: #24053b"/>
    <path d="M 103.568433 83.288471 
L 112.63906 79.105512 
L 111.924905 83.773096 
L 102.574304 89.35572 
z
" clip-path="url(#p5de2780f6c)" style="fill: #2e074b"/>
    <path d="M 188.788452 180.510353 
L 190.749172 172.315545 
L 203.932442 163.51938 
L 201.444995 171.99859 
z
" clip-path="url(#p5de2780f6c)" style="fill: #6810a9"/>
    <path d="M 192.747383 98.565845 
L 184.555447 91.384224 
L 184.915397 85.285628 
L 193.10279 91.184382 
z
" clip-path="url(#p5de2780f6c)" style="fill: #5c0e96"/>
    <path d="M 125.061944 73.40546 
L 134.300572 73.596576 
L 133.042994 75.087901 
L 122.547941 76.344047 
z
" clip-path="url(#p5de2780f6c)" style="fill: #39095c"/>
    <path d="M 204.394912 144.548056 
L 202.323337 134.540628 
L 209.11855 124.820767 
L 211.402791 134.366478 
z
" clip-path="url(#p5de2780f6c)" style="fill: #6a10ac"/>
    <path d="M 115.49029 196.912703 
L 112.419261 191.621776 
L 130.725892 195.395351 
L 132.013269 200.336515 
z
" clip-path="url(#p5de2780f6c)" style="fill: #410a6a"/>
    <path d="M 97.479373 185.072034 
L 94.094145 177.901674 
L 110.106293 184.876008 
L 112.419261 191.621776 
z
" clip-path="url(#p5de2780f6c)" style="fill: #360857"/>
    <path d="M 80.721001 160.192648 
L 79.676367 150.946332 
L 91.060998 160.426557 
L 91.929801 169.618909 
z
" clip-path="url(#p5de2780f6c)" style="fill: #2a0643"/>
    <path d="M 146.137943 71.167729 
L 143.852108 75.380201 
L 143.852108 75.380201 
L 142.70302 71.084825 
z
" clip-path="url(#p5de2780f6c)" style="fill: #410a6a"/>
    <path d="M 142.70302 71.084825 
L 143.852108 75.380201 
L 143.852108 75.380201 
L 139.378428 71.49499 
z
" clip-path="url(#p5de2780f6c)" style="fill: #400a68"/>
    <path d="M 165.542313 77.389546 
L 154.849733 75.617138 
L 153.933994 74.072125 
L 163.697493 74.341307 
z
" clip-path="url(#p5de2780f6c)" style="fill: #4a0b78"/>
    <path d="M 149.353319 71.735895 
L 143.852108 75.380201 
L 143.852108 75.380201 
L 146.137943 71.167729 
z
" clip-path="url(#p5de2780f6c)" style="fill: #420a6b"/>
    <path d="M 139.378428 71.49499 
L 143.852108 75.380201 
L 143.852108 75.380201 
L 136.484053 72.359549 
z
" clip-path="url(#p5de2780f6c)" style="fill: #3f0966"/>
    <path d="M 149.807476 200.838731 
L 150.455478 195.949136 
L 169.467961 193.21719 
L 166.961192 198.360589 
z
" clip-path="url(#p5de2780f6c)" style="fill: #550d8b"/>
    <path d="M 112.63906 79.105512 
L 122.547941 76.344047 
L 122.102198 79.512405 
L 111.924905 83.773096 
z
" clip-path="url(#p5de2780f6c)" style="fill: #330852"/>
    <path d="M 152.03918 72.735682 
L 143.852108 75.380201 
L 143.852108 75.380201 
L 149.353319 71.735895 
z
" clip-path="url(#p5de2780f6c)" style="fill: #430a6c"/>
    <path d="M 184.555447 91.384224 
L 175.316518 85.329989 
L 175.650824 80.643752 
L 184.915397 85.285628 
z
" clip-path="url(#p5de2780f6c)" style="fill: #560d8c"/>
    <path d="M 81.73786 112.364496 
L 87.289617 103.846973 
L 91.3518 112.187635 
L 86.139526 121.63113 
z
" clip-path="url(#p5de2780f6c)" style="fill: #25063c"/>
    <path d="M 136.484053 72.359549 
L 143.852108 75.380201 
L 143.852108 75.380201 
L 134.300572 73.596576 
z
" clip-path="url(#p5de2780f6c)" style="fill: #3e0965"/>
    <path d="M 153.933994 74.072125 
L 143.852108 75.380201 
L 143.852108 75.380201 
L 152.03918 72.735682 
z
" clip-path="url(#p5de2780f6c)" style="fill: #430a6d"/>
    <path d="M 132.013269 200.336515 
L 130.725892 195.395351 
L 150.455478 195.949136 
L 149.807476 200.838731 
z
" clip-path="url(#p5de2780f6c)" style="fill: #4b0b7a"/>
    <path d="M 169.467961 193.21719 
L 171.356536 186.575995 
L 188.788452 180.510353 
L 185.722733 187.522733 
z
" clip-path="url(#p5de2780f6c)" style="fill: #5f0e9a"/>
    <path d="M 134.300572 73.596576 
L 143.852108 75.380201 
L 143.852108 75.380201 
L 133.042994 75.087901 
z
" clip-path="url(#p5de2780f6c)" style="fill: #3d0964"/>
    <path d="M 202.323337 134.540628 
L 198.757407 124.534039 
L 205.182094 115.510752 
L 209.11855 124.820767 
z
" clip-path="url(#p5de2780f6c)" style="fill: #660fa6"/>
    <path d="M 122.547941 76.344047 
L 133.042994 75.087901 
L 132.839155 76.689566 
L 122.102198 79.512405 
z
" clip-path="url(#p5de2780f6c)" style="fill: #38085a"/>
    <path d="M 175.316518 85.329989 
L 165.273076 80.56653 
L 165.542313 77.389546 
L 175.650824 80.643752 
z
" clip-path="url(#p5de2780f6c)" style="fill: #500c81"/>
    <path d="M 154.849733 75.617138 
L 143.852108 75.380201 
L 143.852108 75.380201 
L 153.933994 74.072125 
z
" clip-path="url(#p5de2780f6c)" style="fill: #430a6d"/>
    <path d="M 87.289617 103.846973 
L 94.292519 96.108075 
L 97.911244 103.335837 
L 91.3518 112.187635 
z
" clip-path="url(#p5de2780f6c)" style="fill: #27063f"/>
    <path d="M 133.042994 75.087901 
L 143.852108 75.380201 
L 143.852108 75.380201 
L 132.839155 76.689566 
z
" clip-path="url(#p5de2780f6c)" style="fill: #3d0963"/>
    <path d="M 165.273076 80.56653 
L 154.691209 77.221011 
L 154.849733 75.617138 
L 165.542313 77.389546 
z
" clip-path="url(#p5de2780f6c)" style="fill: #490b77"/>
    <path d="M 190.749172 172.315545 
L 191.536381 163.139267 
L 204.930531 154.291714 
L 203.932442 163.51938 
z
" clip-path="url(#p5de2780f6c)" style="fill: #660fa6"/>
    <path d="M 154.691209 77.221011 
L 143.852108 75.380201 
L 143.852108 75.380201 
L 154.849733 75.617138 
z
" clip-path="url(#p5de2780f6c)" style="fill: #430a6d"/>
    <path d="M 79.676367 150.946332 
L 80.236947 141.269994 
L 91.527261 150.558856 
L 91.060998 160.426557 
z
" clip-path="url(#p5de2780f6c)" style="fill: #270640"/>
    <path d="M 132.839155 76.689566 
L 143.852108 75.380201 
L 143.852108 75.380201 
L 133.715434 78.24514 
z
" clip-path="url(#p5de2780f6c)" style="fill: #3d0963"/>
    <path d="M 153.467492 78.726469 
L 143.852108 75.380201 
L 143.852108 75.380201 
L 154.691209 77.221011 
z
" clip-path="url(#p5de2780f6c)" style="fill: #430a6c"/>
    <path d="M 198.757407 124.534039 
L 193.782617 114.79695 
L 199.68096 106.680758 
L 205.182094 115.510752 
z
" clip-path="url(#p5de2780f6c)" style="fill: #620fa0"/>
    <path d="M 94.292519 96.108075 
L 102.574304 89.35572 
L 105.646728 95.315096 
L 97.911244 103.335837 
z
" clip-path="url(#p5de2780f6c)" style="fill: #2a0643"/>
    <path d="M 94.094145 177.901674 
L 91.929801 169.618909 
L 108.626177 176.829969 
L 110.106293 184.876008 
z
" clip-path="url(#p5de2780f6c)" style="fill: #320851"/>
    <path d="M 133.715434 78.24514 
L 143.852108 75.380201 
L 143.852108 75.380201 
L 135.591715 79.600879 
z
" clip-path="url(#p5de2780f6c)" style="fill: #3d0963"/>
    <path d="M 122.102198 79.512405 
L 132.839155 76.689566 
L 133.715434 78.24514 
L 123.793313 82.601905 
z
" clip-path="url(#p5de2780f6c)" style="fill: #370859"/>
    <path d="M 151.293486 79.984158 
L 143.852108 75.380201 
L 143.852108 75.380201 
L 153.467492 78.726469 
z
" clip-path="url(#p5de2780f6c)" style="fill: #420a6b"/>
    <path d="M 102.574304 89.35572 
L 111.924905 83.773096 
L 114.352187 88.341772 
L 105.646728 95.315096 
z
" clip-path="url(#p5de2780f6c)" style="fill: #2d0749"/>
    <path d="M 112.419261 191.621776 
L 110.106293 184.876008 
L 129.755586 188.897656 
L 130.725892 195.395351 
z
" clip-path="url(#p5de2780f6c)" style="fill: #3e0964"/>
    <path d="M 111.924905 83.773096 
L 122.102198 79.512405 
L 123.793313 82.601905 
L 114.352187 88.341772 
z
" clip-path="url(#p5de2780f6c)" style="fill: #320751"/>
    <path d="M 135.591715 79.600879 
L 143.852108 75.380201 
L 143.852108 75.380201 
L 138.287047 80.621328 
z
" clip-path="url(#p5de2780f6c)" style="fill: #3d0964"/>
    <path d="M 148.380578 80.868014 
L 143.852108 75.380201 
L 143.852108 75.380201 
L 151.293486 79.984158 
z
" clip-path="url(#p5de2780f6c)" style="fill: #410a6a"/>
    <path d="M 162.890974 83.560335 
L 153.467492 78.726469 
L 154.691209 77.221011 
L 165.273076 80.56653 
z
" clip-path="url(#p5de2780f6c)" style="fill: #480b75"/>
    <path d="M 193.782617 114.79695 
L 187.526582 105.593153 
L 192.747383 98.565845 
L 199.68096 106.680758 
z
" clip-path="url(#p5de2780f6c)" style="fill: #5d0e98"/>
    <path d="M 138.287047 80.621328 
L 143.852108 75.380201 
L 143.852108 75.380201 
L 141.536286 81.203629 
z
" clip-path="url(#p5de2780f6c)" style="fill: #3e0965"/>
    <path d="M 145.016525 81.288741 
L 143.852108 75.380201 
L 143.852108 75.380201 
L 148.380578 80.868014 
z
" clip-path="url(#p5de2780f6c)" style="fill: #400a68"/>
    <path d="M 141.536286 81.203629 
L 143.852108 75.380201 
L 143.852108 75.380201 
L 145.016525 81.288741 
z
" clip-path="url(#p5de2780f6c)" style="fill: #3f0966"/>
    <path d="M 80.236947 141.269994 
L 82.405427 131.412103 
L 93.330039 140.275057 
L 91.527261 150.558856 
z
" clip-path="url(#p5de2780f6c)" style="fill: #26063e"/>
    <path d="M 150.455478 195.949136 
L 150.943933 189.488059 
L 171.356536 186.575995 
L 169.467961 193.21719 
z
" clip-path="url(#p5de2780f6c)" style="fill: #530c87"/>
    <path d="M 191.536381 163.139267 
L 191.113897 153.216474 
L 204.394912 144.548056 
L 204.930531 154.291714 
z
" clip-path="url(#p5de2780f6c)" style="fill: #640fa3"/>
    <path d="M 171.868325 89.762555 
L 162.890974 83.560335 
L 165.273076 80.56653 
L 175.316518 85.329989 
z
" clip-path="url(#p5de2780f6c)" style="fill: #4d0c7e"/>
    <path d="M 187.526582 105.593153 
L 180.155401 97.172554 
L 184.555447 91.384224 
L 192.747383 98.565845 
z
" clip-path="url(#p5de2780f6c)" style="fill: #580d90"/>
    <path d="M 171.356536 186.575995 
L 172.565337 178.588419 
L 190.749172 172.315545 
L 188.788452 180.510353 
z
" clip-path="url(#p5de2780f6c)" style="fill: #5d0e97"/>
    <path d="M 180.155401 97.172554 
L 171.868325 89.762555 
L 175.316518 85.329989 
L 184.555447 91.384224 
z
" clip-path="url(#p5de2780f6c)" style="fill: #530c87"/>
    <path d="M 123.793313 82.601905 
L 133.715434 78.24514 
L 135.591715 79.600879 
L 127.478018 85.304472 
z
" clip-path="url(#p5de2780f6c)" style="fill: #38085a"/>
    <path d="M 130.725892 195.395351 
L 129.755586 188.897656 
L 150.943933 189.488059 
L 150.455478 195.949136 
z
" clip-path="url(#p5de2780f6c)" style="fill: #480b75"/>
    <path d="M 158.609895 86.070198 
L 151.293486 79.984158 
L 153.467492 78.726469 
L 162.890974 83.560335 
z
" clip-path="url(#p5de2780f6c)" style="fill: #460a72"/>
    <path d="M 82.405427 131.412103 
L 86.139526 121.63113 
L 96.431202 129.851457 
L 93.330039 140.275057 
z
" clip-path="url(#p5de2780f6c)" style="fill: #26063d"/>
    <path d="M 91.929801 169.618909 
L 91.060998 160.426557 
L 108.031745 167.681237 
L 108.626177 176.829969 
z
" clip-path="url(#p5de2780f6c)" style="fill: #2f074d"/>
    <path d="M 114.352187 88.341772 
L 123.793313 82.601905 
L 127.478018 85.304472 
L 119.731664 92.352317 
z
" clip-path="url(#p5de2780f6c)" style="fill: #330852"/>
    <path d="M 191.113897 153.216474 
L 189.480612 142.809584 
L 202.323337 134.540628 
L 204.394912 144.548056 
z
" clip-path="url(#p5de2780f6c)" style="fill: #610f9e"/>
    <path d="M 127.478018 85.304472 
L 135.591715 79.600879 
L 138.287047 80.621328 
L 132.806502 87.344808 
z
" clip-path="url(#p5de2780f6c)" style="fill: #39095c"/>
    <path d="M 152.843096 87.83884 
L 148.380578 80.868014 
L 151.293486 79.984158 
L 158.609895 86.070198 
z
" clip-path="url(#p5de2780f6c)" style="fill: #430a6d"/>
    <path d="M 86.139526 121.63113 
L 91.3518 112.187635 
L 100.753228 119.572227 
L 96.431202 129.851457 
z
" clip-path="url(#p5de2780f6c)" style="fill: #27063f"/>
    <path d="M 110.106293 184.876008 
L 108.626177 176.829969 
L 129.134348 180.990404 
L 129.755586 188.897656 
z
" clip-path="url(#p5de2780f6c)" style="fill: #3b095f"/>
    <path d="M 165.601711 93.49103 
L 158.609895 86.070198 
L 162.890974 83.560335 
L 171.868325 89.762555 
z
" clip-path="url(#p5de2780f6c)" style="fill: #4a0b78"/>
    <path d="M 105.646728 95.315096 
L 114.352187 88.341772 
L 119.731664 92.352317 
L 112.566356 100.563405 
z
" clip-path="url(#p5de2780f6c)" style="fill: #2e074b"/>
    <path d="M 132.806502 87.344808 
L 138.287047 80.621328 
L 141.536286 81.203629 
L 139.252227 88.511465 
z
" clip-path="url(#p5de2780f6c)" style="fill: #3b0960"/>
    <path d="M 172.565337 178.588419 
L 173.050863 169.450631 
L 191.536381 163.139267 
L 190.749172 172.315545 
z
" clip-path="url(#p5de2780f6c)" style="fill: #5b0e94"/>
    <path d="M 146.165222 88.682135 
L 145.016525 81.288741 
L 148.380578 80.868014 
L 152.843096 87.83884 
z
" clip-path="url(#p5de2780f6c)" style="fill: #400a69"/>
    <path d="M 91.3518 112.187635 
L 97.911244 103.335837 
L 106.181169 109.719516 
L 100.753228 119.572227 
z
" clip-path="url(#p5de2780f6c)" style="fill: #280641"/>
    <path d="M 97.911244 103.335837 
L 105.646728 95.315096 
L 112.566356 100.563405 
L 106.181169 109.719516 
z
" clip-path="url(#p5de2780f6c)" style="fill: #2b0646"/>
    <path d="M 139.252227 88.511465 
L 141.536286 81.203629 
L 145.016525 81.288741 
L 146.165222 88.682135 
z
" clip-path="url(#p5de2780f6c)" style="fill: #3e0964"/>
    <path d="M 150.943933 189.488059 
L 151.25669 181.601323 
L 172.565337 178.588419 
L 171.356536 186.575995 
z
" clip-path="url(#p5de2780f6c)" style="fill: #510c84"/>
    <path d="M 189.480612 142.809584 
L 186.671841 132.200241 
L 198.757407 124.534039 
L 202.323337 134.540628 
z
" clip-path="url(#p5de2780f6c)" style="fill: #5e0e99"/>
    <path d="M 91.060998 160.426557 
L 91.527261 150.558856 
L 108.350782 157.665867 
L 108.031745 167.681237 
z
" clip-path="url(#p5de2780f6c)" style="fill: #2d0749"/>
    <path d="M 172.074871 102.056457 
L 165.601711 93.49103 
L 171.868325 89.762555 
L 180.155401 97.172554 
z
" clip-path="url(#p5de2780f6c)" style="fill: #4e0c7f"/>
    <path d="M 129.755586 188.897656 
L 129.134348 180.990404 
L 151.25669 181.601323 
L 150.943933 189.488059 
z
" clip-path="url(#p5de2780f6c)" style="fill: #450a71"/>
    <path d="M 119.731664 92.352317 
L 127.478018 85.304472 
L 132.806502 87.344808 
L 127.560797 95.388857 
z
" clip-path="url(#p5de2780f6c)" style="fill: #350856"/>
    <path d="M 186.671841 132.200241 
L 182.759062 121.67975 
L 193.782617 114.79695 
L 198.757407 124.534039 
z
" clip-path="url(#p5de2780f6c)" style="fill: #5b0e93"/>
    <path d="M 177.847965 111.538708 
L 172.074871 102.056457 
L 180.155401 97.172554 
L 187.526582 105.593153 
z
" clip-path="url(#p5de2780f6c)" style="fill: #530c86"/>
    <path d="M 182.759062 121.67975 
L 177.847965 111.538708 
L 187.526582 105.593153 
L 193.782617 114.79695 
z
" clip-path="url(#p5de2780f6c)" style="fill: #570d8d"/>
    <path d="M 157.11702 96.125236 
L 152.843096 87.83884 
L 158.609895 86.070198 
L 165.601711 93.49103 
z
" clip-path="url(#p5de2780f6c)" style="fill: #460a71"/>
    <path d="M 173.050863 169.450631 
L 172.790273 159.399084 
L 191.113897 153.216474 
L 191.536381 163.139267 
z
" clip-path="url(#p5de2780f6c)" style="fill: #590d91"/>
    <path d="M 108.626177 176.829969 
L 108.031745 167.681237 
L 128.884781 171.867761 
L 129.134348 180.990404 
z
" clip-path="url(#p5de2780f6c)" style="fill: #38085b"/>
    <path d="M 91.527261 150.558856 
L 93.330039 140.275057 
L 109.583866 147.051667 
L 108.350782 157.665867 
z
" clip-path="url(#p5de2780f6c)" style="fill: #2c0747"/>
    <path d="M 127.560797 95.388857 
L 132.806502 87.344808 
L 139.252227 88.511465 
L 137.062867 97.128527 
z
" clip-path="url(#p5de2780f6c)" style="fill: #38085b"/>
    <path d="M 112.566356 100.563405 
L 119.731664 92.352317 
L 127.560797 95.388857 
L 122.696967 104.547699 
z
" clip-path="url(#p5de2780f6c)" style="fill: #310750"/>
    <path d="M 147.266526 97.38323 
L 146.165222 88.682135 
L 152.843096 87.83884 
L 157.11702 96.125236 
z
" clip-path="url(#p5de2780f6c)" style="fill: #410a6a"/>
    <path d="M 151.25669 181.601323 
L 151.382338 172.482567 
L 173.050863 169.450631 
L 172.565337 178.588419 
z
" clip-path="url(#p5de2780f6c)" style="fill: #4f0c81"/>
    <path d="M 137.062867 97.128527 
L 139.252227 88.511465 
L 146.165222 88.682135 
L 147.266526 97.38323 
z
" clip-path="url(#p5de2780f6c)" style="fill: #3c0962"/>
    <path d="M 161.082107 105.515292 
L 157.11702 96.125236 
L 165.601711 93.49103 
L 172.074871 102.056457 
z
" clip-path="url(#p5de2780f6c)" style="fill: #490b76"/>
    <path d="M 93.330039 140.275057 
L 96.431202 129.851457 
L 111.703364 136.129484 
L 109.583866 147.051667 
z
" clip-path="url(#p5de2780f6c)" style="fill: #2b0646"/>
    <path d="M 106.181169 109.719516 
L 112.566356 100.563405 
L 122.696967 104.547699 
L 118.35326 114.577242 
z
" clip-path="url(#p5de2780f6c)" style="fill: #2e074b"/>
    <path d="M 129.134348 180.990404 
L 128.884781 171.867761 
L 151.382338 172.482567 
L 151.25669 181.601323 
z
" clip-path="url(#p5de2780f6c)" style="fill: #430a6d"/>
    <path d="M 172.790273 159.399084 
L 171.783175 148.703711 
L 189.480612 142.809584 
L 191.113897 153.216474 
z
" clip-path="url(#p5de2780f6c)" style="fill: #570d8d"/>
    <path d="M 96.431202 129.851457 
L 100.753228 119.572227 
L 114.653741 125.202944 
L 111.703364 136.129484 
z
" clip-path="url(#p5de2780f6c)" style="fill: #2b0746"/>
    <path d="M 100.753228 119.572227 
L 106.181169 109.719516 
L 118.35326 114.577242 
L 114.653741 125.202944 
z
" clip-path="url(#p5de2780f6c)" style="fill: #2c0748"/>
    <path d="M 108.031745 167.681237 
L 108.350782 157.665867 
L 129.018731 161.76669 
L 128.884781 171.867761 
z
" clip-path="url(#p5de2780f6c)" style="fill: #360857"/>
    <path d="M 122.696967 104.547699 
L 127.560797 95.388857 
L 137.062867 97.128527 
L 135.030109 106.834475 
z
" clip-path="url(#p5de2780f6c)" style="fill: #360857"/>
    <path d="M 164.625048 115.758453 
L 161.082107 105.515292 
L 172.074871 102.056457 
L 177.847965 111.538708 
z
" clip-path="url(#p5de2780f6c)" style="fill: #4b0b7b"/>
    <path d="M 171.783175 148.703711 
L 170.052449 137.659032 
L 186.671841 132.200241 
L 189.480612 142.809584 
z
" clip-path="url(#p5de2780f6c)" style="fill: #540d89"/>
    <path d="M 148.289261 107.169532 
L 147.266526 97.38323 
L 157.11702 96.125236 
L 161.082107 105.515292 
z
" clip-path="url(#p5de2780f6c)" style="fill: #420a6b"/>
    <path d="M 151.382338 172.482567 
L 151.314899 162.368881 
L 172.790273 159.399084 
L 173.050863 169.450631 
z
" clip-path="url(#p5de2780f6c)" style="fill: #4d0c7d"/>
    <path d="M 167.643949 126.573601 
L 164.625048 115.758453 
L 177.847965 111.538708 
L 182.759062 121.67975 
z
" clip-path="url(#p5de2780f6c)" style="fill: #4e0c7f"/>
    <path d="M 135.030109 106.834475 
L 137.062867 97.128527 
L 147.266526 97.38323 
L 148.289261 107.169532 
z
" clip-path="url(#p5de2780f6c)" style="fill: #3c0961"/>
    <path d="M 170.052449 137.659032 
L 167.643949 126.573601 
L 182.759062 121.67975 
L 186.671841 132.200241 
z
" clip-path="url(#p5de2780f6c)" style="fill: #510c84"/>
    <path d="M 128.884781 171.867761 
L 129.018731 161.76669 
L 151.314899 162.368881 
L 151.382338 172.482567 
z
" clip-path="url(#p5de2780f6c)" style="fill: #410a69"/>
    <path d="M 108.350782 157.665867 
L 109.583866 147.051667 
L 129.53634 150.960057 
L 129.018731 161.76669 
z
" clip-path="url(#p5de2780f6c)" style="fill: #340855"/>
    <path d="M 118.35326 114.577242 
L 122.696967 104.547699 
L 135.030109 106.834475 
L 133.212464 117.369822 
z
" clip-path="url(#p5de2780f6c)" style="fill: #340855"/>
    <path d="M 149.203933 117.779265 
L 148.289261 107.169532 
L 161.082107 105.515292 
L 164.625048 115.758453 
z
" clip-path="url(#p5de2780f6c)" style="fill: #430a6e"/>
    <path d="M 151.314899 162.368881 
L 151.054308 151.53388 
L 171.783175 148.703711 
L 172.790273 159.399084 
z
" clip-path="url(#p5de2780f6c)" style="fill: #4b0b7a"/>
    <path d="M 109.583866 147.051667 
L 111.703364 136.129484 
L 130.425633 139.747473 
L 129.53634 150.960057 
z
" clip-path="url(#p5de2780f6c)" style="fill: #330853"/>
    <path d="M 114.653741 125.202944 
L 118.35326 114.577242 
L 133.212464 117.369822 
L 131.662694 128.444343 
z
" clip-path="url(#p5de2780f6c)" style="fill: #330853"/>
    <path d="M 133.212464 117.369822 
L 135.030109 106.834475 
L 148.289261 107.169532 
L 149.203933 117.779265 
z
" clip-path="url(#p5de2780f6c)" style="fill: #3b0961"/>
    <path d="M 111.703364 136.129484 
L 114.653741 125.202944 
L 131.662694 128.444343 
L 130.425633 139.747473 
z
" clip-path="url(#p5de2780f6c)" style="fill: #330853"/>
    <path d="M 129.018731 161.76669 
L 129.53634 150.960057 
L 151.054308 151.53388 
L 151.314899 162.368881 
z
" clip-path="url(#p5de2780f6c)" style="fill: #3f0966"/>
    <path d="M 149.983931 128.919865 
L 149.203933 117.779265 
L 164.625048 115.758453 
L 167.643949 126.573601 
z
" clip-path="url(#p5de2780f6c)" style="fill: #450a70"/>
    <path d="M 151.054308 151.53388 
L 150.606624 140.278484 
L 170.052449 137.659032 
L 171.783175 148.703711 
z
" clip-path="url(#p5de2780f6c)" style="fill: #490b76"/>
    <path d="M 150.606624 140.278484 
L 149.983931 128.919865 
L 167.643949 126.573601 
L 170.052449 137.659032 
z
" clip-path="url(#p5de2780f6c)" style="fill: #470b73"/>
    <path d="M 131.662694 128.444343 
L 133.212464 117.369822 
L 149.203933 117.779265 
L 149.983931 128.919865 
z
" clip-path="url(#p5de2780f6c)" style="fill: #3c0961"/>
    <path d="M 129.53634 150.960057 
L 130.425633 139.747473 
L 150.606624 140.278484 
L 151.054308 151.53388 
z
" clip-path="url(#p5de2780f6c)" style="fill: #3d0964"/>
    <path d="M 130.425633 139.747473 
L 131.662694 128.444343 
L 149.983931 128.919865 
L 150.606624 140.278484 
z
" clip-path="url(#p5de2780f6c)" style="fill: #3c0962"/>
   </g>
  </g>
 </g>
 <defs>
  <clipPath id="p5de2780f6c">
   <rect x="7.2" y="7.2" width="266.112" height="266.112"/>
  </clipPath>
 </defs>
</svg>
