<?xml version="1.0" encoding="utf-8" standalone="no"?>
<!DOCTYPE svg PUBLIC "-//W3C//DTD SVG 1.1//EN"
  "http://www.w3.org/Graphics/SVG/1.1/DTD/svg11.dtd">
<!-- Created with matplotlib (https://matplotlib.org/) -->
<svg height="314.667469pt" version="1.1" viewBox="0 0 411.63885 314.667469" width="411.63885pt" xmlns="http://www.w3.org/2000/svg" xmlns:xlink="http://www.w3.org/1999/xlink">
 <metadata>
  <rdf:RDF xmlns:cc="http://creativecommons.org/ns#" xmlns:dc="http://purl.org/dc/elements/1.1/" xmlns:rdf="http://www.w3.org/1999/02/22-rdf-syntax-ns#">
   <cc:Work>
    <dc:type rdf:resource="http://purl.org/dc/dcmitype/StillImage"/>
    <dc:date>2022-05-14T17:49:01.244751</dc:date>
    <dc:format>image/svg+xml</dc:format>
    <dc:creator>
     <cc:Agent>
      <dc:title>Matplotlib v3.3.4, https://matplotlib.org/</dc:title>
     </cc:Agent>
    </dc:creator>
   </cc:Work>
  </rdf:RDF>
 </metadata>
 <defs>
  <style type="text/css">*{stroke-linecap:butt;stroke-linejoin:round;}</style>
 </defs>
 <g id="figure_1">
  <g id="patch_1">
   <path d="M 0 314.667469 
L 411.63885 314.667469 
L 411.63885 0 
L 0 0 
z
" style="fill:#ffffff;"/>
  </g>
  <g id="axes_1">
   <g id="patch_2">
    <path d="M 52.160938 277.111219 
L 337.856938 277.111219 
L 337.856938 10.999219 
L 52.160938 10.999219 
z
" style="fill:#ffffff;"/>
   </g>
   <g id="PathCollection_1">
    <path clip-path="url(#p7a4aacd6da)" d="M 123.584938 277.111219 
L 137.869738 277.111219 
L 152.154538 277.111219 
L 166.439338 277.111219 
L 180.724138 277.111219 
L 195.008938 277.111219 
L 209.293738 277.111219 
L 223.578538 277.111219 
L 237.863338 277.111219 
L 252.148138 277.111219 
L 266.432938 277.111219 
L 252.148138 270.808566 
L 237.863338 265.906503 
L 229.292458 263.805619 
L 223.578538 262.240254 
L 209.293738 259.892207 
L 195.008938 259.109525 
L 180.724138 259.892207 
L 166.439338 262.240254 
L 160.725418 263.805619 
L 152.154538 265.906503 
L 137.869738 270.808566 
L 123.584938 277.111219 
z
" style="fill:#1e5ec4;"/>
    <path clip-path="url(#p7a4aacd6da)" d="M 166.439338 25.870183 
L 180.724138 28.218231 
L 195.008938 29.000913 
L 209.293738 28.218231 
L 223.578538 25.870183 
L 229.292458 24.304819 
L 237.863338 22.203935 
L 252.148138 17.301871 
L 266.432938 10.999219 
L 252.148138 10.999219 
L 237.863338 10.999219 
L 223.578538 10.999219 
L 209.293738 10.999219 
L 195.008938 10.999219 
L 180.724138 10.999219 
L 166.439338 10.999219 
L 152.154538 10.999219 
L 137.869738 10.999219 
L 123.584938 10.999219 
L 137.869738 17.301871 
L 152.154538 22.203935 
L 160.725417 24.304819 
z
" style="fill:#1e5ec4;"/>
   </g>
   <g id="PathCollection_2">
    <path clip-path="url(#p7a4aacd6da)" d="M 95.015338 277.111219 
L 109.300138 277.111219 
L 123.584938 277.111219 
L 137.869738 270.808566 
L 152.154538 265.906503 
L 160.725418 263.805619 
L 166.439338 262.240254 
L 180.724138 259.892207 
L 195.008938 259.109525 
L 209.293738 259.892207 
L 223.578538 262.240254 
L 229.292458 263.805619 
L 237.863338 265.906503 
L 252.148138 270.808566 
L 266.432938 277.111219 
L 280.717738 277.111219 
L 295.002538 277.111219 
L 295.954858 277.111219 
L 295.002538 276.410924 
L 280.717738 267.307092 
L 274.224647 263.805619 
L 266.432938 259.109525 
L 252.148138 252.065383 
L 248.066766 250.500019 
L 237.863338 246.064819 
L 223.578538 241.629619 
L 209.293738 238.968499 
L 195.008938 238.081459 
L 180.724138 238.968499 
L 166.439338 241.629619 
L 152.154538 246.064819 
L 141.951109 250.500019 
L 137.869738 252.065383 
L 123.584938 259.109525 
L 115.793228 263.805619 
L 109.300138 267.307092 
L 95.015338 276.410924 
L 94.063018 277.111219 
z
" style="fill:#00acc4;"/>
    <path clip-path="url(#p7a4aacd6da)" d="M 152.154538 42.045619 
L 166.439338 46.480819 
L 180.724138 49.141939 
L 195.008938 50.028979 
L 209.293738 49.141939 
L 223.578538 46.480819 
L 237.863338 42.045619 
L 248.066766 37.610419 
L 252.148138 36.045054 
L 266.432938 29.000913 
L 274.224647 24.304819 
L 280.717738 20.803345 
L 295.002538 11.699513 
L 295.954858 10.999219 
L 295.002538 10.999219 
L 280.717738 10.999219 
L 266.432938 10.999219 
L 252.148138 17.301871 
L 237.863338 22.203935 
L 229.292458 24.304819 
L 223.578538 25.870183 
L 209.293738 28.218231 
L 195.008938 29.000913 
L 180.724138 28.218231 
L 166.439338 25.870183 
L 160.725417 24.304819 
L 152.154538 22.203935 
L 137.869738 17.301871 
L 123.584938 10.999219 
L 109.300138 10.999219 
L 95.015338 10.999219 
L 94.063018 10.999219 
L 95.015338 11.699513 
L 109.300138 20.803345 
L 115.793228 24.304819 
L 123.584938 29.000913 
L 137.869738 36.045054 
L 141.951109 37.610419 
z
" style="fill:#00acc4;"/>
   </g>
   <g id="PathCollection_3">
    <path clip-path="url(#p7a4aacd6da)" d="M 80.730538 277.111219 
L 94.063018 277.111219 
L 95.015338 276.410924 
L 109.300138 267.307092 
L 115.793228 263.805619 
L 123.584938 259.109525 
L 137.869738 252.065383 
L 141.951109 250.500019 
L 152.154538 246.064819 
L 166.439338 241.629619 
L 180.724138 238.968499 
L 195.008938 238.081459 
L 209.293738 238.968499 
L 223.578538 241.629619 
L 237.863338 246.064819 
L 248.066766 250.500019 
L 252.148138 252.065383 
L 266.432938 259.109525 
L 274.224647 263.805619 
L 280.717738 267.307092 
L 295.002538 276.410924 
L 295.954858 277.111219 
L 309.287338 277.111219 
L 318.530443 277.111219 
L 309.287338 269.407977 
L 301.668778 263.805619 
L 295.002538 258.326842 
L 284.01423 250.500019 
L 280.717738 247.838899 
L 266.432938 238.081459 
L 264.845738 237.194419 
L 252.148138 229.006357 
L 241.944709 223.888819 
L 237.863338 221.469619 
L 223.578538 215.421619 
L 209.293738 211.792819 
L 195.008938 210.583219 
L 180.724138 211.792819 
L 166.439338 215.421619 
L 152.154538 221.469619 
L 148.073166 223.888819 
L 137.869738 229.006357 
L 125.172138 237.194419 
L 123.584938 238.081459 
L 109.300138 247.838899 
L 106.003645 250.500019 
L 95.015338 258.326842 
L 88.349098 263.805619 
L 80.730538 269.407977 
L 71.487432 277.111219 
z
" style="fill:#41d973;"/>
    <path clip-path="url(#p7a4aacd6da)" d="M 195.008938 77.527219 
L 209.293738 76.317619 
L 223.578538 72.688819 
L 237.863338 66.640819 
L 241.944709 64.221619 
L 252.148138 59.10408 
L 264.845738 50.916019 
L 266.432938 50.028979 
L 280.717738 40.271539 
L 284.01423 37.610419 
L 295.002538 29.783595 
L 301.668778 24.304819 
L 309.287338 18.702461 
L 318.530443 10.999219 
L 309.287338 10.999219 
L 295.954858 10.999219 
L 295.002538 11.699513 
L 280.717738 20.803345 
L 274.224647 24.304819 
L 266.432938 29.000913 
L 252.148138 36.045054 
L 248.066766 37.610419 
L 237.863338 42.045619 
L 223.578538 46.480819 
L 209.293738 49.141939 
L 195.008938 50.028979 
L 180.724138 49.141939 
L 166.439338 46.480819 
L 152.154538 42.045619 
L 141.951109 37.610419 
L 137.869738 36.045054 
L 123.584938 29.000913 
L 115.793228 24.304819 
L 109.300138 20.803345 
L 95.015338 11.699513 
L 94.063018 10.999219 
L 80.730538 10.999219 
L 71.487432 10.999219 
L 80.730538 18.702461 
L 88.349098 24.304819 
L 95.015338 29.783595 
L 106.003645 37.610419 
L 109.300138 40.271539 
L 123.584938 50.028979 
L 125.172137 50.916019 
L 137.869738 59.10408 
L 148.073166 64.221619 
L 152.154538 66.640819 
L 166.439338 72.688819 
L 180.724138 76.317619 
L 195.008938 77.527219 
z
" style="fill:#41d973;"/>
   </g>
   <g id="PathCollection_4">
    <path clip-path="url(#p7a4aacd6da)" d="M 66.445738 277.111219 
L 71.487432 277.111219 
L 80.730538 269.407977 
L 88.349098 263.805619 
L 95.015338 258.326842 
L 106.003645 250.500019 
L 109.300138 247.838899 
L 123.584938 238.081459 
L 125.172138 237.194419 
L 137.869738 229.006357 
L 148.073166 223.888819 
L 152.154538 221.469619 
L 166.439338 215.421619 
L 180.724138 211.792819 
L 195.008938 210.583219 
L 209.293738 211.792819 
L 223.578538 215.421619 
L 237.863338 221.469619 
L 241.944709 223.888819 
L 252.148138 229.006357 
L 264.845738 237.194419 
L 266.432938 238.081459 
L 280.717738 247.838899 
L 284.01423 250.500019 
L 295.002538 258.326842 
L 301.668778 263.805619 
L 309.287338 269.407977 
L 318.530443 277.111219 
L 323.572138 277.111219 
L 337.856938 277.111219 
L 323.572138 263.805619 
L 323.572138 263.805619 
L 309.287338 250.500019 
L 295.002538 237.194419 
L 295.002538 237.194419 
L 280.717738 223.888819 
L 280.717738 223.888819 
L 266.432938 210.583219 
L 252.148138 197.277619 
L 252.148138 197.277619 
L 237.863338 183.972019 
L 237.863338 183.972019 
L 223.578538 170.666419 
L 223.578538 170.666419 
L 209.293738 157.360819 
L 209.293738 157.360819 
L 195.008938 144.055219 
L 209.293738 130.749619 
L 223.578538 117.444019 
L 237.863338 104.138419 
L 252.148138 90.832819 
L 266.432938 77.527219 
L 280.717738 64.221619 
L 295.002538 50.916019 
L 309.287338 37.610419 
L 323.572138 24.304819 
L 337.856938 10.999219 
L 323.572138 10.999219 
L 318.530443 10.999219 
L 309.287338 18.702461 
L 301.668778 24.304819 
L 295.002538 29.783595 
L 284.01423 37.610419 
L 280.717738 40.271539 
L 266.432938 50.028979 
L 264.845738 50.916019 
L 252.148138 59.10408 
L 241.944709 64.221619 
L 237.863338 66.640819 
L 223.578538 72.688819 
L 209.293738 76.317619 
L 195.008938 77.527219 
L 180.724138 76.317619 
L 166.439338 72.688819 
L 152.154538 66.640819 
L 148.073166 64.221619 
L 137.869738 59.10408 
L 125.172138 50.916019 
L 123.584938 50.028979 
L 109.300138 40.271539 
L 106.003645 37.610419 
L 95.015338 29.783595 
L 88.349098 24.304819 
L 80.730538 18.702461 
L 71.487432 10.999219 
L 66.445738 10.999219 
L 52.160938 10.999219 
L 66.445738 24.304819 
L 66.445738 24.304819 
L 80.730538 37.610419 
L 95.015338 50.916019 
L 95.015338 50.916019 
L 109.300138 64.221619 
L 123.584938 77.527219 
L 137.869738 90.832819 
L 137.869738 90.832819 
L 152.154538 104.138419 
L 152.154538 104.138419 
L 166.439338 117.444019 
L 166.439338 117.444019 
L 180.724138 130.749619 
L 180.724138 130.749619 
L 195.008938 144.055219 
L 180.724138 157.360819 
L 166.439338 170.666419 
L 152.154538 183.972019 
L 137.869738 197.277619 
L 123.584938 210.583219 
L 109.300138 223.888819 
L 95.015338 237.194419 
L 80.730538 250.500019 
L 66.445738 263.805619 
L 52.160938 277.111219 
z
" style="fill:#c1f38d;"/>
   </g>
   <g id="PathCollection_5">
    <path clip-path="url(#p7a4aacd6da)" d="M 66.445738 263.805619 
L 80.730538 250.500019 
L 95.015338 237.194419 
L 109.300138 223.888819 
L 123.584938 210.583219 
L 137.869738 197.277619 
L 152.154538 183.972019 
L 166.439338 170.666419 
L 180.724138 157.360819 
L 195.008938 144.055219 
L 180.724138 130.749619 
L 180.724138 130.749619 
L 166.439338 117.444019 
L 166.439338 117.444019 
L 152.154538 104.138419 
L 152.154538 104.138419 
L 137.869738 90.832819 
L 137.869738 90.832819 
L 123.584938 77.527219 
L 109.300138 64.221619 
L 109.300138 64.221619 
L 95.015338 50.916019 
L 95.015338 50.916019 
L 80.730538 37.610419 
L 66.445738 24.304819 
L 66.445738 24.304819 
L 52.160938 10.999219 
L 52.160938 24.304819 
L 52.160938 29.000913 
L 60.431085 37.610419 
L 66.445738 44.706739 
L 72.327714 50.916019 
L 80.730538 61.151096 
L 83.587498 64.221619 
L 94.063018 77.527219 
L 95.015338 79.005619 
L 103.805984 90.832819 
L 109.300138 100.336819 
L 111.897374 104.138419 
L 118.390465 117.444019 
L 122.286319 130.749619 
L 123.584938 144.055219 
L 122.286319 157.360819 
L 118.390465 170.666419 
L 111.897374 183.972019 
L 109.300138 187.773619 
L 103.805984 197.277619 
L 95.015338 209.104819 
L 94.063018 210.583219 
L 83.587498 223.888819 
L 80.730538 226.959342 
L 72.327714 237.194419 
L 66.445738 243.403699 
L 60.431085 250.500019 
L 52.160938 259.109525 
L 52.160938 263.805619 
L 52.160938 277.111219 
z
" style="fill:#ded587;"/>
    <path clip-path="url(#p7a4aacd6da)" d="M 323.572138 263.805619 
L 337.856938 277.111219 
L 337.856938 263.805619 
L 337.856938 259.109525 
L 329.58679 250.500019 
L 323.572138 243.403699 
L 317.690161 237.194419 
L 309.287338 226.959342 
L 306.430378 223.888819 
L 295.954858 210.583219 
L 295.002538 209.104819 
L 286.211891 197.277619 
L 280.717738 187.773619 
L 278.120501 183.972019 
L 271.62741 170.666419 
L 267.731556 157.360819 
L 266.432938 144.055219 
L 267.731556 130.749619 
L 271.62741 117.444019 
L 278.120501 104.138419 
L 280.717738 100.336819 
L 286.211891 90.832819 
L 295.002538 79.005619 
L 295.954858 77.527219 
L 306.430378 64.221619 
L 309.287338 61.151096 
L 317.690161 50.916019 
L 323.572138 44.706739 
L 329.58679 37.610419 
L 337.856938 29.000913 
L 337.856938 24.304819 
L 337.856938 10.999219 
L 323.572138 24.304819 
L 309.287338 37.610419 
L 295.002538 50.916019 
L 280.717738 64.221619 
L 266.432938 77.527219 
L 252.148138 90.832819 
L 237.863338 104.138419 
L 223.578538 117.444019 
L 209.293738 130.749619 
L 195.008938 144.055219 
L 209.293738 157.360819 
L 209.293738 157.360819 
L 223.578538 170.666419 
L 223.578538 170.666419 
L 237.863338 183.972019 
L 237.863338 183.972019 
L 252.148138 197.277619 
L 252.148138 197.277619 
L 266.432938 210.583219 
L 280.717738 223.888819 
L 295.002538 237.194419 
L 295.002538 237.194419 
L 309.287338 250.500019 
L 323.572138 263.805619 
z
" style="fill:#ded587;"/>
   </g>
   <g id="PathCollection_6">
    <path clip-path="url(#p7a4aacd6da)" d="M 60.431085 250.500019 
L 66.445738 243.403699 
L 72.327714 237.194419 
L 80.730538 226.959342 
L 83.587498 223.888819 
L 94.063018 210.583219 
L 95.015338 209.104819 
L 103.805984 197.277619 
L 109.300138 187.773619 
L 111.897374 183.972019 
L 118.390465 170.666419 
L 122.286319 157.360819 
L 123.584938 144.055219 
L 122.286319 130.749619 
L 118.390465 117.444019 
L 111.897374 104.138419 
L 109.300138 100.336819 
L 103.805984 90.832819 
L 95.015338 79.005619 
L 94.063018 77.527219 
L 83.587498 64.221619 
L 80.730538 61.151096 
L 72.327714 50.916019 
L 66.445738 44.706739 
L 60.431085 37.610419 
L 52.160938 29.000913 
L 52.160938 37.610419 
L 52.160938 50.028979 
L 52.912769 50.916019 
L 62.68658 64.221619 
L 66.445738 70.269619 
L 71.487432 77.527219 
L 79.049973 90.832819 
L 80.730538 94.634419 
L 85.492138 104.138419 
L 90.253738 117.444019 
L 93.110698 130.749619 
L 94.063018 144.055219 
L 93.110698 157.360819 
L 90.253738 170.666419 
L 85.492138 183.972019 
L 80.730537 193.476019 
L 79.049973 197.277619 
L 71.487432 210.583219 
L 66.445738 217.840819 
L 62.68658 223.888819 
L 52.912769 237.194419 
L 52.160938 238.081459 
L 52.160938 250.500019 
L 52.160938 259.109525 
z
" style="fill:#9e8365;"/>
    <path clip-path="url(#p7a4aacd6da)" d="M 337.856938 259.109525 
L 337.856938 250.500019 
L 337.856938 238.081459 
L 337.105106 237.194419 
L 327.331295 223.888819 
L 323.572138 217.840819 
L 318.530443 210.583219 
L 310.967902 197.277619 
L 309.287338 193.476019 
L 304.525738 183.972019 
L 299.764138 170.666419 
L 296.907178 157.360819 
L 295.954858 144.055219 
L 296.907178 130.749619 
L 299.764138 117.444019 
L 304.525738 104.138419 
L 309.287338 94.634419 
L 310.967902 90.832819 
L 318.530443 77.527219 
L 323.572138 70.269619 
L 327.331295 64.221619 
L 337.105106 50.916019 
L 337.856938 50.028979 
L 337.856938 37.610419 
L 337.856938 29.000913 
L 329.58679 37.610419 
L 323.572138 44.706739 
L 317.690161 50.916019 
L 309.287338 61.151096 
L 306.430378 64.221619 
L 295.954858 77.527219 
L 295.002538 79.005619 
L 286.211891 90.832819 
L 280.717738 100.336819 
L 278.120501 104.138419 
L 271.62741 117.444019 
L 267.731556 130.749619 
L 266.432938 144.055219 
L 267.731556 157.360819 
L 271.62741 170.666419 
L 278.120501 183.972019 
L 280.717738 187.773619 
L 286.211891 197.277619 
L 295.002538 209.104819 
L 295.954858 210.583219 
L 306.430378 223.888819 
L 309.287338 226.959342 
L 317.690161 237.194419 
L 323.572138 243.403699 
L 329.58679 250.500019 
z
" style="fill:#9e8365;"/>
   </g>
   <g id="PathCollection_7">
    <path clip-path="url(#p7a4aacd6da)" d="M 52.912769 237.194419 
L 62.68658 223.888819 
L 66.445738 217.840819 
L 71.487432 210.583219 
L 79.049973 197.277619 
L 80.730538 193.476019 
L 85.492138 183.972019 
L 90.253738 170.666419 
L 93.110698 157.360819 
L 94.063018 144.055219 
L 93.110698 130.749619 
L 90.253738 117.444019 
L 85.492138 104.138419 
L 80.730538 94.634419 
L 79.049973 90.832819 
L 71.487432 77.527219 
L 66.445738 70.269619 
L 62.68658 64.221619 
L 52.912769 50.916019 
L 52.160938 50.028979 
L 52.160938 50.916019 
L 52.160938 64.221619 
L 52.160938 77.527219 
L 58.927422 90.832819 
L 64.190243 104.138419 
L 66.445738 112.121779 
L 68.126302 117.444019 
L 70.647149 130.749619 
L 71.487432 144.055219 
L 70.647149 157.360819 
L 68.126302 170.666419 
L 66.445738 175.988659 
L 64.190243 183.972019 
L 58.927422 197.277619 
L 52.160938 210.583219 
L 52.160938 223.888819 
L 52.160938 237.194419 
L 52.160938 238.081459 
z
" style="fill:#a18781;"/>
    <path clip-path="url(#p7a4aacd6da)" d="M 337.856938 238.081459 
L 337.856938 237.194419 
L 337.856938 223.888819 
L 337.856938 210.583219 
L 331.090453 197.277619 
L 325.827632 183.972019 
L 323.572138 175.988659 
L 321.891573 170.666419 
L 319.370726 157.360819 
L 318.530443 144.055219 
L 319.370726 130.749619 
L 321.891573 117.444019 
L 323.572138 112.121779 
L 325.827632 104.138419 
L 331.090453 90.832819 
L 337.856938 77.527219 
L 337.856938 64.221619 
L 337.856938 50.916019 
L 337.856938 50.028979 
L 337.105106 50.916019 
L 327.331295 64.221619 
L 323.572138 70.269619 
L 318.530443 77.527219 
L 310.967902 90.832819 
L 309.287338 94.634419 
L 304.525738 104.138419 
L 299.764138 117.444019 
L 296.907178 130.749619 
L 295.954858 144.055219 
L 296.907178 157.360819 
L 299.764138 170.666419 
L 304.525738 183.972019 
L 309.287338 193.476019 
L 310.967902 197.277619 
L 318.530443 210.583219 
L 323.572138 217.840819 
L 327.331295 223.888819 
L 337.105106 237.194419 
z
" style="fill:#a18781;"/>
   </g>
   <g id="PathCollection_8">
    <path clip-path="url(#p7a4aacd6da)" d="M 58.927422 197.277619 
L 64.190243 183.972019 
L 66.445738 175.988659 
L 68.126302 170.666419 
L 70.647149 157.360819 
L 71.487432 144.055219 
L 70.647149 130.749619 
L 68.126302 117.444019 
L 66.445738 112.121779 
L 64.190243 104.138419 
L 58.927422 90.832819 
L 52.160938 77.527219 
L 52.160938 90.832819 
L 52.160938 104.138419 
L 52.160938 117.444019 
L 52.160938 130.749619 
L 52.160938 144.055219 
L 52.160938 157.360819 
L 52.160938 170.666419 
L 52.160938 183.972019 
L 52.160938 197.277619 
L 52.160938 210.583219 
z
" style="fill:#e1d9d7;"/>
    <path clip-path="url(#p7a4aacd6da)" d="M 337.856938 210.583219 
L 337.856938 197.277619 
L 337.856938 183.972019 
L 337.856938 170.666419 
L 337.856938 157.360819 
L 337.856938 144.055219 
L 337.856938 130.749619 
L 337.856938 117.444019 
L 337.856938 104.138419 
L 337.856938 90.832819 
L 337.856938 77.527219 
L 331.090453 90.832819 
L 325.827632 104.138419 
L 323.572138 112.121779 
L 321.891573 117.444019 
L 319.370726 130.749619 
L 318.530443 144.055219 
L 319.370726 157.360819 
L 321.891573 170.666419 
L 323.572138 175.988659 
L 325.827632 183.972019 
L 331.090453 197.277619 
z
" style="fill:#e1d9d7;"/>
   </g>
   <g id="matplotlib.axis_1">
    <g id="xtick_1">
     <g id="line2d_1">
      <defs>
       <path d="M 0 0 
L 0 3.5 
" id="m1268e935c6" style="stroke:#000000;stroke-width:0.8;"/>
      </defs>
      <g>
       <use style="stroke:#000000;stroke-width:0.8;" x="52.160938" xlink:href="#m1268e935c6" y="277.111219"/>
      </g>
     </g>
     <g id="text_1">
      <!-- −2.0 -->
      <g transform="translate(40.019531 291.709656)scale(0.1 -0.1)">
       <defs>
        <path d="M 10.59375 35.5 
L 73.1875 35.5 
L 73.1875 27.203125 
L 10.59375 27.203125 
z
" id="DejaVuSans-8722"/>
        <path d="M 19.1875 8.296875 
L 53.609375 8.296875 
L 53.609375 0 
L 7.328125 0 
L 7.328125 8.296875 
Q 12.9375 14.109375 22.625 23.890625 
Q 32.328125 33.6875 34.8125 36.53125 
Q 39.546875 41.84375 41.421875 45.53125 
Q 43.3125 49.21875 43.3125 52.78125 
Q 43.3125 58.59375 39.234375 62.25 
Q 35.15625 65.921875 28.609375 65.921875 
Q 23.96875 65.921875 18.8125 64.3125 
Q 13.671875 62.703125 7.8125 59.421875 
L 7.8125 69.390625 
Q 13.765625 71.78125 18.9375 73 
Q 24.125 74.21875 28.421875 74.21875 
Q 39.75 74.21875 46.484375 68.546875 
Q 53.21875 62.890625 53.21875 53.421875 
Q 53.21875 48.921875 51.53125 44.890625 
Q 49.859375 40.875 45.40625 35.40625 
Q 44.1875 33.984375 37.640625 27.21875 
Q 31.109375 20.453125 19.1875 8.296875 
z
" id="DejaVuSans-50"/>
        <path d="M 10.6875 12.40625 
L 21 12.40625 
L 21 0 
L 10.6875 0 
z
" id="DejaVuSans-46"/>
        <path d="M 31.78125 66.40625 
Q 24.171875 66.40625 20.328125 58.90625 
Q 16.5 51.421875 16.5 36.375 
Q 16.5 21.390625 20.328125 13.890625 
Q 24.171875 6.390625 31.78125 6.390625 
Q 39.453125 6.390625 43.28125 13.890625 
Q 47.125 21.390625 47.125 36.375 
Q 47.125 51.421875 43.28125 58.90625 
Q 39.453125 66.40625 31.78125 66.40625 
z
M 31.78125 74.21875 
Q 44.046875 74.21875 50.515625 64.515625 
Q 56.984375 54.828125 56.984375 36.375 
Q 56.984375 17.96875 50.515625 8.265625 
Q 44.046875 -1.421875 31.78125 -1.421875 
Q 19.53125 -1.421875 13.0625 8.265625 
Q 6.59375 17.96875 6.59375 36.375 
Q 6.59375 54.828125 13.0625 64.515625 
Q 19.53125 74.21875 31.78125 74.21875 
z
" id="DejaVuSans-48"/>
       </defs>
       <use xlink:href="#DejaVuSans-8722"/>
       <use x="83.789062" xlink:href="#DejaVuSans-50"/>
       <use x="147.412109" xlink:href="#DejaVuSans-46"/>
       <use x="179.199219" xlink:href="#DejaVuSans-48"/>
      </g>
     </g>
    </g>
    <g id="xtick_2">
     <g id="line2d_2">
      <g>
       <use style="stroke:#000000;stroke-width:0.8;" x="87.872938" xlink:href="#m1268e935c6" y="277.111219"/>
      </g>
     </g>
     <g id="text_2">
      <!-- −1.5 -->
      <g transform="translate(75.731531 291.709656)scale(0.1 -0.1)">
       <defs>
        <path d="M 12.40625 8.296875 
L 28.515625 8.296875 
L 28.515625 63.921875 
L 10.984375 60.40625 
L 10.984375 69.390625 
L 28.421875 72.90625 
L 38.28125 72.90625 
L 38.28125 8.296875 
L 54.390625 8.296875 
L 54.390625 0 
L 12.40625 0 
z
" id="DejaVuSans-49"/>
        <path d="M 10.796875 72.90625 
L 49.515625 72.90625 
L 49.515625 64.59375 
L 19.828125 64.59375 
L 19.828125 46.734375 
Q 21.96875 47.46875 24.109375 47.828125 
Q 26.265625 48.1875 28.421875 48.1875 
Q 40.625 48.1875 47.75 41.5 
Q 54.890625 34.8125 54.890625 23.390625 
Q 54.890625 11.625 47.5625 5.09375 
Q 40.234375 -1.421875 26.90625 -1.421875 
Q 22.3125 -1.421875 17.546875 -0.640625 
Q 12.796875 0.140625 7.71875 1.703125 
L 7.71875 11.625 
Q 12.109375 9.234375 16.796875 8.0625 
Q 21.484375 6.890625 26.703125 6.890625 
Q 35.15625 6.890625 40.078125 11.328125 
Q 45.015625 15.765625 45.015625 23.390625 
Q 45.015625 31 40.078125 35.4375 
Q 35.15625 39.890625 26.703125 39.890625 
Q 22.75 39.890625 18.8125 39.015625 
Q 14.890625 38.140625 10.796875 36.28125 
z
" id="DejaVuSans-53"/>
       </defs>
       <use xlink:href="#DejaVuSans-8722"/>
       <use x="83.789062" xlink:href="#DejaVuSans-49"/>
       <use x="147.412109" xlink:href="#DejaVuSans-46"/>
       <use x="179.199219" xlink:href="#DejaVuSans-53"/>
      </g>
     </g>
    </g>
    <g id="xtick_3">
     <g id="line2d_3">
      <g>
       <use style="stroke:#000000;stroke-width:0.8;" x="123.584938" xlink:href="#m1268e935c6" y="277.111219"/>
      </g>
     </g>
     <g id="text_3">
      <!-- −1.0 -->
      <g transform="translate(111.443531 291.709656)scale(0.1 -0.1)">
       <use xlink:href="#DejaVuSans-8722"/>
       <use x="83.789062" xlink:href="#DejaVuSans-49"/>
       <use x="147.412109" xlink:href="#DejaVuSans-46"/>
       <use x="179.199219" xlink:href="#DejaVuSans-48"/>
      </g>
     </g>
    </g>
    <g id="xtick_4">
     <g id="line2d_4">
      <g>
       <use style="stroke:#000000;stroke-width:0.8;" x="159.296938" xlink:href="#m1268e935c6" y="277.111219"/>
      </g>
     </g>
     <g id="text_4">
      <!-- −0.5 -->
      <g transform="translate(147.155531 291.709656)scale(0.1 -0.1)">
       <use xlink:href="#DejaVuSans-8722"/>
       <use x="83.789062" xlink:href="#DejaVuSans-48"/>
       <use x="147.412109" xlink:href="#DejaVuSans-46"/>
       <use x="179.199219" xlink:href="#DejaVuSans-53"/>
      </g>
     </g>
    </g>
    <g id="xtick_5">
     <g id="line2d_5">
      <g>
       <use style="stroke:#000000;stroke-width:0.8;" x="195.008938" xlink:href="#m1268e935c6" y="277.111219"/>
      </g>
     </g>
     <g id="text_5">
      <!-- 0.0 -->
      <g transform="translate(187.057375 291.709656)scale(0.1 -0.1)">
       <use xlink:href="#DejaVuSans-48"/>
       <use x="63.623047" xlink:href="#DejaVuSans-46"/>
       <use x="95.410156" xlink:href="#DejaVuSans-48"/>
      </g>
     </g>
    </g>
    <g id="xtick_6">
     <g id="line2d_6">
      <g>
       <use style="stroke:#000000;stroke-width:0.8;" x="230.720938" xlink:href="#m1268e935c6" y="277.111219"/>
      </g>
     </g>
     <g id="text_6">
      <!-- 0.5 -->
      <g transform="translate(222.769375 291.709656)scale(0.1 -0.1)">
       <use xlink:href="#DejaVuSans-48"/>
       <use x="63.623047" xlink:href="#DejaVuSans-46"/>
       <use x="95.410156" xlink:href="#DejaVuSans-53"/>
      </g>
     </g>
    </g>
    <g id="xtick_7">
     <g id="line2d_7">
      <g>
       <use style="stroke:#000000;stroke-width:0.8;" x="266.432938" xlink:href="#m1268e935c6" y="277.111219"/>
      </g>
     </g>
     <g id="text_7">
      <!-- 1.0 -->
      <g transform="translate(258.481375 291.709656)scale(0.1 -0.1)">
       <use xlink:href="#DejaVuSans-49"/>
       <use x="63.623047" xlink:href="#DejaVuSans-46"/>
       <use x="95.410156" xlink:href="#DejaVuSans-48"/>
      </g>
     </g>
    </g>
    <g id="xtick_8">
     <g id="line2d_8">
      <g>
       <use style="stroke:#000000;stroke-width:0.8;" x="302.144938" xlink:href="#m1268e935c6" y="277.111219"/>
      </g>
     </g>
     <g id="text_8">
      <!-- 1.5 -->
      <g transform="translate(294.193375 291.709656)scale(0.1 -0.1)">
       <use xlink:href="#DejaVuSans-49"/>
       <use x="63.623047" xlink:href="#DejaVuSans-46"/>
       <use x="95.410156" xlink:href="#DejaVuSans-53"/>
      </g>
     </g>
    </g>
    <g id="xtick_9">
     <g id="line2d_9">
      <g>
       <use style="stroke:#000000;stroke-width:0.8;" x="337.856938" xlink:href="#m1268e935c6" y="277.111219"/>
      </g>
     </g>
     <g id="text_9">
      <!-- 2.0 -->
      <g transform="translate(329.905375 291.709656)scale(0.1 -0.1)">
       <use xlink:href="#DejaVuSans-50"/>
       <use x="63.623047" xlink:href="#DejaVuSans-46"/>
       <use x="95.410156" xlink:href="#DejaVuSans-48"/>
      </g>
     </g>
    </g>
    <g id="text_10">
     <!-- x -->
     <g transform="translate(192.049563 305.387781)scale(0.1 -0.1)">
      <defs>
       <path d="M 54.890625 54.6875 
L 35.109375 28.078125 
L 55.90625 0 
L 45.3125 0 
L 29.390625 21.484375 
L 13.484375 0 
L 2.875 0 
L 24.125 28.609375 
L 4.6875 54.6875 
L 15.28125 54.6875 
L 29.78125 35.203125 
L 44.28125 54.6875 
z
" id="DejaVuSans-120"/>
      </defs>
      <use xlink:href="#DejaVuSans-120"/>
     </g>
    </g>
   </g>
   <g id="matplotlib.axis_2">
    <g id="ytick_1">
     <g id="line2d_10">
      <defs>
       <path d="M 0 0 
L -3.5 0 
" id="mcaa4bea07c" style="stroke:#000000;stroke-width:0.8;"/>
      </defs>
      <g>
       <use style="stroke:#000000;stroke-width:0.8;" x="52.160938" xlink:href="#mcaa4bea07c" y="277.111219"/>
      </g>
     </g>
     <g id="text_11">
      <!-- −2.0 -->
      <g transform="translate(20.878125 280.910437)scale(0.1 -0.1)">
       <use xlink:href="#DejaVuSans-8722"/>
       <use x="83.789062" xlink:href="#DejaVuSans-50"/>
       <use x="147.412109" xlink:href="#DejaVuSans-46"/>
       <use x="179.199219" xlink:href="#DejaVuSans-48"/>
      </g>
     </g>
    </g>
    <g id="ytick_2">
     <g id="line2d_11">
      <g>
       <use style="stroke:#000000;stroke-width:0.8;" x="52.160938" xlink:href="#mcaa4bea07c" y="243.847219"/>
      </g>
     </g>
     <g id="text_12">
      <!-- −1.5 -->
      <g transform="translate(20.878125 247.646437)scale(0.1 -0.1)">
       <use xlink:href="#DejaVuSans-8722"/>
       <use x="83.789062" xlink:href="#DejaVuSans-49"/>
       <use x="147.412109" xlink:href="#DejaVuSans-46"/>
       <use x="179.199219" xlink:href="#DejaVuSans-53"/>
      </g>
     </g>
    </g>
    <g id="ytick_3">
     <g id="line2d_12">
      <g>
       <use style="stroke:#000000;stroke-width:0.8;" x="52.160938" xlink:href="#mcaa4bea07c" y="210.583219"/>
      </g>
     </g>
     <g id="text_13">
      <!-- −1.0 -->
      <g transform="translate(20.878125 214.382437)scale(0.1 -0.1)">
       <use xlink:href="#DejaVuSans-8722"/>
       <use x="83.789062" xlink:href="#DejaVuSans-49"/>
       <use x="147.412109" xlink:href="#DejaVuSans-46"/>
       <use x="179.199219" xlink:href="#DejaVuSans-48"/>
      </g>
     </g>
    </g>
    <g id="ytick_4">
     <g id="line2d_13">
      <g>
       <use style="stroke:#000000;stroke-width:0.8;" x="52.160938" xlink:href="#mcaa4bea07c" y="177.319219"/>
      </g>
     </g>
     <g id="text_14">
      <!-- −0.5 -->
      <g transform="translate(20.878125 181.118437)scale(0.1 -0.1)">
       <use xlink:href="#DejaVuSans-8722"/>
       <use x="83.789062" xlink:href="#DejaVuSans-48"/>
       <use x="147.412109" xlink:href="#DejaVuSans-46"/>
       <use x="179.199219" xlink:href="#DejaVuSans-53"/>
      </g>
     </g>
    </g>
    <g id="ytick_5">
     <g id="line2d_14">
      <g>
       <use style="stroke:#000000;stroke-width:0.8;" x="52.160938" xlink:href="#mcaa4bea07c" y="144.055219"/>
      </g>
     </g>
     <g id="text_15">
      <!-- 0.0 -->
      <g transform="translate(29.257812 147.854437)scale(0.1 -0.1)">
       <use xlink:href="#DejaVuSans-48"/>
       <use x="63.623047" xlink:href="#DejaVuSans-46"/>
       <use x="95.410156" xlink:href="#DejaVuSans-48"/>
      </g>
     </g>
    </g>
    <g id="ytick_6">
     <g id="line2d_15">
      <g>
       <use style="stroke:#000000;stroke-width:0.8;" x="52.160938" xlink:href="#mcaa4bea07c" y="110.791219"/>
      </g>
     </g>
     <g id="text_16">
      <!-- 0.5 -->
      <g transform="translate(29.257812 114.590437)scale(0.1 -0.1)">
       <use xlink:href="#DejaVuSans-48"/>
       <use x="63.623047" xlink:href="#DejaVuSans-46"/>
       <use x="95.410156" xlink:href="#DejaVuSans-53"/>
      </g>
     </g>
    </g>
    <g id="ytick_7">
     <g id="line2d_16">
      <g>
       <use style="stroke:#000000;stroke-width:0.8;" x="52.160938" xlink:href="#mcaa4bea07c" y="77.527219"/>
      </g>
     </g>
     <g id="text_17">
      <!-- 1.0 -->
      <g transform="translate(29.257812 81.326437)scale(0.1 -0.1)">
       <use xlink:href="#DejaVuSans-49"/>
       <use x="63.623047" xlink:href="#DejaVuSans-46"/>
       <use x="95.410156" xlink:href="#DejaVuSans-48"/>
      </g>
     </g>
    </g>
    <g id="ytick_8">
     <g id="line2d_17">
      <g>
       <use style="stroke:#000000;stroke-width:0.8;" x="52.160938" xlink:href="#mcaa4bea07c" y="44.263219"/>
      </g>
     </g>
     <g id="text_18">
      <!-- 1.5 -->
      <g transform="translate(29.257812 48.062437)scale(0.1 -0.1)">
       <use xlink:href="#DejaVuSans-49"/>
       <use x="63.623047" xlink:href="#DejaVuSans-46"/>
       <use x="95.410156" xlink:href="#DejaVuSans-53"/>
      </g>
     </g>
    </g>
    <g id="ytick_9">
     <g id="line2d_18">
      <g>
       <use style="stroke:#000000;stroke-width:0.8;" x="52.160938" xlink:href="#mcaa4bea07c" y="10.999219"/>
      </g>
     </g>
     <g id="text_19">
      <!-- 2.0 -->
      <g transform="translate(29.257812 14.798437)scale(0.1 -0.1)">
       <use xlink:href="#DejaVuSans-50"/>
       <use x="63.623047" xlink:href="#DejaVuSans-46"/>
       <use x="95.410156" xlink:href="#DejaVuSans-48"/>
      </g>
     </g>
    </g>
    <g id="text_20">
     <!-- y -->
     <g transform="translate(14.798438 147.014594)rotate(-90)scale(0.1 -0.1)">
      <defs>
       <path d="M 32.171875 -5.078125 
Q 28.375 -14.84375 24.75 -17.8125 
Q 21.140625 -20.796875 15.09375 -20.796875 
L 7.90625 -20.796875 
L 7.90625 -13.28125 
L 13.1875 -13.28125 
Q 16.890625 -13.28125 18.9375 -11.515625 
Q 21 -9.765625 23.484375 -3.21875 
L 25.09375 0.875 
L 2.984375 54.6875 
L 12.5 54.6875 
L 29.59375 11.921875 
L 46.6875 54.6875 
L 56.203125 54.6875 
z
" id="DejaVuSans-121"/>
      </defs>
      <use xlink:href="#DejaVuSans-121"/>
     </g>
    </g>
   </g>
   <g id="LineCollection_1">
    <path clip-path="url(#p7a4aacd6da)" d="M 195.008938 277.111219 
" style="fill:none;stroke:#000000;stroke-dasharray:5.55,2.4;stroke-dashoffset:0;stroke-width:1.5;"/>
    <path clip-path="url(#p7a4aacd6da)" d="M 195.008938 10.999219 
" style="fill:none;stroke:#000000;stroke-dasharray:5.55,2.4;stroke-dashoffset:0;stroke-width:1.5;"/>
   </g>
   <g id="LineCollection_2">
    <path clip-path="url(#p7a4aacd6da)" d="M 123.584938 277.111219 
L 137.869738 270.808566 
L 152.154538 265.906503 
L 160.725418 263.805619 
L 166.439338 262.240254 
L 177.768102 260.378102 
" style="fill:none;stroke:#000000;stroke-dasharray:5.55,2.4;stroke-dashoffset:0;stroke-width:1.5;"/>
    <path clip-path="url(#p7a4aacd6da)" d="M 212.249773 260.378102 
L 223.578538 262.240254 
L 229.292458 263.805619 
L 237.863338 265.906503 
L 252.148138 270.808566 
L 266.432938 277.111219 
" style="fill:none;stroke:#000000;stroke-dasharray:5.55,2.4;stroke-dashoffset:0;stroke-width:1.5;"/>
    <path clip-path="url(#p7a4aacd6da)" d="M 266.432938 10.999219 
L 252.148138 17.301871 
L 237.863338 22.203935 
L 229.292458 24.304819 
L 223.578538 25.870183 
L 212.249773 27.732336 
" style="fill:none;stroke:#000000;stroke-dasharray:5.55,2.4;stroke-dashoffset:0;stroke-width:1.5;"/>
    <path clip-path="url(#p7a4aacd6da)" d="M 177.768102 27.732336 
L 166.439338 25.870183 
L 160.725417 24.304819 
L 152.154538 22.203935 
L 137.869738 17.301871 
L 123.584938 10.999219 
" style="fill:none;stroke:#000000;stroke-dasharray:5.55,2.4;stroke-dashoffset:0;stroke-width:1.5;"/>
   </g>
   <g id="LineCollection_3">
    <path clip-path="url(#p7a4aacd6da)" d="M 94.063018 277.111219 
L 95.015338 276.410924 
L 109.300138 267.307092 
L 115.793228 263.805619 
L 123.584938 259.109525 
L 137.869738 252.065383 
L 141.951109 250.500019 
L 152.154538 246.064819 
L 166.439338 241.629619 
L 177.779079 239.517135 
" style="fill:none;stroke:#000000;stroke-dasharray:5.55,2.4;stroke-dashoffset:0;stroke-width:1.5;"/>
    <path clip-path="url(#p7a4aacd6da)" d="M 212.238796 239.517135 
L 223.578538 241.629619 
L 237.863338 246.064819 
L 248.066766 250.500019 
L 252.148138 252.065383 
L 266.432938 259.109525 
L 274.224647 263.805619 
L 280.717738 267.307092 
L 295.002538 276.410924 
L 295.954858 277.111219 
" style="fill:none;stroke:#000000;stroke-dasharray:5.55,2.4;stroke-dashoffset:0;stroke-width:1.5;"/>
    <path clip-path="url(#p7a4aacd6da)" d="M 295.954858 10.999219 
L 295.002538 11.699513 
L 280.717738 20.803345 
L 274.224647 24.304819 
L 266.432938 29.000913 
L 252.148138 36.045054 
L 248.066766 37.610419 
L 237.863338 42.045619 
L 223.578538 46.480819 
L 212.238796 48.593303 
" style="fill:none;stroke:#000000;stroke-dasharray:5.55,2.4;stroke-dashoffset:0;stroke-width:1.5;"/>
    <path clip-path="url(#p7a4aacd6da)" d="M 177.779079 48.593303 
L 166.439338 46.480819 
L 152.154538 42.045619 
L 141.951109 37.610419 
L 137.869738 36.045054 
L 123.584938 29.000913 
L 115.793228 24.304819 
L 109.300138 20.803345 
L 95.015338 11.699513 
L 94.063018 10.999219 
" style="fill:none;stroke:#000000;stroke-dasharray:5.55,2.4;stroke-dashoffset:0;stroke-width:1.5;"/>
   </g>
   <g id="LineCollection_4">
    <path clip-path="url(#p7a4aacd6da)" d="M 71.487432 277.111219 
L 80.730538 269.407977 
L 88.349098 263.805619 
L 95.015338 258.326842 
L 106.003645 250.500019 
L 109.300138 247.838899 
L 123.584938 238.081459 
L 125.172138 237.194419 
L 137.869738 229.006357 
L 148.073166 223.888819 
L 152.154538 221.469619 
L 166.439338 215.421619 
L 177.82102 212.530304 
" style="fill:none;stroke:#000000;stroke-dasharray:5.55,2.4;stroke-dashoffset:0;stroke-width:1.5;"/>
    <path clip-path="url(#p7a4aacd6da)" d="M 212.196855 212.530304 
L 223.578538 215.421619 
L 237.863338 221.469619 
L 241.944709 223.888819 
L 252.148138 229.006357 
L 264.845738 237.194419 
L 266.432938 238.081459 
L 280.717738 247.838899 
L 284.01423 250.500019 
L 295.002538 258.326842 
L 301.668778 263.805619 
L 309.287338 269.407977 
L 318.530443 277.111219 
" style="fill:none;stroke:#000000;stroke-dasharray:5.55,2.4;stroke-dashoffset:0;stroke-width:1.5;"/>
    <path clip-path="url(#p7a4aacd6da)" d="M 318.530443 10.999219 
L 309.287338 18.702461 
L 301.668778 24.304819 
L 295.002538 29.783595 
L 284.01423 37.610419 
L 280.717738 40.271539 
L 266.432938 50.028979 
L 264.845738 50.916019 
L 252.148138 59.10408 
L 241.944709 64.221619 
L 237.863338 66.640819 
L 223.578538 72.688819 
L 212.196855 75.580133 
" style="fill:none;stroke:#000000;stroke-dasharray:5.55,2.4;stroke-dashoffset:0;stroke-width:1.5;"/>
    <path clip-path="url(#p7a4aacd6da)" d="M 177.82102 75.580133 
L 166.439338 72.688819 
L 152.154538 66.640819 
L 148.073166 64.221619 
L 137.869738 59.10408 
L 125.172138 50.916019 
L 123.584938 50.028979 
L 109.300138 40.271539 
L 106.003645 37.610419 
L 95.015338 29.783595 
L 88.349098 24.304819 
L 80.730538 18.702461 
L 71.487432 10.999219 
" style="fill:none;stroke:#000000;stroke-dasharray:5.55,2.4;stroke-dashoffset:0;stroke-width:1.5;"/>
   </g>
   <g id="LineCollection_5">
    <path clip-path="url(#p7a4aacd6da)" d="M 52.160938 277.111219 
L 66.445738 263.805619 
L 80.730538 250.500019 
L 95.015338 237.194419 
L 109.300138 223.888819 
L 123.584938 210.583219 
L 137.869738 197.277619 
L 152.154538 183.972019 
L 166.439338 170.666419 
L 180.724138 157.360819 
L 195.008938 144.055219 
L 180.724138 130.749619 
L 180.724138 130.749619 
L 178.370992 128.557778 
" style="fill:none;stroke:#000000;stroke-width:1.5;"/>
    <path clip-path="url(#p7a4aacd6da)" d="M 154.507683 106.33026 
L 152.154538 104.138419 
L 152.154538 104.138419 
L 137.869738 90.832819 
L 137.869738 90.832819 
L 123.584938 77.527219 
L 109.300138 64.221619 
L 109.300138 64.221619 
L 95.015338 50.916019 
L 95.015338 50.916019 
L 80.730538 37.610419 
L 66.445738 24.304819 
L 66.445738 24.304819 
L 52.160938 10.999219 
" style="fill:none;stroke:#000000;stroke-width:1.5;"/>
    <path clip-path="url(#p7a4aacd6da)" d="M 337.856938 10.999219 
L 323.572138 24.304819 
L 309.287338 37.610419 
L 295.002538 50.916019 
L 280.717738 64.221619 
L 266.432938 77.527219 
L 252.148138 90.832819 
L 237.863338 104.138419 
L 223.578538 117.444019 
L 209.293738 130.749619 
L 195.008938 144.055219 
L 209.293738 157.360819 
L 209.293738 157.360819 
L 211.646883 159.55266 
" style="fill:none;stroke:#000000;stroke-width:1.5;"/>
    <path clip-path="url(#p7a4aacd6da)" d="M 235.510192 181.780178 
L 237.863338 183.972019 
L 237.863338 183.972019 
L 252.148138 197.277619 
L 252.148138 197.277619 
L 266.432938 210.583219 
L 280.717738 223.888819 
L 295.002538 237.194419 
L 295.002538 237.194419 
L 309.287338 250.500019 
L 323.572138 263.805619 
L 323.572138 263.805619 
L 337.856938 277.111219 
" style="fill:none;stroke:#000000;stroke-width:1.5;"/>
   </g>
   <g id="LineCollection_6">
    <path clip-path="url(#p7a4aacd6da)" d="M 52.160938 259.109525 
L 60.431085 250.500019 
L 66.445738 243.403699 
L 72.327714 237.194419 
L 80.730538 226.959342 
L 83.587498 223.888819 
L 94.063018 210.583219 
L 95.015338 209.104819 
L 103.805984 197.277619 
L 109.300138 187.773619 
L 111.897374 183.972019 
L 118.390465 170.666419 
L 120.857694 162.240037 
" style="fill:none;stroke:#000000;stroke-width:1.5;"/>
    <path clip-path="url(#p7a4aacd6da)" d="M 120.857694 125.870401 
L 118.390465 117.444019 
L 111.897374 104.138419 
L 109.300138 100.336819 
L 103.805984 90.832819 
L 95.015338 79.005619 
L 94.063018 77.527219 
L 83.587498 64.221619 
L 80.730538 61.151096 
L 72.327714 50.916019 
L 66.445738 44.706739 
L 60.431085 37.610419 
L 52.160938 29.000913 
" style="fill:none;stroke:#000000;stroke-width:1.5;"/>
    <path clip-path="url(#p7a4aacd6da)" d="M 337.856938 29.000913 
L 329.58679 37.610419 
L 323.572138 44.706739 
L 317.690161 50.916019 
L 309.287338 61.151096 
L 306.430378 64.221619 
L 295.954858 77.527219 
L 295.002538 79.005619 
L 286.211891 90.832819 
L 280.717738 100.336819 
L 278.120501 104.138419 
L 271.62741 117.444019 
L 269.160181 125.870401 
" style="fill:none;stroke:#000000;stroke-width:1.5;"/>
    <path clip-path="url(#p7a4aacd6da)" d="M 269.160181 162.240037 
L 271.62741 170.666419 
L 278.120501 183.972019 
L 280.717738 187.773619 
L 286.211891 197.277619 
L 295.002538 209.104819 
L 295.954858 210.583219 
L 306.430378 223.888819 
L 309.287338 226.959342 
L 317.690161 237.194419 
L 323.572138 243.403699 
L 329.58679 250.500019 
L 337.856938 259.109525 
" style="fill:none;stroke:#000000;stroke-width:1.5;"/>
   </g>
   <g id="LineCollection_7">
    <path clip-path="url(#p7a4aacd6da)" d="M 52.160938 238.081459 
L 52.912769 237.194419 
L 62.68658 223.888819 
L 66.445738 217.840819 
L 71.487432 210.583219 
L 79.049973 197.277619 
L 80.730538 193.476019 
L 85.492138 183.972019 
L 90.253738 170.666419 
L 92.023771 162.422914 
" style="fill:none;stroke:#000000;stroke-width:1.5;"/>
    <path clip-path="url(#p7a4aacd6da)" d="M 92.023771 125.687523 
L 90.253738 117.444019 
L 85.492138 104.138419 
L 80.730538 94.634419 
L 79.049973 90.832819 
L 71.487432 77.527219 
L 66.445738 70.269619 
L 62.68658 64.221619 
L 52.912769 50.916019 
L 52.160938 50.028979 
" style="fill:none;stroke:#000000;stroke-width:1.5;"/>
    <path clip-path="url(#p7a4aacd6da)" d="M 337.856938 50.028979 
L 337.105106 50.916019 
L 327.331295 64.221619 
L 323.572138 70.269619 
L 318.530443 77.527219 
L 310.967902 90.832819 
L 309.287338 94.634419 
L 304.525738 104.138419 
L 299.764138 117.444019 
L 297.994104 125.687523 
" style="fill:none;stroke:#000000;stroke-width:1.5;"/>
    <path clip-path="url(#p7a4aacd6da)" d="M 297.994104 162.422914 
L 299.764138 170.666419 
L 304.525738 183.972019 
L 309.287338 193.476019 
L 310.967902 197.277619 
L 318.530443 210.583219 
L 323.572138 217.840819 
L 327.331295 223.888819 
L 337.105106 237.194419 
L 337.856938 238.081459 
" style="fill:none;stroke:#000000;stroke-width:1.5;"/>
   </g>
   <g id="LineCollection_8">
    <path clip-path="url(#p7a4aacd6da)" d="M 52.160938 210.583219 
L 58.927422 197.277619 
L 64.190243 183.972019 
L 66.445738 175.988659 
L 68.126302 170.666419 
L 69.678714 162.472439 
" style="fill:none;stroke:#000000;stroke-width:1.5;"/>
    <path clip-path="url(#p7a4aacd6da)" d="M 69.678714 125.637999 
L 68.126302 117.444019 
L 66.445738 112.121779 
L 64.190243 104.138419 
L 58.927422 90.832819 
L 52.160938 77.527219 
" style="fill:none;stroke:#000000;stroke-width:1.5;"/>
    <path clip-path="url(#p7a4aacd6da)" d="M 337.856938 77.527219 
L 331.090453 90.832819 
L 325.827632 104.138419 
L 323.572138 112.121779 
L 321.891573 117.444019 
L 320.339161 125.637999 
" style="fill:none;stroke:#000000;stroke-width:1.5;"/>
    <path clip-path="url(#p7a4aacd6da)" d="M 320.339161 162.472439 
L 321.891573 170.666419 
L 323.572138 175.988659 
L 325.827632 183.972019 
L 331.090453 197.277619 
L 337.856938 210.583219 
" style="fill:none;stroke:#000000;stroke-width:1.5;"/>
   </g>
   <g id="LineCollection_9"/>
   <g id="LineCollection_10">
    <path clip-path="url(#p7a4aacd6da)" d="M 52.160938 277.111219 
L 66.445738 263.805619 
L 80.730538 250.500019 
L 95.015338 237.194419 
L 109.300138 223.888819 
L 123.584938 210.583219 
L 137.869738 197.277619 
L 152.154538 183.972019 
L 166.439338 170.666419 
L 180.724138 157.360819 
L 195.008938 144.055219 
L 180.724138 130.749619 
L 180.724138 130.749619 
L 166.439338 117.444019 
L 166.439338 117.444019 
L 152.154538 104.138419 
L 152.154538 104.138419 
L 137.869738 90.832819 
L 137.869738 90.832819 
L 123.584938 77.527219 
L 109.300138 64.221619 
L 109.300138 64.221619 
L 95.015338 50.916019 
L 95.015338 50.916019 
L 80.730538 37.610419 
L 66.445738 24.304819 
L 66.445738 24.304819 
L 52.160938 10.999219 
" style="fill:none;stroke:#f1eb67;stroke-width:12;"/>
    <path clip-path="url(#p7a4aacd6da)" d="M 337.856938 10.999219 
L 323.572138 24.304819 
L 309.287338 37.610419 
L 295.002538 50.916019 
L 280.717738 64.221619 
L 266.432938 77.527219 
L 252.148138 90.832819 
L 237.863338 104.138419 
L 223.578538 117.444019 
L 209.293738 130.749619 
L 195.008938 144.055219 
L 209.293738 157.360819 
L 209.293738 157.360819 
L 223.578538 170.666419 
L 223.578538 170.666419 
L 237.863338 183.972019 
L 237.863338 183.972019 
L 252.148138 197.277619 
L 252.148138 197.277619 
L 266.432938 210.583219 
L 280.717738 223.888819 
L 295.002538 237.194419 
L 295.002538 237.194419 
L 309.287338 250.500019 
L 323.572138 263.805619 
L 323.572138 263.805619 
L 337.856938 277.111219 
" style="fill:none;stroke:#f1eb67;stroke-width:12;"/>
   </g>
   <g id="patch_3">
    <path d="M 52.160938 277.111219 
L 52.160938 10.999219 
" style="fill:none;stroke:#000000;stroke-linecap:square;stroke-linejoin:miter;stroke-width:0.8;"/>
   </g>
   <g id="patch_4">
    <path d="M 337.856938 277.111219 
L 337.856938 10.999219 
" style="fill:none;stroke:#000000;stroke-linecap:square;stroke-linejoin:miter;stroke-width:0.8;"/>
   </g>
   <g id="patch_5">
    <path d="M 52.160938 277.111219 
L 337.856938 277.111219 
" style="fill:none;stroke:#000000;stroke-linecap:square;stroke-linejoin:miter;stroke-width:0.8;"/>
   </g>
   <g id="patch_6">
    <path d="M 52.160938 10.999219 
L 337.856938 10.999219 
" style="fill:none;stroke:#000000;stroke-linecap:square;stroke-linejoin:miter;stroke-width:0.8;"/>
   </g>
   <g id="text_21">
    <g clip-path="url(#p7a4aacd6da)">
     <!-- -3.000 -->
     <g transform="translate(178.890969 261.8689)scale(0.1 -0.1)">
      <defs>
       <path d="M 4.890625 31.390625 
L 31.203125 31.390625 
L 31.203125 23.390625 
L 4.890625 23.390625 
z
" id="DejaVuSans-45"/>
       <path d="M 40.578125 39.3125 
Q 47.65625 37.796875 51.625 33 
Q 55.609375 28.21875 55.609375 21.1875 
Q 55.609375 10.40625 48.1875 4.484375 
Q 40.765625 -1.421875 27.09375 -1.421875 
Q 22.515625 -1.421875 17.65625 -0.515625 
Q 12.796875 0.390625 7.625 2.203125 
L 7.625 11.71875 
Q 11.71875 9.328125 16.59375 8.109375 
Q 21.484375 6.890625 26.8125 6.890625 
Q 36.078125 6.890625 40.9375 10.546875 
Q 45.796875 14.203125 45.796875 21.1875 
Q 45.796875 27.640625 41.28125 31.265625 
Q 36.765625 34.90625 28.71875 34.90625 
L 20.21875 34.90625 
L 20.21875 43.015625 
L 29.109375 43.015625 
Q 36.375 43.015625 40.234375 45.921875 
Q 44.09375 48.828125 44.09375 54.296875 
Q 44.09375 59.90625 40.109375 62.90625 
Q 36.140625 65.921875 28.71875 65.921875 
Q 24.65625 65.921875 20.015625 65.03125 
Q 15.375 64.15625 9.8125 62.3125 
L 9.8125 71.09375 
Q 15.4375 72.65625 20.34375 73.4375 
Q 25.25 74.21875 29.59375 74.21875 
Q 40.828125 74.21875 47.359375 69.109375 
Q 53.90625 64.015625 53.90625 55.328125 
Q 53.90625 49.265625 50.4375 45.09375 
Q 46.96875 40.921875 40.578125 39.3125 
z
" id="DejaVuSans-51"/>
      </defs>
      <use xlink:href="#DejaVuSans-45"/>
      <use x="36.083984" xlink:href="#DejaVuSans-51"/>
      <use x="99.707031" xlink:href="#DejaVuSans-46"/>
      <use x="131.494141" xlink:href="#DejaVuSans-48"/>
      <use x="195.117188" xlink:href="#DejaVuSans-48"/>
      <use x="258.740234" xlink:href="#DejaVuSans-48"/>
     </g>
    </g>
   </g>
   <g id="text_22">
    <g clip-path="url(#p7a4aacd6da)">
     <!-- -3.000 -->
     <g transform="translate(178.890969 31.760288)scale(0.1 -0.1)">
      <use xlink:href="#DejaVuSans-45"/>
      <use x="36.083984" xlink:href="#DejaVuSans-51"/>
      <use x="99.707031" xlink:href="#DejaVuSans-46"/>
      <use x="131.494141" xlink:href="#DejaVuSans-48"/>
      <use x="195.117188" xlink:href="#DejaVuSans-48"/>
      <use x="258.740234" xlink:href="#DejaVuSans-48"/>
     </g>
    </g>
   </g>
   <g id="text_23">
    <g clip-path="url(#p7a4aacd6da)">
     <!-- -2.000 -->
     <g transform="translate(178.890969 240.840834)scale(0.1 -0.1)">
      <use xlink:href="#DejaVuSans-45"/>
      <use x="36.083984" xlink:href="#DejaVuSans-50"/>
      <use x="99.707031" xlink:href="#DejaVuSans-46"/>
      <use x="131.494141" xlink:href="#DejaVuSans-48"/>
      <use x="195.117188" xlink:href="#DejaVuSans-48"/>
      <use x="258.740234" xlink:href="#DejaVuSans-48"/>
     </g>
    </g>
   </g>
   <g id="text_24">
    <g clip-path="url(#p7a4aacd6da)">
     <!-- -2.000 -->
     <g transform="translate(178.890969 52.788354)scale(0.1 -0.1)">
      <use xlink:href="#DejaVuSans-45"/>
      <use x="36.083984" xlink:href="#DejaVuSans-50"/>
      <use x="99.707031" xlink:href="#DejaVuSans-46"/>
      <use x="131.494141" xlink:href="#DejaVuSans-48"/>
      <use x="195.117188" xlink:href="#DejaVuSans-48"/>
      <use x="258.740234" xlink:href="#DejaVuSans-48"/>
     </g>
    </g>
   </g>
   <g id="text_25">
    <g clip-path="url(#p7a4aacd6da)">
     <!-- -1.000 -->
     <g transform="translate(178.890969 213.342594)scale(0.1 -0.1)">
      <use xlink:href="#DejaVuSans-45"/>
      <use x="36.083984" xlink:href="#DejaVuSans-49"/>
      <use x="99.707031" xlink:href="#DejaVuSans-46"/>
      <use x="131.494141" xlink:href="#DejaVuSans-48"/>
      <use x="195.117188" xlink:href="#DejaVuSans-48"/>
      <use x="258.740234" xlink:href="#DejaVuSans-48"/>
     </g>
    </g>
   </g>
   <g id="text_26">
    <g clip-path="url(#p7a4aacd6da)">
     <!-- -1.000 -->
     <g transform="translate(178.890969 80.286594)scale(0.1 -0.1)">
      <use xlink:href="#DejaVuSans-45"/>
      <use x="36.083984" xlink:href="#DejaVuSans-49"/>
      <use x="99.707031" xlink:href="#DejaVuSans-46"/>
      <use x="131.494141" xlink:href="#DejaVuSans-48"/>
      <use x="195.117188" xlink:href="#DejaVuSans-48"/>
      <use x="258.740234" xlink:href="#DejaVuSans-48"/>
     </g>
    </g>
   </g>
   <g id="text_27">
    <g clip-path="url(#p7a4aacd6da)">
     <!-- 0.000 -->
     <g transform="translate(153.312719 111.103795)rotate(-323.307947)scale(0.1 -0.1)">
      <use xlink:href="#DejaVuSans-48"/>
      <use x="63.623047" xlink:href="#DejaVuSans-46"/>
      <use x="95.410156" xlink:href="#DejaVuSans-48"/>
      <use x="159.033203" xlink:href="#DejaVuSans-48"/>
      <use x="222.65625" xlink:href="#DejaVuSans-48"/>
     </g>
    </g>
   </g>
   <g id="text_28">
    <g clip-path="url(#p7a4aacd6da)">
     <!-- 0.000 -->
     <g transform="translate(210.451919 164.326195)rotate(-323.307947)scale(0.1 -0.1)">
      <use xlink:href="#DejaVuSans-48"/>
      <use x="63.623047" xlink:href="#DejaVuSans-46"/>
      <use x="95.410156" xlink:href="#DejaVuSans-48"/>
      <use x="159.033203" xlink:href="#DejaVuSans-48"/>
      <use x="222.65625" xlink:href="#DejaVuSans-48"/>
     </g>
    </g>
   </g>
   <g id="text_29">
    <g clip-path="url(#p7a4aacd6da)">
     <!-- 1.000 -->
     <g transform="translate(120.825563 129.741156)rotate(-270)scale(0.1 -0.1)">
      <use xlink:href="#DejaVuSans-49"/>
      <use x="63.623047" xlink:href="#DejaVuSans-46"/>
      <use x="95.410156" xlink:href="#DejaVuSans-48"/>
      <use x="159.033203" xlink:href="#DejaVuSans-48"/>
      <use x="222.65625" xlink:href="#DejaVuSans-48"/>
     </g>
    </g>
   </g>
   <g id="text_30">
    <g clip-path="url(#p7a4aacd6da)">
     <!-- 1.000 -->
     <g transform="translate(263.673563 129.741156)rotate(-270)scale(0.1 -0.1)">
      <use xlink:href="#DejaVuSans-49"/>
      <use x="63.623047" xlink:href="#DejaVuSans-46"/>
      <use x="95.410156" xlink:href="#DejaVuSans-48"/>
      <use x="159.033203" xlink:href="#DejaVuSans-48"/>
      <use x="222.65625" xlink:href="#DejaVuSans-48"/>
     </g>
    </g>
   </g>
   <g id="text_31">
    <g clip-path="url(#p7a4aacd6da)">
     <!-- 2.000 -->
     <g transform="translate(96.822393 158.369281)rotate(-90)scale(0.1 -0.1)">
      <use xlink:href="#DejaVuSans-50"/>
      <use x="63.623047" xlink:href="#DejaVuSans-46"/>
      <use x="95.410156" xlink:href="#DejaVuSans-48"/>
      <use x="159.033203" xlink:href="#DejaVuSans-48"/>
      <use x="222.65625" xlink:href="#DejaVuSans-48"/>
     </g>
    </g>
   </g>
   <g id="text_32">
    <g clip-path="url(#p7a4aacd6da)">
     <!-- 2.000 -->
     <g transform="translate(293.195483 129.741156)rotate(-270)scale(0.1 -0.1)">
      <use xlink:href="#DejaVuSans-50"/>
      <use x="63.623047" xlink:href="#DejaVuSans-46"/>
      <use x="95.410156" xlink:href="#DejaVuSans-48"/>
      <use x="159.033203" xlink:href="#DejaVuSans-48"/>
      <use x="222.65625" xlink:href="#DejaVuSans-48"/>
     </g>
    </g>
   </g>
   <g id="text_33">
    <g clip-path="url(#p7a4aacd6da)">
     <!-- 3.000 -->
     <g transform="translate(68.728057 129.741156)rotate(-270)scale(0.1 -0.1)">
      <use xlink:href="#DejaVuSans-51"/>
      <use x="63.623047" xlink:href="#DejaVuSans-46"/>
      <use x="95.410156" xlink:href="#DejaVuSans-48"/>
      <use x="159.033203" xlink:href="#DejaVuSans-48"/>
      <use x="222.65625" xlink:href="#DejaVuSans-48"/>
     </g>
    </g>
   </g>
   <g id="text_34">
    <g clip-path="url(#p7a4aacd6da)">
     <!-- 3.000 -->
     <g transform="translate(315.771068 129.741156)rotate(-270)scale(0.1 -0.1)">
      <use xlink:href="#DejaVuSans-51"/>
      <use x="63.623047" xlink:href="#DejaVuSans-46"/>
      <use x="95.410156" xlink:href="#DejaVuSans-48"/>
      <use x="159.033203" xlink:href="#DejaVuSans-48"/>
      <use x="222.65625" xlink:href="#DejaVuSans-48"/>
     </g>
    </g>
   </g>
  </g>
  <g id="axes_2">
   <g id="patch_7">
    <path clip-path="url(#p185d47e189)" d="M 355.712938 277.111219 
L 355.712938 243.847219 
L 355.712938 44.263219 
L 355.712938 10.999219 
L 369.018538 10.999219 
L 369.018538 44.263219 
L 369.018538 243.847219 
L 369.018538 277.111219 
z
" style="fill:#ffffff;stroke:#ffffff;stroke-linejoin:miter;stroke-width:0.01;"/>
   </g>
   <g id="QuadMesh_1">
    <path clip-path="url(#p185d47e189)" d="M 355.712938 277.111219 
L 369.018538 277.111219 
L 369.018538 243.847219 
L 355.712938 243.847219 
L 355.712938 277.111219 
" style="fill:#1e5ec4;"/>
    <path clip-path="url(#p185d47e189)" d="M 355.712938 243.847219 
L 369.018538 243.847219 
L 369.018538 210.583219 
L 355.712938 210.583219 
L 355.712938 243.847219 
" style="fill:#00acc4;"/>
    <path clip-path="url(#p185d47e189)" d="M 355.712938 210.583219 
L 369.018538 210.583219 
L 369.018538 177.319219 
L 355.712938 177.319219 
L 355.712938 210.583219 
" style="fill:#41d973;"/>
    <path clip-path="url(#p185d47e189)" d="M 355.712938 177.319219 
L 369.018538 177.319219 
L 369.018538 144.055219 
L 355.712938 144.055219 
L 355.712938 177.319219 
" style="fill:#c1f38d;"/>
    <path clip-path="url(#p185d47e189)" d="M 355.712938 144.055219 
L 369.018538 144.055219 
L 369.018538 110.791219 
L 355.712938 110.791219 
L 355.712938 144.055219 
" style="fill:#ded587;"/>
    <path clip-path="url(#p185d47e189)" d="M 355.712938 110.791219 
L 369.018538 110.791219 
L 369.018538 77.527219 
L 355.712938 77.527219 
L 355.712938 110.791219 
" style="fill:#9e8365;"/>
    <path clip-path="url(#p185d47e189)" d="M 355.712938 77.527219 
L 369.018538 77.527219 
L 369.018538 44.263219 
L 355.712938 44.263219 
L 355.712938 77.527219 
" style="fill:#a18781;"/>
    <path clip-path="url(#p185d47e189)" d="M 355.712938 44.263219 
L 369.018538 44.263219 
L 369.018538 10.999219 
L 355.712938 10.999219 
L 355.712938 44.263219 
" style="fill:#e1d9d7;"/>
   </g>
   <g id="matplotlib.axis_3"/>
   <g id="matplotlib.axis_4">
    <g id="ytick_10">
     <g id="line2d_19">
      <defs>
       <path d="M 0 0 
L 3.5 0 
" id="mcb5b547f68" style="stroke:#000000;stroke-width:0.8;"/>
      </defs>
      <g>
       <use style="stroke:#000000;stroke-width:0.8;" x="369.018538" xlink:href="#mcb5b547f68" y="277.111219"/>
      </g>
     </g>
     <g id="text_35">
      <!-- −4 -->
      <g transform="translate(376.018538 280.910437)scale(0.1 -0.1)">
       <defs>
        <path d="M 37.796875 64.3125 
L 12.890625 25.390625 
L 37.796875 25.390625 
z
M 35.203125 72.90625 
L 47.609375 72.90625 
L 47.609375 25.390625 
L 58.015625 25.390625 
L 58.015625 17.1875 
L 47.609375 17.1875 
L 47.609375 0 
L 37.796875 0 
L 37.796875 17.1875 
L 4.890625 17.1875 
L 4.890625 26.703125 
z
" id="DejaVuSans-52"/>
       </defs>
       <use xlink:href="#DejaVuSans-8722"/>
       <use x="83.789062" xlink:href="#DejaVuSans-52"/>
      </g>
     </g>
    </g>
    <g id="ytick_11">
     <g id="line2d_20">
      <g>
       <use style="stroke:#000000;stroke-width:0.8;" x="369.018538" xlink:href="#mcb5b547f68" y="243.847219"/>
      </g>
     </g>
     <g id="text_36">
      <!-- −3 -->
      <g transform="translate(376.018538 247.646437)scale(0.1 -0.1)">
       <use xlink:href="#DejaVuSans-8722"/>
       <use x="83.789062" xlink:href="#DejaVuSans-51"/>
      </g>
     </g>
    </g>
    <g id="ytick_12">
     <g id="line2d_21">
      <g>
       <use style="stroke:#000000;stroke-width:0.8;" x="369.018538" xlink:href="#mcb5b547f68" y="210.583219"/>
      </g>
     </g>
     <g id="text_37">
      <!-- −2 -->
      <g transform="translate(376.018538 214.382437)scale(0.1 -0.1)">
       <use xlink:href="#DejaVuSans-8722"/>
       <use x="83.789062" xlink:href="#DejaVuSans-50"/>
      </g>
     </g>
    </g>
    <g id="ytick_13">
     <g id="line2d_22">
      <g>
       <use style="stroke:#000000;stroke-width:0.8;" x="369.018538" xlink:href="#mcb5b547f68" y="177.319219"/>
      </g>
     </g>
     <g id="text_38">
      <!-- −1 -->
      <g transform="translate(376.018538 181.118437)scale(0.1 -0.1)">
       <use xlink:href="#DejaVuSans-8722"/>
       <use x="83.789062" xlink:href="#DejaVuSans-49"/>
      </g>
     </g>
    </g>
    <g id="ytick_14">
     <g id="line2d_23">
      <g>
       <use style="stroke:#000000;stroke-width:0.8;" x="369.018538" xlink:href="#mcb5b547f68" y="144.055219"/>
      </g>
     </g>
     <g id="text_39">
      <!-- 0 -->
      <g transform="translate(376.018538 147.854437)scale(0.1 -0.1)">
       <use xlink:href="#DejaVuSans-48"/>
      </g>
     </g>
    </g>
    <g id="ytick_15">
     <g id="line2d_24">
      <g>
       <use style="stroke:#000000;stroke-width:0.8;" x="369.018538" xlink:href="#mcb5b547f68" y="110.791219"/>
      </g>
     </g>
     <g id="text_40">
      <!-- 1 -->
      <g transform="translate(376.018538 114.590437)scale(0.1 -0.1)">
       <use xlink:href="#DejaVuSans-49"/>
      </g>
     </g>
    </g>
    <g id="ytick_16">
     <g id="line2d_25">
      <g>
       <use style="stroke:#000000;stroke-width:0.8;" x="369.018538" xlink:href="#mcb5b547f68" y="77.527219"/>
      </g>
     </g>
     <g id="text_41">
      <!-- 2 -->
      <g transform="translate(376.018538 81.326437)scale(0.1 -0.1)">
       <use xlink:href="#DejaVuSans-50"/>
      </g>
     </g>
    </g>
    <g id="ytick_17">
     <g id="line2d_26">
      <g>
       <use style="stroke:#000000;stroke-width:0.8;" x="369.018538" xlink:href="#mcb5b547f68" y="44.263219"/>
      </g>
     </g>
     <g id="text_42">
      <!-- 3 -->
      <g transform="translate(376.018538 48.062437)scale(0.1 -0.1)">
       <use xlink:href="#DejaVuSans-51"/>
      </g>
     </g>
    </g>
    <g id="ytick_18">
     <g id="line2d_27">
      <g>
       <use style="stroke:#000000;stroke-width:0.8;" x="369.018538" xlink:href="#mcb5b547f68" y="10.999219"/>
      </g>
     </g>
     <g id="text_43">
      <!-- 4 -->
      <g transform="translate(376.018538 14.798437)scale(0.1 -0.1)">
       <use xlink:href="#DejaVuSans-52"/>
      </g>
     </g>
    </g>
    <g id="text_44">
     <!-- temperature -->
     <g transform="translate(402.359163 175.481)rotate(-90)scale(0.1 -0.1)">
      <defs>
       <path d="M 18.3125 70.21875 
L 18.3125 54.6875 
L 36.8125 54.6875 
L 36.8125 47.703125 
L 18.3125 47.703125 
L 18.3125 18.015625 
Q 18.3125 11.328125 20.140625 9.421875 
Q 21.96875 7.515625 27.59375 7.515625 
L 36.8125 7.515625 
L 36.8125 0 
L 27.59375 0 
Q 17.1875 0 13.234375 3.875 
Q 9.28125 7.765625 9.28125 18.015625 
L 9.28125 47.703125 
L 2.6875 47.703125 
L 2.6875 54.6875 
L 9.28125 54.6875 
L 9.28125 70.21875 
z
" id="DejaVuSans-116"/>
       <path d="M 56.203125 29.59375 
L 56.203125 25.203125 
L 14.890625 25.203125 
Q 15.484375 15.921875 20.484375 11.0625 
Q 25.484375 6.203125 34.421875 6.203125 
Q 39.59375 6.203125 44.453125 7.46875 
Q 49.3125 8.734375 54.109375 11.28125 
L 54.109375 2.78125 
Q 49.265625 0.734375 44.1875 -0.34375 
Q 39.109375 -1.421875 33.890625 -1.421875 
Q 20.796875 -1.421875 13.15625 6.1875 
Q 5.515625 13.8125 5.515625 26.8125 
Q 5.515625 40.234375 12.765625 48.109375 
Q 20.015625 56 32.328125 56 
Q 43.359375 56 49.78125 48.890625 
Q 56.203125 41.796875 56.203125 29.59375 
z
M 47.21875 32.234375 
Q 47.125 39.59375 43.09375 43.984375 
Q 39.0625 48.390625 32.421875 48.390625 
Q 24.90625 48.390625 20.390625 44.140625 
Q 15.875 39.890625 15.1875 32.171875 
z
" id="DejaVuSans-101"/>
       <path d="M 52 44.1875 
Q 55.375 50.25 60.0625 53.125 
Q 64.75 56 71.09375 56 
Q 79.640625 56 84.28125 50.015625 
Q 88.921875 44.046875 88.921875 33.015625 
L 88.921875 0 
L 79.890625 0 
L 79.890625 32.71875 
Q 79.890625 40.578125 77.09375 44.375 
Q 74.3125 48.1875 68.609375 48.1875 
Q 61.625 48.1875 57.5625 43.546875 
Q 53.515625 38.921875 53.515625 30.90625 
L 53.515625 0 
L 44.484375 0 
L 44.484375 32.71875 
Q 44.484375 40.625 41.703125 44.40625 
Q 38.921875 48.1875 33.109375 48.1875 
Q 26.21875 48.1875 22.15625 43.53125 
Q 18.109375 38.875 18.109375 30.90625 
L 18.109375 0 
L 9.078125 0 
L 9.078125 54.6875 
L 18.109375 54.6875 
L 18.109375 46.1875 
Q 21.1875 51.21875 25.484375 53.609375 
Q 29.78125 56 35.6875 56 
Q 41.65625 56 45.828125 52.96875 
Q 50 49.953125 52 44.1875 
z
" id="DejaVuSans-109"/>
       <path d="M 18.109375 8.203125 
L 18.109375 -20.796875 
L 9.078125 -20.796875 
L 9.078125 54.6875 
L 18.109375 54.6875 
L 18.109375 46.390625 
Q 20.953125 51.265625 25.265625 53.625 
Q 29.59375 56 35.59375 56 
Q 45.5625 56 51.78125 48.09375 
Q 58.015625 40.1875 58.015625 27.296875 
Q 58.015625 14.40625 51.78125 6.484375 
Q 45.5625 -1.421875 35.59375 -1.421875 
Q 29.59375 -1.421875 25.265625 0.953125 
Q 20.953125 3.328125 18.109375 8.203125 
z
M 48.6875 27.296875 
Q 48.6875 37.203125 44.609375 42.84375 
Q 40.53125 48.484375 33.40625 48.484375 
Q 26.265625 48.484375 22.1875 42.84375 
Q 18.109375 37.203125 18.109375 27.296875 
Q 18.109375 17.390625 22.1875 11.75 
Q 26.265625 6.109375 33.40625 6.109375 
Q 40.53125 6.109375 44.609375 11.75 
Q 48.6875 17.390625 48.6875 27.296875 
z
" id="DejaVuSans-112"/>
       <path d="M 41.109375 46.296875 
Q 39.59375 47.171875 37.8125 47.578125 
Q 36.03125 48 33.890625 48 
Q 26.265625 48 22.1875 43.046875 
Q 18.109375 38.09375 18.109375 28.8125 
L 18.109375 0 
L 9.078125 0 
L 9.078125 54.6875 
L 18.109375 54.6875 
L 18.109375 46.1875 
Q 20.953125 51.171875 25.484375 53.578125 
Q 30.03125 56 36.53125 56 
Q 37.453125 56 38.578125 55.875 
Q 39.703125 55.765625 41.0625 55.515625 
z
" id="DejaVuSans-114"/>
       <path d="M 34.28125 27.484375 
Q 23.390625 27.484375 19.1875 25 
Q 14.984375 22.515625 14.984375 16.5 
Q 14.984375 11.71875 18.140625 8.90625 
Q 21.296875 6.109375 26.703125 6.109375 
Q 34.1875 6.109375 38.703125 11.40625 
Q 43.21875 16.703125 43.21875 25.484375 
L 43.21875 27.484375 
z
M 52.203125 31.203125 
L 52.203125 0 
L 43.21875 0 
L 43.21875 8.296875 
Q 40.140625 3.328125 35.546875 0.953125 
Q 30.953125 -1.421875 24.3125 -1.421875 
Q 15.921875 -1.421875 10.953125 3.296875 
Q 6 8.015625 6 15.921875 
Q 6 25.140625 12.171875 29.828125 
Q 18.359375 34.515625 30.609375 34.515625 
L 43.21875 34.515625 
L 43.21875 35.40625 
Q 43.21875 41.609375 39.140625 45 
Q 35.0625 48.390625 27.6875 48.390625 
Q 23 48.390625 18.546875 47.265625 
Q 14.109375 46.140625 10.015625 43.890625 
L 10.015625 52.203125 
Q 14.9375 54.109375 19.578125 55.046875 
Q 24.21875 56 28.609375 56 
Q 40.484375 56 46.34375 49.84375 
Q 52.203125 43.703125 52.203125 31.203125 
z
" id="DejaVuSans-97"/>
       <path d="M 8.5 21.578125 
L 8.5 54.6875 
L 17.484375 54.6875 
L 17.484375 21.921875 
Q 17.484375 14.15625 20.5 10.265625 
Q 23.53125 6.390625 29.59375 6.390625 
Q 36.859375 6.390625 41.078125 11.03125 
Q 45.3125 15.671875 45.3125 23.6875 
L 45.3125 54.6875 
L 54.296875 54.6875 
L 54.296875 0 
L 45.3125 0 
L 45.3125 8.40625 
Q 42.046875 3.421875 37.71875 1 
Q 33.40625 -1.421875 27.6875 -1.421875 
Q 18.265625 -1.421875 13.375 4.4375 
Q 8.5 10.296875 8.5 21.578125 
z
M 31.109375 56 
z
" id="DejaVuSans-117"/>
      </defs>
      <use xlink:href="#DejaVuSans-116"/>
      <use x="39.208984" xlink:href="#DejaVuSans-101"/>
      <use x="100.732422" xlink:href="#DejaVuSans-109"/>
      <use x="198.144531" xlink:href="#DejaVuSans-112"/>
      <use x="261.621094" xlink:href="#DejaVuSans-101"/>
      <use x="323.144531" xlink:href="#DejaVuSans-114"/>
      <use x="364.257812" xlink:href="#DejaVuSans-97"/>
      <use x="425.537109" xlink:href="#DejaVuSans-116"/>
      <use x="464.746094" xlink:href="#DejaVuSans-117"/>
      <use x="528.125" xlink:href="#DejaVuSans-114"/>
      <use x="566.988281" xlink:href="#DejaVuSans-101"/>
     </g>
    </g>
   </g>
   <g id="patch_8">
    <path d="M 355.712938 277.111219 
L 355.712938 243.847219 
L 355.712938 44.263219 
L 355.712938 10.999219 
L 369.018538 10.999219 
L 369.018538 44.263219 
L 369.018538 243.847219 
L 369.018538 277.111219 
z
" style="fill:none;stroke:#000000;stroke-linejoin:miter;stroke-width:0.8;"/>
   </g>
  </g>
 </g>
 <defs>
  <clipPath id="p7a4aacd6da">
   <rect height="266.112" width="285.696" x="52.160938" y="10.999219"/>
  </clipPath>
  <clipPath id="p185d47e189">
   <rect height="266.112" width="13.3056" x="355.712938" y="10.999219"/>
  </clipPath>
 </defs>
</svg>
