<?xml version="1.0" encoding="utf-8" standalone="no"?>
<!DOCTYPE svg PUBLIC "-//W3C//DTD SVG 1.1//EN"
  "http://www.w3.org/Graphics/SVG/1.1/DTD/svg11.dtd">
<svg xmlns:xlink="http://www.w3.org/1999/xlink" width="338.714225pt" height="286.751869pt" viewBox="0 0 338.714225 286.751869" xmlns="http://www.w3.org/2000/svg" version="1.1">
 <metadata>
  <rdf:RDF xmlns:dc="http://purl.org/dc/elements/1.1/" xmlns:cc="http://creativecommons.org/ns#" xmlns:rdf="http://www.w3.org/1999/02/22-rdf-syntax-ns#">
   <cc:Work>
    <dc:type rdf:resource="http://purl.org/dc/dcmitype/StillImage"/>
    <dc:date>2023-10-09T17:08:26.900247</dc:date>
    <dc:format>image/svg+xml</dc:format>
    <dc:creator>
     <cc:Agent>
      <dc:title>Matplotlib v3.6.3, https://matplotlib.org/</dc:title>
     </cc:Agent>
    </dc:creator>
   </cc:Work>
  </rdf:RDF>
 </metadata>
 <defs>
  <style type="text/css">*{stroke-linejoin: round; stroke-linecap: butt}</style>
 </defs>
 <g id="figure_1">
  <g id="patch_1">
   <path d="M 0 286.751869 
L 338.714225 286.751869 
L 338.714225 0 
L 0 0 
z
" style="fill: #ffffff"/>
  </g>
  <g id="patch_2">
   <path d="M 7.2 273.312 
L 273.312 273.312 
L 273.312 7.2 
L 7.2 7.2 
z
" style="fill: #ffffff"/>
  </g>
  <g id="pane3d_1">
   <g id="patch_3">
    <path d="M 27.293291 207.697309 
L 115.172164 134.035495 
L 113.950564 27.801991 
L 21.866234 95.000941 
" style="fill: #f2f2f2; opacity: 0.5; stroke: #f2f2f2; stroke-linejoin: miter"/>
   </g>
  </g>
  <g id="pane3d_2">
   <g id="patch_4">
    <path d="M 115.172164 134.035495 
L 256.186401 175.022766 
L 261.218702 65.130171 
L 113.950564 27.801991 
" style="fill: #e6e6e6; opacity: 0.5; stroke: #e6e6e6; stroke-linejoin: miter"/>
   </g>
  </g>
  <g id="pane3d_3">
   <g id="patch_5">
    <path d="M 27.293291 207.697309 
L 176.775269 256.518123 
L 256.186401 175.022766 
L 115.172164 134.035495 
" style="fill: #ececec; opacity: 0.5; stroke: #ececec; stroke-linejoin: miter"/>
   </g>
  </g>
  <g id="axis3d_1">
   <g id="line2d_1">
    <path d="M 27.293291 207.697309 
L 176.775269 256.518123 
" style="fill: none; stroke: #000000; stroke-width: 0.8; stroke-linecap: square"/>
   </g>
   <g id="text_1">
    <!-- x -->
    <g transform="translate(80.813053 269.49559) scale(0.1 -0.1)">
     <defs>
      <path id="DejaVuSans-78" d="M 3513 3500 
L 2247 1797 
L 3578 0 
L 2900 0 
L 1881 1375 
L 863 0 
L 184 0 
L 1544 1831 
L 300 3500 
L 978 3500 
L 1906 2253 
L 2834 3500 
L 3513 3500 
z
" transform="scale(0.015625)"/>
     </defs>
     <use xlink:href="#DejaVuSans-78"/>
    </g>
   </g>
   <g id="Line3DCollection_1">
    <path d="M 36.346704 210.654154 
L 123.748219 136.528215 
L 122.88922 30.06768 
" style="fill: none; stroke: #b0b0b0; stroke-width: 0.8"/>
    <path d="M 67.842964 220.940832 
L 153.548008 145.189838 
L 153.966802 37.944941 
" style="fill: none; stroke: #b0b0b0; stroke-width: 0.8"/>
    <path d="M 100.063881 231.464184 
L 183.976048 154.034068 
L 185.728185 45.995526 
" style="fill: none; stroke: #b0b0b0; stroke-width: 0.8"/>
    <path d="M 133.034756 242.232471 
L 215.052419 163.066742 
L 218.196189 54.225218 
" style="fill: none; stroke: #b0b0b0; stroke-width: 0.8"/>
    <path d="M 166.782081 253.254347 
L 246.798063 172.293947 
L 251.394659 62.640062 
" style="fill: none; stroke: #b0b0b0; stroke-width: 0.8"/>
   </g>
   <g id="xtick_1">
    <g id="line2d_2">
     <path d="M 37.107792 210.008669 
L 34.821263 211.947892 
" style="fill: none; stroke: #000000; stroke-width: 0.8; stroke-linecap: square"/>
    </g>
    <g id="text_2">
     <!-- −2 -->
     <g transform="translate(21.446561 233.963303) scale(0.1 -0.1)">
      <defs>
       <path id="DejaVuSans-2212" d="M 678 2272 
L 4684 2272 
L 4684 1741 
L 678 1741 
L 678 2272 
z
" transform="scale(0.015625)"/>
       <path id="DejaVuSans-32" d="M 1228 531 
L 3431 531 
L 3431 0 
L 469 0 
L 469 531 
Q 828 903 1448 1529 
Q 2069 2156 2228 2338 
Q 2531 2678 2651 2914 
Q 2772 3150 2772 3378 
Q 2772 3750 2511 3984 
Q 2250 4219 1831 4219 
Q 1534 4219 1204 4116 
Q 875 4013 500 3803 
L 500 4441 
Q 881 4594 1212 4672 
Q 1544 4750 1819 4750 
Q 2544 4750 2975 4387 
Q 3406 4025 3406 3419 
Q 3406 3131 3298 2873 
Q 3191 2616 2906 2266 
Q 2828 2175 2409 1742 
Q 1991 1309 1228 531 
z
" transform="scale(0.015625)"/>
      </defs>
      <use xlink:href="#DejaVuSans-2212"/>
      <use xlink:href="#DejaVuSans-32" x="83.789062"/>
     </g>
    </g>
   </g>
   <g id="xtick_2">
    <g id="line2d_3">
     <path d="M 68.589968 220.280587 
L 66.345714 222.264187 
" style="fill: none; stroke: #000000; stroke-width: 0.8; stroke-linecap: square"/>
    </g>
    <g id="text_3">
     <!-- −1 -->
     <g transform="translate(52.975287 244.468006) scale(0.1 -0.1)">
      <defs>
       <path id="DejaVuSans-31" d="M 794 531 
L 1825 531 
L 1825 4091 
L 703 3866 
L 703 4441 
L 1819 4666 
L 2450 4666 
L 2450 531 
L 3481 531 
L 3481 0 
L 794 0 
L 794 531 
z
" transform="scale(0.015625)"/>
      </defs>
      <use xlink:href="#DejaVuSans-2212"/>
      <use xlink:href="#DejaVuSans-31" x="83.789062"/>
     </g>
    </g>
   </g>
   <g id="xtick_3">
    <g id="line2d_4">
     <path d="M 100.79595 230.788666 
L 98.596531 232.818184 
" style="fill: none; stroke: #000000; stroke-width: 0.8; stroke-linecap: square"/>
    </g>
    <g id="text_4">
     <!-- 0 -->
     <g transform="translate(89.42202 255.215318) scale(0.1 -0.1)">
      <defs>
       <path id="DejaVuSans-30" d="M 2034 4250 
Q 1547 4250 1301 3770 
Q 1056 3291 1056 2328 
Q 1056 1369 1301 889 
Q 1547 409 2034 409 
Q 2525 409 2770 889 
Q 3016 1369 3016 2328 
Q 3016 3291 2770 3770 
Q 2525 4250 2034 4250 
z
M 2034 4750 
Q 2819 4750 3233 4129 
Q 3647 3509 3647 2328 
Q 3647 1150 3233 529 
Q 2819 -91 2034 -91 
Q 1250 -91 836 529 
Q 422 1150 422 2328 
Q 422 3509 836 4129 
Q 1250 4750 2034 4750 
z
" transform="scale(0.015625)"/>
      </defs>
      <use xlink:href="#DejaVuSans-30"/>
     </g>
    </g>
   </g>
   <g id="xtick_4">
    <g id="line2d_5">
     <path d="M 133.750987 241.541145 
L 131.599114 243.618194 
" style="fill: none; stroke: #000000; stroke-width: 0.8; stroke-linecap: square"/>
    </g>
    <g id="text_5">
     <!-- 1 -->
     <g transform="translate(122.432593 266.213741) scale(0.1 -0.1)">
      <use xlink:href="#DejaVuSans-31"/>
     </g>
    </g>
   </g>
   <g id="xtick_5">
    <g id="line2d_6">
     <path d="M 167.481522 252.546651 
L 165.380057 254.67292 
" style="fill: none; stroke: #000000; stroke-width: 0.8; stroke-linecap: square"/>
    </g>
    <g id="text_6">
     <!-- 2 -->
     <g transform="translate(156.223577 277.472181) scale(0.1 -0.1)">
      <use xlink:href="#DejaVuSans-32"/>
     </g>
    </g>
   </g>
  </g>
  <g id="axis3d_2">
   <g id="line2d_7">
    <path d="M 256.186401 175.022766 
L 176.775269 256.518123 
" style="fill: none; stroke: #000000; stroke-width: 0.8; stroke-linecap: square"/>
   </g>
   <g id="text_7">
    <!-- y -->
    <g transform="translate(242.269407 244.716697) scale(0.1 -0.1)">
     <defs>
      <path id="DejaVuSans-79" d="M 2059 -325 
Q 1816 -950 1584 -1140 
Q 1353 -1331 966 -1331 
L 506 -1331 
L 506 -850 
L 844 -850 
Q 1081 -850 1212 -737 
Q 1344 -625 1503 -206 
L 1606 56 
L 191 3500 
L 800 3500 
L 1894 763 
L 2988 3500 
L 3597 3500 
L 2059 -325 
z
" transform="scale(0.015625)"/>
     </defs>
     <use xlink:href="#DejaVuSans-79"/>
    </g>
   </g>
   <g id="Line3DCollection_2">
    <path d="M 28.234093 90.353967 
L 33.348888 202.621387 
L 182.269905 250.879275 
" style="fill: none; stroke: #b0b0b0; stroke-width: 0.8"/>
    <path d="M 49.508445 74.828914 
L 53.603047 185.64395 
L 200.623502 232.043969 
" style="fill: none; stroke: #b0b0b0; stroke-width: 0.8"/>
    <path d="M 69.956779 59.906651 
L 73.104295 169.297617 
L 218.259547 213.945048 
" style="fill: none; stroke: #b0b0b0; stroke-width: 0.8"/>
    <path d="M 89.626286 45.552741 
L 91.893848 153.547842 
L 235.219312 196.540157 
" style="fill: none; stroke: #b0b0b0; stroke-width: 0.8"/>
    <path d="M 108.56063 31.735319 
L 110.009967 138.362551 
L 251.540965 179.790126 
" style="fill: none; stroke: #b0b0b0; stroke-width: 0.8"/>
   </g>
   <g id="xtick_6">
    <g id="line2d_8">
     <path d="M 181.014943 250.472604 
L 184.783074 251.693668 
" style="fill: none; stroke: #000000; stroke-width: 0.8; stroke-linecap: square"/>
    </g>
    <g id="text_8">
     <!-- −2 -->
     <g transform="translate(187.779445 271.901005) scale(0.1 -0.1)">
      <use xlink:href="#DejaVuSans-2212"/>
      <use xlink:href="#DejaVuSans-32" x="83.789062"/>
     </g>
    </g>
   </g>
   <g id="xtick_7">
    <g id="line2d_9">
     <path d="M 199.385808 231.653349 
L 203.102028 232.826198 
" style="fill: none; stroke: #000000; stroke-width: 0.8; stroke-linecap: square"/>
    </g>
    <g id="text_9">
     <!-- −1 -->
     <g transform="translate(205.886851 252.786858) scale(0.1 -0.1)">
      <use xlink:href="#DejaVuSans-2212"/>
      <use xlink:href="#DejaVuSans-31" x="83.789062"/>
     </g>
    </g>
   </g>
   <g id="xtick_8">
    <g id="line2d_10">
     <path d="M 217.038742 213.569548 
L 220.704191 214.696982 
" style="fill: none; stroke: #000000; stroke-width: 0.8; stroke-linecap: square"/>
    </g>
    <g id="text_10">
     <!-- 0 -->
     <g transform="translate(227.475766 234.420429) scale(0.1 -0.1)">
      <use xlink:href="#DejaVuSans-30"/>
     </g>
    </g>
   </g>
   <g id="xtick_9">
    <g id="line2d_11">
     <path d="M 234.015023 196.178915 
L 237.630825 197.263522 
" style="fill: none; stroke: #000000; stroke-width: 0.8; stroke-linecap: square"/>
    </g>
    <g id="text_11">
     <!-- 1 -->
     <g transform="translate(244.207268 216.758684) scale(0.1 -0.1)">
      <use xlink:href="#DejaVuSans-31"/>
     </g>
    </g>
   </g>
   <g id="xtick_10">
    <g id="line2d_12">
     <path d="M 250.352825 179.442346 
L 253.920086 180.486519 
" style="fill: none; stroke: #000000; stroke-width: 0.8; stroke-linecap: square"/>
    </g>
    <g id="text_12">
     <!-- 2 -->
     <g transform="translate(260.308898 199.761832) scale(0.1 -0.1)">
      <use xlink:href="#DejaVuSans-32"/>
     </g>
    </g>
   </g>
  </g>
  <g id="axis3d_3">
   <g id="line2d_13">
    <path d="M 256.186401 175.022766 
L 261.218702 65.130171 
" style="fill: none; stroke: #000000; stroke-width: 0.8; stroke-linecap: square"/>
   </g>
   <g id="text_13">
    <!-- z -->
    <g transform="translate(296.399011 118.630279) scale(0.1 -0.1)">
     <defs>
      <path id="DejaVuSans-7a" d="M 353 3500 
L 3084 3500 
L 3084 2975 
L 922 459 
L 3084 459 
L 3084 0 
L 275 0 
L 275 525 
L 2438 3041 
L 353 3041 
L 353 3500 
z
" transform="scale(0.015625)"/>
     </defs>
     <use xlink:href="#DejaVuSans-7a"/>
    </g>
   </g>
   <g id="Line3DCollection_3">
    <path d="M 256.282814 172.917346 
L 115.148711 131.99596 
L 27.189487 205.541739 
" style="fill: none; stroke: #b0b0b0; stroke-width: 0.8"/>
    <path d="M 256.864787 160.208534 
L 115.007184 119.688355 
L 26.562755 192.527259 
" style="fill: none; stroke: #b0b0b0; stroke-width: 0.8"/>
    <path d="M 257.452817 147.36747 
L 114.864254 107.258779 
L 25.929254 179.372192 
" style="fill: none; stroke: #b0b0b0; stroke-width: 0.8"/>
    <path d="M 258.046998 134.392076 
L 114.7199 94.705409 
L 25.288872 166.074248 
" style="fill: none; stroke: #b0b0b0; stroke-width: 0.8"/>
    <path d="M 258.647427 121.280235 
L 114.574101 82.026387 
L 24.641497 152.631085 
" style="fill: none; stroke: #b0b0b0; stroke-width: 0.8"/>
    <path d="M 259.254204 108.029783 
L 114.426836 69.219817 
L 23.987014 139.040313 
" style="fill: none; stroke: #b0b0b0; stroke-width: 0.8"/>
    <path d="M 259.867429 94.63851 
L 114.278082 56.283764 
L 23.325304 125.299486 
" style="fill: none; stroke: #b0b0b0; stroke-width: 0.8"/>
    <path d="M 260.487206 81.10416 
L 114.127816 43.216254 
L 22.656248 111.406106 
" style="fill: none; stroke: #b0b0b0; stroke-width: 0.8"/>
    <path d="M 261.113641 67.424426 
L 113.976015 30.015274 
L 21.979723 97.357618 
" style="fill: none; stroke: #b0b0b0; stroke-width: 0.8"/>
   </g>
   <g id="xtick_11">
    <g id="line2d_14">
     <path d="M 255.098262 172.573889 
L 258.654736 173.605077 
" style="fill: none; stroke: #000000; stroke-width: 0.8; stroke-linecap: square"/>
    </g>
    <g id="text_14">
     <!-- 0 -->
     <g transform="translate(271.365529 177.914875) scale(0.1 -0.1)">
      <use xlink:href="#DejaVuSans-30"/>
     </g>
    </g>
   </g>
   <g id="xtick_12">
    <g id="line2d_15">
     <path d="M 255.673875 159.868362 
L 259.249462 160.889692 
" style="fill: none; stroke: #000000; stroke-width: 0.8; stroke-linecap: square"/>
    </g>
    <g id="text_15">
     <!-- 1 -->
     <g transform="translate(272.040001 165.230974) scale(0.1 -0.1)">
      <use xlink:href="#DejaVuSans-31"/>
     </g>
    </g>
   </g>
   <g id="xtick_13">
    <g id="line2d_16">
     <path d="M 256.255475 147.03067 
L 259.850381 148.04188 
" style="fill: none; stroke: #000000; stroke-width: 0.8; stroke-linecap: square"/>
    </g>
    <g id="text_16">
     <!-- 2 -->
     <g transform="translate(272.721471 152.41548) scale(0.1 -0.1)">
      <use xlink:href="#DejaVuSans-32"/>
     </g>
    </g>
   </g>
   <g id="xtick_14">
    <g id="line2d_17">
     <path d="M 256.843157 134.058738 
L 260.457591 135.059559 
" style="fill: none; stroke: #000000; stroke-width: 0.8; stroke-linecap: square"/>
    </g>
    <g id="text_17">
     <!-- 3 -->
     <g transform="translate(273.410048 139.466332) scale(0.1 -0.1)">
      <defs>
       <path id="DejaVuSans-33" d="M 2597 2516 
Q 3050 2419 3304 2112 
Q 3559 1806 3559 1356 
Q 3559 666 3084 287 
Q 2609 -91 1734 -91 
Q 1441 -91 1130 -33 
Q 819 25 488 141 
L 488 750 
Q 750 597 1062 519 
Q 1375 441 1716 441 
Q 2309 441 2620 675 
Q 2931 909 2931 1356 
Q 2931 1769 2642 2001 
Q 2353 2234 1838 2234 
L 1294 2234 
L 1294 2753 
L 1863 2753 
Q 2328 2753 2575 2939 
Q 2822 3125 2822 3475 
Q 2822 3834 2567 4026 
Q 2313 4219 1838 4219 
Q 1578 4219 1281 4162 
Q 984 4106 628 3988 
L 628 4550 
Q 988 4650 1302 4700 
Q 1616 4750 1894 4750 
Q 2613 4750 3031 4423 
Q 3450 4097 3450 3541 
Q 3450 3153 3228 2886 
Q 3006 2619 2597 2516 
z
" transform="scale(0.015625)"/>
      </defs>
      <use xlink:href="#DejaVuSans-33"/>
     </g>
    </g>
   </g>
   <g id="xtick_15">
    <g id="line2d_18">
     <path d="M 257.437016 120.95045 
L 261.071191 121.940608 
" style="fill: none; stroke: #000000; stroke-width: 0.8; stroke-linecap: square"/>
    </g>
    <g id="text_18">
     <!-- 4 -->
     <g transform="translate(274.105844 126.381431) scale(0.1 -0.1)">
      <defs>
       <path id="DejaVuSans-34" d="M 2419 4116 
L 825 1625 
L 2419 1625 
L 2419 4116 
z
M 2253 4666 
L 3047 4666 
L 3047 1625 
L 3713 1625 
L 3713 1100 
L 3047 1100 
L 3047 0 
L 2419 0 
L 2419 1100 
L 313 1100 
L 313 1709 
L 2253 4666 
z
" transform="scale(0.015625)"/>
      </defs>
      <use xlink:href="#DejaVuSans-34"/>
     </g>
    </g>
   </g>
   <g id="xtick_16">
    <g id="line2d_19">
     <path d="M 258.03715 107.703645 
L 261.691284 108.682857 
" style="fill: none; stroke: #000000; stroke-width: 0.8; stroke-linecap: square"/>
    </g>
    <g id="text_19">
     <!-- 5 -->
     <g transform="translate(274.808973 113.158629) scale(0.1 -0.1)">
      <defs>
       <path id="DejaVuSans-35" d="M 691 4666 
L 3169 4666 
L 3169 4134 
L 1269 4134 
L 1269 2991 
Q 1406 3038 1543 3061 
Q 1681 3084 1819 3084 
Q 2600 3084 3056 2656 
Q 3513 2228 3513 1497 
Q 3513 744 3044 326 
Q 2575 -91 1722 -91 
Q 1428 -91 1123 -41 
Q 819 9 494 109 
L 494 744 
Q 775 591 1075 516 
Q 1375 441 1709 441 
Q 2250 441 2565 725 
Q 2881 1009 2881 1497 
Q 2881 1984 2565 2268 
Q 2250 2553 1709 2553 
Q 1456 2553 1204 2497 
Q 953 2441 691 2322 
L 691 4666 
z
" transform="scale(0.015625)"/>
      </defs>
      <use xlink:href="#DejaVuSans-35"/>
     </g>
    </g>
   </g>
   <g id="xtick_17">
    <g id="line2d_20">
     <path d="M 258.64366 94.316115 
L 262.317972 95.284093 
" style="fill: none; stroke: #000000; stroke-width: 0.8; stroke-linecap: square"/>
    </g>
    <g id="text_20">
     <!-- 6 -->
     <g transform="translate(275.519551 99.795735) scale(0.1 -0.1)">
      <defs>
       <path id="DejaVuSans-36" d="M 2113 2584 
Q 1688 2584 1439 2293 
Q 1191 2003 1191 1497 
Q 1191 994 1439 701 
Q 1688 409 2113 409 
Q 2538 409 2786 701 
Q 3034 994 3034 1497 
Q 3034 2003 2786 2293 
Q 2538 2584 2113 2584 
z
M 3366 4563 
L 3366 3988 
Q 3128 4100 2886 4159 
Q 2644 4219 2406 4219 
Q 1781 4219 1451 3797 
Q 1122 3375 1075 2522 
Q 1259 2794 1537 2939 
Q 1816 3084 2150 3084 
Q 2853 3084 3261 2657 
Q 3669 2231 3669 1497 
Q 3669 778 3244 343 
Q 2819 -91 2113 -91 
Q 1303 -91 875 529 
Q 447 1150 447 2328 
Q 447 3434 972 4092 
Q 1497 4750 2381 4750 
Q 2619 4750 2861 4703 
Q 3103 4656 3366 4563 
z
" transform="scale(0.015625)"/>
      </defs>
      <use xlink:href="#DejaVuSans-36"/>
     </g>
    </g>
   </g>
   <g id="xtick_18">
    <g id="line2d_21">
     <path d="M 259.256648 80.785606 
L 262.951362 81.742053 
" style="fill: none; stroke: #000000; stroke-width: 0.8; stroke-linecap: square"/>
    </g>
    <g id="text_21">
     <!-- 7 -->
     <g transform="translate(276.237697 86.290512) scale(0.1 -0.1)">
      <defs>
       <path id="DejaVuSans-37" d="M 525 4666 
L 3525 4666 
L 3525 4397 
L 1831 0 
L 1172 0 
L 2766 4134 
L 525 4134 
L 525 4666 
z
" transform="scale(0.015625)"/>
      </defs>
      <use xlink:href="#DejaVuSans-37"/>
     </g>
    </g>
   </g>
   <g id="xtick_19">
    <g id="line2d_22">
     <path d="M 259.876217 67.109816 
L 263.591561 68.054427 
" style="fill: none; stroke: #000000; stroke-width: 0.8; stroke-linecap: square"/>
    </g>
    <g id="text_22">
     <!-- 8 -->
     <g transform="translate(276.963534 72.640671) scale(0.1 -0.1)">
      <defs>
       <path id="DejaVuSans-38" d="M 2034 2216 
Q 1584 2216 1326 1975 
Q 1069 1734 1069 1313 
Q 1069 891 1326 650 
Q 1584 409 2034 409 
Q 2484 409 2743 651 
Q 3003 894 3003 1313 
Q 3003 1734 2745 1975 
Q 2488 2216 2034 2216 
z
M 1403 2484 
Q 997 2584 770 2862 
Q 544 3141 544 3541 
Q 544 4100 942 4425 
Q 1341 4750 2034 4750 
Q 2731 4750 3128 4425 
Q 3525 4100 3525 3541 
Q 3525 3141 3298 2862 
Q 3072 2584 2669 2484 
Q 3125 2378 3379 2068 
Q 3634 1759 3634 1313 
Q 3634 634 3220 271 
Q 2806 -91 2034 -91 
Q 1263 -91 848 271 
Q 434 634 434 1313 
Q 434 1759 690 2068 
Q 947 2378 1403 2484 
z
M 1172 3481 
Q 1172 3119 1398 2916 
Q 1625 2713 2034 2713 
Q 2441 2713 2670 2916 
Q 2900 3119 2900 3481 
Q 2900 3844 2670 4047 
Q 2441 4250 2034 4250 
Q 1625 4250 1398 4047 
Q 1172 3844 1172 3481 
z
" transform="scale(0.015625)"/>
      </defs>
      <use xlink:href="#DejaVuSans-38"/>
     </g>
    </g>
   </g>
  </g>
  <g id="axes_1">
   <g id="Poly3DCollection_1">
    <path d="M 124.192343 93.57839 
L 139.701779 114.067281 
L 148.642821 83.978492 
L 133.148003 63.465843 
z
" clip-path="url(#p3d7970c5cf)" style="fill: #e5d8bd"/>
    <path d="M 139.701779 114.067281 
L 155.208477 128.109463 
L 164.157852 97.969447 
L 148.642821 83.978492 
z
" clip-path="url(#p3d7970c5cf)" style="fill: #ffffcc"/>
    <path d="M 115.156721 117.264097 
L 130.720794 137.78847 
L 139.701779 114.067281 
L 124.192343 93.57839 
z
" clip-path="url(#p3d7970c5cf)" style="fill: #fed9a6"/>
    <path d="M 130.720794 137.78847 
L 146.259016 151.908386 
L 155.208477 128.109463 
L 139.701779 114.067281 
z
" clip-path="url(#p3d7970c5cf)" style="fill: #decbe4"/>
    <path d="M 108.560289 66.464469 
L 124.192343 93.57839 
L 133.148003 63.465843 
L 117.553742 36.252826 
z
" clip-path="url(#p3d7970c5cf)" style="fill: #f2f2f2"/>
    <path d="M 155.208477 128.109463 
L 170.832404 135.783681 
L 179.813189 105.516682 
L 164.157852 97.969447 
z
" clip-path="url(#p3d7970c5cf)" style="fill: #fed9a6"/>
    <path d="M 99.446066 90.156278 
L 115.156721 117.264097 
L 124.192343 93.57839 
L 108.560289 66.464469 
z
" clip-path="url(#p3d7970c5cf)" style="fill: #e5d8bd"/>
    <path d="M 146.259016 151.908386 
L 161.891842 159.703621 
L 170.832404 135.783681 
L 155.208477 128.109463 
z
" clip-path="url(#p3d7970c5cf)" style="fill: #ccebc5"/>
    <path d="M 105.970254 134.6502 
L 121.629835 155.269961 
L 130.720794 137.78847 
L 115.156721 117.264097 
z
" clip-path="url(#p3d7970c5cf)" style="fill: #decbe4"/>
    <path d="M 121.629835 155.269961 
L 137.239925 169.495155 
L 146.259016 151.908386 
L 130.720794 137.78847 
z
" clip-path="url(#p3d7970c5cf)" style="fill: #b3cde3"/>
    <path d="M 90.138961 107.455177 
L 105.970254 134.6502 
L 115.156721 117.264097 
L 99.446066 90.156278 
z
" clip-path="url(#p3d7970c5cf)" style="fill: #ffffcc"/>
    <path d="M 170.832404 135.783681 
L 186.696719 137.070376 
L 195.732482 106.598712 
L 179.813189 105.516682 
z
" clip-path="url(#p3d7970c5cf)" style="fill: #fed9a6"/>
    <path d="M 137.239925 169.495155 
L 152.922095 177.40687 
L 161.891842 159.703621 
L 146.259016 151.908386 
z
" clip-path="url(#p3d7970c5cf)" style="fill: #fbb4ae"/>
    <path d="M 161.891842 159.703621 
L 177.742581 161.156045 
L 186.696719 137.070376 
L 170.832404 135.783681 
z
" clip-path="url(#p3d7970c5cf)" style="fill: #ccebc5"/>
    <path d="M 96.558486 145.767455 
L 112.355955 166.544226 
L 121.629835 155.269961 
L 105.970254 134.6502 
z
" clip-path="url(#p3d7970c5cf)" style="fill: #ccebc5"/>
    <path d="M 112.355955 166.544226 
L 128.079379 180.903579 
L 137.239925 169.495155 
L 121.629835 155.269961 
z
" clip-path="url(#p3d7970c5cf)" style="fill: #fbb4ae"/>
    <path d="M 152.922095 177.40687 
L 168.800453 178.987928 
L 177.742581 161.156045 
L 161.891842 159.703621 
z
" clip-path="url(#p3d7970c5cf)" style="fill: #fbb4ae"/>
    <path d="M 80.56259 118.389782 
L 96.558486 145.767455 
L 105.970254 134.6502 
L 90.138961 107.455177 
z
" clip-path="url(#p3d7970c5cf)" style="fill: #fed9a6"/>
    <path d="M 128.079379 180.903579 
L 143.852108 188.928216 
L 152.922095 177.40687 
L 137.239925 169.495155 
z
" clip-path="url(#p3d7970c5cf)" style="fill: #fbb4ae"/>
    <path d="M 186.696719 137.070376 
L 202.931073 131.84911 
L 212.046248 101.091947 
L 195.732482 106.598712 
z
" clip-path="url(#p3d7970c5cf)" style="fill: #ffffcc"/>
    <path d="M 177.742581 161.156045 
L 193.940706 156.147084 
L 202.931073 131.84911 
L 186.696719 137.070376 
z
" clip-path="url(#p3d7970c5cf)" style="fill: #decbe4"/>
    <path d="M 143.852108 188.928216 
L 159.799705 190.601445 
L 168.800453 178.987928 
L 152.922095 177.40687 
z
" clip-path="url(#p3d7970c5cf)" style="fill: #fbb4ae"/>
    <path d="M 86.841325 150.54823 
L 102.821284 171.546472 
L 112.355955 166.544226 
L 96.558486 145.767455 
z
" clip-path="url(#p3d7970c5cf)" style="fill: #ccebc5"/>
    <path d="M 102.821284 171.546472 
L 118.701315 186.070542 
L 128.079379 180.903579 
L 112.355955 166.544226 
z
" clip-path="url(#p3d7970c5cf)" style="fill: #fbb4ae"/>
    <path d="M 168.800453 178.987928 
L 185.004971 174.120358 
L 193.940706 156.147084 
L 177.742581 161.156045 
z
" clip-path="url(#p3d7970c5cf)" style="fill: #b3cde3"/>
    <path d="M 70.634159 122.88838 
L 86.841325 150.54823 
L 96.558486 145.767455 
L 80.56259 118.389782 
z
" clip-path="url(#p3d7970c5cf)" style="fill: #fed9a6"/>
    <path d="M 118.701315 186.070542 
L 134.607243 194.205088 
L 143.852108 188.928216 
L 128.079379 180.903579 
z
" clip-path="url(#p3d7970c5cf)" style="fill: #fbb4ae"/>
    <path d="M 202.931073 131.84911 
L 219.675272 119.891895 
L 228.895575 88.763893 
L 212.046248 101.091947 
z
" clip-path="url(#p3d7970c5cf)" style="fill: #e5d8bd"/>
    <path d="M 193.940706 156.147084 
L 210.625504 144.451091 
L 219.675272 119.891895 
L 202.931073 131.84911 
z
" clip-path="url(#p3d7970c5cf)" style="fill: #fed9a6"/>
    <path d="M 159.799705 190.601445 
L 176.05334 185.804611 
L 185.004971 174.120358 
L 168.800453 178.987928 
z
" clip-path="url(#p3d7970c5cf)" style="fill: #fbb4ae"/>
    <path d="M 134.607243 194.205088 
L 150.666783 195.93341 
L 159.799705 190.601445 
L 143.852108 188.928216 
z
" clip-path="url(#p3d7970c5cf)" style="fill: #fbb4ae"/>
    <path d="M 185.004971 174.120358 
L 201.675171 162.578727 
L 210.625504 144.451091 
L 193.940706 156.147084 
z
" clip-path="url(#p3d7970c5cf)" style="fill: #decbe4"/>
    <path d="M 76.730659 148.820568 
L 92.940749 170.10884 
L 102.821284 171.546472 
L 86.841325 150.54823 
z
" clip-path="url(#p3d7970c5cf)" style="fill: #decbe4"/>
    <path d="M 92.940749 170.10884 
L 109.023217 184.830253 
L 118.701315 186.070542 
L 102.821284 171.546472 
z
" clip-path="url(#p3d7970c5cf)" style="fill: #b3cde3"/>
    <path d="M 60.261971 120.77278 
L 76.730659 148.820568 
L 86.841325 150.54823 
L 70.634159 122.88838 
z
" clip-path="url(#p3d7970c5cf)" style="fill: #ffffcc"/>
    <path d="M 109.023217 184.830253 
L 125.107124 193.071766 
L 134.607243 194.205088 
L 118.701315 186.070542 
z
" clip-path="url(#p3d7970c5cf)" style="fill: #fbb4ae"/>
    <path d="M 150.666783 195.93341 
L 167.013025 191.134827 
L 176.05334 185.804611 
L 159.799705 190.601445 
z
" clip-path="url(#p3d7970c5cf)" style="fill: #fbb4ae"/>
    <path d="M 176.05334 185.804611 
L 192.753527 174.310324 
L 201.675171 162.578727 
L 185.004971 174.120358 
z
" clip-path="url(#p3d7970c5cf)" style="fill: #ccebc5"/>
    <path d="M 219.675272 119.891895 
L 237.083533 100.851836 
L 246.436426 69.261622 
L 228.895575 88.763893 
z
" clip-path="url(#p3d7970c5cf)" style="fill: #f2f2f2"/>
    <path d="M 210.625504 144.451091 
L 227.950321 125.724051 
L 237.083533 100.851836 
L 219.675272 119.891895 
z
" clip-path="url(#p3d7970c5cf)" style="fill: #e5d8bd"/>
    <path d="M 125.107124 193.071766 
L 141.323087 194.816142 
L 150.666783 195.93341 
L 134.607243 194.205088 
z
" clip-path="url(#p3d7970c5cf)" style="fill: #fbb4ae"/>
    <path d="M 201.675171 162.578727 
L 218.964384 144.018765 
L 227.950321 125.724051 
L 210.625504 144.451091 
z
" clip-path="url(#p3d7970c5cf)" style="fill: #ffffcc"/>
    <path d="M 66.127512 140.297643 
L 82.61935 161.95005 
L 92.940749 170.10884 
L 76.730659 148.820568 
z
" clip-path="url(#p3d7970c5cf)" style="fill: #fed9a6"/>
    <path d="M 82.61935 161.95005 
L 98.953505 176.903952 
L 109.023217 184.830253 
L 92.940749 170.10884 
z
" clip-path="url(#p3d7970c5cf)" style="fill: #decbe4"/>
    <path d="M 167.013025 191.134827 
L 183.788261 179.577688 
L 192.753527 174.310324 
L 176.05334 185.804611 
z
" clip-path="url(#p3d7970c5cf)" style="fill: #ccebc5"/>
    <path d="M 141.323087 194.816142 
L 157.80689 189.939199 
L 167.013025 191.134827 
L 150.666783 195.93341 
z
" clip-path="url(#p3d7970c5cf)" style="fill: #b3cde3"/>
    <path d="M 49.342414 111.747434 
L 66.127512 140.297643 
L 76.730659 148.820568 
L 60.261971 120.77278 
z
" clip-path="url(#p3d7970c5cf)" style="fill: #e5d8bd"/>
    <path d="M 98.953505 176.903952 
L 115.263116 185.249025 
L 125.107124 193.071766 
L 109.023217 184.830253 
z
" clip-path="url(#p3d7970c5cf)" style="fill: #ccebc5"/>
    <path d="M 192.753527 174.310324 
L 210.054438 155.770858 
L 218.964384 144.018765 
L 201.675171 162.578727 
z
" clip-path="url(#p3d7970c5cf)" style="fill: #fed9a6"/>
    <path d="M 115.263116 185.249025 
L 131.682528 186.966894 
L 141.323087 194.816142 
L 125.107124 193.071766 
z
" clip-path="url(#p3d7970c5cf)" style="fill: #ccebc5"/>
    <path d="M 157.80689 189.939199 
L 174.703424 178.202521 
L 183.788261 179.577688 
L 167.013025 191.134827 
z
" clip-path="url(#p3d7970c5cf)" style="fill: #decbe4"/>
    <path d="M 183.788261 179.577688 
L 201.148379 160.907426 
L 210.054438 155.770858 
L 192.753527 174.310324 
z
" clip-path="url(#p3d7970c5cf)" style="fill: #fed9a6"/>
    <path d="M 131.682528 186.966894 
L 148.351055 181.928217 
L 157.80689 189.939199 
L 141.323087 194.816142 
z
" clip-path="url(#p3d7970c5cf)" style="fill: #decbe4"/>
    <path d="M 54.918526 124.561627 
L 71.74883 146.659542 
L 82.61935 161.95005 
L 66.127512 140.297643 
z
" clip-path="url(#p3d7970c5cf)" style="fill: #e5d8bd"/>
    <path d="M 71.74883 146.659542 
L 88.38835 161.884126 
L 98.953505 176.903952 
L 82.61935 161.95005 
z
" clip-path="url(#p3d7970c5cf)" style="fill: #ffffcc"/>
    <path d="M 37.756232 95.38282 
L 54.918526 124.561627 
L 66.127512 140.297643 
L 49.342414 111.747434 
z
" clip-path="url(#p3d7970c5cf)" style="fill: #f2f2f2"/>
    <path d="M 88.38835 161.884126 
L 104.975264 170.328227 
L 115.263116 185.249025 
L 98.953505 176.903952 
z
" clip-path="url(#p3d7970c5cf)" style="fill: #fed9a6"/>
    <path d="M 104.975264 170.328227 
L 121.648564 171.971623 
L 131.682528 186.966894 
L 115.263116 185.249025 
z
" clip-path="url(#p3d7970c5cf)" style="fill: #fed9a6"/>
    <path d="M 174.703424 178.202521 
L 192.171222 159.240978 
L 201.148379 160.907426 
L 183.788261 179.577688 
z
" clip-path="url(#p3d7970c5cf)" style="fill: #ffffcc"/>
    <path d="M 148.351055 181.928217 
L 165.417082 169.884981 
L 174.703424 178.202521 
L 157.80689 189.939199 
z
" clip-path="url(#p3d7970c5cf)" style="fill: #fed9a6"/>
    <path d="M 121.648564 171.971623 
L 138.552027 166.677882 
L 148.351055 181.928217 
L 131.682528 186.966894 
z
" clip-path="url(#p3d7970c5cf)" style="fill: #ffffcc"/>
    <path d="M 165.417082 169.884981 
L 183.042781 150.457297 
L 192.171222 159.240978 
L 174.703424 178.202521 
z
" clip-path="url(#p3d7970c5cf)" style="fill: #e5d8bd"/>
    <path d="M 138.552027 166.677882 
L 155.838519 154.186103 
L 165.417082 169.884981 
L 148.351055 181.928217 
z
" clip-path="url(#p3d7970c5cf)" style="fill: #e5d8bd"/>
    <path d="M 155.838519 154.186103 
L 173.674938 134.096752 
L 183.042781 150.457297 
L 165.417082 169.884981 
z
" clip-path="url(#p3d7970c5cf)" style="fill: #f2f2f2"/>
   </g>
   <g id="Line3DCollection_4">
    <path d="M 37.756232 95.38282 
L 54.918526 124.561627 
L 71.74883 146.659542 
L 88.38835 161.884126 
L 104.975264 170.328227 
L 121.648564 171.971623 
L 138.552027 166.677882 
L 155.838519 154.186103 
L 173.674938 134.096752 
" clip-path="url(#p3d7970c5cf)" style="fill: none; stroke-dasharray: 0.75,1.2375; stroke-dashoffset: 0; stroke: #1862ab; stroke-width: 0.75"/>
    <path d="M 49.342414 111.747434 
L 66.127512 140.297643 
L 82.61935 161.95005 
L 98.953505 176.903952 
L 115.263116 185.249025 
L 131.682528 186.966894 
L 148.351055 181.928217 
L 165.417082 169.884981 
L 183.042781 150.457297 
" clip-path="url(#p3d7970c5cf)" style="fill: none; stroke-dasharray: 0.75,1.2375; stroke-dashoffset: 0; stroke: #1862ab; stroke-width: 0.75"/>
    <path d="M 60.261971 120.77278 
L 76.730659 148.820568 
L 92.940749 170.10884 
L 109.023217 184.830253 
L 125.107124 193.071766 
L 141.323087 194.816142 
L 157.80689 189.939199 
L 174.703424 178.202521 
L 192.171222 159.240978 
" clip-path="url(#p3d7970c5cf)" style="fill: none; stroke-dasharray: 0.75,1.2375; stroke-dashoffset: 0; stroke: #1862ab; stroke-width: 0.75"/>
    <path d="M 70.634159 122.88838 
L 86.841325 150.54823 
L 102.821284 171.546472 
L 118.701315 186.070542 
L 134.607243 194.205088 
L 150.666783 195.93341 
L 167.013025 191.134827 
L 183.788261 179.577688 
L 201.148379 160.907426 
" clip-path="url(#p3d7970c5cf)" style="fill: none; stroke-dasharray: 0.75,1.2375; stroke-dashoffset: 0; stroke: #1862ab; stroke-width: 0.75"/>
    <path d="M 80.56259 118.389782 
L 96.558486 145.767455 
L 112.355955 166.544226 
L 128.079379 180.903579 
L 143.852108 188.928216 
L 159.799705 190.601445 
L 176.05334 185.804611 
L 192.753527 174.310324 
L 210.054438 155.770858 
" clip-path="url(#p3d7970c5cf)" style="fill: none; stroke-dasharray: 0.75,1.2375; stroke-dashoffset: 0; stroke: #1862ab; stroke-width: 0.75"/>
    <path d="M 90.138961 107.455177 
L 105.970254 134.6502 
L 121.629835 155.269961 
L 137.239925 169.495155 
L 152.922095 177.40687 
L 168.800453 178.987928 
L 185.004971 174.120358 
L 201.675171 162.578727 
L 218.964384 144.018765 
" clip-path="url(#p3d7970c5cf)" style="fill: none; stroke-dasharray: 0.75,1.2375; stroke-dashoffset: 0; stroke: #1862ab; stroke-width: 0.75"/>
    <path d="M 99.446066 90.156278 
L 115.156721 117.264097 
L 130.720794 137.78847 
L 146.259016 151.908386 
L 161.891842 159.703621 
L 177.742581 161.156045 
L 193.940706 156.147084 
L 210.625504 144.451091 
L 227.950321 125.724051 
" clip-path="url(#p3d7970c5cf)" style="fill: none; stroke-dasharray: 0.75,1.2375; stroke-dashoffset: 0; stroke: #1862ab; stroke-width: 0.75"/>
    <path d="M 108.560289 66.464469 
L 124.192343 93.57839 
L 139.701779 114.067281 
L 155.208477 128.109463 
L 170.832404 135.783681 
L 186.696719 137.070376 
L 202.931073 131.84911 
L 219.675272 119.891895 
L 237.083533 100.851836 
" clip-path="url(#p3d7970c5cf)" style="fill: none; stroke-dasharray: 0.75,1.2375; stroke-dashoffset: 0; stroke: #1862ab; stroke-width: 0.75"/>
    <path d="M 117.553742 36.252826 
L 133.148003 63.465843 
L 148.642821 83.978492 
L 164.157852 97.969447 
L 179.813189 105.516682 
L 195.732482 106.598712 
L 212.046248 101.091947 
L 228.895575 88.763893 
L 246.436426 69.261622 
" clip-path="url(#p3d7970c5cf)" style="fill: none; stroke-dasharray: 0.75,1.2375; stroke-dashoffset: 0; stroke: #1862ab; stroke-width: 0.75"/>
    <path d="M 37.756232 95.38282 
L 49.342414 111.747434 
L 60.261971 120.77278 
L 70.634159 122.88838 
L 80.56259 118.389782 
L 90.138961 107.455177 
L 99.446066 90.156278 
L 108.560289 66.464469 
L 117.553742 36.252826 
" clip-path="url(#p3d7970c5cf)" style="fill: none; stroke-dasharray: 0.75,1.2375; stroke-dashoffset: 0; stroke: #1862ab; stroke-width: 0.75"/>
    <path d="M 54.918526 124.561627 
L 66.127512 140.297643 
L 76.730659 148.820568 
L 86.841325 150.54823 
L 96.558486 145.767455 
L 105.970254 134.6502 
L 115.156721 117.264097 
L 124.192343 93.57839 
L 133.148003 63.465843 
" clip-path="url(#p3d7970c5cf)" style="fill: none; stroke-dasharray: 0.75,1.2375; stroke-dashoffset: 0; stroke: #1862ab; stroke-width: 0.75"/>
    <path d="M 71.74883 146.659542 
L 82.61935 161.95005 
L 92.940749 170.10884 
L 102.821284 171.546472 
L 112.355955 166.544226 
L 121.629835 155.269961 
L 130.720794 137.78847 
L 139.701779 114.067281 
L 148.642821 83.978492 
" clip-path="url(#p3d7970c5cf)" style="fill: none; stroke-dasharray: 0.75,1.2375; stroke-dashoffset: 0; stroke: #1862ab; stroke-width: 0.75"/>
    <path d="M 88.38835 161.884126 
L 98.953505 176.903952 
L 109.023217 184.830253 
L 118.701315 186.070542 
L 128.079379 180.903579 
L 137.239925 169.495155 
L 146.259016 151.908386 
L 155.208477 128.109463 
L 164.157852 97.969447 
" clip-path="url(#p3d7970c5cf)" style="fill: none; stroke-dasharray: 0.75,1.2375; stroke-dashoffset: 0; stroke: #1862ab; stroke-width: 0.75"/>
    <path d="M 104.975264 170.328227 
L 115.263116 185.249025 
L 125.107124 193.071766 
L 134.607243 194.205088 
L 143.852108 188.928216 
L 152.922095 177.40687 
L 161.891842 159.703621 
L 170.832404 135.783681 
L 179.813189 105.516682 
" clip-path="url(#p3d7970c5cf)" style="fill: none; stroke-dasharray: 0.75,1.2375; stroke-dashoffset: 0; stroke: #1862ab; stroke-width: 0.75"/>
    <path d="M 121.648564 171.971623 
L 131.682528 186.966894 
L 141.323087 194.816142 
L 150.666783 195.93341 
L 159.799705 190.601445 
L 168.800453 178.987928 
L 177.742581 161.156045 
L 186.696719 137.070376 
L 195.732482 106.598712 
" clip-path="url(#p3d7970c5cf)" style="fill: none; stroke-dasharray: 0.75,1.2375; stroke-dashoffset: 0; stroke: #1862ab; stroke-width: 0.75"/>
    <path d="M 138.552027 166.677882 
L 148.351055 181.928217 
L 157.80689 189.939199 
L 167.013025 191.134827 
L 176.05334 185.804611 
L 185.004971 174.120358 
L 193.940706 156.147084 
L 202.931073 131.84911 
L 212.046248 101.091947 
" clip-path="url(#p3d7970c5cf)" style="fill: none; stroke-dasharray: 0.75,1.2375; stroke-dashoffset: 0; stroke: #1862ab; stroke-width: 0.75"/>
    <path d="M 155.838519 154.186103 
L 165.417082 169.884981 
L 174.703424 178.202521 
L 183.788261 179.577688 
L 192.753527 174.310324 
L 201.675171 162.578727 
L 210.625504 144.451091 
L 219.675272 119.891895 
L 228.895575 88.763893 
" clip-path="url(#p3d7970c5cf)" style="fill: none; stroke-dasharray: 0.75,1.2375; stroke-dashoffset: 0; stroke: #1862ab; stroke-width: 0.75"/>
    <path d="M 173.674938 134.096752 
L 183.042781 150.457297 
L 192.171222 159.240978 
L 201.148379 160.907426 
L 210.054438 155.770858 
L 218.964384 144.018765 
L 227.950321 125.724051 
L 237.083533 100.851836 
L 246.436426 69.261622 
" clip-path="url(#p3d7970c5cf)" style="fill: none; stroke-dasharray: 0.75,1.2375; stroke-dashoffset: 0; stroke: #1862ab; stroke-width: 0.75"/>
   </g>
  </g>
  <g id="axes_2">
   <g id="patch_6">
    <path d="M 291.168 273.312 
L 304.4736 273.312 
L 304.4736 7.2 
L 291.168 7.2 
z
" style="fill: #ffffff"/>
   </g>
   <g id="patch_7">
    <path clip-path="url(#pbac4c0ad96)" style="fill: #ffffff; stroke: #ffffff; stroke-width: 0.01; stroke-linejoin: miter"/>
   </g>
   <g id="QuadMesh_1">
    <path d="M 291.168 273.312 
L 304.4736 273.312 
L 304.4736 243.744 
L 291.168 243.744 
L 291.168 273.312 
" clip-path="url(#pbac4c0ad96)" style="fill: #fbb4ae"/>
    <path d="M 291.168 243.744 
L 304.4736 243.744 
L 304.4736 214.176 
L 291.168 214.176 
L 291.168 243.744 
" clip-path="url(#pbac4c0ad96)" style="fill: #b3cde3"/>
    <path d="M 291.168 214.176 
L 304.4736 214.176 
L 304.4736 184.608 
L 291.168 184.608 
L 291.168 214.176 
" clip-path="url(#pbac4c0ad96)" style="fill: #ccebc5"/>
    <path d="M 291.168 184.608 
L 304.4736 184.608 
L 304.4736 155.04 
L 291.168 155.04 
L 291.168 184.608 
" clip-path="url(#pbac4c0ad96)" style="fill: #decbe4"/>
    <path d="M 291.168 155.04 
L 304.4736 155.04 
L 304.4736 125.472 
L 291.168 125.472 
L 291.168 155.04 
" clip-path="url(#pbac4c0ad96)" style="fill: #fed9a6"/>
    <path d="M 291.168 125.472 
L 304.4736 125.472 
L 304.4736 95.904 
L 291.168 95.904 
L 291.168 125.472 
" clip-path="url(#pbac4c0ad96)" style="fill: #ffffcc"/>
    <path d="M 291.168 95.904 
L 304.4736 95.904 
L 304.4736 66.336 
L 291.168 66.336 
L 291.168 95.904 
" clip-path="url(#pbac4c0ad96)" style="fill: #e5d8bd"/>
    <path d="M 291.168 66.336 
L 304.4736 66.336 
L 304.4736 36.768 
L 291.168 36.768 
L 291.168 66.336 
" clip-path="url(#pbac4c0ad96)" style="fill: #fddaec"/>
    <path d="M 291.168 36.768 
L 304.4736 36.768 
L 304.4736 7.2 
L 291.168 7.2 
L 291.168 36.768 
" clip-path="url(#pbac4c0ad96)" style="fill: #f2f2f2"/>
   </g>
   <g id="matplotlib.axis_1"/>
   <g id="matplotlib.axis_2">
    <g id="ytick_1">
     <g id="line2d_23">
      <defs>
       <path id="m3976f766f2" d="M 0 0 
L 3.5 0 
" style="stroke: #000000; stroke-width: 0.8"/>
      </defs>
      <g>
       <use xlink:href="#m3976f766f2" x="304.4736" y="240.048" style="stroke: #000000; stroke-width: 0.8"/>
      </g>
     </g>
     <g id="text_23">
      <!-- 1 -->
      <g transform="translate(311.4736 243.847219) scale(0.1 -0.1)">
       <use xlink:href="#DejaVuSans-31"/>
      </g>
     </g>
    </g>
    <g id="ytick_2">
     <g id="line2d_24">
      <g>
       <use xlink:href="#m3976f766f2" x="304.4736" y="195.696" style="stroke: #000000; stroke-width: 0.8"/>
      </g>
     </g>
     <g id="text_24">
      <!-- 2 -->
      <g transform="translate(311.4736 199.495219) scale(0.1 -0.1)">
       <use xlink:href="#DejaVuSans-32"/>
      </g>
     </g>
    </g>
    <g id="ytick_3">
     <g id="line2d_25">
      <g>
       <use xlink:href="#m3976f766f2" x="304.4736" y="151.344" style="stroke: #000000; stroke-width: 0.8"/>
      </g>
     </g>
     <g id="text_25">
      <!-- 3 -->
      <g transform="translate(311.4736 155.143219) scale(0.1 -0.1)">
       <use xlink:href="#DejaVuSans-33"/>
      </g>
     </g>
    </g>
    <g id="ytick_4">
     <g id="line2d_26">
      <g>
       <use xlink:href="#m3976f766f2" x="304.4736" y="106.992" style="stroke: #000000; stroke-width: 0.8"/>
      </g>
     </g>
     <g id="text_26">
      <!-- 4 -->
      <g transform="translate(311.4736 110.791219) scale(0.1 -0.1)">
       <use xlink:href="#DejaVuSans-34"/>
      </g>
     </g>
    </g>
    <g id="ytick_5">
     <g id="line2d_27">
      <g>
       <use xlink:href="#m3976f766f2" x="304.4736" y="62.64" style="stroke: #000000; stroke-width: 0.8"/>
      </g>
     </g>
     <g id="text_27">
      <!-- 5 -->
      <g transform="translate(311.4736 66.439219) scale(0.1 -0.1)">
       <use xlink:href="#DejaVuSans-35"/>
      </g>
     </g>
    </g>
    <g id="ytick_6">
     <g id="line2d_28">
      <g>
       <use xlink:href="#m3976f766f2" x="304.4736" y="18.288" style="stroke: #000000; stroke-width: 0.8"/>
      </g>
     </g>
     <g id="text_28">
      <!-- 6 -->
      <g transform="translate(311.4736 22.087219) scale(0.1 -0.1)">
       <use xlink:href="#DejaVuSans-36"/>
      </g>
     </g>
    </g>
    <g id="text_29">
     <!-- temperature -->
     <g transform="translate(329.434537 171.681781) rotate(-90) scale(0.1 -0.1)">
      <defs>
       <path id="DejaVuSans-74" d="M 1172 4494 
L 1172 3500 
L 2356 3500 
L 2356 3053 
L 1172 3053 
L 1172 1153 
Q 1172 725 1289 603 
Q 1406 481 1766 481 
L 2356 481 
L 2356 0 
L 1766 0 
Q 1100 0 847 248 
Q 594 497 594 1153 
L 594 3053 
L 172 3053 
L 172 3500 
L 594 3500 
L 594 4494 
L 1172 4494 
z
" transform="scale(0.015625)"/>
       <path id="DejaVuSans-65" d="M 3597 1894 
L 3597 1613 
L 953 1613 
Q 991 1019 1311 708 
Q 1631 397 2203 397 
Q 2534 397 2845 478 
Q 3156 559 3463 722 
L 3463 178 
Q 3153 47 2828 -22 
Q 2503 -91 2169 -91 
Q 1331 -91 842 396 
Q 353 884 353 1716 
Q 353 2575 817 3079 
Q 1281 3584 2069 3584 
Q 2775 3584 3186 3129 
Q 3597 2675 3597 1894 
z
M 3022 2063 
Q 3016 2534 2758 2815 
Q 2500 3097 2075 3097 
Q 1594 3097 1305 2825 
Q 1016 2553 972 2059 
L 3022 2063 
z
" transform="scale(0.015625)"/>
       <path id="DejaVuSans-6d" d="M 3328 2828 
Q 3544 3216 3844 3400 
Q 4144 3584 4550 3584 
Q 5097 3584 5394 3201 
Q 5691 2819 5691 2113 
L 5691 0 
L 5113 0 
L 5113 2094 
Q 5113 2597 4934 2840 
Q 4756 3084 4391 3084 
Q 3944 3084 3684 2787 
Q 3425 2491 3425 1978 
L 3425 0 
L 2847 0 
L 2847 2094 
Q 2847 2600 2669 2842 
Q 2491 3084 2119 3084 
Q 1678 3084 1418 2786 
Q 1159 2488 1159 1978 
L 1159 0 
L 581 0 
L 581 3500 
L 1159 3500 
L 1159 2956 
Q 1356 3278 1631 3431 
Q 1906 3584 2284 3584 
Q 2666 3584 2933 3390 
Q 3200 3197 3328 2828 
z
" transform="scale(0.015625)"/>
       <path id="DejaVuSans-70" d="M 1159 525 
L 1159 -1331 
L 581 -1331 
L 581 3500 
L 1159 3500 
L 1159 2969 
Q 1341 3281 1617 3432 
Q 1894 3584 2278 3584 
Q 2916 3584 3314 3078 
Q 3713 2572 3713 1747 
Q 3713 922 3314 415 
Q 2916 -91 2278 -91 
Q 1894 -91 1617 61 
Q 1341 213 1159 525 
z
M 3116 1747 
Q 3116 2381 2855 2742 
Q 2594 3103 2138 3103 
Q 1681 3103 1420 2742 
Q 1159 2381 1159 1747 
Q 1159 1113 1420 752 
Q 1681 391 2138 391 
Q 2594 391 2855 752 
Q 3116 1113 3116 1747 
z
" transform="scale(0.015625)"/>
       <path id="DejaVuSans-72" d="M 2631 2963 
Q 2534 3019 2420 3045 
Q 2306 3072 2169 3072 
Q 1681 3072 1420 2755 
Q 1159 2438 1159 1844 
L 1159 0 
L 581 0 
L 581 3500 
L 1159 3500 
L 1159 2956 
Q 1341 3275 1631 3429 
Q 1922 3584 2338 3584 
Q 2397 3584 2469 3576 
Q 2541 3569 2628 3553 
L 2631 2963 
z
" transform="scale(0.015625)"/>
       <path id="DejaVuSans-61" d="M 2194 1759 
Q 1497 1759 1228 1600 
Q 959 1441 959 1056 
Q 959 750 1161 570 
Q 1363 391 1709 391 
Q 2188 391 2477 730 
Q 2766 1069 2766 1631 
L 2766 1759 
L 2194 1759 
z
M 3341 1997 
L 3341 0 
L 2766 0 
L 2766 531 
Q 2569 213 2275 61 
Q 1981 -91 1556 -91 
Q 1019 -91 701 211 
Q 384 513 384 1019 
Q 384 1609 779 1909 
Q 1175 2209 1959 2209 
L 2766 2209 
L 2766 2266 
Q 2766 2663 2505 2880 
Q 2244 3097 1772 3097 
Q 1472 3097 1187 3025 
Q 903 2953 641 2809 
L 641 3341 
Q 956 3463 1253 3523 
Q 1550 3584 1831 3584 
Q 2591 3584 2966 3190 
Q 3341 2797 3341 1997 
z
" transform="scale(0.015625)"/>
       <path id="DejaVuSans-75" d="M 544 1381 
L 544 3500 
L 1119 3500 
L 1119 1403 
Q 1119 906 1312 657 
Q 1506 409 1894 409 
Q 2359 409 2629 706 
Q 2900 1003 2900 1516 
L 2900 3500 
L 3475 3500 
L 3475 0 
L 2900 0 
L 2900 538 
Q 2691 219 2414 64 
Q 2138 -91 1772 -91 
Q 1169 -91 856 284 
Q 544 659 544 1381 
z
M 1991 3584 
L 1991 3584 
z
" transform="scale(0.015625)"/>
      </defs>
      <use xlink:href="#DejaVuSans-74"/>
      <use xlink:href="#DejaVuSans-65" x="39.208984"/>
      <use xlink:href="#DejaVuSans-6d" x="100.732422"/>
      <use xlink:href="#DejaVuSans-70" x="198.144531"/>
      <use xlink:href="#DejaVuSans-65" x="261.621094"/>
      <use xlink:href="#DejaVuSans-72" x="323.144531"/>
      <use xlink:href="#DejaVuSans-61" x="364.257812"/>
      <use xlink:href="#DejaVuSans-74" x="425.537109"/>
      <use xlink:href="#DejaVuSans-75" x="464.746094"/>
      <use xlink:href="#DejaVuSans-72" x="528.125"/>
      <use xlink:href="#DejaVuSans-65" x="566.988281"/>
     </g>
    </g>
   </g>
   <g id="LineCollection_1"/>
   <g id="patch_8">
    <path d="M 291.168 273.312 
L 297.8208 273.312 
L 304.4736 273.312 
L 304.4736 7.2 
L 297.8208 7.2 
L 291.168 7.2 
L 291.168 273.312 
z
" style="fill: none; stroke: #000000; stroke-width: 0.8; stroke-linejoin: miter; stroke-linecap: square"/>
   </g>
  </g>
 </g>
 <defs>
  <clipPath id="p3d7970c5cf">
   <rect x="7.2" y="7.2" width="266.112" height="266.112"/>
  </clipPath>
  <clipPath id="pbac4c0ad96">
   <rect x="291.168" y="7.2" width="13.3056" height="266.112"/>
  </clipPath>
 </defs>
</svg>
