<?xml version="1.0" encoding="utf-8" standalone="no"?>
<!DOCTYPE svg PUBLIC "-//W3C//DTD SVG 1.1//EN"
  "http://www.w3.org/Graphics/SVG/1.1/DTD/svg11.dtd">
<svg xmlns:xlink="http://www.w3.org/1999/xlink" width="287.521562pt" height="295.113572pt" viewBox="0 0 287.521562 295.113572" xmlns="http://www.w3.org/2000/svg" version="1.1">
 <metadata>
  <rdf:RDF xmlns:dc="http://purl.org/dc/elements/1.1/" xmlns:cc="http://creativecommons.org/ns#" xmlns:rdf="http://www.w3.org/1999/02/22-rdf-syntax-ns#">
   <cc:Work>
    <dc:type rdf:resource="http://purl.org/dc/dcmitype/StillImage"/>
    <dc:date>2024-09-16T08:13:05.313149</dc:date>
    <dc:format>image/svg+xml</dc:format>
    <dc:creator>
     <cc:Agent>
      <dc:title>Matplotlib v3.6.3, https://matplotlib.org/</dc:title>
     </cc:Agent>
    </dc:creator>
   </cc:Work>
  </rdf:RDF>
 </metadata>
 <defs>
  <style type="text/css">*{stroke-linejoin: round; stroke-linecap: butt}</style>
 </defs>
 <g id="figure_1">
  <g id="patch_1">
   <path d="M 0 295.113572 
L 287.521562 295.113572 
L 287.521562 0 
L 0 0 
z
" style="fill: #ffffff"/>
  </g>
  <g id="patch_2">
   <path d="M 7.2 273.312 
L 273.312 273.312 
L 273.312 7.2 
L 7.2 7.2 
z
" style="fill: #ffffff"/>
  </g>
  <g id="pane3d_1">
   <g id="patch_3">
    <path d="M 36.832607 218.845431 
L 117.342091 149.9149 
L 115.93652 18.519704 
L 30.668128 80.067902 
" style="fill: #f2f2f2; opacity: 0.5; stroke: #f2f2f2; stroke-linejoin: miter"/>
   </g>
  </g>
  <g id="pane3d_2">
   <g id="patch_4">
    <path d="M 117.342091 149.9149 
L 247.299674 188.383675 
L 253.048471 52.802633 
L 115.93652 18.519704 
" style="fill: #e6e6e6; opacity: 0.5; stroke: #e6e6e6; stroke-linejoin: miter"/>
   </g>
  </g>
  <g id="pane3d_3">
   <g id="patch_5">
    <path d="M 36.832607 218.845431 
L 173.947415 264.024759 
L 247.299674 188.383675 
L 117.342091 149.9149 
" style="fill: #ececec; opacity: 0.5; stroke: #ececec; stroke-linejoin: miter"/>
   </g>
  </g>
  <g id="axis3d_1">
   <g id="line2d_1">
    <path d="M 36.832607 218.845431 
L 173.947415 264.024759 
" style="fill: none; stroke: #000000; stroke-width: 0.8; stroke-linecap: square"/>
   </g>
   <g id="text_1">
    <!-- x -->
    <g transform="translate(86.026154 281.966821) scale(0.1 -0.1)">
     <defs>
      <path id="DejaVuSans-78" d="M 3513 3500 
L 2247 1797 
L 3578 0 
L 2900 0 
L 1881 1375 
L 863 0 
L 184 0 
L 1544 1831 
L 300 3500 
L 978 3500 
L 1906 2253 
L 2834 3500 
L 3513 3500 
z
" transform="scale(0.015625)"/>
     </defs>
     <use xlink:href="#DejaVuSans-78"/>
    </g>
   </g>
   <g id="Line3DCollection_1">
    <path d="M 47.323992 222.302343 
L 127.320161 152.868511 
L 126.440399 21.146052 
" style="fill: none; stroke: #b0b0b0; stroke-width: 0.8"/>
    <path d="M 63.210938 227.537091 
L 142.418942 157.337905 
L 142.342251 25.122088 
" style="fill: none; stroke: #b0b0b0; stroke-width: 0.8"/>
    <path d="M 79.280483 232.832006 
L 157.677971 161.854734 
L 158.421955 29.142594 
" style="fill: none; stroke: #b0b0b0; stroke-width: 0.8"/>
    <path d="M 95.535794 238.188131 
L 173.099813 166.419757 
L 174.682513 33.208319 
" style="fill: none; stroke: #b0b0b0; stroke-width: 0.8"/>
    <path d="M 111.98011 243.606533 
L 188.687087 171.033749 
L 191.126993 37.320032 
" style="fill: none; stroke: #b0b0b0; stroke-width: 0.8"/>
    <path d="M 128.616748 249.088305 
L 204.44247 175.697504 
L 207.758534 41.478517 
" style="fill: none; stroke: #b0b0b0; stroke-width: 0.8"/>
    <path d="M 145.4491 254.634564 
L 220.368697 180.41183 
L 224.580344 45.684576 
" style="fill: none; stroke: #b0b0b0; stroke-width: 0.8"/>
    <path d="M 162.480641 260.246457 
L 236.46856 185.177554 
L 241.595709 49.93903 
" style="fill: none; stroke: #b0b0b0; stroke-width: 0.8"/>
   </g>
   <g id="xtick_1">
    <g id="line2d_2">
     <path d="M 48.015988 221.701714 
L 45.937271 223.505967 
" style="fill: none; stroke: #000000; stroke-width: 0.8; stroke-linecap: square"/>
    </g>
    <g id="text_2">
     <!-- −2.0 -->
     <g transform="translate(28.42332 247.086454) scale(0.1 -0.1)">
      <defs>
       <path id="DejaVuSans-2212" d="M 678 2272 
L 4684 2272 
L 4684 1741 
L 678 1741 
L 678 2272 
z
" transform="scale(0.015625)"/>
       <path id="DejaVuSans-32" d="M 1228 531 
L 3431 531 
L 3431 0 
L 469 0 
L 469 531 
Q 828 903 1448 1529 
Q 2069 2156 2228 2338 
Q 2531 2678 2651 2914 
Q 2772 3150 2772 3378 
Q 2772 3750 2511 3984 
Q 2250 4219 1831 4219 
Q 1534 4219 1204 4116 
Q 875 4013 500 3803 
L 500 4441 
Q 881 4594 1212 4672 
Q 1544 4750 1819 4750 
Q 2544 4750 2975 4387 
Q 3406 4025 3406 3419 
Q 3406 3131 3298 2873 
Q 3191 2616 2906 2266 
Q 2828 2175 2409 1742 
Q 1991 1309 1228 531 
z
" transform="scale(0.015625)"/>
       <path id="DejaVuSans-2e" d="M 684 794 
L 1344 794 
L 1344 0 
L 684 0 
L 684 794 
z
" transform="scale(0.015625)"/>
       <path id="DejaVuSans-30" d="M 2034 4250 
Q 1547 4250 1301 3770 
Q 1056 3291 1056 2328 
Q 1056 1369 1301 889 
Q 1547 409 2034 409 
Q 2525 409 2770 889 
Q 3016 1369 3016 2328 
Q 3016 3291 2770 3770 
Q 2525 4250 2034 4250 
z
M 2034 4750 
Q 2819 4750 3233 4129 
Q 3647 3509 3647 2328 
Q 3647 1150 3233 529 
Q 2819 -91 2034 -91 
Q 1250 -91 836 529 
Q 422 1150 422 2328 
Q 422 3509 836 4129 
Q 1250 4750 2034 4750 
z
" transform="scale(0.015625)"/>
      </defs>
      <use xlink:href="#DejaVuSans-2212"/>
      <use xlink:href="#DejaVuSans-32" x="83.789062"/>
      <use xlink:href="#DejaVuSans-2e" x="147.412109"/>
      <use xlink:href="#DejaVuSans-30" x="179.199219"/>
     </g>
    </g>
   </g>
   <g id="xtick_2">
    <g id="line2d_3">
     <path d="M 63.896411 226.929581 
L 61.837275 228.754519 
" style="fill: none; stroke: #000000; stroke-width: 0.8; stroke-linecap: square"/>
    </g>
    <g id="text_3">
     <!-- −1.5 -->
     <g transform="translate(44.307877 252.431593) scale(0.1 -0.1)">
      <defs>
       <path id="DejaVuSans-31" d="M 794 531 
L 1825 531 
L 1825 4091 
L 703 3866 
L 703 4441 
L 1819 4666 
L 2450 4666 
L 2450 531 
L 3481 531 
L 3481 0 
L 794 0 
L 794 531 
z
" transform="scale(0.015625)"/>
       <path id="DejaVuSans-35" d="M 691 4666 
L 3169 4666 
L 3169 4134 
L 1269 4134 
L 1269 2991 
Q 1406 3038 1543 3061 
Q 1681 3084 1819 3084 
Q 2600 3084 3056 2656 
Q 3513 2228 3513 1497 
Q 3513 744 3044 326 
Q 2575 -91 1722 -91 
Q 1428 -91 1123 -41 
Q 819 9 494 109 
L 494 744 
Q 775 591 1075 516 
Q 1375 441 1709 441 
Q 2250 441 2565 725 
Q 2881 1009 2881 1497 
Q 2881 1984 2565 2268 
Q 2250 2553 1709 2553 
Q 1456 2553 1204 2497 
Q 953 2441 691 2322 
L 691 4666 
z
" transform="scale(0.015625)"/>
      </defs>
      <use xlink:href="#DejaVuSans-2212"/>
      <use xlink:href="#DejaVuSans-31" x="83.789062"/>
      <use xlink:href="#DejaVuSans-2e" x="147.412109"/>
      <use xlink:href="#DejaVuSans-35" x="179.199219"/>
     </g>
    </g>
   </g>
   <g id="xtick_3">
    <g id="line2d_4">
     <path d="M 79.959236 232.217496 
L 77.920271 234.063476 
" style="fill: none; stroke: #000000; stroke-width: 0.8; stroke-linecap: square"/>
    </g>
    <g id="text_4">
     <!-- −1.0 -->
     <g transform="translate(60.375426 257.83831) scale(0.1 -0.1)">
      <use xlink:href="#DejaVuSans-2212"/>
      <use xlink:href="#DejaVuSans-31" x="83.789062"/>
      <use xlink:href="#DejaVuSans-2e" x="147.412109"/>
      <use xlink:href="#DejaVuSans-30" x="179.199219"/>
     </g>
    </g>
   </g>
   <g id="xtick_4">
    <g id="line2d_5">
     <path d="M 96.207626 237.566499 
L 94.189437 239.433887 
" style="fill: none; stroke: #000000; stroke-width: 0.8; stroke-linecap: square"/>
    </g>
    <g id="text_5">
     <!-- −0.5 -->
     <g transform="translate(76.629146 263.307673) scale(0.1 -0.1)">
      <use xlink:href="#DejaVuSans-2212"/>
      <use xlink:href="#DejaVuSans-30" x="83.789062"/>
      <use xlink:href="#DejaVuSans-2e" x="147.412109"/>
      <use xlink:href="#DejaVuSans-35" x="179.199219"/>
     </g>
    </g>
   </g>
   <g id="xtick_5">
    <g id="line2d_6">
     <path d="M 112.644814 242.977654 
L 110.648023 244.866826 
" style="fill: none; stroke: #000000; stroke-width: 0.8; stroke-linecap: square"/>
    </g>
    <g id="text_6">
     <!-- 0.0 -->
     <g transform="translate(97.262137 268.840778) scale(0.1 -0.1)">
      <use xlink:href="#DejaVuSans-30"/>
      <use xlink:href="#DejaVuSans-2e" x="63.623047"/>
      <use xlink:href="#DejaVuSans-30" x="95.410156"/>
     </g>
    </g>
   </g>
   <g id="xtick_6">
    <g id="line2d_7">
     <path d="M 129.274109 248.452052 
L 127.299358 250.36339 
" style="fill: none; stroke: #000000; stroke-width: 0.8; stroke-linecap: square"/>
    </g>
    <g id="text_7">
     <!-- 0.5 -->
     <g transform="translate(113.898042 274.438745) scale(0.1 -0.1)">
      <use xlink:href="#DejaVuSans-30"/>
      <use xlink:href="#DejaVuSans-2e" x="63.623047"/>
      <use xlink:href="#DejaVuSans-35" x="95.410156"/>
     </g>
    </g>
   </g>
   <g id="xtick_7">
    <g id="line2d_8">
     <path d="M 146.098901 253.990808 
L 144.146847 255.924705 
" style="fill: none; stroke: #000000; stroke-width: 0.8; stroke-linecap: square"/>
    </g>
    <g id="text_8">
     <!-- 1.0 -->
     <g transform="translate(130.730113 280.102723) scale(0.1 -0.1)">
      <use xlink:href="#DejaVuSans-31"/>
      <use xlink:href="#DejaVuSans-2e" x="63.623047"/>
      <use xlink:href="#DejaVuSans-30" x="95.410156"/>
     </g>
    </g>
   </g>
   <g id="xtick_8">
    <g id="line2d_9">
     <path d="M 163.122655 259.595062 
L 161.193976 261.55192 
" style="fill: none; stroke: #000000; stroke-width: 0.8; stroke-linecap: square"/>
    </g>
    <g id="text_9">
     <!-- 1.5 -->
     <g transform="translate(147.761841 285.833885) scale(0.1 -0.1)">
      <use xlink:href="#DejaVuSans-31"/>
      <use xlink:href="#DejaVuSans-2e" x="63.623047"/>
      <use xlink:href="#DejaVuSans-35" x="95.410156"/>
     </g>
    </g>
   </g>
  </g>
  <g id="axis3d_2">
   <g id="line2d_10">
    <path d="M 247.299674 188.383675 
L 173.947415 264.024759 
" style="fill: none; stroke: #000000; stroke-width: 0.8; stroke-linecap: square"/>
   </g>
   <g id="text_10">
    <!-- y -->
    <g transform="translate(233.680665 258.992768) scale(0.1 -0.1)">
     <defs>
      <path id="DejaVuSans-79" d="M 2059 -325 
Q 1816 -950 1584 -1140 
Q 1353 -1331 966 -1331 
L 506 -1331 
L 506 -850 
L 844 -850 
Q 1081 -850 1212 -737 
Q 1344 -625 1503 -206 
L 1606 56 
L 191 3500 
L 800 3500 
L 1894 763 
L 2988 3500 
L 3597 3500 
L 2059 -325 
z
" transform="scale(0.015625)"/>
     </defs>
     <use xlink:href="#DejaVuSans-79"/>
    </g>
   </g>
   <g id="Line3DCollection_2">
    <path d="M 37.759735 74.949057 
L 43.501824 213.135388 
L 180.044574 257.737349 
" style="fill: none; stroke: #b0b0b0; stroke-width: 0.8"/>
    <path d="M 48.617625 67.111644 
L 53.722317 204.384816 
L 189.381071 248.109523 
" style="fill: none; stroke: #b0b0b0; stroke-width: 0.8"/>
    <path d="M 59.256364 59.432419 
L 63.747474 195.801487 
L 198.530529 238.674573 
" style="fill: none; stroke: #b0b0b0; stroke-width: 0.8"/>
    <path d="M 69.682521 51.906639 
L 73.582844 187.38065 
L 207.498512 229.42676 
" style="fill: none; stroke: #b0b0b0; stroke-width: 0.8"/>
    <path d="M 79.902403 44.529751 
L 83.233765 179.117734 
L 216.290368 220.360571 
" style="fill: none; stroke: #b0b0b0; stroke-width: 0.8"/>
    <path d="M 89.922073 37.297381 
L 92.705377 171.008338 
L 224.911233 211.470707 
" style="fill: none; stroke: #b0b0b0; stroke-width: 0.8"/>
    <path d="M 99.747357 30.205321 
L 102.002631 163.048224 
L 233.366048 202.752075 
" style="fill: none; stroke: #b0b0b0; stroke-width: 0.8"/>
    <path d="M 109.383857 23.249529 
L 111.130299 155.233306 
L 241.659565 194.199773 
" style="fill: none; stroke: #b0b0b0; stroke-width: 0.8"/>
   </g>
   <g id="xtick_9">
    <g id="line2d_11">
     <path d="M 178.898964 257.363133 
L 182.3385 258.486665 
" style="fill: none; stroke: #000000; stroke-width: 0.8; stroke-linecap: square"/>
    </g>
    <g id="text_11">
     <!-- −2.0 -->
     <g transform="translate(179.611702 280.377326) scale(0.1 -0.1)">
      <use xlink:href="#DejaVuSans-2212"/>
      <use xlink:href="#DejaVuSans-32" x="83.789062"/>
      <use xlink:href="#DejaVuSans-2e" x="147.412109"/>
      <use xlink:href="#DejaVuSans-30" x="179.199219"/>
     </g>
    </g>
   </g>
   <g id="xtick_10">
    <g id="line2d_12">
     <path d="M 188.243413 247.742841 
L 191.659047 248.843747 
" style="fill: none; stroke: #000000; stroke-width: 0.8; stroke-linecap: square"/>
    </g>
    <g id="text_12">
     <!-- −1.5 -->
     <g transform="translate(188.823977 270.603419) scale(0.1 -0.1)">
      <use xlink:href="#DejaVuSans-2212"/>
      <use xlink:href="#DejaVuSans-31" x="83.789062"/>
      <use xlink:href="#DejaVuSans-2e" x="147.412109"/>
      <use xlink:href="#DejaVuSans-35" x="179.199219"/>
     </g>
    </g>
   </g>
   <g id="xtick_11">
    <g id="line2d_13">
     <path d="M 197.400736 238.315198 
L 200.79273 239.394156 
" style="fill: none; stroke: #000000; stroke-width: 0.8; stroke-linecap: square"/>
    </g>
    <g id="text_13">
     <!-- −1.0 -->
     <g transform="translate(197.851815 261.025192) scale(0.1 -0.1)">
      <use xlink:href="#DejaVuSans-2212"/>
      <use xlink:href="#DejaVuSans-31" x="83.789062"/>
      <use xlink:href="#DejaVuSans-2e" x="147.412109"/>
      <use xlink:href="#DejaVuSans-30" x="179.199219"/>
     </g>
    </g>
   </g>
   <g id="xtick_12">
    <g id="line2d_14">
     <path d="M 206.376498 229.074476 
L 209.745113 230.132135 
" style="fill: none; stroke: #000000; stroke-width: 0.8; stroke-linecap: square"/>
    </g>
    <g id="text_14">
     <!-- −0.5 -->
     <g transform="translate(206.700701 251.636828) scale(0.1 -0.1)">
      <use xlink:href="#DejaVuSans-2212"/>
      <use xlink:href="#DejaVuSans-30" x="83.789062"/>
      <use xlink:href="#DejaVuSans-2e" x="147.412109"/>
      <use xlink:href="#DejaVuSans-35" x="179.199219"/>
     </g>
    </g>
   </g>
   <g id="xtick_13">
    <g id="line2d_15">
     <path d="M 215.176045 220.01517 
L 218.521542 221.052156 
" style="fill: none; stroke: #000000; stroke-width: 0.8; stroke-linecap: square"/>
    </g>
    <g id="text_15">
     <!-- 0.0 -->
     <g transform="translate(219.565747 242.432737) scale(0.1 -0.1)">
      <use xlink:href="#DejaVuSans-30"/>
      <use xlink:href="#DejaVuSans-2e" x="63.623047"/>
      <use xlink:href="#DejaVuSans-30" x="95.410156"/>
     </g>
    </g>
   </g>
   <g id="xtick_14">
    <g id="line2d_16">
     <path d="M 223.804517 211.13199 
L 227.127152 212.148902 
" style="fill: none; stroke: #000000; stroke-width: 0.8; stroke-linecap: square"/>
    </g>
    <g id="text_16">
     <!-- 0.5 -->
     <g transform="translate(228.072329 233.407546) scale(0.1 -0.1)">
      <use xlink:href="#DejaVuSans-30"/>
      <use xlink:href="#DejaVuSans-2e" x="63.623047"/>
      <use xlink:href="#DejaVuSans-35" x="95.410156"/>
     </g>
    </g>
   </g>
   <g id="xtick_15">
    <g id="line2d_17">
     <path d="M 232.266854 202.419849 
L 235.566884 203.417265 
" style="fill: none; stroke: #000000; stroke-width: 0.8; stroke-linecap: square"/>
    </g>
    <g id="text_17">
     <!-- 1.0 -->
     <g transform="translate(236.41516 224.556089) scale(0.1 -0.1)">
      <use xlink:href="#DejaVuSans-31"/>
      <use xlink:href="#DejaVuSans-2e" x="63.623047"/>
      <use xlink:href="#DejaVuSans-30" x="95.410156"/>
     </g>
    </g>
   </g>
   <g id="xtick_16">
    <g id="line2d_18">
     <path d="M 240.567808 193.873855 
L 243.845486 194.852329 
" style="fill: none; stroke: #000000; stroke-width: 0.8; stroke-linecap: square"/>
    </g>
    <g id="text_18">
     <!-- 1.5 -->
     <g transform="translate(244.598923 215.873398) scale(0.1 -0.1)">
      <use xlink:href="#DejaVuSans-31"/>
      <use xlink:href="#DejaVuSans-2e" x="63.623047"/>
      <use xlink:href="#DejaVuSans-35" x="95.410156"/>
     </g>
    </g>
   </g>
  </g>
  <g id="axis3d_3">
   <g id="line2d_19">
    <path d="M 247.299674 188.383675 
L 253.048471 52.802633 
" style="fill: none; stroke: #000000; stroke-width: 0.8; stroke-linecap: square"/>
   </g>
   <g id="text_19">
    <!-- z -->
    <g transform="translate(284.911397 120.169327) scale(0.1 -0.1)">
     <defs>
      <path id="DejaVuSans-7a" d="M 353 3500 
L 3084 3500 
L 3084 2975 
L 922 459 
L 3084 459 
L 3084 0 
L 275 0 
L 275 525 
L 2438 3041 
L 353 3041 
L 353 3500 
z
" transform="scale(0.015625)"/>
     </defs>
     <use xlink:href="#DejaVuSans-7a"/>
    </g>
   </g>
   <g id="Line3DCollection_3">
    <path d="M 247.408712 185.812104 
L 117.315368 147.416798 
L 36.715905 216.218187 
" style="fill: none; stroke: #b0b0b0; stroke-width: 0.8"/>
    <path d="M 248.067796 170.268108 
L 117.153892 132.321776 
L 36.010314 200.333602 
" style="fill: none; stroke: #b0b0b0; stroke-width: 0.8"/>
    <path d="M 248.735323 154.524987 
L 116.99044 117.041923 
L 35.295367 184.238401 
" style="fill: none; stroke: #b0b0b0; stroke-width: 0.8"/>
    <path d="M 249.411456 138.578888 
L 116.824973 101.573824 
L 34.570878 167.928366 
" style="fill: none; stroke: #b0b0b0; stroke-width: 0.8"/>
    <path d="M 250.096364 122.425861 
L 116.657455 85.913979 
L 33.836653 151.399168 
" style="fill: none; stroke: #b0b0b0; stroke-width: 0.8"/>
    <path d="M 250.790217 106.061851 
L 116.487848 70.058799 
L 33.092496 134.646359 
" style="fill: none; stroke: #b0b0b0; stroke-width: 0.8"/>
    <path d="M 251.493193 89.482699 
L 116.316112 54.004607 
L 32.338202 117.66537 
" style="fill: none; stroke: #b0b0b0; stroke-width: 0.8"/>
    <path d="M 252.205472 72.684132 
L 116.142206 37.747632 
L 31.573565 100.451509 
" style="fill: none; stroke: #b0b0b0; stroke-width: 0.8"/>
    <path d="M 252.92724 55.661767 
L 115.96609 21.284009 
L 30.798369 82.99995 
" style="fill: none; stroke: #b0b0b0; stroke-width: 0.8"/>
   </g>
   <g id="xtick_17">
    <g id="line2d_20">
     <path d="M 246.320862 185.491039 
L 249.586798 186.454936 
" style="fill: none; stroke: #000000; stroke-width: 0.8; stroke-linecap: square"/>
    </g>
    <g id="text_20">
     <!-- −3.0 -->
     <g transform="translate(252.118224 190.978705) scale(0.1 -0.1)">
      <defs>
       <path id="DejaVuSans-33" d="M 2597 2516 
Q 3050 2419 3304 2112 
Q 3559 1806 3559 1356 
Q 3559 666 3084 287 
Q 2609 -91 1734 -91 
Q 1441 -91 1130 -33 
Q 819 25 488 141 
L 488 750 
Q 750 597 1062 519 
Q 1375 441 1716 441 
Q 2309 441 2620 675 
Q 2931 909 2931 1356 
Q 2931 1769 2642 2001 
Q 2353 2234 1838 2234 
L 1294 2234 
L 1294 2753 
L 1863 2753 
Q 2328 2753 2575 2939 
Q 2822 3125 2822 3475 
Q 2822 3834 2567 4026 
Q 2313 4219 1838 4219 
Q 1578 4219 1281 4162 
Q 984 4106 628 3988 
L 628 4550 
Q 988 4650 1302 4700 
Q 1616 4750 1894 4750 
Q 2613 4750 3031 4423 
Q 3450 4097 3450 3541 
Q 3450 3153 3228 2886 
Q 3006 2619 2597 2516 
z
" transform="scale(0.015625)"/>
      </defs>
      <use xlink:href="#DejaVuSans-2212"/>
      <use xlink:href="#DejaVuSans-33" x="83.789062"/>
      <use xlink:href="#DejaVuSans-2e" x="147.412109"/>
      <use xlink:href="#DejaVuSans-30" x="179.199219"/>
     </g>
    </g>
   </g>
   <g id="xtick_18">
    <g id="line2d_21">
     <path d="M 246.972782 169.950711 
L 250.260239 170.903604 
" style="fill: none; stroke: #000000; stroke-width: 0.8; stroke-linecap: square"/>
    </g>
    <g id="text_21">
     <!-- −2.5 -->
     <g transform="translate(252.882423 175.462521) scale(0.1 -0.1)">
      <use xlink:href="#DejaVuSans-2212"/>
      <use xlink:href="#DejaVuSans-32" x="83.789062"/>
      <use xlink:href="#DejaVuSans-2e" x="147.412109"/>
      <use xlink:href="#DejaVuSans-35" x="179.199219"/>
     </g>
    </g>
   </g>
   <g id="xtick_19">
    <g id="line2d_22">
     <path d="M 247.633051 154.211376 
L 250.942314 155.152903 
" style="fill: none; stroke: #000000; stroke-width: 0.8; stroke-linecap: square"/>
    </g>
    <g id="text_22">
     <!-- −2.0 -->
     <g transform="translate(253.656384 159.748123) scale(0.1 -0.1)">
      <use xlink:href="#DejaVuSans-2212"/>
      <use xlink:href="#DejaVuSans-32" x="83.789062"/>
      <use xlink:href="#DejaVuSans-2e" x="147.412109"/>
      <use xlink:href="#DejaVuSans-30" x="179.199219"/>
     </g>
    </g>
   </g>
   <g id="xtick_20">
    <g id="line2d_23">
     <path d="M 248.30183 138.269189 
L 251.633189 139.198976 
" style="fill: none; stroke: #000000; stroke-width: 0.8; stroke-linecap: square"/>
    </g>
    <g id="text_23">
     <!-- −1.5 -->
     <g transform="translate(254.440296 143.831689) scale(0.1 -0.1)">
      <use xlink:href="#DejaVuSans-2212"/>
      <use xlink:href="#DejaVuSans-31" x="83.789062"/>
      <use xlink:href="#DejaVuSans-2e" x="147.412109"/>
      <use xlink:href="#DejaVuSans-35" x="179.199219"/>
     </g>
    </g>
   </g>
   <g id="xtick_21">
    <g id="line2d_24">
     <path d="M 248.979284 122.120203 
L 252.333036 123.037864 
" style="fill: none; stroke: #000000; stroke-width: 0.8; stroke-linecap: square"/>
    </g>
    <g id="text_24">
     <!-- −1.0 -->
     <g transform="translate(255.234352 127.709298) scale(0.1 -0.1)">
      <use xlink:href="#DejaVuSans-2212"/>
      <use xlink:href="#DejaVuSans-31" x="83.789062"/>
      <use xlink:href="#DejaVuSans-2e" x="147.412109"/>
      <use xlink:href="#DejaVuSans-30" x="179.199219"/>
     </g>
    </g>
   </g>
   <g id="xtick_22">
    <g id="line2d_25">
     <path d="M 249.665583 105.760365 
L 253.042031 106.665505 
" style="fill: none; stroke: #000000; stroke-width: 0.8; stroke-linecap: square"/>
    </g>
    <g id="text_25">
     <!-- −0.5 -->
     <g transform="translate(256.03875 111.376926) scale(0.1 -0.1)">
      <use xlink:href="#DejaVuSans-2212"/>
      <use xlink:href="#DejaVuSans-30" x="83.789062"/>
      <use xlink:href="#DejaVuSans-2e" x="147.412109"/>
      <use xlink:href="#DejaVuSans-35" x="179.199219"/>
     </g>
    </g>
   </g>
   <g id="xtick_23">
    <g id="line2d_26">
     <path d="M 250.360902 89.185522 
L 253.760355 90.07773 
" style="fill: none; stroke: #000000; stroke-width: 0.8; stroke-linecap: square"/>
    </g>
    <g id="text_26">
     <!-- 0.0 -->
     <g transform="translate(261.043536 94.830444) scale(0.1 -0.1)">
      <use xlink:href="#DejaVuSans-30"/>
      <use xlink:href="#DejaVuSans-2e" x="63.623047"/>
      <use xlink:href="#DejaVuSans-30" x="95.410156"/>
     </g>
    </g>
   </g>
   <g id="xtick_24">
    <g id="line2d_27">
     <path d="M 251.065419 72.391405 
L 254.488192 73.270258 
" style="fill: none; stroke: #000000; stroke-width: 0.8; stroke-linecap: square"/>
    </g>
    <g id="text_27">
     <!-- 0.5 -->
     <g transform="translate(261.869233 78.065613) scale(0.1 -0.1)">
      <use xlink:href="#DejaVuSans-30"/>
      <use xlink:href="#DejaVuSans-2e" x="63.623047"/>
      <use xlink:href="#DejaVuSans-35" x="95.410156"/>
     </g>
    </g>
   </g>
   <g id="xtick_25">
    <g id="line2d_28">
     <path d="M 251.779319 55.373634 
L 255.225734 56.238697 
" style="fill: none; stroke: #000000; stroke-width: 0.8; stroke-linecap: square"/>
    </g>
    <g id="text_28">
     <!-- 1.0 -->
     <g transform="translate(262.705899 61.078083) scale(0.1 -0.1)">
      <use xlink:href="#DejaVuSans-31"/>
      <use xlink:href="#DejaVuSans-2e" x="63.623047"/>
      <use xlink:href="#DejaVuSans-30" x="95.410156"/>
     </g>
    </g>
   </g>
  </g>
  <g id="axes_1">
   <g id="Poly3DCollection_1">
    <path d="M 173.74815 132.823911 
L 195.516049 160.925328 
L 207.824076 128.257667 
L 186.165503 100.240639 
z
" clip-path="url(#pa7abdaf92c)" style="fill: #fdff99"/>
    <path d="M 151.929089 104.656446 
L 173.74815 132.823911 
L 186.165503 100.240639 
L 164.456248 72.158048 
z
" clip-path="url(#pa7abdaf92c)" style="fill: #805c54"/>
    <path d="M 130.058684 76.422699 
L 151.929089 104.656446 
L 164.456248 72.158048 
L 142.696131 44.009664 
z
" clip-path="url(#pa7abdaf92c)" style="fill: #ffffff"/>
    <path d="M 161.221525 165.693913 
L 183.09984 193.880122 
L 195.516049 160.925328 
L 173.74815 132.823911 
z
" clip-path="url(#pa7abdaf92c)" style="fill: #00cb6b"/>
    <path d="M 139.291562 137.441164 
L 161.221525 165.693913 
L 173.74815 132.823911 
L 151.929089 104.656446 
z
" clip-path="url(#pa7abdaf92c)" style="fill: #fdff99"/>
    <path d="M 117.309767 109.12164 
L 139.291562 137.441164 
L 151.929089 104.656446 
L 130.058684 76.422699 
z
" clip-path="url(#pa7abdaf92c)" style="fill: #805c54"/>
    <path d="M 148.58418 198.854446 
L 170.574017 227.125853 
L 183.09984 193.880122 
L 161.221525 165.693913 
z
" clip-path="url(#pa7abdaf92c)" style="fill: #333399"/>
    <path d="M 126.542202 170.516004 
L 148.58418 198.854446 
L 161.221525 165.693913 
L 139.291562 137.441164 
z
" clip-path="url(#pa7abdaf92c)" style="fill: #00cb6b"/>
    <path d="M 104.447897 142.110286 
L 126.542202 170.516004 
L 139.291562 137.441164 
L 117.309767 109.12164 
z
" clip-path="url(#pa7abdaf92c)" style="fill: #fdff99"/>
   </g>
   <g id="Poly3DCollection_2">
    <path d="M 108.128248 144.17962 
L 108.451119 141.236205 
L 98.086803 141.782649 
L 98.717705 144.677517 
z
" clip-path="url(#pa7abdaf92c)" style="fill: #fff6f6"/>
    <path d="M 108.451119 141.236205 
L 108.67674 138.313305 
L 97.610443 138.894727 
L 98.086803 141.782649 
z
" clip-path="url(#pa7abdaf92c)" style="fill: #ffa8a8"/>
    <path d="M 107.715764 147.073847 
L 108.128248 144.17962 
L 98.717705 144.677517 
L 99.488169 147.510648 
z
" clip-path="url(#pa7abdaf92c)" style="fill: #c0c0ff"/>
    <path d="M 108.67674 138.313305 
L 108.799681 135.48021 
L 97.300089 136.082344 
L 97.610443 138.894727 
z
" clip-path="url(#pa7abdaf92c)" style="fill: #ff5656"/>
    <path d="M 107.223352 149.850222 
L 107.715764 147.073847 
L 99.488169 147.510648 
L 100.380015 150.214721 
z
" clip-path="url(#pa7abdaf92c)" style="fill: #8282ff"/>
    <path d="M 116.22109 146.566616 
L 117.367413 143.856545 
L 108.451119 141.236205 
L 108.128248 144.17962 
z
" clip-path="url(#pa7abdaf92c)" style="fill: #fff6f6"/>
    <path d="M 114.788083 149.167347 
L 116.22109 146.566616 
L 108.128248 144.17962 
L 107.715764 147.073847 
z
" clip-path="url(#pa7abdaf92c)" style="fill: #c0c0ff"/>
    <path d="M 108.799681 135.48021 
L 108.816843 132.804343 
L 97.163434 133.412563 
L 97.300089 136.082344 
z
" clip-path="url(#pa7abdaf92c)" style="fill: #ff0000"/>
    <path d="M 106.662551 152.442562 
L 107.223352 149.850222 
L 100.380015 150.214721 
L 101.372236 152.725198 
z
" clip-path="url(#pa7abdaf92c)" style="fill: #5050ff"/>
    <path d="M 117.367413 143.856545 
L 118.199433 141.101838 
L 108.67674 138.313305 
L 108.451119 141.236205 
z
" clip-path="url(#pa7abdaf92c)" style="fill: #ffa8a8"/>
    <path d="M 113.102633 151.596615 
L 114.788083 149.167347 
L 107.715764 147.073847 
L 107.223352 149.850222 
z
" clip-path="url(#pa7abdaf92c)" style="fill: #8282ff"/>
    <path d="M 118.199433 141.101838 
L 118.696763 138.368383 
L 108.799681 135.48021 
L 108.67674 138.313305 
z
" clip-path="url(#pa7abdaf92c)" style="fill: #ff5656"/>
    <path d="M 111.204847 153.796228 
L 113.102633 151.596615 
L 107.223352 149.850222 
L 106.662551 152.442562 
z
" clip-path="url(#pa7abdaf92c)" style="fill: #5050ff"/>
    <path d="M 99.488169 147.510648 
L 98.717705 144.677517 
L 91.502543 147.87883 
L 93.185747 150.317578 
z
" clip-path="url(#pa7abdaf92c)" style="fill: #c0c0ff"/>
    <path d="M 98.717705 144.677517 
L 98.086803 141.782649 
L 90.13448 145.29768 
L 91.502543 147.87883 
z
" clip-path="url(#pa7abdaf92c)" style="fill: #fff6f6"/>
    <path d="M 100.380015 150.214721 
L 99.488169 147.510648 
L 93.185747 150.317578 
L 95.143526 152.555513 
z
" clip-path="url(#pa7abdaf92c)" style="fill: #8282ff"/>
    <path d="M 106.046529 154.78859 
L 106.662551 152.442562 
L 101.372236 152.725198 
L 102.441425 154.98172 
z
" clip-path="url(#pa7abdaf92c)" style="fill: #2828ff"/>
    <path d="M 98.086803 141.782649 
L 97.610443 138.894727 
L 89.114823 142.635981 
L 90.13448 145.29768 
z
" clip-path="url(#pa7abdaf92c)" style="fill: #ffa8a8"/>
    <path d="M 118.696763 138.368383 
L 118.846747 135.721815 
L 108.816843 132.804343 
L 108.799681 135.48021 
z
" clip-path="url(#pa7abdaf92c)" style="fill: #ff0000"/>
    <path d="M 101.372236 152.725198 
L 100.380015 150.214721 
L 95.143526 152.555513 
L 97.328927 154.538949 
z
" clip-path="url(#pa7abdaf92c)" style="fill: #5050ff"/>
    <path d="M 109.139854 155.713199 
L 111.204847 153.796228 
L 106.662551 152.442562 
L 106.046529 154.78859 
z
" clip-path="url(#pa7abdaf92c)" style="fill: #2828ff"/>
    <path d="M 97.610443 138.894727 
L 97.300089 136.082344 
L 88.468756 139.957667 
L 89.114823 142.635981 
z
" clip-path="url(#pa7abdaf92c)" style="fill: #ff5656"/>
    <path d="M 102.441425 154.98172 
L 101.372236 152.725198 
L 97.328927 154.538949 
L 99.689644 156.220108 
z
" clip-path="url(#pa7abdaf92c)" style="fill: #2828ff"/>
    <path d="M 105.389815 156.831312 
L 106.046529 154.78859 
L 102.441425 154.98172 
L 103.562254 156.929449 
z
" clip-path="url(#pa7abdaf92c)" style="fill: #0c0cff"/>
    <path d="M 106.956842 157.30094 
L 109.139854 155.713199 
L 106.046529 154.78859 
L 105.389815 156.831312 
z
" clip-path="url(#pa7abdaf92c)" style="fill: #0c0cff"/>
    <path d="M 97.300089 136.082344 
L 97.163434 133.412563 
L 88.21276 137.327337 
L 88.468756 139.957667 
z
" clip-path="url(#pa7abdaf92c)" style="fill: #ff0000"/>
    <path d="M 103.562254 156.929449 
L 102.441425 154.98172 
L 99.689644 156.220108 
L 102.169164 157.558196 
z
" clip-path="url(#pa7abdaf92c)" style="fill: #0c0cff"/>
    <path d="M 113.276758 156.280716 
L 115.79338 154.806179 
L 113.102633 151.596615 
L 111.204847 153.796228 
z
" clip-path="url(#pa7abdaf92c)" style="fill: #5050ff"/>
    <path d="M 115.79338 154.806179 
L 118.034478 153.019407 
L 114.788083 149.167347 
L 113.102633 151.596615 
z
" clip-path="url(#pa7abdaf92c)" style="fill: #8282ff"/>
    <path d="M 110.545705 157.407758 
L 113.276758 156.280716 
L 111.204847 153.796228 
L 109.139854 155.713199 
z
" clip-path="url(#pa7abdaf92c)" style="fill: #2828ff"/>
    <path d="M 118.034478 153.019407 
L 119.945338 150.963179 
L 116.22109 146.566616 
L 114.788083 149.167347 
z
" clip-path="url(#pa7abdaf92c)" style="fill: #c0c0ff"/>
    <path d="M 107.666282 158.160333 
L 110.545705 157.407758 
L 109.139854 155.713199 
L 106.956842 157.30094 
z
" clip-path="url(#pa7abdaf92c)" style="fill: #0c0cff"/>
    <path d="M 104.708003 158.520346 
L 105.389815 156.831312 
L 103.562254 156.929449 
L 104.708003 158.520346 
z
" clip-path="url(#pa7abdaf92c)" style="fill: #0000ff"/>
    <path d="M 104.708003 158.520346 
L 106.956842 157.30094 
L 105.389815 156.831312 
L 104.708003 158.520346 
z
" clip-path="url(#pa7abdaf92c)" style="fill: #0000ff"/>
    <path d="M 104.708003 158.520346 
L 103.562254 156.929449 
L 102.169164 157.558196 
L 104.708003 158.520346 
z
" clip-path="url(#pa7abdaf92c)" style="fill: #0000ff"/>
    <path d="M 119.945338 150.963179 
L 121.478933 148.686861 
L 117.367413 143.856545 
L 116.22109 146.566616 
z
" clip-path="url(#pa7abdaf92c)" style="fill: #fff6f6"/>
    <path d="M 99.689644 156.220108 
L 97.328927 154.538949 
L 96.073541 157.204354 
L 98.840675 158.036924 
z
" clip-path="url(#pa7abdaf92c)" style="fill: #2828ff"/>
    <path d="M 102.169164 157.558196 
L 99.689644 156.220108 
L 98.840675 158.036924 
L 101.742252 158.478984 
z
" clip-path="url(#pa7abdaf92c)" style="fill: #0c0cff"/>
    <path d="M 104.708003 158.520346 
L 107.666282 158.160333 
L 106.956842 157.30094 
L 104.708003 158.520346 
z
" clip-path="url(#pa7abdaf92c)" style="fill: #0000ff"/>
    <path d="M 97.328927 154.538949 
L 95.143526 152.555513 
L 93.50813 156.000785 
L 96.073541 157.204354 
z
" clip-path="url(#pa7abdaf92c)" style="fill: #5050ff"/>
    <path d="M 104.708003 158.520346 
L 102.169164 157.558196 
L 101.742252 158.478984 
L 104.708003 158.520346 
z
" clip-path="url(#pa7abdaf92c)" style="fill: #0000ff"/>
    <path d="M 121.478933 148.686861 
L 122.597074 146.245306 
L 118.199433 141.101838 
L 117.367413 143.856545 
z
" clip-path="url(#pa7abdaf92c)" style="fill: #ffa8a8"/>
    <path d="M 95.143526 152.555513 
L 93.185747 150.317578 
L 91.207159 154.454666 
L 93.50813 156.000785 
z
" clip-path="url(#pa7abdaf92c)" style="fill: #8282ff"/>
    <path d="M 104.708003 158.520346 
L 107.245018 159.082425 
L 107.666282 158.160333 
L 104.708003 158.520346 
z
" clip-path="url(#pa7abdaf92c)" style="fill: #0000ff"/>
    <path d="M 104.708003 158.520346 
L 101.742252 158.478984 
L 102.447404 159.340758 
L 104.708003 158.520346 
z
" clip-path="url(#pa7abdaf92c)" style="fill: #0000ff"/>
    <path d="M 93.185747 150.317578 
L 91.502543 147.87883 
L 89.227282 152.6028 
L 91.207159 154.454666 
z
" clip-path="url(#pa7abdaf92c)" style="fill: #c0c0ff"/>
    <path d="M 104.708003 158.520346 
L 105.851128 159.714359 
L 107.245018 159.082425 
L 104.708003 158.520346 
z
" clip-path="url(#pa7abdaf92c)" style="fill: #0000ff"/>
    <path d="M 107.245018 159.082425 
L 109.718783 159.229659 
L 110.545705 157.407758 
L 107.666282 158.160333 
z
" clip-path="url(#pa7abdaf92c)" style="fill: #0c0cff"/>
    <path d="M 104.708003 158.520346 
L 102.447404 159.340758 
L 104.017427 159.813162 
L 104.708003 158.520346 
z
" clip-path="url(#pa7abdaf92c)" style="fill: #0000ff"/>
    <path d="M 122.597074 146.245306 
L 123.271393 143.697626 
L 118.696763 138.368383 
L 118.199433 141.101838 
z
" clip-path="url(#pa7abdaf92c)" style="fill: #ff5656"/>
    <path d="M 104.708003 158.520346 
L 104.017427 159.813162 
L 105.851128 159.714359 
L 104.708003 158.520346 
z
" clip-path="url(#pa7abdaf92c)" style="fill: #0000ff"/>
    <path d="M 101.742252 158.478984 
L 98.840675 158.036924 
L 100.229779 159.740775 
L 102.447404 159.340758 
z
" clip-path="url(#pa7abdaf92c)" style="fill: #0c0cff"/>
    <path d="M 91.502543 147.87883 
L 90.13448 145.29768 
L 87.617699 150.489558 
L 89.227282 152.6028 
z
" clip-path="url(#pa7abdaf92c)" style="fill: #fff6f6"/>
    <path d="M 109.718783 159.229659 
L 112.068995 158.957093 
L 113.276758 156.280716 
L 110.545705 157.407758 
z
" clip-path="url(#pa7abdaf92c)" style="fill: #2828ff"/>
    <path d="M 123.271393 143.697626 
L 123.484114 141.105832 
L 118.846747 135.721815 
L 118.696763 138.368383 
z
" clip-path="url(#pa7abdaf92c)" style="fill: #ff0000"/>
    <path d="M 90.13448 145.29768 
L 89.114823 142.635981 
L 86.418901 148.165906 
L 87.617699 150.489558 
z
" clip-path="url(#pa7abdaf92c)" style="fill: #ffa8a8"/>
    <path d="M 105.851128 159.714359 
L 106.963881 160.480483 
L 109.718783 159.229659 
L 107.245018 159.082425 
z
" clip-path="url(#pa7abdaf92c)" style="fill: #0c0cff"/>
    <path d="M 112.068995 158.957093 
L 114.2379 158.269835 
L 115.79338 154.806179 
L 113.276758 156.280716 
z
" clip-path="url(#pa7abdaf92c)" style="fill: #5050ff"/>
    <path d="M 98.840675 158.036924 
L 96.073541 157.204354 
L 98.109277 159.70889 
L 100.229779 159.740775 
z
" clip-path="url(#pa7abdaf92c)" style="fill: #2828ff"/>
    <path d="M 102.447404 159.340758 
L 100.229779 159.740775 
L 103.334801 160.676212 
L 104.017427 159.813162 
z
" clip-path="url(#pa7abdaf92c)" style="fill: #0c0cff"/>
    <path d="M 104.017427 159.813162 
L 103.334801 160.676212 
L 106.963881 160.480483 
L 105.851128 159.714359 
z
" clip-path="url(#pa7abdaf92c)" style="fill: #0c0cff"/>
    <path d="M 89.114823 142.635981 
L 88.468756 139.957667 
L 85.661593 145.688257 
L 86.418901 148.165906 
z
" clip-path="url(#pa7abdaf92c)" style="fill: #ff5656"/>
    <path d="M 114.2379 158.269835 
L 116.1717 157.183086 
L 118.034478 153.019407 
L 115.79338 154.806179 
z
" clip-path="url(#pa7abdaf92c)" style="fill: #8282ff"/>
    <path d="M 96.073541 157.204354 
L 93.50813 156.000785 
L 96.138171 159.243939 
L 98.109277 159.70889 
z
" clip-path="url(#pa7abdaf92c)" style="fill: #5050ff"/>
    <path d="M 106.963881 160.480483 
L 108.018944 160.797676 
L 112.068995 158.957093 
L 109.718783 159.229659 
z
" clip-path="url(#pa7abdaf92c)" style="fill: #2828ff"/>
    <path d="M 88.468756 139.957667 
L 88.21276 137.327337 
L 85.365822 143.117161 
L 85.661593 145.688257 
z
" clip-path="url(#pa7abdaf92c)" style="fill: #ff0000"/>
    <path d="M 116.1717 157.183086 
L 117.821913 155.721932 
L 119.945338 150.963179 
L 118.034478 153.019407 
z
" clip-path="url(#pa7abdaf92c)" style="fill: #c0c0ff"/>
    <path d="M 100.229779 159.740775 
L 98.109277 159.70889 
L 102.676838 161.085921 
L 103.334801 160.676212 
z
" clip-path="url(#pa7abdaf92c)" style="fill: #2828ff"/>
    <path d="M 93.50813 156.000785 
L 91.207159 154.454666 
L 94.365577 158.35531 
L 96.138171 159.243939 
z
" clip-path="url(#pa7abdaf92c)" style="fill: #8282ff"/>
    <path d="M 103.334801 160.676212 
L 102.676838 161.085921 
L 108.018944 160.797676 
L 106.963881 160.480483 
z
" clip-path="url(#pa7abdaf92c)" style="fill: #2828ff"/>
    <path d="M 117.821913 155.721932 
L 119.146648 153.920894 
L 121.478933 148.686861 
L 119.945338 150.963179 
z
" clip-path="url(#pa7abdaf92c)" style="fill: #fff6f6"/>
    <path d="M 108.018944 160.797676 
L 108.990096 160.655583 
L 114.2379 158.269835 
L 112.068995 158.957093 
z
" clip-path="url(#pa7abdaf92c)" style="fill: #5050ff"/>
    <path d="M 91.207159 154.454666 
L 89.227282 152.6028 
L 92.836181 157.062915 
L 94.365577 158.35531 
z
" clip-path="url(#pa7abdaf92c)" style="fill: #c0c0ff"/>
    <path d="M 98.109277 159.70889 
L 96.138171 159.243939 
L 102.059849 161.02948 
L 102.676838 161.085921 
z
" clip-path="url(#pa7abdaf92c)" style="fill: #5050ff"/>
    <path d="M 119.146648 153.920894 
L 120.111759 151.823216 
L 122.597074 146.245306 
L 121.478933 148.686861 
z
" clip-path="url(#pa7abdaf92c)" style="fill: #ffa8a8"/>
    <path d="M 102.676838 161.085921 
L 102.059849 161.02948 
L 108.990096 160.655583 
L 108.018944 160.797676 
z
" clip-path="url(#pa7abdaf92c)" style="fill: #5050ff"/>
    <path d="M 108.990096 160.655583 
L 109.85288 160.055037 
L 116.1717 157.183086 
L 114.2379 158.269835 
z
" clip-path="url(#pa7abdaf92c)" style="fill: #8282ff"/>
    <path d="M 89.227282 152.6028 
L 87.617699 150.489558 
L 91.589052 155.396896 
L 92.836181 157.062915 
z
" clip-path="url(#pa7abdaf92c)" style="fill: #fff6f6"/>
    <path d="M 120.111759 151.823216 
L 120.69183 149.479919 
L 123.271393 143.697626 
L 122.597074 146.245306 
z
" clip-path="url(#pa7abdaf92c)" style="fill: #ff5656"/>
    <path d="M 96.138171 159.243939 
L 94.365577 158.35531 
L 101.499334 160.505431 
L 102.059849 161.02948 
z
" clip-path="url(#pa7abdaf92c)" style="fill: #8282ff"/>
    <path d="M 87.617699 150.489558 
L 86.418901 148.165906 
L 90.656535 153.397049 
L 91.589052 155.396896 
z
" clip-path="url(#pa7abdaf92c)" style="fill: #ffa8a8"/>
    <path d="M 120.69183 149.479919 
L 120.870968 146.948603 
L 123.484114 141.105832 
L 123.271393 143.697626 
z
" clip-path="url(#pa7abdaf92c)" style="fill: #ff0000"/>
    <path d="M 109.85288 160.055037 
L 110.58525 159.008299 
L 117.821913 155.721932 
L 116.1717 157.183086 
z
" clip-path="url(#pa7abdaf92c)" style="fill: #c0c0ff"/>
    <path d="M 102.059849 161.02948 
L 101.499334 160.505431 
L 109.85288 160.055037 
L 108.990096 160.655583 
z
" clip-path="url(#pa7abdaf92c)" style="fill: #8282ff"/>
    <path d="M 86.418901 148.165906 
L 85.661593 145.688257 
L 90.063296 151.111968 
L 90.656535 153.397049 
z
" clip-path="url(#pa7abdaf92c)" style="fill: #ff5656"/>
    <path d="M 94.365577 158.35531 
L 92.836181 157.062915 
L 101.00957 159.523977 
L 101.499334 160.505431 
z
" clip-path="url(#pa7abdaf92c)" style="fill: #c0c0ff"/>
    <path d="M 110.58525 159.008299 
L 111.168197 157.539008 
L 119.146648 153.920894 
L 117.821913 155.721932 
z
" clip-path="url(#pa7abdaf92c)" style="fill: #fff6f6"/>
    <path d="M 85.661593 145.688257 
L 85.365822 143.117161 
L 89.82555 148.597919 
L 90.063296 151.111968 
z
" clip-path="url(#pa7abdaf92c)" style="fill: #ff0000"/>
    <path d="M 101.499334 160.505431 
L 101.00957 159.523977 
L 110.58525 159.008299 
L 109.85288 160.055037 
z
" clip-path="url(#pa7abdaf92c)" style="fill: #c0c0ff"/>
    <path d="M 92.836181 157.062915 
L 91.589052 155.396896 
L 100.603217 158.107004 
L 101.00957 159.523977 
z
" clip-path="url(#pa7abdaf92c)" style="fill: #fff6f6"/>
    <path d="M 111.168197 157.539008 
L 111.586308 155.681812 
L 120.111759 151.823216 
L 119.146648 153.920894 
z
" clip-path="url(#pa7abdaf92c)" style="fill: #ffa8a8"/>
    <path d="M 101.00957 159.523977 
L 100.603217 158.107004 
L 111.168197 157.539008 
L 110.58525 159.008299 
z
" clip-path="url(#pa7abdaf92c)" style="fill: #fff6f6"/>
    <path d="M 91.589052 155.396896 
L 90.656535 153.397049 
L 100.290944 156.287766 
L 100.603217 158.107004 
z
" clip-path="url(#pa7abdaf92c)" style="fill: #ffa8a8"/>
    <path d="M 111.586308 155.681812 
L 111.828253 153.481675 
L 120.69183 149.479919 
L 120.111759 151.823216 
z
" clip-path="url(#pa7abdaf92c)" style="fill: #ff5656"/>
    <path d="M 100.603217 158.107004 
L 100.290944 156.287766 
L 111.586308 155.681812 
L 111.168197 157.539008 
z
" clip-path="url(#pa7abdaf92c)" style="fill: #ffa8a8"/>
    <path d="M 111.828253 153.481675 
L 111.887167 150.992852 
L 120.870968 146.948603 
L 120.69183 149.479919 
z
" clip-path="url(#pa7abdaf92c)" style="fill: #ff0000"/>
    <path d="M 90.656535 153.397049 
L 90.063296 151.111968 
L 100.081105 154.110243 
L 100.290944 156.287766 
z
" clip-path="url(#pa7abdaf92c)" style="fill: #ff5656"/>
    <path d="M 90.063296 151.111968 
L 89.82555 148.597919 
L 99.979462 151.628142 
L 100.081105 154.110243 
z
" clip-path="url(#pa7abdaf92c)" style="fill: #ff0000"/>
    <path d="M 100.290944 156.287766 
L 100.081105 154.110243 
L 111.828253 153.481675 
L 111.586308 155.681812 
z
" clip-path="url(#pa7abdaf92c)" style="fill: #ff5656"/>
    <path d="M 100.081105 154.110243 
L 99.979462 151.628142 
L 111.887167 150.992852 
L 111.828253 153.481675 
z
" clip-path="url(#pa7abdaf92c)" style="fill: #ff0000"/>
   </g>
   <g id="Line3DCollection_4">
    <path d="M 104.184311 125.480684 
L 101.618916 124.944833 
L 99.128918 124.834714 
L 96.776209 125.151649 
L 94.618787 125.886187 
L 92.709324 127.018499 
L 91.093922 128.519038 
L 89.811063 130.349431 
L 88.890797 132.463559 
L 88.354148 134.808791 
L 88.21276 137.327337 
" clip-path="url(#pa7abdaf92c)" style="fill: none; stroke: #ff0000; stroke-width: 1.5"/>
    <path d="M 104.184311 125.480684 
L 101.185759 125.842052 
L 98.267933 126.606714 
L 95.504104 127.755391 
L 92.963541 129.258993 
L 90.709682 131.079415 
L 88.79849 133.170583 
L 87.277022 135.479713 
L 86.182282 137.948739 
L 85.540347 140.515859 
L 85.365822 143.117161 
" clip-path="url(#pa7abdaf92c)" style="fill: none; stroke: #ff0000; stroke-width: 1.5"/>
    <path d="M 104.184311 125.480684 
L 101.899669 126.681791 
L 99.673588 128.268622 
L 97.562478 130.202163 
L 95.620041 132.434203 
L 93.895775 134.908583 
L 92.433591 137.562692 
L 91.270583 140.329183 
L 90.436006 143.137827 
L 89.950496 145.917458 
L 89.82555 148.597919 
" clip-path="url(#pa7abdaf92c)" style="fill: none; stroke: #ff0000; stroke-width: 1.5"/>
    <path d="M 104.184311 125.480684 
L 103.490166 127.142124 
L 102.817626 129.181069 
L 102.183835 131.547507 
L 101.605062 134.182449 
L 101.096233 137.019447 
L 100.670494 139.986384 
L 100.33883 143.007478 
L 100.109738 146.005419 
L 99.988986 148.903571 
L 99.979462 151.628142 
" clip-path="url(#pa7abdaf92c)" style="fill: none; stroke: #ff0000; stroke-width: 1.5"/>
    <path d="M 104.184311 125.480684 
L 105.348198 127.045846 
L 106.493138 128.990148 
L 107.59005 131.265891 
L 108.610893 133.816355 
L 109.529458 136.577268 
L 110.322121 139.478527 
L 110.968529 142.446141 
L 111.452184 145.404306 
L 111.760908 148.277549 
L 111.887167 150.992852 
" clip-path="url(#pa7abdaf92c)" style="fill: none; stroke: #ff0000; stroke-width: 1.5"/>
    <path d="M 104.184311 125.480684 
L 106.760898 126.430061 
L 109.283842 127.77008 
L 111.689406 129.467687 
L 113.916687 131.480479 
L 115.90928 133.757804 
L 117.616823 136.242118 
L 118.996367 138.87055 
L 120.013524 141.576619 
L 120.643354 144.292047 
L 120.870968 146.948603 
" clip-path="url(#pa7abdaf92c)" style="fill: none; stroke: #ff0000; stroke-width: 1.5"/>
    <path d="M 104.184311 125.480684 
L 107.188258 125.531555 
L 110.122219 125.993057 
L 112.912753 126.853099 
L 115.49029 128.08948 
L 117.790927 129.670539 
L 119.758041 131.556054 
L 121.343684 133.69836 
L 122.509706 136.043645 
L 123.228612 138.53338 
L 123.484114 141.105832 
" clip-path="url(#pa7abdaf92c)" style="fill: none; stroke: #ff0000; stroke-width: 1.5"/>
    <path d="M 104.184311 125.480684 
L 106.469944 124.694168 
L 108.699383 124.340327 
L 110.817325 124.426145 
L 112.771746 124.947511 
L 114.515166 125.889513 
L 116.005751 127.227015 
L 117.208233 128.925462 
L 118.094636 130.941882 
L 118.644807 133.226059 
L 118.846747 135.721815 
" clip-path="url(#pa7abdaf92c)" style="fill: none; stroke: #ff0000; stroke-width: 1.5"/>
    <path d="M 104.184311 125.480684 
L 104.882521 124.236575 
L 105.567335 123.438576 
L 106.221826 123.103898 
L 106.830023 123.238004 
L 107.377287 123.834754 
L 107.850636 124.876827 
L 108.239019 126.336408 
L 108.533523 128.176067 
L 108.727536 130.349825 
L 108.816843 132.804343 
" clip-path="url(#pa7abdaf92c)" style="fill: none; stroke: #ff0000; stroke-width: 1.5"/>
    <path d="M 104.184311 125.480684 
L 103.030794 124.332195 
L 101.916414 123.626929 
L 100.868646 123.379969 
L 99.912997 123.594798 
L 99.072409 124.263463 
L 98.366754 125.367037 
L 97.812426 126.876319 
L 97.422037 128.752745 
L 97.204205 130.949467 
L 97.163434 133.412563 
" clip-path="url(#pa7abdaf92c)" style="fill: none; stroke: #ff0000; stroke-width: 1.5"/>
    <path d="M 104.184311 125.480684 
L 101.618916 124.944833 
L 99.128918 124.834714 
L 96.776209 125.151649 
L 94.618787 125.886187 
L 92.709324 127.018499 
L 91.093922 128.519038 
L 89.811063 130.349431 
L 88.890797 132.463559 
L 88.354148 134.808791 
L 88.21276 137.327337 
" clip-path="url(#pa7abdaf92c)" style="fill: none; stroke: #ff0000; stroke-width: 1.5"/>
    <path d="M 104.184311 125.480684 
L 104.184311 125.480684 
L 104.184311 125.480684 
L 104.184311 125.480684 
L 104.184311 125.480684 
L 104.184311 125.480684 
L 104.184311 125.480684 
L 104.184311 125.480684 
L 104.184311 125.480684 
L 104.184311 125.480684 
L 104.184311 125.480684 
" clip-path="url(#pa7abdaf92c)" style="fill: none; stroke: #ff0000; stroke-width: 1.5"/>
    <path d="M 101.618916 124.944833 
L 101.185759 125.842052 
L 101.899669 126.681791 
L 103.490166 127.142124 
L 105.348198 127.045846 
L 106.760898 126.430061 
L 107.188258 125.531555 
L 106.469944 124.694168 
L 104.882521 124.236575 
L 103.030794 124.332195 
L 101.618916 124.944833 
" clip-path="url(#pa7abdaf92c)" style="fill: none; stroke: #ff0000; stroke-width: 1.5"/>
    <path d="M 99.128918 124.834714 
L 98.267933 126.606714 
L 99.673588 128.268622 
L 102.817626 129.181069 
L 106.493138 128.990148 
L 109.283842 127.77008 
L 110.122219 125.993057 
L 108.699383 124.340327 
L 105.567335 123.438576 
L 101.916414 123.626929 
L 99.128918 124.834714 
" clip-path="url(#pa7abdaf92c)" style="fill: none; stroke: #ff0000; stroke-width: 1.5"/>
    <path d="M 96.776209 125.151649 
L 95.504104 127.755391 
L 97.562478 130.202163 
L 102.183835 131.547507 
L 107.59005 131.265891 
L 111.689406 129.467687 
L 112.912753 126.853099 
L 110.817325 124.426145 
L 106.221826 123.103898 
L 100.868646 123.379969 
L 96.776209 125.151649 
" clip-path="url(#pa7abdaf92c)" style="fill: none; stroke: #ff0000; stroke-width: 1.5"/>
    <path d="M 94.618787 125.886187 
L 92.963541 129.258993 
L 95.620041 132.434203 
L 101.605062 134.182449 
L 108.610893 133.816355 
L 113.916687 131.480479 
L 115.49029 128.08948 
L 112.771746 124.947511 
L 106.830023 123.238004 
L 99.912997 123.594798 
L 94.618787 125.886187 
" clip-path="url(#pa7abdaf92c)" style="fill: none; stroke: #ff0000; stroke-width: 1.5"/>
    <path d="M 92.709324 127.018499 
L 90.709682 131.079415 
L 93.895775 134.908583 
L 101.096233 137.019447 
L 109.529458 136.577268 
L 115.90928 133.757804 
L 117.790927 129.670539 
L 114.515166 125.889513 
L 107.377287 123.834754 
L 99.072409 124.263463 
L 92.709324 127.018499 
" clip-path="url(#pa7abdaf92c)" style="fill: none; stroke: #ff0000; stroke-width: 1.5"/>
    <path d="M 91.093922 128.519038 
L 88.79849 133.170583 
L 92.433591 137.562692 
L 100.670494 139.986384 
L 110.322121 139.478527 
L 117.616823 136.242118 
L 119.758041 131.556054 
L 116.005751 127.227015 
L 107.850636 124.876827 
L 98.366754 125.367037 
L 91.093922 128.519038 
" clip-path="url(#pa7abdaf92c)" style="fill: none; stroke: #ff0000; stroke-width: 1.5"/>
    <path d="M 89.811063 130.349431 
L 87.277022 135.479713 
L 91.270583 140.329183 
L 100.33883 143.007478 
L 110.968529 142.446141 
L 118.996367 138.87055 
L 121.343684 133.69836 
L 117.208233 128.925462 
L 108.239019 126.336408 
L 97.812426 126.876319 
L 89.811063 130.349431 
" clip-path="url(#pa7abdaf92c)" style="fill: none; stroke: #ff0000; stroke-width: 1.5"/>
    <path d="M 88.890797 132.463559 
L 86.182282 137.948739 
L 90.436006 143.137827 
L 100.109738 146.005419 
L 111.452184 145.404306 
L 120.013524 141.576619 
L 122.509706 136.043645 
L 118.094636 130.941882 
L 108.533523 128.176067 
L 97.422037 128.752745 
L 88.890797 132.463559 
" clip-path="url(#pa7abdaf92c)" style="fill: none; stroke: #ff0000; stroke-width: 1.5"/>
    <path d="M 88.354148 134.808791 
L 85.540347 140.515859 
L 89.950496 145.917458 
L 99.988986 148.903571 
L 111.760908 148.277549 
L 120.643354 144.292047 
L 123.228612 138.53338 
L 118.644807 133.226059 
L 108.727536 130.349825 
L 97.204205 130.949467 
L 88.354148 134.808791 
" clip-path="url(#pa7abdaf92c)" style="fill: none; stroke: #ff0000; stroke-width: 1.5"/>
    <path d="M 88.21276 137.327337 
L 85.365822 143.117161 
L 89.82555 148.597919 
L 99.979462 151.628142 
L 111.887167 150.992852 
L 120.870968 146.948603 
L 123.484114 141.105832 
L 118.846747 135.721815 
L 108.816843 132.804343 
L 97.163434 133.412563 
L 88.21276 137.327337 
" clip-path="url(#pa7abdaf92c)" style="fill: none; stroke: #ff0000; stroke-width: 1.5"/>
   </g>
  </g>
 </g>
 <defs>
  <clipPath id="pa7abdaf92c">
   <rect x="7.2" y="7.2" width="266.112" height="266.112"/>
  </clipPath>
 </defs>
</svg>
