<?xml version="1.0" encoding="utf-8" standalone="no"?>
<!DOCTYPE svg PUBLIC "-//W3C//DTD SVG 1.1//EN"
  "http://www.w3.org/Graphics/SVG/1.1/DTD/svg11.dtd">
<svg xmlns:xlink="http://www.w3.org/1999/xlink" width="389.581038pt" height="300.989344pt" viewBox="0 0 389.581038 300.989344" xmlns="http://www.w3.org/2000/svg" version="1.1">
 <metadata>
  <rdf:RDF xmlns:dc="http://purl.org/dc/elements/1.1/" xmlns:cc="http://creativecommons.org/ns#" xmlns:rdf="http://www.w3.org/1999/02/22-rdf-syntax-ns#">
   <cc:Work>
    <dc:type rdf:resource="http://purl.org/dc/dcmitype/StillImage"/>
    <dc:date>2024-08-24T09:21:03.719300</dc:date>
    <dc:format>image/svg+xml</dc:format>
    <dc:creator>
     <cc:Agent>
      <dc:title>Matplotlib v3.6.3, https://matplotlib.org/</dc:title>
     </cc:Agent>
    </dc:creator>
   </cc:Work>
  </rdf:RDF>
 </metadata>
 <defs>
  <style type="text/css">*{stroke-linejoin: round; stroke-linecap: butt}</style>
 </defs>
 <g id="figure_1">
  <g id="patch_1">
   <path d="M 0 300.989344 
L 389.581038 300.989344 
L 389.581038 0 
L 0 0 
z
" style="fill: #ffffff"/>
  </g>
  <g id="axes_1">
   <g id="patch_2">
    <path d="M 38.482813 277.111219 
L 324.178813 277.111219 
L 324.178813 10.999219 
L 38.482813 10.999219 
z
" style="fill: #ffffff"/>
   </g>
   <g id="PathCollection_1">
    <path d="M 181.330813 210.583219 
L 181.330813 210.583219 
L 217.042813 199.495219 
L 240.850813 177.319219 
L 252.754813 144.055219 
L 252.754813 144.055219 
L 252.754813 144.055219 
L 240.850813 110.791219 
L 217.042813 88.615219 
L 181.330813 77.527219 
L 181.330813 77.527219 
L 181.330813 77.527219 
L 145.618813 88.615219 
L 121.810813 110.791219 
L 109.906813 144.055219 
L 109.906813 144.055219 
L 109.906813 144.055219 
L 121.810813 177.319219 
L 145.618813 199.495219 
L 181.330813 210.583219 
z
" clip-path="url(#pa3cd8ff63d)" style="fill: #fcaeae; fill-opacity: 0.8"/>
   </g>
   <g id="PathCollection_2">
    <path d="M 109.906813 210.583219 
L 145.618813 230.541619 
L 181.330813 237.194419 
L 217.042813 230.541619 
L 252.754813 210.583219 
L 252.754813 210.583219 
L 274.182013 177.319219 
L 281.324413 144.055219 
L 274.182013 110.791219 
L 252.754813 77.527219 
L 252.754813 77.527219 
L 217.042813 57.568819 
L 181.330813 50.916019 
L 145.618813 57.568819 
L 109.906813 77.527219 
L 109.906813 77.527219 
L 88.479613 110.791219 
L 81.337213 144.055219 
L 88.479613 177.319219 
L 109.906813 210.583219 
z
M 181.330813 210.583219 
L 145.618813 199.495219 
L 121.810813 177.319219 
L 109.906813 144.055219 
L 109.906813 144.055219 
L 109.906813 144.055219 
L 121.810813 110.791219 
L 145.618813 88.615219 
L 181.330813 77.527219 
L 181.330813 77.527219 
L 181.330813 77.527219 
L 217.042813 88.615219 
L 240.850813 110.791219 
L 252.754813 144.055219 
L 252.754813 144.055219 
L 252.754813 144.055219 
L 240.850813 177.319219 
L 217.042813 199.495219 
L 181.330813 210.583219 
L 181.330813 210.583219 
z
" clip-path="url(#pa3cd8ff63d)" style="fill: #da98d1; fill-opacity: 0.8"/>
   </g>
   <g id="PathCollection_3">
    <path d="M 145.618813 253.351219 
L 181.330813 258.103219 
L 217.042813 253.351219 
L 240.850813 243.847219 
L 252.754813 237.194419 
L 281.324413 210.583219 
L 288.466813 199.495219 
L 298.670241 177.319219 
L 303.771955 144.055219 
L 298.670241 110.791219 
L 288.466813 88.615219 
L 281.324413 77.527219 
L 252.754813 50.916019 
L 240.850813 44.263219 
L 217.042813 34.759219 
L 181.330813 30.007219 
L 145.618813 34.759219 
L 121.810813 44.263219 
L 109.906813 50.916019 
L 81.337213 77.527219 
L 74.194813 88.615219 
L 63.991384 110.791219 
L 58.88967 144.055219 
L 63.991384 177.319219 
L 74.194813 199.495219 
L 81.337213 210.583219 
L 109.906813 237.194419 
L 121.810813 243.847219 
z
M 109.906813 210.583219 
L 88.479613 177.319219 
L 81.337213 144.055219 
L 88.479613 110.791219 
L 109.906813 77.527219 
L 109.906813 77.527219 
L 145.618813 57.568819 
L 181.330813 50.916019 
L 217.042813 57.568819 
L 252.754813 77.527219 
L 252.754813 77.527219 
L 274.182013 110.791219 
L 281.324413 144.055219 
L 274.182013 177.319219 
L 252.754813 210.583219 
L 252.754813 210.583219 
L 217.042813 230.541619 
L 181.330813 237.194419 
L 145.618813 230.541619 
L 109.906813 210.583219 
z
" clip-path="url(#pa3cd8ff63d)" style="fill: #c45178; fill-opacity: 0.8"/>
   </g>
   <g id="PathCollection_4">
    <path d="M 109.906813 258.103219 
L 145.618813 272.359219 
L 181.330813 277.111219 
L 181.330813 277.111219 
L 181.330813 277.111219 
L 217.042813 272.359219 
L 252.754813 258.103219 
L 274.182013 243.847219 
L 288.466813 230.541619 
L 303.771955 210.583219 
L 319.077098 177.319219 
L 324.178813 144.055219 
L 324.178813 144.055219 
L 324.178813 144.055219 
L 319.077098 110.791219 
L 303.771955 77.527219 
L 288.466813 57.568819 
L 274.182013 44.263219 
L 252.754813 30.007219 
L 217.042813 15.751219 
L 181.330813 10.999219 
L 181.330813 10.999219 
L 181.330813 10.999219 
L 145.618813 15.751219 
L 109.906813 30.007219 
L 88.479613 44.263219 
L 74.194813 57.568819 
L 58.88967 77.527219 
L 43.584527 110.791219 
L 38.482813 144.055219 
L 38.482813 144.055219 
L 38.482813 144.055219 
L 43.584527 177.319219 
L 58.88967 210.583219 
L 74.194813 230.541619 
L 88.479613 243.847219 
z
M 121.810813 243.847219 
L 109.906813 237.194419 
L 81.337213 210.583219 
L 74.194813 199.495219 
L 63.991384 177.319219 
L 58.88967 144.055219 
L 63.991384 110.791219 
L 74.194813 88.615219 
L 81.337213 77.527219 
L 109.906813 50.916019 
L 121.810813 44.263219 
L 145.618813 34.759219 
L 181.330813 30.007219 
L 217.042813 34.759219 
L 240.850813 44.263219 
L 252.754813 50.916019 
L 281.324413 77.527219 
L 288.466813 88.615219 
L 298.670241 110.791219 
L 303.771955 144.055219 
L 298.670241 177.319219 
L 288.466813 199.495219 
L 281.324413 210.583219 
L 252.754813 237.194419 
L 240.850813 243.847219 
L 217.042813 253.351219 
L 181.330813 258.103219 
L 145.618813 253.351219 
z
" clip-path="url(#pa3cd8ff63d)" style="fill: #5594d2; fill-opacity: 0.8"/>
   </g>
   <g id="PathCollection_5">
    <path d="M 74.194813 253.351219 
L 109.906813 277.111219 
L 109.906813 277.111219 
L 145.618813 277.111219 
L 181.330813 277.111219 
L 145.618813 272.359219 
L 109.906813 258.103219 
L 88.479613 243.847219 
L 74.194813 230.541619 
L 58.88967 210.583219 
L 43.584527 177.319219 
L 38.482813 144.055219 
L 38.482813 177.319219 
L 38.482813 210.583219 
L 38.482813 210.583219 
L 63.991384 243.847219 
z
" clip-path="url(#pa3cd8ff63d)" style="fill: #e6af69; fill-opacity: 0.8"/>
    <path d="M 217.042813 277.111219 
L 252.754813 277.111219 
L 252.754813 277.111219 
L 288.466813 253.351219 
L 298.670241 243.847219 
L 324.178813 210.583219 
L 324.178813 210.583219 
L 324.178813 177.319219 
L 324.178813 144.055219 
L 319.077098 177.319219 
L 303.771955 210.583219 
L 288.466813 230.541619 
L 274.182013 243.847219 
L 252.754813 258.103219 
L 217.042813 272.359219 
L 181.330813 277.111219 
z
" clip-path="url(#pa3cd8ff63d)" style="fill: #e6af69; fill-opacity: 0.8"/>
    <path d="M 43.584527 110.791219 
L 58.88967 77.527219 
L 74.194813 57.568819 
L 88.479613 44.263219 
L 109.906813 30.007219 
L 145.618813 15.751219 
L 181.330813 10.999219 
L 145.618813 10.999219 
L 109.906813 10.999219 
L 109.906813 10.999219 
L 74.194813 34.759219 
L 63.991384 44.263219 
L 38.482813 77.527219 
L 38.482813 77.527219 
L 38.482813 110.791219 
L 38.482813 144.055219 
z
" clip-path="url(#pa3cd8ff63d)" style="fill: #e6af69; fill-opacity: 0.8"/>
    <path d="M 324.178813 144.055219 
L 324.178813 110.791219 
L 324.178813 77.527219 
L 324.178813 77.527219 
L 298.670241 44.263219 
L 288.466813 34.759219 
L 252.754813 10.999219 
L 252.754813 10.999219 
L 217.042813 10.999219 
L 181.330813 10.999219 
L 217.042813 15.751219 
L 252.754813 30.007219 
L 274.182013 44.263219 
L 288.466813 57.568819 
L 303.771955 77.527219 
L 319.077098 110.791219 
z
" clip-path="url(#pa3cd8ff63d)" style="fill: #e6af69; fill-opacity: 0.8"/>
   </g>
   <g id="PathCollection_6">
    <path d="M 74.194813 272.359219 
L 81.337213 277.111219 
L 109.906813 277.111219 
L 74.194813 253.351219 
L 63.991384 243.847219 
L 38.482813 210.583219 
L 38.482813 237.194419 
L 43.584527 243.847219 
z
" clip-path="url(#pa3cd8ff63d)" style="fill: #e6d969; fill-opacity: 0.8"/>
    <path d="M 288.466813 272.359219 
L 319.077098 243.847219 
L 324.178813 237.194419 
L 324.178813 210.583219 
L 298.670241 243.847219 
L 288.466813 253.351219 
L 252.754813 277.111219 
L 281.324413 277.111219 
z
" clip-path="url(#pa3cd8ff63d)" style="fill: #e6d969; fill-opacity: 0.8"/>
    <path d="M 63.991384 44.263219 
L 74.194813 34.759219 
L 109.906813 10.999219 
L 81.337213 10.999219 
L 74.194813 15.751219 
L 43.584527 44.263219 
L 38.482813 50.916019 
L 38.482813 77.527219 
z
" clip-path="url(#pa3cd8ff63d)" style="fill: #e6d969; fill-opacity: 0.8"/>
    <path d="M 324.178813 77.527219 
L 324.178813 50.916019 
L 319.077098 44.263219 
L 288.466813 15.751219 
L 281.324413 10.999219 
L 252.754813 10.999219 
L 288.466813 34.759219 
L 298.670241 44.263219 
z
" clip-path="url(#pa3cd8ff63d)" style="fill: #e6d969; fill-opacity: 0.8"/>
   </g>
   <g id="matplotlib.axis_1">
    <g id="xtick_1">
     <g id="line2d_1">
      <defs>
       <path id="me25aafff9e" d="M 0 0 
L 0 3.5 
" style="stroke: #000000; stroke-width: 0.8"/>
      </defs>
      <g>
       <use xlink:href="#me25aafff9e" x="38.482813" y="277.111219" style="stroke: #000000; stroke-width: 0.8"/>
      </g>
     </g>
     <g id="text_1">
      <!-- −2.0 -->
      <g transform="translate(26.341406 291.709656) scale(0.1 -0.1)">
       <defs>
        <path id="DejaVuSans-2212" d="M 678 2272 
L 4684 2272 
L 4684 1741 
L 678 1741 
L 678 2272 
z
" transform="scale(0.015625)"/>
        <path id="DejaVuSans-32" d="M 1228 531 
L 3431 531 
L 3431 0 
L 469 0 
L 469 531 
Q 828 903 1448 1529 
Q 2069 2156 2228 2338 
Q 2531 2678 2651 2914 
Q 2772 3150 2772 3378 
Q 2772 3750 2511 3984 
Q 2250 4219 1831 4219 
Q 1534 4219 1204 4116 
Q 875 4013 500 3803 
L 500 4441 
Q 881 4594 1212 4672 
Q 1544 4750 1819 4750 
Q 2544 4750 2975 4387 
Q 3406 4025 3406 3419 
Q 3406 3131 3298 2873 
Q 3191 2616 2906 2266 
Q 2828 2175 2409 1742 
Q 1991 1309 1228 531 
z
" transform="scale(0.015625)"/>
        <path id="DejaVuSans-2e" d="M 684 794 
L 1344 794 
L 1344 0 
L 684 0 
L 684 794 
z
" transform="scale(0.015625)"/>
        <path id="DejaVuSans-30" d="M 2034 4250 
Q 1547 4250 1301 3770 
Q 1056 3291 1056 2328 
Q 1056 1369 1301 889 
Q 1547 409 2034 409 
Q 2525 409 2770 889 
Q 3016 1369 3016 2328 
Q 3016 3291 2770 3770 
Q 2525 4250 2034 4250 
z
M 2034 4750 
Q 2819 4750 3233 4129 
Q 3647 3509 3647 2328 
Q 3647 1150 3233 529 
Q 2819 -91 2034 -91 
Q 1250 -91 836 529 
Q 422 1150 422 2328 
Q 422 3509 836 4129 
Q 1250 4750 2034 4750 
z
" transform="scale(0.015625)"/>
       </defs>
       <use xlink:href="#DejaVuSans-2212"/>
       <use xlink:href="#DejaVuSans-32" x="83.789062"/>
       <use xlink:href="#DejaVuSans-2e" x="147.412109"/>
       <use xlink:href="#DejaVuSans-30" x="179.199219"/>
      </g>
     </g>
    </g>
    <g id="xtick_2">
     <g id="line2d_2">
      <g>
       <use xlink:href="#me25aafff9e" x="74.194813" y="277.111219" style="stroke: #000000; stroke-width: 0.8"/>
      </g>
     </g>
     <g id="text_2">
      <!-- −1.5 -->
      <g transform="translate(62.053406 291.709656) scale(0.1 -0.1)">
       <defs>
        <path id="DejaVuSans-31" d="M 794 531 
L 1825 531 
L 1825 4091 
L 703 3866 
L 703 4441 
L 1819 4666 
L 2450 4666 
L 2450 531 
L 3481 531 
L 3481 0 
L 794 0 
L 794 531 
z
" transform="scale(0.015625)"/>
        <path id="DejaVuSans-35" d="M 691 4666 
L 3169 4666 
L 3169 4134 
L 1269 4134 
L 1269 2991 
Q 1406 3038 1543 3061 
Q 1681 3084 1819 3084 
Q 2600 3084 3056 2656 
Q 3513 2228 3513 1497 
Q 3513 744 3044 326 
Q 2575 -91 1722 -91 
Q 1428 -91 1123 -41 
Q 819 9 494 109 
L 494 744 
Q 775 591 1075 516 
Q 1375 441 1709 441 
Q 2250 441 2565 725 
Q 2881 1009 2881 1497 
Q 2881 1984 2565 2268 
Q 2250 2553 1709 2553 
Q 1456 2553 1204 2497 
Q 953 2441 691 2322 
L 691 4666 
z
" transform="scale(0.015625)"/>
       </defs>
       <use xlink:href="#DejaVuSans-2212"/>
       <use xlink:href="#DejaVuSans-31" x="83.789062"/>
       <use xlink:href="#DejaVuSans-2e" x="147.412109"/>
       <use xlink:href="#DejaVuSans-35" x="179.199219"/>
      </g>
     </g>
    </g>
    <g id="xtick_3">
     <g id="line2d_3">
      <g>
       <use xlink:href="#me25aafff9e" x="109.906813" y="277.111219" style="stroke: #000000; stroke-width: 0.8"/>
      </g>
     </g>
     <g id="text_3">
      <!-- −1.0 -->
      <g transform="translate(97.765406 291.709656) scale(0.1 -0.1)">
       <use xlink:href="#DejaVuSans-2212"/>
       <use xlink:href="#DejaVuSans-31" x="83.789062"/>
       <use xlink:href="#DejaVuSans-2e" x="147.412109"/>
       <use xlink:href="#DejaVuSans-30" x="179.199219"/>
      </g>
     </g>
    </g>
    <g id="xtick_4">
     <g id="line2d_4">
      <g>
       <use xlink:href="#me25aafff9e" x="145.618813" y="277.111219" style="stroke: #000000; stroke-width: 0.8"/>
      </g>
     </g>
     <g id="text_4">
      <!-- −0.5 -->
      <g transform="translate(133.477406 291.709656) scale(0.1 -0.1)">
       <use xlink:href="#DejaVuSans-2212"/>
       <use xlink:href="#DejaVuSans-30" x="83.789062"/>
       <use xlink:href="#DejaVuSans-2e" x="147.412109"/>
       <use xlink:href="#DejaVuSans-35" x="179.199219"/>
      </g>
     </g>
    </g>
    <g id="xtick_5">
     <g id="line2d_5">
      <g>
       <use xlink:href="#me25aafff9e" x="181.330813" y="277.111219" style="stroke: #000000; stroke-width: 0.8"/>
      </g>
     </g>
     <g id="text_5">
      <!-- 0.0 -->
      <g transform="translate(173.37925 291.709656) scale(0.1 -0.1)">
       <use xlink:href="#DejaVuSans-30"/>
       <use xlink:href="#DejaVuSans-2e" x="63.623047"/>
       <use xlink:href="#DejaVuSans-30" x="95.410156"/>
      </g>
     </g>
    </g>
    <g id="xtick_6">
     <g id="line2d_6">
      <g>
       <use xlink:href="#me25aafff9e" x="217.042813" y="277.111219" style="stroke: #000000; stroke-width: 0.8"/>
      </g>
     </g>
     <g id="text_6">
      <!-- 0.5 -->
      <g transform="translate(209.09125 291.709656) scale(0.1 -0.1)">
       <use xlink:href="#DejaVuSans-30"/>
       <use xlink:href="#DejaVuSans-2e" x="63.623047"/>
       <use xlink:href="#DejaVuSans-35" x="95.410156"/>
      </g>
     </g>
    </g>
    <g id="xtick_7">
     <g id="line2d_7">
      <g>
       <use xlink:href="#me25aafff9e" x="252.754813" y="277.111219" style="stroke: #000000; stroke-width: 0.8"/>
      </g>
     </g>
     <g id="text_7">
      <!-- 1.0 -->
      <g transform="translate(244.80325 291.709656) scale(0.1 -0.1)">
       <use xlink:href="#DejaVuSans-31"/>
       <use xlink:href="#DejaVuSans-2e" x="63.623047"/>
       <use xlink:href="#DejaVuSans-30" x="95.410156"/>
      </g>
     </g>
    </g>
    <g id="xtick_8">
     <g id="line2d_8">
      <g>
       <use xlink:href="#me25aafff9e" x="288.466813" y="277.111219" style="stroke: #000000; stroke-width: 0.8"/>
      </g>
     </g>
     <g id="text_8">
      <!-- 1.5 -->
      <g transform="translate(280.51525 291.709656) scale(0.1 -0.1)">
       <use xlink:href="#DejaVuSans-31"/>
       <use xlink:href="#DejaVuSans-2e" x="63.623047"/>
       <use xlink:href="#DejaVuSans-35" x="95.410156"/>
      </g>
     </g>
    </g>
    <g id="xtick_9">
     <g id="line2d_9">
      <g>
       <use xlink:href="#me25aafff9e" x="324.178813" y="277.111219" style="stroke: #000000; stroke-width: 0.8"/>
      </g>
     </g>
     <g id="text_9">
      <!-- 2.0 -->
      <g transform="translate(316.22725 291.709656) scale(0.1 -0.1)">
       <use xlink:href="#DejaVuSans-32"/>
       <use xlink:href="#DejaVuSans-2e" x="63.623047"/>
       <use xlink:href="#DejaVuSans-30" x="95.410156"/>
      </g>
     </g>
    </g>
   </g>
   <g id="matplotlib.axis_2">
    <g id="ytick_1">
     <g id="line2d_10">
      <defs>
       <path id="mae0d5369e7" d="M 0 0 
L -3.5 0 
" style="stroke: #000000; stroke-width: 0.8"/>
      </defs>
      <g>
       <use xlink:href="#mae0d5369e7" x="38.482813" y="277.111219" style="stroke: #000000; stroke-width: 0.8"/>
      </g>
     </g>
     <g id="text_10">
      <!-- −2.0 -->
      <g transform="translate(7.2 280.910437) scale(0.1 -0.1)">
       <use xlink:href="#DejaVuSans-2212"/>
       <use xlink:href="#DejaVuSans-32" x="83.789062"/>
       <use xlink:href="#DejaVuSans-2e" x="147.412109"/>
       <use xlink:href="#DejaVuSans-30" x="179.199219"/>
      </g>
     </g>
    </g>
    <g id="ytick_2">
     <g id="line2d_11">
      <g>
       <use xlink:href="#mae0d5369e7" x="38.482813" y="243.847219" style="stroke: #000000; stroke-width: 0.8"/>
      </g>
     </g>
     <g id="text_11">
      <!-- −1.5 -->
      <g transform="translate(7.2 247.646437) scale(0.1 -0.1)">
       <use xlink:href="#DejaVuSans-2212"/>
       <use xlink:href="#DejaVuSans-31" x="83.789062"/>
       <use xlink:href="#DejaVuSans-2e" x="147.412109"/>
       <use xlink:href="#DejaVuSans-35" x="179.199219"/>
      </g>
     </g>
    </g>
    <g id="ytick_3">
     <g id="line2d_12">
      <g>
       <use xlink:href="#mae0d5369e7" x="38.482813" y="210.583219" style="stroke: #000000; stroke-width: 0.8"/>
      </g>
     </g>
     <g id="text_12">
      <!-- −1.0 -->
      <g transform="translate(7.2 214.382437) scale(0.1 -0.1)">
       <use xlink:href="#DejaVuSans-2212"/>
       <use xlink:href="#DejaVuSans-31" x="83.789062"/>
       <use xlink:href="#DejaVuSans-2e" x="147.412109"/>
       <use xlink:href="#DejaVuSans-30" x="179.199219"/>
      </g>
     </g>
    </g>
    <g id="ytick_4">
     <g id="line2d_13">
      <g>
       <use xlink:href="#mae0d5369e7" x="38.482813" y="177.319219" style="stroke: #000000; stroke-width: 0.8"/>
      </g>
     </g>
     <g id="text_13">
      <!-- −0.5 -->
      <g transform="translate(7.2 181.118437) scale(0.1 -0.1)">
       <use xlink:href="#DejaVuSans-2212"/>
       <use xlink:href="#DejaVuSans-30" x="83.789062"/>
       <use xlink:href="#DejaVuSans-2e" x="147.412109"/>
       <use xlink:href="#DejaVuSans-35" x="179.199219"/>
      </g>
     </g>
    </g>
    <g id="ytick_5">
     <g id="line2d_14">
      <g>
       <use xlink:href="#mae0d5369e7" x="38.482813" y="144.055219" style="stroke: #000000; stroke-width: 0.8"/>
      </g>
     </g>
     <g id="text_14">
      <!-- 0.0 -->
      <g transform="translate(15.579688 147.854437) scale(0.1 -0.1)">
       <use xlink:href="#DejaVuSans-30"/>
       <use xlink:href="#DejaVuSans-2e" x="63.623047"/>
       <use xlink:href="#DejaVuSans-30" x="95.410156"/>
      </g>
     </g>
    </g>
    <g id="ytick_6">
     <g id="line2d_15">
      <g>
       <use xlink:href="#mae0d5369e7" x="38.482813" y="110.791219" style="stroke: #000000; stroke-width: 0.8"/>
      </g>
     </g>
     <g id="text_15">
      <!-- 0.5 -->
      <g transform="translate(15.579688 114.590437) scale(0.1 -0.1)">
       <use xlink:href="#DejaVuSans-30"/>
       <use xlink:href="#DejaVuSans-2e" x="63.623047"/>
       <use xlink:href="#DejaVuSans-35" x="95.410156"/>
      </g>
     </g>
    </g>
    <g id="ytick_7">
     <g id="line2d_16">
      <g>
       <use xlink:href="#mae0d5369e7" x="38.482813" y="77.527219" style="stroke: #000000; stroke-width: 0.8"/>
      </g>
     </g>
     <g id="text_16">
      <!-- 1.0 -->
      <g transform="translate(15.579688 81.326437) scale(0.1 -0.1)">
       <use xlink:href="#DejaVuSans-31"/>
       <use xlink:href="#DejaVuSans-2e" x="63.623047"/>
       <use xlink:href="#DejaVuSans-30" x="95.410156"/>
      </g>
     </g>
    </g>
    <g id="ytick_8">
     <g id="line2d_17">
      <g>
       <use xlink:href="#mae0d5369e7" x="38.482813" y="44.263219" style="stroke: #000000; stroke-width: 0.8"/>
      </g>
     </g>
     <g id="text_17">
      <!-- 1.5 -->
      <g transform="translate(15.579688 48.062437) scale(0.1 -0.1)">
       <use xlink:href="#DejaVuSans-31"/>
       <use xlink:href="#DejaVuSans-2e" x="63.623047"/>
       <use xlink:href="#DejaVuSans-35" x="95.410156"/>
      </g>
     </g>
    </g>
    <g id="ytick_9">
     <g id="line2d_18">
      <g>
       <use xlink:href="#mae0d5369e7" x="38.482813" y="10.999219" style="stroke: #000000; stroke-width: 0.8"/>
      </g>
     </g>
     <g id="text_18">
      <!-- 2.0 -->
      <g transform="translate(15.579688 14.798437) scale(0.1 -0.1)">
       <use xlink:href="#DejaVuSans-32"/>
       <use xlink:href="#DejaVuSans-2e" x="63.623047"/>
       <use xlink:href="#DejaVuSans-30" x="95.410156"/>
      </g>
     </g>
    </g>
   </g>
   <g id="PathCollection_7">
    <path d="M 181.330813 144.055219 
L 181.330813 144.055219 
L 181.330813 144.055219 
L 181.330813 144.055219 
L 181.330813 144.055219 
z
" clip-path="url(#pa3cd8ff63d)" style="fill: none; stroke-dasharray: 2.5,4.125; stroke-dashoffset: 0; stroke: #ffff00; stroke-opacity: 0.3; stroke-width: 2.5"/>
   </g>
   <g id="PathCollection_8">
    <path d="M 221.401715 92.675326 
L 240.850813 110.791219 
L 252.754813 144.055219 
L 252.754813 144.055219 
L 252.754813 144.055219 
L 240.850813 177.319219 
L 217.042813 199.495219 
L 181.330813 210.583219 
L 181.330813 210.583219 
L 181.330813 210.583219 
L 145.618813 199.495219 
L 121.810813 177.319219 
L 109.906813 144.055219 
L 109.906813 144.055219 
L 109.906813 144.055219 
L 121.810813 110.791219 
L 145.618813 88.615219 
L 181.330813 77.527219 
L 181.330813 77.527219 
L 181.330813 77.527219 
L 211.767122 86.977202 
" clip-path="url(#pa3cd8ff63d)" style="fill: none; stroke-dasharray: 2.5,4.125; stroke-dashoffset: 0; stroke: #ffff00; stroke-opacity: 0.3; stroke-width: 2.5"/>
   </g>
   <g id="PathCollection_9">
    <path d="M 106.497576 205.290653 
L 88.479613 177.319219 
L 81.337213 144.055219 
L 88.479613 110.791219 
L 109.906813 77.527219 
L 109.906813 77.527219 
L 145.618813 57.568819 
L 181.330813 50.916019 
L 217.042813 57.568819 
L 252.754813 77.527219 
L 252.754813 77.527219 
L 274.182013 110.791219 
L 281.324413 144.055219 
L 274.182013 177.319219 
L 252.754813 210.583219 
L 252.754813 210.583219 
L 217.042813 230.541619 
L 181.330813 237.194419 
L 145.618813 230.541619 
L 114.869395 213.356662 
" clip-path="url(#pa3cd8ff63d)" style="fill: none; stroke-dasharray: 2.5,4.125; stroke-dashoffset: 0; stroke: #ffff00; stroke-opacity: 0.3; stroke-width: 2.5"/>
   </g>
   <g id="PathCollection_10">
    <path d="M 140.440466 251.284056 
L 121.810813 243.847219 
L 109.906813 237.194419 
L 81.337213 210.583219 
L 74.194813 199.495219 
L 63.991384 177.319219 
L 58.88967 144.055219 
L 63.991384 110.791219 
L 74.194813 88.615219 
L 81.337213 77.527219 
L 109.906813 50.916019 
L 121.810813 44.263219 
L 145.618813 34.759219 
L 181.330813 30.007219 
L 217.042813 34.759219 
L 240.850813 44.263219 
L 252.754813 50.916019 
L 281.324413 77.527219 
L 288.466813 88.615219 
L 298.670241 110.791219 
L 303.771955 144.055219 
L 298.670241 177.319219 
L 288.466813 199.495219 
L 281.324413 210.583219 
L 252.754813 237.194419 
L 240.850813 243.847219 
L 217.042813 253.351219 
L 181.330813 258.103219 
L 151.024272 254.070494 
" clip-path="url(#pa3cd8ff63d)" style="fill: none; stroke-dasharray: 2.5,4.125; stroke-dashoffset: 0; stroke: #ffff00; stroke-opacity: 0.3; stroke-width: 2.5"/>
   </g>
   <g id="PathCollection_11">
    <path d="M 181.330813 277.111219 
L 145.618813 272.359219 
L 109.906813 258.103219 
L 88.479613 243.847219 
L 78.553715 234.601726 
" clip-path="url(#pa3cd8ff63d)" style="fill: none; stroke-dasharray: 2.5,4.125; stroke-dashoffset: 0; stroke: #ffff00; stroke-opacity: 0.3; stroke-width: 2.5"/>
    <path d="M 70.433141 225.636277 
L 58.88967 210.583219 
L 43.584527 177.319219 
L 38.482813 144.055219 
" clip-path="url(#pa3cd8ff63d)" style="fill: none; stroke-dasharray: 2.5,4.125; stroke-dashoffset: 0; stroke: #ffff00; stroke-opacity: 0.3; stroke-width: 2.5"/>
    <path d="M 324.178813 144.055219 
L 319.077098 177.319219 
L 303.771955 210.583219 
L 288.466813 230.541619 
L 278.540915 239.787112 
" clip-path="url(#pa3cd8ff63d)" style="fill: none; stroke-dasharray: 2.5,4.125; stroke-dashoffset: 0; stroke: #ffff00; stroke-opacity: 0.3; stroke-width: 2.5"/>
    <path d="M 269.383401 247.039843 
L 252.754813 258.103219 
L 217.042813 272.359219 
L 181.330813 277.111219 
" clip-path="url(#pa3cd8ff63d)" style="fill: none; stroke-dasharray: 2.5,4.125; stroke-dashoffset: 0; stroke: #ffff00; stroke-opacity: 0.3; stroke-width: 2.5"/>
    <path d="M 38.482813 144.055219 
L 43.584527 110.791219 
L 58.88967 77.527219 
L 74.194813 57.568819 
L 84.12071 48.323326 
" clip-path="url(#pa3cd8ff63d)" style="fill: none; stroke-dasharray: 2.5,4.125; stroke-dashoffset: 0; stroke: #ffff00; stroke-opacity: 0.3; stroke-width: 2.5"/>
    <path d="M 93.278224 41.070594 
L 109.906813 30.007219 
L 145.618813 15.751219 
L 181.330813 10.999219 
" clip-path="url(#pa3cd8ff63d)" style="fill: none; stroke-dasharray: 2.5,4.125; stroke-dashoffset: 0; stroke: #ffff00; stroke-opacity: 0.3; stroke-width: 2.5"/>
    <path d="M 181.330813 10.999219 
L 217.042813 15.751219 
L 252.754813 30.007219 
L 274.182013 44.263219 
L 284.10791 53.508712 
" clip-path="url(#pa3cd8ff63d)" style="fill: none; stroke-dasharray: 2.5,4.125; stroke-dashoffset: 0; stroke: #ffff00; stroke-opacity: 0.3; stroke-width: 2.5"/>
    <path d="M 292.228484 62.47416 
L 303.771955 77.527219 
L 319.077098 110.791219 
L 324.178813 144.055219 
" clip-path="url(#pa3cd8ff63d)" style="fill: none; stroke-dasharray: 2.5,4.125; stroke-dashoffset: 0; stroke: #ffff00; stroke-opacity: 0.3; stroke-width: 2.5"/>
   </g>
   <g id="PathCollection_12">
    <path d="M 109.906813 277.111219 
L 74.194813 253.351219 
L 68.350287 247.907326 
" clip-path="url(#pa3cd8ff63d)" style="fill: none; stroke-dasharray: 2.5,4.125; stroke-dashoffset: 0; stroke: #ffff00; stroke-opacity: 0.3; stroke-width: 2.5"/>
    <path d="M 60.229712 238.941877 
L 38.482813 210.583219 
" clip-path="url(#pa3cd8ff63d)" style="fill: none; stroke-dasharray: 2.5,4.125; stroke-dashoffset: 0; stroke: #ffff00; stroke-opacity: 0.3; stroke-width: 2.5"/>
    <path d="M 324.178813 210.583219 
L 298.670241 243.847219 
L 292.825715 249.291112 
" clip-path="url(#pa3cd8ff63d)" style="fill: none; stroke-dasharray: 2.5,4.125; stroke-dashoffset: 0; stroke: #ffff00; stroke-opacity: 0.3; stroke-width: 2.5"/>
    <path d="M 283.668201 256.543843 
L 252.754813 277.111219 
" clip-path="url(#pa3cd8ff63d)" style="fill: none; stroke-dasharray: 2.5,4.125; stroke-dashoffset: 0; stroke: #ffff00; stroke-opacity: 0.3; stroke-width: 2.5"/>
    <path d="M 38.482813 77.527219 
L 63.991384 44.263219 
L 69.83591 38.819326 
" clip-path="url(#pa3cd8ff63d)" style="fill: none; stroke-dasharray: 2.5,4.125; stroke-dashoffset: 0; stroke: #ffff00; stroke-opacity: 0.3; stroke-width: 2.5"/>
    <path d="M 78.993424 31.566594 
L 109.906813 10.999219 
" clip-path="url(#pa3cd8ff63d)" style="fill: none; stroke-dasharray: 2.5,4.125; stroke-dashoffset: 0; stroke: #ffff00; stroke-opacity: 0.3; stroke-width: 2.5"/>
    <path d="M 252.754813 10.999219 
L 288.466813 34.759219 
L 294.311338 40.203112 
" clip-path="url(#pa3cd8ff63d)" style="fill: none; stroke-dasharray: 2.5,4.125; stroke-dashoffset: 0; stroke: #ffff00; stroke-opacity: 0.3; stroke-width: 2.5"/>
    <path d="M 302.431913 49.16856 
L 324.178813 77.527219 
" clip-path="url(#pa3cd8ff63d)" style="fill: none; stroke-dasharray: 2.5,4.125; stroke-dashoffset: 0; stroke: #ffff00; stroke-opacity: 0.3; stroke-width: 2.5"/>
   </g>
   <g id="PathCollection_13">
    <path d="M 81.337213 277.111219 
L 74.194813 272.359219 
L 47.94343 247.907326 
" clip-path="url(#pa3cd8ff63d)" style="fill: none; stroke-dasharray: 2.5,4.125; stroke-dashoffset: 0; stroke: #ffff00; stroke-opacity: 0.3; stroke-width: 2.5"/>
    <path d="M 39.822855 238.941877 
L 38.482813 237.194419 
" clip-path="url(#pa3cd8ff63d)" style="fill: none; stroke-dasharray: 2.5,4.125; stroke-dashoffset: 0; stroke: #ffff00; stroke-opacity: 0.3; stroke-width: 2.5"/>
    <path d="M 324.178813 237.194419 
L 319.077098 243.847219 
L 292.825715 268.299112 
" clip-path="url(#pa3cd8ff63d)" style="fill: none; stroke-dasharray: 2.5,4.125; stroke-dashoffset: 0; stroke: #ffff00; stroke-opacity: 0.3; stroke-width: 2.5"/>
    <path d="M 283.668201 275.551843 
L 281.324413 277.111219 
" clip-path="url(#pa3cd8ff63d)" style="fill: none; stroke-dasharray: 2.5,4.125; stroke-dashoffset: 0; stroke: #ffff00; stroke-opacity: 0.3; stroke-width: 2.5"/>
    <path d="M 38.482813 50.916019 
L 43.584527 44.263219 
L 69.83591 19.811326 
" clip-path="url(#pa3cd8ff63d)" style="fill: none; stroke-dasharray: 2.5,4.125; stroke-dashoffset: 0; stroke: #ffff00; stroke-opacity: 0.3; stroke-width: 2.5"/>
    <path d="M 78.993424 12.558594 
L 81.337213 10.999219 
" clip-path="url(#pa3cd8ff63d)" style="fill: none; stroke-dasharray: 2.5,4.125; stroke-dashoffset: 0; stroke: #ffff00; stroke-opacity: 0.3; stroke-width: 2.5"/>
    <path d="M 281.324413 10.999219 
L 288.466813 15.751219 
L 314.718195 40.203112 
" clip-path="url(#pa3cd8ff63d)" style="fill: none; stroke-dasharray: 2.5,4.125; stroke-dashoffset: 0; stroke: #ffff00; stroke-opacity: 0.3; stroke-width: 2.5"/>
    <path d="M 322.83877 49.16856 
L 324.178813 50.916019 
" clip-path="url(#pa3cd8ff63d)" style="fill: none; stroke-dasharray: 2.5,4.125; stroke-dashoffset: 0; stroke: #ffff00; stroke-opacity: 0.3; stroke-width: 2.5"/>
   </g>
   <g id="PathCollection_14">
    <path d="M 181.330813 210.583219 
L 181.330813 210.583219 
L 145.618813 199.495219 
L 121.810813 177.319219 
L 109.906813 144.055219 
L 109.906813 144.055219 
L 109.906813 144.055219 
L 121.810813 110.791219 
L 145.618813 88.615219 
L 181.330813 77.527219 
L 181.330813 77.527219 
L 181.330813 77.527219 
L 217.042813 88.615219 
L 240.850813 110.791219 
L 252.754813 144.055219 
L 252.754813 144.055219 
L 252.754813 144.055219 
L 240.850813 177.319219 
L 217.042813 199.495219 
L 181.330813 210.583219 
L 181.330813 210.583219 
z
" clip-path="url(#pa3cd8ff63d)" style="fill: none; stroke: #69e699; stroke-width: 5"/>
   </g>
   <g id="patch_3">
    <path d="M 38.482813 277.111219 
L 38.482813 10.999219 
" style="fill: none; stroke: #000000; stroke-width: 0.8; stroke-linejoin: miter; stroke-linecap: square"/>
   </g>
   <g id="patch_4">
    <path d="M 324.178813 277.111219 
L 324.178813 10.999219 
" style="fill: none; stroke: #000000; stroke-width: 0.8; stroke-linejoin: miter; stroke-linecap: square"/>
   </g>
   <g id="patch_5">
    <path d="M 38.482813 277.111219 
L 324.178813 277.111219 
" style="fill: none; stroke: #000000; stroke-width: 0.8; stroke-linejoin: miter; stroke-linecap: square"/>
   </g>
   <g id="patch_6">
    <path d="M 38.482813 10.999219 
L 324.178813 10.999219 
" style="fill: none; stroke: #000000; stroke-width: 0.8; stroke-linejoin: miter; stroke-linecap: square"/>
   </g>
   <g id="text_19">
    <g clip-path="url(#pa3cd8ff63d)">
     <!-- 1 -->
     <g style="fill: #ffff00; opacity: 0.3" transform="translate(212.987051 89.748928) rotate(-334.679356) scale(0.1 -0.1)">
      <use xlink:href="#DejaVuSans-31"/>
     </g>
    </g>
   </g>
   <g id="text_20">
    <g clip-path="url(#pa3cd8ff63d)">
     <!-- 2 -->
     <g style="fill: #ffff00; opacity: 0.3" transform="translate(105.702619 210.826642) rotate(-322.375786) scale(0.1 -0.1)">
      <use xlink:href="#DejaVuSans-32"/>
     </g>
    </g>
   </g>
   <g id="text_21">
    <g clip-path="url(#pa3cd8ff63d)">
     <!-- 3 -->
     <g style="fill: #ffff00; opacity: 0.3" transform="translate(141.937159 255.395707) rotate(-348.106261) scale(0.1 -0.1)">
      <defs>
       <path id="DejaVuSans-33" d="M 2597 2516 
Q 3050 2419 3304 2112 
Q 3559 1806 3559 1356 
Q 3559 666 3084 287 
Q 2609 -91 1734 -91 
Q 1441 -91 1130 -33 
Q 819 25 488 141 
L 488 750 
Q 750 597 1062 519 
Q 1375 441 1716 441 
Q 2309 441 2620 675 
Q 2931 909 2931 1356 
Q 2931 1769 2642 2001 
Q 2353 2234 1838 2234 
L 1294 2234 
L 1294 2753 
L 1863 2753 
Q 2328 2753 2575 2939 
Q 2822 3125 2822 3475 
Q 2822 3834 2567 4026 
Q 2313 4219 1838 4219 
Q 1578 4219 1281 4162 
Q 984 4106 628 3988 
L 628 4550 
Q 988 4650 1302 4700 
Q 1616 4750 1894 4750 
Q 2613 4750 3031 4423 
Q 3450 4097 3450 3541 
Q 3450 3153 3228 2886 
Q 3006 2619 2597 2516 
z
" transform="scale(0.015625)"/>
      </defs>
      <use xlink:href="#DejaVuSans-33"/>
     </g>
    </g>
   </g>
   <g id="text_22">
    <g clip-path="url(#pa3cd8ff63d)">
     <!-- 4 -->
     <g style="fill: #ffff00; opacity: 0.3" transform="translate(69.983747 230.503836) rotate(-318.547999) scale(0.1 -0.1)">
      <defs>
       <path id="DejaVuSans-34" d="M 2419 4116 
L 825 1625 
L 2419 1625 
L 2419 4116 
z
M 2253 4666 
L 3047 4666 
L 3047 1625 
L 3713 1625 
L 3713 1100 
L 3047 1100 
L 3047 0 
L 2419 0 
L 2419 1100 
L 313 1100 
L 313 1709 
L 2253 4666 
z
" transform="scale(0.015625)"/>
      </defs>
      <use xlink:href="#DejaVuSans-34"/>
     </g>
    </g>
   </g>
   <g id="text_23">
    <g clip-path="url(#pa3cd8ff63d)">
     <!-- 4 -->
     <g style="fill: #ffff00; opacity: 0.3" transform="translate(272.971604 247.880755) rotate(-32.358277) scale(0.1 -0.1)">
      <use xlink:href="#DejaVuSans-34"/>
     </g>
    </g>
   </g>
   <g id="text_24">
    <g clip-path="url(#pa3cd8ff63d)">
     <!-- 4 -->
     <g style="fill: #ffff00; opacity: 0.3" transform="translate(87.269204 48.296755) rotate(-32.358277) scale(0.1 -0.1)">
      <use xlink:href="#DejaVuSans-34"/>
     </g>
    </g>
   </g>
   <g id="text_25">
    <g clip-path="url(#pa3cd8ff63d)">
     <!-- 4 -->
     <g style="fill: #ffff00; opacity: 0.3" transform="translate(284.255747 57.531036) rotate(-318.547999) scale(0.1 -0.1)">
      <use xlink:href="#DejaVuSans-34"/>
     </g>
    </g>
   </g>
   <g id="text_26">
    <g clip-path="url(#pa3cd8ff63d)">
     <!-- 5 -->
     <g style="fill: #ffff00; opacity: 0.3" transform="translate(59.780318 243.809436) rotate(-318.547999) scale(0.1 -0.1)">
      <use xlink:href="#DejaVuSans-35"/>
     </g>
    </g>
   </g>
   <g id="text_27">
    <g clip-path="url(#pa3cd8ff63d)">
     <!-- 5 -->
     <g style="fill: #ffff00; opacity: 0.3" transform="translate(287.256404 257.384755) rotate(-32.358277) scale(0.1 -0.1)">
      <use xlink:href="#DejaVuSans-35"/>
     </g>
    </g>
   </g>
   <g id="text_28">
    <g clip-path="url(#pa3cd8ff63d)">
     <!-- 5 -->
     <g style="fill: #ffff00; opacity: 0.3" transform="translate(72.984404 38.792755) rotate(-32.358277) scale(0.1 -0.1)">
      <use xlink:href="#DejaVuSans-35"/>
     </g>
    </g>
   </g>
   <g id="text_29">
    <g clip-path="url(#pa3cd8ff63d)">
     <!-- 5 -->
     <g style="fill: #ffff00; opacity: 0.3" transform="translate(294.459175 44.225436) rotate(-318.547999) scale(0.1 -0.1)">
      <use xlink:href="#DejaVuSans-35"/>
     </g>
    </g>
   </g>
   <g id="text_30">
    <g clip-path="url(#pa3cd8ff63d)">
     <!-- 6 -->
     <g style="fill: #ffff00; opacity: 0.3" transform="translate(39.373461 243.809436) rotate(-318.547999) scale(0.1 -0.1)">
      <defs>
       <path id="DejaVuSans-36" d="M 2113 2584 
Q 1688 2584 1439 2293 
Q 1191 2003 1191 1497 
Q 1191 994 1439 701 
Q 1688 409 2113 409 
Q 2538 409 2786 701 
Q 3034 994 3034 1497 
Q 3034 2003 2786 2293 
Q 2538 2584 2113 2584 
z
M 3366 4563 
L 3366 3988 
Q 3128 4100 2886 4159 
Q 2644 4219 2406 4219 
Q 1781 4219 1451 3797 
Q 1122 3375 1075 2522 
Q 1259 2794 1537 2939 
Q 1816 3084 2150 3084 
Q 2853 3084 3261 2657 
Q 3669 2231 3669 1497 
Q 3669 778 3244 343 
Q 2819 -91 2113 -91 
Q 1303 -91 875 529 
Q 447 1150 447 2328 
Q 447 3434 972 4092 
Q 1497 4750 2381 4750 
Q 2619 4750 2861 4703 
Q 3103 4656 3366 4563 
z
" transform="scale(0.015625)"/>
      </defs>
      <use xlink:href="#DejaVuSans-36"/>
     </g>
    </g>
   </g>
   <g id="text_31">
    <g clip-path="url(#pa3cd8ff63d)">
     <!-- 6 -->
     <g style="fill: #ffff00; opacity: 0.3" transform="translate(287.256404 276.392755) rotate(-32.358277) scale(0.1 -0.1)">
      <use xlink:href="#DejaVuSans-36"/>
     </g>
    </g>
   </g>
   <g id="text_32">
    <g clip-path="url(#pa3cd8ff63d)">
     <!-- 6 -->
     <g style="fill: #ffff00; opacity: 0.3" transform="translate(72.984404 19.784755) rotate(-32.358277) scale(0.1 -0.1)">
      <use xlink:href="#DejaVuSans-36"/>
     </g>
    </g>
   </g>
   <g id="text_33">
    <g clip-path="url(#pa3cd8ff63d)">
     <!-- 6 -->
     <g style="fill: #ffff00; opacity: 0.3" transform="translate(314.866033 44.225436) rotate(-318.547999) scale(0.1 -0.1)">
      <use xlink:href="#DejaVuSans-36"/>
     </g>
    </g>
   </g>
  </g>
  <g id="axes_2">
   <g id="patch_7">
    <path d="M 342.034813 277.111219 
L 355.340413 277.111219 
L 355.340413 10.999219 
L 342.034813 10.999219 
z
" style="fill: #ffffff"/>
   </g>
   <g id="patch_8">
    <path clip-path="url(#p6128fea8a3)" style="fill: #ffffff; stroke: #ffffff; stroke-width: 0.01; stroke-linejoin: miter"/>
   </g>
   <g id="QuadMesh_1">
    <path d="M 342.034813 277.111219 
L 355.340413 277.111219 
L 355.340413 232.759219 
L 342.034813 232.759219 
L 342.034813 277.111219 
" clip-path="url(#p6128fea8a3)" style="fill: #fcaeae; fill-opacity: 0.8"/>
    <path d="M 342.034813 232.759219 
L 355.340413 232.759219 
L 355.340413 188.407219 
L 342.034813 188.407219 
L 342.034813 232.759219 
" clip-path="url(#p6128fea8a3)" style="fill: #da98d1; fill-opacity: 0.8"/>
    <path d="M 342.034813 188.407219 
L 355.340413 188.407219 
L 355.340413 144.055219 
L 342.034813 144.055219 
L 342.034813 188.407219 
" clip-path="url(#p6128fea8a3)" style="fill: #c45178; fill-opacity: 0.8"/>
    <path d="M 342.034813 144.055219 
L 355.340413 144.055219 
L 355.340413 99.703219 
L 342.034813 99.703219 
L 342.034813 144.055219 
" clip-path="url(#p6128fea8a3)" style="fill: #5594d2; fill-opacity: 0.8"/>
    <path d="M 342.034813 99.703219 
L 355.340413 99.703219 
L 355.340413 55.351219 
L 342.034813 55.351219 
L 342.034813 99.703219 
" clip-path="url(#p6128fea8a3)" style="fill: #e6af69; fill-opacity: 0.8"/>
    <path d="M 342.034813 55.351219 
L 355.340413 55.351219 
L 355.340413 10.999219 
L 342.034813 10.999219 
L 342.034813 55.351219 
" clip-path="url(#p6128fea8a3)" style="fill: #e6d969; fill-opacity: 0.8"/>
   </g>
   <g id="matplotlib.axis_3"/>
   <g id="matplotlib.axis_4">
    <g id="ytick_10">
     <g id="line2d_19">
      <defs>
       <path id="m6928c86c50" d="M 0 0 
L 3.5 0 
" style="stroke: #000000; stroke-width: 0.8"/>
      </defs>
      <g>
       <use xlink:href="#m6928c86c50" x="355.340413" y="277.111219" style="stroke: #000000; stroke-width: 0.8"/>
      </g>
     </g>
     <g id="text_34">
      <!-- 0 -->
      <g transform="translate(362.340413 280.910437) scale(0.1 -0.1)">
       <use xlink:href="#DejaVuSans-30"/>
      </g>
     </g>
    </g>
    <g id="ytick_11">
     <g id="line2d_20">
      <g>
       <use xlink:href="#m6928c86c50" x="355.340413" y="232.759219" style="stroke: #000000; stroke-width: 0.8"/>
      </g>
     </g>
     <g id="text_35">
      <!-- 1 -->
      <g transform="translate(362.340413 236.558437) scale(0.1 -0.1)">
       <use xlink:href="#DejaVuSans-31"/>
      </g>
     </g>
    </g>
    <g id="ytick_12">
     <g id="line2d_21">
      <g>
       <use xlink:href="#m6928c86c50" x="355.340413" y="188.407219" style="stroke: #000000; stroke-width: 0.8"/>
      </g>
     </g>
     <g id="text_36">
      <!-- 2 -->
      <g transform="translate(362.340413 192.206437) scale(0.1 -0.1)">
       <use xlink:href="#DejaVuSans-32"/>
      </g>
     </g>
    </g>
    <g id="ytick_13">
     <g id="line2d_22">
      <g>
       <use xlink:href="#m6928c86c50" x="355.340413" y="144.055219" style="stroke: #000000; stroke-width: 0.8"/>
      </g>
     </g>
     <g id="text_37">
      <!-- 3 -->
      <g transform="translate(362.340413 147.854437) scale(0.1 -0.1)">
       <use xlink:href="#DejaVuSans-33"/>
      </g>
     </g>
    </g>
    <g id="ytick_14">
     <g id="line2d_23">
      <g>
       <use xlink:href="#m6928c86c50" x="355.340413" y="99.703219" style="stroke: #000000; stroke-width: 0.8"/>
      </g>
     </g>
     <g id="text_38">
      <!-- 4 -->
      <g transform="translate(362.340413 103.502437) scale(0.1 -0.1)">
       <use xlink:href="#DejaVuSans-34"/>
      </g>
     </g>
    </g>
    <g id="ytick_15">
     <g id="line2d_24">
      <g>
       <use xlink:href="#m6928c86c50" x="355.340413" y="55.351219" style="stroke: #000000; stroke-width: 0.8"/>
      </g>
     </g>
     <g id="text_39">
      <!-- 5 -->
      <g transform="translate(362.340413 59.150437) scale(0.1 -0.1)">
       <use xlink:href="#DejaVuSans-35"/>
      </g>
     </g>
    </g>
    <g id="ytick_16">
     <g id="line2d_25">
      <g>
       <use xlink:href="#m6928c86c50" x="355.340413" y="10.999219" style="stroke: #000000; stroke-width: 0.8"/>
      </g>
     </g>
     <g id="text_40">
      <!-- 6 -->
      <g transform="translate(362.340413 14.798437) scale(0.1 -0.1)">
       <use xlink:href="#DejaVuSans-36"/>
      </g>
     </g>
    </g>
    <g id="text_41">
     <!-- temperature -->
     <g transform="translate(380.30135 175.481) rotate(-90) scale(0.1 -0.1)">
      <defs>
       <path id="DejaVuSans-74" d="M 1172 4494 
L 1172 3500 
L 2356 3500 
L 2356 3053 
L 1172 3053 
L 1172 1153 
Q 1172 725 1289 603 
Q 1406 481 1766 481 
L 2356 481 
L 2356 0 
L 1766 0 
Q 1100 0 847 248 
Q 594 497 594 1153 
L 594 3053 
L 172 3053 
L 172 3500 
L 594 3500 
L 594 4494 
L 1172 4494 
z
" transform="scale(0.015625)"/>
       <path id="DejaVuSans-65" d="M 3597 1894 
L 3597 1613 
L 953 1613 
Q 991 1019 1311 708 
Q 1631 397 2203 397 
Q 2534 397 2845 478 
Q 3156 559 3463 722 
L 3463 178 
Q 3153 47 2828 -22 
Q 2503 -91 2169 -91 
Q 1331 -91 842 396 
Q 353 884 353 1716 
Q 353 2575 817 3079 
Q 1281 3584 2069 3584 
Q 2775 3584 3186 3129 
Q 3597 2675 3597 1894 
z
M 3022 2063 
Q 3016 2534 2758 2815 
Q 2500 3097 2075 3097 
Q 1594 3097 1305 2825 
Q 1016 2553 972 2059 
L 3022 2063 
z
" transform="scale(0.015625)"/>
       <path id="DejaVuSans-6d" d="M 3328 2828 
Q 3544 3216 3844 3400 
Q 4144 3584 4550 3584 
Q 5097 3584 5394 3201 
Q 5691 2819 5691 2113 
L 5691 0 
L 5113 0 
L 5113 2094 
Q 5113 2597 4934 2840 
Q 4756 3084 4391 3084 
Q 3944 3084 3684 2787 
Q 3425 2491 3425 1978 
L 3425 0 
L 2847 0 
L 2847 2094 
Q 2847 2600 2669 2842 
Q 2491 3084 2119 3084 
Q 1678 3084 1418 2786 
Q 1159 2488 1159 1978 
L 1159 0 
L 581 0 
L 581 3500 
L 1159 3500 
L 1159 2956 
Q 1356 3278 1631 3431 
Q 1906 3584 2284 3584 
Q 2666 3584 2933 3390 
Q 3200 3197 3328 2828 
z
" transform="scale(0.015625)"/>
       <path id="DejaVuSans-70" d="M 1159 525 
L 1159 -1331 
L 581 -1331 
L 581 3500 
L 1159 3500 
L 1159 2969 
Q 1341 3281 1617 3432 
Q 1894 3584 2278 3584 
Q 2916 3584 3314 3078 
Q 3713 2572 3713 1747 
Q 3713 922 3314 415 
Q 2916 -91 2278 -91 
Q 1894 -91 1617 61 
Q 1341 213 1159 525 
z
M 3116 1747 
Q 3116 2381 2855 2742 
Q 2594 3103 2138 3103 
Q 1681 3103 1420 2742 
Q 1159 2381 1159 1747 
Q 1159 1113 1420 752 
Q 1681 391 2138 391 
Q 2594 391 2855 752 
Q 3116 1113 3116 1747 
z
" transform="scale(0.015625)"/>
       <path id="DejaVuSans-72" d="M 2631 2963 
Q 2534 3019 2420 3045 
Q 2306 3072 2169 3072 
Q 1681 3072 1420 2755 
Q 1159 2438 1159 1844 
L 1159 0 
L 581 0 
L 581 3500 
L 1159 3500 
L 1159 2956 
Q 1341 3275 1631 3429 
Q 1922 3584 2338 3584 
Q 2397 3584 2469 3576 
Q 2541 3569 2628 3553 
L 2631 2963 
z
" transform="scale(0.015625)"/>
       <path id="DejaVuSans-61" d="M 2194 1759 
Q 1497 1759 1228 1600 
Q 959 1441 959 1056 
Q 959 750 1161 570 
Q 1363 391 1709 391 
Q 2188 391 2477 730 
Q 2766 1069 2766 1631 
L 2766 1759 
L 2194 1759 
z
M 3341 1997 
L 3341 0 
L 2766 0 
L 2766 531 
Q 2569 213 2275 61 
Q 1981 -91 1556 -91 
Q 1019 -91 701 211 
Q 384 513 384 1019 
Q 384 1609 779 1909 
Q 1175 2209 1959 2209 
L 2766 2209 
L 2766 2266 
Q 2766 2663 2505 2880 
Q 2244 3097 1772 3097 
Q 1472 3097 1187 3025 
Q 903 2953 641 2809 
L 641 3341 
Q 956 3463 1253 3523 
Q 1550 3584 1831 3584 
Q 2591 3584 2966 3190 
Q 3341 2797 3341 1997 
z
" transform="scale(0.015625)"/>
       <path id="DejaVuSans-75" d="M 544 1381 
L 544 3500 
L 1119 3500 
L 1119 1403 
Q 1119 906 1312 657 
Q 1506 409 1894 409 
Q 2359 409 2629 706 
Q 2900 1003 2900 1516 
L 2900 3500 
L 3475 3500 
L 3475 0 
L 2900 0 
L 2900 538 
Q 2691 219 2414 64 
Q 2138 -91 1772 -91 
Q 1169 -91 856 284 
Q 544 659 544 1381 
z
M 1991 3584 
L 1991 3584 
z
" transform="scale(0.015625)"/>
      </defs>
      <use xlink:href="#DejaVuSans-74"/>
      <use xlink:href="#DejaVuSans-65" x="39.208984"/>
      <use xlink:href="#DejaVuSans-6d" x="100.732422"/>
      <use xlink:href="#DejaVuSans-70" x="198.144531"/>
      <use xlink:href="#DejaVuSans-65" x="261.621094"/>
      <use xlink:href="#DejaVuSans-72" x="323.144531"/>
      <use xlink:href="#DejaVuSans-61" x="364.257812"/>
      <use xlink:href="#DejaVuSans-74" x="425.537109"/>
      <use xlink:href="#DejaVuSans-75" x="464.746094"/>
      <use xlink:href="#DejaVuSans-72" x="528.125"/>
      <use xlink:href="#DejaVuSans-65" x="566.988281"/>
     </g>
    </g>
   </g>
   <g id="LineCollection_1"/>
   <g id="patch_9">
    <path d="M 342.034813 277.111219 
L 348.687613 277.111219 
L 355.340413 277.111219 
L 355.340413 10.999219 
L 348.687613 10.999219 
L 342.034813 10.999219 
L 342.034813 277.111219 
z
" style="fill: none; stroke: #000000; stroke-width: 0.8; stroke-linejoin: miter; stroke-linecap: square"/>
   </g>
  </g>
 </g>
 <defs>
  <clipPath id="pa3cd8ff63d">
   <rect x="38.482813" y="10.999219" width="285.696" height="266.112"/>
  </clipPath>
  <clipPath id="p6128fea8a3">
   <rect x="342.034813" y="10.999219" width="13.3056" height="266.112"/>
  </clipPath>
 </defs>
</svg>
