<?xml version="1.0" encoding="utf-8" standalone="no"?>
<!DOCTYPE svg PUBLIC "-//W3C//DTD SVG 1.1//EN"
  "http://www.w3.org/Graphics/SVG/1.1/DTD/svg11.dtd">
<svg xmlns:xlink="http://www.w3.org/1999/xlink" width="314.199385pt" height="322.953662pt" viewBox="0 0 314.199385 322.953662" xmlns="http://www.w3.org/2000/svg" version="1.1">
 <metadata>
  <rdf:RDF xmlns:dc="http://purl.org/dc/elements/1.1/" xmlns:cc="http://creativecommons.org/ns#" xmlns:rdf="http://www.w3.org/1999/02/22-rdf-syntax-ns#">
   <cc:Work>
    <dc:type rdf:resource="http://purl.org/dc/dcmitype/StillImage"/>
    <dc:date>2024-09-16T08:12:54.103111</dc:date>
    <dc:format>image/svg+xml</dc:format>
    <dc:creator>
     <cc:Agent>
      <dc:title>Matplotlib v3.6.3, https://matplotlib.org/</dc:title>
     </cc:Agent>
    </dc:creator>
   </cc:Work>
  </rdf:RDF>
 </metadata>
 <defs>
  <style type="text/css">*{stroke-linejoin: round; stroke-linecap: butt}</style>
 </defs>
 <g id="figure_1">
  <g id="patch_1">
   <path d="M 0 322.953662 
L 314.199385 322.953662 
L 314.199385 0 
L 0 0 
z
" style="fill: #ffffff"/>
  </g>
  <g id="patch_2">
   <path d="M 21.6 287.712 
L 287.712 287.712 
L 287.712 21.6 
L 21.6 21.6 
z
" style="fill: #ffffff"/>
  </g>
  <g id="pane3d_1">
   <g id="patch_3">
    <path d="M 51.232607 233.245431 
L 131.742091 164.3149 
L 130.33652 32.919704 
L 45.068128 94.467902 
" style="fill: #f2f2f2; opacity: 0.5; stroke: #f2f2f2; stroke-linejoin: miter"/>
   </g>
  </g>
  <g id="pane3d_2">
   <g id="patch_4">
    <path d="M 131.742091 164.3149 
L 261.699674 202.783675 
L 267.448471 67.202633 
L 130.33652 32.919704 
" style="fill: #e6e6e6; opacity: 0.5; stroke: #e6e6e6; stroke-linejoin: miter"/>
   </g>
  </g>
  <g id="pane3d_3">
   <g id="patch_5">
    <path d="M 51.232607 233.245431 
L 188.347415 278.424759 
L 261.699674 202.783675 
L 131.742091 164.3149 
" style="fill: #ececec; opacity: 0.5; stroke: #ececec; stroke-linejoin: miter"/>
   </g>
  </g>
  <g id="axis3d_1">
   <g id="line2d_1">
    <path d="M 51.232607 233.245431 
L 188.347415 278.424759 
" style="fill: none; stroke: #000000; stroke-width: 0.8; stroke-linecap: square"/>
   </g>
   <g id="text_1">
    <!-- x -->
    <g transform="translate(100.426154 296.366821) scale(0.1 -0.1)">
     <defs>
      <path id="DejaVuSans-78" d="M 3513 3500 
L 2247 1797 
L 3578 0 
L 2900 0 
L 1881 1375 
L 863 0 
L 184 0 
L 1544 1831 
L 300 3500 
L 978 3500 
L 1906 2253 
L 2834 3500 
L 3513 3500 
z
" transform="scale(0.015625)"/>
     </defs>
     <use xlink:href="#DejaVuSans-78"/>
    </g>
   </g>
   <g id="Line3DCollection_1">
    <path d="M 64.359268 237.570666 
L 144.225603 168.010148 
L 143.478482 36.205668 
" style="fill: none; stroke: #b0b0b0; stroke-width: 0.8"/>
    <path d="M 90.989412 246.345298 
L 169.523563 175.498603 
L 170.129527 42.86939 
" style="fill: none; stroke: #b0b0b0; stroke-width: 0.8"/>
    <path d="M 118.134121 255.289479 
L 195.272605 183.120583 
L 197.281569 49.658379 
" style="fill: none; stroke: #b0b0b0; stroke-width: 0.8"/>
    <path d="M 145.808456 264.408172 
L 221.484903 190.879691 
L 224.948868 56.576201 
" style="fill: none; stroke: #b0b0b0; stroke-width: 0.8"/>
    <path d="M 174.028068 273.706534 
L 248.173071 198.779662 
L 253.146232 63.626558 
" style="fill: none; stroke: #b0b0b0; stroke-width: 0.8"/>
   </g>
   <g id="xtick_1">
    <g id="line2d_2">
     <path d="M 65.05019 236.968899 
L 62.974697 238.776574 
" style="fill: none; stroke: #000000; stroke-width: 0.8; stroke-linecap: square"/>
    </g>
    <g id="text_2">
     <!-- −1.0 -->
     <g transform="translate(45.458171 262.373079) scale(0.1 -0.1)">
      <defs>
       <path id="DejaVuSans-2212" d="M 678 2272 
L 4684 2272 
L 4684 1741 
L 678 1741 
L 678 2272 
z
" transform="scale(0.015625)"/>
       <path id="DejaVuSans-31" d="M 794 531 
L 1825 531 
L 1825 4091 
L 703 3866 
L 703 4441 
L 1819 4666 
L 2450 4666 
L 2450 531 
L 3481 531 
L 3481 0 
L 794 0 
L 794 531 
z
" transform="scale(0.015625)"/>
       <path id="DejaVuSans-2e" d="M 684 794 
L 1344 794 
L 1344 0 
L 684 0 
L 684 794 
z
" transform="scale(0.015625)"/>
       <path id="DejaVuSans-30" d="M 2034 4250 
Q 1547 4250 1301 3770 
Q 1056 3291 1056 2328 
Q 1056 1369 1301 889 
Q 1547 409 2034 409 
Q 2525 409 2770 889 
Q 3016 1369 3016 2328 
Q 3016 3291 2770 3770 
Q 2525 4250 2034 4250 
z
M 2034 4750 
Q 2819 4750 3233 4129 
Q 3647 3509 3647 2328 
Q 3647 1150 3233 529 
Q 2819 -91 2034 -91 
Q 1250 -91 836 529 
Q 422 1150 422 2328 
Q 422 3509 836 4129 
Q 1250 4750 2034 4750 
z
" transform="scale(0.015625)"/>
      </defs>
      <use xlink:href="#DejaVuSans-2212"/>
      <use xlink:href="#DejaVuSans-31" x="83.789062"/>
      <use xlink:href="#DejaVuSans-2e" x="147.412109"/>
      <use xlink:href="#DejaVuSans-30" x="179.199219"/>
     </g>
    </g>
   </g>
   <g id="xtick_2">
    <g id="line2d_3">
     <path d="M 91.669299 245.731963 
L 89.62693 247.574411 
" style="fill: none; stroke: #000000; stroke-width: 0.8; stroke-linecap: square"/>
    </g>
    <g id="text_3">
     <!-- −0.5 -->
     <g transform="translate(72.084659 271.332869) scale(0.1 -0.1)">
      <defs>
       <path id="DejaVuSans-35" d="M 691 4666 
L 3169 4666 
L 3169 4134 
L 1269 4134 
L 1269 2991 
Q 1406 3038 1543 3061 
Q 1681 3084 1819 3084 
Q 2600 3084 3056 2656 
Q 3513 2228 3513 1497 
Q 3513 744 3044 326 
Q 2575 -91 1722 -91 
Q 1428 -91 1123 -41 
Q 819 9 494 109 
L 494 744 
Q 775 591 1075 516 
Q 1375 441 1709 441 
Q 2250 441 2565 725 
Q 2881 1009 2881 1497 
Q 2881 1984 2565 2268 
Q 2250 2553 1709 2553 
Q 1456 2553 1204 2497 
Q 953 2441 691 2322 
L 691 4666 
z
" transform="scale(0.015625)"/>
      </defs>
      <use xlink:href="#DejaVuSans-2212"/>
      <use xlink:href="#DejaVuSans-30" x="83.789062"/>
      <use xlink:href="#DejaVuSans-2e" x="147.412109"/>
      <use xlink:href="#DejaVuSans-35" x="179.199219"/>
     </g>
    </g>
   </g>
   <g id="xtick_3">
    <g id="line2d_4">
     <path d="M 118.802415 254.66424 
L 116.794846 256.542473 
" style="fill: none; stroke: #000000; stroke-width: 0.8; stroke-linecap: square"/>
    </g>
    <g id="text_4">
     <!-- 0.0 -->
     <g transform="translate(103.416679 280.466188) scale(0.1 -0.1)">
      <use xlink:href="#DejaVuSans-30"/>
      <use xlink:href="#DejaVuSans-2e" x="63.623047"/>
      <use xlink:href="#DejaVuSans-30" x="95.410156"/>
     </g>
    </g>
   </g>
   <g id="xtick_4">
    <g id="line2d_5">
     <path d="M 146.464572 263.770678 
L 144.493558 265.685749 
" style="fill: none; stroke: #000000; stroke-width: 0.8; stroke-linecap: square"/>
    </g>
    <g id="text_5">
     <!-- 0.5 -->
     <g transform="translate(131.089671 289.778126) scale(0.1 -0.1)">
      <use xlink:href="#DejaVuSans-30"/>
      <use xlink:href="#DejaVuSans-2e" x="63.623047"/>
      <use xlink:href="#DejaVuSans-35" x="95.410156"/>
     </g>
    </g>
   </g>
   <g id="xtick_5">
    <g id="line2d_6">
     <path d="M 174.671396 273.056422 
L 172.738773 275.009425 
" style="fill: none; stroke: #000000; stroke-width: 0.8; stroke-linecap: square"/>
    </g>
    <g id="text_6">
     <!-- 1.0 -->
     <g transform="translate(159.309204 299.273975) scale(0.1 -0.1)">
      <use xlink:href="#DejaVuSans-31"/>
      <use xlink:href="#DejaVuSans-2e" x="63.623047"/>
      <use xlink:href="#DejaVuSans-30" x="95.410156"/>
     </g>
    </g>
   </g>
  </g>
  <g id="axis3d_2">
   <g id="line2d_7">
    <path d="M 261.699674 202.783675 
L 188.347415 278.424759 
" style="fill: none; stroke: #000000; stroke-width: 0.8; stroke-linecap: square"/>
   </g>
   <g id="text_7">
    <!-- y -->
    <g transform="translate(248.080665 273.392768) scale(0.1 -0.1)">
     <defs>
      <path id="DejaVuSans-79" d="M 2059 -325 
Q 1816 -950 1584 -1140 
Q 1353 -1331 966 -1331 
L 506 -1331 
L 506 -850 
L 844 -850 
Q 1081 -850 1212 -737 
Q 1344 -625 1503 -206 
L 1606 56 
L 191 3500 
L 800 3500 
L 1894 763 
L 2988 3500 
L 3597 3500 
L 2059 -325 
z
" transform="scale(0.015625)"/>
     </defs>
     <use xlink:href="#DejaVuSans-79"/>
    </g>
   </g>
   <g id="Line3DCollection_2">
    <path d="M 54.252351 87.838571 
L 59.870718 225.849662 
L 196.243862 270.281917 
" style="fill: none; stroke: #b0b0b0; stroke-width: 0.8"/>
    <path d="M 72.156704 74.914899 
L 76.733649 211.411974 
L 211.640717 254.404631 
" style="fill: none; stroke: #b0b0b0; stroke-width: 0.8"/>
    <path d="M 89.467893 62.419384 
L 93.06715 197.427574 
L 226.531225 239.049492 
" style="fill: none; stroke: #b0b0b0; stroke-width: 0.8"/>
    <path d="M 106.214914 50.331096 
L 108.895769 183.875442 
L 240.93996 224.191158 
" style="fill: none; stroke: #b0b0b0; stroke-width: 0.8"/>
    <path d="M 122.424903 38.630445 
L 124.242559 170.735843 
L 254.889932 209.805903 
" style="fill: none; stroke: #b0b0b0; stroke-width: 0.8"/>
   </g>
   <g id="xtick_6">
    <g id="line2d_8">
     <path d="M 195.099779 269.909159 
L 198.534726 271.028312 
" style="fill: none; stroke: #000000; stroke-width: 0.8; stroke-linecap: square"/>
    </g>
    <g id="text_8">
     <!-- −1.0 -->
     <g transform="translate(195.787042 292.893751) scale(0.1 -0.1)">
      <use xlink:href="#DejaVuSans-2212"/>
      <use xlink:href="#DejaVuSans-31" x="83.789062"/>
      <use xlink:href="#DejaVuSans-2e" x="147.412109"/>
      <use xlink:href="#DejaVuSans-30" x="179.199219"/>
     </g>
    </g>
   </g>
   <g id="xtick_7">
    <g id="line2d_9">
     <path d="M 210.509811 254.04423 
L 213.90515 255.126269 
" style="fill: none; stroke: #000000; stroke-width: 0.8; stroke-linecap: square"/>
    </g>
    <g id="text_9">
     <!-- −0.5 -->
     <g transform="translate(210.979141 276.775456) scale(0.1 -0.1)">
      <use xlink:href="#DejaVuSans-2212"/>
      <use xlink:href="#DejaVuSans-30" x="83.789062"/>
      <use xlink:href="#DejaVuSans-2e" x="147.412109"/>
      <use xlink:href="#DejaVuSans-35" x="179.199219"/>
     </g>
    </g>
   </g>
   <g id="xtick_8">
    <g id="line2d_10">
     <path d="M 225.413255 238.700844 
L 228.769713 239.747584 
" style="fill: none; stroke: #000000; stroke-width: 0.8; stroke-linecap: square"/>
    </g>
    <g id="text_10">
     <!-- 0.0 -->
     <g transform="translate(229.861776 261.186909) scale(0.1 -0.1)">
      <use xlink:href="#DejaVuSans-30"/>
      <use xlink:href="#DejaVuSans-2e" x="63.623047"/>
      <use xlink:href="#DejaVuSans-30" x="95.410156"/>
     </g>
    </g>
   </g>
   <g id="xtick_9">
    <g id="line2d_11">
     <path d="M 239.834689 223.853697 
L 243.152983 224.866838 
" style="fill: none; stroke: #000000; stroke-width: 0.8; stroke-linecap: square"/>
    </g>
    <g id="text_11">
     <!-- 0.5 -->
     <g transform="translate(244.079476 246.102418) scale(0.1 -0.1)">
      <use xlink:href="#DejaVuSans-30"/>
      <use xlink:href="#DejaVuSans-2e" x="63.623047"/>
      <use xlink:href="#DejaVuSans-35" x="95.410156"/>
     </g>
    </g>
   </g>
   <g id="xtick_10">
    <g id="line2d_12">
     <path d="M 253.797123 209.479099 
L 257.077963 210.460233 
" style="fill: none; stroke: #000000; stroke-width: 0.8; stroke-linecap: square"/>
    </g>
    <g id="text_12">
     <!-- 1.0 -->
     <g transform="translate(257.844762 231.497922) scale(0.1 -0.1)">
      <use xlink:href="#DejaVuSans-31"/>
      <use xlink:href="#DejaVuSans-2e" x="63.623047"/>
      <use xlink:href="#DejaVuSans-30" x="95.410156"/>
     </g>
    </g>
   </g>
  </g>
  <g id="axis3d_3">
   <g id="line2d_13">
    <path d="M 261.699674 202.783675 
L 267.448471 67.202633 
" style="fill: none; stroke: #000000; stroke-width: 0.8; stroke-linecap: square"/>
   </g>
   <g id="text_13">
    <!-- z -->
    <g transform="translate(299.311397 134.569327) scale(0.1 -0.1)">
     <defs>
      <path id="DejaVuSans-7a" d="M 353 3500 
L 3084 3500 
L 3084 2975 
L 922 459 
L 3084 459 
L 3084 0 
L 275 0 
L 275 525 
L 2438 3041 
L 353 3041 
L 353 3500 
z
" transform="scale(0.015625)"/>
     </defs>
     <use xlink:href="#DejaVuSans-7a"/>
    </g>
   </g>
   <g id="Line3DCollection_3">
    <path d="M 262.247171 189.871378 
L 131.607935 151.77382 
L 50.646541 220.051661 
" style="fill: none; stroke: #b0b0b0; stroke-width: 0.8"/>
    <path d="M 263.359736 163.632366 
L 131.33551 126.306978 
L 49.454941 193.225805 
" style="fill: none; stroke: #b0b0b0; stroke-width: 0.8"/>
    <path d="M 264.496364 136.825861 
L 131.057455 100.313979 
L 48.236653 165.799168 
" style="fill: none; stroke: #b0b0b0; stroke-width: 0.8"/>
    <path d="M 265.657843 109.433249 
L 130.773596 73.778347 
L 46.990772 137.75134 
" style="fill: none; stroke: #b0b0b0; stroke-width: 0.8"/>
    <path d="M 266.844998 81.435097 
L 130.483749 46.682913 
L 45.71635 109.060975 
" style="fill: none; stroke: #b0b0b0; stroke-width: 0.8"/>
   </g>
   <g id="xtick_11">
    <g id="line2d_14">
     <path d="M 261.154556 189.552745 
L 264.434807 190.509345 
" style="fill: none; stroke: #000000; stroke-width: 0.8; stroke-linecap: square"/>
    </g>
    <g id="text_14">
     <!-- −1.0 -->
     <g transform="translate(267.026614 195.05642) scale(0.1 -0.1)">
      <use xlink:href="#DejaVuSans-2212"/>
      <use xlink:href="#DejaVuSans-31" x="83.789062"/>
      <use xlink:href="#DejaVuSans-2e" x="147.412109"/>
      <use xlink:href="#DejaVuSans-30" x="179.199219"/>
     </g>
    </g>
   </g>
   <g id="xtick_12">
    <g id="line2d_15">
     <path d="M 262.255024 163.320046 
L 265.571619 164.257701 
" style="fill: none; stroke: #000000; stroke-width: 0.8; stroke-linecap: square"/>
    </g>
    <g id="text_15">
     <!-- −0.5 -->
     <g transform="translate(268.316573 168.865285) scale(0.1 -0.1)">
      <use xlink:href="#DejaVuSans-2212"/>
      <use xlink:href="#DejaVuSans-30" x="83.789062"/>
      <use xlink:href="#DejaVuSans-2e" x="147.412109"/>
      <use xlink:href="#DejaVuSans-35" x="179.199219"/>
     </g>
    </g>
   </g>
   <g id="xtick_13">
    <g id="line2d_16">
     <path d="M 263.379284 136.520203 
L 266.733036 137.437864 
" style="fill: none; stroke: #000000; stroke-width: 0.8; stroke-linecap: square"/>
    </g>
    <g id="text_16">
     <!-- 0.0 -->
     <g transform="translate(273.824196 142.109298) scale(0.1 -0.1)">
      <use xlink:href="#DejaVuSans-30"/>
      <use xlink:href="#DejaVuSans-2e" x="63.623047"/>
      <use xlink:href="#DejaVuSans-30" x="95.410156"/>
     </g>
    </g>
   </g>
   <g id="xtick_14">
    <g id="line2d_17">
     <path d="M 264.528116 109.13462 
L 267.919866 110.031185 
" style="fill: none; stroke: #000000; stroke-width: 0.8; stroke-linecap: square"/>
    </g>
    <g id="text_17">
     <!-- 0.5 -->
     <g transform="translate(275.170704 114.769987) scale(0.1 -0.1)">
      <use xlink:href="#DejaVuSans-30"/>
      <use xlink:href="#DejaVuSans-2e" x="63.623047"/>
      <use xlink:href="#DejaVuSans-35" x="95.410156"/>
     </g>
    </g>
   </g>
   <g id="xtick_15">
    <g id="line2d_18">
     <path d="M 265.702334 81.143885 
L 269.132952 82.018191 
" style="fill: none; stroke: #000000; stroke-width: 0.8; stroke-linecap: square"/>
    </g>
    <g id="text_18">
     <!-- 1.0 -->
     <g transform="translate(276.546892 86.828066) scale(0.1 -0.1)">
      <use xlink:href="#DejaVuSans-31"/>
      <use xlink:href="#DejaVuSans-2e" x="63.623047"/>
      <use xlink:href="#DejaVuSans-30" x="95.410156"/>
     </g>
    </g>
   </g>
  </g>
  <g id="axes_1">
   <g id="line2d_19">
    <path d="M 72.465489 216.939657 
L 136.67846 161.846716 
" clip-path="url(#pe4ef6c6d69)" style="fill: none; stroke: #427ce5; stroke-width: 1.5; stroke-linecap: square"/>
   </g>
   <g id="line2d_20">
    <path d="M 126.24698 234.211653 
L 188.254585 177.042799 
" clip-path="url(#pe4ef6c6d69)" style="fill: none; stroke: #427ce5; stroke-width: 1.5; stroke-linecap: square"/>
   </g>
   <g id="line2d_21">
    <path d="M 182.141817 252.162352 
L 241.728247 192.797961 
" clip-path="url(#pe4ef6c6d69)" style="fill: none; stroke: #427ce5; stroke-width: 1.5; stroke-linecap: square"/>
   </g>
   <g id="line2d_22">
    <path d="M 72.465489 216.939657 
L 182.141817 252.162352 
" clip-path="url(#pe4ef6c6d69)" style="fill: none; stroke: #427ce5; stroke-width: 1.5; stroke-linecap: square"/>
   </g>
   <g id="line2d_23">
    <path d="M 105.589932 188.519808 
L 212.915542 221.5033 
" clip-path="url(#pe4ef6c6d69)" style="fill: none; stroke: #427ce5; stroke-width: 1.5; stroke-linecap: square"/>
   </g>
   <g id="line2d_24">
    <path d="M 136.67846 161.846716 
L 241.728247 192.797961 
" clip-path="url(#pe4ef6c6d69)" style="fill: none; stroke: #427ce5; stroke-width: 1.5; stroke-linecap: square"/>
   </g>
   <g id="line2d_25">
    <path d="M 70.551044 162.809607 
L 136.227224 109.9609 
" clip-path="url(#pe4ef6c6d69)" style="fill: none; stroke: #427ce5; stroke-width: 1.5; stroke-linecap: square"/>
   </g>
   <g id="line2d_26">
    <path d="M 125.518667 179.407884 
L 188.893695 124.523499 
" clip-path="url(#pe4ef6c6d69)" style="fill: none; stroke: #427ce5; stroke-width: 1.5; stroke-linecap: square"/>
   </g>
   <g id="line2d_27">
    <path d="M 182.696384 196.673531 
L 243.539869 139.633499 
" clip-path="url(#pe4ef6c6d69)" style="fill: none; stroke: #427ce5; stroke-width: 1.5; stroke-linecap: square"/>
   </g>
   <g id="line2d_28">
    <path d="M 70.551044 162.809607 
L 182.696384 196.673531 
" clip-path="url(#pe4ef6c6d69)" style="fill: none; stroke: #427ce5; stroke-width: 1.5; stroke-linecap: square"/>
   </g>
   <g id="line2d_29">
    <path d="M 104.452769 135.529361 
L 214.141781 167.193851 
" clip-path="url(#pe4ef6c6d69)" style="fill: none; stroke: #427ce5; stroke-width: 1.5; stroke-linecap: square"/>
   </g>
   <g id="line2d_30">
    <path d="M 136.227224 109.9609 
L 243.539869 139.633499 
" clip-path="url(#pe4ef6c6d69)" style="fill: none; stroke: #427ce5; stroke-width: 1.5; stroke-linecap: square"/>
   </g>
   <g id="line2d_31">
    <path d="M 68.549202 106.208439 
L 135.75671 55.858223 
" clip-path="url(#pe4ef6c6d69)" style="fill: none; stroke: #427ce5; stroke-width: 1.5; stroke-linecap: square"/>
   </g>
   <g id="line2d_32">
    <path d="M 124.756434 122.051787 
L 189.560626 69.717975 
" clip-path="url(#pe4ef6c6d69)" style="fill: none; stroke: #427ce5; stroke-width: 1.5; stroke-linecap: square"/>
   </g>
   <g id="line2d_33">
    <path d="M 183.27731 138.547291 
L 245.431868 84.110266 
" clip-path="url(#pe4ef6c6d69)" style="fill: none; stroke: #427ce5; stroke-width: 1.5; stroke-linecap: square"/>
   </g>
   <g id="line2d_34">
    <path d="M 68.549202 106.208439 
L 183.27731 138.547291 
" clip-path="url(#pe4ef6c6d69)" style="fill: none; stroke: #427ce5; stroke-width: 1.5; stroke-linecap: square"/>
   </g>
   <g id="line2d_35">
    <path d="M 103.265413 80.199905 
L 215.424298 110.391892 
" clip-path="url(#pe4ef6c6d69)" style="fill: none; stroke: #427ce5; stroke-width: 1.5; stroke-linecap: square"/>
   </g>
   <g id="line2d_36">
    <path d="M 135.75671 55.858223 
L 245.431868 84.110266 
" clip-path="url(#pe4ef6c6d69)" style="fill: none; stroke: #427ce5; stroke-width: 1.5; stroke-linecap: square"/>
   </g>
   <g id="line2d_37">
    <path d="M 72.465489 216.939657 
L 68.549202 106.208439 
" clip-path="url(#pe4ef6c6d69)" style="fill: none; stroke: #427ce5; stroke-width: 1.5; stroke-linecap: square"/>
   </g>
   <g id="line2d_38">
    <path d="M 126.24698 234.211653 
L 124.756434 122.051787 
" clip-path="url(#pe4ef6c6d69)" style="fill: none; stroke: #427ce5; stroke-width: 1.5; stroke-linecap: square"/>
   </g>
   <g id="line2d_39">
    <path d="M 182.141817 252.162352 
L 183.27731 138.547291 
" clip-path="url(#pe4ef6c6d69)" style="fill: none; stroke: #427ce5; stroke-width: 1.5; stroke-linecap: square"/>
   </g>
   <g id="line2d_40">
    <path d="M 105.589932 188.519808 
L 103.265413 80.199905 
" clip-path="url(#pe4ef6c6d69)" style="fill: none; stroke: #427ce5; stroke-width: 1.5; stroke-linecap: square"/>
   </g>
   <g id="line2d_41">
    <path d="M 158.252108 204.704039 
L 158.252108 95.001742 
" clip-path="url(#pe4ef6c6d69)" style="fill: none; stroke: #427ce5; stroke-width: 1.5; stroke-linecap: square"/>
   </g>
   <g id="line2d_42">
    <path d="M 212.915542 221.5033 
L 215.424298 110.391892 
" clip-path="url(#pe4ef6c6d69)" style="fill: none; stroke: #427ce5; stroke-width: 1.5; stroke-linecap: square"/>
   </g>
   <g id="line2d_43">
    <path d="M 136.67846 161.846716 
L 135.75671 55.858223 
" clip-path="url(#pe4ef6c6d69)" style="fill: none; stroke: #427ce5; stroke-width: 1.5; stroke-linecap: square"/>
   </g>
   <g id="line2d_44">
    <path d="M 188.254585 177.042799 
L 189.560626 69.717975 
" clip-path="url(#pe4ef6c6d69)" style="fill: none; stroke: #427ce5; stroke-width: 1.5; stroke-linecap: square"/>
   </g>
   <g id="line2d_45">
    <path d="M 241.728247 192.797961 
L 245.431868 84.110266 
" clip-path="url(#pe4ef6c6d69)" style="fill: none; stroke: #427ce5; stroke-width: 1.5; stroke-linecap: square"/>
   </g>
   <g id="text_19">
    <!-- 0 -->
    <g style="fill: #a81414" transform="translate(72.465489 216.939657) scale(0.08 -0.08)">
     <use xlink:href="#DejaVuSans-30"/>
    </g>
   </g>
   <g id="text_20">
    <!-- 1 -->
    <g style="fill: #a81414" transform="translate(126.24698 234.211653) scale(0.08 -0.08)">
     <use xlink:href="#DejaVuSans-31"/>
    </g>
   </g>
   <g id="text_21">
    <!-- 2 -->
    <g style="fill: #a81414" transform="translate(182.141817 252.162352) scale(0.08 -0.08)">
     <defs>
      <path id="DejaVuSans-32" d="M 1228 531 
L 3431 531 
L 3431 0 
L 469 0 
L 469 531 
Q 828 903 1448 1529 
Q 2069 2156 2228 2338 
Q 2531 2678 2651 2914 
Q 2772 3150 2772 3378 
Q 2772 3750 2511 3984 
Q 2250 4219 1831 4219 
Q 1534 4219 1204 4116 
Q 875 4013 500 3803 
L 500 4441 
Q 881 4594 1212 4672 
Q 1544 4750 1819 4750 
Q 2544 4750 2975 4387 
Q 3406 4025 3406 3419 
Q 3406 3131 3298 2873 
Q 3191 2616 2906 2266 
Q 2828 2175 2409 1742 
Q 1991 1309 1228 531 
z
" transform="scale(0.015625)"/>
     </defs>
     <use xlink:href="#DejaVuSans-32"/>
    </g>
   </g>
   <g id="text_22">
    <!-- 3 -->
    <g style="fill: #a81414" transform="translate(105.589932 188.519808) scale(0.08 -0.08)">
     <defs>
      <path id="DejaVuSans-33" d="M 2597 2516 
Q 3050 2419 3304 2112 
Q 3559 1806 3559 1356 
Q 3559 666 3084 287 
Q 2609 -91 1734 -91 
Q 1441 -91 1130 -33 
Q 819 25 488 141 
L 488 750 
Q 750 597 1062 519 
Q 1375 441 1716 441 
Q 2309 441 2620 675 
Q 2931 909 2931 1356 
Q 2931 1769 2642 2001 
Q 2353 2234 1838 2234 
L 1294 2234 
L 1294 2753 
L 1863 2753 
Q 2328 2753 2575 2939 
Q 2822 3125 2822 3475 
Q 2822 3834 2567 4026 
Q 2313 4219 1838 4219 
Q 1578 4219 1281 4162 
Q 984 4106 628 3988 
L 628 4550 
Q 988 4650 1302 4700 
Q 1616 4750 1894 4750 
Q 2613 4750 3031 4423 
Q 3450 4097 3450 3541 
Q 3450 3153 3228 2886 
Q 3006 2619 2597 2516 
z
" transform="scale(0.015625)"/>
     </defs>
     <use xlink:href="#DejaVuSans-33"/>
    </g>
   </g>
   <g id="text_23">
    <!-- 4 -->
    <g style="fill: #a81414" transform="translate(158.252108 204.704039) scale(0.08 -0.08)">
     <defs>
      <path id="DejaVuSans-34" d="M 2419 4116 
L 825 1625 
L 2419 1625 
L 2419 4116 
z
M 2253 4666 
L 3047 4666 
L 3047 1625 
L 3713 1625 
L 3713 1100 
L 3047 1100 
L 3047 0 
L 2419 0 
L 2419 1100 
L 313 1100 
L 313 1709 
L 2253 4666 
z
" transform="scale(0.015625)"/>
     </defs>
     <use xlink:href="#DejaVuSans-34"/>
    </g>
   </g>
   <g id="text_24">
    <!-- 5 -->
    <g style="fill: #a81414" transform="translate(212.915542 221.5033) scale(0.08 -0.08)">
     <use xlink:href="#DejaVuSans-35"/>
    </g>
   </g>
   <g id="text_25">
    <!-- 6 -->
    <g style="fill: #a81414" transform="translate(136.67846 161.846716) scale(0.08 -0.08)">
     <defs>
      <path id="DejaVuSans-36" d="M 2113 2584 
Q 1688 2584 1439 2293 
Q 1191 2003 1191 1497 
Q 1191 994 1439 701 
Q 1688 409 2113 409 
Q 2538 409 2786 701 
Q 3034 994 3034 1497 
Q 3034 2003 2786 2293 
Q 2538 2584 2113 2584 
z
M 3366 4563 
L 3366 3988 
Q 3128 4100 2886 4159 
Q 2644 4219 2406 4219 
Q 1781 4219 1451 3797 
Q 1122 3375 1075 2522 
Q 1259 2794 1537 2939 
Q 1816 3084 2150 3084 
Q 2853 3084 3261 2657 
Q 3669 2231 3669 1497 
Q 3669 778 3244 343 
Q 2819 -91 2113 -91 
Q 1303 -91 875 529 
Q 447 1150 447 2328 
Q 447 3434 972 4092 
Q 1497 4750 2381 4750 
Q 2619 4750 2861 4703 
Q 3103 4656 3366 4563 
z
" transform="scale(0.015625)"/>
     </defs>
     <use xlink:href="#DejaVuSans-36"/>
    </g>
   </g>
   <g id="text_26">
    <!-- 7 -->
    <g style="fill: #a81414" transform="translate(188.254585 177.042799) scale(0.08 -0.08)">
     <defs>
      <path id="DejaVuSans-37" d="M 525 4666 
L 3525 4666 
L 3525 4397 
L 1831 0 
L 1172 0 
L 2766 4134 
L 525 4134 
L 525 4666 
z
" transform="scale(0.015625)"/>
     </defs>
     <use xlink:href="#DejaVuSans-37"/>
    </g>
   </g>
   <g id="text_27">
    <!-- 8 -->
    <g style="fill: #a81414" transform="translate(241.728247 192.797961) scale(0.08 -0.08)">
     <defs>
      <path id="DejaVuSans-38" d="M 2034 2216 
Q 1584 2216 1326 1975 
Q 1069 1734 1069 1313 
Q 1069 891 1326 650 
Q 1584 409 2034 409 
Q 2484 409 2743 651 
Q 3003 894 3003 1313 
Q 3003 1734 2745 1975 
Q 2488 2216 2034 2216 
z
M 1403 2484 
Q 997 2584 770 2862 
Q 544 3141 544 3541 
Q 544 4100 942 4425 
Q 1341 4750 2034 4750 
Q 2731 4750 3128 4425 
Q 3525 4100 3525 3541 
Q 3525 3141 3298 2862 
Q 3072 2584 2669 2484 
Q 3125 2378 3379 2068 
Q 3634 1759 3634 1313 
Q 3634 634 3220 271 
Q 2806 -91 2034 -91 
Q 1263 -91 848 271 
Q 434 634 434 1313 
Q 434 1759 690 2068 
Q 947 2378 1403 2484 
z
M 1172 3481 
Q 1172 3119 1398 2916 
Q 1625 2713 2034 2713 
Q 2441 2713 2670 2916 
Q 2900 3119 2900 3481 
Q 2900 3844 2670 4047 
Q 2441 4250 2034 4250 
Q 1625 4250 1398 4047 
Q 1172 3844 1172 3481 
z
" transform="scale(0.015625)"/>
     </defs>
     <use xlink:href="#DejaVuSans-38"/>
    </g>
   </g>
   <g id="text_28">
    <!-- 9 -->
    <g style="fill: #a81414" transform="translate(70.551044 162.809607) scale(0.08 -0.08)">
     <defs>
      <path id="DejaVuSans-39" d="M 703 97 
L 703 672 
Q 941 559 1184 500 
Q 1428 441 1663 441 
Q 2288 441 2617 861 
Q 2947 1281 2994 2138 
Q 2813 1869 2534 1725 
Q 2256 1581 1919 1581 
Q 1219 1581 811 2004 
Q 403 2428 403 3163 
Q 403 3881 828 4315 
Q 1253 4750 1959 4750 
Q 2769 4750 3195 4129 
Q 3622 3509 3622 2328 
Q 3622 1225 3098 567 
Q 2575 -91 1691 -91 
Q 1453 -91 1209 -44 
Q 966 3 703 97 
z
M 1959 2075 
Q 2384 2075 2632 2365 
Q 2881 2656 2881 3163 
Q 2881 3666 2632 3958 
Q 2384 4250 1959 4250 
Q 1534 4250 1286 3958 
Q 1038 3666 1038 3163 
Q 1038 2656 1286 2365 
Q 1534 2075 1959 2075 
z
" transform="scale(0.015625)"/>
     </defs>
     <use xlink:href="#DejaVuSans-39"/>
    </g>
   </g>
   <g id="text_29">
    <!-- 10 -->
    <g style="fill: #a81414" transform="translate(125.518667 179.407884) scale(0.08 -0.08)">
     <use xlink:href="#DejaVuSans-31"/>
     <use xlink:href="#DejaVuSans-30" x="63.623047"/>
    </g>
   </g>
   <g id="text_30">
    <!-- 11 -->
    <g style="fill: #a81414" transform="translate(182.696384 196.673531) scale(0.08 -0.08)">
     <use xlink:href="#DejaVuSans-31"/>
     <use xlink:href="#DejaVuSans-31" x="63.623047"/>
    </g>
   </g>
   <g id="text_31">
    <!-- 12 -->
    <g style="fill: #a81414" transform="translate(104.452769 135.529361) scale(0.08 -0.08)">
     <use xlink:href="#DejaVuSans-31"/>
     <use xlink:href="#DejaVuSans-32" x="63.623047"/>
    </g>
   </g>
   <g id="text_32">
    <!-- 13 -->
    <g style="fill: #a81414" transform="translate(158.252108 151.059892) scale(0.08 -0.08)">
     <use xlink:href="#DejaVuSans-31"/>
     <use xlink:href="#DejaVuSans-33" x="63.623047"/>
    </g>
   </g>
   <g id="text_33">
    <!-- 14 -->
    <g style="fill: #a81414" transform="translate(214.141781 167.193851) scale(0.08 -0.08)">
     <use xlink:href="#DejaVuSans-31"/>
     <use xlink:href="#DejaVuSans-34" x="63.623047"/>
    </g>
   </g>
   <g id="text_34">
    <!-- 15 -->
    <g style="fill: #a81414" transform="translate(136.227224 109.9609) scale(0.08 -0.08)">
     <use xlink:href="#DejaVuSans-31"/>
     <use xlink:href="#DejaVuSans-35" x="63.623047"/>
    </g>
   </g>
   <g id="text_35">
    <!-- 16 -->
    <g style="fill: #a81414" transform="translate(188.893695 124.523499) scale(0.08 -0.08)">
     <use xlink:href="#DejaVuSans-31"/>
     <use xlink:href="#DejaVuSans-36" x="63.623047"/>
    </g>
   </g>
   <g id="text_36">
    <!-- 17 -->
    <g style="fill: #a81414" transform="translate(243.539869 139.633499) scale(0.08 -0.08)">
     <use xlink:href="#DejaVuSans-31"/>
     <use xlink:href="#DejaVuSans-37" x="63.623047"/>
    </g>
   </g>
   <g id="text_37">
    <!-- 18 -->
    <g style="fill: #a81414" transform="translate(68.549202 106.208439) scale(0.08 -0.08)">
     <use xlink:href="#DejaVuSans-31"/>
     <use xlink:href="#DejaVuSans-38" x="63.623047"/>
    </g>
   </g>
   <g id="text_38">
    <!-- 19 -->
    <g style="fill: #a81414" transform="translate(124.756434 122.051787) scale(0.08 -0.08)">
     <use xlink:href="#DejaVuSans-31"/>
     <use xlink:href="#DejaVuSans-39" x="63.623047"/>
    </g>
   </g>
   <g id="text_39">
    <!-- 20 -->
    <g style="fill: #a81414" transform="translate(183.27731 138.547291) scale(0.08 -0.08)">
     <use xlink:href="#DejaVuSans-32"/>
     <use xlink:href="#DejaVuSans-30" x="63.623047"/>
    </g>
   </g>
   <g id="text_40">
    <!-- 21 -->
    <g style="fill: #a81414" transform="translate(103.265413 80.199905) scale(0.08 -0.08)">
     <use xlink:href="#DejaVuSans-32"/>
     <use xlink:href="#DejaVuSans-31" x="63.623047"/>
    </g>
   </g>
   <g id="text_41">
    <!-- 22 -->
    <g style="fill: #a81414" transform="translate(158.252108 95.001742) scale(0.08 -0.08)">
     <use xlink:href="#DejaVuSans-32"/>
     <use xlink:href="#DejaVuSans-32" x="63.623047"/>
    </g>
   </g>
   <g id="text_42">
    <!-- 23 -->
    <g style="fill: #a81414" transform="translate(215.424298 110.391892) scale(0.08 -0.08)">
     <use xlink:href="#DejaVuSans-32"/>
     <use xlink:href="#DejaVuSans-33" x="63.623047"/>
    </g>
   </g>
   <g id="text_43">
    <!-- 24 -->
    <g style="fill: #a81414" transform="translate(135.75671 55.858223) scale(0.08 -0.08)">
     <use xlink:href="#DejaVuSans-32"/>
     <use xlink:href="#DejaVuSans-34" x="63.623047"/>
    </g>
   </g>
   <g id="text_44">
    <!-- 25 -->
    <g style="fill: #a81414" transform="translate(189.560626 69.717975) scale(0.08 -0.08)">
     <use xlink:href="#DejaVuSans-32"/>
     <use xlink:href="#DejaVuSans-35" x="63.623047"/>
    </g>
   </g>
   <g id="text_45">
    <!-- 26 -->
    <g style="fill: #a81414" transform="translate(245.431868 84.110266) scale(0.08 -0.08)">
     <use xlink:href="#DejaVuSans-32"/>
     <use xlink:href="#DejaVuSans-36" x="63.623047"/>
    </g>
   </g>
   <g id="text_46">
    <!-- 0 -->
    <g style="fill: #343434" transform="translate(112.005501 186.891273) scale(0.1 -0.1)">
     <use xlink:href="#DejaVuSans-30"/>
    </g>
   </g>
   <g id="text_47">
    <!-- 1 -->
    <g style="fill: #343434" transform="translate(166.833445 203.599133) scale(0.1 -0.1)">
     <use xlink:href="#DejaVuSans-31"/>
    </g>
   </g>
   <g id="text_48">
    <!-- 2 -->
    <g style="fill: #343434" transform="translate(143.898813 159.405289) scale(0.1 -0.1)">
     <use xlink:href="#DejaVuSans-32"/>
    </g>
   </g>
   <g id="text_49">
    <!-- 3 -->
    <g style="fill: #343434" transform="translate(197.546036 175.056856) scale(0.1 -0.1)">
     <use xlink:href="#DejaVuSans-33"/>
    </g>
   </g>
   <g id="text_50">
    <!-- 4 -->
    <g style="fill: #343434" transform="translate(111.040498 131.804087) scale(0.1 -0.1)">
     <use xlink:href="#DejaVuSans-34"/>
    </g>
   </g>
   <g id="text_51">
    <!-- 5 -->
    <g style="fill: #343434" transform="translate(167.102236 147.803578) scale(0.1 -0.1)">
     <use xlink:href="#DejaVuSans-35"/>
    </g>
   </g>
   <g id="text_52">
    <!-- 6 -->
    <g style="fill: #343434" transform="translate(143.656612 105.513599) scale(0.1 -0.1)">
     <use xlink:href="#DejaVuSans-36"/>
    </g>
   </g>
   <g id="text_53">
    <!-- 7 -->
    <g style="fill: #343434" transform="translate(198.484483 120.479809) scale(0.1 -0.1)">
     <use xlink:href="#DejaVuSans-37"/>
    </g>
   </g>
  </g>
 </g>
 <defs>
  <clipPath id="pe4ef6c6d69">
   <rect x="21.6" y="21.6" width="266.112" height="266.112"/>
  </clipPath>
 </defs>
</svg>
