<?xml version="1.0" encoding="utf-8" standalone="no"?>
<!DOCTYPE svg PUBLIC "-//W3C//DTD SVG 1.1//EN"
  "http://www.w3.org/Graphics/SVG/1.1/DTD/svg11.dtd">
<!-- Created with matplotlib (https://matplotlib.org/) -->
<svg height="300.989344pt" version="1.1" viewBox="0 0 389.581038 300.989344" width="389.581038pt" xmlns="http://www.w3.org/2000/svg" xmlns:xlink="http://www.w3.org/1999/xlink">
 <metadata>
  <rdf:RDF xmlns:cc="http://creativecommons.org/ns#" xmlns:dc="http://purl.org/dc/elements/1.1/" xmlns:rdf="http://www.w3.org/1999/02/22-rdf-syntax-ns#">
   <cc:Work>
    <dc:type rdf:resource="http://purl.org/dc/dcmitype/StillImage"/>
    <dc:date>2021-10-06T17:46:54.405463</dc:date>
    <dc:format>image/svg+xml</dc:format>
    <dc:creator>
     <cc:Agent>
      <dc:title>Matplotlib v3.3.4, https://matplotlib.org/</dc:title>
     </cc:Agent>
    </dc:creator>
   </cc:Work>
  </rdf:RDF>
 </metadata>
 <defs>
  <style type="text/css">*{stroke-linecap:butt;stroke-linejoin:round;}</style>
 </defs>
 <g id="figure_1">
  <g id="patch_1">
   <path d="M 0 300.989344 
L 389.581038 300.989344 
L 389.581038 0 
L 0 0 
z
" style="fill:#ffffff;"/>
  </g>
  <g id="axes_1">
   <g id="patch_2">
    <path d="M 38.482813 277.111219 
L 324.178813 277.111219 
L 324.178813 10.999219 
L 38.482813 10.999219 
z
" style="fill:#ffffff;"/>
   </g>
   <g id="PathCollection_1">
    <path clip-path="url(#p530d24816a)" d="M 181.330813 210.583219 
L 217.042813 199.495219 
L 240.850813 177.319219 
L 252.754813 144.055219 
L 240.850813 110.791219 
L 217.042813 88.615219 
L 181.330813 77.527219 
L 145.618813 88.615219 
L 121.810813 110.791219 
L 109.906813 144.055219 
L 121.810813 177.319219 
L 145.618813 199.495219 
L 181.330813 210.583219 
z
" style="fill:#fcaeae;"/>
   </g>
   <g id="PathCollection_2">
    <path clip-path="url(#p530d24816a)" d="M 109.906813 210.583219 
L 145.618813 230.541619 
L 181.330813 237.194419 
L 217.042813 230.541619 
L 252.754813 210.583219 
L 274.182013 177.319219 
L 281.324413 144.055219 
L 274.182013 110.791219 
L 252.754813 77.527219 
L 217.042813 57.568819 
L 181.330813 50.916019 
L 145.618813 57.568819 
L 109.906813 77.527219 
L 88.479613 110.791219 
L 81.337213 144.055219 
L 88.479613 177.319219 
L 109.906813 210.583219 
z
M 181.330813 210.583219 
L 145.618813 199.495219 
L 121.810813 177.319219 
L 109.906813 144.055219 
L 121.810813 110.791219 
L 145.618813 88.615219 
L 181.330813 77.527219 
L 217.042813 88.615219 
L 240.850813 110.791219 
L 252.754813 144.055219 
L 240.850813 177.319219 
L 217.042813 199.495219 
L 181.330813 210.583219 
z
" style="fill:#da98d1;"/>
   </g>
   <g id="PathCollection_3">
    <path clip-path="url(#p530d24816a)" d="M 145.618813 253.351219 
L 181.330813 258.103219 
L 217.042813 253.351219 
L 240.850813 243.847219 
L 252.754813 237.194419 
L 281.324413 210.583219 
L 288.466813 199.495219 
L 298.670241 177.319219 
L 303.771955 144.055219 
L 298.670241 110.791219 
L 288.466813 88.615219 
L 281.324413 77.527219 
L 252.754813 50.916019 
L 240.850813 44.263219 
L 217.042813 34.759219 
L 181.330813 30.007219 
L 145.618813 34.759219 
L 121.810813 44.263219 
L 109.906813 50.916019 
L 81.337213 77.527219 
L 74.194813 88.615219 
L 63.991384 110.791219 
L 58.88967 144.055219 
L 63.991384 177.319219 
L 74.194813 199.495219 
L 81.337213 210.583219 
L 109.906813 237.194419 
L 121.810813 243.847219 
z
M 109.906813 210.583219 
L 88.479613 177.319219 
L 81.337213 144.055219 
L 88.479613 110.791219 
L 109.906813 77.527219 
L 145.618813 57.568819 
L 181.330813 50.916019 
L 217.042813 57.568819 
L 252.754813 77.527219 
L 274.182013 110.791219 
L 281.324413 144.055219 
L 274.182013 177.319219 
L 252.754813 210.583219 
L 217.042813 230.541619 
L 181.330813 237.194419 
L 145.618813 230.541619 
L 109.906813 210.583219 
z
" style="fill:#c45178;"/>
   </g>
   <g id="PathCollection_4">
    <path clip-path="url(#p530d24816a)" d="M 109.906813 258.103219 
L 145.618813 272.359219 
L 181.330813 277.111219 
L 217.042813 272.359219 
L 252.754813 258.103219 
L 274.182013 243.847219 
L 288.466813 230.541619 
L 303.771955 210.583219 
L 319.077098 177.319219 
L 324.178813 144.055219 
L 319.077098 110.791219 
L 303.771955 77.527219 
L 288.466813 57.568819 
L 274.182013 44.263219 
L 252.754813 30.007219 
L 217.042813 15.751219 
L 181.330813 10.999219 
L 145.618813 15.751219 
L 109.906813 30.007219 
L 88.479613 44.263219 
L 74.194813 57.568819 
L 58.88967 77.527219 
L 43.584527 110.791219 
L 38.482813 144.055219 
L 43.584527 177.319219 
L 58.88967 210.583219 
L 74.194813 230.541619 
L 88.479613 243.847219 
z
M 121.810813 243.847219 
L 109.906813 237.194419 
L 81.337213 210.583219 
L 74.194813 199.495219 
L 63.991384 177.319219 
L 58.88967 144.055219 
L 63.991384 110.791219 
L 74.194813 88.615219 
L 81.337213 77.527219 
L 109.906813 50.916019 
L 121.810813 44.263219 
L 145.618813 34.759219 
L 181.330813 30.007219 
L 217.042813 34.759219 
L 240.850813 44.263219 
L 252.754813 50.916019 
L 281.324413 77.527219 
L 288.466813 88.615219 
L 298.670241 110.791219 
L 303.771955 144.055219 
L 298.670241 177.319219 
L 288.466813 199.495219 
L 281.324413 210.583219 
L 252.754813 237.194419 
L 240.850813 243.847219 
L 217.042813 253.351219 
L 181.330813 258.103219 
L 145.618813 253.351219 
z
" style="fill:#5594d2;"/>
   </g>
   <g id="PathCollection_5">
    <path clip-path="url(#p530d24816a)" d="M 74.194813 253.351219 
L 109.906813 277.111219 
L 145.618813 277.111219 
L 181.330813 277.111219 
L 145.618813 272.359219 
L 109.906813 258.103219 
L 88.479613 243.847219 
L 74.194813 230.541619 
L 58.88967 210.583219 
L 43.584527 177.319219 
L 38.482813 144.055219 
L 38.482813 177.319219 
L 38.482813 210.583219 
L 63.991384 243.847219 
z
" style="fill:#e6af69;"/>
    <path clip-path="url(#p530d24816a)" d="M 217.042813 277.111219 
L 252.754813 277.111219 
L 288.466813 253.351219 
L 298.670241 243.847219 
L 324.178813 210.583219 
L 324.178813 177.319219 
L 324.178813 144.055219 
L 319.077098 177.319219 
L 303.771955 210.583219 
L 288.466813 230.541619 
L 274.182013 243.847219 
L 252.754813 258.103219 
L 217.042813 272.359219 
L 181.330813 277.111219 
z
" style="fill:#e6af69;"/>
    <path clip-path="url(#p530d24816a)" d="M 43.584527 110.791219 
L 58.88967 77.527219 
L 74.194813 57.568819 
L 88.479613 44.263219 
L 109.906813 30.007219 
L 145.618813 15.751219 
L 181.330813 10.999219 
L 145.618813 10.999219 
L 109.906813 10.999219 
L 74.194813 34.759219 
L 63.991384 44.263219 
L 38.482813 77.527219 
L 38.482813 110.791219 
L 38.482813 144.055219 
z
" style="fill:#e6af69;"/>
    <path clip-path="url(#p530d24816a)" d="M 324.178813 144.055219 
L 324.178813 110.791219 
L 324.178813 77.527219 
L 298.670241 44.263219 
L 288.466813 34.759219 
L 252.754813 10.999219 
L 217.042813 10.999219 
L 181.330813 10.999219 
L 217.042813 15.751219 
L 252.754813 30.007219 
L 274.182013 44.263219 
L 288.466813 57.568819 
L 303.771955 77.527219 
L 319.077098 110.791219 
z
" style="fill:#e6af69;"/>
   </g>
   <g id="PathCollection_6">
    <path clip-path="url(#p530d24816a)" d="M 74.194813 272.359219 
L 81.337213 277.111219 
L 109.906813 277.111219 
L 74.194813 253.351219 
L 63.991384 243.847219 
L 38.482813 210.583219 
L 38.482813 237.194419 
L 43.584527 243.847219 
z
" style="fill:#e6d969;"/>
    <path clip-path="url(#p530d24816a)" d="M 288.466813 272.359219 
L 319.077098 243.847219 
L 324.178813 237.194419 
L 324.178813 210.583219 
L 298.670241 243.847219 
L 288.466813 253.351219 
L 252.754813 277.111219 
L 281.324413 277.111219 
z
" style="fill:#e6d969;"/>
    <path clip-path="url(#p530d24816a)" d="M 63.991384 44.263219 
L 74.194813 34.759219 
L 109.906813 10.999219 
L 81.337213 10.999219 
L 74.194813 15.751219 
L 43.584527 44.263219 
L 38.482813 50.916019 
L 38.482813 77.527219 
z
" style="fill:#e6d969;"/>
    <path clip-path="url(#p530d24816a)" d="M 324.178813 77.527219 
L 324.178813 50.916019 
L 319.077098 44.263219 
L 288.466813 15.751219 
L 281.324413 10.999219 
L 252.754813 10.999219 
L 288.466813 34.759219 
L 298.670241 44.263219 
z
" style="fill:#e6d969;"/>
   </g>
   <g id="matplotlib.axis_1">
    <g id="xtick_1">
     <g id="line2d_1">
      <defs>
       <path d="M 0 0 
L 0 3.5 
" id="m2e268a33ac" style="stroke:#000000;stroke-width:0.8;"/>
      </defs>
      <g>
       <use style="stroke:#000000;stroke-width:0.8;" x="38.482813" xlink:href="#m2e268a33ac" y="277.111219"/>
      </g>
     </g>
     <g id="text_1">
      <!-- −2.0 -->
      <g transform="translate(26.341406 291.709656)scale(0.1 -0.1)">
       <defs>
        <path d="M 10.59375 35.5 
L 73.1875 35.5 
L 73.1875 27.203125 
L 10.59375 27.203125 
z
" id="DejaVuSans-8722"/>
        <path d="M 19.1875 8.296875 
L 53.609375 8.296875 
L 53.609375 0 
L 7.328125 0 
L 7.328125 8.296875 
Q 12.9375 14.109375 22.625 23.890625 
Q 32.328125 33.6875 34.8125 36.53125 
Q 39.546875 41.84375 41.421875 45.53125 
Q 43.3125 49.21875 43.3125 52.78125 
Q 43.3125 58.59375 39.234375 62.25 
Q 35.15625 65.921875 28.609375 65.921875 
Q 23.96875 65.921875 18.8125 64.3125 
Q 13.671875 62.703125 7.8125 59.421875 
L 7.8125 69.390625 
Q 13.765625 71.78125 18.9375 73 
Q 24.125 74.21875 28.421875 74.21875 
Q 39.75 74.21875 46.484375 68.546875 
Q 53.21875 62.890625 53.21875 53.421875 
Q 53.21875 48.921875 51.53125 44.890625 
Q 49.859375 40.875 45.40625 35.40625 
Q 44.1875 33.984375 37.640625 27.21875 
Q 31.109375 20.453125 19.1875 8.296875 
z
" id="DejaVuSans-50"/>
        <path d="M 10.6875 12.40625 
L 21 12.40625 
L 21 0 
L 10.6875 0 
z
" id="DejaVuSans-46"/>
        <path d="M 31.78125 66.40625 
Q 24.171875 66.40625 20.328125 58.90625 
Q 16.5 51.421875 16.5 36.375 
Q 16.5 21.390625 20.328125 13.890625 
Q 24.171875 6.390625 31.78125 6.390625 
Q 39.453125 6.390625 43.28125 13.890625 
Q 47.125 21.390625 47.125 36.375 
Q 47.125 51.421875 43.28125 58.90625 
Q 39.453125 66.40625 31.78125 66.40625 
z
M 31.78125 74.21875 
Q 44.046875 74.21875 50.515625 64.515625 
Q 56.984375 54.828125 56.984375 36.375 
Q 56.984375 17.96875 50.515625 8.265625 
Q 44.046875 -1.421875 31.78125 -1.421875 
Q 19.53125 -1.421875 13.0625 8.265625 
Q 6.59375 17.96875 6.59375 36.375 
Q 6.59375 54.828125 13.0625 64.515625 
Q 19.53125 74.21875 31.78125 74.21875 
z
" id="DejaVuSans-48"/>
       </defs>
       <use xlink:href="#DejaVuSans-8722"/>
       <use x="83.789062" xlink:href="#DejaVuSans-50"/>
       <use x="147.412109" xlink:href="#DejaVuSans-46"/>
       <use x="179.199219" xlink:href="#DejaVuSans-48"/>
      </g>
     </g>
    </g>
    <g id="xtick_2">
     <g id="line2d_2">
      <g>
       <use style="stroke:#000000;stroke-width:0.8;" x="74.194813" xlink:href="#m2e268a33ac" y="277.111219"/>
      </g>
     </g>
     <g id="text_2">
      <!-- −1.5 -->
      <g transform="translate(62.053406 291.709656)scale(0.1 -0.1)">
       <defs>
        <path d="M 12.40625 8.296875 
L 28.515625 8.296875 
L 28.515625 63.921875 
L 10.984375 60.40625 
L 10.984375 69.390625 
L 28.421875 72.90625 
L 38.28125 72.90625 
L 38.28125 8.296875 
L 54.390625 8.296875 
L 54.390625 0 
L 12.40625 0 
z
" id="DejaVuSans-49"/>
        <path d="M 10.796875 72.90625 
L 49.515625 72.90625 
L 49.515625 64.59375 
L 19.828125 64.59375 
L 19.828125 46.734375 
Q 21.96875 47.46875 24.109375 47.828125 
Q 26.265625 48.1875 28.421875 48.1875 
Q 40.625 48.1875 47.75 41.5 
Q 54.890625 34.8125 54.890625 23.390625 
Q 54.890625 11.625 47.5625 5.09375 
Q 40.234375 -1.421875 26.90625 -1.421875 
Q 22.3125 -1.421875 17.546875 -0.640625 
Q 12.796875 0.140625 7.71875 1.703125 
L 7.71875 11.625 
Q 12.109375 9.234375 16.796875 8.0625 
Q 21.484375 6.890625 26.703125 6.890625 
Q 35.15625 6.890625 40.078125 11.328125 
Q 45.015625 15.765625 45.015625 23.390625 
Q 45.015625 31 40.078125 35.4375 
Q 35.15625 39.890625 26.703125 39.890625 
Q 22.75 39.890625 18.8125 39.015625 
Q 14.890625 38.140625 10.796875 36.28125 
z
" id="DejaVuSans-53"/>
       </defs>
       <use xlink:href="#DejaVuSans-8722"/>
       <use x="83.789062" xlink:href="#DejaVuSans-49"/>
       <use x="147.412109" xlink:href="#DejaVuSans-46"/>
       <use x="179.199219" xlink:href="#DejaVuSans-53"/>
      </g>
     </g>
    </g>
    <g id="xtick_3">
     <g id="line2d_3">
      <g>
       <use style="stroke:#000000;stroke-width:0.8;" x="109.906813" xlink:href="#m2e268a33ac" y="277.111219"/>
      </g>
     </g>
     <g id="text_3">
      <!-- −1.0 -->
      <g transform="translate(97.765406 291.709656)scale(0.1 -0.1)">
       <use xlink:href="#DejaVuSans-8722"/>
       <use x="83.789062" xlink:href="#DejaVuSans-49"/>
       <use x="147.412109" xlink:href="#DejaVuSans-46"/>
       <use x="179.199219" xlink:href="#DejaVuSans-48"/>
      </g>
     </g>
    </g>
    <g id="xtick_4">
     <g id="line2d_4">
      <g>
       <use style="stroke:#000000;stroke-width:0.8;" x="145.618813" xlink:href="#m2e268a33ac" y="277.111219"/>
      </g>
     </g>
     <g id="text_4">
      <!-- −0.5 -->
      <g transform="translate(133.477406 291.709656)scale(0.1 -0.1)">
       <use xlink:href="#DejaVuSans-8722"/>
       <use x="83.789062" xlink:href="#DejaVuSans-48"/>
       <use x="147.412109" xlink:href="#DejaVuSans-46"/>
       <use x="179.199219" xlink:href="#DejaVuSans-53"/>
      </g>
     </g>
    </g>
    <g id="xtick_5">
     <g id="line2d_5">
      <g>
       <use style="stroke:#000000;stroke-width:0.8;" x="181.330813" xlink:href="#m2e268a33ac" y="277.111219"/>
      </g>
     </g>
     <g id="text_5">
      <!-- 0.0 -->
      <g transform="translate(173.37925 291.709656)scale(0.1 -0.1)">
       <use xlink:href="#DejaVuSans-48"/>
       <use x="63.623047" xlink:href="#DejaVuSans-46"/>
       <use x="95.410156" xlink:href="#DejaVuSans-48"/>
      </g>
     </g>
    </g>
    <g id="xtick_6">
     <g id="line2d_6">
      <g>
       <use style="stroke:#000000;stroke-width:0.8;" x="217.042813" xlink:href="#m2e268a33ac" y="277.111219"/>
      </g>
     </g>
     <g id="text_6">
      <!-- 0.5 -->
      <g transform="translate(209.09125 291.709656)scale(0.1 -0.1)">
       <use xlink:href="#DejaVuSans-48"/>
       <use x="63.623047" xlink:href="#DejaVuSans-46"/>
       <use x="95.410156" xlink:href="#DejaVuSans-53"/>
      </g>
     </g>
    </g>
    <g id="xtick_7">
     <g id="line2d_7">
      <g>
       <use style="stroke:#000000;stroke-width:0.8;" x="252.754813" xlink:href="#m2e268a33ac" y="277.111219"/>
      </g>
     </g>
     <g id="text_7">
      <!-- 1.0 -->
      <g transform="translate(244.80325 291.709656)scale(0.1 -0.1)">
       <use xlink:href="#DejaVuSans-49"/>
       <use x="63.623047" xlink:href="#DejaVuSans-46"/>
       <use x="95.410156" xlink:href="#DejaVuSans-48"/>
      </g>
     </g>
    </g>
    <g id="xtick_8">
     <g id="line2d_8">
      <g>
       <use style="stroke:#000000;stroke-width:0.8;" x="288.466813" xlink:href="#m2e268a33ac" y="277.111219"/>
      </g>
     </g>
     <g id="text_8">
      <!-- 1.5 -->
      <g transform="translate(280.51525 291.709656)scale(0.1 -0.1)">
       <use xlink:href="#DejaVuSans-49"/>
       <use x="63.623047" xlink:href="#DejaVuSans-46"/>
       <use x="95.410156" xlink:href="#DejaVuSans-53"/>
      </g>
     </g>
    </g>
    <g id="xtick_9">
     <g id="line2d_9">
      <g>
       <use style="stroke:#000000;stroke-width:0.8;" x="324.178813" xlink:href="#m2e268a33ac" y="277.111219"/>
      </g>
     </g>
     <g id="text_9">
      <!-- 2.0 -->
      <g transform="translate(316.22725 291.709656)scale(0.1 -0.1)">
       <use xlink:href="#DejaVuSans-50"/>
       <use x="63.623047" xlink:href="#DejaVuSans-46"/>
       <use x="95.410156" xlink:href="#DejaVuSans-48"/>
      </g>
     </g>
    </g>
   </g>
   <g id="matplotlib.axis_2">
    <g id="ytick_1">
     <g id="line2d_10">
      <defs>
       <path d="M 0 0 
L -3.5 0 
" id="mcbed4f83a0" style="stroke:#000000;stroke-width:0.8;"/>
      </defs>
      <g>
       <use style="stroke:#000000;stroke-width:0.8;" x="38.482813" xlink:href="#mcbed4f83a0" y="277.111219"/>
      </g>
     </g>
     <g id="text_10">
      <!-- −2.0 -->
      <g transform="translate(7.2 280.910437)scale(0.1 -0.1)">
       <use xlink:href="#DejaVuSans-8722"/>
       <use x="83.789062" xlink:href="#DejaVuSans-50"/>
       <use x="147.412109" xlink:href="#DejaVuSans-46"/>
       <use x="179.199219" xlink:href="#DejaVuSans-48"/>
      </g>
     </g>
    </g>
    <g id="ytick_2">
     <g id="line2d_11">
      <g>
       <use style="stroke:#000000;stroke-width:0.8;" x="38.482813" xlink:href="#mcbed4f83a0" y="243.847219"/>
      </g>
     </g>
     <g id="text_11">
      <!-- −1.5 -->
      <g transform="translate(7.2 247.646437)scale(0.1 -0.1)">
       <use xlink:href="#DejaVuSans-8722"/>
       <use x="83.789062" xlink:href="#DejaVuSans-49"/>
       <use x="147.412109" xlink:href="#DejaVuSans-46"/>
       <use x="179.199219" xlink:href="#DejaVuSans-53"/>
      </g>
     </g>
    </g>
    <g id="ytick_3">
     <g id="line2d_12">
      <g>
       <use style="stroke:#000000;stroke-width:0.8;" x="38.482813" xlink:href="#mcbed4f83a0" y="210.583219"/>
      </g>
     </g>
     <g id="text_12">
      <!-- −1.0 -->
      <g transform="translate(7.2 214.382437)scale(0.1 -0.1)">
       <use xlink:href="#DejaVuSans-8722"/>
       <use x="83.789062" xlink:href="#DejaVuSans-49"/>
       <use x="147.412109" xlink:href="#DejaVuSans-46"/>
       <use x="179.199219" xlink:href="#DejaVuSans-48"/>
      </g>
     </g>
    </g>
    <g id="ytick_4">
     <g id="line2d_13">
      <g>
       <use style="stroke:#000000;stroke-width:0.8;" x="38.482813" xlink:href="#mcbed4f83a0" y="177.319219"/>
      </g>
     </g>
     <g id="text_13">
      <!-- −0.5 -->
      <g transform="translate(7.2 181.118437)scale(0.1 -0.1)">
       <use xlink:href="#DejaVuSans-8722"/>
       <use x="83.789062" xlink:href="#DejaVuSans-48"/>
       <use x="147.412109" xlink:href="#DejaVuSans-46"/>
       <use x="179.199219" xlink:href="#DejaVuSans-53"/>
      </g>
     </g>
    </g>
    <g id="ytick_5">
     <g id="line2d_14">
      <g>
       <use style="stroke:#000000;stroke-width:0.8;" x="38.482813" xlink:href="#mcbed4f83a0" y="144.055219"/>
      </g>
     </g>
     <g id="text_14">
      <!-- 0.0 -->
      <g transform="translate(15.579688 147.854437)scale(0.1 -0.1)">
       <use xlink:href="#DejaVuSans-48"/>
       <use x="63.623047" xlink:href="#DejaVuSans-46"/>
       <use x="95.410156" xlink:href="#DejaVuSans-48"/>
      </g>
     </g>
    </g>
    <g id="ytick_6">
     <g id="line2d_15">
      <g>
       <use style="stroke:#000000;stroke-width:0.8;" x="38.482813" xlink:href="#mcbed4f83a0" y="110.791219"/>
      </g>
     </g>
     <g id="text_15">
      <!-- 0.5 -->
      <g transform="translate(15.579688 114.590437)scale(0.1 -0.1)">
       <use xlink:href="#DejaVuSans-48"/>
       <use x="63.623047" xlink:href="#DejaVuSans-46"/>
       <use x="95.410156" xlink:href="#DejaVuSans-53"/>
      </g>
     </g>
    </g>
    <g id="ytick_7">
     <g id="line2d_16">
      <g>
       <use style="stroke:#000000;stroke-width:0.8;" x="38.482813" xlink:href="#mcbed4f83a0" y="77.527219"/>
      </g>
     </g>
     <g id="text_16">
      <!-- 1.0 -->
      <g transform="translate(15.579688 81.326437)scale(0.1 -0.1)">
       <use xlink:href="#DejaVuSans-49"/>
       <use x="63.623047" xlink:href="#DejaVuSans-46"/>
       <use x="95.410156" xlink:href="#DejaVuSans-48"/>
      </g>
     </g>
    </g>
    <g id="ytick_8">
     <g id="line2d_17">
      <g>
       <use style="stroke:#000000;stroke-width:0.8;" x="38.482813" xlink:href="#mcbed4f83a0" y="44.263219"/>
      </g>
     </g>
     <g id="text_17">
      <!-- 1.5 -->
      <g transform="translate(15.579688 48.062437)scale(0.1 -0.1)">
       <use xlink:href="#DejaVuSans-49"/>
       <use x="63.623047" xlink:href="#DejaVuSans-46"/>
       <use x="95.410156" xlink:href="#DejaVuSans-53"/>
      </g>
     </g>
    </g>
    <g id="ytick_9">
     <g id="line2d_18">
      <g>
       <use style="stroke:#000000;stroke-width:0.8;" x="38.482813" xlink:href="#mcbed4f83a0" y="10.999219"/>
      </g>
     </g>
     <g id="text_18">
      <!-- 2.0 -->
      <g transform="translate(15.579688 14.798437)scale(0.1 -0.1)">
       <use xlink:href="#DejaVuSans-50"/>
       <use x="63.623047" xlink:href="#DejaVuSans-46"/>
       <use x="95.410156" xlink:href="#DejaVuSans-48"/>
      </g>
     </g>
    </g>
   </g>
   <g id="LineCollection_1">
    <path clip-path="url(#p530d24816a)" d="M 181.330813 144.055219 
" style="fill:none;stroke:#ffff00;stroke-dasharray:2.5,4.125;stroke-dashoffset:0;stroke-width:2.5;"/>
   </g>
   <g id="LineCollection_2">
    <path clip-path="url(#p530d24816a)" d="M 228.974467 99.728978 
L 240.850813 110.791219 
L 252.754813 144.055219 
L 240.850813 177.319219 
L 217.042813 199.495219 
L 181.330813 210.583219 
L 145.618813 199.495219 
L 121.810813 177.319219 
L 109.906813 144.055219 
L 121.810813 110.791219 
L 145.618813 88.615219 
L 181.330813 77.527219 
L 202.601628 84.131464 
" style="fill:none;stroke:#ffff00;stroke-dasharray:2.5,4.125;stroke-dashoffset:0;stroke-width:2.5;"/>
   </g>
   <g id="LineCollection_3">
    <path clip-path="url(#p530d24816a)" d="M 278.039261 128.755421 
L 281.324413 144.055219 
L 274.182013 177.319219 
L 252.754813 210.583219 
L 217.042813 230.541619 
L 181.330813 237.194419 
L 145.618813 230.541619 
L 109.906813 210.583219 
L 88.479613 177.319219 
L 81.337213 144.055219 
L 88.479613 110.791219 
L 109.906813 77.527219 
L 145.618813 57.568819 
L 181.330813 50.916019 
L 217.042813 57.568819 
L 252.754813 77.527219 
L 264.849885 96.303843 
" style="fill:none;stroke:#ffff00;stroke-dasharray:2.5,4.125;stroke-dashoffset:0;stroke-width:2.5;"/>
   </g>
   <g id="LineCollection_4">
    <path clip-path="url(#p530d24816a)" d="M 254.230544 52.290591 
L 281.324413 77.527219 
L 288.466813 88.615219 
L 298.670241 110.791219 
L 303.771955 144.055219 
L 298.670241 177.319219 
L 288.466813 199.495219 
L 281.324413 210.583219 
L 252.754813 237.194419 
L 240.850813 243.847219 
L 217.042813 253.351219 
L 181.330813 258.103219 
L 145.618813 253.351219 
L 121.810813 243.847219 
L 109.906813 237.194419 
L 81.337213 210.583219 
L 74.194813 199.495219 
L 63.991384 177.319219 
L 58.88967 144.055219 
L 63.991384 110.791219 
L 74.194813 88.615219 
L 81.337213 77.527219 
L 109.906813 50.916019 
L 121.810813 44.263219 
L 145.618813 34.759219 
L 181.330813 30.007219 
L 217.042813 34.759219 
L 226.676089 38.604761 
" style="fill:none;stroke:#ffff00;stroke-dasharray:2.5,4.125;stroke-dashoffset:0;stroke-width:2.5;"/>
   </g>
   <g id="LineCollection_5">
    <path clip-path="url(#p530d24816a)" d="M 181.330813 277.111219 
L 145.618813 272.359219 
L 109.906813 258.103219 
L 88.479613 243.847219 
L 86.126467 241.655378 
" style="fill:none;stroke:#ffff00;stroke-dasharray:2.5,4.125;stroke-dashoffset:0;stroke-width:2.5;"/>
    <path clip-path="url(#p530d24816a)" d="M 63.897962 217.114194 
L 58.88967 210.583219 
L 43.584527 177.319219 
L 38.482813 144.055219 
" style="fill:none;stroke:#ffff00;stroke-dasharray:2.5,4.125;stroke-dashoffset:0;stroke-width:2.5;"/>
    <path clip-path="url(#p530d24816a)" d="M 324.178813 144.055219 
L 319.077098 177.319219 
L 303.771955 210.583219 
L 288.466813 230.541619 
L 286.113667 232.73346 
" style="fill:none;stroke:#ffff00;stroke-dasharray:2.5,4.125;stroke-dashoffset:0;stroke-width:2.5;"/>
    <path clip-path="url(#p530d24816a)" d="M 261.046741 252.586412 
L 252.754813 258.103219 
L 217.042813 272.359219 
L 181.330813 277.111219 
" style="fill:none;stroke:#ffff00;stroke-dasharray:2.5,4.125;stroke-dashoffset:0;stroke-width:2.5;"/>
    <path clip-path="url(#p530d24816a)" d="M 38.482813 144.055219 
L 43.584527 110.791219 
L 58.88967 77.527219 
L 74.194813 57.568819 
L 76.547958 55.376978 
" style="fill:none;stroke:#ffff00;stroke-dasharray:2.5,4.125;stroke-dashoffset:0;stroke-width:2.5;"/>
    <path clip-path="url(#p530d24816a)" d="M 101.614884 35.524026 
L 109.906813 30.007219 
L 145.618813 15.751219 
L 181.330813 10.999219 
" style="fill:none;stroke:#ffff00;stroke-dasharray:2.5,4.125;stroke-dashoffset:0;stroke-width:2.5;"/>
    <path clip-path="url(#p530d24816a)" d="M 181.330813 10.999219 
L 217.042813 15.751219 
L 252.754813 30.007219 
L 274.182013 44.263219 
L 276.535158 46.45506 
" style="fill:none;stroke:#ffff00;stroke-dasharray:2.5,4.125;stroke-dashoffset:0;stroke-width:2.5;"/>
    <path clip-path="url(#p530d24816a)" d="M 298.763663 70.996244 
L 303.771955 77.527219 
L 319.077098 110.791219 
L 324.178813 144.055219 
" style="fill:none;stroke:#ffff00;stroke-dasharray:2.5,4.125;stroke-dashoffset:0;stroke-width:2.5;"/>
   </g>
   <g id="LineCollection_6">
    <path clip-path="url(#p530d24816a)" d="M 109.906813 277.111219 
L 76.097375 254.617037 
" style="fill:none;stroke:#ffff00;stroke-dasharray:2.5,4.125;stroke-dashoffset:0;stroke-width:2.5;"/>
    <path clip-path="url(#p530d24816a)" d="M 53.694534 230.419794 
L 38.482813 210.583219 
" style="fill:none;stroke:#ffff00;stroke-dasharray:2.5,4.125;stroke-dashoffset:0;stroke-width:2.5;"/>
    <path clip-path="url(#p530d24816a)" d="M 324.178813 210.583219 
L 300.161676 241.902339 
" style="fill:none;stroke:#ffff00;stroke-dasharray:2.5,4.125;stroke-dashoffset:0;stroke-width:2.5;"/>
    <path clip-path="url(#p530d24816a)" d="M 275.331541 262.090412 
L 252.754813 277.111219 
" style="fill:none;stroke:#ffff00;stroke-dasharray:2.5,4.125;stroke-dashoffset:0;stroke-width:2.5;"/>
    <path clip-path="url(#p530d24816a)" d="M 38.482813 77.527219 
L 62.499949 46.208098 
" style="fill:none;stroke:#ffff00;stroke-dasharray:2.5,4.125;stroke-dashoffset:0;stroke-width:2.5;"/>
    <path clip-path="url(#p530d24816a)" d="M 87.330084 26.020026 
L 109.906813 10.999219 
" style="fill:none;stroke:#ffff00;stroke-dasharray:2.5,4.125;stroke-dashoffset:0;stroke-width:2.5;"/>
    <path clip-path="url(#p530d24816a)" d="M 252.754813 10.999219 
L 286.56425 33.493401 
" style="fill:none;stroke:#ffff00;stroke-dasharray:2.5,4.125;stroke-dashoffset:0;stroke-width:2.5;"/>
    <path clip-path="url(#p530d24816a)" d="M 308.967091 57.690644 
L 324.178813 77.527219 
" style="fill:none;stroke:#ffff00;stroke-dasharray:2.5,4.125;stroke-dashoffset:0;stroke-width:2.5;"/>
   </g>
   <g id="LineCollection_7">
    <path clip-path="url(#p530d24816a)" d="M 81.337213 277.111219 
L 74.194813 272.359219 
L 55.516182 254.960978 
" style="fill:none;stroke:#ffff00;stroke-dasharray:2.5,4.125;stroke-dashoffset:0;stroke-width:2.5;"/>
    <path clip-path="url(#p530d24816a)" d="M 324.178813 237.194419 
L 319.077098 243.847219 
L 300.398467 261.24546 
" style="fill:none;stroke:#ffff00;stroke-dasharray:2.5,4.125;stroke-dashoffset:0;stroke-width:2.5;"/>
    <path clip-path="url(#p530d24816a)" d="M 38.482813 50.916019 
L 43.584527 44.263219 
L 62.263158 26.864978 
" style="fill:none;stroke:#ffff00;stroke-dasharray:2.5,4.125;stroke-dashoffset:0;stroke-width:2.5;"/>
    <path clip-path="url(#p530d24816a)" d="M 281.324413 10.999219 
L 288.466813 15.751219 
L 307.145443 33.14946 
" style="fill:none;stroke:#ffff00;stroke-dasharray:2.5,4.125;stroke-dashoffset:0;stroke-width:2.5;"/>
   </g>
   <g id="LineCollection_8">
    <path clip-path="url(#p530d24816a)" d="M 181.330813 210.583219 
L 145.618813 199.495219 
L 121.810813 177.319219 
L 109.906813 144.055219 
L 121.810813 110.791219 
L 145.618813 88.615219 
L 181.330813 77.527219 
L 217.042813 88.615219 
L 240.850813 110.791219 
L 252.754813 144.055219 
L 240.850813 177.319219 
L 217.042813 199.495219 
L 181.330813 210.583219 
" style="fill:none;stroke:#69e699;stroke-width:5;"/>
   </g>
   <g id="patch_3">
    <path d="M 38.482813 277.111219 
L 38.482813 10.999219 
" style="fill:none;stroke:#000000;stroke-linecap:square;stroke-linejoin:miter;stroke-width:0.8;"/>
   </g>
   <g id="patch_4">
    <path d="M 324.178813 277.111219 
L 324.178813 10.999219 
" style="fill:none;stroke:#000000;stroke-linecap:square;stroke-linejoin:miter;stroke-width:0.8;"/>
   </g>
   <g id="patch_5">
    <path d="M 38.482813 277.111219 
L 324.178813 277.111219 
" style="fill:none;stroke:#000000;stroke-linecap:square;stroke-linejoin:miter;stroke-width:0.8;"/>
   </g>
   <g id="patch_6">
    <path d="M 38.482813 10.999219 
L 324.178813 10.999219 
" style="fill:none;stroke:#000000;stroke-linecap:square;stroke-linejoin:miter;stroke-width:0.8;"/>
   </g>
   <g id="text_19">
    <g clip-path="url(#p530d24816a)">
     <!-- 1.000 -->
     <g style="fill:#ffff00;" transform="translate(202.923784 84.987607)rotate(-334.679356)scale(0.1 -0.1)">
      <use xlink:href="#DejaVuSans-49"/>
      <use x="63.623047" xlink:href="#DejaVuSans-46"/>
      <use x="95.410156" xlink:href="#DejaVuSans-48"/>
      <use x="159.033203" xlink:href="#DejaVuSans-48"/>
      <use x="222.65625" xlink:href="#DejaVuSans-48"/>
     </g>
    </g>
   </g>
   <g id="text_20">
    <g clip-path="url(#p530d24816a)">
     <!-- 2.000 -->
     <g style="fill:#ffff00;" transform="translate(265.238515 99.279469)rotate(-296.93242)scale(0.1 -0.1)">
      <use xlink:href="#DejaVuSans-50"/>
      <use x="63.623047" xlink:href="#DejaVuSans-46"/>
      <use x="95.410156" xlink:href="#DejaVuSans-48"/>
      <use x="159.033203" xlink:href="#DejaVuSans-48"/>
      <use x="222.65625" xlink:href="#DejaVuSans-48"/>
     </g>
    </g>
   </g>
   <g id="text_21">
    <g clip-path="url(#p530d24816a)">
     <!-- 3.000 -->
     <g style="fill:#ffff00;" transform="translate(226.494186 41.734619)rotate(-339.099801)scale(0.1 -0.1)">
      <defs>
       <path d="M 40.578125 39.3125 
Q 47.65625 37.796875 51.625 33 
Q 55.609375 28.21875 55.609375 21.1875 
Q 55.609375 10.40625 48.1875 4.484375 
Q 40.765625 -1.421875 27.09375 -1.421875 
Q 22.515625 -1.421875 17.65625 -0.515625 
Q 12.796875 0.390625 7.625 2.203125 
L 7.625 11.71875 
Q 11.71875 9.328125 16.59375 8.109375 
Q 21.484375 6.890625 26.8125 6.890625 
Q 36.078125 6.890625 40.9375 10.546875 
Q 45.796875 14.203125 45.796875 21.1875 
Q 45.796875 27.640625 41.28125 31.265625 
Q 36.765625 34.90625 28.71875 34.90625 
L 20.21875 34.90625 
L 20.21875 43.015625 
L 29.109375 43.015625 
Q 36.375 43.015625 40.234375 45.921875 
Q 44.09375 48.828125 44.09375 54.296875 
Q 44.09375 59.90625 40.109375 62.90625 
Q 36.140625 65.921875 28.71875 65.921875 
Q 24.65625 65.921875 20.015625 65.03125 
Q 15.375 64.15625 9.8125 62.3125 
L 9.8125 71.09375 
Q 15.4375 72.65625 20.34375 73.4375 
Q 25.25 74.21875 29.59375 74.21875 
Q 40.828125 74.21875 47.359375 69.109375 
Q 53.90625 64.015625 53.90625 55.328125 
Q 53.90625 49.265625 50.4375 45.09375 
Q 46.96875 40.921875 40.578125 39.3125 
z
" id="DejaVuSans-51"/>
      </defs>
      <use xlink:href="#DejaVuSans-51"/>
      <use x="63.623047" xlink:href="#DejaVuSans-46"/>
      <use x="95.410156" xlink:href="#DejaVuSans-48"/>
      <use x="159.033203" xlink:href="#DejaVuSans-48"/>
      <use x="222.65625" xlink:href="#DejaVuSans-48"/>
     </g>
    </g>
   </g>
   <g id="text_22">
    <g clip-path="url(#p530d24816a)">
     <!-- 4.000 -->
     <g style="fill:#ffff00;" transform="translate(61.639586 223.133999)rotate(-318.547999)scale(0.1 -0.1)">
      <defs>
       <path d="M 37.796875 64.3125 
L 12.890625 25.390625 
L 37.796875 25.390625 
z
M 35.203125 72.90625 
L 47.609375 72.90625 
L 47.609375 25.390625 
L 58.015625 25.390625 
L 58.015625 17.1875 
L 47.609375 17.1875 
L 47.609375 0 
L 37.796875 0 
L 37.796875 17.1875 
L 4.890625 17.1875 
L 4.890625 26.703125 
z
" id="DejaVuSans-52"/>
      </defs>
      <use xlink:href="#DejaVuSans-52"/>
      <use x="63.623047" xlink:href="#DejaVuSans-46"/>
      <use x="95.410156" xlink:href="#DejaVuSans-48"/>
      <use x="159.033203" xlink:href="#DejaVuSans-48"/>
      <use x="222.65625" xlink:href="#DejaVuSans-48"/>
     </g>
    </g>
   </g>
   <g id="text_23">
    <g clip-path="url(#p530d24816a)">
     <!-- 4.000 -->
     <g style="fill:#ffff00;" transform="translate(263.567518 253.839167)rotate(-32.358277)scale(0.1 -0.1)">
      <use xlink:href="#DejaVuSans-52"/>
      <use x="63.623047" xlink:href="#DejaVuSans-46"/>
      <use x="95.410156" xlink:href="#DejaVuSans-48"/>
      <use x="159.033203" xlink:href="#DejaVuSans-48"/>
      <use x="222.65625" xlink:href="#DejaVuSans-48"/>
     </g>
    </g>
   </g>
   <g id="text_24">
    <g clip-path="url(#p530d24816a)">
     <!-- 4.000 -->
     <g style="fill:#ffff00;" transform="translate(77.865118 54.255167)rotate(-32.358277)scale(0.1 -0.1)">
      <use xlink:href="#DejaVuSans-52"/>
      <use x="63.623047" xlink:href="#DejaVuSans-46"/>
      <use x="95.410156" xlink:href="#DejaVuSans-48"/>
      <use x="159.033203" xlink:href="#DejaVuSans-48"/>
      <use x="222.65625" xlink:href="#DejaVuSans-48"/>
     </g>
    </g>
   </g>
   <g id="text_25">
    <g clip-path="url(#p530d24816a)">
     <!-- 4.000 -->
     <g style="fill:#ffff00;" transform="translate(275.911586 50.161199)rotate(-318.547999)scale(0.1 -0.1)">
      <use xlink:href="#DejaVuSans-52"/>
      <use x="63.623047" xlink:href="#DejaVuSans-46"/>
      <use x="95.410156" xlink:href="#DejaVuSans-48"/>
      <use x="159.033203" xlink:href="#DejaVuSans-48"/>
      <use x="222.65625" xlink:href="#DejaVuSans-48"/>
     </g>
    </g>
   </g>
   <g id="text_26">
    <g clip-path="url(#p530d24816a)">
     <!-- 5.000 -->
     <g style="fill:#ffff00;" transform="translate(51.436158 236.439599)rotate(-318.547999)scale(0.1 -0.1)">
      <use xlink:href="#DejaVuSans-53"/>
      <use x="63.623047" xlink:href="#DejaVuSans-46"/>
      <use x="95.410156" xlink:href="#DejaVuSans-48"/>
      <use x="159.033203" xlink:href="#DejaVuSans-48"/>
      <use x="222.65625" xlink:href="#DejaVuSans-48"/>
     </g>
    </g>
   </g>
   <g id="text_27">
    <g clip-path="url(#p530d24816a)">
     <!-- 5.000 -->
     <g style="fill:#ffff00;" transform="translate(277.852318 263.343167)rotate(-32.358277)scale(0.1 -0.1)">
      <use xlink:href="#DejaVuSans-53"/>
      <use x="63.623047" xlink:href="#DejaVuSans-46"/>
      <use x="95.410156" xlink:href="#DejaVuSans-48"/>
      <use x="159.033203" xlink:href="#DejaVuSans-48"/>
      <use x="222.65625" xlink:href="#DejaVuSans-48"/>
     </g>
    </g>
   </g>
   <g id="text_28">
    <g clip-path="url(#p530d24816a)">
     <!-- 5.000 -->
     <g style="fill:#ffff00;" transform="translate(63.580318 44.751167)rotate(-32.358277)scale(0.1 -0.1)">
      <use xlink:href="#DejaVuSans-53"/>
      <use x="63.623047" xlink:href="#DejaVuSans-46"/>
      <use x="95.410156" xlink:href="#DejaVuSans-48"/>
      <use x="159.033203" xlink:href="#DejaVuSans-48"/>
      <use x="222.65625" xlink:href="#DejaVuSans-48"/>
     </g>
    </g>
   </g>
   <g id="text_29">
    <g clip-path="url(#p530d24816a)">
     <!-- 5.000 -->
     <g style="fill:#ffff00;" transform="translate(286.115015 36.855599)rotate(-318.547999)scale(0.1 -0.1)">
      <use xlink:href="#DejaVuSans-53"/>
      <use x="63.623047" xlink:href="#DejaVuSans-46"/>
      <use x="95.410156" xlink:href="#DejaVuSans-48"/>
      <use x="159.033203" xlink:href="#DejaVuSans-48"/>
      <use x="222.65625" xlink:href="#DejaVuSans-48"/>
     </g>
    </g>
   </g>
   <g id="text_30">
    <g clip-path="url(#p530d24816a)">
     <!-- 6.000 -->
     <g style="fill:#ffff00;" transform="translate(30.884473 236.690742)rotate(-319.687479)scale(0.1 -0.1)">
      <defs>
       <path d="M 33.015625 40.375 
Q 26.375 40.375 22.484375 35.828125 
Q 18.609375 31.296875 18.609375 23.390625 
Q 18.609375 15.53125 22.484375 10.953125 
Q 26.375 6.390625 33.015625 6.390625 
Q 39.65625 6.390625 43.53125 10.953125 
Q 47.40625 15.53125 47.40625 23.390625 
Q 47.40625 31.296875 43.53125 35.828125 
Q 39.65625 40.375 33.015625 40.375 
z
M 52.59375 71.296875 
L 52.59375 62.3125 
Q 48.875 64.0625 45.09375 64.984375 
Q 41.3125 65.921875 37.59375 65.921875 
Q 27.828125 65.921875 22.671875 59.328125 
Q 17.53125 52.734375 16.796875 39.40625 
Q 19.671875 43.65625 24.015625 45.921875 
Q 28.375 48.1875 33.59375 48.1875 
Q 44.578125 48.1875 50.953125 41.515625 
Q 57.328125 34.859375 57.328125 23.390625 
Q 57.328125 12.15625 50.6875 5.359375 
Q 44.046875 -1.421875 33.015625 -1.421875 
Q 20.359375 -1.421875 13.671875 8.265625 
Q 6.984375 17.96875 6.984375 36.375 
Q 6.984375 53.65625 15.1875 63.9375 
Q 23.390625 74.21875 37.203125 74.21875 
Q 40.921875 74.21875 44.703125 73.484375 
Q 48.484375 72.75 52.59375 71.296875 
z
" id="DejaVuSans-54"/>
      </defs>
      <use xlink:href="#DejaVuSans-54"/>
      <use x="63.623047" xlink:href="#DejaVuSans-46"/>
      <use x="95.410156" xlink:href="#DejaVuSans-48"/>
      <use x="159.033203" xlink:href="#DejaVuSans-48"/>
      <use x="222.65625" xlink:href="#DejaVuSans-48"/>
     </g>
    </g>
   </g>
   <g id="text_31">
    <g clip-path="url(#p530d24816a)">
     <!-- 6.000 -->
     <g style="fill:#ffff00;" transform="translate(278.000779 282.506567)rotate(-33.202999)scale(0.1 -0.1)">
      <use xlink:href="#DejaVuSans-54"/>
      <use x="63.623047" xlink:href="#DejaVuSans-46"/>
      <use x="95.410156" xlink:href="#DejaVuSans-48"/>
      <use x="159.033203" xlink:href="#DejaVuSans-48"/>
      <use x="222.65625" xlink:href="#DejaVuSans-48"/>
     </g>
    </g>
   </g>
   <g id="text_32">
    <g clip-path="url(#p530d24816a)">
     <!-- 6.000 -->
     <g style="fill:#ffff00;" transform="translate(63.728779 25.898567)rotate(-33.202999)scale(0.1 -0.1)">
      <use xlink:href="#DejaVuSans-54"/>
      <use x="63.623047" xlink:href="#DejaVuSans-46"/>
      <use x="95.410156" xlink:href="#DejaVuSans-48"/>
      <use x="159.033203" xlink:href="#DejaVuSans-48"/>
      <use x="222.65625" xlink:href="#DejaVuSans-48"/>
     </g>
    </g>
   </g>
   <g id="text_33">
    <g clip-path="url(#p530d24816a)">
     <!-- 6.000 -->
     <g style="fill:#ffff00;" transform="translate(306.377044 37.106742)rotate(-319.687479)scale(0.1 -0.1)">
      <use xlink:href="#DejaVuSans-54"/>
      <use x="63.623047" xlink:href="#DejaVuSans-46"/>
      <use x="95.410156" xlink:href="#DejaVuSans-48"/>
      <use x="159.033203" xlink:href="#DejaVuSans-48"/>
      <use x="222.65625" xlink:href="#DejaVuSans-48"/>
     </g>
    </g>
   </g>
  </g>
  <g id="axes_2">
   <g id="patch_7">
    <path clip-path="url(#pcf7862e129)" d="M 342.034813 277.111219 
L 342.034813 232.759219 
L 342.034813 55.351219 
L 342.034813 10.999219 
L 355.340413 10.999219 
L 355.340413 55.351219 
L 355.340413 232.759219 
L 355.340413 277.111219 
z
" style="fill:#ffffff;stroke:#ffffff;stroke-linejoin:miter;stroke-width:0.01;"/>
   </g>
   <g id="QuadMesh_1">
    <path clip-path="url(#pcf7862e129)" d="M 342.034813 277.111219 
L 355.340413 277.111219 
L 355.340413 232.759219 
L 342.034813 232.759219 
L 342.034813 277.111219 
" style="fill:#fcaeae;"/>
    <path clip-path="url(#pcf7862e129)" d="M 342.034813 232.759219 
L 355.340413 232.759219 
L 355.340413 188.407219 
L 342.034813 188.407219 
L 342.034813 232.759219 
" style="fill:#da98d1;"/>
    <path clip-path="url(#pcf7862e129)" d="M 342.034813 188.407219 
L 355.340413 188.407219 
L 355.340413 144.055219 
L 342.034813 144.055219 
L 342.034813 188.407219 
" style="fill:#c45178;"/>
    <path clip-path="url(#pcf7862e129)" d="M 342.034813 144.055219 
L 355.340413 144.055219 
L 355.340413 99.703219 
L 342.034813 99.703219 
L 342.034813 144.055219 
" style="fill:#5594d2;"/>
    <path clip-path="url(#pcf7862e129)" d="M 342.034813 99.703219 
L 355.340413 99.703219 
L 355.340413 55.351219 
L 342.034813 55.351219 
L 342.034813 99.703219 
" style="fill:#e6af69;"/>
    <path clip-path="url(#pcf7862e129)" d="M 342.034813 55.351219 
L 355.340413 55.351219 
L 355.340413 10.999219 
L 342.034813 10.999219 
L 342.034813 55.351219 
" style="fill:#e6d969;"/>
   </g>
   <g id="matplotlib.axis_3"/>
   <g id="matplotlib.axis_4">
    <g id="ytick_10">
     <g id="line2d_19">
      <defs>
       <path d="M 0 0 
L 3.5 0 
" id="mbcdf2c599e" style="stroke:#000000;stroke-width:0.8;"/>
      </defs>
      <g>
       <use style="stroke:#000000;stroke-width:0.8;" x="355.340413" xlink:href="#mbcdf2c599e" y="277.111219"/>
      </g>
     </g>
     <g id="text_34">
      <!-- 0 -->
      <g transform="translate(362.340413 280.910437)scale(0.1 -0.1)">
       <use xlink:href="#DejaVuSans-48"/>
      </g>
     </g>
    </g>
    <g id="ytick_11">
     <g id="line2d_20">
      <g>
       <use style="stroke:#000000;stroke-width:0.8;" x="355.340413" xlink:href="#mbcdf2c599e" y="232.759219"/>
      </g>
     </g>
     <g id="text_35">
      <!-- 1 -->
      <g transform="translate(362.340413 236.558437)scale(0.1 -0.1)">
       <use xlink:href="#DejaVuSans-49"/>
      </g>
     </g>
    </g>
    <g id="ytick_12">
     <g id="line2d_21">
      <g>
       <use style="stroke:#000000;stroke-width:0.8;" x="355.340413" xlink:href="#mbcdf2c599e" y="188.407219"/>
      </g>
     </g>
     <g id="text_36">
      <!-- 2 -->
      <g transform="translate(362.340413 192.206437)scale(0.1 -0.1)">
       <use xlink:href="#DejaVuSans-50"/>
      </g>
     </g>
    </g>
    <g id="ytick_13">
     <g id="line2d_22">
      <g>
       <use style="stroke:#000000;stroke-width:0.8;" x="355.340413" xlink:href="#mbcdf2c599e" y="144.055219"/>
      </g>
     </g>
     <g id="text_37">
      <!-- 3 -->
      <g transform="translate(362.340413 147.854437)scale(0.1 -0.1)">
       <use xlink:href="#DejaVuSans-51"/>
      </g>
     </g>
    </g>
    <g id="ytick_14">
     <g id="line2d_23">
      <g>
       <use style="stroke:#000000;stroke-width:0.8;" x="355.340413" xlink:href="#mbcdf2c599e" y="99.703219"/>
      </g>
     </g>
     <g id="text_38">
      <!-- 4 -->
      <g transform="translate(362.340413 103.502437)scale(0.1 -0.1)">
       <use xlink:href="#DejaVuSans-52"/>
      </g>
     </g>
    </g>
    <g id="ytick_15">
     <g id="line2d_24">
      <g>
       <use style="stroke:#000000;stroke-width:0.8;" x="355.340413" xlink:href="#mbcdf2c599e" y="55.351219"/>
      </g>
     </g>
     <g id="text_39">
      <!-- 5 -->
      <g transform="translate(362.340413 59.150437)scale(0.1 -0.1)">
       <use xlink:href="#DejaVuSans-53"/>
      </g>
     </g>
    </g>
    <g id="ytick_16">
     <g id="line2d_25">
      <g>
       <use style="stroke:#000000;stroke-width:0.8;" x="355.340413" xlink:href="#mbcdf2c599e" y="10.999219"/>
      </g>
     </g>
     <g id="text_40">
      <!-- 6 -->
      <g transform="translate(362.340413 14.798437)scale(0.1 -0.1)">
       <use xlink:href="#DejaVuSans-54"/>
      </g>
     </g>
    </g>
    <g id="text_41">
     <!-- temperature -->
     <g transform="translate(380.30135 175.481)rotate(-90)scale(0.1 -0.1)">
      <defs>
       <path d="M 18.3125 70.21875 
L 18.3125 54.6875 
L 36.8125 54.6875 
L 36.8125 47.703125 
L 18.3125 47.703125 
L 18.3125 18.015625 
Q 18.3125 11.328125 20.140625 9.421875 
Q 21.96875 7.515625 27.59375 7.515625 
L 36.8125 7.515625 
L 36.8125 0 
L 27.59375 0 
Q 17.1875 0 13.234375 3.875 
Q 9.28125 7.765625 9.28125 18.015625 
L 9.28125 47.703125 
L 2.6875 47.703125 
L 2.6875 54.6875 
L 9.28125 54.6875 
L 9.28125 70.21875 
z
" id="DejaVuSans-116"/>
       <path d="M 56.203125 29.59375 
L 56.203125 25.203125 
L 14.890625 25.203125 
Q 15.484375 15.921875 20.484375 11.0625 
Q 25.484375 6.203125 34.421875 6.203125 
Q 39.59375 6.203125 44.453125 7.46875 
Q 49.3125 8.734375 54.109375 11.28125 
L 54.109375 2.78125 
Q 49.265625 0.734375 44.1875 -0.34375 
Q 39.109375 -1.421875 33.890625 -1.421875 
Q 20.796875 -1.421875 13.15625 6.1875 
Q 5.515625 13.8125 5.515625 26.8125 
Q 5.515625 40.234375 12.765625 48.109375 
Q 20.015625 56 32.328125 56 
Q 43.359375 56 49.78125 48.890625 
Q 56.203125 41.796875 56.203125 29.59375 
z
M 47.21875 32.234375 
Q 47.125 39.59375 43.09375 43.984375 
Q 39.0625 48.390625 32.421875 48.390625 
Q 24.90625 48.390625 20.390625 44.140625 
Q 15.875 39.890625 15.1875 32.171875 
z
" id="DejaVuSans-101"/>
       <path d="M 52 44.1875 
Q 55.375 50.25 60.0625 53.125 
Q 64.75 56 71.09375 56 
Q 79.640625 56 84.28125 50.015625 
Q 88.921875 44.046875 88.921875 33.015625 
L 88.921875 0 
L 79.890625 0 
L 79.890625 32.71875 
Q 79.890625 40.578125 77.09375 44.375 
Q 74.3125 48.1875 68.609375 48.1875 
Q 61.625 48.1875 57.5625 43.546875 
Q 53.515625 38.921875 53.515625 30.90625 
L 53.515625 0 
L 44.484375 0 
L 44.484375 32.71875 
Q 44.484375 40.625 41.703125 44.40625 
Q 38.921875 48.1875 33.109375 48.1875 
Q 26.21875 48.1875 22.15625 43.53125 
Q 18.109375 38.875 18.109375 30.90625 
L 18.109375 0 
L 9.078125 0 
L 9.078125 54.6875 
L 18.109375 54.6875 
L 18.109375 46.1875 
Q 21.1875 51.21875 25.484375 53.609375 
Q 29.78125 56 35.6875 56 
Q 41.65625 56 45.828125 52.96875 
Q 50 49.953125 52 44.1875 
z
" id="DejaVuSans-109"/>
       <path d="M 18.109375 8.203125 
L 18.109375 -20.796875 
L 9.078125 -20.796875 
L 9.078125 54.6875 
L 18.109375 54.6875 
L 18.109375 46.390625 
Q 20.953125 51.265625 25.265625 53.625 
Q 29.59375 56 35.59375 56 
Q 45.5625 56 51.78125 48.09375 
Q 58.015625 40.1875 58.015625 27.296875 
Q 58.015625 14.40625 51.78125 6.484375 
Q 45.5625 -1.421875 35.59375 -1.421875 
Q 29.59375 -1.421875 25.265625 0.953125 
Q 20.953125 3.328125 18.109375 8.203125 
z
M 48.6875 27.296875 
Q 48.6875 37.203125 44.609375 42.84375 
Q 40.53125 48.484375 33.40625 48.484375 
Q 26.265625 48.484375 22.1875 42.84375 
Q 18.109375 37.203125 18.109375 27.296875 
Q 18.109375 17.390625 22.1875 11.75 
Q 26.265625 6.109375 33.40625 6.109375 
Q 40.53125 6.109375 44.609375 11.75 
Q 48.6875 17.390625 48.6875 27.296875 
z
" id="DejaVuSans-112"/>
       <path d="M 41.109375 46.296875 
Q 39.59375 47.171875 37.8125 47.578125 
Q 36.03125 48 33.890625 48 
Q 26.265625 48 22.1875 43.046875 
Q 18.109375 38.09375 18.109375 28.8125 
L 18.109375 0 
L 9.078125 0 
L 9.078125 54.6875 
L 18.109375 54.6875 
L 18.109375 46.1875 
Q 20.953125 51.171875 25.484375 53.578125 
Q 30.03125 56 36.53125 56 
Q 37.453125 56 38.578125 55.875 
Q 39.703125 55.765625 41.0625 55.515625 
z
" id="DejaVuSans-114"/>
       <path d="M 34.28125 27.484375 
Q 23.390625 27.484375 19.1875 25 
Q 14.984375 22.515625 14.984375 16.5 
Q 14.984375 11.71875 18.140625 8.90625 
Q 21.296875 6.109375 26.703125 6.109375 
Q 34.1875 6.109375 38.703125 11.40625 
Q 43.21875 16.703125 43.21875 25.484375 
L 43.21875 27.484375 
z
M 52.203125 31.203125 
L 52.203125 0 
L 43.21875 0 
L 43.21875 8.296875 
Q 40.140625 3.328125 35.546875 0.953125 
Q 30.953125 -1.421875 24.3125 -1.421875 
Q 15.921875 -1.421875 10.953125 3.296875 
Q 6 8.015625 6 15.921875 
Q 6 25.140625 12.171875 29.828125 
Q 18.359375 34.515625 30.609375 34.515625 
L 43.21875 34.515625 
L 43.21875 35.40625 
Q 43.21875 41.609375 39.140625 45 
Q 35.0625 48.390625 27.6875 48.390625 
Q 23 48.390625 18.546875 47.265625 
Q 14.109375 46.140625 10.015625 43.890625 
L 10.015625 52.203125 
Q 14.9375 54.109375 19.578125 55.046875 
Q 24.21875 56 28.609375 56 
Q 40.484375 56 46.34375 49.84375 
Q 52.203125 43.703125 52.203125 31.203125 
z
" id="DejaVuSans-97"/>
       <path d="M 8.5 21.578125 
L 8.5 54.6875 
L 17.484375 54.6875 
L 17.484375 21.921875 
Q 17.484375 14.15625 20.5 10.265625 
Q 23.53125 6.390625 29.59375 6.390625 
Q 36.859375 6.390625 41.078125 11.03125 
Q 45.3125 15.671875 45.3125 23.6875 
L 45.3125 54.6875 
L 54.296875 54.6875 
L 54.296875 0 
L 45.3125 0 
L 45.3125 8.40625 
Q 42.046875 3.421875 37.71875 1 
Q 33.40625 -1.421875 27.6875 -1.421875 
Q 18.265625 -1.421875 13.375 4.4375 
Q 8.5 10.296875 8.5 21.578125 
z
M 31.109375 56 
z
" id="DejaVuSans-117"/>
      </defs>
      <use xlink:href="#DejaVuSans-116"/>
      <use x="39.208984" xlink:href="#DejaVuSans-101"/>
      <use x="100.732422" xlink:href="#DejaVuSans-109"/>
      <use x="198.144531" xlink:href="#DejaVuSans-112"/>
      <use x="261.621094" xlink:href="#DejaVuSans-101"/>
      <use x="323.144531" xlink:href="#DejaVuSans-114"/>
      <use x="364.257812" xlink:href="#DejaVuSans-97"/>
      <use x="425.537109" xlink:href="#DejaVuSans-116"/>
      <use x="464.746094" xlink:href="#DejaVuSans-117"/>
      <use x="528.125" xlink:href="#DejaVuSans-114"/>
      <use x="566.988281" xlink:href="#DejaVuSans-101"/>
     </g>
    </g>
   </g>
   <g id="patch_8">
    <path d="M 342.034813 277.111219 
L 342.034813 232.759219 
L 342.034813 55.351219 
L 342.034813 10.999219 
L 355.340413 10.999219 
L 355.340413 55.351219 
L 355.340413 232.759219 
L 355.340413 277.111219 
z
" style="fill:none;stroke:#000000;stroke-linejoin:miter;stroke-width:0.8;"/>
   </g>
  </g>
 </g>
 <defs>
  <clipPath id="p530d24816a">
   <rect height="266.112" width="285.696" x="38.482813" y="10.999219"/>
  </clipPath>
  <clipPath id="pcf7862e129">
   <rect height="266.112" width="13.3056" x="342.034813" y="10.999219"/>
  </clipPath>
 </defs>
</svg>
