<?xml version="1.0" encoding="utf-8" standalone="no"?>
<!DOCTYPE svg PUBLIC "-//W3C//DTD SVG 1.1//EN"
  "http://www.w3.org/Graphics/SVG/1.1/DTD/svg11.dtd">
<svg xmlns:xlink="http://www.w3.org/1999/xlink" width="402.374687pt" height="300.989344pt" viewBox="0 0 402.374687 300.989344" xmlns="http://www.w3.org/2000/svg" version="1.1">
 <metadata>
  <rdf:RDF xmlns:dc="http://purl.org/dc/elements/1.1/" xmlns:cc="http://creativecommons.org/ns#" xmlns:rdf="http://www.w3.org/1999/02/22-rdf-syntax-ns#">
   <cc:Work>
    <dc:type rdf:resource="http://purl.org/dc/dcmitype/StillImage"/>
    <dc:date>2023-10-09T17:39:45.463759</dc:date>
    <dc:format>image/svg+xml</dc:format>
    <dc:creator>
     <cc:Agent>
      <dc:title>Matplotlib v3.6.3, https://matplotlib.org/</dc:title>
     </cc:Agent>
    </dc:creator>
   </cc:Work>
  </rdf:RDF>
 </metadata>
 <defs>
  <style type="text/css">*{stroke-linejoin: round; stroke-linecap: butt}</style>
 </defs>
 <g id="figure_1">
  <g id="patch_1">
   <path d="M 0 300.989344 
L 402.374687 300.989344 
L 402.374687 0 
L 0 0 
z
" style="fill: #ffffff"/>
  </g>
  <g id="axes_1">
   <g id="patch_2">
    <path d="M 30.103125 277.111219 
L 387.223125 277.111219 
L 387.223125 10.999219 
L 30.103125 10.999219 
z
" style="fill: #ffffff"/>
   </g>
   <g id="matplotlib.axis_1">
    <g id="xtick_1">
     <g id="line2d_1">
      <defs>
       <path id="m28ae19f270" d="M 0 0 
L 0 3.5 
" style="stroke: #000000; stroke-width: 0.8"/>
      </defs>
      <g>
       <use xlink:href="#m28ae19f270" x="30.103125" y="277.111219" style="stroke: #000000; stroke-width: 0.8"/>
      </g>
     </g>
     <g id="text_1">
      <!-- 0.0 -->
      <g transform="translate(22.151563 291.709656) scale(0.1 -0.1)">
       <defs>
        <path id="DejaVuSans-30" d="M 2034 4250 
Q 1547 4250 1301 3770 
Q 1056 3291 1056 2328 
Q 1056 1369 1301 889 
Q 1547 409 2034 409 
Q 2525 409 2770 889 
Q 3016 1369 3016 2328 
Q 3016 3291 2770 3770 
Q 2525 4250 2034 4250 
z
M 2034 4750 
Q 2819 4750 3233 4129 
Q 3647 3509 3647 2328 
Q 3647 1150 3233 529 
Q 2819 -91 2034 -91 
Q 1250 -91 836 529 
Q 422 1150 422 2328 
Q 422 3509 836 4129 
Q 1250 4750 2034 4750 
z
" transform="scale(0.015625)"/>
        <path id="DejaVuSans-2e" d="M 684 794 
L 1344 794 
L 1344 0 
L 684 0 
L 684 794 
z
" transform="scale(0.015625)"/>
       </defs>
       <use xlink:href="#DejaVuSans-30"/>
       <use xlink:href="#DejaVuSans-2e" x="63.623047"/>
       <use xlink:href="#DejaVuSans-30" x="95.410156"/>
      </g>
     </g>
    </g>
    <g id="xtick_2">
     <g id="line2d_2">
      <g>
       <use xlink:href="#m28ae19f270" x="101.527125" y="277.111219" style="stroke: #000000; stroke-width: 0.8"/>
      </g>
     </g>
     <g id="text_2">
      <!-- 0.2 -->
      <g transform="translate(93.575563 291.709656) scale(0.1 -0.1)">
       <defs>
        <path id="DejaVuSans-32" d="M 1228 531 
L 3431 531 
L 3431 0 
L 469 0 
L 469 531 
Q 828 903 1448 1529 
Q 2069 2156 2228 2338 
Q 2531 2678 2651 2914 
Q 2772 3150 2772 3378 
Q 2772 3750 2511 3984 
Q 2250 4219 1831 4219 
Q 1534 4219 1204 4116 
Q 875 4013 500 3803 
L 500 4441 
Q 881 4594 1212 4672 
Q 1544 4750 1819 4750 
Q 2544 4750 2975 4387 
Q 3406 4025 3406 3419 
Q 3406 3131 3298 2873 
Q 3191 2616 2906 2266 
Q 2828 2175 2409 1742 
Q 1991 1309 1228 531 
z
" transform="scale(0.015625)"/>
       </defs>
       <use xlink:href="#DejaVuSans-30"/>
       <use xlink:href="#DejaVuSans-2e" x="63.623047"/>
       <use xlink:href="#DejaVuSans-32" x="95.410156"/>
      </g>
     </g>
    </g>
    <g id="xtick_3">
     <g id="line2d_3">
      <g>
       <use xlink:href="#m28ae19f270" x="172.951125" y="277.111219" style="stroke: #000000; stroke-width: 0.8"/>
      </g>
     </g>
     <g id="text_3">
      <!-- 0.4 -->
      <g transform="translate(164.999563 291.709656) scale(0.1 -0.1)">
       <defs>
        <path id="DejaVuSans-34" d="M 2419 4116 
L 825 1625 
L 2419 1625 
L 2419 4116 
z
M 2253 4666 
L 3047 4666 
L 3047 1625 
L 3713 1625 
L 3713 1100 
L 3047 1100 
L 3047 0 
L 2419 0 
L 2419 1100 
L 313 1100 
L 313 1709 
L 2253 4666 
z
" transform="scale(0.015625)"/>
       </defs>
       <use xlink:href="#DejaVuSans-30"/>
       <use xlink:href="#DejaVuSans-2e" x="63.623047"/>
       <use xlink:href="#DejaVuSans-34" x="95.410156"/>
      </g>
     </g>
    </g>
    <g id="xtick_4">
     <g id="line2d_4">
      <g>
       <use xlink:href="#m28ae19f270" x="244.375125" y="277.111219" style="stroke: #000000; stroke-width: 0.8"/>
      </g>
     </g>
     <g id="text_4">
      <!-- 0.6 -->
      <g transform="translate(236.423563 291.709656) scale(0.1 -0.1)">
       <defs>
        <path id="DejaVuSans-36" d="M 2113 2584 
Q 1688 2584 1439 2293 
Q 1191 2003 1191 1497 
Q 1191 994 1439 701 
Q 1688 409 2113 409 
Q 2538 409 2786 701 
Q 3034 994 3034 1497 
Q 3034 2003 2786 2293 
Q 2538 2584 2113 2584 
z
M 3366 4563 
L 3366 3988 
Q 3128 4100 2886 4159 
Q 2644 4219 2406 4219 
Q 1781 4219 1451 3797 
Q 1122 3375 1075 2522 
Q 1259 2794 1537 2939 
Q 1816 3084 2150 3084 
Q 2853 3084 3261 2657 
Q 3669 2231 3669 1497 
Q 3669 778 3244 343 
Q 2819 -91 2113 -91 
Q 1303 -91 875 529 
Q 447 1150 447 2328 
Q 447 3434 972 4092 
Q 1497 4750 2381 4750 
Q 2619 4750 2861 4703 
Q 3103 4656 3366 4563 
z
" transform="scale(0.015625)"/>
       </defs>
       <use xlink:href="#DejaVuSans-30"/>
       <use xlink:href="#DejaVuSans-2e" x="63.623047"/>
       <use xlink:href="#DejaVuSans-36" x="95.410156"/>
      </g>
     </g>
    </g>
    <g id="xtick_5">
     <g id="line2d_5">
      <g>
       <use xlink:href="#m28ae19f270" x="315.799125" y="277.111219" style="stroke: #000000; stroke-width: 0.8"/>
      </g>
     </g>
     <g id="text_5">
      <!-- 0.8 -->
      <g transform="translate(307.847562 291.709656) scale(0.1 -0.1)">
       <defs>
        <path id="DejaVuSans-38" d="M 2034 2216 
Q 1584 2216 1326 1975 
Q 1069 1734 1069 1313 
Q 1069 891 1326 650 
Q 1584 409 2034 409 
Q 2484 409 2743 651 
Q 3003 894 3003 1313 
Q 3003 1734 2745 1975 
Q 2488 2216 2034 2216 
z
M 1403 2484 
Q 997 2584 770 2862 
Q 544 3141 544 3541 
Q 544 4100 942 4425 
Q 1341 4750 2034 4750 
Q 2731 4750 3128 4425 
Q 3525 4100 3525 3541 
Q 3525 3141 3298 2862 
Q 3072 2584 2669 2484 
Q 3125 2378 3379 2068 
Q 3634 1759 3634 1313 
Q 3634 634 3220 271 
Q 2806 -91 2034 -91 
Q 1263 -91 848 271 
Q 434 634 434 1313 
Q 434 1759 690 2068 
Q 947 2378 1403 2484 
z
M 1172 3481 
Q 1172 3119 1398 2916 
Q 1625 2713 2034 2713 
Q 2441 2713 2670 2916 
Q 2900 3119 2900 3481 
Q 2900 3844 2670 4047 
Q 2441 4250 2034 4250 
Q 1625 4250 1398 4047 
Q 1172 3844 1172 3481 
z
" transform="scale(0.015625)"/>
       </defs>
       <use xlink:href="#DejaVuSans-30"/>
       <use xlink:href="#DejaVuSans-2e" x="63.623047"/>
       <use xlink:href="#DejaVuSans-38" x="95.410156"/>
      </g>
     </g>
    </g>
    <g id="xtick_6">
     <g id="line2d_6">
      <g>
       <use xlink:href="#m28ae19f270" x="387.223125" y="277.111219" style="stroke: #000000; stroke-width: 0.8"/>
      </g>
     </g>
     <g id="text_6">
      <!-- 1.0 -->
      <g transform="translate(379.271562 291.709656) scale(0.1 -0.1)">
       <defs>
        <path id="DejaVuSans-31" d="M 794 531 
L 1825 531 
L 1825 4091 
L 703 3866 
L 703 4441 
L 1819 4666 
L 2450 4666 
L 2450 531 
L 3481 531 
L 3481 0 
L 794 0 
L 794 531 
z
" transform="scale(0.015625)"/>
       </defs>
       <use xlink:href="#DejaVuSans-31"/>
       <use xlink:href="#DejaVuSans-2e" x="63.623047"/>
       <use xlink:href="#DejaVuSans-30" x="95.410156"/>
      </g>
     </g>
    </g>
   </g>
   <g id="matplotlib.axis_2">
    <g id="ytick_1">
     <g id="line2d_7">
      <defs>
       <path id="m23000e88de" d="M 0 0 
L -3.5 0 
" style="stroke: #000000; stroke-width: 0.8"/>
      </defs>
      <g>
       <use xlink:href="#m23000e88de" x="30.103125" y="277.111219" style="stroke: #000000; stroke-width: 0.8"/>
      </g>
     </g>
     <g id="text_7">
      <!-- 0.0 -->
      <g transform="translate(7.2 280.910437) scale(0.1 -0.1)">
       <use xlink:href="#DejaVuSans-30"/>
       <use xlink:href="#DejaVuSans-2e" x="63.623047"/>
       <use xlink:href="#DejaVuSans-30" x="95.410156"/>
      </g>
     </g>
    </g>
    <g id="ytick_2">
     <g id="line2d_8">
      <g>
       <use xlink:href="#m23000e88de" x="30.103125" y="223.888819" style="stroke: #000000; stroke-width: 0.8"/>
      </g>
     </g>
     <g id="text_8">
      <!-- 0.2 -->
      <g transform="translate(7.2 227.688037) scale(0.1 -0.1)">
       <use xlink:href="#DejaVuSans-30"/>
       <use xlink:href="#DejaVuSans-2e" x="63.623047"/>
       <use xlink:href="#DejaVuSans-32" x="95.410156"/>
      </g>
     </g>
    </g>
    <g id="ytick_3">
     <g id="line2d_9">
      <g>
       <use xlink:href="#m23000e88de" x="30.103125" y="170.666419" style="stroke: #000000; stroke-width: 0.8"/>
      </g>
     </g>
     <g id="text_9">
      <!-- 0.4 -->
      <g transform="translate(7.2 174.465637) scale(0.1 -0.1)">
       <use xlink:href="#DejaVuSans-30"/>
       <use xlink:href="#DejaVuSans-2e" x="63.623047"/>
       <use xlink:href="#DejaVuSans-34" x="95.410156"/>
      </g>
     </g>
    </g>
    <g id="ytick_4">
     <g id="line2d_10">
      <g>
       <use xlink:href="#m23000e88de" x="30.103125" y="117.444019" style="stroke: #000000; stroke-width: 0.8"/>
      </g>
     </g>
     <g id="text_10">
      <!-- 0.6 -->
      <g transform="translate(7.2 121.243237) scale(0.1 -0.1)">
       <use xlink:href="#DejaVuSans-30"/>
       <use xlink:href="#DejaVuSans-2e" x="63.623047"/>
       <use xlink:href="#DejaVuSans-36" x="95.410156"/>
      </g>
     </g>
    </g>
    <g id="ytick_5">
     <g id="line2d_11">
      <g>
       <use xlink:href="#m23000e88de" x="30.103125" y="64.221619" style="stroke: #000000; stroke-width: 0.8"/>
      </g>
     </g>
     <g id="text_11">
      <!-- 0.8 -->
      <g transform="translate(7.2 68.020837) scale(0.1 -0.1)">
       <use xlink:href="#DejaVuSans-30"/>
       <use xlink:href="#DejaVuSans-2e" x="63.623047"/>
       <use xlink:href="#DejaVuSans-38" x="95.410156"/>
      </g>
     </g>
    </g>
    <g id="ytick_6">
     <g id="line2d_12">
      <g>
       <use xlink:href="#m23000e88de" x="30.103125" y="10.999219" style="stroke: #000000; stroke-width: 0.8"/>
      </g>
     </g>
     <g id="text_12">
      <!-- 1.0 -->
      <g transform="translate(7.2 14.798437) scale(0.1 -0.1)">
       <use xlink:href="#DejaVuSans-31"/>
       <use xlink:href="#DejaVuSans-2e" x="63.623047"/>
       <use xlink:href="#DejaVuSans-30" x="95.410156"/>
      </g>
     </g>
    </g>
   </g>
   <g id="patch_3">
    <path d="M 30.103125 277.111219 
L 30.103125 10.999219 
" style="fill: none; stroke: #000000; stroke-width: 0.8; stroke-linejoin: miter; stroke-linecap: square"/>
   </g>
   <g id="patch_4">
    <path d="M 387.223125 277.111219 
L 387.223125 10.999219 
" style="fill: none; stroke: #000000; stroke-width: 0.8; stroke-linejoin: miter; stroke-linecap: square"/>
   </g>
   <g id="patch_5">
    <path d="M 30.103125 277.111219 
L 387.223125 277.111219 
" style="fill: none; stroke: #000000; stroke-width: 0.8; stroke-linejoin: miter; stroke-linecap: square"/>
   </g>
   <g id="patch_6">
    <path d="M 30.103125 10.999219 
L 387.223125 10.999219 
" style="fill: none; stroke: #000000; stroke-width: 0.8; stroke-linejoin: miter; stroke-linecap: square"/>
   </g>
   <g id="text_13">
    <g id="patch_7">
     <path d="M 146.324481 258.288872 
L 149.860015 258.288872 
L 149.894714 254.718638 
L 149.929413 251.148405 
L 153.499646 251.113706 
L 157.06988 251.079007 
L 157.104579 247.508773 
L 157.139278 243.93854 
L 160.709512 243.903841 
L 164.279745 243.869141 
L 164.314444 240.298908 
L 164.349144 236.728675 
L 167.919377 236.693976 
L 171.48961 236.659276 
L 171.524309 233.089043 
L 171.559009 229.51881 
L 175.129242 229.48411 
L 178.699475 229.449411 
L 178.734174 225.879178 
L 178.768874 222.308945 
L 182.339107 222.274245 
L 185.90934 222.239546 
L 185.94404 218.669313 
L 185.978739 215.09908 
L 189.548972 215.06438 
L 193.119205 215.029681 
L 193.153905 211.459448 
L 193.188604 207.889214 
L 196.758837 207.854515 
L 200.329071 207.819816 
L 200.36377 204.249582 
L 200.398469 200.679349 
L 203.968702 200.64465 
L 207.538936 200.609951 
L 207.573635 197.039717 
L 207.608334 193.469484 
L 211.178568 193.434785 
L 214.748801 193.400085 
L 214.7835 189.829852 
L 214.8182 186.259619 
L 218.388433 186.22492 
L 221.958666 186.19022 
L 221.993365 182.619987 
L 222.028065 179.049754 
L 225.598298 179.015054 
L 229.168531 178.980355 
L 229.20323 175.410122 
L 229.23793 171.839889 
L 232.808163 171.805189 
L 236.378396 171.77049 
L 236.413096 168.200257 
L 236.447795 164.630024 
L 240.018028 164.595324 
L 243.588261 164.560625 
L 243.622961 160.990392 
L 243.65766 157.420158 
L 247.227893 157.385459 
L 250.798127 157.35076 
L 250.832826 153.780526 
L 250.867525 150.210293 
L 254.437758 150.175594 
L 258.007992 150.140895 
L 258.042691 146.570661 
L 258.07739 143.000428 
L 261.647624 142.965729 
L 265.217857 142.931029 
L 265.252556 139.360796 
L 265.287255 135.790563 
L 268.857489 135.755864 
L 272.427722 135.721164 
L 272.462421 132.150931 
L 272.497121 128.580698 
L 276.067354 128.545999 
L 279.637587 128.511299 
L 279.672286 124.941066 
L 279.706986 121.370833 
L 283.277219 121.336133 
L 286.847452 121.301434 
L 286.882152 117.731201 
L 286.916851 114.160968 
L 290.487084 114.126268 
L 294.057317 114.091569 
L 294.092017 110.521336 
L 294.126716 106.951102 
L 297.696949 106.916403 
L 301.267183 106.881704 
L 301.301882 103.311471 
L 301.336581 99.741237 
L 304.906814 99.706538 
L 308.477048 99.671839 
L 308.511747 96.101605 
L 308.546446 92.531372 
L 312.11668 92.496673 
L 315.686913 92.461973 
L 315.721612 88.89174 
L 315.756311 85.321507 
L 319.326545 85.286808 
L 322.896778 85.252108 
L 322.896778 81.716574 
L 322.896778 78.181041 
L 319.401887 78.221683 
L 315.906996 78.262326 
L 315.947639 74.767435 
L 315.988282 71.272544 
L 312.49339 71.313187 
L 308.998499 71.35383 
L 309.039142 67.858939 
L 309.079785 64.364048 
L 305.584894 64.404691 
L 302.090003 64.445333 
L 302.130646 60.950442 
L 302.171289 57.455551 
L 298.676398 57.496194 
L 295.181507 57.536837 
L 295.22215 54.041946 
L 295.262792 50.547055 
L 291.767901 50.587698 
L 288.27301 50.628341 
L 288.313653 47.13345 
L 288.354296 43.638559 
L 284.859405 43.679201 
L 281.364514 43.719844 
L 281.405157 40.224953 
L 281.4458 36.730062 
L 277.950909 36.770705 
L 274.456018 36.811348 
L 274.49666 33.316457 
L 274.537303 29.821566 
L 271.001769 29.821566 
L 267.466235 29.821566 
L 267.431536 33.391799 
L 267.396837 36.962032 
L 263.826604 36.996732 
L 260.25637 37.031431 
L 260.221671 40.601664 
L 260.186972 44.171897 
L 256.616738 44.206597 
L 253.046505 44.241296 
L 253.011806 47.811529 
L 252.977106 51.381763 
L 249.406873 51.416462 
L 245.83664 51.451161 
L 245.801941 55.021394 
L 245.767241 58.591628 
L 242.197008 58.626327 
L 238.626775 58.661026 
L 238.592076 62.23126 
L 238.557376 65.801493 
L 234.987143 65.836192 
L 231.41691 65.870892 
L 231.38221 69.441125 
L 231.347511 73.011358 
L 227.777278 73.046057 
L 224.207045 73.080757 
L 224.172345 76.65099 
L 224.137646 80.221223 
L 220.567413 80.255922 
L 216.997179 80.290622 
L 216.96248 83.860855 
L 216.927781 87.431088 
L 213.357548 87.465788 
L 209.787314 87.500487 
L 209.752615 91.07072 
L 209.717916 94.640953 
L 206.147682 94.675653 
L 202.577449 94.710352 
L 202.54275 98.280585 
L 202.50805 101.850819 
L 198.937817 101.885518 
L 195.367584 101.920217 
L 195.332885 105.49045 
L 195.298185 109.060684 
L 191.727952 109.095383 
L 188.157719 109.130082 
L 188.12302 112.700316 
L 188.08832 116.270549 
L 184.518087 116.305248 
L 180.947854 116.339947 
L 180.913154 119.910181 
L 180.878455 123.480414 
L 177.308222 123.515113 
L 173.737989 123.549813 
L 173.703289 127.120046 
L 173.66859 130.690279 
L 170.098357 130.724978 
L 166.528123 130.759678 
L 166.493424 134.329911 
L 166.458725 137.900144 
L 162.888492 137.934844 
L 159.318258 137.969543 
L 159.283559 141.539776 
L 159.24886 145.110009 
L 155.678626 145.144709 
L 152.108393 145.179408 
L 152.073694 148.749641 
L 152.038995 152.319875 
L 148.468761 152.354574 
L 144.898528 152.389273 
L 144.863829 155.959506 
L 144.829129 159.52974 
L 141.258896 159.564439 
L 137.688663 159.599138 
L 137.653964 163.169372 
L 137.619264 166.739605 
L 134.049031 166.774304 
L 130.478798 166.809003 
L 130.444098 170.379237 
L 130.409399 173.94947 
L 126.839166 173.984169 
L 123.268933 174.018869 
L 123.234233 177.589102 
L 123.199534 181.159335 
L 119.629301 181.194034 
L 116.059067 181.228734 
L 116.024368 184.798967 
L 115.989669 188.3692 
L 112.419436 188.4039 
L 108.849202 188.438599 
L 108.814503 192.008832 
L 108.779804 195.579065 
L 105.20957 195.613765 
L 101.639337 195.648464 
L 101.604638 199.218697 
L 101.569939 202.78893 
L 97.999705 202.82363 
L 94.429472 202.858329 
L 94.429472 206.393863 
L 94.429472 209.929397 
L 97.924363 209.888754 
L 101.419254 209.848111 
L 101.378611 213.343002 
L 101.337968 216.837893 
L 104.83286 216.797251 
L 108.327751 216.756608 
L 108.287108 220.251499 
L 108.246465 223.74639 
L 111.741356 223.705747 
L 115.236247 223.665104 
L 115.195604 227.159995 
L 115.154961 230.654886 
L 118.649852 230.614243 
L 122.144743 230.5736 
L 122.1041 234.068491 
L 122.063458 237.563383 
L 125.558349 237.52274 
L 129.05324 237.482097 
L 129.012597 240.976988 
L 128.971954 244.471879 
L 132.466845 244.431236 
L 135.961736 244.390593 
L 135.921093 247.885484 
L 135.88045 251.380375 
L 139.375341 251.339732 
L 142.870232 251.29909 
L 142.82959 254.793981 
L 142.788947 258.288872 
z
" style="fill: #ffc0cb; opacity: 0.3; stroke: #000000; stroke-linejoin: miter"/>
    </g>
    <!-- message -->
    <g style="fill: #0000ff" transform="translate(138.971675 233.258396) rotate(-45) scale(0.5 -0.5)">
     <defs>
      <path id="DejaVuSans-6d" d="M 3328 2828 
Q 3544 3216 3844 3400 
Q 4144 3584 4550 3584 
Q 5097 3584 5394 3201 
Q 5691 2819 5691 2113 
L 5691 0 
L 5113 0 
L 5113 2094 
Q 5113 2597 4934 2840 
Q 4756 3084 4391 3084 
Q 3944 3084 3684 2787 
Q 3425 2491 3425 1978 
L 3425 0 
L 2847 0 
L 2847 2094 
Q 2847 2600 2669 2842 
Q 2491 3084 2119 3084 
Q 1678 3084 1418 2786 
Q 1159 2488 1159 1978 
L 1159 0 
L 581 0 
L 581 3500 
L 1159 3500 
L 1159 2956 
Q 1356 3278 1631 3431 
Q 1906 3584 2284 3584 
Q 2666 3584 2933 3390 
Q 3200 3197 3328 2828 
z
" transform="scale(0.015625)"/>
      <path id="DejaVuSans-65" d="M 3597 1894 
L 3597 1613 
L 953 1613 
Q 991 1019 1311 708 
Q 1631 397 2203 397 
Q 2534 397 2845 478 
Q 3156 559 3463 722 
L 3463 178 
Q 3153 47 2828 -22 
Q 2503 -91 2169 -91 
Q 1331 -91 842 396 
Q 353 884 353 1716 
Q 353 2575 817 3079 
Q 1281 3584 2069 3584 
Q 2775 3584 3186 3129 
Q 3597 2675 3597 1894 
z
M 3022 2063 
Q 3016 2534 2758 2815 
Q 2500 3097 2075 3097 
Q 1594 3097 1305 2825 
Q 1016 2553 972 2059 
L 3022 2063 
z
" transform="scale(0.015625)"/>
      <path id="DejaVuSans-73" d="M 2834 3397 
L 2834 2853 
Q 2591 2978 2328 3040 
Q 2066 3103 1784 3103 
Q 1356 3103 1142 2972 
Q 928 2841 928 2578 
Q 928 2378 1081 2264 
Q 1234 2150 1697 2047 
L 1894 2003 
Q 2506 1872 2764 1633 
Q 3022 1394 3022 966 
Q 3022 478 2636 193 
Q 2250 -91 1575 -91 
Q 1294 -91 989 -36 
Q 684 19 347 128 
L 347 722 
Q 666 556 975 473 
Q 1284 391 1588 391 
Q 1994 391 2212 530 
Q 2431 669 2431 922 
Q 2431 1156 2273 1281 
Q 2116 1406 1581 1522 
L 1381 1569 
Q 847 1681 609 1914 
Q 372 2147 372 2553 
Q 372 3047 722 3315 
Q 1072 3584 1716 3584 
Q 2034 3584 2315 3537 
Q 2597 3491 2834 3397 
z
" transform="scale(0.015625)"/>
      <path id="DejaVuSans-61" d="M 2194 1759 
Q 1497 1759 1228 1600 
Q 959 1441 959 1056 
Q 959 750 1161 570 
Q 1363 391 1709 391 
Q 2188 391 2477 730 
Q 2766 1069 2766 1631 
L 2766 1759 
L 2194 1759 
z
M 3341 1997 
L 3341 0 
L 2766 0 
L 2766 531 
Q 2569 213 2275 61 
Q 1981 -91 1556 -91 
Q 1019 -91 701 211 
Q 384 513 384 1019 
Q 384 1609 779 1909 
Q 1175 2209 1959 2209 
L 2766 2209 
L 2766 2266 
Q 2766 2663 2505 2880 
Q 2244 3097 1772 3097 
Q 1472 3097 1187 3025 
Q 903 2953 641 2809 
L 641 3341 
Q 956 3463 1253 3523 
Q 1550 3584 1831 3584 
Q 2591 3584 2966 3190 
Q 3341 2797 3341 1997 
z
" transform="scale(0.015625)"/>
      <path id="DejaVuSans-67" d="M 2906 1791 
Q 2906 2416 2648 2759 
Q 2391 3103 1925 3103 
Q 1463 3103 1205 2759 
Q 947 2416 947 1791 
Q 947 1169 1205 825 
Q 1463 481 1925 481 
Q 2391 481 2648 825 
Q 2906 1169 2906 1791 
z
M 3481 434 
Q 3481 -459 3084 -895 
Q 2688 -1331 1869 -1331 
Q 1566 -1331 1297 -1286 
Q 1028 -1241 775 -1147 
L 775 -588 
Q 1028 -725 1275 -790 
Q 1522 -856 1778 -856 
Q 2344 -856 2625 -561 
Q 2906 -266 2906 331 
L 2906 616 
Q 2728 306 2450 153 
Q 2172 0 1784 0 
Q 1141 0 747 490 
Q 353 981 353 1791 
Q 353 2603 747 3093 
Q 1141 3584 1784 3584 
Q 2172 3584 2450 3431 
Q 2728 3278 2906 2969 
L 2906 3500 
L 3481 3500 
L 3481 434 
z
" transform="scale(0.015625)"/>
     </defs>
     <use xlink:href="#DejaVuSans-6d"/>
     <use xlink:href="#DejaVuSans-65" x="97.412109"/>
     <use xlink:href="#DejaVuSans-73" x="158.935547"/>
     <use xlink:href="#DejaVuSans-73" x="211.035156"/>
     <use xlink:href="#DejaVuSans-61" x="263.134766"/>
     <use xlink:href="#DejaVuSans-67" x="324.414062"/>
     <use xlink:href="#DejaVuSans-65" x="387.890625"/>
    </g>
   </g>
  </g>
 </g>
</svg>
