<?xml version="1.0" encoding="utf-8" standalone="no"?>
<!DOCTYPE svg PUBLIC "-//W3C//DTD SVG 1.1//EN"
  "http://www.w3.org/Graphics/SVG/1.1/DTD/svg11.dtd">
<svg xmlns:xlink="http://www.w3.org/1999/xlink" width="391.245pt" height="383.676pt" viewBox="0 0 391.245 383.676" xmlns="http://www.w3.org/2000/svg" version="1.1">
 <metadata>
  <rdf:RDF xmlns:dc="http://purl.org/dc/elements/1.1/" xmlns:cc="http://creativecommons.org/ns#" xmlns:rdf="http://www.w3.org/1999/02/22-rdf-syntax-ns#">
   <cc:Work>
    <dc:type rdf:resource="http://purl.org/dc/dcmitype/StillImage"/>
    <dc:date>2024-07-01T13:50:41.838715</dc:date>
    <dc:format>image/svg+xml</dc:format>
    <dc:creator>
     <cc:Agent>
      <dc:title>Matplotlib v3.6.3, https://matplotlib.org/</dc:title>
     </cc:Agent>
    </dc:creator>
   </cc:Work>
  </rdf:RDF>
 </metadata>
 <defs>
  <style type="text/css">*{stroke-linejoin: round; stroke-linecap: butt}</style>
 </defs>
 <g id="figure_1">
  <g id="patch_1">
   <path d="M 0 383.676 
L 391.245 383.676 
L 391.245 0 
L 0 0 
z
" style="fill: #ffffff"/>
  </g>
  <g id="axes_1">
   <g id="patch_2">
    <path d="M 26.925 209.386745 
L 182.194565 209.386745 
L 182.194565 93.685875 
L 26.925 93.685875 
z
" style="fill: #ffffff"/>
   </g>
   <g id="matplotlib.axis_1">
    <g id="xtick_1">
     <g id="line2d_1">
      <defs>
       <path id="ma6f7f5d202" d="M 0 0 
L 0 3.5 
" style="stroke: #000000; stroke-width: 0.8"/>
      </defs>
      <g>
       <use xlink:href="#ma6f7f5d202" x="54.147586" y="209.386745" style="stroke: #000000; stroke-width: 0.8"/>
      </g>
     </g>
     <g id="text_1">
      <!-- 2 -->
      <g transform="translate(50.966336 223.985182) scale(0.1 -0.1)">
       <defs>
        <path id="DejaVuSans-32" d="M 1228 531 
L 3431 531 
L 3431 0 
L 469 0 
L 469 531 
Q 828 903 1448 1529 
Q 2069 2156 2228 2338 
Q 2531 2678 2651 2914 
Q 2772 3150 2772 3378 
Q 2772 3750 2511 3984 
Q 2250 4219 1831 4219 
Q 1534 4219 1204 4116 
Q 875 4013 500 3803 
L 500 4441 
Q 881 4594 1212 4672 
Q 1544 4750 1819 4750 
Q 2544 4750 2975 4387 
Q 3406 4025 3406 3419 
Q 3406 3131 3298 2873 
Q 3191 2616 2906 2266 
Q 2828 2175 2409 1742 
Q 1991 1309 1228 531 
z
" transform="scale(0.015625)"/>
       </defs>
       <use xlink:href="#DejaVuSans-32"/>
      </g>
     </g>
    </g>
    <g id="xtick_2">
     <g id="line2d_2">
      <g>
       <use xlink:href="#ma6f7f5d202" x="94.477343" y="209.386745" style="stroke: #000000; stroke-width: 0.8"/>
      </g>
     </g>
     <g id="text_2">
      <!-- 4 -->
      <g transform="translate(91.296093 223.985182) scale(0.1 -0.1)">
       <defs>
        <path id="DejaVuSans-34" d="M 2419 4116 
L 825 1625 
L 2419 1625 
L 2419 4116 
z
M 2253 4666 
L 3047 4666 
L 3047 1625 
L 3713 1625 
L 3713 1100 
L 3047 1100 
L 3047 0 
L 2419 0 
L 2419 1100 
L 313 1100 
L 313 1709 
L 2253 4666 
z
" transform="scale(0.015625)"/>
       </defs>
       <use xlink:href="#DejaVuSans-34"/>
      </g>
     </g>
    </g>
    <g id="xtick_3">
     <g id="line2d_3">
      <g>
       <use xlink:href="#ma6f7f5d202" x="134.807101" y="209.386745" style="stroke: #000000; stroke-width: 0.8"/>
      </g>
     </g>
     <g id="text_3">
      <!-- 6 -->
      <g transform="translate(131.625851 223.985182) scale(0.1 -0.1)">
       <defs>
        <path id="DejaVuSans-36" d="M 2113 2584 
Q 1688 2584 1439 2293 
Q 1191 2003 1191 1497 
Q 1191 994 1439 701 
Q 1688 409 2113 409 
Q 2538 409 2786 701 
Q 3034 994 3034 1497 
Q 3034 2003 2786 2293 
Q 2538 2584 2113 2584 
z
M 3366 4563 
L 3366 3988 
Q 3128 4100 2886 4159 
Q 2644 4219 2406 4219 
Q 1781 4219 1451 3797 
Q 1122 3375 1075 2522 
Q 1259 2794 1537 2939 
Q 1816 3084 2150 3084 
Q 2853 3084 3261 2657 
Q 3669 2231 3669 1497 
Q 3669 778 3244 343 
Q 2819 -91 2113 -91 
Q 1303 -91 875 529 
Q 447 1150 447 2328 
Q 447 3434 972 4092 
Q 1497 4750 2381 4750 
Q 2619 4750 2861 4703 
Q 3103 4656 3366 4563 
z
" transform="scale(0.015625)"/>
       </defs>
       <use xlink:href="#DejaVuSans-36"/>
      </g>
     </g>
    </g>
    <g id="xtick_4">
     <g id="line2d_4">
      <g>
       <use xlink:href="#ma6f7f5d202" x="175.136858" y="209.386745" style="stroke: #000000; stroke-width: 0.8"/>
      </g>
     </g>
     <g id="text_4">
      <!-- 8 -->
      <g transform="translate(171.955608 223.985182) scale(0.1 -0.1)">
       <defs>
        <path id="DejaVuSans-38" d="M 2034 2216 
Q 1584 2216 1326 1975 
Q 1069 1734 1069 1313 
Q 1069 891 1326 650 
Q 1584 409 2034 409 
Q 2484 409 2743 651 
Q 3003 894 3003 1313 
Q 3003 1734 2745 1975 
Q 2488 2216 2034 2216 
z
M 1403 2484 
Q 997 2584 770 2862 
Q 544 3141 544 3541 
Q 544 4100 942 4425 
Q 1341 4750 2034 4750 
Q 2731 4750 3128 4425 
Q 3525 4100 3525 3541 
Q 3525 3141 3298 2862 
Q 3072 2584 2669 2484 
Q 3125 2378 3379 2068 
Q 3634 1759 3634 1313 
Q 3634 634 3220 271 
Q 2806 -91 2034 -91 
Q 1263 -91 848 271 
Q 434 634 434 1313 
Q 434 1759 690 2068 
Q 947 2378 1403 2484 
z
M 1172 3481 
Q 1172 3119 1398 2916 
Q 1625 2713 2034 2713 
Q 2441 2713 2670 2916 
Q 2900 3119 2900 3481 
Q 2900 3844 2670 4047 
Q 2441 4250 2034 4250 
Q 1625 4250 1398 4047 
Q 1172 3844 1172 3481 
z
" transform="scale(0.015625)"/>
       </defs>
       <use xlink:href="#DejaVuSans-38"/>
      </g>
     </g>
    </g>
   </g>
   <g id="matplotlib.axis_2">
    <g id="ytick_1">
     <g id="line2d_5">
      <defs>
       <path id="mefc866f36d" d="M 0 0 
L -3.5 0 
" style="stroke: #000000; stroke-width: 0.8"/>
      </defs>
      <g>
       <use xlink:href="#mefc866f36d" x="26.925" y="205.797179" style="stroke: #000000; stroke-width: 0.8"/>
      </g>
     </g>
     <g id="text_5">
      <!-- 0 -->
      <g transform="translate(13.5625 209.596398) scale(0.1 -0.1)">
       <defs>
        <path id="DejaVuSans-30" d="M 2034 4250 
Q 1547 4250 1301 3770 
Q 1056 3291 1056 2328 
Q 1056 1369 1301 889 
Q 1547 409 2034 409 
Q 2525 409 2770 889 
Q 3016 1369 3016 2328 
Q 3016 3291 2770 3770 
Q 2525 4250 2034 4250 
z
M 2034 4750 
Q 2819 4750 3233 4129 
Q 3647 3509 3647 2328 
Q 3647 1150 3233 529 
Q 2819 -91 2034 -91 
Q 1250 -91 836 529 
Q 422 1150 422 2328 
Q 422 3509 836 4129 
Q 1250 4750 2034 4750 
z
" transform="scale(0.015625)"/>
       </defs>
       <use xlink:href="#DejaVuSans-30"/>
      </g>
     </g>
    </g>
    <g id="ytick_2">
     <g id="line2d_6">
      <g>
       <use xlink:href="#mefc866f36d" x="26.925" y="172.405875" style="stroke: #000000; stroke-width: 0.8"/>
      </g>
     </g>
     <g id="text_6">
      <!-- 20 -->
      <g transform="translate(7.2 176.205094) scale(0.1 -0.1)">
       <use xlink:href="#DejaVuSans-32"/>
       <use xlink:href="#DejaVuSans-30" x="63.623047"/>
      </g>
     </g>
    </g>
    <g id="ytick_3">
     <g id="line2d_7">
      <g>
       <use xlink:href="#mefc866f36d" x="26.925" y="139.014571" style="stroke: #000000; stroke-width: 0.8"/>
      </g>
     </g>
     <g id="text_7">
      <!-- 40 -->
      <g transform="translate(7.2 142.813789) scale(0.1 -0.1)">
       <use xlink:href="#DejaVuSans-34"/>
       <use xlink:href="#DejaVuSans-30" x="63.623047"/>
      </g>
     </g>
    </g>
    <g id="ytick_4">
     <g id="line2d_8">
      <g>
       <use xlink:href="#mefc866f36d" x="26.925" y="105.623266" style="stroke: #000000; stroke-width: 0.8"/>
      </g>
     </g>
     <g id="text_8">
      <!-- 60 -->
      <g transform="translate(7.2 109.422485) scale(0.1 -0.1)">
       <use xlink:href="#DejaVuSans-36"/>
       <use xlink:href="#DejaVuSans-30" x="63.623047"/>
      </g>
     </g>
    </g>
   </g>
   <g id="line2d_9">
    <path d="M 33.982708 204.127614 
L 54.147586 199.118918 
L 74.312465 190.771092 
L 94.477343 179.084136 
L 114.642222 164.058049 
L 134.807101 145.692832 
L 154.971979 123.988484 
L 175.136858 98.945005 
" clip-path="url(#p0382a17cac)" style="fill: none; stroke: #1f77b4; stroke-width: 1.5; stroke-linecap: square"/>
   </g>
   <g id="patch_3">
    <path d="M 26.925 209.386745 
L 26.925 93.685875 
" style="fill: none; stroke: #000000; stroke-width: 0.8; stroke-linejoin: miter; stroke-linecap: square"/>
   </g>
   <g id="patch_4">
    <path d="M 182.194565 209.386745 
L 182.194565 93.685875 
" style="fill: none; stroke: #000000; stroke-width: 0.8; stroke-linejoin: miter; stroke-linecap: square"/>
   </g>
   <g id="patch_5">
    <path d="M 26.925 209.386745 
L 182.194565 209.386745 
" style="fill: none; stroke: #000000; stroke-width: 0.8; stroke-linejoin: miter; stroke-linecap: square"/>
   </g>
   <g id="patch_6">
    <path d="M 26.925 93.685875 
L 182.194565 93.685875 
" style="fill: none; stroke: #000000; stroke-width: 0.8; stroke-linejoin: miter; stroke-linecap: square"/>
   </g>
   <g id="text_9">
    <!--  "Owner's First"  -->
    <g transform="translate(56.326345 87.685875) scale(0.12 -0.12)">
     <defs>
      <path id="DejaVuSans-20" transform="scale(0.015625)"/>
      <path id="DejaVuSans-22" d="M 1147 4666 
L 1147 2931 
L 616 2931 
L 616 4666 
L 1147 4666 
z
M 2328 4666 
L 2328 2931 
L 1797 2931 
L 1797 4666 
L 2328 4666 
z
" transform="scale(0.015625)"/>
      <path id="DejaVuSans-4f" d="M 2522 4238 
Q 1834 4238 1429 3725 
Q 1025 3213 1025 2328 
Q 1025 1447 1429 934 
Q 1834 422 2522 422 
Q 3209 422 3611 934 
Q 4013 1447 4013 2328 
Q 4013 3213 3611 3725 
Q 3209 4238 2522 4238 
z
M 2522 4750 
Q 3503 4750 4090 4092 
Q 4678 3434 4678 2328 
Q 4678 1225 4090 567 
Q 3503 -91 2522 -91 
Q 1538 -91 948 565 
Q 359 1222 359 2328 
Q 359 3434 948 4092 
Q 1538 4750 2522 4750 
z
" transform="scale(0.015625)"/>
      <path id="DejaVuSans-77" d="M 269 3500 
L 844 3500 
L 1563 769 
L 2278 3500 
L 2956 3500 
L 3675 769 
L 4391 3500 
L 4966 3500 
L 4050 0 
L 3372 0 
L 2619 2869 
L 1863 0 
L 1184 0 
L 269 3500 
z
" transform="scale(0.015625)"/>
      <path id="DejaVuSans-6e" d="M 3513 2113 
L 3513 0 
L 2938 0 
L 2938 2094 
Q 2938 2591 2744 2837 
Q 2550 3084 2163 3084 
Q 1697 3084 1428 2787 
Q 1159 2491 1159 1978 
L 1159 0 
L 581 0 
L 581 3500 
L 1159 3500 
L 1159 2956 
Q 1366 3272 1645 3428 
Q 1925 3584 2291 3584 
Q 2894 3584 3203 3211 
Q 3513 2838 3513 2113 
z
" transform="scale(0.015625)"/>
      <path id="DejaVuSans-65" d="M 3597 1894 
L 3597 1613 
L 953 1613 
Q 991 1019 1311 708 
Q 1631 397 2203 397 
Q 2534 397 2845 478 
Q 3156 559 3463 722 
L 3463 178 
Q 3153 47 2828 -22 
Q 2503 -91 2169 -91 
Q 1331 -91 842 396 
Q 353 884 353 1716 
Q 353 2575 817 3079 
Q 1281 3584 2069 3584 
Q 2775 3584 3186 3129 
Q 3597 2675 3597 1894 
z
M 3022 2063 
Q 3016 2534 2758 2815 
Q 2500 3097 2075 3097 
Q 1594 3097 1305 2825 
Q 1016 2553 972 2059 
L 3022 2063 
z
" transform="scale(0.015625)"/>
      <path id="DejaVuSans-72" d="M 2631 2963 
Q 2534 3019 2420 3045 
Q 2306 3072 2169 3072 
Q 1681 3072 1420 2755 
Q 1159 2438 1159 1844 
L 1159 0 
L 581 0 
L 581 3500 
L 1159 3500 
L 1159 2956 
Q 1341 3275 1631 3429 
Q 1922 3584 2338 3584 
Q 2397 3584 2469 3576 
Q 2541 3569 2628 3553 
L 2631 2963 
z
" transform="scale(0.015625)"/>
      <path id="DejaVuSans-27" d="M 1147 4666 
L 1147 2931 
L 616 2931 
L 616 4666 
L 1147 4666 
z
" transform="scale(0.015625)"/>
      <path id="DejaVuSans-73" d="M 2834 3397 
L 2834 2853 
Q 2591 2978 2328 3040 
Q 2066 3103 1784 3103 
Q 1356 3103 1142 2972 
Q 928 2841 928 2578 
Q 928 2378 1081 2264 
Q 1234 2150 1697 2047 
L 1894 2003 
Q 2506 1872 2764 1633 
Q 3022 1394 3022 966 
Q 3022 478 2636 193 
Q 2250 -91 1575 -91 
Q 1294 -91 989 -36 
Q 684 19 347 128 
L 347 722 
Q 666 556 975 473 
Q 1284 391 1588 391 
Q 1994 391 2212 530 
Q 2431 669 2431 922 
Q 2431 1156 2273 1281 
Q 2116 1406 1581 1522 
L 1381 1569 
Q 847 1681 609 1914 
Q 372 2147 372 2553 
Q 372 3047 722 3315 
Q 1072 3584 1716 3584 
Q 2034 3584 2315 3537 
Q 2597 3491 2834 3397 
z
" transform="scale(0.015625)"/>
      <path id="DejaVuSans-46" d="M 628 4666 
L 3309 4666 
L 3309 4134 
L 1259 4134 
L 1259 2759 
L 3109 2759 
L 3109 2228 
L 1259 2228 
L 1259 0 
L 628 0 
L 628 4666 
z
" transform="scale(0.015625)"/>
      <path id="DejaVuSans-69" d="M 603 3500 
L 1178 3500 
L 1178 0 
L 603 0 
L 603 3500 
z
M 603 4863 
L 1178 4863 
L 1178 4134 
L 603 4134 
L 603 4863 
z
" transform="scale(0.015625)"/>
      <path id="DejaVuSans-74" d="M 1172 4494 
L 1172 3500 
L 2356 3500 
L 2356 3053 
L 1172 3053 
L 1172 1153 
Q 1172 725 1289 603 
Q 1406 481 1766 481 
L 2356 481 
L 2356 0 
L 1766 0 
Q 1100 0 847 248 
Q 594 497 594 1153 
L 594 3053 
L 172 3053 
L 172 3500 
L 594 3500 
L 594 4494 
L 1172 4494 
z
" transform="scale(0.015625)"/>
     </defs>
     <use xlink:href="#DejaVuSans-20"/>
     <use xlink:href="#DejaVuSans-22" x="31.787109"/>
     <use xlink:href="#DejaVuSans-4f" x="77.783203"/>
     <use xlink:href="#DejaVuSans-77" x="156.494141"/>
     <use xlink:href="#DejaVuSans-6e" x="238.28125"/>
     <use xlink:href="#DejaVuSans-65" x="301.660156"/>
     <use xlink:href="#DejaVuSans-72" x="363.183594"/>
     <use xlink:href="#DejaVuSans-27" x="404.296875"/>
     <use xlink:href="#DejaVuSans-73" x="431.787109"/>
     <use xlink:href="#DejaVuSans-20" x="483.886719"/>
     <use xlink:href="#DejaVuSans-46" x="515.673828"/>
     <use xlink:href="#DejaVuSans-69" x="565.943359"/>
     <use xlink:href="#DejaVuSans-72" x="593.726562"/>
     <use xlink:href="#DejaVuSans-73" x="634.839844"/>
     <use xlink:href="#DejaVuSans-74" x="686.939453"/>
     <use xlink:href="#DejaVuSans-22" x="726.148438"/>
     <use xlink:href="#DejaVuSans-20" x="772.144531"/>
    </g>
   </g>
  </g>
  <g id="axes_2">
   <g id="patch_7">
    <path d="M 228.775435 209.386745 
L 384.045 209.386745 
L 384.045 93.685875 
L 228.775435 93.685875 
z
" style="fill: #ffffff"/>
   </g>
   <g id="matplotlib.axis_3">
    <g id="xtick_5">
     <g id="line2d_10">
      <g>
       <use xlink:href="#ma6f7f5d202" x="255.998021" y="209.386745" style="stroke: #000000; stroke-width: 0.8"/>
      </g>
     </g>
     <g id="text_10">
      <!-- 2 -->
      <g transform="translate(252.816771 223.985182) scale(0.1 -0.1)">
       <use xlink:href="#DejaVuSans-32"/>
      </g>
     </g>
    </g>
    <g id="xtick_6">
     <g id="line2d_11">
      <g>
       <use xlink:href="#ma6f7f5d202" x="296.327778" y="209.386745" style="stroke: #000000; stroke-width: 0.8"/>
      </g>
     </g>
     <g id="text_11">
      <!-- 4 -->
      <g transform="translate(293.146528 223.985182) scale(0.1 -0.1)">
       <use xlink:href="#DejaVuSans-34"/>
      </g>
     </g>
    </g>
    <g id="xtick_7">
     <g id="line2d_12">
      <g>
       <use xlink:href="#ma6f7f5d202" x="336.657535" y="209.386745" style="stroke: #000000; stroke-width: 0.8"/>
      </g>
     </g>
     <g id="text_12">
      <!-- 6 -->
      <g transform="translate(333.476285 223.985182) scale(0.1 -0.1)">
       <use xlink:href="#DejaVuSans-36"/>
      </g>
     </g>
    </g>
    <g id="xtick_8">
     <g id="line2d_13">
      <g>
       <use xlink:href="#ma6f7f5d202" x="376.987292" y="209.386745" style="stroke: #000000; stroke-width: 0.8"/>
      </g>
     </g>
     <g id="text_13">
      <!-- 8 -->
      <g transform="translate(373.806042 223.985182) scale(0.1 -0.1)">
       <use xlink:href="#DejaVuSans-38"/>
      </g>
     </g>
    </g>
   </g>
   <g id="matplotlib.axis_4">
    <g id="ytick_5">
     <g id="line2d_14">
      <g>
       <use xlink:href="#mefc866f36d" x="228.775435" y="205.797179" style="stroke: #000000; stroke-width: 0.8"/>
      </g>
     </g>
     <g id="text_14">
      <!-- 0 -->
      <g transform="translate(215.412935 209.596398) scale(0.1 -0.1)">
       <use xlink:href="#DejaVuSans-30"/>
      </g>
     </g>
    </g>
    <g id="ytick_6">
     <g id="line2d_15">
      <g>
       <use xlink:href="#mefc866f36d" x="228.775435" y="172.405875" style="stroke: #000000; stroke-width: 0.8"/>
      </g>
     </g>
     <g id="text_15">
      <!-- 20 -->
      <g transform="translate(209.050435 176.205094) scale(0.1 -0.1)">
       <use xlink:href="#DejaVuSans-32"/>
       <use xlink:href="#DejaVuSans-30" x="63.623047"/>
      </g>
     </g>
    </g>
    <g id="ytick_7">
     <g id="line2d_16">
      <g>
       <use xlink:href="#mefc866f36d" x="228.775435" y="139.014571" style="stroke: #000000; stroke-width: 0.8"/>
      </g>
     </g>
     <g id="text_16">
      <!-- 40 -->
      <g transform="translate(209.050435 142.813789) scale(0.1 -0.1)">
       <use xlink:href="#DejaVuSans-34"/>
       <use xlink:href="#DejaVuSans-30" x="63.623047"/>
      </g>
     </g>
    </g>
    <g id="ytick_8">
     <g id="line2d_17">
      <g>
       <use xlink:href="#mefc866f36d" x="228.775435" y="105.623266" style="stroke: #000000; stroke-width: 0.8"/>
      </g>
     </g>
     <g id="text_17">
      <!-- 60 -->
      <g transform="translate(209.050435 109.422485) scale(0.1 -0.1)">
       <use xlink:href="#DejaVuSans-36"/>
       <use xlink:href="#DejaVuSans-30" x="63.623047"/>
      </g>
     </g>
    </g>
   </g>
   <g id="line2d_18">
    <path d="M 235.833142 204.127614 
L 255.998021 199.118918 
L 276.162899 190.771092 
L 296.327778 179.084136 
L 316.492657 164.058049 
L 336.657535 145.692832 
L 356.822414 123.988484 
L 376.987292 98.945005 
" clip-path="url(#p4321b6dc90)" style="fill: none; stroke: #1f77b4; stroke-width: 1.5; stroke-linecap: square"/>
   </g>
   <g id="patch_8">
    <path d="M 228.775435 209.386745 
L 228.775435 93.685875 
" style="fill: none; stroke: #000000; stroke-width: 0.8; stroke-linejoin: miter; stroke-linecap: square"/>
   </g>
   <g id="patch_9">
    <path d="M 384.045 209.386745 
L 384.045 93.685875 
" style="fill: none; stroke: #000000; stroke-width: 0.8; stroke-linejoin: miter; stroke-linecap: square"/>
   </g>
   <g id="patch_10">
    <path d="M 228.775435 209.386745 
L 384.045 209.386745 
" style="fill: none; stroke: #000000; stroke-width: 0.8; stroke-linejoin: miter; stroke-linecap: square"/>
   </g>
   <g id="patch_11">
    <path d="M 228.775435 93.685875 
L 384.045 93.685875 
" style="fill: none; stroke: #000000; stroke-width: 0.8; stroke-linejoin: miter; stroke-linecap: square"/>
   </g>
   <g id="text_18">
    <!--  "Owner's Second"  -->
    <g transform="translate(248.721155 87.685875) scale(0.12 -0.12)">
     <defs>
      <path id="DejaVuSans-53" d="M 3425 4513 
L 3425 3897 
Q 3066 4069 2747 4153 
Q 2428 4238 2131 4238 
Q 1616 4238 1336 4038 
Q 1056 3838 1056 3469 
Q 1056 3159 1242 3001 
Q 1428 2844 1947 2747 
L 2328 2669 
Q 3034 2534 3370 2195 
Q 3706 1856 3706 1288 
Q 3706 609 3251 259 
Q 2797 -91 1919 -91 
Q 1588 -91 1214 -16 
Q 841 59 441 206 
L 441 856 
Q 825 641 1194 531 
Q 1563 422 1919 422 
Q 2459 422 2753 634 
Q 3047 847 3047 1241 
Q 3047 1584 2836 1778 
Q 2625 1972 2144 2069 
L 1759 2144 
Q 1053 2284 737 2584 
Q 422 2884 422 3419 
Q 422 4038 858 4394 
Q 1294 4750 2059 4750 
Q 2388 4750 2728 4690 
Q 3069 4631 3425 4513 
z
" transform="scale(0.015625)"/>
      <path id="DejaVuSans-63" d="M 3122 3366 
L 3122 2828 
Q 2878 2963 2633 3030 
Q 2388 3097 2138 3097 
Q 1578 3097 1268 2742 
Q 959 2388 959 1747 
Q 959 1106 1268 751 
Q 1578 397 2138 397 
Q 2388 397 2633 464 
Q 2878 531 3122 666 
L 3122 134 
Q 2881 22 2623 -34 
Q 2366 -91 2075 -91 
Q 1284 -91 818 406 
Q 353 903 353 1747 
Q 353 2603 823 3093 
Q 1294 3584 2113 3584 
Q 2378 3584 2631 3529 
Q 2884 3475 3122 3366 
z
" transform="scale(0.015625)"/>
      <path id="DejaVuSans-6f" d="M 1959 3097 
Q 1497 3097 1228 2736 
Q 959 2375 959 1747 
Q 959 1119 1226 758 
Q 1494 397 1959 397 
Q 2419 397 2687 759 
Q 2956 1122 2956 1747 
Q 2956 2369 2687 2733 
Q 2419 3097 1959 3097 
z
M 1959 3584 
Q 2709 3584 3137 3096 
Q 3566 2609 3566 1747 
Q 3566 888 3137 398 
Q 2709 -91 1959 -91 
Q 1206 -91 779 398 
Q 353 888 353 1747 
Q 353 2609 779 3096 
Q 1206 3584 1959 3584 
z
" transform="scale(0.015625)"/>
      <path id="DejaVuSans-64" d="M 2906 2969 
L 2906 4863 
L 3481 4863 
L 3481 0 
L 2906 0 
L 2906 525 
Q 2725 213 2448 61 
Q 2172 -91 1784 -91 
Q 1150 -91 751 415 
Q 353 922 353 1747 
Q 353 2572 751 3078 
Q 1150 3584 1784 3584 
Q 2172 3584 2448 3432 
Q 2725 3281 2906 2969 
z
M 947 1747 
Q 947 1113 1208 752 
Q 1469 391 1925 391 
Q 2381 391 2643 752 
Q 2906 1113 2906 1747 
Q 2906 2381 2643 2742 
Q 2381 3103 1925 3103 
Q 1469 3103 1208 2742 
Q 947 2381 947 1747 
z
" transform="scale(0.015625)"/>
     </defs>
     <use xlink:href="#DejaVuSans-20"/>
     <use xlink:href="#DejaVuSans-22" x="31.787109"/>
     <use xlink:href="#DejaVuSans-4f" x="77.783203"/>
     <use xlink:href="#DejaVuSans-77" x="156.494141"/>
     <use xlink:href="#DejaVuSans-6e" x="238.28125"/>
     <use xlink:href="#DejaVuSans-65" x="301.660156"/>
     <use xlink:href="#DejaVuSans-72" x="363.183594"/>
     <use xlink:href="#DejaVuSans-27" x="404.296875"/>
     <use xlink:href="#DejaVuSans-73" x="431.787109"/>
     <use xlink:href="#DejaVuSans-20" x="483.886719"/>
     <use xlink:href="#DejaVuSans-53" x="515.673828"/>
     <use xlink:href="#DejaVuSans-65" x="579.150391"/>
     <use xlink:href="#DejaVuSans-63" x="640.673828"/>
     <use xlink:href="#DejaVuSans-6f" x="695.654297"/>
     <use xlink:href="#DejaVuSans-6e" x="756.835938"/>
     <use xlink:href="#DejaVuSans-64" x="820.214844"/>
     <use xlink:href="#DejaVuSans-22" x="883.691406"/>
     <use xlink:href="#DejaVuSans-20" x="929.6875"/>
    </g>
   </g>
  </g>
  <g id="axes_3">
   <g id="patch_12">
    <path d="M 26.925 359.797875 
L 182.194565 359.797875 
L 182.194565 244.097005 
L 26.925 244.097005 
z
" style="fill: #ffffff"/>
   </g>
   <g id="matplotlib.axis_5">
    <g id="xtick_9">
     <g id="line2d_19">
      <g>
       <use xlink:href="#ma6f7f5d202" x="54.147586" y="359.797875" style="stroke: #000000; stroke-width: 0.8"/>
      </g>
     </g>
     <g id="text_19">
      <!-- 2 -->
      <g transform="translate(50.966336 374.396312) scale(0.1 -0.1)">
       <use xlink:href="#DejaVuSans-32"/>
      </g>
     </g>
    </g>
    <g id="xtick_10">
     <g id="line2d_20">
      <g>
       <use xlink:href="#ma6f7f5d202" x="94.477343" y="359.797875" style="stroke: #000000; stroke-width: 0.8"/>
      </g>
     </g>
     <g id="text_20">
      <!-- 4 -->
      <g transform="translate(91.296093 374.396312) scale(0.1 -0.1)">
       <use xlink:href="#DejaVuSans-34"/>
      </g>
     </g>
    </g>
    <g id="xtick_11">
     <g id="line2d_21">
      <g>
       <use xlink:href="#ma6f7f5d202" x="134.807101" y="359.797875" style="stroke: #000000; stroke-width: 0.8"/>
      </g>
     </g>
     <g id="text_21">
      <!-- 6 -->
      <g transform="translate(131.625851 374.396312) scale(0.1 -0.1)">
       <use xlink:href="#DejaVuSans-36"/>
      </g>
     </g>
    </g>
    <g id="xtick_12">
     <g id="line2d_22">
      <g>
       <use xlink:href="#ma6f7f5d202" x="175.136858" y="359.797875" style="stroke: #000000; stroke-width: 0.8"/>
      </g>
     </g>
     <g id="text_22">
      <!-- 8 -->
      <g transform="translate(171.955608 374.396312) scale(0.1 -0.1)">
       <use xlink:href="#DejaVuSans-38"/>
      </g>
     </g>
    </g>
   </g>
   <g id="matplotlib.axis_6">
    <g id="ytick_9">
     <g id="line2d_23">
      <g>
       <use xlink:href="#mefc866f36d" x="26.925" y="356.20831" style="stroke: #000000; stroke-width: 0.8"/>
      </g>
     </g>
     <g id="text_23">
      <!-- 0 -->
      <g transform="translate(13.5625 360.007529) scale(0.1 -0.1)">
       <use xlink:href="#DejaVuSans-30"/>
      </g>
     </g>
    </g>
    <g id="ytick_10">
     <g id="line2d_24">
      <g>
       <use xlink:href="#mefc866f36d" x="26.925" y="322.817005" style="stroke: #000000; stroke-width: 0.8"/>
      </g>
     </g>
     <g id="text_24">
      <!-- 20 -->
      <g transform="translate(7.2 326.616224) scale(0.1 -0.1)">
       <use xlink:href="#DejaVuSans-32"/>
       <use xlink:href="#DejaVuSans-30" x="63.623047"/>
      </g>
     </g>
    </g>
    <g id="ytick_11">
     <g id="line2d_25">
      <g>
       <use xlink:href="#mefc866f36d" x="26.925" y="289.425701" style="stroke: #000000; stroke-width: 0.8"/>
      </g>
     </g>
     <g id="text_25">
      <!-- 40 -->
      <g transform="translate(7.2 293.22492) scale(0.1 -0.1)">
       <use xlink:href="#DejaVuSans-34"/>
       <use xlink:href="#DejaVuSans-30" x="63.623047"/>
      </g>
     </g>
    </g>
    <g id="ytick_12">
     <g id="line2d_26">
      <g>
       <use xlink:href="#mefc866f36d" x="26.925" y="256.034397" style="stroke: #000000; stroke-width: 0.8"/>
      </g>
     </g>
     <g id="text_26">
      <!-- 60 -->
      <g transform="translate(7.2 259.833615) scale(0.1 -0.1)">
       <use xlink:href="#DejaVuSans-36"/>
       <use xlink:href="#DejaVuSans-30" x="63.623047"/>
      </g>
     </g>
    </g>
   </g>
   <g id="line2d_27">
    <path d="M 33.982708 354.538745 
L 54.147586 349.530049 
L 74.312465 341.182223 
L 94.477343 329.495266 
L 114.642222 314.469179 
L 134.807101 296.103962 
L 154.971979 274.399614 
L 175.136858 249.356136 
" clip-path="url(#pa5319b0471)" style="fill: none; stroke: #1f77b4; stroke-width: 1.5; stroke-linecap: square"/>
   </g>
   <g id="patch_13">
    <path d="M 26.925 359.797875 
L 26.925 244.097005 
" style="fill: none; stroke: #000000; stroke-width: 0.8; stroke-linejoin: miter; stroke-linecap: square"/>
   </g>
   <g id="patch_14">
    <path d="M 182.194565 359.797875 
L 182.194565 244.097005 
" style="fill: none; stroke: #000000; stroke-width: 0.8; stroke-linejoin: miter; stroke-linecap: square"/>
   </g>
   <g id="patch_15">
    <path d="M 26.925 359.797875 
L 182.194565 359.797875 
" style="fill: none; stroke: #000000; stroke-width: 0.8; stroke-linejoin: miter; stroke-linecap: square"/>
   </g>
   <g id="patch_16">
    <path d="M 26.925 244.097005 
L 182.194565 244.097005 
" style="fill: none; stroke: #000000; stroke-width: 0.8; stroke-linejoin: miter; stroke-linecap: square"/>
   </g>
   <g id="text_27">
    <!--  "Owner's Third"  -->
    <g transform="translate(53.648845 238.097005) scale(0.12 -0.12)">
     <defs>
      <path id="DejaVuSans-54" d="M -19 4666 
L 3928 4666 
L 3928 4134 
L 2272 4134 
L 2272 0 
L 1638 0 
L 1638 4134 
L -19 4134 
L -19 4666 
z
" transform="scale(0.015625)"/>
      <path id="DejaVuSans-68" d="M 3513 2113 
L 3513 0 
L 2938 0 
L 2938 2094 
Q 2938 2591 2744 2837 
Q 2550 3084 2163 3084 
Q 1697 3084 1428 2787 
Q 1159 2491 1159 1978 
L 1159 0 
L 581 0 
L 581 4863 
L 1159 4863 
L 1159 2956 
Q 1366 3272 1645 3428 
Q 1925 3584 2291 3584 
Q 2894 3584 3203 3211 
Q 3513 2838 3513 2113 
z
" transform="scale(0.015625)"/>
     </defs>
     <use xlink:href="#DejaVuSans-20"/>
     <use xlink:href="#DejaVuSans-22" x="31.787109"/>
     <use xlink:href="#DejaVuSans-4f" x="77.783203"/>
     <use xlink:href="#DejaVuSans-77" x="156.494141"/>
     <use xlink:href="#DejaVuSans-6e" x="238.28125"/>
     <use xlink:href="#DejaVuSans-65" x="301.660156"/>
     <use xlink:href="#DejaVuSans-72" x="363.183594"/>
     <use xlink:href="#DejaVuSans-27" x="404.296875"/>
     <use xlink:href="#DejaVuSans-73" x="431.787109"/>
     <use xlink:href="#DejaVuSans-20" x="483.886719"/>
     <use xlink:href="#DejaVuSans-54" x="515.673828"/>
     <use xlink:href="#DejaVuSans-68" x="576.757812"/>
     <use xlink:href="#DejaVuSans-69" x="640.136719"/>
     <use xlink:href="#DejaVuSans-72" x="667.919922"/>
     <use xlink:href="#DejaVuSans-64" x="707.283203"/>
     <use xlink:href="#DejaVuSans-22" x="770.759766"/>
     <use xlink:href="#DejaVuSans-20" x="816.755859"/>
    </g>
   </g>
  </g>
  <g id="axes_4">
   <g id="patch_17">
    <path d="M 228.775435 359.797875 
L 384.045 359.797875 
L 384.045 244.097005 
L 228.775435 244.097005 
z
" style="fill: #ffffff"/>
   </g>
   <g id="matplotlib.axis_7">
    <g id="xtick_13">
     <g id="line2d_28">
      <g>
       <use xlink:href="#ma6f7f5d202" x="255.998021" y="359.797875" style="stroke: #000000; stroke-width: 0.8"/>
      </g>
     </g>
     <g id="text_28">
      <!-- 2 -->
      <g transform="translate(252.816771 374.396312) scale(0.1 -0.1)">
       <use xlink:href="#DejaVuSans-32"/>
      </g>
     </g>
    </g>
    <g id="xtick_14">
     <g id="line2d_29">
      <g>
       <use xlink:href="#ma6f7f5d202" x="296.327778" y="359.797875" style="stroke: #000000; stroke-width: 0.8"/>
      </g>
     </g>
     <g id="text_29">
      <!-- 4 -->
      <g transform="translate(293.146528 374.396312) scale(0.1 -0.1)">
       <use xlink:href="#DejaVuSans-34"/>
      </g>
     </g>
    </g>
    <g id="xtick_15">
     <g id="line2d_30">
      <g>
       <use xlink:href="#ma6f7f5d202" x="336.657535" y="359.797875" style="stroke: #000000; stroke-width: 0.8"/>
      </g>
     </g>
     <g id="text_30">
      <!-- 6 -->
      <g transform="translate(333.476285 374.396312) scale(0.1 -0.1)">
       <use xlink:href="#DejaVuSans-36"/>
      </g>
     </g>
    </g>
    <g id="xtick_16">
     <g id="line2d_31">
      <g>
       <use xlink:href="#ma6f7f5d202" x="376.987292" y="359.797875" style="stroke: #000000; stroke-width: 0.8"/>
      </g>
     </g>
     <g id="text_31">
      <!-- 8 -->
      <g transform="translate(373.806042 374.396312) scale(0.1 -0.1)">
       <use xlink:href="#DejaVuSans-38"/>
      </g>
     </g>
    </g>
   </g>
   <g id="matplotlib.axis_8">
    <g id="ytick_13">
     <g id="line2d_32">
      <g>
       <use xlink:href="#mefc866f36d" x="228.775435" y="356.20831" style="stroke: #000000; stroke-width: 0.8"/>
      </g>
     </g>
     <g id="text_32">
      <!-- 0 -->
      <g transform="translate(215.412935 360.007529) scale(0.1 -0.1)">
       <use xlink:href="#DejaVuSans-30"/>
      </g>
     </g>
    </g>
    <g id="ytick_14">
     <g id="line2d_33">
      <g>
       <use xlink:href="#mefc866f36d" x="228.775435" y="322.817005" style="stroke: #000000; stroke-width: 0.8"/>
      </g>
     </g>
     <g id="text_33">
      <!-- 20 -->
      <g transform="translate(209.050435 326.616224) scale(0.1 -0.1)">
       <use xlink:href="#DejaVuSans-32"/>
       <use xlink:href="#DejaVuSans-30" x="63.623047"/>
      </g>
     </g>
    </g>
    <g id="ytick_15">
     <g id="line2d_34">
      <g>
       <use xlink:href="#mefc866f36d" x="228.775435" y="289.425701" style="stroke: #000000; stroke-width: 0.8"/>
      </g>
     </g>
     <g id="text_34">
      <!-- 40 -->
      <g transform="translate(209.050435 293.22492) scale(0.1 -0.1)">
       <use xlink:href="#DejaVuSans-34"/>
       <use xlink:href="#DejaVuSans-30" x="63.623047"/>
      </g>
     </g>
    </g>
    <g id="ytick_16">
     <g id="line2d_35">
      <g>
       <use xlink:href="#mefc866f36d" x="228.775435" y="256.034397" style="stroke: #000000; stroke-width: 0.8"/>
      </g>
     </g>
     <g id="text_35">
      <!-- 60 -->
      <g transform="translate(209.050435 259.833615) scale(0.1 -0.1)">
       <use xlink:href="#DejaVuSans-36"/>
       <use xlink:href="#DejaVuSans-30" x="63.623047"/>
      </g>
     </g>
    </g>
   </g>
   <g id="line2d_36">
    <path d="M 235.833142 354.538745 
L 255.998021 349.530049 
L 276.162899 341.182223 
L 296.327778 329.495266 
L 316.492657 314.469179 
L 336.657535 296.103962 
L 356.822414 274.399614 
L 376.987292 249.356136 
" clip-path="url(#pf5c0527f41)" style="fill: none; stroke: #1f77b4; stroke-width: 1.5; stroke-linecap: square"/>
   </g>
   <g id="patch_18">
    <path d="M 228.775435 359.797875 
L 228.775435 244.097005 
" style="fill: none; stroke: #000000; stroke-width: 0.8; stroke-linejoin: miter; stroke-linecap: square"/>
   </g>
   <g id="patch_19">
    <path d="M 384.045 359.797875 
L 384.045 244.097005 
" style="fill: none; stroke: #000000; stroke-width: 0.8; stroke-linejoin: miter; stroke-linecap: square"/>
   </g>
   <g id="patch_20">
    <path d="M 228.775435 359.797875 
L 384.045 359.797875 
" style="fill: none; stroke: #000000; stroke-width: 0.8; stroke-linejoin: miter; stroke-linecap: square"/>
   </g>
   <g id="patch_21">
    <path d="M 228.775435 244.097005 
L 384.045 244.097005 
" style="fill: none; stroke: #000000; stroke-width: 0.8; stroke-linejoin: miter; stroke-linecap: square"/>
   </g>
   <g id="text_36">
    <!--  "Owner's Fourth"  -->
    <g transform="translate(251.47553 238.097005) scale(0.12 -0.12)">
     <defs>
      <path id="DejaVuSans-75" d="M 544 1381 
L 544 3500 
L 1119 3500 
L 1119 1403 
Q 1119 906 1312 657 
Q 1506 409 1894 409 
Q 2359 409 2629 706 
Q 2900 1003 2900 1516 
L 2900 3500 
L 3475 3500 
L 3475 0 
L 2900 0 
L 2900 538 
Q 2691 219 2414 64 
Q 2138 -91 1772 -91 
Q 1169 -91 856 284 
Q 544 659 544 1381 
z
M 1991 3584 
L 1991 3584 
z
" transform="scale(0.015625)"/>
     </defs>
     <use xlink:href="#DejaVuSans-20"/>
     <use xlink:href="#DejaVuSans-22" x="31.787109"/>
     <use xlink:href="#DejaVuSans-4f" x="77.783203"/>
     <use xlink:href="#DejaVuSans-77" x="156.494141"/>
     <use xlink:href="#DejaVuSans-6e" x="238.28125"/>
     <use xlink:href="#DejaVuSans-65" x="301.660156"/>
     <use xlink:href="#DejaVuSans-72" x="363.183594"/>
     <use xlink:href="#DejaVuSans-27" x="404.296875"/>
     <use xlink:href="#DejaVuSans-73" x="431.787109"/>
     <use xlink:href="#DejaVuSans-20" x="483.886719"/>
     <use xlink:href="#DejaVuSans-46" x="515.673828"/>
     <use xlink:href="#DejaVuSans-6f" x="569.568359"/>
     <use xlink:href="#DejaVuSans-75" x="630.75"/>
     <use xlink:href="#DejaVuSans-72" x="694.128906"/>
     <use xlink:href="#DejaVuSans-74" x="735.242188"/>
     <use xlink:href="#DejaVuSans-68" x="774.451172"/>
     <use xlink:href="#DejaVuSans-22" x="837.830078"/>
     <use xlink:href="#DejaVuSans-20" x="883.826172"/>
    </g>
   </g>
  </g>
  <g id="text_37">
   <!--  "Plot's Owner Says: This is the "super title",  -->
   <g transform="translate(64.994063 16.318125) scale(0.12 -0.12)">
    <defs>
     <path id="DejaVuSans-50" d="M 1259 4147 
L 1259 2394 
L 2053 2394 
Q 2494 2394 2734 2622 
Q 2975 2850 2975 3272 
Q 2975 3691 2734 3919 
Q 2494 4147 2053 4147 
L 1259 4147 
z
M 628 4666 
L 2053 4666 
Q 2838 4666 3239 4311 
Q 3641 3956 3641 3272 
Q 3641 2581 3239 2228 
Q 2838 1875 2053 1875 
L 1259 1875 
L 1259 0 
L 628 0 
L 628 4666 
z
" transform="scale(0.015625)"/>
     <path id="DejaVuSans-6c" d="M 603 4863 
L 1178 4863 
L 1178 0 
L 603 0 
L 603 4863 
z
" transform="scale(0.015625)"/>
     <path id="DejaVuSans-61" d="M 2194 1759 
Q 1497 1759 1228 1600 
Q 959 1441 959 1056 
Q 959 750 1161 570 
Q 1363 391 1709 391 
Q 2188 391 2477 730 
Q 2766 1069 2766 1631 
L 2766 1759 
L 2194 1759 
z
M 3341 1997 
L 3341 0 
L 2766 0 
L 2766 531 
Q 2569 213 2275 61 
Q 1981 -91 1556 -91 
Q 1019 -91 701 211 
Q 384 513 384 1019 
Q 384 1609 779 1909 
Q 1175 2209 1959 2209 
L 2766 2209 
L 2766 2266 
Q 2766 2663 2505 2880 
Q 2244 3097 1772 3097 
Q 1472 3097 1187 3025 
Q 903 2953 641 2809 
L 641 3341 
Q 956 3463 1253 3523 
Q 1550 3584 1831 3584 
Q 2591 3584 2966 3190 
Q 3341 2797 3341 1997 
z
" transform="scale(0.015625)"/>
     <path id="DejaVuSans-79" d="M 2059 -325 
Q 1816 -950 1584 -1140 
Q 1353 -1331 966 -1331 
L 506 -1331 
L 506 -850 
L 844 -850 
Q 1081 -850 1212 -737 
Q 1344 -625 1503 -206 
L 1606 56 
L 191 3500 
L 800 3500 
L 1894 763 
L 2988 3500 
L 3597 3500 
L 2059 -325 
z
" transform="scale(0.015625)"/>
     <path id="DejaVuSans-3a" d="M 750 794 
L 1409 794 
L 1409 0 
L 750 0 
L 750 794 
z
M 750 3309 
L 1409 3309 
L 1409 2516 
L 750 2516 
L 750 3309 
z
" transform="scale(0.015625)"/>
     <path id="DejaVuSans-70" d="M 1159 525 
L 1159 -1331 
L 581 -1331 
L 581 3500 
L 1159 3500 
L 1159 2969 
Q 1341 3281 1617 3432 
Q 1894 3584 2278 3584 
Q 2916 3584 3314 3078 
Q 3713 2572 3713 1747 
Q 3713 922 3314 415 
Q 2916 -91 2278 -91 
Q 1894 -91 1617 61 
Q 1341 213 1159 525 
z
M 3116 1747 
Q 3116 2381 2855 2742 
Q 2594 3103 2138 3103 
Q 1681 3103 1420 2742 
Q 1159 2381 1159 1747 
Q 1159 1113 1420 752 
Q 1681 391 2138 391 
Q 2594 391 2855 752 
Q 3116 1113 3116 1747 
z
" transform="scale(0.015625)"/>
     <path id="DejaVuSans-2c" d="M 750 794 
L 1409 794 
L 1409 256 
L 897 -744 
L 494 -744 
L 750 256 
L 750 794 
z
" transform="scale(0.015625)"/>
    </defs>
    <use xlink:href="#DejaVuSans-20"/>
    <use xlink:href="#DejaVuSans-22" x="31.787109"/>
    <use xlink:href="#DejaVuSans-50" x="77.783203"/>
    <use xlink:href="#DejaVuSans-6c" x="138.085938"/>
    <use xlink:href="#DejaVuSans-6f" x="165.869141"/>
    <use xlink:href="#DejaVuSans-74" x="227.050781"/>
    <use xlink:href="#DejaVuSans-27" x="266.259766"/>
    <use xlink:href="#DejaVuSans-73" x="293.75"/>
    <use xlink:href="#DejaVuSans-20" x="345.849609"/>
    <use xlink:href="#DejaVuSans-4f" x="377.636719"/>
    <use xlink:href="#DejaVuSans-77" x="456.347656"/>
    <use xlink:href="#DejaVuSans-6e" x="538.134766"/>
    <use xlink:href="#DejaVuSans-65" x="601.513672"/>
    <use xlink:href="#DejaVuSans-72" x="663.037109"/>
    <use xlink:href="#DejaVuSans-20" x="704.150391"/>
    <use xlink:href="#DejaVuSans-53" x="735.9375"/>
    <use xlink:href="#DejaVuSans-61" x="799.414062"/>
    <use xlink:href="#DejaVuSans-79" x="860.693359"/>
    <use xlink:href="#DejaVuSans-73" x="919.873047"/>
    <use xlink:href="#DejaVuSans-3a" x="971.972656"/>
    <use xlink:href="#DejaVuSans-20" x="1005.664062"/>
    <use xlink:href="#DejaVuSans-54" x="1037.451172"/>
    <use xlink:href="#DejaVuSans-68" x="1098.535156"/>
    <use xlink:href="#DejaVuSans-69" x="1161.914062"/>
    <use xlink:href="#DejaVuSans-73" x="1189.697266"/>
    <use xlink:href="#DejaVuSans-20" x="1241.796875"/>
    <use xlink:href="#DejaVuSans-69" x="1273.583984"/>
    <use xlink:href="#DejaVuSans-73" x="1301.367188"/>
    <use xlink:href="#DejaVuSans-20" x="1353.466797"/>
    <use xlink:href="#DejaVuSans-74" x="1385.253906"/>
    <use xlink:href="#DejaVuSans-68" x="1424.462891"/>
    <use xlink:href="#DejaVuSans-65" x="1487.841797"/>
    <use xlink:href="#DejaVuSans-20" x="1549.365234"/>
    <use xlink:href="#DejaVuSans-22" x="1581.152344"/>
    <use xlink:href="#DejaVuSans-73" x="1627.148438"/>
    <use xlink:href="#DejaVuSans-75" x="1679.248047"/>
    <use xlink:href="#DejaVuSans-70" x="1742.626953"/>
    <use xlink:href="#DejaVuSans-65" x="1806.103516"/>
    <use xlink:href="#DejaVuSans-72" x="1867.626953"/>
    <use xlink:href="#DejaVuSans-20" x="1908.740234"/>
    <use xlink:href="#DejaVuSans-74" x="1940.527344"/>
    <use xlink:href="#DejaVuSans-69" x="1979.736328"/>
    <use xlink:href="#DejaVuSans-74" x="2007.519531"/>
    <use xlink:href="#DejaVuSans-6c" x="2046.728516"/>
    <use xlink:href="#DejaVuSans-65" x="2074.511719"/>
    <use xlink:href="#DejaVuSans-22" x="2136.035156"/>
    <use xlink:href="#DejaVuSans-2c" x="2182.03125"/>
    <use xlink:href="#DejaVuSans-20" x="2213.818359"/>
   </g>
   <!--  followed by a very long text to see  -->
   <g transform="translate(91.74375 29.7555) scale(0.12 -0.12)">
    <defs>
     <path id="DejaVuSans-66" d="M 2375 4863 
L 2375 4384 
L 1825 4384 
Q 1516 4384 1395 4259 
Q 1275 4134 1275 3809 
L 1275 3500 
L 2222 3500 
L 2222 3053 
L 1275 3053 
L 1275 0 
L 697 0 
L 697 3053 
L 147 3053 
L 147 3500 
L 697 3500 
L 697 3744 
Q 697 4328 969 4595 
Q 1241 4863 1831 4863 
L 2375 4863 
z
" transform="scale(0.015625)"/>
     <path id="DejaVuSans-62" d="M 3116 1747 
Q 3116 2381 2855 2742 
Q 2594 3103 2138 3103 
Q 1681 3103 1420 2742 
Q 1159 2381 1159 1747 
Q 1159 1113 1420 752 
Q 1681 391 2138 391 
Q 2594 391 2855 752 
Q 3116 1113 3116 1747 
z
M 1159 2969 
Q 1341 3281 1617 3432 
Q 1894 3584 2278 3584 
Q 2916 3584 3314 3078 
Q 3713 2572 3713 1747 
Q 3713 922 3314 415 
Q 2916 -91 2278 -91 
Q 1894 -91 1617 61 
Q 1341 213 1159 525 
L 1159 0 
L 581 0 
L 581 4863 
L 1159 4863 
L 1159 2969 
z
" transform="scale(0.015625)"/>
     <path id="DejaVuSans-76" d="M 191 3500 
L 800 3500 
L 1894 563 
L 2988 3500 
L 3597 3500 
L 2284 0 
L 1503 0 
L 191 3500 
z
" transform="scale(0.015625)"/>
     <path id="DejaVuSans-67" d="M 2906 1791 
Q 2906 2416 2648 2759 
Q 2391 3103 1925 3103 
Q 1463 3103 1205 2759 
Q 947 2416 947 1791 
Q 947 1169 1205 825 
Q 1463 481 1925 481 
Q 2391 481 2648 825 
Q 2906 1169 2906 1791 
z
M 3481 434 
Q 3481 -459 3084 -895 
Q 2688 -1331 1869 -1331 
Q 1566 -1331 1297 -1286 
Q 1028 -1241 775 -1147 
L 775 -588 
Q 1028 -725 1275 -790 
Q 1522 -856 1778 -856 
Q 2344 -856 2625 -561 
Q 2906 -266 2906 331 
L 2906 616 
Q 2728 306 2450 153 
Q 2172 0 1784 0 
Q 1141 0 747 490 
Q 353 981 353 1791 
Q 353 2603 747 3093 
Q 1141 3584 1784 3584 
Q 2172 3584 2450 3431 
Q 2728 3278 2906 2969 
L 2906 3500 
L 3481 3500 
L 3481 434 
z
" transform="scale(0.015625)"/>
     <path id="DejaVuSans-78" d="M 3513 3500 
L 2247 1797 
L 3578 0 
L 2900 0 
L 1881 1375 
L 863 0 
L 184 0 
L 1544 1831 
L 300 3500 
L 978 3500 
L 1906 2253 
L 2834 3500 
L 3513 3500 
z
" transform="scale(0.015625)"/>
    </defs>
    <use xlink:href="#DejaVuSans-20"/>
    <use xlink:href="#DejaVuSans-66" x="31.787109"/>
    <use xlink:href="#DejaVuSans-6f" x="66.992188"/>
    <use xlink:href="#DejaVuSans-6c" x="128.173828"/>
    <use xlink:href="#DejaVuSans-6c" x="155.957031"/>
    <use xlink:href="#DejaVuSans-6f" x="183.740234"/>
    <use xlink:href="#DejaVuSans-77" x="244.921875"/>
    <use xlink:href="#DejaVuSans-65" x="326.708984"/>
    <use xlink:href="#DejaVuSans-64" x="388.232422"/>
    <use xlink:href="#DejaVuSans-20" x="451.708984"/>
    <use xlink:href="#DejaVuSans-62" x="483.496094"/>
    <use xlink:href="#DejaVuSans-79" x="546.972656"/>
    <use xlink:href="#DejaVuSans-20" x="606.152344"/>
    <use xlink:href="#DejaVuSans-61" x="637.939453"/>
    <use xlink:href="#DejaVuSans-20" x="699.21875"/>
    <use xlink:href="#DejaVuSans-76" x="731.005859"/>
    <use xlink:href="#DejaVuSans-65" x="790.185547"/>
    <use xlink:href="#DejaVuSans-72" x="851.708984"/>
    <use xlink:href="#DejaVuSans-79" x="892.822266"/>
    <use xlink:href="#DejaVuSans-20" x="952.001953"/>
    <use xlink:href="#DejaVuSans-6c" x="983.789062"/>
    <use xlink:href="#DejaVuSans-6f" x="1011.572266"/>
    <use xlink:href="#DejaVuSans-6e" x="1072.753906"/>
    <use xlink:href="#DejaVuSans-67" x="1136.132812"/>
    <use xlink:href="#DejaVuSans-20" x="1199.609375"/>
    <use xlink:href="#DejaVuSans-74" x="1231.396484"/>
    <use xlink:href="#DejaVuSans-65" x="1270.605469"/>
    <use xlink:href="#DejaVuSans-78" x="1330.378906"/>
    <use xlink:href="#DejaVuSans-74" x="1389.558594"/>
    <use xlink:href="#DejaVuSans-20" x="1428.767578"/>
    <use xlink:href="#DejaVuSans-74" x="1460.554688"/>
    <use xlink:href="#DejaVuSans-6f" x="1499.763672"/>
    <use xlink:href="#DejaVuSans-20" x="1560.945312"/>
    <use xlink:href="#DejaVuSans-73" x="1592.732422"/>
    <use xlink:href="#DejaVuSans-65" x="1644.832031"/>
    <use xlink:href="#DejaVuSans-65" x="1706.355469"/>
    <use xlink:href="#DejaVuSans-20" x="1767.878906"/>
   </g>
   <!--  if this whole thing will be wrapped or not  -->
   <g transform="translate(73.215938 43.192875) scale(0.12 -0.12)">
    <use xlink:href="#DejaVuSans-20"/>
    <use xlink:href="#DejaVuSans-69" x="31.787109"/>
    <use xlink:href="#DejaVuSans-66" x="59.570312"/>
    <use xlink:href="#DejaVuSans-20" x="94.775391"/>
    <use xlink:href="#DejaVuSans-74" x="126.5625"/>
    <use xlink:href="#DejaVuSans-68" x="165.771484"/>
    <use xlink:href="#DejaVuSans-69" x="229.150391"/>
    <use xlink:href="#DejaVuSans-73" x="256.933594"/>
    <use xlink:href="#DejaVuSans-20" x="309.033203"/>
    <use xlink:href="#DejaVuSans-77" x="340.820312"/>
    <use xlink:href="#DejaVuSans-68" x="422.607422"/>
    <use xlink:href="#DejaVuSans-6f" x="485.986328"/>
    <use xlink:href="#DejaVuSans-6c" x="547.167969"/>
    <use xlink:href="#DejaVuSans-65" x="574.951172"/>
    <use xlink:href="#DejaVuSans-20" x="636.474609"/>
    <use xlink:href="#DejaVuSans-74" x="668.261719"/>
    <use xlink:href="#DejaVuSans-68" x="707.470703"/>
    <use xlink:href="#DejaVuSans-69" x="770.849609"/>
    <use xlink:href="#DejaVuSans-6e" x="798.632812"/>
    <use xlink:href="#DejaVuSans-67" x="862.011719"/>
    <use xlink:href="#DejaVuSans-20" x="925.488281"/>
    <use xlink:href="#DejaVuSans-77" x="957.275391"/>
    <use xlink:href="#DejaVuSans-69" x="1039.0625"/>
    <use xlink:href="#DejaVuSans-6c" x="1066.845703"/>
    <use xlink:href="#DejaVuSans-6c" x="1094.628906"/>
    <use xlink:href="#DejaVuSans-20" x="1122.412109"/>
    <use xlink:href="#DejaVuSans-62" x="1154.199219"/>
    <use xlink:href="#DejaVuSans-65" x="1217.675781"/>
    <use xlink:href="#DejaVuSans-20" x="1279.199219"/>
    <use xlink:href="#DejaVuSans-77" x="1310.986328"/>
    <use xlink:href="#DejaVuSans-72" x="1392.773438"/>
    <use xlink:href="#DejaVuSans-61" x="1433.886719"/>
    <use xlink:href="#DejaVuSans-70" x="1495.166016"/>
    <use xlink:href="#DejaVuSans-70" x="1558.642578"/>
    <use xlink:href="#DejaVuSans-65" x="1622.119141"/>
    <use xlink:href="#DejaVuSans-64" x="1683.642578"/>
    <use xlink:href="#DejaVuSans-20" x="1747.119141"/>
    <use xlink:href="#DejaVuSans-6f" x="1778.90625"/>
    <use xlink:href="#DejaVuSans-72" x="1840.087891"/>
    <use xlink:href="#DejaVuSans-20" x="1881.201172"/>
    <use xlink:href="#DejaVuSans-6e" x="1912.988281"/>
    <use xlink:href="#DejaVuSans-6f" x="1976.367188"/>
    <use xlink:href="#DejaVuSans-74" x="2037.548828"/>
    <use xlink:href="#DejaVuSans-20" x="2076.757812"/>
   </g>
   <!--  we hope that it gets wrapped and beautifully formatted."  -->
   <g transform="translate(24.105938 56.63025) scale(0.12 -0.12)">
    <defs>
     <path id="DejaVuSans-6d" d="M 3328 2828 
Q 3544 3216 3844 3400 
Q 4144 3584 4550 3584 
Q 5097 3584 5394 3201 
Q 5691 2819 5691 2113 
L 5691 0 
L 5113 0 
L 5113 2094 
Q 5113 2597 4934 2840 
Q 4756 3084 4391 3084 
Q 3944 3084 3684 2787 
Q 3425 2491 3425 1978 
L 3425 0 
L 2847 0 
L 2847 2094 
Q 2847 2600 2669 2842 
Q 2491 3084 2119 3084 
Q 1678 3084 1418 2786 
Q 1159 2488 1159 1978 
L 1159 0 
L 581 0 
L 581 3500 
L 1159 3500 
L 1159 2956 
Q 1356 3278 1631 3431 
Q 1906 3584 2284 3584 
Q 2666 3584 2933 3390 
Q 3200 3197 3328 2828 
z
" transform="scale(0.015625)"/>
     <path id="DejaVuSans-2e" d="M 684 794 
L 1344 794 
L 1344 0 
L 684 0 
L 684 794 
z
" transform="scale(0.015625)"/>
    </defs>
    <use xlink:href="#DejaVuSans-20"/>
    <use xlink:href="#DejaVuSans-77" x="31.787109"/>
    <use xlink:href="#DejaVuSans-65" x="113.574219"/>
    <use xlink:href="#DejaVuSans-20" x="175.097656"/>
    <use xlink:href="#DejaVuSans-68" x="206.884766"/>
    <use xlink:href="#DejaVuSans-6f" x="270.263672"/>
    <use xlink:href="#DejaVuSans-70" x="331.445312"/>
    <use xlink:href="#DejaVuSans-65" x="394.921875"/>
    <use xlink:href="#DejaVuSans-20" x="456.445312"/>
    <use xlink:href="#DejaVuSans-74" x="488.232422"/>
    <use xlink:href="#DejaVuSans-68" x="527.441406"/>
    <use xlink:href="#DejaVuSans-61" x="590.820312"/>
    <use xlink:href="#DejaVuSans-74" x="652.099609"/>
    <use xlink:href="#DejaVuSans-20" x="691.308594"/>
    <use xlink:href="#DejaVuSans-69" x="723.095703"/>
    <use xlink:href="#DejaVuSans-74" x="750.878906"/>
    <use xlink:href="#DejaVuSans-20" x="790.087891"/>
    <use xlink:href="#DejaVuSans-67" x="821.875"/>
    <use xlink:href="#DejaVuSans-65" x="885.351562"/>
    <use xlink:href="#DejaVuSans-74" x="946.875"/>
    <use xlink:href="#DejaVuSans-73" x="986.083984"/>
    <use xlink:href="#DejaVuSans-20" x="1038.183594"/>
    <use xlink:href="#DejaVuSans-77" x="1069.970703"/>
    <use xlink:href="#DejaVuSans-72" x="1151.757812"/>
    <use xlink:href="#DejaVuSans-61" x="1192.871094"/>
    <use xlink:href="#DejaVuSans-70" x="1254.150391"/>
    <use xlink:href="#DejaVuSans-70" x="1317.626953"/>
    <use xlink:href="#DejaVuSans-65" x="1381.103516"/>
    <use xlink:href="#DejaVuSans-64" x="1442.626953"/>
    <use xlink:href="#DejaVuSans-20" x="1506.103516"/>
    <use xlink:href="#DejaVuSans-61" x="1537.890625"/>
    <use xlink:href="#DejaVuSans-6e" x="1599.169922"/>
    <use xlink:href="#DejaVuSans-64" x="1662.548828"/>
    <use xlink:href="#DejaVuSans-20" x="1726.025391"/>
    <use xlink:href="#DejaVuSans-62" x="1757.8125"/>
    <use xlink:href="#DejaVuSans-65" x="1821.289062"/>
    <use xlink:href="#DejaVuSans-61" x="1882.8125"/>
    <use xlink:href="#DejaVuSans-75" x="1944.091797"/>
    <use xlink:href="#DejaVuSans-74" x="2007.470703"/>
    <use xlink:href="#DejaVuSans-69" x="2046.679688"/>
    <use xlink:href="#DejaVuSans-66" x="2074.462891"/>
    <use xlink:href="#DejaVuSans-75" x="2109.667969"/>
    <use xlink:href="#DejaVuSans-6c" x="2173.046875"/>
    <use xlink:href="#DejaVuSans-6c" x="2200.830078"/>
    <use xlink:href="#DejaVuSans-79" x="2228.613281"/>
    <use xlink:href="#DejaVuSans-20" x="2287.792969"/>
    <use xlink:href="#DejaVuSans-66" x="2319.580078"/>
    <use xlink:href="#DejaVuSans-6f" x="2354.785156"/>
    <use xlink:href="#DejaVuSans-72" x="2415.966797"/>
    <use xlink:href="#DejaVuSans-6d" x="2455.330078"/>
    <use xlink:href="#DejaVuSans-61" x="2552.742188"/>
    <use xlink:href="#DejaVuSans-74" x="2614.021484"/>
    <use xlink:href="#DejaVuSans-74" x="2653.230469"/>
    <use xlink:href="#DejaVuSans-65" x="2692.439453"/>
    <use xlink:href="#DejaVuSans-64" x="2753.962891"/>
    <use xlink:href="#DejaVuSans-2e" x="2817.439453"/>
    <use xlink:href="#DejaVuSans-22" x="2849.226562"/>
    <use xlink:href="#DejaVuSans-20" x="2895.222656"/>
   </g>
  </g>
 </g>
 <defs>
  <clipPath id="p0382a17cac">
   <rect x="26.925" y="93.685875" width="155.269565" height="115.70087"/>
  </clipPath>
  <clipPath id="p4321b6dc90">
   <rect x="228.775435" y="93.685875" width="155.269565" height="115.70087"/>
  </clipPath>
  <clipPath id="pa5319b0471">
   <rect x="26.925" y="244.097005" width="155.269565" height="115.70087"/>
  </clipPath>
  <clipPath id="pf5c0527f41">
   <rect x="228.775435" y="244.097005" width="155.269565" height="115.70087"/>
  </clipPath>
 </defs>
</svg>
