<?xml version="1.0" encoding="utf-8" standalone="no"?>
<!DOCTYPE svg PUBLIC "-//W3C//DTD SVG 1.1//EN"
  "http://www.w3.org/Graphics/SVG/1.1/DTD/svg11.dtd">
<svg xmlns:xlink="http://www.w3.org/1999/xlink" width="399.121663pt" height="300.989344pt" viewBox="0 0 399.121663 300.989344" xmlns="http://www.w3.org/2000/svg" version="1.1">
 <metadata>
  <rdf:RDF xmlns:dc="http://purl.org/dc/elements/1.1/" xmlns:cc="http://creativecommons.org/ns#" xmlns:rdf="http://www.w3.org/1999/02/22-rdf-syntax-ns#">
   <cc:Work>
    <dc:type rdf:resource="http://purl.org/dc/dcmitype/StillImage"/>
    <dc:date>2025-02-09T16:58:04.371011</dc:date>
    <dc:format>image/svg+xml</dc:format>
    <dc:creator>
     <cc:Agent>
      <dc:title>Matplotlib v3.6.3, https://matplotlib.org/</dc:title>
     </cc:Agent>
    </dc:creator>
   </cc:Work>
  </rdf:RDF>
 </metadata>
 <defs>
  <style type="text/css">*{stroke-linejoin: round; stroke-linecap: butt}</style>
 </defs>
 <g id="figure_1">
  <g id="patch_1">
   <path d="M 0 300.989344 
L 399.121663 300.989344 
L 399.121663 0 
L 0 0 
z
" style="fill: #ffffff"/>
  </g>
  <g id="axes_1">
   <g id="patch_2">
    <path d="M 38.482813 277.111219 
L 324.178813 277.111219 
L 324.178813 10.999219 
L 38.482813 10.999219 
z
" style="fill: #ffffff"/>
   </g>
   <g id="PathCollection_1">
    <path d="M 181.330813 210.583219 
L 181.330813 210.583219 
L 217.042813 199.495219 
L 240.850813 177.319219 
L 252.754813 144.055219 
L 252.754813 144.055219 
L 252.754813 144.055219 
L 240.850813 110.791219 
L 217.042813 88.615219 
L 181.330813 77.527219 
L 181.330813 77.527219 
L 181.330813 77.527219 
L 145.618813 88.615219 
L 121.810813 110.791219 
L 109.906813 144.055219 
L 109.906813 144.055219 
L 109.906813 144.055219 
L 121.810813 177.319219 
L 145.618813 199.495219 
L 181.330813 210.583219 
z
" clip-path="url(#pc83b3d5749)" style="fill: #2020ff"/>
   </g>
   <g id="PathCollection_2">
    <path d="M 109.906813 210.583219 
L 145.618813 230.541619 
L 181.330813 237.194419 
L 217.042813 230.541619 
L 252.754813 210.583219 
L 252.754813 210.583219 
L 274.182013 177.319219 
L 281.324413 144.055219 
L 274.182013 110.791219 
L 252.754813 77.527219 
L 252.754813 77.527219 
L 217.042813 57.568819 
L 181.330813 50.916019 
L 145.618813 57.568819 
L 109.906813 77.527219 
L 109.906813 77.527219 
L 88.479613 110.791219 
L 81.337213 144.055219 
L 88.479613 177.319219 
L 109.906813 210.583219 
z
M 181.330813 210.583219 
L 145.618813 199.495219 
L 121.810813 177.319219 
L 109.906813 144.055219 
L 109.906813 144.055219 
L 109.906813 144.055219 
L 121.810813 110.791219 
L 145.618813 88.615219 
L 181.330813 77.527219 
L 181.330813 77.527219 
L 181.330813 77.527219 
L 217.042813 88.615219 
L 240.850813 110.791219 
L 252.754813 144.055219 
L 252.754813 144.055219 
L 252.754813 144.055219 
L 240.850813 177.319219 
L 217.042813 199.495219 
L 181.330813 210.583219 
L 181.330813 210.583219 
z
" clip-path="url(#pc83b3d5749)" style="fill: #6060ff"/>
   </g>
   <g id="PathCollection_3">
    <path d="M 145.618813 253.351219 
L 181.330813 258.103219 
L 217.042813 253.351219 
L 240.850813 243.847219 
L 252.754813 237.194419 
L 281.324413 210.583219 
L 288.466813 199.495219 
L 298.670241 177.319219 
L 303.771955 144.055219 
L 298.670241 110.791219 
L 288.466813 88.615219 
L 281.324413 77.527219 
L 252.754813 50.916019 
L 240.850813 44.263219 
L 217.042813 34.759219 
L 181.330813 30.007219 
L 145.618813 34.759219 
L 121.810813 44.263219 
L 109.906813 50.916019 
L 81.337213 77.527219 
L 74.194813 88.615219 
L 63.991384 110.791219 
L 58.88967 144.055219 
L 63.991384 177.319219 
L 74.194813 199.495219 
L 81.337213 210.583219 
L 109.906813 237.194419 
L 121.810813 243.847219 
z
M 109.906813 210.583219 
L 88.479613 177.319219 
L 81.337213 144.055219 
L 88.479613 110.791219 
L 109.906813 77.527219 
L 109.906813 77.527219 
L 145.618813 57.568819 
L 181.330813 50.916019 
L 217.042813 57.568819 
L 252.754813 77.527219 
L 252.754813 77.527219 
L 274.182013 110.791219 
L 281.324413 144.055219 
L 274.182013 177.319219 
L 252.754813 210.583219 
L 252.754813 210.583219 
L 217.042813 230.541619 
L 181.330813 237.194419 
L 145.618813 230.541619 
L 109.906813 210.583219 
z
" clip-path="url(#pc83b3d5749)" style="fill: #a0a0ff"/>
   </g>
   <g id="PathCollection_4">
    <path d="M 109.906813 258.103219 
L 145.618813 272.359219 
L 181.330813 277.111219 
L 181.330813 277.111219 
L 181.330813 277.111219 
L 217.042813 272.359219 
L 252.754813 258.103219 
L 274.182013 243.847219 
L 288.466813 230.541619 
L 303.771955 210.583219 
L 319.077098 177.319219 
L 324.178813 144.055219 
L 324.178813 144.055219 
L 324.178813 144.055219 
L 319.077098 110.791219 
L 303.771955 77.527219 
L 288.466813 57.568819 
L 274.182013 44.263219 
L 252.754813 30.007219 
L 217.042813 15.751219 
L 181.330813 10.999219 
L 181.330813 10.999219 
L 181.330813 10.999219 
L 145.618813 15.751219 
L 109.906813 30.007219 
L 88.479613 44.263219 
L 74.194813 57.568819 
L 58.88967 77.527219 
L 43.584527 110.791219 
L 38.482813 144.055219 
L 38.482813 144.055219 
L 38.482813 144.055219 
L 43.584527 177.319219 
L 58.88967 210.583219 
L 74.194813 230.541619 
L 88.479613 243.847219 
z
M 121.810813 243.847219 
L 109.906813 237.194419 
L 81.337213 210.583219 
L 74.194813 199.495219 
L 63.991384 177.319219 
L 58.88967 144.055219 
L 63.991384 110.791219 
L 74.194813 88.615219 
L 81.337213 77.527219 
L 109.906813 50.916019 
L 121.810813 44.263219 
L 145.618813 34.759219 
L 181.330813 30.007219 
L 217.042813 34.759219 
L 240.850813 44.263219 
L 252.754813 50.916019 
L 281.324413 77.527219 
L 288.466813 88.615219 
L 298.670241 110.791219 
L 303.771955 144.055219 
L 298.670241 177.319219 
L 288.466813 199.495219 
L 281.324413 210.583219 
L 252.754813 237.194419 
L 240.850813 243.847219 
L 217.042813 253.351219 
L 181.330813 258.103219 
L 145.618813 253.351219 
z
" clip-path="url(#pc83b3d5749)" style="fill: #e0e0ff"/>
   </g>
   <g id="PathCollection_5">
    <path d="M 74.194813 253.351219 
L 109.906813 277.111219 
L 109.906813 277.111219 
L 145.618813 277.111219 
L 181.330813 277.111219 
L 145.618813 272.359219 
L 109.906813 258.103219 
L 88.479613 243.847219 
L 74.194813 230.541619 
L 58.88967 210.583219 
L 43.584527 177.319219 
L 38.482813 144.055219 
L 38.482813 177.319219 
L 38.482813 210.583219 
L 38.482813 210.583219 
L 63.991384 243.847219 
z
" clip-path="url(#pc83b3d5749)" style="fill: #ffdede"/>
    <path d="M 217.042813 277.111219 
L 252.754813 277.111219 
L 252.754813 277.111219 
L 288.466813 253.351219 
L 298.670241 243.847219 
L 324.178813 210.583219 
L 324.178813 210.583219 
L 324.178813 177.319219 
L 324.178813 144.055219 
L 319.077098 177.319219 
L 303.771955 210.583219 
L 288.466813 230.541619 
L 274.182013 243.847219 
L 252.754813 258.103219 
L 217.042813 272.359219 
L 181.330813 277.111219 
z
" clip-path="url(#pc83b3d5749)" style="fill: #ffdede"/>
    <path d="M 43.584527 110.791219 
L 58.88967 77.527219 
L 74.194813 57.568819 
L 88.479613 44.263219 
L 109.906813 30.007219 
L 145.618813 15.751219 
L 181.330813 10.999219 
L 145.618813 10.999219 
L 109.906813 10.999219 
L 109.906813 10.999219 
L 74.194813 34.759219 
L 63.991384 44.263219 
L 38.482813 77.527219 
L 38.482813 77.527219 
L 38.482813 110.791219 
L 38.482813 144.055219 
z
" clip-path="url(#pc83b3d5749)" style="fill: #ffdede"/>
    <path d="M 324.178813 144.055219 
L 324.178813 110.791219 
L 324.178813 77.527219 
L 324.178813 77.527219 
L 298.670241 44.263219 
L 288.466813 34.759219 
L 252.754813 10.999219 
L 252.754813 10.999219 
L 217.042813 10.999219 
L 181.330813 10.999219 
L 217.042813 15.751219 
L 252.754813 30.007219 
L 274.182013 44.263219 
L 288.466813 57.568819 
L 303.771955 77.527219 
L 319.077098 110.791219 
z
" clip-path="url(#pc83b3d5749)" style="fill: #ffdede"/>
   </g>
   <g id="PathCollection_6">
    <path d="M 74.194813 272.359219 
L 81.337213 277.111219 
L 109.906813 277.111219 
L 74.194813 253.351219 
L 63.991384 243.847219 
L 38.482813 210.583219 
L 38.482813 237.194419 
L 43.584527 243.847219 
z
" clip-path="url(#pc83b3d5749)" style="fill: #ff9e9e"/>
    <path d="M 288.466813 272.359219 
L 319.077098 243.847219 
L 324.178813 237.194419 
L 324.178813 210.583219 
L 298.670241 243.847219 
L 288.466813 253.351219 
L 252.754813 277.111219 
L 281.324413 277.111219 
z
" clip-path="url(#pc83b3d5749)" style="fill: #ff9e9e"/>
    <path d="M 63.991384 44.263219 
L 74.194813 34.759219 
L 109.906813 10.999219 
L 81.337213 10.999219 
L 74.194813 15.751219 
L 43.584527 44.263219 
L 38.482813 50.916019 
L 38.482813 77.527219 
z
" clip-path="url(#pc83b3d5749)" style="fill: #ff9e9e"/>
    <path d="M 324.178813 77.527219 
L 324.178813 50.916019 
L 319.077098 44.263219 
L 288.466813 15.751219 
L 281.324413 10.999219 
L 252.754813 10.999219 
L 288.466813 34.759219 
L 298.670241 44.263219 
z
" clip-path="url(#pc83b3d5749)" style="fill: #ff9e9e"/>
   </g>
   <g id="PathCollection_7">
    <path d="M 74.194813 277.111219 
L 81.337213 277.111219 
L 74.194813 272.359219 
L 43.584527 243.847219 
L 38.482813 237.194419 
L 38.482813 243.847219 
L 38.482813 258.103219 
L 58.88967 277.111219 
z
" clip-path="url(#pc83b3d5749)" style="fill: #ff5e5e"/>
    <path d="M 288.466813 277.111219 
L 303.771955 277.111219 
L 324.178813 258.103219 
L 324.178813 243.847219 
L 324.178813 237.194419 
L 319.077098 243.847219 
L 288.466813 272.359219 
L 281.324413 277.111219 
z
" clip-path="url(#pc83b3d5749)" style="fill: #ff5e5e"/>
    <path d="M 43.584527 44.263219 
L 74.194813 15.751219 
L 81.337213 10.999219 
L 74.194813 10.999219 
L 58.88967 10.999219 
L 38.482813 30.007219 
L 38.482813 44.263219 
L 38.482813 50.916019 
z
" clip-path="url(#pc83b3d5749)" style="fill: #ff5e5e"/>
    <path d="M 324.178813 50.916019 
L 324.178813 44.263219 
L 324.178813 30.007219 
L 303.771955 10.999219 
L 288.466813 10.999219 
L 281.324413 10.999219 
L 288.466813 15.751219 
L 319.077098 44.263219 
z
" clip-path="url(#pc83b3d5749)" style="fill: #ff5e5e"/>
   </g>
   <g id="PathCollection_8">
    <path d="M 38.482813 258.103219 
L 38.482813 277.111219 
L 58.88967 277.111219 
z
" clip-path="url(#pc83b3d5749)" style="fill: #ff1e1e"/>
    <path d="M 324.178813 277.111219 
L 324.178813 258.103219 
L 303.771955 277.111219 
z
" clip-path="url(#pc83b3d5749)" style="fill: #ff1e1e"/>
    <path d="M 58.88967 10.999219 
L 38.482813 10.999219 
L 38.482813 30.007219 
z
" clip-path="url(#pc83b3d5749)" style="fill: #ff1e1e"/>
    <path d="M 324.178813 30.007219 
L 324.178813 10.999219 
L 303.771955 10.999219 
z
" clip-path="url(#pc83b3d5749)" style="fill: #ff1e1e"/>
   </g>
   <g id="matplotlib.axis_1">
    <g id="xtick_1">
     <g id="line2d_1">
      <defs>
       <path id="ma9a97b3cfb" d="M 0 0 
L 0 3.5 
" style="stroke: #000000; stroke-width: 0.8"/>
      </defs>
      <g>
       <use xlink:href="#ma9a97b3cfb" x="38.482813" y="277.111219" style="stroke: #000000; stroke-width: 0.8"/>
      </g>
     </g>
     <g id="text_1">
      <!-- −2.0 -->
      <g transform="translate(26.341406 291.709656) scale(0.1 -0.1)">
       <defs>
        <path id="DejaVuSans-2212" d="M 678 2272 
L 4684 2272 
L 4684 1741 
L 678 1741 
L 678 2272 
z
" transform="scale(0.015625)"/>
        <path id="DejaVuSans-32" d="M 1228 531 
L 3431 531 
L 3431 0 
L 469 0 
L 469 531 
Q 828 903 1448 1529 
Q 2069 2156 2228 2338 
Q 2531 2678 2651 2914 
Q 2772 3150 2772 3378 
Q 2772 3750 2511 3984 
Q 2250 4219 1831 4219 
Q 1534 4219 1204 4116 
Q 875 4013 500 3803 
L 500 4441 
Q 881 4594 1212 4672 
Q 1544 4750 1819 4750 
Q 2544 4750 2975 4387 
Q 3406 4025 3406 3419 
Q 3406 3131 3298 2873 
Q 3191 2616 2906 2266 
Q 2828 2175 2409 1742 
Q 1991 1309 1228 531 
z
" transform="scale(0.015625)"/>
        <path id="DejaVuSans-2e" d="M 684 794 
L 1344 794 
L 1344 0 
L 684 0 
L 684 794 
z
" transform="scale(0.015625)"/>
        <path id="DejaVuSans-30" d="M 2034 4250 
Q 1547 4250 1301 3770 
Q 1056 3291 1056 2328 
Q 1056 1369 1301 889 
Q 1547 409 2034 409 
Q 2525 409 2770 889 
Q 3016 1369 3016 2328 
Q 3016 3291 2770 3770 
Q 2525 4250 2034 4250 
z
M 2034 4750 
Q 2819 4750 3233 4129 
Q 3647 3509 3647 2328 
Q 3647 1150 3233 529 
Q 2819 -91 2034 -91 
Q 1250 -91 836 529 
Q 422 1150 422 2328 
Q 422 3509 836 4129 
Q 1250 4750 2034 4750 
z
" transform="scale(0.015625)"/>
       </defs>
       <use xlink:href="#DejaVuSans-2212"/>
       <use xlink:href="#DejaVuSans-32" x="83.789062"/>
       <use xlink:href="#DejaVuSans-2e" x="147.412109"/>
       <use xlink:href="#DejaVuSans-30" x="179.199219"/>
      </g>
     </g>
    </g>
    <g id="xtick_2">
     <g id="line2d_2">
      <g>
       <use xlink:href="#ma9a97b3cfb" x="74.194813" y="277.111219" style="stroke: #000000; stroke-width: 0.8"/>
      </g>
     </g>
     <g id="text_2">
      <!-- −1.5 -->
      <g transform="translate(62.053406 291.709656) scale(0.1 -0.1)">
       <defs>
        <path id="DejaVuSans-31" d="M 794 531 
L 1825 531 
L 1825 4091 
L 703 3866 
L 703 4441 
L 1819 4666 
L 2450 4666 
L 2450 531 
L 3481 531 
L 3481 0 
L 794 0 
L 794 531 
z
" transform="scale(0.015625)"/>
        <path id="DejaVuSans-35" d="M 691 4666 
L 3169 4666 
L 3169 4134 
L 1269 4134 
L 1269 2991 
Q 1406 3038 1543 3061 
Q 1681 3084 1819 3084 
Q 2600 3084 3056 2656 
Q 3513 2228 3513 1497 
Q 3513 744 3044 326 
Q 2575 -91 1722 -91 
Q 1428 -91 1123 -41 
Q 819 9 494 109 
L 494 744 
Q 775 591 1075 516 
Q 1375 441 1709 441 
Q 2250 441 2565 725 
Q 2881 1009 2881 1497 
Q 2881 1984 2565 2268 
Q 2250 2553 1709 2553 
Q 1456 2553 1204 2497 
Q 953 2441 691 2322 
L 691 4666 
z
" transform="scale(0.015625)"/>
       </defs>
       <use xlink:href="#DejaVuSans-2212"/>
       <use xlink:href="#DejaVuSans-31" x="83.789062"/>
       <use xlink:href="#DejaVuSans-2e" x="147.412109"/>
       <use xlink:href="#DejaVuSans-35" x="179.199219"/>
      </g>
     </g>
    </g>
    <g id="xtick_3">
     <g id="line2d_3">
      <g>
       <use xlink:href="#ma9a97b3cfb" x="109.906813" y="277.111219" style="stroke: #000000; stroke-width: 0.8"/>
      </g>
     </g>
     <g id="text_3">
      <!-- −1.0 -->
      <g transform="translate(97.765406 291.709656) scale(0.1 -0.1)">
       <use xlink:href="#DejaVuSans-2212"/>
       <use xlink:href="#DejaVuSans-31" x="83.789062"/>
       <use xlink:href="#DejaVuSans-2e" x="147.412109"/>
       <use xlink:href="#DejaVuSans-30" x="179.199219"/>
      </g>
     </g>
    </g>
    <g id="xtick_4">
     <g id="line2d_4">
      <g>
       <use xlink:href="#ma9a97b3cfb" x="145.618813" y="277.111219" style="stroke: #000000; stroke-width: 0.8"/>
      </g>
     </g>
     <g id="text_4">
      <!-- −0.5 -->
      <g transform="translate(133.477406 291.709656) scale(0.1 -0.1)">
       <use xlink:href="#DejaVuSans-2212"/>
       <use xlink:href="#DejaVuSans-30" x="83.789062"/>
       <use xlink:href="#DejaVuSans-2e" x="147.412109"/>
       <use xlink:href="#DejaVuSans-35" x="179.199219"/>
      </g>
     </g>
    </g>
    <g id="xtick_5">
     <g id="line2d_5">
      <g>
       <use xlink:href="#ma9a97b3cfb" x="181.330813" y="277.111219" style="stroke: #000000; stroke-width: 0.8"/>
      </g>
     </g>
     <g id="text_5">
      <!-- 0.0 -->
      <g transform="translate(173.37925 291.709656) scale(0.1 -0.1)">
       <use xlink:href="#DejaVuSans-30"/>
       <use xlink:href="#DejaVuSans-2e" x="63.623047"/>
       <use xlink:href="#DejaVuSans-30" x="95.410156"/>
      </g>
     </g>
    </g>
    <g id="xtick_6">
     <g id="line2d_6">
      <g>
       <use xlink:href="#ma9a97b3cfb" x="217.042813" y="277.111219" style="stroke: #000000; stroke-width: 0.8"/>
      </g>
     </g>
     <g id="text_6">
      <!-- 0.5 -->
      <g transform="translate(209.09125 291.709656) scale(0.1 -0.1)">
       <use xlink:href="#DejaVuSans-30"/>
       <use xlink:href="#DejaVuSans-2e" x="63.623047"/>
       <use xlink:href="#DejaVuSans-35" x="95.410156"/>
      </g>
     </g>
    </g>
    <g id="xtick_7">
     <g id="line2d_7">
      <g>
       <use xlink:href="#ma9a97b3cfb" x="252.754813" y="277.111219" style="stroke: #000000; stroke-width: 0.8"/>
      </g>
     </g>
     <g id="text_7">
      <!-- 1.0 -->
      <g transform="translate(244.80325 291.709656) scale(0.1 -0.1)">
       <use xlink:href="#DejaVuSans-31"/>
       <use xlink:href="#DejaVuSans-2e" x="63.623047"/>
       <use xlink:href="#DejaVuSans-30" x="95.410156"/>
      </g>
     </g>
    </g>
    <g id="xtick_8">
     <g id="line2d_8">
      <g>
       <use xlink:href="#ma9a97b3cfb" x="288.466813" y="277.111219" style="stroke: #000000; stroke-width: 0.8"/>
      </g>
     </g>
     <g id="text_8">
      <!-- 1.5 -->
      <g transform="translate(280.51525 291.709656) scale(0.1 -0.1)">
       <use xlink:href="#DejaVuSans-31"/>
       <use xlink:href="#DejaVuSans-2e" x="63.623047"/>
       <use xlink:href="#DejaVuSans-35" x="95.410156"/>
      </g>
     </g>
    </g>
    <g id="xtick_9">
     <g id="line2d_9">
      <g>
       <use xlink:href="#ma9a97b3cfb" x="324.178813" y="277.111219" style="stroke: #000000; stroke-width: 0.8"/>
      </g>
     </g>
     <g id="text_9">
      <!-- 2.0 -->
      <g transform="translate(316.22725 291.709656) scale(0.1 -0.1)">
       <use xlink:href="#DejaVuSans-32"/>
       <use xlink:href="#DejaVuSans-2e" x="63.623047"/>
       <use xlink:href="#DejaVuSans-30" x="95.410156"/>
      </g>
     </g>
    </g>
   </g>
   <g id="matplotlib.axis_2">
    <g id="ytick_1">
     <g id="line2d_10">
      <defs>
       <path id="m0c83bf98c8" d="M 0 0 
L -3.5 0 
" style="stroke: #000000; stroke-width: 0.8"/>
      </defs>
      <g>
       <use xlink:href="#m0c83bf98c8" x="38.482813" y="277.111219" style="stroke: #000000; stroke-width: 0.8"/>
      </g>
     </g>
     <g id="text_10">
      <!-- −2.0 -->
      <g transform="translate(7.2 280.910437) scale(0.1 -0.1)">
       <use xlink:href="#DejaVuSans-2212"/>
       <use xlink:href="#DejaVuSans-32" x="83.789062"/>
       <use xlink:href="#DejaVuSans-2e" x="147.412109"/>
       <use xlink:href="#DejaVuSans-30" x="179.199219"/>
      </g>
     </g>
    </g>
    <g id="ytick_2">
     <g id="line2d_11">
      <g>
       <use xlink:href="#m0c83bf98c8" x="38.482813" y="243.847219" style="stroke: #000000; stroke-width: 0.8"/>
      </g>
     </g>
     <g id="text_11">
      <!-- −1.5 -->
      <g transform="translate(7.2 247.646437) scale(0.1 -0.1)">
       <use xlink:href="#DejaVuSans-2212"/>
       <use xlink:href="#DejaVuSans-31" x="83.789062"/>
       <use xlink:href="#DejaVuSans-2e" x="147.412109"/>
       <use xlink:href="#DejaVuSans-35" x="179.199219"/>
      </g>
     </g>
    </g>
    <g id="ytick_3">
     <g id="line2d_12">
      <g>
       <use xlink:href="#m0c83bf98c8" x="38.482813" y="210.583219" style="stroke: #000000; stroke-width: 0.8"/>
      </g>
     </g>
     <g id="text_12">
      <!-- −1.0 -->
      <g transform="translate(7.2 214.382437) scale(0.1 -0.1)">
       <use xlink:href="#DejaVuSans-2212"/>
       <use xlink:href="#DejaVuSans-31" x="83.789062"/>
       <use xlink:href="#DejaVuSans-2e" x="147.412109"/>
       <use xlink:href="#DejaVuSans-30" x="179.199219"/>
      </g>
     </g>
    </g>
    <g id="ytick_4">
     <g id="line2d_13">
      <g>
       <use xlink:href="#m0c83bf98c8" x="38.482813" y="177.319219" style="stroke: #000000; stroke-width: 0.8"/>
      </g>
     </g>
     <g id="text_13">
      <!-- −0.5 -->
      <g transform="translate(7.2 181.118437) scale(0.1 -0.1)">
       <use xlink:href="#DejaVuSans-2212"/>
       <use xlink:href="#DejaVuSans-30" x="83.789062"/>
       <use xlink:href="#DejaVuSans-2e" x="147.412109"/>
       <use xlink:href="#DejaVuSans-35" x="179.199219"/>
      </g>
     </g>
    </g>
    <g id="ytick_5">
     <g id="line2d_14">
      <g>
       <use xlink:href="#m0c83bf98c8" x="38.482813" y="144.055219" style="stroke: #000000; stroke-width: 0.8"/>
      </g>
     </g>
     <g id="text_14">
      <!-- 0.0 -->
      <g transform="translate(15.579688 147.854437) scale(0.1 -0.1)">
       <use xlink:href="#DejaVuSans-30"/>
       <use xlink:href="#DejaVuSans-2e" x="63.623047"/>
       <use xlink:href="#DejaVuSans-30" x="95.410156"/>
      </g>
     </g>
    </g>
    <g id="ytick_6">
     <g id="line2d_15">
      <g>
       <use xlink:href="#m0c83bf98c8" x="38.482813" y="110.791219" style="stroke: #000000; stroke-width: 0.8"/>
      </g>
     </g>
     <g id="text_15">
      <!-- 0.5 -->
      <g transform="translate(15.579688 114.590437) scale(0.1 -0.1)">
       <use xlink:href="#DejaVuSans-30"/>
       <use xlink:href="#DejaVuSans-2e" x="63.623047"/>
       <use xlink:href="#DejaVuSans-35" x="95.410156"/>
      </g>
     </g>
    </g>
    <g id="ytick_7">
     <g id="line2d_16">
      <g>
       <use xlink:href="#m0c83bf98c8" x="38.482813" y="77.527219" style="stroke: #000000; stroke-width: 0.8"/>
      </g>
     </g>
     <g id="text_16">
      <!-- 1.0 -->
      <g transform="translate(15.579688 81.326437) scale(0.1 -0.1)">
       <use xlink:href="#DejaVuSans-31"/>
       <use xlink:href="#DejaVuSans-2e" x="63.623047"/>
       <use xlink:href="#DejaVuSans-30" x="95.410156"/>
      </g>
     </g>
    </g>
    <g id="ytick_8">
     <g id="line2d_17">
      <g>
       <use xlink:href="#m0c83bf98c8" x="38.482813" y="44.263219" style="stroke: #000000; stroke-width: 0.8"/>
      </g>
     </g>
     <g id="text_17">
      <!-- 1.5 -->
      <g transform="translate(15.579688 48.062437) scale(0.1 -0.1)">
       <use xlink:href="#DejaVuSans-31"/>
       <use xlink:href="#DejaVuSans-2e" x="63.623047"/>
       <use xlink:href="#DejaVuSans-35" x="95.410156"/>
      </g>
     </g>
    </g>
    <g id="ytick_9">
     <g id="line2d_18">
      <g>
       <use xlink:href="#m0c83bf98c8" x="38.482813" y="10.999219" style="stroke: #000000; stroke-width: 0.8"/>
      </g>
     </g>
     <g id="text_18">
      <!-- 2.0 -->
      <g transform="translate(15.579688 14.798437) scale(0.1 -0.1)">
       <use xlink:href="#DejaVuSans-32"/>
       <use xlink:href="#DejaVuSans-2e" x="63.623047"/>
       <use xlink:href="#DejaVuSans-30" x="95.410156"/>
      </g>
     </g>
    </g>
   </g>
   <g id="PathCollection_9">
    <path d="M 181.330813 144.055219 
L 181.330813 144.055219 
L 181.330813 144.055219 
L 181.330813 144.055219 
L 181.330813 144.055219 
z
" clip-path="url(#pc83b3d5749)" style="fill: none; stroke: #000000; stroke-width: 1.5"/>
   </g>
   <g id="PathCollection_10">
    <path d="M 221.401715 92.675326 
L 240.850813 110.791219 
L 252.754813 144.055219 
L 252.754813 144.055219 
L 252.754813 144.055219 
L 240.850813 177.319219 
L 217.042813 199.495219 
L 181.330813 210.583219 
L 181.330813 210.583219 
L 181.330813 210.583219 
L 145.618813 199.495219 
L 121.810813 177.319219 
L 109.906813 144.055219 
L 109.906813 144.055219 
L 109.906813 144.055219 
L 121.810813 110.791219 
L 145.618813 88.615219 
L 181.330813 77.527219 
L 181.330813 77.527219 
L 181.330813 77.527219 
L 211.767122 86.977202 
" clip-path="url(#pc83b3d5749)" style="fill: none; stroke: #000000; stroke-width: 1.5"/>
   </g>
   <g id="PathCollection_11">
    <path d="M 106.497576 205.290653 
L 88.479613 177.319219 
L 81.337213 144.055219 
L 88.479613 110.791219 
L 109.906813 77.527219 
L 109.906813 77.527219 
L 145.618813 57.568819 
L 181.330813 50.916019 
L 217.042813 57.568819 
L 252.754813 77.527219 
L 252.754813 77.527219 
L 274.182013 110.791219 
L 281.324413 144.055219 
L 274.182013 177.319219 
L 252.754813 210.583219 
L 252.754813 210.583219 
L 217.042813 230.541619 
L 181.330813 237.194419 
L 145.618813 230.541619 
L 114.869395 213.356662 
" clip-path="url(#pc83b3d5749)" style="fill: none; stroke: #000000; stroke-width: 1.5"/>
   </g>
   <g id="PathCollection_12">
    <path d="M 140.440466 251.284056 
L 121.810813 243.847219 
L 109.906813 237.194419 
L 81.337213 210.583219 
L 74.194813 199.495219 
L 63.991384 177.319219 
L 58.88967 144.055219 
L 63.991384 110.791219 
L 74.194813 88.615219 
L 81.337213 77.527219 
L 109.906813 50.916019 
L 121.810813 44.263219 
L 145.618813 34.759219 
L 181.330813 30.007219 
L 217.042813 34.759219 
L 240.850813 44.263219 
L 252.754813 50.916019 
L 281.324413 77.527219 
L 288.466813 88.615219 
L 298.670241 110.791219 
L 303.771955 144.055219 
L 298.670241 177.319219 
L 288.466813 199.495219 
L 281.324413 210.583219 
L 252.754813 237.194419 
L 240.850813 243.847219 
L 217.042813 253.351219 
L 181.330813 258.103219 
L 151.024272 254.070494 
" clip-path="url(#pc83b3d5749)" style="fill: none; stroke: #000000; stroke-width: 1.5"/>
   </g>
   <g id="PathCollection_13">
    <path d="M 181.330813 277.111219 
L 145.618813 272.359219 
L 109.906813 258.103219 
L 88.479613 243.847219 
L 78.553715 234.601726 
" clip-path="url(#pc83b3d5749)" style="fill: none; stroke: #000000; stroke-width: 1.5"/>
    <path d="M 70.433141 225.636277 
L 58.88967 210.583219 
L 43.584527 177.319219 
L 38.482813 144.055219 
" clip-path="url(#pc83b3d5749)" style="fill: none; stroke: #000000; stroke-width: 1.5"/>
    <path d="M 324.178813 144.055219 
L 319.077098 177.319219 
L 303.771955 210.583219 
L 288.466813 230.541619 
L 278.540915 239.787112 
" clip-path="url(#pc83b3d5749)" style="fill: none; stroke: #000000; stroke-width: 1.5"/>
    <path d="M 269.383401 247.039843 
L 252.754813 258.103219 
L 217.042813 272.359219 
L 181.330813 277.111219 
" clip-path="url(#pc83b3d5749)" style="fill: none; stroke: #000000; stroke-width: 1.5"/>
    <path d="M 38.482813 144.055219 
L 43.584527 110.791219 
L 58.88967 77.527219 
L 74.194813 57.568819 
L 84.12071 48.323326 
" clip-path="url(#pc83b3d5749)" style="fill: none; stroke: #000000; stroke-width: 1.5"/>
    <path d="M 93.278224 41.070594 
L 109.906813 30.007219 
L 145.618813 15.751219 
L 181.330813 10.999219 
" clip-path="url(#pc83b3d5749)" style="fill: none; stroke: #000000; stroke-width: 1.5"/>
    <path d="M 181.330813 10.999219 
L 217.042813 15.751219 
L 252.754813 30.007219 
L 274.182013 44.263219 
L 284.10791 53.508712 
" clip-path="url(#pc83b3d5749)" style="fill: none; stroke: #000000; stroke-width: 1.5"/>
    <path d="M 292.228484 62.47416 
L 303.771955 77.527219 
L 319.077098 110.791219 
L 324.178813 144.055219 
" clip-path="url(#pc83b3d5749)" style="fill: none; stroke: #000000; stroke-width: 1.5"/>
   </g>
   <g id="PathCollection_14">
    <path d="M 109.906813 277.111219 
L 74.194813 253.351219 
L 68.350287 247.907326 
" clip-path="url(#pc83b3d5749)" style="fill: none; stroke: #000000; stroke-width: 1.5"/>
    <path d="M 60.229712 238.941877 
L 38.482813 210.583219 
" clip-path="url(#pc83b3d5749)" style="fill: none; stroke: #000000; stroke-width: 1.5"/>
    <path d="M 324.178813 210.583219 
L 298.670241 243.847219 
L 292.825715 249.291112 
" clip-path="url(#pc83b3d5749)" style="fill: none; stroke: #000000; stroke-width: 1.5"/>
    <path d="M 283.668201 256.543843 
L 252.754813 277.111219 
" clip-path="url(#pc83b3d5749)" style="fill: none; stroke: #000000; stroke-width: 1.5"/>
    <path d="M 38.482813 77.527219 
L 63.991384 44.263219 
L 69.83591 38.819326 
" clip-path="url(#pc83b3d5749)" style="fill: none; stroke: #000000; stroke-width: 1.5"/>
    <path d="M 78.993424 31.566594 
L 109.906813 10.999219 
" clip-path="url(#pc83b3d5749)" style="fill: none; stroke: #000000; stroke-width: 1.5"/>
    <path d="M 252.754813 10.999219 
L 288.466813 34.759219 
L 294.311338 40.203112 
" clip-path="url(#pc83b3d5749)" style="fill: none; stroke: #000000; stroke-width: 1.5"/>
    <path d="M 302.431913 49.16856 
L 324.178813 77.527219 
" clip-path="url(#pc83b3d5749)" style="fill: none; stroke: #000000; stroke-width: 1.5"/>
   </g>
   <g id="PathCollection_15">
    <path d="M 81.337213 277.111219 
L 74.194813 272.359219 
L 47.94343 247.907326 
" clip-path="url(#pc83b3d5749)" style="fill: none; stroke: #000000; stroke-width: 1.5"/>
    <path d="M 39.822855 238.941877 
L 38.482813 237.194419 
" clip-path="url(#pc83b3d5749)" style="fill: none; stroke: #000000; stroke-width: 1.5"/>
    <path d="M 324.178813 237.194419 
L 319.077098 243.847219 
L 292.825715 268.299112 
" clip-path="url(#pc83b3d5749)" style="fill: none; stroke: #000000; stroke-width: 1.5"/>
    <path d="M 283.668201 275.551843 
L 281.324413 277.111219 
" clip-path="url(#pc83b3d5749)" style="fill: none; stroke: #000000; stroke-width: 1.5"/>
    <path d="M 38.482813 50.916019 
L 43.584527 44.263219 
L 69.83591 19.811326 
" clip-path="url(#pc83b3d5749)" style="fill: none; stroke: #000000; stroke-width: 1.5"/>
    <path d="M 78.993424 12.558594 
L 81.337213 10.999219 
" clip-path="url(#pc83b3d5749)" style="fill: none; stroke: #000000; stroke-width: 1.5"/>
    <path d="M 281.324413 10.999219 
L 288.466813 15.751219 
L 314.718195 40.203112 
" clip-path="url(#pc83b3d5749)" style="fill: none; stroke: #000000; stroke-width: 1.5"/>
    <path d="M 322.83877 49.16856 
L 324.178813 50.916019 
" clip-path="url(#pc83b3d5749)" style="fill: none; stroke: #000000; stroke-width: 1.5"/>
   </g>
   <g id="PathCollection_16">
    <path d="M 58.88967 277.111219 
L 42.841715 262.163326 
" clip-path="url(#pc83b3d5749)" style="fill: none; stroke: #000000; stroke-width: 1.5"/>
    <path d="M 324.178813 258.103219 
L 308.130858 273.051112 
" clip-path="url(#pc83b3d5749)" style="fill: none; stroke: #000000; stroke-width: 1.5"/>
    <path d="M 38.482813 30.007219 
L 54.530767 15.059326 
" clip-path="url(#pc83b3d5749)" style="fill: none; stroke: #000000; stroke-width: 1.5"/>
    <path d="M 303.771955 10.999219 
L 319.81991 25.947112 
" clip-path="url(#pc83b3d5749)" style="fill: none; stroke: #000000; stroke-width: 1.5"/>
   </g>
   <g id="PathCollection_17"/>
   <g id="patch_3">
    <path d="M 38.482813 277.111219 
L 38.482813 10.999219 
" style="fill: none; stroke: #000000; stroke-width: 0.8; stroke-linejoin: miter; stroke-linecap: square"/>
   </g>
   <g id="patch_4">
    <path d="M 324.178813 277.111219 
L 324.178813 10.999219 
" style="fill: none; stroke: #000000; stroke-width: 0.8; stroke-linejoin: miter; stroke-linecap: square"/>
   </g>
   <g id="patch_5">
    <path d="M 38.482813 277.111219 
L 324.178813 277.111219 
" style="fill: none; stroke: #000000; stroke-width: 0.8; stroke-linejoin: miter; stroke-linecap: square"/>
   </g>
   <g id="patch_6">
    <path d="M 38.482813 10.999219 
L 324.178813 10.999219 
" style="fill: none; stroke: #000000; stroke-width: 0.8; stroke-linejoin: miter; stroke-linecap: square"/>
   </g>
   <g id="text_19">
    <g clip-path="url(#pc83b3d5749)">
     <!-- 1 -->
     <g transform="translate(212.987051 89.748928) rotate(-334.679356) scale(0.1 -0.1)">
      <use xlink:href="#DejaVuSans-31"/>
     </g>
    </g>
   </g>
   <g id="text_20">
    <g clip-path="url(#pc83b3d5749)">
     <!-- 2 -->
     <g transform="translate(105.702619 210.826642) rotate(-322.375786) scale(0.1 -0.1)">
      <use xlink:href="#DejaVuSans-32"/>
     </g>
    </g>
   </g>
   <g id="text_21">
    <g clip-path="url(#pc83b3d5749)">
     <!-- 3 -->
     <g transform="translate(141.937159 255.395707) rotate(-348.106261) scale(0.1 -0.1)">
      <defs>
       <path id="DejaVuSans-33" d="M 2597 2516 
Q 3050 2419 3304 2112 
Q 3559 1806 3559 1356 
Q 3559 666 3084 287 
Q 2609 -91 1734 -91 
Q 1441 -91 1130 -33 
Q 819 25 488 141 
L 488 750 
Q 750 597 1062 519 
Q 1375 441 1716 441 
Q 2309 441 2620 675 
Q 2931 909 2931 1356 
Q 2931 1769 2642 2001 
Q 2353 2234 1838 2234 
L 1294 2234 
L 1294 2753 
L 1863 2753 
Q 2328 2753 2575 2939 
Q 2822 3125 2822 3475 
Q 2822 3834 2567 4026 
Q 2313 4219 1838 4219 
Q 1578 4219 1281 4162 
Q 984 4106 628 3988 
L 628 4550 
Q 988 4650 1302 4700 
Q 1616 4750 1894 4750 
Q 2613 4750 3031 4423 
Q 3450 4097 3450 3541 
Q 3450 3153 3228 2886 
Q 3006 2619 2597 2516 
z
" transform="scale(0.015625)"/>
      </defs>
      <use xlink:href="#DejaVuSans-33"/>
     </g>
    </g>
   </g>
   <g id="text_22">
    <g clip-path="url(#pc83b3d5749)">
     <!-- 4 -->
     <g transform="translate(69.983747 230.503836) rotate(-318.547999) scale(0.1 -0.1)">
      <defs>
       <path id="DejaVuSans-34" d="M 2419 4116 
L 825 1625 
L 2419 1625 
L 2419 4116 
z
M 2253 4666 
L 3047 4666 
L 3047 1625 
L 3713 1625 
L 3713 1100 
L 3047 1100 
L 3047 0 
L 2419 0 
L 2419 1100 
L 313 1100 
L 313 1709 
L 2253 4666 
z
" transform="scale(0.015625)"/>
      </defs>
      <use xlink:href="#DejaVuSans-34"/>
     </g>
    </g>
   </g>
   <g id="text_23">
    <g clip-path="url(#pc83b3d5749)">
     <!-- 4 -->
     <g transform="translate(272.971604 247.880755) rotate(-32.358277) scale(0.1 -0.1)">
      <use xlink:href="#DejaVuSans-34"/>
     </g>
    </g>
   </g>
   <g id="text_24">
    <g clip-path="url(#pc83b3d5749)">
     <!-- 4 -->
     <g transform="translate(87.269204 48.296755) rotate(-32.358277) scale(0.1 -0.1)">
      <use xlink:href="#DejaVuSans-34"/>
     </g>
    </g>
   </g>
   <g id="text_25">
    <g clip-path="url(#pc83b3d5749)">
     <!-- 4 -->
     <g transform="translate(284.255747 57.531036) rotate(-318.547999) scale(0.1 -0.1)">
      <use xlink:href="#DejaVuSans-34"/>
     </g>
    </g>
   </g>
   <g id="text_26">
    <g clip-path="url(#pc83b3d5749)">
     <!-- 5 -->
     <g transform="translate(59.780318 243.809436) rotate(-318.547999) scale(0.1 -0.1)">
      <use xlink:href="#DejaVuSans-35"/>
     </g>
    </g>
   </g>
   <g id="text_27">
    <g clip-path="url(#pc83b3d5749)">
     <!-- 5 -->
     <g transform="translate(287.256404 257.384755) rotate(-32.358277) scale(0.1 -0.1)">
      <use xlink:href="#DejaVuSans-35"/>
     </g>
    </g>
   </g>
   <g id="text_28">
    <g clip-path="url(#pc83b3d5749)">
     <!-- 5 -->
     <g transform="translate(72.984404 38.792755) rotate(-32.358277) scale(0.1 -0.1)">
      <use xlink:href="#DejaVuSans-35"/>
     </g>
    </g>
   </g>
   <g id="text_29">
    <g clip-path="url(#pc83b3d5749)">
     <!-- 5 -->
     <g transform="translate(294.459175 44.225436) rotate(-318.547999) scale(0.1 -0.1)">
      <use xlink:href="#DejaVuSans-35"/>
     </g>
    </g>
   </g>
   <g id="text_30">
    <g clip-path="url(#pc83b3d5749)">
     <!-- 6 -->
     <g transform="translate(39.373461 243.809436) rotate(-318.547999) scale(0.1 -0.1)">
      <defs>
       <path id="DejaVuSans-36" d="M 2113 2584 
Q 1688 2584 1439 2293 
Q 1191 2003 1191 1497 
Q 1191 994 1439 701 
Q 1688 409 2113 409 
Q 2538 409 2786 701 
Q 3034 994 3034 1497 
Q 3034 2003 2786 2293 
Q 2538 2584 2113 2584 
z
M 3366 4563 
L 3366 3988 
Q 3128 4100 2886 4159 
Q 2644 4219 2406 4219 
Q 1781 4219 1451 3797 
Q 1122 3375 1075 2522 
Q 1259 2794 1537 2939 
Q 1816 3084 2150 3084 
Q 2853 3084 3261 2657 
Q 3669 2231 3669 1497 
Q 3669 778 3244 343 
Q 2819 -91 2113 -91 
Q 1303 -91 875 529 
Q 447 1150 447 2328 
Q 447 3434 972 4092 
Q 1497 4750 2381 4750 
Q 2619 4750 2861 4703 
Q 3103 4656 3366 4563 
z
" transform="scale(0.015625)"/>
      </defs>
      <use xlink:href="#DejaVuSans-36"/>
     </g>
    </g>
   </g>
   <g id="text_31">
    <g clip-path="url(#pc83b3d5749)">
     <!-- 6 -->
     <g transform="translate(287.256404 276.392755) rotate(-32.358277) scale(0.1 -0.1)">
      <use xlink:href="#DejaVuSans-36"/>
     </g>
    </g>
   </g>
   <g id="text_32">
    <g clip-path="url(#pc83b3d5749)">
     <!-- 6 -->
     <g transform="translate(72.984404 19.784755) rotate(-32.358277) scale(0.1 -0.1)">
      <use xlink:href="#DejaVuSans-36"/>
     </g>
    </g>
   </g>
   <g id="text_33">
    <g clip-path="url(#pc83b3d5749)">
     <!-- 6 -->
     <g transform="translate(314.866033 44.225436) rotate(-318.547999) scale(0.1 -0.1)">
      <use xlink:href="#DejaVuSans-36"/>
     </g>
    </g>
   </g>
   <g id="text_34">
    <g clip-path="url(#pc83b3d5749)">
     <!-- 7 -->
     <g transform="translate(34.283135 258.415006) rotate(-323.307947) scale(0.1 -0.1)">
      <defs>
       <path id="DejaVuSans-37" d="M 525 4666 
L 3525 4666 
L 3525 4397 
L 1831 0 
L 1172 0 
L 2766 4134 
L 525 4134 
L 525 4666 
z
" transform="scale(0.015625)"/>
      </defs>
      <use xlink:href="#DejaVuSans-37"/>
     </g>
    </g>
   </g>
   <g id="text_35">
    <g clip-path="url(#pc83b3d5749)">
     <!-- 7 -->
     <g transform="translate(302.869808 281.224688) rotate(-36.692053) scale(0.1 -0.1)">
      <use xlink:href="#DejaVuSans-37"/>
     </g>
    </g>
   </g>
   <g id="text_36">
    <g clip-path="url(#pc83b3d5749)">
     <!-- 7 -->
     <g transform="translate(57.987522 15.112688) rotate(-36.692053) scale(0.1 -0.1)">
      <use xlink:href="#DejaVuSans-37"/>
     </g>
    </g>
   </g>
   <g id="text_37">
    <g clip-path="url(#pc83b3d5749)">
     <!-- 7 -->
     <g transform="translate(319.979135 30.319006) rotate(-323.307947) scale(0.1 -0.1)">
      <use xlink:href="#DejaVuSans-37"/>
     </g>
    </g>
   </g>
   <g id="patch_7">
    <path d="M 109.906813 210.583219 
L 252.754813 210.583219 
L 252.754813 77.527219 
L 109.906813 77.527219 
L 109.906813 210.583219 
z
" clip-path="url(#pc83b3d5749)" style="fill: none; opacity: 0.5; stroke: #ffff00; stroke-linejoin: miter"/>
   </g>
   <g id="patch_8">
    <path d="M 261.325693 16.321459 
Q 185.616253 46.924339 109.906813 77.527219 
" style="fill: none; opacity: 0.5; stroke: #ffff00; stroke-linecap: round"/>
   </g>
   <g id="patch_9">
    <path d="M 318.464893 69.543859 
Q 285.609853 140.063539 252.754813 210.583219 
" style="fill: none; opacity: 0.5; stroke: #ffff00; stroke-linecap: round"/>
   </g>
   <g id="axes_2">
    <g id="patch_10">
     <path d="M 261.325693 69.543859 
L 318.464893 69.543859 
L 318.464893 16.321459 
L 261.325693 16.321459 
z
" style="fill: #ffffff"/>
    </g>
    <g id="PathCollection_18">
     <path d="M 289.895293 69.543859 
L 289.895293 69.543859 
L 304.180093 65.108659 
L 313.703293 56.238259 
L 318.464893 42.932659 
L 318.464893 42.932659 
L 318.464893 42.932659 
L 313.703293 29.627059 
L 304.180093 20.756659 
L 289.895293 16.321459 
L 289.895293 16.321459 
L 289.895293 16.321459 
L 275.610493 20.756659 
L 266.087292 29.627059 
L 261.325693 42.932659 
L 261.325693 42.932659 
L 261.325693 42.932659 
L 266.087292 56.238259 
L 275.610493 65.108659 
L 289.895293 69.543859 
z
" clip-path="url(#pbee605bb7a)" style="fill: #2020ff"/>
    </g>
    <g id="PathCollection_19">
     <path d="M 261.325693 69.543859 
L 275.610493 77.527219 
L 289.895293 80.188339 
L 304.180093 77.527219 
L 318.464893 69.543859 
L 318.464893 69.543859 
L 327.035773 56.238259 
L 329.892733 42.932659 
L 327.035773 29.627059 
L 318.464893 16.321459 
L 318.464893 16.321459 
L 304.180093 8.338099 
L 289.895293 5.676979 
L 275.610493 8.338099 
L 261.325693 16.321459 
L 261.325693 16.321459 
L 252.754813 29.627059 
L 249.897852 42.932659 
L 252.754813 56.238259 
L 261.325693 69.543859 
z
M 289.895293 69.543859 
L 275.610493 65.108659 
L 266.087292 56.238259 
L 261.325693 42.932659 
L 261.325693 42.932659 
L 261.325693 42.932659 
L 266.087292 29.627059 
L 275.610493 20.756659 
L 289.895293 16.321459 
L 289.895293 16.321459 
L 289.895293 16.321459 
L 304.180093 20.756659 
L 313.703293 29.627059 
L 318.464893 42.932659 
L 318.464893 42.932659 
L 318.464893 42.932659 
L 313.703293 56.238259 
L 304.180093 65.108659 
L 289.895293 69.543859 
L 289.895293 69.543859 
z
" clip-path="url(#pbee605bb7a)" style="fill: #6060ff"/>
    </g>
    <g id="PathCollection_20">
     <path d="M 275.610493 86.651059 
L 289.895293 88.551859 
L 304.180093 86.651059 
L 313.703293 82.849459 
L 318.464893 80.188339 
L 329.892733 69.543859 
L 332.749693 65.108659 
L 336.831064 56.238259 
L 338.87175 42.932659 
L 336.831064 29.627059 
L 332.749693 20.756659 
L 329.892733 16.321459 
L 318.464893 5.676979 
L 313.703293 3.015859 
L 304.180093 -0.785741 
L 289.895293 -2.686541 
L 275.610493 -0.785741 
L 266.087292 3.015859 
L 261.325693 5.676979 
L 249.897852 16.321459 
L 247.040892 20.756659 
L 242.959521 29.627059 
L 240.918835 42.932659 
L 242.959521 56.238259 
L 247.040892 65.108659 
L 249.897852 69.543859 
L 261.325693 80.188339 
L 266.087292 82.849459 
z
M 261.325693 69.543859 
L 252.754813 56.238259 
L 249.897852 42.932659 
L 252.754813 29.627059 
L 261.325693 16.321459 
L 261.325693 16.321459 
L 275.610493 8.338099 
L 289.895293 5.676979 
L 304.180093 8.338099 
L 318.464893 16.321459 
L 318.464893 16.321459 
L 327.035773 29.627059 
L 329.892733 42.932659 
L 327.035773 56.238259 
L 318.464893 69.543859 
L 318.464893 69.543859 
L 304.180093 77.527219 
L 289.895293 80.188339 
L 275.610493 77.527219 
L 261.325693 69.543859 
z
" clip-path="url(#pbee605bb7a)" style="fill: #a0a0ff"/>
    </g>
    <g id="PathCollection_21">
     <path d="M 261.325693 88.551859 
L 275.610493 94.254259 
L 289.895293 96.155059 
L 289.895293 96.155059 
L 289.895293 96.155059 
L 304.180093 94.254259 
L 318.464893 88.551859 
L 327.035773 82.849459 
L 332.749693 77.527219 
L 338.87175 69.543859 
L 344.993807 56.238259 
L 347.034493 42.932659 
L 347.034493 42.932659 
L 347.034493 42.932659 
L 344.993807 29.627059 
L 338.87175 16.321459 
L 332.749693 8.338099 
L 327.035773 3.015859 
L 318.464893 -2.686541 
L 304.180093 -8.388941 
L 289.895293 -10.289741 
L 289.895293 -10.289741 
L 289.895293 -10.289741 
L 275.610493 -8.388941 
L 261.325693 -2.686541 
L 252.754813 3.015859 
L 247.040892 8.338099 
L 240.918835 16.321459 
L 234.796778 29.627059 
L 232.756092 42.932659 
L 232.756092 42.932659 
L 232.756092 42.932659 
L 234.796778 56.238259 
L 240.918835 69.543859 
L 247.040892 77.527219 
L 252.754813 82.849459 
z
M 266.087292 82.849459 
L 261.325693 80.188339 
L 249.897852 69.543859 
L 247.040892 65.108659 
L 242.959521 56.238259 
L 240.918835 42.932659 
L 242.959521 29.627059 
L 247.040892 20.756659 
L 249.897852 16.321459 
L 261.325693 5.676979 
L 266.087292 3.015859 
L 275.610493 -0.785741 
L 289.895293 -2.686541 
L 304.180093 -0.785741 
L 313.703293 3.015859 
L 318.464893 5.676979 
L 329.892733 16.321459 
L 332.749693 20.756659 
L 336.831064 29.627059 
L 338.87175 42.932659 
L 336.831064 56.238259 
L 332.749693 65.108659 
L 329.892733 69.543859 
L 318.464893 80.188339 
L 313.703293 82.849459 
L 304.180093 86.651059 
L 289.895293 88.551859 
L 275.610493 86.651059 
z
" clip-path="url(#pbee605bb7a)" style="fill: #e0e0ff"/>
    </g>
    <g id="PathCollection_22">
     <path d="M 247.040892 86.651059 
L 261.325693 96.155059 
L 261.325693 96.155059 
L 275.610493 96.155059 
L 289.895293 96.155059 
L 275.610493 94.254259 
L 261.325693 88.551859 
L 252.754813 82.849459 
L 247.040892 77.527219 
L 240.918835 69.543859 
L 234.796778 56.238259 
L 232.756092 42.932659 
L 232.756092 56.238259 
L 232.756092 69.543859 
L 232.756092 69.543859 
L 242.959521 82.849459 
z
" clip-path="url(#pbee605bb7a)" style="fill: #ffdede"/>
     <path d="M 304.180093 96.155059 
L 318.464893 96.155059 
L 318.464893 96.155059 
L 332.749693 86.651059 
L 336.831064 82.849459 
L 347.034493 69.543859 
L 347.034493 69.543859 
L 347.034493 56.238259 
L 347.034493 42.932659 
L 344.993807 56.238259 
L 338.87175 69.543859 
L 332.749693 77.527219 
L 327.035773 82.849459 
L 318.464893 88.551859 
L 304.180093 94.254259 
L 289.895293 96.155059 
z
" clip-path="url(#pbee605bb7a)" style="fill: #ffdede"/>
     <path d="M 234.796778 29.627059 
L 240.918835 16.321459 
L 247.040892 8.338099 
L 252.754813 3.015859 
L 261.325693 -2.686541 
L 275.610493 -8.388941 
L 289.895293 -10.289741 
L 275.610493 -10.289741 
L 261.325693 -10.289741 
L 261.325693 -10.289741 
L 247.040892 -0.785741 
L 242.959521 3.015859 
L 232.756092 16.321459 
L 232.756092 16.321459 
L 232.756092 29.627059 
L 232.756092 42.932659 
z
" clip-path="url(#pbee605bb7a)" style="fill: #ffdede"/>
     <path d="M 347.034493 42.932659 
L 347.034493 29.627059 
L 347.034493 16.321459 
L 347.034493 16.321459 
L 336.831064 3.015859 
L 332.749693 -0.785741 
L 318.464893 -10.289741 
L 318.464893 -10.289741 
L 304.180093 -10.289741 
L 289.895293 -10.289741 
L 304.180093 -8.388941 
L 318.464893 -2.686541 
L 327.035773 3.015859 
L 332.749693 8.338099 
L 338.87175 16.321459 
L 344.993807 29.627059 
z
" clip-path="url(#pbee605bb7a)" style="fill: #ffdede"/>
    </g>
    <g id="PathCollection_23">
     <path d="M 247.040892 94.254259 
L 249.897852 96.155059 
L 261.325693 96.155059 
L 247.040892 86.651059 
L 242.959521 82.849459 
L 232.756092 69.543859 
L 232.756092 80.188339 
L 234.796778 82.849459 
z
" clip-path="url(#pbee605bb7a)" style="fill: #ff9e9e"/>
     <path d="M 332.749693 94.254259 
L 344.993807 82.849459 
L 347.034493 80.188339 
L 347.034493 69.543859 
L 336.831064 82.849459 
L 332.749693 86.651059 
L 318.464893 96.155059 
L 329.892733 96.155059 
z
" clip-path="url(#pbee605bb7a)" style="fill: #ff9e9e"/>
     <path d="M 242.959521 3.015859 
L 247.040892 -0.785741 
L 261.325693 -10.289741 
L 249.897852 -10.289741 
L 247.040892 -8.388941 
L 234.796778 3.015859 
L 232.756092 5.676979 
L 232.756092 16.321459 
z
" clip-path="url(#pbee605bb7a)" style="fill: #ff9e9e"/>
     <path d="M 347.034493 16.321459 
L 347.034493 5.676979 
L 344.993807 3.015859 
L 332.749693 -8.388941 
L 329.892733 -10.289741 
L 318.464893 -10.289741 
L 332.749693 -0.785741 
L 336.831064 3.015859 
z
" clip-path="url(#pbee605bb7a)" style="fill: #ff9e9e"/>
    </g>
    <g id="PathCollection_24">
     <path d="M 247.040892 96.155059 
L 249.897852 96.155059 
L 247.040892 94.254259 
L 234.796778 82.849459 
L 232.756092 80.188339 
L 232.756092 82.849459 
L 232.756092 88.551859 
L 240.918835 96.155059 
z
" clip-path="url(#pbee605bb7a)" style="fill: #ff5e5e"/>
     <path d="M 332.749693 96.155059 
L 338.87175 96.155059 
L 347.034493 88.551859 
L 347.034493 82.849459 
L 347.034493 80.188339 
L 344.993807 82.849459 
L 332.749693 94.254259 
L 329.892733 96.155059 
z
" clip-path="url(#pbee605bb7a)" style="fill: #ff5e5e"/>
     <path d="M 234.796778 3.015859 
L 247.040892 -8.388941 
L 249.897852 -10.289741 
L 247.040892 -10.289741 
L 240.918835 -10.289741 
L 232.756092 -2.686541 
L 232.756092 3.015859 
L 232.756092 5.676979 
z
" clip-path="url(#pbee605bb7a)" style="fill: #ff5e5e"/>
     <path d="M 347.034493 5.676979 
L 347.034493 3.015859 
L 347.034493 -2.686541 
L 338.87175 -10.289741 
L 332.749693 -10.289741 
L 329.892733 -10.289741 
L 332.749693 -8.388941 
L 344.993807 3.015859 
z
" clip-path="url(#pbee605bb7a)" style="fill: #ff5e5e"/>
    </g>
    <g id="PathCollection_25">
     <path d="M 232.756092 88.551859 
L 232.756092 96.155059 
L 240.918835 96.155059 
z
" clip-path="url(#pbee605bb7a)" style="fill: #ff1e1e"/>
     <path d="M 347.034493 96.155059 
L 347.034493 88.551859 
L 338.87175 96.155059 
z
" clip-path="url(#pbee605bb7a)" style="fill: #ff1e1e"/>
     <path d="M 240.918835 -10.289741 
L 232.756092 -10.289741 
L 232.756092 -2.686541 
z
" clip-path="url(#pbee605bb7a)" style="fill: #ff1e1e"/>
     <path d="M 347.034493 -2.686541 
L 347.034493 -10.289741 
L 338.87175 -10.289741 
z
" clip-path="url(#pbee605bb7a)" style="fill: #ff1e1e"/>
    </g>
    <g id="matplotlib.axis_3"/>
    <g id="matplotlib.axis_4"/>
    <g id="PathCollection_26">
     <path d="M 289.895293 42.932659 
L 289.895293 42.932659 
L 289.895293 42.932659 
L 289.895293 42.932659 
L 289.895293 42.932659 
z
" clip-path="url(#pbee605bb7a)" style="fill: none; stroke: #000000; stroke-width: 1.5"/>
    </g>
    <g id="PathCollection_27">
     <path d="M 309.152278 25.388009 
L 313.703293 29.627059 
L 318.464893 42.932659 
L 318.464893 42.932659 
L 318.464893 42.932659 
L 313.703293 56.238259 
L 304.180093 65.108659 
L 289.895293 69.543859 
L 289.895293 69.543859 
L 289.895293 69.543859 
L 275.610493 65.108659 
L 266.087292 56.238259 
L 261.325693 42.932659 
L 261.325693 42.932659 
L 261.325693 42.932659 
L 266.087292 29.627059 
L 275.610493 20.756659 
L 289.895293 16.321459 
L 289.895293 16.321459 
L 289.895293 16.321459 
L 297.690687 18.741803 
" clip-path="url(#pbee605bb7a)" style="fill: none; stroke: #000000; stroke-width: 1.5"/>
    </g>
    <g id="PathCollection_28">
     <path d="M 256.434508 23.914628 
L 261.325693 16.321459 
L 261.325693 16.321459 
L 275.610493 8.338099 
L 289.895293 5.676979 
L 304.180093 8.338099 
L 318.464893 16.321459 
L 318.464893 16.321459 
L 327.035773 29.627059 
L 329.892733 42.932659 
L 327.035773 56.238259 
L 318.464893 69.543859 
L 318.464893 69.543859 
L 304.180093 77.527219 
L 289.895293 80.188339 
L 275.610493 77.527219 
L 261.325693 69.543859 
L 261.325693 69.543859 
L 252.754813 56.238259 
L 249.897852 42.932659 
L 251.328313 36.270636 
" clip-path="url(#pbee605bb7a)" style="fill: none; stroke: #000000; stroke-width: 1.5"/>
    </g>
    <g id="PathCollection_29">
     <path d="M 269.29974 84.131847 
L 266.087292 82.849459 
L 261.325693 80.188339 
L 249.897852 69.543859 
L 247.040892 65.108659 
L 242.959521 56.238259 
L 240.918835 42.932659 
L 242.959521 29.627059 
L 247.040892 20.756659 
L 249.897852 16.321459 
L 261.325693 5.676979 
L 266.087292 3.015859 
L 275.610493 -0.785741 
L 277.220679 -1 
M 302.569906 -1 
L 304.180093 -0.785741 
L 313.703293 3.015859 
L 318.464893 5.676979 
L 329.892733 16.321459 
L 332.749693 20.756659 
L 336.831064 29.627059 
L 338.87175 42.932659 
L 336.831064 56.238259 
L 332.749693 65.108659 
L 329.892733 69.543859 
L 318.464893 80.188339 
L 313.703293 82.849459 
L 304.180093 86.651059 
L 289.895293 88.551859 
L 282.346123 87.547332 
" clip-path="url(#pbee605bb7a)" style="fill: none; stroke: #000000; stroke-width: 1.5"/>
    </g>
    <g id="PathCollection_30">
     <path d="M 289.895293 96.155059 
L 275.610493 94.254259 
L 261.325693 88.551859 
L 252.754813 82.849459 
L 252.013078 82.158569 
" clip-path="url(#pbee605bb7a)" style="fill: none; stroke: #000000; stroke-width: 1.5"/>
     <path d="M 242.90597 72.135147 
L 240.918835 69.543859 
L 234.796778 56.238259 
L 232.756092 42.932659 
" clip-path="url(#pbee605bb7a)" style="fill: none; stroke: #000000; stroke-width: 1.5"/>
     <path d="M 347.034493 42.932659 
L 344.993807 56.238259 
L 338.87175 69.543859 
L 332.749693 77.527219 
L 332.007958 78.218109 
" clip-path="url(#pbee605bb7a)" style="fill: none; stroke: #000000; stroke-width: 1.5"/>
     <path d="M 321.378484 86.613381 
L 318.464893 88.551859 
L 304.180093 94.254259 
L 289.895293 96.155059 
" clip-path="url(#pbee605bb7a)" style="fill: none; stroke: #000000; stroke-width: 1.5"/>
     <path d="M 232.756092 42.932659 
L 234.796778 29.627059 
L 240.918835 16.321459 
L 247.040892 8.338099 
L 247.782627 7.647209 
" clip-path="url(#pbee605bb7a)" style="fill: none; stroke: #000000; stroke-width: 1.5"/>
     <path d="M 258.412101 -0.748063 
L 258.79077 -1 
" clip-path="url(#pbee605bb7a)" style="fill: none; stroke: #000000; stroke-width: 1.5"/>
     <path d="M 320.999815 -1 
L 327.035773 3.015859 
L 327.777507 3.706749 
" clip-path="url(#pbee605bb7a)" style="fill: none; stroke: #000000; stroke-width: 1.5"/>
     <path d="M 336.884615 13.730171 
L 338.87175 16.321459 
L 344.993807 29.627059 
L 347.034493 42.932659 
" clip-path="url(#pbee605bb7a)" style="fill: none; stroke: #000000; stroke-width: 1.5"/>
    </g>
    <g id="PathCollection_31">
     <path d="M 261.325693 96.155059 
L 248.054449 87.325401 
" clip-path="url(#pbee605bb7a)" style="fill: none; stroke: #000000; stroke-width: 1.5"/>
     <path d="M 238.824599 77.457387 
L 232.756092 69.543859 
" clip-path="url(#pbee605bb7a)" style="fill: none; stroke: #000000; stroke-width: 1.5"/>
     <path d="M 347.034493 69.543859 
L 337.571874 81.883418 
" clip-path="url(#pbee605bb7a)" style="fill: none; stroke: #000000; stroke-width: 1.5"/>
     <path d="M 327.092404 90.414981 
L 318.464893 96.155059 
" clip-path="url(#pbee605bb7a)" style="fill: none; stroke: #000000; stroke-width: 1.5"/>
     <path d="M 232.756092 16.321459 
L 242.218711 3.981899 
" clip-path="url(#pbee605bb7a)" style="fill: none; stroke: #000000; stroke-width: 1.5"/>
     <path clip-path="url(#pbee605bb7a)" style="fill: none; stroke: #000000; stroke-width: 1.5"/>
     <path clip-path="url(#pbee605bb7a)" style="fill: none; stroke: #000000; stroke-width: 1.5"/>
     <path d="M 340.965986 8.407931 
L 347.034493 16.321459 
" clip-path="url(#pbee605bb7a)" style="fill: none; stroke: #000000; stroke-width: 1.5"/>
    </g>
    <g id="PathCollection_32">
     <path d="M 249.897852 96.155059 
L 247.040892 94.254259 
L 239.768963 87.480809 
" clip-path="url(#pbee605bb7a)" style="fill: none; stroke: #000000; stroke-width: 1.5"/>
     <path d="M 347.034493 80.188339 
L 344.993807 82.849459 
L 337.721878 89.622909 
" clip-path="url(#pbee605bb7a)" style="fill: none; stroke: #000000; stroke-width: 1.5"/>
     <path d="M 232.756092 5.676979 
L 234.796778 3.015859 
L 239.108176 -1 
" clip-path="url(#pbee605bb7a)" style="fill: none; stroke: #000000; stroke-width: 1.5"/>
     <path clip-path="url(#pbee605bb7a)" style="fill: none; stroke: #000000; stroke-width: 1.5"/>
    </g>
    <g id="PathCollection_33">
     <path d="M 240.918835 96.155059 
L 237.728278 93.183209 
" clip-path="url(#pbee605bb7a)" style="fill: none; stroke: #000000; stroke-width: 1.5"/>
     <path d="M 347.034493 88.551859 
L 343.843935 91.523709 
" clip-path="url(#pbee605bb7a)" style="fill: none; stroke: #000000; stroke-width: 1.5"/>
     <path clip-path="url(#pbee605bb7a)" style="fill: none; stroke: #000000; stroke-width: 1.5"/>
     <path clip-path="url(#pbee605bb7a)" style="fill: none; stroke: #000000; stroke-width: 1.5"/>
    </g>
    <g id="PathCollection_34"/>
    <g id="patch_11">
     <path d="M 261.325693 69.543859 
L 261.325693 16.321459 
" style="fill: none; stroke: #000000; stroke-width: 0.8; stroke-linejoin: miter; stroke-linecap: square"/>
    </g>
    <g id="patch_12">
     <path d="M 318.464893 69.543859 
L 318.464893 16.321459 
" style="fill: none; stroke: #000000; stroke-width: 0.8; stroke-linejoin: miter; stroke-linecap: square"/>
    </g>
    <g id="patch_13">
     <path d="M 261.325693 69.543859 
L 318.464893 69.543859 
" style="fill: none; stroke: #000000; stroke-width: 0.8; stroke-linejoin: miter; stroke-linecap: square"/>
    </g>
    <g id="patch_14">
     <path d="M 261.325693 16.321459 
L 318.464893 16.321459 
" style="fill: none; stroke: #000000; stroke-width: 0.8; stroke-linejoin: miter; stroke-linecap: square"/>
    </g>
    <g id="text_38">
     <g clip-path="url(#pbee605bb7a)">
      <!-- 1 -->
      <g transform="translate(300.043862 21.547923) rotate(-329.891941) scale(0.1 -0.1)">
       <use xlink:href="#DejaVuSans-31"/>
      </g>
     </g>
    </g>
    <g id="text_39">
     <g clip-path="url(#pbee605bb7a)">
      <!-- 2 -->
      <g transform="translate(254.089997 33.621027) rotate(-67.546842) scale(0.1 -0.1)">
       <use xlink:href="#DejaVuSans-32"/>
      </g>
     </g>
    </g>
    <g id="text_40">
     <g clip-path="url(#pbee605bb7a)">
      <!-- 3 -->
      <g transform="translate(271.834116 88.514788) rotate(-345.329462) scale(0.1 -0.1)">
       <use xlink:href="#DejaVuSans-33"/>
      </g>
     </g>
    </g>
    <g id="text_41">
     <g clip-path="url(#pbee605bb7a)">
      <!-- 4 -->
      <g transform="translate(242.859319 77.028277) rotate(-312.257741) scale(0.1 -0.1)">
       <use xlink:href="#DejaVuSans-34"/>
      </g>
     </g>
    </g>
    <g id="text_42">
     <g clip-path="url(#pbee605bb7a)">
      <!-- 4 -->
      <g transform="translate(326.249554 86.986651) rotate(-38.302055) scale(0.1 -0.1)">
       <use xlink:href="#DejaVuSans-34"/>
      </g>
     </g>
    </g>
    <g id="text_43">
     <g clip-path="url(#pbee605bb7a)">
      <!-- 4 -->
      <g transform="translate(251.968594 7.153051) rotate(-38.302055) scale(0.1 -0.1)">
       <use xlink:href="#DejaVuSans-34"/>
      </g>
     </g>
    </g>
    <g id="text_44">
     <g clip-path="url(#pbee605bb7a)">
      <!-- 4 -->
      <g transform="translate(328.568119 7.839157) rotate(-312.257741) scale(0.1 -0.1)">
       <use xlink:href="#DejaVuSans-34"/>
      </g>
     </g>
    </g>
    <g id="text_45">
     <g clip-path="url(#pbee605bb7a)">
      <!-- 5 -->
      <g transform="translate(238.777947 82.350517) rotate(-312.257741) scale(0.1 -0.1)">
       <use xlink:href="#DejaVuSans-35"/>
      </g>
     </g>
    </g>
    <g id="text_46">
     <g clip-path="url(#pbee605bb7a)">
      <!-- 5 -->
      <g transform="translate(331.963474 90.788251) rotate(-38.302055) scale(0.1 -0.1)">
       <use xlink:href="#DejaVuSans-35"/>
      </g>
     </g>
    </g>
    <g id="text_47">
     <g clip-path="url(#pbee605bb7a)">
      <!-- 5 -->
      <g transform="translate(246.254674 3.351451) rotate(-38.302055) scale(0.1 -0.1)">
       <use xlink:href="#DejaVuSans-35"/>
      </g>
     </g>
    </g>
    <g id="text_48">
     <g clip-path="url(#pbee605bb7a)">
      <!-- 5 -->
      <g transform="translate(332.64949 2.516917) rotate(-312.257741) scale(0.1 -0.1)">
       <use xlink:href="#DejaVuSans-35"/>
      </g>
     </g>
    </g>
    <g id="text_49">
     <g clip-path="url(#pbee605bb7a)">
      <!-- 6 -->
      <g transform="translate(230.615204 82.350517) rotate(-312.257741) scale(0.1 -0.1)">
       <use xlink:href="#DejaVuSans-36"/>
      </g>
     </g>
    </g>
    <g id="text_50">
     <g clip-path="url(#pbee605bb7a)">
      <!-- 6 -->
      <g transform="translate(331.963474 98.391451) rotate(-38.302055) scale(0.1 -0.1)">
       <use xlink:href="#DejaVuSans-36"/>
      </g>
     </g>
    </g>
    <g id="text_51">
     <g clip-path="url(#pbee605bb7a)">
      <!-- 6 -->
      <g transform="translate(246.254674 -4.251749) rotate(-38.302055) scale(0.1 -0.1)">
       <use xlink:href="#DejaVuSans-36"/>
      </g>
     </g>
    </g>
    <g id="text_52">
     <g clip-path="url(#pbee605bb7a)">
      <!-- 6 -->
      <g transform="translate(340.812233 2.516917) rotate(-312.257741) scale(0.1 -0.1)">
       <use xlink:href="#DejaVuSans-36"/>
      </g>
     </g>
    </g>
    <g id="text_53">
     <g clip-path="url(#pbee605bb7a)">
      <!-- 7 -->
      <g transform="translate(228.547499 88.402726) rotate(-317.032609) scale(0.1 -0.1)">
       <use xlink:href="#DejaVuSans-37"/>
      </g>
     </g>
    </g>
    <g id="text_54">
     <g clip-path="url(#pbee605bb7a)">
      <!-- 7 -->
      <g transform="translate(338.424637 100.342491) rotate(-42.967391) scale(0.1 -0.1)">
       <use xlink:href="#DejaVuSans-37"/>
      </g>
     </g>
    </g>
    <g id="text_55">
     <g clip-path="url(#pbee605bb7a)">
      <!-- 7 -->
      <g transform="translate(240.471722 -6.102309) rotate(-42.967391) scale(0.1 -0.1)">
       <use xlink:href="#DejaVuSans-37"/>
      </g>
     </g>
    </g>
    <g id="text_56">
     <g clip-path="url(#pbee605bb7a)">
      <!-- 7 -->
      <g transform="translate(342.825899 -2.835674) rotate(-317.032609) scale(0.1 -0.1)">
       <use xlink:href="#DejaVuSans-37"/>
      </g>
     </g>
    </g>
   </g>
  </g>
  <g id="axes_3">
   <g id="patch_15">
    <path d="M 342.034813 277.111219 
L 355.340413 277.111219 
L 355.340413 10.999219 
L 342.034813 10.999219 
z
" style="fill: #ffffff"/>
   </g>
   <g id="patch_16">
    <path clip-path="url(#pf7e6590525)" style="fill: #ffffff; stroke: #ffffff; stroke-width: 0.01; stroke-linejoin: miter"/>
   </g>
   <g id="QuadMesh_1">
    <path d="M 342.034813 277.111219 
L 355.340413 277.111219 
L 355.340413 243.847219 
L 342.034813 243.847219 
L 342.034813 277.111219 
" clip-path="url(#pf7e6590525)" style="fill: #2020ff"/>
    <path d="M 342.034813 243.847219 
L 355.340413 243.847219 
L 355.340413 210.583219 
L 342.034813 210.583219 
L 342.034813 243.847219 
" clip-path="url(#pf7e6590525)" style="fill: #6060ff"/>
    <path d="M 342.034813 210.583219 
L 355.340413 210.583219 
L 355.340413 177.319219 
L 342.034813 177.319219 
L 342.034813 210.583219 
" clip-path="url(#pf7e6590525)" style="fill: #a0a0ff"/>
    <path d="M 342.034813 177.319219 
L 355.340413 177.319219 
L 355.340413 144.055219 
L 342.034813 144.055219 
L 342.034813 177.319219 
" clip-path="url(#pf7e6590525)" style="fill: #e0e0ff"/>
    <path d="M 342.034813 144.055219 
L 355.340413 144.055219 
L 355.340413 110.791219 
L 342.034813 110.791219 
L 342.034813 144.055219 
" clip-path="url(#pf7e6590525)" style="fill: #ffdede"/>
    <path d="M 342.034813 110.791219 
L 355.340413 110.791219 
L 355.340413 77.527219 
L 342.034813 77.527219 
L 342.034813 110.791219 
" clip-path="url(#pf7e6590525)" style="fill: #ff9e9e"/>
    <path d="M 342.034813 77.527219 
L 355.340413 77.527219 
L 355.340413 44.263219 
L 342.034813 44.263219 
L 342.034813 77.527219 
" clip-path="url(#pf7e6590525)" style="fill: #ff5e5e"/>
    <path d="M 342.034813 44.263219 
L 355.340413 44.263219 
L 355.340413 10.999219 
L 342.034813 10.999219 
L 342.034813 44.263219 
" clip-path="url(#pf7e6590525)" style="fill: #ff1e1e"/>
   </g>
   <g id="matplotlib.axis_5"/>
   <g id="matplotlib.axis_6">
    <g id="ytick_10">
     <g id="line2d_19">
      <defs>
       <path id="m6d663a5948" d="M 0 0 
L 3.5 0 
" style="stroke: #000000; stroke-width: 0.8"/>
      </defs>
      <g>
       <use xlink:href="#m6d663a5948" x="355.340413" y="277.111219" style="stroke: #000000; stroke-width: 0.8"/>
      </g>
     </g>
     <g id="text_57">
      <!-- 0.0 -->
      <g transform="translate(362.340413 280.910437) scale(0.1 -0.1)">
       <use xlink:href="#DejaVuSans-30"/>
       <use xlink:href="#DejaVuSans-2e" x="63.623047"/>
       <use xlink:href="#DejaVuSans-30" x="95.410156"/>
      </g>
     </g>
    </g>
    <g id="ytick_11">
     <g id="line2d_20">
      <g>
       <use xlink:href="#m6d663a5948" x="355.340413" y="243.847219" style="stroke: #000000; stroke-width: 0.8"/>
      </g>
     </g>
     <g id="text_58">
      <!-- 1.0 -->
      <g transform="translate(362.340413 247.646437) scale(0.1 -0.1)">
       <use xlink:href="#DejaVuSans-31"/>
       <use xlink:href="#DejaVuSans-2e" x="63.623047"/>
       <use xlink:href="#DejaVuSans-30" x="95.410156"/>
      </g>
     </g>
    </g>
    <g id="ytick_12">
     <g id="line2d_21">
      <g>
       <use xlink:href="#m6d663a5948" x="355.340413" y="210.583219" style="stroke: #000000; stroke-width: 0.8"/>
      </g>
     </g>
     <g id="text_59">
      <!-- 2.0 -->
      <g transform="translate(362.340413 214.382437) scale(0.1 -0.1)">
       <use xlink:href="#DejaVuSans-32"/>
       <use xlink:href="#DejaVuSans-2e" x="63.623047"/>
       <use xlink:href="#DejaVuSans-30" x="95.410156"/>
      </g>
     </g>
    </g>
    <g id="ytick_13">
     <g id="line2d_22">
      <g>
       <use xlink:href="#m6d663a5948" x="355.340413" y="177.319219" style="stroke: #000000; stroke-width: 0.8"/>
      </g>
     </g>
     <g id="text_60">
      <!-- 3.0 -->
      <g transform="translate(362.340413 181.118437) scale(0.1 -0.1)">
       <use xlink:href="#DejaVuSans-33"/>
       <use xlink:href="#DejaVuSans-2e" x="63.623047"/>
       <use xlink:href="#DejaVuSans-30" x="95.410156"/>
      </g>
     </g>
    </g>
    <g id="ytick_14">
     <g id="line2d_23">
      <g>
       <use xlink:href="#m6d663a5948" x="355.340413" y="144.055219" style="stroke: #000000; stroke-width: 0.8"/>
      </g>
     </g>
     <g id="text_61">
      <!-- 4.0 -->
      <g transform="translate(362.340413 147.854437) scale(0.1 -0.1)">
       <use xlink:href="#DejaVuSans-34"/>
       <use xlink:href="#DejaVuSans-2e" x="63.623047"/>
       <use xlink:href="#DejaVuSans-30" x="95.410156"/>
      </g>
     </g>
    </g>
    <g id="ytick_15">
     <g id="line2d_24">
      <g>
       <use xlink:href="#m6d663a5948" x="355.340413" y="110.791219" style="stroke: #000000; stroke-width: 0.8"/>
      </g>
     </g>
     <g id="text_62">
      <!-- 5.0 -->
      <g transform="translate(362.340413 114.590437) scale(0.1 -0.1)">
       <use xlink:href="#DejaVuSans-35"/>
       <use xlink:href="#DejaVuSans-2e" x="63.623047"/>
       <use xlink:href="#DejaVuSans-30" x="95.410156"/>
      </g>
     </g>
    </g>
    <g id="ytick_16">
     <g id="line2d_25">
      <g>
       <use xlink:href="#m6d663a5948" x="355.340413" y="77.527219" style="stroke: #000000; stroke-width: 0.8"/>
      </g>
     </g>
     <g id="text_63">
      <!-- 6.0 -->
      <g transform="translate(362.340413 81.326437) scale(0.1 -0.1)">
       <use xlink:href="#DejaVuSans-36"/>
       <use xlink:href="#DejaVuSans-2e" x="63.623047"/>
       <use xlink:href="#DejaVuSans-30" x="95.410156"/>
      </g>
     </g>
    </g>
    <g id="ytick_17">
     <g id="line2d_26">
      <g>
       <use xlink:href="#m6d663a5948" x="355.340413" y="44.263219" style="stroke: #000000; stroke-width: 0.8"/>
      </g>
     </g>
     <g id="text_64">
      <!-- 7.0 -->
      <g transform="translate(362.340413 48.062437) scale(0.1 -0.1)">
       <use xlink:href="#DejaVuSans-37"/>
       <use xlink:href="#DejaVuSans-2e" x="63.623047"/>
       <use xlink:href="#DejaVuSans-30" x="95.410156"/>
      </g>
     </g>
    </g>
    <g id="ytick_18">
     <g id="line2d_27">
      <g>
       <use xlink:href="#m6d663a5948" x="355.340413" y="10.999219" style="stroke: #000000; stroke-width: 0.8"/>
      </g>
     </g>
     <g id="text_65">
      <!-- 8.0 -->
      <g transform="translate(362.340413 14.798437) scale(0.1 -0.1)">
       <defs>
        <path id="DejaVuSans-38" d="M 2034 2216 
Q 1584 2216 1326 1975 
Q 1069 1734 1069 1313 
Q 1069 891 1326 650 
Q 1584 409 2034 409 
Q 2484 409 2743 651 
Q 3003 894 3003 1313 
Q 3003 1734 2745 1975 
Q 2488 2216 2034 2216 
z
M 1403 2484 
Q 997 2584 770 2862 
Q 544 3141 544 3541 
Q 544 4100 942 4425 
Q 1341 4750 2034 4750 
Q 2731 4750 3128 4425 
Q 3525 4100 3525 3541 
Q 3525 3141 3298 2862 
Q 3072 2584 2669 2484 
Q 3125 2378 3379 2068 
Q 3634 1759 3634 1313 
Q 3634 634 3220 271 
Q 2806 -91 2034 -91 
Q 1263 -91 848 271 
Q 434 634 434 1313 
Q 434 1759 690 2068 
Q 947 2378 1403 2484 
z
M 1172 3481 
Q 1172 3119 1398 2916 
Q 1625 2713 2034 2713 
Q 2441 2713 2670 2916 
Q 2900 3119 2900 3481 
Q 2900 3844 2670 4047 
Q 2441 4250 2034 4250 
Q 1625 4250 1398 4047 
Q 1172 3844 1172 3481 
z
" transform="scale(0.015625)"/>
       </defs>
       <use xlink:href="#DejaVuSans-38"/>
       <use xlink:href="#DejaVuSans-2e" x="63.623047"/>
       <use xlink:href="#DejaVuSans-30" x="95.410156"/>
      </g>
     </g>
    </g>
    <g id="text_66">
     <!-- TEMPERATURE -->
     <g transform="translate(389.841975 180.410687) rotate(-90) scale(0.1 -0.1)">
      <defs>
       <path id="DejaVuSans-54" d="M -19 4666 
L 3928 4666 
L 3928 4134 
L 2272 4134 
L 2272 0 
L 1638 0 
L 1638 4134 
L -19 4134 
L -19 4666 
z
" transform="scale(0.015625)"/>
       <path id="DejaVuSans-45" d="M 628 4666 
L 3578 4666 
L 3578 4134 
L 1259 4134 
L 1259 2753 
L 3481 2753 
L 3481 2222 
L 1259 2222 
L 1259 531 
L 3634 531 
L 3634 0 
L 628 0 
L 628 4666 
z
" transform="scale(0.015625)"/>
       <path id="DejaVuSans-4d" d="M 628 4666 
L 1569 4666 
L 2759 1491 
L 3956 4666 
L 4897 4666 
L 4897 0 
L 4281 0 
L 4281 4097 
L 3078 897 
L 2444 897 
L 1241 4097 
L 1241 0 
L 628 0 
L 628 4666 
z
" transform="scale(0.015625)"/>
       <path id="DejaVuSans-50" d="M 1259 4147 
L 1259 2394 
L 2053 2394 
Q 2494 2394 2734 2622 
Q 2975 2850 2975 3272 
Q 2975 3691 2734 3919 
Q 2494 4147 2053 4147 
L 1259 4147 
z
M 628 4666 
L 2053 4666 
Q 2838 4666 3239 4311 
Q 3641 3956 3641 3272 
Q 3641 2581 3239 2228 
Q 2838 1875 2053 1875 
L 1259 1875 
L 1259 0 
L 628 0 
L 628 4666 
z
" transform="scale(0.015625)"/>
       <path id="DejaVuSans-52" d="M 2841 2188 
Q 3044 2119 3236 1894 
Q 3428 1669 3622 1275 
L 4263 0 
L 3584 0 
L 2988 1197 
Q 2756 1666 2539 1819 
Q 2322 1972 1947 1972 
L 1259 1972 
L 1259 0 
L 628 0 
L 628 4666 
L 2053 4666 
Q 2853 4666 3247 4331 
Q 3641 3997 3641 3322 
Q 3641 2881 3436 2590 
Q 3231 2300 2841 2188 
z
M 1259 4147 
L 1259 2491 
L 2053 2491 
Q 2509 2491 2742 2702 
Q 2975 2913 2975 3322 
Q 2975 3731 2742 3939 
Q 2509 4147 2053 4147 
L 1259 4147 
z
" transform="scale(0.015625)"/>
       <path id="DejaVuSans-41" d="M 2188 4044 
L 1331 1722 
L 3047 1722 
L 2188 4044 
z
M 1831 4666 
L 2547 4666 
L 4325 0 
L 3669 0 
L 3244 1197 
L 1141 1197 
L 716 0 
L 50 0 
L 1831 4666 
z
" transform="scale(0.015625)"/>
       <path id="DejaVuSans-55" d="M 556 4666 
L 1191 4666 
L 1191 1831 
Q 1191 1081 1462 751 
Q 1734 422 2344 422 
Q 2950 422 3222 751 
Q 3494 1081 3494 1831 
L 3494 4666 
L 4128 4666 
L 4128 1753 
Q 4128 841 3676 375 
Q 3225 -91 2344 -91 
Q 1459 -91 1007 375 
Q 556 841 556 1753 
L 556 4666 
z
" transform="scale(0.015625)"/>
      </defs>
      <use xlink:href="#DejaVuSans-54"/>
      <use xlink:href="#DejaVuSans-45" x="61.083984"/>
      <use xlink:href="#DejaVuSans-4d" x="124.267578"/>
      <use xlink:href="#DejaVuSans-50" x="210.546875"/>
      <use xlink:href="#DejaVuSans-45" x="270.849609"/>
      <use xlink:href="#DejaVuSans-52" x="334.033203"/>
      <use xlink:href="#DejaVuSans-41" x="399.515625"/>
      <use xlink:href="#DejaVuSans-54" x="460.173828"/>
      <use xlink:href="#DejaVuSans-55" x="521.257812"/>
      <use xlink:href="#DejaVuSans-52" x="594.451172"/>
      <use xlink:href="#DejaVuSans-45" x="663.933594"/>
     </g>
    </g>
   </g>
   <g id="LineCollection_1"/>
   <g id="patch_17">
    <path d="M 342.034813 277.111219 
L 348.687613 277.111219 
L 355.340413 277.111219 
L 355.340413 10.999219 
L 348.687613 10.999219 
L 342.034813 10.999219 
L 342.034813 277.111219 
z
" style="fill: none; stroke: #000000; stroke-width: 0.8; stroke-linejoin: miter; stroke-linecap: square"/>
   </g>
  </g>
 </g>
 <defs>
  <clipPath id="pc83b3d5749">
   <rect x="38.482813" y="10.999219" width="285.696" height="266.112"/>
  </clipPath>
  <clipPath id="pbee605bb7a">
   <rect x="261.325693" y="16.321459" width="57.1392" height="53.2224"/>
  </clipPath>
  <clipPath id="pf7e6590525">
   <rect x="342.034813" y="10.999219" width="13.3056" height="266.112"/>
  </clipPath>
 </defs>
</svg>
