<?xml version="1.0" encoding="utf-8" standalone="no"?>
<!DOCTYPE svg PUBLIC "-//W3C//DTD SVG 1.1//EN"
  "http://www.w3.org/Graphics/SVG/1.1/DTD/svg11.dtd">
<!-- Created with matplotlib (https://matplotlib.org/) -->
<svg height="300.989344pt" version="1.1" viewBox="0 0 311.366687 300.989344" width="311.366687pt" xmlns="http://www.w3.org/2000/svg" xmlns:xlink="http://www.w3.org/1999/xlink">
 <metadata>
  <rdf:RDF xmlns:cc="http://creativecommons.org/ns#" xmlns:dc="http://purl.org/dc/elements/1.1/" xmlns:rdf="http://www.w3.org/1999/02/22-rdf-syntax-ns#">
   <cc:Work>
    <dc:type rdf:resource="http://purl.org/dc/dcmitype/StillImage"/>
    <dc:date>2022-05-14T17:48:55.381028</dc:date>
    <dc:format>image/svg+xml</dc:format>
    <dc:creator>
     <cc:Agent>
      <dc:title>Matplotlib v3.3.4, https://matplotlib.org/</dc:title>
     </cc:Agent>
    </dc:creator>
   </cc:Work>
  </rdf:RDF>
 </metadata>
 <defs>
  <style type="text/css">*{stroke-linecap:butt;stroke-linejoin:round;}</style>
 </defs>
 <g id="figure_1">
  <g id="patch_1">
   <path d="M 0 300.989344 
L 311.366687 300.989344 
L 311.366687 0 
L 0 0 
z
" style="fill:#ffffff;"/>
  </g>
  <g id="axes_1">
   <g id="patch_2">
    <path d="M 30.103125 277.111219 
L 296.215125 277.111219 
L 296.215125 10.999219 
L 30.103125 10.999219 
z
" style="fill:#ffffff;"/>
   </g>
   <g id="patch_3">
    <path clip-path="url(#pf35a79752a)" d="M 60.341344 171.60516 
C 66.404918 194.234726 79.773073 214.241584 98.359636 228.503556 
C 116.9462 242.765528 139.731274 250.500019 163.159125 250.500019 
C 186.586976 250.500019 209.37205 242.765528 227.958614 228.503556 
C 246.545177 214.241584 259.913332 194.234726 265.976906 171.60516 
" style="fill:none;stroke:#cd0000;stroke-linejoin:miter;"/>
   </g>
   <g id="patch_4">
    <path clip-path="url(#pf35a79752a)" d="M 34.344366 272.869978 
L 23.032057 270.040151 
Q 153.612681 145.823488 282.779091 20.192612 
L 275.003203 18.069005 
Q 284.19495 13.119899 296.215125 10.999219 
Q 294.094445 23.019393 289.145338 32.211141 
L 287.021731 24.435253 
Q 161.390855 153.601663 37.174193 284.182287 
L 34.344366 272.869978 
z
" style="fill:#1862ab;stroke:#cd0000;stroke-linecap:round;stroke-linejoin:miter;"/>
    <g id="patch_5">
     <path clip-path="url(#pf35a79752a)" d="M 163.159125 277.111219 
C 198.445989 277.111219 232.292344 263.091599 257.243925 238.140019 
C 282.195505 213.188438 296.215125 179.342082 296.215125 144.055219 
C 296.215125 108.768355 282.195505 74.921999 257.243925 49.970419 
C 232.292344 25.018838 198.445989 10.999219 163.159125 10.999219 
C 127.872261 10.999219 94.025906 25.018838 69.074325 49.970419 
C 44.122745 74.921999 30.103125 108.768355 30.103125 144.055219 
C 30.103125 179.342082 44.122745 213.188438 69.074325 238.140019 
C 94.025906 263.091599 127.872261 277.111219 163.159125 277.111219 
z
" style="fill:none;stroke:#808080;stroke-linejoin:miter;"/>
    </g>
    <g id="patch_6">
     <path clip-path="url(#pf35a79752a)" d="M 56.714325 144.055219 
L 109.936725 144.055219 
L 83.325525 97.963268 
z
" style="fill:none;stroke:#0000ff;stroke-linejoin:miter;"/>
    </g>
    <g id="patch_7">
     <path clip-path="url(#pf35a79752a)" d="M 269.603925 144.055219 
L 216.381525 144.055219 
L 242.992725 97.963268 
" style="fill:none;stroke:#0000ff;stroke-linejoin:miter;"/>
    </g>
    <g id="matplotlib.axis_1">
     <g id="xtick_1">
      <g id="line2d_1">
       <defs>
        <path d="M 0 0 
L 0 3.5 
" id="ma697a7bc19" style="stroke:#000000;stroke-width:0.8;"/>
       </defs>
       <g>
        <use style="stroke:#000000;stroke-width:0.8;" x="30.103125" xlink:href="#ma697a7bc19" y="277.111219"/>
       </g>
      </g>
      <g id="text_1">
       <!-- 0.0 -->
       <g transform="translate(22.151563 291.709656)scale(0.1 -0.1)">
        <defs>
         <path d="M 31.78125 66.40625 
Q 24.171875 66.40625 20.328125 58.90625 
Q 16.5 51.421875 16.5 36.375 
Q 16.5 21.390625 20.328125 13.890625 
Q 24.171875 6.390625 31.78125 6.390625 
Q 39.453125 6.390625 43.28125 13.890625 
Q 47.125 21.390625 47.125 36.375 
Q 47.125 51.421875 43.28125 58.90625 
Q 39.453125 66.40625 31.78125 66.40625 
z
M 31.78125 74.21875 
Q 44.046875 74.21875 50.515625 64.515625 
Q 56.984375 54.828125 56.984375 36.375 
Q 56.984375 17.96875 50.515625 8.265625 
Q 44.046875 -1.421875 31.78125 -1.421875 
Q 19.53125 -1.421875 13.0625 8.265625 
Q 6.59375 17.96875 6.59375 36.375 
Q 6.59375 54.828125 13.0625 64.515625 
Q 19.53125 74.21875 31.78125 74.21875 
z
" id="DejaVuSans-48"/>
         <path d="M 10.6875 12.40625 
L 21 12.40625 
L 21 0 
L 10.6875 0 
z
" id="DejaVuSans-46"/>
        </defs>
        <use xlink:href="#DejaVuSans-48"/>
        <use x="63.623047" xlink:href="#DejaVuSans-46"/>
        <use x="95.410156" xlink:href="#DejaVuSans-48"/>
       </g>
      </g>
     </g>
     <g id="xtick_2">
      <g id="line2d_2">
       <g>
        <use style="stroke:#000000;stroke-width:0.8;" x="83.325525" xlink:href="#ma697a7bc19" y="277.111219"/>
       </g>
      </g>
      <g id="text_2">
       <!-- 0.2 -->
       <g transform="translate(75.373963 291.709656)scale(0.1 -0.1)">
        <defs>
         <path d="M 19.1875 8.296875 
L 53.609375 8.296875 
L 53.609375 0 
L 7.328125 0 
L 7.328125 8.296875 
Q 12.9375 14.109375 22.625 23.890625 
Q 32.328125 33.6875 34.8125 36.53125 
Q 39.546875 41.84375 41.421875 45.53125 
Q 43.3125 49.21875 43.3125 52.78125 
Q 43.3125 58.59375 39.234375 62.25 
Q 35.15625 65.921875 28.609375 65.921875 
Q 23.96875 65.921875 18.8125 64.3125 
Q 13.671875 62.703125 7.8125 59.421875 
L 7.8125 69.390625 
Q 13.765625 71.78125 18.9375 73 
Q 24.125 74.21875 28.421875 74.21875 
Q 39.75 74.21875 46.484375 68.546875 
Q 53.21875 62.890625 53.21875 53.421875 
Q 53.21875 48.921875 51.53125 44.890625 
Q 49.859375 40.875 45.40625 35.40625 
Q 44.1875 33.984375 37.640625 27.21875 
Q 31.109375 20.453125 19.1875 8.296875 
z
" id="DejaVuSans-50"/>
        </defs>
        <use xlink:href="#DejaVuSans-48"/>
        <use x="63.623047" xlink:href="#DejaVuSans-46"/>
        <use x="95.410156" xlink:href="#DejaVuSans-50"/>
       </g>
      </g>
     </g>
     <g id="xtick_3">
      <g id="line2d_3">
       <g>
        <use style="stroke:#000000;stroke-width:0.8;" x="136.547925" xlink:href="#ma697a7bc19" y="277.111219"/>
       </g>
      </g>
      <g id="text_3">
       <!-- 0.4 -->
       <g transform="translate(128.596362 291.709656)scale(0.1 -0.1)">
        <defs>
         <path d="M 37.796875 64.3125 
L 12.890625 25.390625 
L 37.796875 25.390625 
z
M 35.203125 72.90625 
L 47.609375 72.90625 
L 47.609375 25.390625 
L 58.015625 25.390625 
L 58.015625 17.1875 
L 47.609375 17.1875 
L 47.609375 0 
L 37.796875 0 
L 37.796875 17.1875 
L 4.890625 17.1875 
L 4.890625 26.703125 
z
" id="DejaVuSans-52"/>
        </defs>
        <use xlink:href="#DejaVuSans-48"/>
        <use x="63.623047" xlink:href="#DejaVuSans-46"/>
        <use x="95.410156" xlink:href="#DejaVuSans-52"/>
       </g>
      </g>
     </g>
     <g id="xtick_4">
      <g id="line2d_4">
       <g>
        <use style="stroke:#000000;stroke-width:0.8;" x="189.770325" xlink:href="#ma697a7bc19" y="277.111219"/>
       </g>
      </g>
      <g id="text_4">
       <!-- 0.6 -->
       <g transform="translate(181.818763 291.709656)scale(0.1 -0.1)">
        <defs>
         <path d="M 33.015625 40.375 
Q 26.375 40.375 22.484375 35.828125 
Q 18.609375 31.296875 18.609375 23.390625 
Q 18.609375 15.53125 22.484375 10.953125 
Q 26.375 6.390625 33.015625 6.390625 
Q 39.65625 6.390625 43.53125 10.953125 
Q 47.40625 15.53125 47.40625 23.390625 
Q 47.40625 31.296875 43.53125 35.828125 
Q 39.65625 40.375 33.015625 40.375 
z
M 52.59375 71.296875 
L 52.59375 62.3125 
Q 48.875 64.0625 45.09375 64.984375 
Q 41.3125 65.921875 37.59375 65.921875 
Q 27.828125 65.921875 22.671875 59.328125 
Q 17.53125 52.734375 16.796875 39.40625 
Q 19.671875 43.65625 24.015625 45.921875 
Q 28.375 48.1875 33.59375 48.1875 
Q 44.578125 48.1875 50.953125 41.515625 
Q 57.328125 34.859375 57.328125 23.390625 
Q 57.328125 12.15625 50.6875 5.359375 
Q 44.046875 -1.421875 33.015625 -1.421875 
Q 20.359375 -1.421875 13.671875 8.265625 
Q 6.984375 17.96875 6.984375 36.375 
Q 6.984375 53.65625 15.1875 63.9375 
Q 23.390625 74.21875 37.203125 74.21875 
Q 40.921875 74.21875 44.703125 73.484375 
Q 48.484375 72.75 52.59375 71.296875 
z
" id="DejaVuSans-54"/>
        </defs>
        <use xlink:href="#DejaVuSans-48"/>
        <use x="63.623047" xlink:href="#DejaVuSans-46"/>
        <use x="95.410156" xlink:href="#DejaVuSans-54"/>
       </g>
      </g>
     </g>
     <g id="xtick_5">
      <g id="line2d_5">
       <g>
        <use style="stroke:#000000;stroke-width:0.8;" x="242.992725" xlink:href="#ma697a7bc19" y="277.111219"/>
       </g>
      </g>
      <g id="text_5">
       <!-- 0.8 -->
       <g transform="translate(235.041162 291.709656)scale(0.1 -0.1)">
        <defs>
         <path d="M 31.78125 34.625 
Q 24.75 34.625 20.71875 30.859375 
Q 16.703125 27.09375 16.703125 20.515625 
Q 16.703125 13.921875 20.71875 10.15625 
Q 24.75 6.390625 31.78125 6.390625 
Q 38.8125 6.390625 42.859375 10.171875 
Q 46.921875 13.96875 46.921875 20.515625 
Q 46.921875 27.09375 42.890625 30.859375 
Q 38.875 34.625 31.78125 34.625 
z
M 21.921875 38.8125 
Q 15.578125 40.375 12.03125 44.71875 
Q 8.5 49.078125 8.5 55.328125 
Q 8.5 64.0625 14.71875 69.140625 
Q 20.953125 74.21875 31.78125 74.21875 
Q 42.671875 74.21875 48.875 69.140625 
Q 55.078125 64.0625 55.078125 55.328125 
Q 55.078125 49.078125 51.53125 44.71875 
Q 48 40.375 41.703125 38.8125 
Q 48.828125 37.15625 52.796875 32.3125 
Q 56.78125 27.484375 56.78125 20.515625 
Q 56.78125 9.90625 50.3125 4.234375 
Q 43.84375 -1.421875 31.78125 -1.421875 
Q 19.734375 -1.421875 13.25 4.234375 
Q 6.78125 9.90625 6.78125 20.515625 
Q 6.78125 27.484375 10.78125 32.3125 
Q 14.796875 37.15625 21.921875 38.8125 
z
M 18.3125 54.390625 
Q 18.3125 48.734375 21.84375 45.5625 
Q 25.390625 42.390625 31.78125 42.390625 
Q 38.140625 42.390625 41.71875 45.5625 
Q 45.3125 48.734375 45.3125 54.390625 
Q 45.3125 60.0625 41.71875 63.234375 
Q 38.140625 66.40625 31.78125 66.40625 
Q 25.390625 66.40625 21.84375 63.234375 
Q 18.3125 60.0625 18.3125 54.390625 
z
" id="DejaVuSans-56"/>
        </defs>
        <use xlink:href="#DejaVuSans-48"/>
        <use x="63.623047" xlink:href="#DejaVuSans-46"/>
        <use x="95.410156" xlink:href="#DejaVuSans-56"/>
       </g>
      </g>
     </g>
     <g id="xtick_6">
      <g id="line2d_6">
       <g>
        <use style="stroke:#000000;stroke-width:0.8;" x="296.215125" xlink:href="#ma697a7bc19" y="277.111219"/>
       </g>
      </g>
      <g id="text_6">
       <!-- 1.0 -->
       <g transform="translate(288.263562 291.709656)scale(0.1 -0.1)">
        <defs>
         <path d="M 12.40625 8.296875 
L 28.515625 8.296875 
L 28.515625 63.921875 
L 10.984375 60.40625 
L 10.984375 69.390625 
L 28.421875 72.90625 
L 38.28125 72.90625 
L 38.28125 8.296875 
L 54.390625 8.296875 
L 54.390625 0 
L 12.40625 0 
z
" id="DejaVuSans-49"/>
        </defs>
        <use xlink:href="#DejaVuSans-49"/>
        <use x="63.623047" xlink:href="#DejaVuSans-46"/>
        <use x="95.410156" xlink:href="#DejaVuSans-48"/>
       </g>
      </g>
     </g>
    </g>
    <g id="matplotlib.axis_2">
     <g id="ytick_1">
      <g id="line2d_7">
       <defs>
        <path d="M 0 0 
L -3.5 0 
" id="m05d668bf9c" style="stroke:#000000;stroke-width:0.8;"/>
       </defs>
       <g>
        <use style="stroke:#000000;stroke-width:0.8;" x="30.103125" xlink:href="#m05d668bf9c" y="277.111219"/>
       </g>
      </g>
      <g id="text_7">
       <!-- 0.0 -->
       <g transform="translate(7.2 280.910437)scale(0.1 -0.1)">
        <use xlink:href="#DejaVuSans-48"/>
        <use x="63.623047" xlink:href="#DejaVuSans-46"/>
        <use x="95.410156" xlink:href="#DejaVuSans-48"/>
       </g>
      </g>
     </g>
     <g id="ytick_2">
      <g id="line2d_8">
       <g>
        <use style="stroke:#000000;stroke-width:0.8;" x="30.103125" xlink:href="#m05d668bf9c" y="223.888819"/>
       </g>
      </g>
      <g id="text_8">
       <!-- 0.2 -->
       <g transform="translate(7.2 227.688037)scale(0.1 -0.1)">
        <use xlink:href="#DejaVuSans-48"/>
        <use x="63.623047" xlink:href="#DejaVuSans-46"/>
        <use x="95.410156" xlink:href="#DejaVuSans-50"/>
       </g>
      </g>
     </g>
     <g id="ytick_3">
      <g id="line2d_9">
       <g>
        <use style="stroke:#000000;stroke-width:0.8;" x="30.103125" xlink:href="#m05d668bf9c" y="170.666419"/>
       </g>
      </g>
      <g id="text_9">
       <!-- 0.4 -->
       <g transform="translate(7.2 174.465637)scale(0.1 -0.1)">
        <use xlink:href="#DejaVuSans-48"/>
        <use x="63.623047" xlink:href="#DejaVuSans-46"/>
        <use x="95.410156" xlink:href="#DejaVuSans-52"/>
       </g>
      </g>
     </g>
     <g id="ytick_4">
      <g id="line2d_10">
       <g>
        <use style="stroke:#000000;stroke-width:0.8;" x="30.103125" xlink:href="#m05d668bf9c" y="117.444019"/>
       </g>
      </g>
      <g id="text_10">
       <!-- 0.6 -->
       <g transform="translate(7.2 121.243237)scale(0.1 -0.1)">
        <use xlink:href="#DejaVuSans-48"/>
        <use x="63.623047" xlink:href="#DejaVuSans-46"/>
        <use x="95.410156" xlink:href="#DejaVuSans-54"/>
       </g>
      </g>
     </g>
     <g id="ytick_5">
      <g id="line2d_11">
       <g>
        <use style="stroke:#000000;stroke-width:0.8;" x="30.103125" xlink:href="#m05d668bf9c" y="64.221619"/>
       </g>
      </g>
      <g id="text_11">
       <!-- 0.8 -->
       <g transform="translate(7.2 68.020837)scale(0.1 -0.1)">
        <use xlink:href="#DejaVuSans-48"/>
        <use x="63.623047" xlink:href="#DejaVuSans-46"/>
        <use x="95.410156" xlink:href="#DejaVuSans-56"/>
       </g>
      </g>
     </g>
     <g id="ytick_6">
      <g id="line2d_12">
       <g>
        <use style="stroke:#000000;stroke-width:0.8;" x="30.103125" xlink:href="#m05d668bf9c" y="10.999219"/>
       </g>
      </g>
      <g id="text_12">
       <!-- 1.0 -->
       <g transform="translate(7.2 14.798437)scale(0.1 -0.1)">
        <use xlink:href="#DejaVuSans-49"/>
        <use x="63.623047" xlink:href="#DejaVuSans-46"/>
        <use x="95.410156" xlink:href="#DejaVuSans-48"/>
       </g>
      </g>
     </g>
    </g>
    <g id="patch_8">
     <path d="M 30.103125 277.111219 
L 30.103125 10.999219 
" style="fill:none;stroke:#000000;stroke-linecap:square;stroke-linejoin:miter;stroke-width:0.8;"/>
    </g>
    <g id="patch_9">
     <path d="M 296.215125 277.111219 
L 296.215125 10.999219 
" style="fill:none;stroke:#000000;stroke-linecap:square;stroke-linejoin:miter;stroke-width:0.8;"/>
    </g>
    <g id="patch_10">
     <path d="M 30.103125 277.111219 
L 296.215125 277.111219 
" style="fill:none;stroke:#000000;stroke-linecap:square;stroke-linejoin:miter;stroke-width:0.8;"/>
    </g>
    <g id="patch_11">
     <path d="M 30.103125 10.999219 
L 296.215125 10.999219 
" style="fill:none;stroke:#000000;stroke-linecap:square;stroke-linejoin:miter;stroke-width:0.8;"/>
    </g>
   </g>
  </g>
  <defs>
   <clipPath id="pf35a79752a">
    <rect height="266.112" width="266.112" x="30.103125" y="10.999219"/>
   </clipPath>
  </defs>
 </g>
</svg>
