<?xml version="1.0" encoding="utf-8" standalone="no"?>
<!DOCTYPE svg PUBLIC "-//W3C//DTD SVG 1.1//EN"
  "http://www.w3.org/Graphics/SVG/1.1/DTD/svg11.dtd">
<svg xmlns:xlink="http://www.w3.org/1999/xlink" width="402.374687pt" height="300.989344pt" viewBox="0 0 402.374687 300.989344" xmlns="http://www.w3.org/2000/svg" version="1.1">
 <metadata>
  <rdf:RDF xmlns:dc="http://purl.org/dc/elements/1.1/" xmlns:cc="http://creativecommons.org/ns#" xmlns:rdf="http://www.w3.org/1999/02/22-rdf-syntax-ns#">
   <cc:Work>
    <dc:type rdf:resource="http://purl.org/dc/dcmitype/StillImage"/>
    <dc:date>2024-09-16T08:13:05.951631</dc:date>
    <dc:format>image/svg+xml</dc:format>
    <dc:creator>
     <cc:Agent>
      <dc:title>Matplotlib v3.6.3, https://matplotlib.org/</dc:title>
     </cc:Agent>
    </dc:creator>
   </cc:Work>
  </rdf:RDF>
 </metadata>
 <defs>
  <style type="text/css">*{stroke-linejoin: round; stroke-linecap: butt}</style>
 </defs>
 <g id="figure_1">
  <g id="patch_1">
   <path d="M 0 300.989344 
L 402.374687 300.989344 
L 402.374687 0 
L 0 0 
z
" style="fill: #ffffff"/>
  </g>
  <g id="axes_1">
   <g id="patch_2">
    <path d="M 30.103125 277.111219 
L 387.223125 277.111219 
L 387.223125 10.999219 
L 30.103125 10.999219 
z
" style="fill: #ffffff"/>
   </g>
   <g id="matplotlib.axis_1">
    <g id="xtick_1">
     <g id="line2d_1">
      <defs>
       <path id="m24b0823b90" d="M 0 0 
L 0 3.5 
" style="stroke: #000000; stroke-width: 0.8"/>
      </defs>
      <g>
       <use xlink:href="#m24b0823b90" x="30.103125" y="277.111219" style="stroke: #000000; stroke-width: 0.8"/>
      </g>
     </g>
     <g id="text_1">
      <!-- 0.0 -->
      <g transform="translate(22.151563 291.709656) scale(0.1 -0.1)">
       <defs>
        <path id="DejaVuSans-30" d="M 2034 4250 
Q 1547 4250 1301 3770 
Q 1056 3291 1056 2328 
Q 1056 1369 1301 889 
Q 1547 409 2034 409 
Q 2525 409 2770 889 
Q 3016 1369 3016 2328 
Q 3016 3291 2770 3770 
Q 2525 4250 2034 4250 
z
M 2034 4750 
Q 2819 4750 3233 4129 
Q 3647 3509 3647 2328 
Q 3647 1150 3233 529 
Q 2819 -91 2034 -91 
Q 1250 -91 836 529 
Q 422 1150 422 2328 
Q 422 3509 836 4129 
Q 1250 4750 2034 4750 
z
" transform="scale(0.015625)"/>
        <path id="DejaVuSans-2e" d="M 684 794 
L 1344 794 
L 1344 0 
L 684 0 
L 684 794 
z
" transform="scale(0.015625)"/>
       </defs>
       <use xlink:href="#DejaVuSans-30"/>
       <use xlink:href="#DejaVuSans-2e" x="63.623047"/>
       <use xlink:href="#DejaVuSans-30" x="95.410156"/>
      </g>
     </g>
    </g>
    <g id="xtick_2">
     <g id="line2d_2">
      <g>
       <use xlink:href="#m24b0823b90" x="101.527125" y="277.111219" style="stroke: #000000; stroke-width: 0.8"/>
      </g>
     </g>
     <g id="text_2">
      <!-- 0.2 -->
      <g transform="translate(93.575563 291.709656) scale(0.1 -0.1)">
       <defs>
        <path id="DejaVuSans-32" d="M 1228 531 
L 3431 531 
L 3431 0 
L 469 0 
L 469 531 
Q 828 903 1448 1529 
Q 2069 2156 2228 2338 
Q 2531 2678 2651 2914 
Q 2772 3150 2772 3378 
Q 2772 3750 2511 3984 
Q 2250 4219 1831 4219 
Q 1534 4219 1204 4116 
Q 875 4013 500 3803 
L 500 4441 
Q 881 4594 1212 4672 
Q 1544 4750 1819 4750 
Q 2544 4750 2975 4387 
Q 3406 4025 3406 3419 
Q 3406 3131 3298 2873 
Q 3191 2616 2906 2266 
Q 2828 2175 2409 1742 
Q 1991 1309 1228 531 
z
" transform="scale(0.015625)"/>
       </defs>
       <use xlink:href="#DejaVuSans-30"/>
       <use xlink:href="#DejaVuSans-2e" x="63.623047"/>
       <use xlink:href="#DejaVuSans-32" x="95.410156"/>
      </g>
     </g>
    </g>
    <g id="xtick_3">
     <g id="line2d_3">
      <g>
       <use xlink:href="#m24b0823b90" x="172.951125" y="277.111219" style="stroke: #000000; stroke-width: 0.8"/>
      </g>
     </g>
     <g id="text_3">
      <!-- 0.4 -->
      <g transform="translate(164.999563 291.709656) scale(0.1 -0.1)">
       <defs>
        <path id="DejaVuSans-34" d="M 2419 4116 
L 825 1625 
L 2419 1625 
L 2419 4116 
z
M 2253 4666 
L 3047 4666 
L 3047 1625 
L 3713 1625 
L 3713 1100 
L 3047 1100 
L 3047 0 
L 2419 0 
L 2419 1100 
L 313 1100 
L 313 1709 
L 2253 4666 
z
" transform="scale(0.015625)"/>
       </defs>
       <use xlink:href="#DejaVuSans-30"/>
       <use xlink:href="#DejaVuSans-2e" x="63.623047"/>
       <use xlink:href="#DejaVuSans-34" x="95.410156"/>
      </g>
     </g>
    </g>
    <g id="xtick_4">
     <g id="line2d_4">
      <g>
       <use xlink:href="#m24b0823b90" x="244.375125" y="277.111219" style="stroke: #000000; stroke-width: 0.8"/>
      </g>
     </g>
     <g id="text_4">
      <!-- 0.6 -->
      <g transform="translate(236.423563 291.709656) scale(0.1 -0.1)">
       <defs>
        <path id="DejaVuSans-36" d="M 2113 2584 
Q 1688 2584 1439 2293 
Q 1191 2003 1191 1497 
Q 1191 994 1439 701 
Q 1688 409 2113 409 
Q 2538 409 2786 701 
Q 3034 994 3034 1497 
Q 3034 2003 2786 2293 
Q 2538 2584 2113 2584 
z
M 3366 4563 
L 3366 3988 
Q 3128 4100 2886 4159 
Q 2644 4219 2406 4219 
Q 1781 4219 1451 3797 
Q 1122 3375 1075 2522 
Q 1259 2794 1537 2939 
Q 1816 3084 2150 3084 
Q 2853 3084 3261 2657 
Q 3669 2231 3669 1497 
Q 3669 778 3244 343 
Q 2819 -91 2113 -91 
Q 1303 -91 875 529 
Q 447 1150 447 2328 
Q 447 3434 972 4092 
Q 1497 4750 2381 4750 
Q 2619 4750 2861 4703 
Q 3103 4656 3366 4563 
z
" transform="scale(0.015625)"/>
       </defs>
       <use xlink:href="#DejaVuSans-30"/>
       <use xlink:href="#DejaVuSans-2e" x="63.623047"/>
       <use xlink:href="#DejaVuSans-36" x="95.410156"/>
      </g>
     </g>
    </g>
    <g id="xtick_5">
     <g id="line2d_5">
      <g>
       <use xlink:href="#m24b0823b90" x="315.799125" y="277.111219" style="stroke: #000000; stroke-width: 0.8"/>
      </g>
     </g>
     <g id="text_5">
      <!-- 0.8 -->
      <g transform="translate(307.847562 291.709656) scale(0.1 -0.1)">
       <defs>
        <path id="DejaVuSans-38" d="M 2034 2216 
Q 1584 2216 1326 1975 
Q 1069 1734 1069 1313 
Q 1069 891 1326 650 
Q 1584 409 2034 409 
Q 2484 409 2743 651 
Q 3003 894 3003 1313 
Q 3003 1734 2745 1975 
Q 2488 2216 2034 2216 
z
M 1403 2484 
Q 997 2584 770 2862 
Q 544 3141 544 3541 
Q 544 4100 942 4425 
Q 1341 4750 2034 4750 
Q 2731 4750 3128 4425 
Q 3525 4100 3525 3541 
Q 3525 3141 3298 2862 
Q 3072 2584 2669 2484 
Q 3125 2378 3379 2068 
Q 3634 1759 3634 1313 
Q 3634 634 3220 271 
Q 2806 -91 2034 -91 
Q 1263 -91 848 271 
Q 434 634 434 1313 
Q 434 1759 690 2068 
Q 947 2378 1403 2484 
z
M 1172 3481 
Q 1172 3119 1398 2916 
Q 1625 2713 2034 2713 
Q 2441 2713 2670 2916 
Q 2900 3119 2900 3481 
Q 2900 3844 2670 4047 
Q 2441 4250 2034 4250 
Q 1625 4250 1398 4047 
Q 1172 3844 1172 3481 
z
" transform="scale(0.015625)"/>
       </defs>
       <use xlink:href="#DejaVuSans-30"/>
       <use xlink:href="#DejaVuSans-2e" x="63.623047"/>
       <use xlink:href="#DejaVuSans-38" x="95.410156"/>
      </g>
     </g>
    </g>
    <g id="xtick_6">
     <g id="line2d_6">
      <g>
       <use xlink:href="#m24b0823b90" x="387.223125" y="277.111219" style="stroke: #000000; stroke-width: 0.8"/>
      </g>
     </g>
     <g id="text_6">
      <!-- 1.0 -->
      <g transform="translate(379.271562 291.709656) scale(0.1 -0.1)">
       <defs>
        <path id="DejaVuSans-31" d="M 794 531 
L 1825 531 
L 1825 4091 
L 703 3866 
L 703 4441 
L 1819 4666 
L 2450 4666 
L 2450 531 
L 3481 531 
L 3481 0 
L 794 0 
L 794 531 
z
" transform="scale(0.015625)"/>
       </defs>
       <use xlink:href="#DejaVuSans-31"/>
       <use xlink:href="#DejaVuSans-2e" x="63.623047"/>
       <use xlink:href="#DejaVuSans-30" x="95.410156"/>
      </g>
     </g>
    </g>
   </g>
   <g id="matplotlib.axis_2">
    <g id="ytick_1">
     <g id="line2d_7">
      <defs>
       <path id="mf21c261a79" d="M 0 0 
L -3.5 0 
" style="stroke: #000000; stroke-width: 0.8"/>
      </defs>
      <g>
       <use xlink:href="#mf21c261a79" x="30.103125" y="277.111219" style="stroke: #000000; stroke-width: 0.8"/>
      </g>
     </g>
     <g id="text_7">
      <!-- 0.0 -->
      <g transform="translate(7.2 280.910437) scale(0.1 -0.1)">
       <use xlink:href="#DejaVuSans-30"/>
       <use xlink:href="#DejaVuSans-2e" x="63.623047"/>
       <use xlink:href="#DejaVuSans-30" x="95.410156"/>
      </g>
     </g>
    </g>
    <g id="ytick_2">
     <g id="line2d_8">
      <g>
       <use xlink:href="#mf21c261a79" x="30.103125" y="223.888819" style="stroke: #000000; stroke-width: 0.8"/>
      </g>
     </g>
     <g id="text_8">
      <!-- 0.2 -->
      <g transform="translate(7.2 227.688037) scale(0.1 -0.1)">
       <use xlink:href="#DejaVuSans-30"/>
       <use xlink:href="#DejaVuSans-2e" x="63.623047"/>
       <use xlink:href="#DejaVuSans-32" x="95.410156"/>
      </g>
     </g>
    </g>
    <g id="ytick_3">
     <g id="line2d_9">
      <g>
       <use xlink:href="#mf21c261a79" x="30.103125" y="170.666419" style="stroke: #000000; stroke-width: 0.8"/>
      </g>
     </g>
     <g id="text_9">
      <!-- 0.4 -->
      <g transform="translate(7.2 174.465637) scale(0.1 -0.1)">
       <use xlink:href="#DejaVuSans-30"/>
       <use xlink:href="#DejaVuSans-2e" x="63.623047"/>
       <use xlink:href="#DejaVuSans-34" x="95.410156"/>
      </g>
     </g>
    </g>
    <g id="ytick_4">
     <g id="line2d_10">
      <g>
       <use xlink:href="#mf21c261a79" x="30.103125" y="117.444019" style="stroke: #000000; stroke-width: 0.8"/>
      </g>
     </g>
     <g id="text_10">
      <!-- 0.6 -->
      <g transform="translate(7.2 121.243237) scale(0.1 -0.1)">
       <use xlink:href="#DejaVuSans-30"/>
       <use xlink:href="#DejaVuSans-2e" x="63.623047"/>
       <use xlink:href="#DejaVuSans-36" x="95.410156"/>
      </g>
     </g>
    </g>
    <g id="ytick_5">
     <g id="line2d_11">
      <g>
       <use xlink:href="#mf21c261a79" x="30.103125" y="64.221619" style="stroke: #000000; stroke-width: 0.8"/>
      </g>
     </g>
     <g id="text_11">
      <!-- 0.8 -->
      <g transform="translate(7.2 68.020837) scale(0.1 -0.1)">
       <use xlink:href="#DejaVuSans-30"/>
       <use xlink:href="#DejaVuSans-2e" x="63.623047"/>
       <use xlink:href="#DejaVuSans-38" x="95.410156"/>
      </g>
     </g>
    </g>
    <g id="ytick_6">
     <g id="line2d_12">
      <g>
       <use xlink:href="#mf21c261a79" x="30.103125" y="10.999219" style="stroke: #000000; stroke-width: 0.8"/>
      </g>
     </g>
     <g id="text_12">
      <!-- 1.0 -->
      <g transform="translate(7.2 14.798437) scale(0.1 -0.1)">
       <use xlink:href="#DejaVuSans-31"/>
       <use xlink:href="#DejaVuSans-2e" x="63.623047"/>
       <use xlink:href="#DejaVuSans-30" x="95.410156"/>
      </g>
     </g>
    </g>
   </g>
   <g id="patch_3">
    <path d="M 30.103125 277.111219 
L 30.103125 10.999219 
" style="fill: none; stroke: #000000; stroke-width: 0.8; stroke-linejoin: miter; stroke-linecap: square"/>
   </g>
   <g id="patch_4">
    <path d="M 387.223125 277.111219 
L 387.223125 10.999219 
" style="fill: none; stroke: #000000; stroke-width: 0.8; stroke-linejoin: miter; stroke-linecap: square"/>
   </g>
   <g id="patch_5">
    <path d="M 30.103125 277.111219 
L 387.223125 277.111219 
" style="fill: none; stroke: #000000; stroke-width: 0.8; stroke-linejoin: miter; stroke-linecap: square"/>
   </g>
   <g id="patch_6">
    <path d="M 30.103125 10.999219 
L 387.223125 10.999219 
" style="fill: none; stroke: #000000; stroke-width: 0.8; stroke-linejoin: miter; stroke-linecap: square"/>
   </g>
   <g id="text_13">
    <g id="patch_7">
     <path d="M 121.971834 284.486625 
L 124.800261 284.486625 
L 124.787886 281.670573 
L 124.775512 278.85452 
L 127.591565 278.866894 
L 130.407618 278.879269 
L 130.395243 276.063216 
L 130.382869 273.247163 
L 133.198922 273.259538 
L 136.014974 273.271912 
L 136.0026 270.455859 
L 135.990226 267.639806 
L 138.806278 267.652181 
L 141.622331 267.664555 
L 141.609957 264.848502 
L 141.597582 262.03245 
L 144.413635 262.044824 
L 147.229688 262.057198 
L 147.217313 259.241146 
L 147.204939 256.425093 
L 150.020992 256.437467 
L 152.837045 256.449842 
L 152.82467 253.633789 
L 152.812296 250.817736 
L 155.628349 250.83011 
L 158.444401 250.842485 
L 158.432027 248.026432 
L 158.419653 245.210379 
L 161.235705 245.222754 
L 164.051758 245.235128 
L 164.039384 242.419075 
L 164.027009 239.603023 
L 166.843062 239.615397 
L 169.659115 239.627771 
L 169.646741 236.811719 
L 169.634366 233.995666 
L 172.450419 234.00804 
L 175.266472 234.020415 
L 175.254097 231.204362 
L 175.241723 228.388309 
L 178.057776 228.400683 
L 180.873828 228.413058 
L 180.861454 225.597005 
L 180.84908 222.780952 
L 183.665133 222.793327 
L 186.481185 222.805701 
L 186.468811 219.989648 
L 186.456437 217.173595 
L 189.272489 217.18597 
L 192.088542 217.198344 
L 192.076168 214.382291 
L 192.063793 211.566239 
L 194.879846 211.578613 
L 197.695899 211.590987 
L 197.683524 208.774935 
L 197.67115 205.958882 
L 200.487203 205.971256 
L 203.303256 205.983631 
L 203.290881 203.167578 
L 203.278507 200.351525 
L 206.09456 200.3639 
L 208.910612 200.376274 
L 208.898238 197.560221 
L 208.885864 194.744168 
L 211.701916 194.756543 
L 214.517969 194.768917 
L 214.505595 191.952864 
L 214.49322 189.136812 
L 217.309273 189.149186 
L 220.125326 189.16156 
L 220.112952 186.345508 
L 220.100577 183.529455 
L 222.91663 183.541829 
L 225.732683 183.554204 
L 225.720308 180.738151 
L 225.707934 177.922098 
L 228.523987 177.934472 
L 231.340039 177.946847 
L 231.327665 175.130794 
L 231.315291 172.314741 
L 234.131343 172.327116 
L 236.947396 172.33949 
L 236.935022 169.523437 
L 236.922648 166.707384 
L 239.7387 166.719759 
L 242.554753 166.732133 
L 242.542379 163.91608 
L 242.530004 161.100028 
L 245.346057 161.112402 
L 248.16211 161.124776 
L 248.149735 158.308724 
L 248.137361 155.492671 
L 250.953414 155.505045 
L 253.769467 155.51742 
L 253.757092 152.701367 
L 253.744718 149.885314 
L 256.560771 149.897689 
L 259.376823 149.910063 
L 259.364449 147.09401 
L 259.352075 144.277957 
L 262.168127 144.290332 
L 264.98418 144.302706 
L 264.971806 141.486653 
L 264.959431 138.670601 
L 267.775484 138.682975 
L 270.591537 138.695349 
L 270.579163 135.879297 
L 270.566788 133.063244 
L 273.382841 133.075618 
L 276.198894 133.087993 
L 276.186519 130.27194 
L 276.174145 127.455887 
L 278.990198 127.468261 
L 281.80625 127.480636 
L 281.793876 124.664583 
L 281.781502 121.84853 
L 284.597554 121.860905 
L 287.413607 121.873279 
L 287.401233 119.057226 
L 287.388858 116.241174 
L 290.204911 116.253548 
L 293.020964 116.265922 
L 293.00859 113.449869 
L 292.996215 110.633817 
L 295.812268 110.646191 
L 298.628321 110.658565 
L 298.615946 107.842513 
L 298.603572 105.02646 
L 301.419625 105.038834 
L 304.235678 105.051209 
L 304.223303 102.235156 
L 304.210929 99.419103 
L 307.026982 99.431478 
L 309.843034 99.443852 
L 309.83066 96.627799 
L 309.818286 93.811746 
L 312.634338 93.824121 
L 315.450391 93.836495 
L 315.438017 91.020442 
L 315.425642 88.20439 
L 318.241695 88.216764 
L 321.057748 88.229138 
L 321.045374 85.413086 
L 321.032999 82.597033 
L 323.849052 82.609407 
L 326.665105 82.621782 
L 326.65273 79.805729 
L 326.640356 76.989676 
L 329.456409 77.00205 
L 332.272461 77.014425 
L 332.260087 74.198372 
L 332.247713 71.382319 
L 335.063765 71.394694 
L 337.879818 71.407068 
L 337.867444 68.591015 
L 337.855069 65.774963 
L 340.671122 65.787337 
L 343.487175 65.799711 
L 343.474801 62.983659 
L 343.462426 60.167606 
L 346.278479 60.17998 
L 349.094532 60.192355 
L 349.094532 57.363927 
L 349.094532 54.5355 
L 346.266105 54.5355 
L 343.437677 54.5355 
L 343.437677 51.707073 
L 343.437677 48.878646 
L 340.60925 48.878646 
L 337.780823 48.878646 
L 337.780823 46.050219 
L 337.780823 43.221792 
L 334.952396 43.221792 
L 332.123969 43.221792 
L 332.123969 40.393365 
L 332.123969 37.564938 
L 329.295542 37.564938 
L 326.467115 37.564938 
L 326.467115 34.73651 
L 326.467115 31.908083 
L 323.638688 31.908083 
L 320.81026 31.908083 
L 320.81026 29.079656 
L 320.81026 26.251229 
L 317.981833 26.251229 
L 315.153406 26.251229 
L 315.153406 23.422802 
L 315.153406 20.594375 
L 312.324979 20.594375 
L 309.496552 20.594375 
L 309.496552 17.765948 
L 309.496552 14.937521 
L 306.668125 14.937521 
L 303.839698 14.937521 
L 303.839698 12.109093 
L 303.839698 9.280666 
L 301.011271 9.280666 
L 298.182843 9.280666 
L 298.182843 6.452239 
L 298.182843 3.623812 
L 295.354416 3.623812 
L 292.525989 3.623812 
L 292.538364 6.439865 
L 292.550738 9.255918 
L 289.734685 9.243543 
L 286.918632 9.231169 
L 286.931007 12.047222 
L 286.943381 14.863274 
L 284.127328 14.8509 
L 281.311276 14.838526 
L 281.32365 17.654578 
L 281.336024 20.470631 
L 278.519972 20.458257 
L 275.703919 20.445882 
L 275.716293 23.261935 
L 275.728668 26.077988 
L 272.912615 26.065613 
L 270.096562 26.053239 
L 270.108937 28.869292 
L 270.121311 31.685345 
L 267.305258 31.67297 
L 264.489205 31.660596 
L 264.50158 34.476649 
L 264.513954 37.292701 
L 261.697901 37.280327 
L 258.881849 37.267953 
L 258.894223 40.084005 
L 258.906597 42.900058 
L 256.090545 42.887684 
L 253.274492 42.875309 
L 253.286866 45.691362 
L 253.299241 48.507415 
L 250.483188 48.495041 
L 247.667135 48.482666 
L 247.679509 51.298719 
L 247.691884 54.114772 
L 244.875831 54.102397 
L 242.059778 54.090023 
L 242.072153 56.906076 
L 242.084527 59.722128 
L 239.268474 59.709754 
L 236.452422 59.69738 
L 236.464796 62.513433 
L 236.47717 65.329485 
L 233.661117 65.317111 
L 230.845065 65.304737 
L 230.857439 68.120789 
L 230.869813 70.936842 
L 228.053761 70.924468 
L 225.237708 70.912093 
L 225.250082 73.728146 
L 225.262457 76.544199 
L 222.446404 76.531824 
L 219.630351 76.51945 
L 219.642726 79.335503 
L 219.6551 82.151556 
L 216.839047 82.139181 
L 214.022994 82.126807 
L 214.035369 84.94286 
L 214.047743 87.758912 
L 211.23169 87.746538 
L 208.415638 87.734164 
L 208.428012 90.550216 
L 208.440386 93.366269 
L 205.624334 93.353895 
L 202.808281 93.34152 
L 202.820655 96.157573 
L 202.83303 98.973626 
L 200.016977 98.961252 
L 197.200924 98.948877 
L 197.213298 101.76493 
L 197.225673 104.580983 
L 194.40962 104.568608 
L 191.593567 104.556234 
L 191.605942 107.372287 
L 191.618316 110.188339 
L 188.802263 110.175965 
L 185.986211 110.163591 
L 185.998585 112.979643 
L 186.010959 115.795696 
L 183.194907 115.783322 
L 180.378854 115.770948 
L 180.391228 118.587 
L 180.403602 121.403053 
L 177.58755 121.390679 
L 174.771497 121.378304 
L 174.783871 124.194357 
L 174.796246 127.01041 
L 171.980193 126.998035 
L 169.16414 126.985661 
L 169.176515 129.801714 
L 169.188889 132.617767 
L 166.372836 132.605392 
L 163.556783 132.593018 
L 163.569158 135.409071 
L 163.581532 138.225123 
L 160.765479 138.212749 
L 157.949427 138.200375 
L 157.961801 141.016427 
L 157.974175 143.83248 
L 155.158123 143.820106 
L 152.34207 143.807731 
L 152.354444 146.623784 
L 152.366819 149.439837 
L 149.550766 149.427463 
L 146.734713 149.415088 
L 146.747087 152.231141 
L 146.759462 155.047194 
L 143.943409 155.034819 
L 141.127356 155.022445 
L 141.139731 157.838498 
L 141.152105 160.65455 
L 138.336052 160.642176 
L 135.52 160.629802 
L 135.532374 163.445854 
L 135.544748 166.261907 
L 132.728696 166.249533 
L 129.912643 166.237158 
L 129.925017 169.053211 
L 129.937392 171.869264 
L 127.121339 171.85689 
L 124.305286 171.844515 
L 124.31766 174.660568 
L 124.330035 177.476621 
L 121.513982 177.464246 
L 118.697929 177.451872 
L 118.710304 180.267925 
L 118.722678 183.083978 
L 115.906625 183.071603 
L 113.090572 183.059229 
L 113.102947 185.875282 
L 113.115321 188.691334 
L 110.299268 188.67896 
L 107.483216 188.666586 
L 107.49559 191.482638 
L 107.507964 194.298691 
L 104.691912 194.286317 
L 101.875859 194.273942 
L 101.888233 197.089995 
L 101.900608 199.906048 
L 99.084555 199.893673 
L 96.268502 199.881299 
L 96.280876 202.697352 
L 96.293251 205.513405 
L 93.477198 205.50103 
L 90.661145 205.488656 
L 90.67352 208.304709 
L 90.685894 211.120761 
L 87.869841 211.108387 
L 85.053789 211.096013 
L 85.066163 213.912065 
L 85.078537 216.728118 
L 82.262485 216.715744 
L 79.446432 216.703369 
L 79.458806 219.519422 
L 79.471181 222.335475 
L 76.655128 222.323101 
L 73.839075 222.310726 
L 73.851449 225.126779 
L 73.863824 227.942832 
L 71.047771 227.930457 
L 68.231718 227.918083 
L 68.231718 230.74651 
L 68.231718 233.574937 
L 71.060145 233.574937 
L 73.888573 233.574937 
L 73.888573 236.403364 
L 73.888573 239.231791 
L 76.717 239.231791 
L 79.545427 239.231791 
L 79.545427 242.060219 
L 79.545427 244.888646 
L 82.373854 244.888646 
L 85.202281 244.888646 
L 85.202281 247.717073 
L 85.202281 250.5455 
L 88.030708 250.5455 
L 90.859135 250.5455 
L 90.859135 253.373927 
L 90.859135 256.202354 
L 93.687562 256.202354 
L 96.51599 256.202354 
L 96.51599 259.030781 
L 96.51599 261.859208 
L 99.344417 261.859208 
L 102.172844 261.859208 
L 102.172844 264.687636 
L 102.172844 267.516063 
L 105.001271 267.516063 
L 107.829698 267.516063 
L 107.829698 270.34449 
L 107.829698 273.172917 
L 110.658125 273.172917 
L 113.486552 273.172917 
L 113.486552 276.001344 
L 113.486552 278.829771 
L 116.314979 278.829771 
L 119.143407 278.829771 
L 119.143407 281.658198 
L 119.143407 284.486625 
z
" style="fill: #ffc0cb; opacity: 0.3; stroke: #000000; stroke-linejoin: miter"/>
    </g>
    <!-- message: $\frac{\alpha}{\beta} = \gamma$ -->
    <g style="fill: #0000ff" transform="translate(106.132642 254.505298) rotate(-45) scale(0.4 -0.4)">
     <defs>
      <path id="DejaVuSans-ExtraLight-6d" d="M 3244 2738 
Q 3406 3159 3756 3375 
Q 4088 3584 4544 3584 
Q 5000 3584 5275 3263 
Q 5553 2944 5553 2113 
L 5553 0 
L 5269 0 
L 5269 2094 
Q 5269 2819 5069 3075 
Q 4869 3331 4538 3331 
Q 4056 3331 3688 3034 
Q 3284 2713 3284 1978 
L 3284 0 
L 2997 0 
L 2997 2094 
Q 2997 2794 2803 3062 
Q 2609 3331 2266 3331 
Q 1784 3331 1416 3031 
Q 1013 2709 1013 1978 
L 1013 0 
L 725 0 
L 725 3500 
L 1013 3500 
L 1013 2844 
Q 1166 3188 1488 3388 
Q 1813 3584 2284 3584 
Q 2591 3584 2875 3378 
Q 3094 3219 3244 2738 
z
" transform="scale(0.015625)"/>
      <path id="DejaVuSans-ExtraLight-65" d="M 3453 1894 
L 3453 1713 
L 797 1713 
Q 797 869 1125 531 
Q 1488 156 2203 156 
Q 2391 156 2700 238 
Q 3013 319 3319 481 
L 3319 178 
Q 3009 47 2684 -22 
Q 2359 -91 2169 -91 
Q 1359 -91 950 347 
Q 506 813 506 1713 
Q 506 2647 913 3106 
Q 1328 3584 2069 3584 
Q 2756 3584 3106 3131 
Q 3453 2656 3453 1894 
z
M 3163 1956 
Q 3163 2694 2831 3031 
Q 2553 3331 2075 3331 
Q 1553 3331 1200 3019 
Q 875 2728 809 1956 
L 3163 1956 
z
" transform="scale(0.015625)"/>
      <path id="DejaVuSans-ExtraLight-73" d="M 2706 3397 
L 2706 3081 
Q 2403 3250 2328 3269 
Q 2109 3322 1784 3331 
Q 1291 3331 1009 3134 
Q 794 2972 794 2578 
Q 794 2313 997 2163 
Q 1213 2000 1613 1913 
L 1809 1869 
Q 2306 1759 2563 1559 
Q 2859 1331 2875 966 
Q 2875 469 2581 188 
Q 2269 -91 1575 -91 
Q 1188 -91 988 -38 
Q 747 31 481 128 
L 481 488 
Q 863 269 975 238 
Q 1284 156 1588 156 
Q 2094 156 2334 366 
Q 2578 578 2578 922 
Q 2578 1209 2416 1341 
Q 2181 1528 1669 1647 
L 1469 1694 
Q 1028 1797 797 1984 
Q 506 2219 506 2553 
Q 506 3103 856 3343 
Q 1206 3584 1716 3584 
Q 2150 3584 2316 3538 
Q 2516 3481 2706 3397 
z
" transform="scale(0.015625)"/>
      <path id="DejaVuSans-ExtraLight-61" d="M 2125 1975 
Q 1431 1975 1125 1728 
Q 819 1481 819 1006 
Q 819 544 1072 350 
Q 1325 156 1672 156 
Q 2328 156 2616 713 
Q 2906 1269 2906 1759 
L 2906 1975 
L 2125 1975 
z
M 3197 1997 
L 3197 0 
L 2913 0 
L 2913 950 
Q 2672 253 2275 63 
Q 1959 -91 1647 -91 
Q 1125 -91 825 188 
Q 525 469 525 1012 
Q 525 1556 916 1881 
Q 1306 2209 2194 2209 
L 2906 2209 
L 2906 2266 
Q 2906 2731 2641 3031 
Q 2378 3331 1772 3331 
Q 1472 3331 1159 3219 
Q 959 3147 641 2928 
L 641 3238 
Q 919 3409 1159 3481 
Q 1509 3584 1831 3584 
Q 2450 3584 2850 3209 
Q 3197 2888 3197 1997 
z
" transform="scale(0.015625)"/>
      <path id="DejaVuSans-ExtraLight-67" d="M 3050 1791 
Q 3050 2519 2754 2920 
Q 2459 3322 1925 3322 
Q 1397 3322 1101 2920 
Q 806 2519 806 1791 
Q 806 1066 1101 664 
Q 1397 263 1925 263 
Q 2459 263 2754 664 
Q 3050 1066 3050 1791 
z
M 3338 434 
Q 3338 -656 2922 -993 
Q 2506 -1331 1869 -1331 
Q 1566 -1331 1297 -1288 
Q 1028 -1241 775 -1147 
L 775 -819 
Q 1028 -956 1275 -1022 
Q 1522 -1088 1778 -1088 
Q 2300 -1088 2675 -866 
Q 3050 -644 3050 331 
L 3050 878 
Q 2922 519 2697 313 
Q 2353 -3 1925 0 
Q 1259 0 887 470 
Q 516 941 516 1794 
Q 516 2644 887 3114 
Q 1259 3584 1925 3584 
Q 2350 3584 2656 3316 
Q 2894 3106 3050 2756 
L 3050 3500 
L 3338 3500 
L 3338 434 
z
" transform="scale(0.015625)"/>
      <path id="DejaVuSans-ExtraLight-3a" d="M 919 400 
L 1238 400 
L 1238 0 
L 919 0 
L 919 400 
z
M 919 3075 
L 1238 3075 
L 1238 2678 
L 919 2678 
L 919 3075 
z
" transform="scale(0.015625)"/>
      <path id="DejaVuSans-ExtraLight-20" transform="scale(0.015625)"/>
      <path id="DejaVuSans-Oblique-3b1" d="M 2619 1628 
L 2622 2350 
Q 2625 3088 2069 3091 
Q 1653 3094 1394 2747 
Q 1069 2319 959 1747 
Q 825 1059 994 731 
Q 1169 397 1547 397 
Q 1966 397 2319 1063 
L 2619 1628 
z
M 2166 3578 
Q 3141 3594 3128 2584 
Q 3128 2584 3616 3500 
L 4128 3500 
L 3119 1603 
L 3109 919 
Q 3109 766 3194 638 
Q 3291 488 3391 488 
L 3669 488 
L 3575 0 
L 3228 0 
Q 2934 0 2722 263 
Q 2622 394 2619 669 
Q 2416 334 2066 50 
Q 1900 -81 1453 -78 
Q 722 -72 456 397 
Q 184 884 353 1747 
Q 534 2675 1009 3097 
Q 1544 3569 2166 3578 
z
" transform="scale(0.015625)"/>
      <path id="DejaVuSans-Oblique-3b2" d="M 872 216 
L 572 -1331 
L -6 -1331 
L 928 3478 
Q 1206 4903 2538 4903 
Q 3888 4903 3659 3700 
Q 3503 2844 2894 2531 
Q 3713 2250 3553 1416 
Q 3272 -69 1759 -66 
Q 1097 -63 872 216 
z
M 1019 966 
Q 1259 422 1875 425 
Q 2775 425 2966 1406 
Q 3138 2288 1675 2219 
L 1778 2750 
Q 2909 2731 3106 3750 
Q 3241 4438 2509 4434 
Q 1691 4434 1503 3459 
L 1019 966 
z
" transform="scale(0.015625)"/>
      <path id="DejaVuSans-3d" d="M 678 2906 
L 4684 2906 
L 4684 2381 
L 678 2381 
L 678 2906 
z
M 678 1631 
L 4684 1631 
L 4684 1100 
L 678 1100 
L 678 1631 
z
" transform="scale(0.015625)"/>
      <path id="DejaVuSans-Oblique-3b3" d="M 1491 2950 
L 1838 788 
L 3456 3500 
L 4066 3500 
L 1972 0 
L 1713 -1331 
L 1138 -1331 
L 1397 0 
L 988 2613 
Q 925 3006 628 3006 
L 475 3006 
L 569 3500 
L 788 3500 
Q 1403 3500 1491 2950 
z
" transform="scale(0.015625)"/>
     </defs>
     <use xlink:href="#DejaVuSans-ExtraLight-6d" transform="translate(0 0.007812)"/>
     <use xlink:href="#DejaVuSans-ExtraLight-65" transform="translate(97.412109 0.007812)"/>
     <use xlink:href="#DejaVuSans-ExtraLight-73" transform="translate(158.935547 0.007812)"/>
     <use xlink:href="#DejaVuSans-ExtraLight-73" transform="translate(211.035156 0.007812)"/>
     <use xlink:href="#DejaVuSans-ExtraLight-61" transform="translate(263.134766 0.007812)"/>
     <use xlink:href="#DejaVuSans-ExtraLight-67" transform="translate(324.414062 0.007812)"/>
     <use xlink:href="#DejaVuSans-ExtraLight-65" transform="translate(384.423828 0.007812)"/>
     <use xlink:href="#DejaVuSans-ExtraLight-3a" transform="translate(445.947266 0.007812)"/>
     <use xlink:href="#DejaVuSans-ExtraLight-20" transform="translate(479.638672 0.007812)"/>
     <use xlink:href="#DejaVuSans-Oblique-3b1" transform="translate(511.425781 44.690625) scale(0.7)"/>
     <use xlink:href="#DejaVuSans-Oblique-3b2" transform="translate(512.425781 -41.071875) scale(0.7)"/>
     <use xlink:href="#DejaVuSans-3d" transform="translate(589.550781 0.007812)"/>
     <use xlink:href="#DejaVuSans-Oblique-3b3" transform="translate(692.822266 0.007812)"/>
     <path d="M 511.425781 18.804688 
L 511.425781 25.054688 
L 557.568359 25.054688 
L 557.568359 18.804688 
L 511.425781 18.804688 
z
"/>
    </g>
   </g>
  </g>
 </g>
</svg>
