<?xml version="1.0" encoding="utf-8" standalone="no"?>
<!DOCTYPE svg PUBLIC "-//W3C//DTD SVG 1.1//EN"
  "http://www.w3.org/Graphics/SVG/1.1/DTD/svg11.dtd">
<svg xmlns:xlink="http://www.w3.org/1999/xlink" width="281.038711pt" height="298.004722pt" viewBox="0 0 281.038711 298.004722" xmlns="http://www.w3.org/2000/svg" version="1.1">
 <metadata>
  <rdf:RDF xmlns:dc="http://purl.org/dc/elements/1.1/" xmlns:cc="http://creativecommons.org/ns#" xmlns:rdf="http://www.w3.org/1999/02/22-rdf-syntax-ns#">
   <cc:Work>
    <dc:type rdf:resource="http://purl.org/dc/dcmitype/StillImage"/>
    <dc:date>2024-09-16T08:13:05.312546</dc:date>
    <dc:format>image/svg+xml</dc:format>
    <dc:creator>
     <cc:Agent>
      <dc:title>Matplotlib v3.6.3, https://matplotlib.org/</dc:title>
     </cc:Agent>
    </dc:creator>
   </cc:Work>
  </rdf:RDF>
 </metadata>
 <defs>
  <style type="text/css">*{stroke-linejoin: round; stroke-linecap: butt}</style>
 </defs>
 <g id="figure_1">
  <g id="patch_1">
   <path d="M 0 298.004722 
L 281.038711 298.004722 
L 281.038711 0 
L 0 0 
z
" style="fill: #ffffff"/>
  </g>
  <g id="patch_2">
   <path d="M 7.2 273.312 
L 273.312 273.312 
L 273.312 7.2 
L 7.2 7.2 
z
" style="fill: #ffffff"/>
  </g>
  <g id="pane3d_1">
   <g id="patch_3">
    <path d="M 36.832607 218.845431 
L 117.342091 149.9149 
L 115.93652 18.519704 
L 30.668128 80.067902 
" style="fill: #f2f2f2; opacity: 0.5; stroke: #f2f2f2; stroke-linejoin: miter"/>
   </g>
  </g>
  <g id="pane3d_2">
   <g id="patch_4">
    <path d="M 117.342091 149.9149 
L 247.299674 188.383675 
L 253.048471 52.802633 
L 115.93652 18.519704 
" style="fill: #e6e6e6; opacity: 0.5; stroke: #e6e6e6; stroke-linejoin: miter"/>
   </g>
  </g>
  <g id="pane3d_3">
   <g id="patch_5">
    <path d="M 36.832607 218.845431 
L 173.947415 264.024759 
L 247.299674 188.383675 
L 117.342091 149.9149 
" style="fill: #ececec; opacity: 0.5; stroke: #ececec; stroke-linejoin: miter"/>
   </g>
  </g>
  <g id="axis3d_1">
   <g id="line2d_1">
    <path d="M 36.832607 218.845431 
L 173.947415 264.024759 
" style="fill: none; stroke: #000000; stroke-width: 0.8; stroke-linecap: square"/>
   </g>
   <g id="text_1">
    <!-- x -->
    <g transform="translate(86.026154 281.966821) scale(0.1 -0.1)">
     <defs>
      <path id="DejaVuSans-78" d="M 3513 3500 
L 2247 1797 
L 3578 0 
L 2900 0 
L 1881 1375 
L 863 0 
L 184 0 
L 1544 1831 
L 300 3500 
L 978 3500 
L 1906 2253 
L 2834 3500 
L 3513 3500 
z
" transform="scale(0.015625)"/>
     </defs>
     <use xlink:href="#DejaVuSans-78"/>
    </g>
   </g>
   <g id="Line3DCollection_1">
    <path d="M 39.448023 219.707211 
L 119.830076 150.65137 
L 118.555248 19.17448 
" style="fill: none; stroke: #b0b0b0; stroke-width: 0.8"/>
    <path d="M 57.516229 225.660685 
L 137.008256 155.736287 
L 136.642755 23.697009 
" style="fill: none; stroke: #b0b0b0; stroke-width: 0.8"/>
    <path d="M 75.82148 231.692265 
L 154.394561 160.882811 
L 154.961183 28.277276 
" style="fill: none; stroke: #b0b0b0; stroke-width: 0.8"/>
    <path d="M 94.368471 237.803498 
L 171.992798 166.092069 
L 173.514982 32.916395 
" style="fill: none; stroke: #b0b0b0; stroke-width: 0.8"/>
    <path d="M 113.162024 243.995973 
L 189.806865 171.365215 
L 192.308719 37.615506 
" style="fill: none; stroke: #b0b0b0; stroke-width: 0.8"/>
    <path d="M 132.207087 250.271321 
L 207.840757 176.703432 
L 211.347079 42.375782 
" style="fill: none; stroke: #b0b0b0; stroke-width: 0.8"/>
    <path d="M 151.508744 256.631217 
L 226.098568 182.107931 
L 230.634868 47.198425 
" style="fill: none; stroke: #b0b0b0; stroke-width: 0.8"/>
    <path d="M 171.072215 263.07738 
L 244.584495 187.579954 
L 250.17702 52.084667 
" style="fill: none; stroke: #b0b0b0; stroke-width: 0.8"/>
   </g>
   <g id="xtick_1">
    <g id="line2d_2">
     <path d="M 40.14321 219.10998 
L 38.054918 220.904021 
" style="fill: none; stroke: #000000; stroke-width: 0.8; stroke-linecap: square"/>
    </g>
    <g id="text_2">
     <!-- −1 -->
     <g transform="translate(25.319002 244.436647) scale(0.1 -0.1)">
      <defs>
       <path id="DejaVuSans-2212" d="M 678 2272 
L 4684 2272 
L 4684 1741 
L 678 1741 
L 678 2272 
z
" transform="scale(0.015625)"/>
       <path id="DejaVuSans-31" d="M 794 531 
L 1825 531 
L 1825 4091 
L 703 3866 
L 703 4441 
L 1819 4666 
L 2450 4666 
L 2450 531 
L 3481 531 
L 3481 0 
L 794 0 
L 794 531 
z
" transform="scale(0.015625)"/>
      </defs>
      <use xlink:href="#DejaVuSans-2212"/>
      <use xlink:href="#DejaVuSans-31" x="83.789062"/>
     </g>
    </g>
   </g>
   <g id="xtick_2">
    <g id="line2d_3">
     <path d="M 58.204054 225.055646 
L 56.137858 226.873155 
" style="fill: none; stroke: #000000; stroke-width: 0.8; stroke-linecap: square"/>
    </g>
    <g id="text_3">
     <!-- 0 -->
     <g transform="translate(47.574134 250.515601) scale(0.1 -0.1)">
      <defs>
       <path id="DejaVuSans-30" d="M 2034 4250 
Q 1547 4250 1301 3770 
Q 1056 3291 1056 2328 
Q 1056 1369 1301 889 
Q 1547 409 2034 409 
Q 2525 409 2770 889 
Q 3016 1369 3016 2328 
Q 3016 3291 2770 3770 
Q 2525 4250 2034 4250 
z
M 2034 4750 
Q 2819 4750 3233 4129 
Q 3647 3509 3647 2328 
Q 3647 1150 3233 529 
Q 2819 -91 2034 -91 
Q 1250 -91 836 529 
Q 422 1150 422 2328 
Q 422 3509 836 4129 
Q 1250 4750 2034 4750 
z
" transform="scale(0.015625)"/>
      </defs>
      <use xlink:href="#DejaVuSans-30"/>
     </g>
    </g>
   </g>
   <g id="xtick_3">
    <g id="line2d_4">
     <path d="M 76.50169 231.079265 
L 74.458352 232.920705 
" style="fill: none; stroke: #000000; stroke-width: 0.8; stroke-linecap: square"/>
    </g>
    <g id="text_4">
     <!-- 1 -->
     <g transform="translate(65.876973 256.674491) scale(0.1 -0.1)">
      <use xlink:href="#DejaVuSans-31"/>
     </g>
    </g>
   </g>
   <g id="xtick_4">
    <g id="line2d_5">
     <path d="M 95.040804 237.182379 
L 93.021111 239.048226 
" style="fill: none; stroke: #000000; stroke-width: 0.8; stroke-linecap: square"/>
    </g>
    <g id="text_5">
     <!-- 2 -->
     <g transform="translate(84.42208 262.914903) scale(0.1 -0.1)">
      <defs>
       <path id="DejaVuSans-32" d="M 1228 531 
L 3431 531 
L 3431 0 
L 469 0 
L 469 531 
Q 828 903 1448 1529 
Q 2069 2156 2228 2338 
Q 2531 2678 2651 2914 
Q 2772 3150 2772 3378 
Q 2772 3750 2511 3984 
Q 2250 4219 1831 4219 
Q 1534 4219 1204 4116 
Q 875 4013 500 3803 
L 500 4441 
Q 881 4594 1212 4672 
Q 1544 4750 1819 4750 
Q 2544 4750 2975 4387 
Q 3406 4025 3406 3419 
Q 3406 3131 3298 2873 
Q 3191 2616 2906 2266 
Q 2828 2175 2409 1742 
Q 1991 1309 1228 531 
z
" transform="scale(0.015625)"/>
      </defs>
      <use xlink:href="#DejaVuSans-32"/>
     </g>
    </g>
   </g>
   <g id="xtick_5">
    <g id="line2d_6">
     <path d="M 113.82621 243.366572 
L 111.830972 245.257314 
" style="fill: none; stroke: #000000; stroke-width: 0.8; stroke-linecap: square"/>
    </g>
    <g id="text_6">
     <!-- 3 -->
     <g transform="translate(103.214296 269.238468) scale(0.1 -0.1)">
      <defs>
       <path id="DejaVuSans-33" d="M 2597 2516 
Q 3050 2419 3304 2112 
Q 3559 1806 3559 1356 
Q 3559 666 3084 287 
Q 2609 -91 1734 -91 
Q 1441 -91 1130 -33 
Q 819 25 488 141 
L 488 750 
Q 750 597 1062 519 
Q 1375 441 1716 441 
Q 2309 441 2620 675 
Q 2931 909 2931 1356 
Q 2931 1769 2642 2001 
Q 2353 2234 1838 2234 
L 1294 2234 
L 1294 2753 
L 1863 2753 
Q 2328 2753 2575 2939 
Q 2822 3125 2822 3475 
Q 2822 3834 2567 4026 
Q 2313 4219 1838 4219 
Q 1578 4219 1281 4162 
Q 984 4106 628 3988 
L 628 4550 
Q 988 4650 1302 4700 
Q 1616 4750 1894 4750 
Q 2613 4750 3031 4423 
Q 3450 4097 3450 3541 
Q 3450 3153 3228 2886 
Q 3006 2619 2597 2516 
z
" transform="scale(0.015625)"/>
      </defs>
      <use xlink:href="#DejaVuSans-33"/>
     </g>
    </g>
   </g>
   <g id="xtick_6">
    <g id="line2d_7">
     <path d="M 132.862847 249.633472 
L 130.892903 251.549611 
" style="fill: none; stroke: #000000; stroke-width: 0.8; stroke-linecap: square"/>
    </g>
    <g id="text_7">
     <!-- 4 -->
     <g transform="translate(122.258595 275.646858) scale(0.1 -0.1)">
      <defs>
       <path id="DejaVuSans-34" d="M 2419 4116 
L 825 1625 
L 2419 1625 
L 2419 4116 
z
M 2253 4666 
L 3047 4666 
L 3047 1625 
L 3713 1625 
L 3713 1100 
L 3047 1100 
L 3047 0 
L 2419 0 
L 2419 1100 
L 313 1100 
L 313 1709 
L 2253 4666 
z
" transform="scale(0.015625)"/>
      </defs>
      <use xlink:href="#DejaVuSans-34"/>
     </g>
    </g>
   </g>
   <g id="xtick_7">
    <g id="line2d_8">
     <path d="M 152.15579 255.984748 
L 150.212006 257.926799 
" style="fill: none; stroke: #000000; stroke-width: 0.8; stroke-linecap: square"/>
    </g>
    <g id="text_8">
     <!-- 5 -->
     <g transform="translate(141.560082 282.141792) scale(0.1 -0.1)">
      <defs>
       <path id="DejaVuSans-35" d="M 691 4666 
L 3169 4666 
L 3169 4134 
L 1269 4134 
L 1269 2991 
Q 1406 3038 1543 3061 
Q 1681 3084 1819 3084 
Q 2600 3084 3056 2656 
Q 3513 2228 3513 1497 
Q 3513 744 3044 326 
Q 2575 -91 1722 -91 
Q 1428 -91 1123 -41 
Q 819 9 494 109 
L 494 744 
Q 775 591 1075 516 
Q 1375 441 1709 441 
Q 2250 441 2565 725 
Q 2881 1009 2881 1497 
Q 2881 1984 2565 2268 
Q 2250 2553 1709 2553 
Q 1456 2553 1204 2497 
Q 953 2441 691 2322 
L 691 4666 
z
" transform="scale(0.015625)"/>
      </defs>
      <use xlink:href="#DejaVuSans-35"/>
     </g>
    </g>
   </g>
   <g id="xtick_8">
    <g id="line2d_9">
     <path d="M 171.71025 262.422116 
L 169.793518 264.390608 
" style="fill: none; stroke: #000000; stroke-width: 0.8; stroke-linecap: square"/>
    </g>
    <g id="text_9">
     <!-- 6 -->
     <g transform="translate(161.124003 288.725034) scale(0.1 -0.1)">
      <defs>
       <path id="DejaVuSans-36" d="M 2113 2584 
Q 1688 2584 1439 2293 
Q 1191 2003 1191 1497 
Q 1191 994 1439 701 
Q 1688 409 2113 409 
Q 2538 409 2786 701 
Q 3034 994 3034 1497 
Q 3034 2003 2786 2293 
Q 2538 2584 2113 2584 
z
M 3366 4563 
L 3366 3988 
Q 3128 4100 2886 4159 
Q 2644 4219 2406 4219 
Q 1781 4219 1451 3797 
Q 1122 3375 1075 2522 
Q 1259 2794 1537 2939 
Q 1816 3084 2150 3084 
Q 2853 3084 3261 2657 
Q 3669 2231 3669 1497 
Q 3669 778 3244 343 
Q 2819 -91 2113 -91 
Q 1303 -91 875 529 
Q 447 1150 447 2328 
Q 447 3434 972 4092 
Q 1497 4750 2381 4750 
Q 2619 4750 2861 4703 
Q 3103 4656 3366 4563 
z
" transform="scale(0.015625)"/>
      </defs>
      <use xlink:href="#DejaVuSans-36"/>
     </g>
    </g>
   </g>
  </g>
  <g id="axis3d_2">
   <g id="line2d_10">
    <path d="M 247.299674 188.383675 
L 173.947415 264.024759 
" style="fill: none; stroke: #000000; stroke-width: 0.8; stroke-linecap: square"/>
   </g>
   <g id="text_10">
    <!-- y -->
    <g transform="translate(233.680665 258.992768) scale(0.1 -0.1)">
     <defs>
      <path id="DejaVuSans-79" d="M 2059 -325 
Q 1816 -950 1584 -1140 
Q 1353 -1331 966 -1331 
L 506 -1331 
L 506 -850 
L 844 -850 
Q 1081 -850 1212 -737 
Q 1344 -625 1503 -206 
L 1606 56 
L 191 3500 
L 800 3500 
L 1894 763 
L 2988 3500 
L 3597 3500 
L 2059 -325 
z
" transform="scale(0.015625)"/>
     </defs>
     <use xlink:href="#DejaVuSans-79"/>
    </g>
   </g>
   <g id="Line3DCollection_2">
    <path d="M 32.517647 78.732887 
L 38.571502 217.356626 
L 175.537518 262.385039 
" style="fill: none; stroke: #b0b0b0; stroke-width: 0.8"/>
    <path d="M 45.030176 69.701127 
L 50.344216 207.277075 
L 186.29613 251.290724 
" style="fill: none; stroke: #b0b0b0; stroke-width: 0.8"/>
    <path d="M 57.253526 60.878102 
L 61.859319 197.418086 
L 196.807954 240.450897 
" style="fill: none; stroke: #b0b0b0; stroke-width: 0.8"/>
    <path d="M 69.197605 52.256659 
L 73.125174 187.772497 
L 207.081386 229.856902 
" style="fill: none; stroke: #b0b0b0; stroke-width: 0.8"/>
    <path d="M 80.871878 43.829968 
L 84.149789 178.333453 
L 217.124444 219.500468 
" style="fill: none; stroke: #b0b0b0; stroke-width: 0.8"/>
    <path d="M 92.285384 35.591502 
L 94.940829 169.094391 
L 226.944792 209.373695 
" style="fill: none; stroke: #b0b0b0; stroke-width: 0.8"/>
    <path d="M 103.446764 27.535025 
L 105.505639 160.049022 
L 236.549755 199.469026 
" style="fill: none; stroke: #b0b0b0; stroke-width: 0.8"/>
    <path d="M 114.36428 19.654574 
L 115.851261 151.191318 
L 245.946344 189.779234 
" style="fill: none; stroke: #b0b0b0; stroke-width: 0.8"/>
   </g>
   <g id="xtick_9">
    <g id="line2d_11">
     <path d="M 174.388096 262.007159 
L 177.839091 263.141695 
" style="fill: none; stroke: #000000; stroke-width: 0.8; stroke-linecap: square"/>
    </g>
    <g id="text_11">
     <!-- −1 -->
     <g transform="translate(179.934968 285.09549) scale(0.1 -0.1)">
      <use xlink:href="#DejaVuSans-2212"/>
      <use xlink:href="#DejaVuSans-31" x="83.789062"/>
     </g>
    </g>
   </g>
   <g id="xtick_10">
    <g id="line2d_12">
     <path d="M 185.155837 250.921561 
L 188.579393 252.029917 
" style="fill: none; stroke: #000000; stroke-width: 0.8; stroke-linecap: square"/>
    </g>
    <g id="text_12">
     <!-- 0 -->
     <g transform="translate(194.740225 273.832901) scale(0.1 -0.1)">
      <use xlink:href="#DejaVuSans-30"/>
     </g>
    </g>
   </g>
   <g id="xtick_11">
    <g id="line2d_13">
     <path d="M 195.676675 240.090152 
L 199.073136 241.173225 
" style="fill: none; stroke: #000000; stroke-width: 0.8; stroke-linecap: square"/>
    </g>
    <g id="text_13">
     <!-- 1 -->
     <g transform="translate(205.112286 262.8285) scale(0.1 -0.1)">
      <use xlink:href="#DejaVuSans-31"/>
     </g>
    </g>
   </g>
   <g id="xtick_12">
    <g id="line2d_14">
     <path d="M 205.959008 229.504289 
L 209.328716 230.562935 
" style="fill: none; stroke: #000000; stroke-width: 0.8; stroke-linecap: square"/>
    </g>
    <g id="text_14">
     <!-- 2 -->
     <g transform="translate(215.249269 252.07351) scale(0.1 -0.1)">
      <use xlink:href="#DejaVuSans-32"/>
     </g>
    </g>
   </g>
   <g id="xtick_13">
    <g id="line2d_15">
     <path d="M 216.010855 219.155717 
L 219.354148 220.190752 
" style="fill: none; stroke: #000000; stroke-width: 0.8; stroke-linecap: square"/>
    </g>
    <g id="text_15">
     <!-- 3 -->
     <g transform="translate(225.159075 241.559546) scale(0.1 -0.1)">
      <use xlink:href="#DejaVuSans-33"/>
     </g>
    </g>
   </g>
   <g id="xtick_14">
    <g id="line2d_16">
     <path d="M 225.839879 209.036545 
L 229.157094 210.04875 
" style="fill: none; stroke: #000000; stroke-width: 0.8; stroke-linecap: square"/>
    </g>
    <g id="text_16">
     <!-- 4 -->
     <g transform="translate(234.849257 231.278596) scale(0.1 -0.1)">
      <use xlink:href="#DejaVuSans-34"/>
     </g>
    </g>
   </g>
   <g id="xtick_15">
    <g id="line2d_17">
     <path d="M 235.453409 199.139229 
L 238.744879 200.129352 
" style="fill: none; stroke: #000000; stroke-width: 0.8; stroke-linecap: square"/>
    </g>
    <g id="text_17">
     <!-- 5 -->
     <g transform="translate(244.327036 221.222998) scale(0.1 -0.1)">
      <use xlink:href="#DejaVuSans-35"/>
     </g>
    </g>
   </g>
   <g id="xtick_16">
    <g id="line2d_18">
     <path d="M 244.858454 189.456551 
L 248.12451 190.425307 
" style="fill: none; stroke: #000000; stroke-width: 0.8; stroke-linecap: square"/>
    </g>
    <g id="text_18">
     <!-- 6 -->
     <g transform="translate(253.599319 211.385424) scale(0.1 -0.1)">
      <use xlink:href="#DejaVuSans-36"/>
     </g>
    </g>
   </g>
  </g>
  <g id="axis3d_3">
   <g id="line2d_19">
    <path d="M 247.299674 188.383675 
L 253.048471 52.802633 
" style="fill: none; stroke: #000000; stroke-width: 0.8; stroke-linecap: square"/>
   </g>
   <g id="text_19">
    <!-- z -->
    <g transform="translate(284.911397 120.169327) scale(0.1 -0.1)">
     <defs>
      <path id="DejaVuSans-7a" d="M 353 3500 
L 3084 3500 
L 3084 2975 
L 922 459 
L 3084 459 
L 3084 0 
L 275 0 
L 275 525 
L 2438 3041 
L 353 3041 
L 353 3500 
z
" transform="scale(0.015625)"/>
     </defs>
     <use xlink:href="#DejaVuSans-7a"/>
    </g>
   </g>
   <g id="Line3DCollection_3">
    <path d="M 247.408712 185.812104 
L 117.315368 147.416798 
L 36.715905 216.218187 
" style="fill: none; stroke: #b0b0b0; stroke-width: 0.8"/>
    <path d="M 248.162636 168.031371 
L 117.130664 130.150335 
L 35.908756 198.04728 
" style="fill: none; stroke: #b0b0b0; stroke-width: 0.8"/>
    <path d="M 248.927618 149.989841 
L 116.94337 112.641827 
L 35.089352 179.6005 
" style="fill: none; stroke: #b0b0b0; stroke-width: 0.8"/>
    <path d="M 249.703904 131.681734 
L 116.753433 94.886148 
L 34.257414 160.871517 
" style="fill: none; stroke: #b0b0b0; stroke-width: 0.8"/>
    <path d="M 250.491745 113.101097 
L 116.560795 76.878028 
L 33.412649 141.853805 
" style="fill: none; stroke: #b0b0b0; stroke-width: 0.8"/>
    <path d="M 251.291401 94.2418 
L 116.365399 58.612044 
L 32.554761 122.540636 
" style="fill: none; stroke: #b0b0b0; stroke-width: 0.8"/>
    <path d="M 252.103141 75.097526 
L 116.167184 40.082618 
L 31.68344 102.925071 
" style="fill: none; stroke: #b0b0b0; stroke-width: 0.8"/>
    <path d="M 252.92724 55.661767 
L 115.96609 21.284009 
L 30.798369 82.99995 
" style="fill: none; stroke: #b0b0b0; stroke-width: 0.8"/>
   </g>
   <g id="xtick_17">
    <g id="line2d_20">
     <path d="M 246.320862 185.491039 
L 249.586798 186.454936 
" style="fill: none; stroke: #000000; stroke-width: 0.8; stroke-linecap: square"/>
    </g>
    <g id="text_20">
     <!-- −1 -->
     <g transform="translate(256.888536 190.978705) scale(0.1 -0.1)">
      <use xlink:href="#DejaVuSans-2212"/>
      <use xlink:href="#DejaVuSans-31" x="83.789062"/>
     </g>
    </g>
   </g>
   <g id="xtick_18">
    <g id="line2d_21">
     <path d="M 247.066591 167.714507 
L 250.357146 168.665799 
" style="fill: none; stroke: #000000; stroke-width: 0.8; stroke-linecap: square"/>
    </g>
    <g id="text_21">
     <!-- 0 -->
     <g transform="translate(261.952543 173.22983) scale(0.1 -0.1)">
      <use xlink:href="#DejaVuSans-30"/>
     </g>
    </g>
   </g>
   <g id="xtick_19">
    <g id="line2d_22">
     <path d="M 247.823255 149.677336 
L 251.138801 150.615547 
" style="fill: none; stroke: #000000; stroke-width: 0.8; stroke-linecap: square"/>
    </g>
    <g id="text_22">
     <!-- 1 -->
     <g transform="translate(262.839491 155.221356) scale(0.1 -0.1)">
      <use xlink:href="#DejaVuSans-31"/>
     </g>
    </g>
   </g>
   <g id="xtick_20">
    <g id="line2d_23">
     <path d="M 248.591095 131.373751 
L 251.932014 132.298389 
" style="fill: none; stroke: #000000; stroke-width: 0.8; stroke-linecap: square"/>
    </g>
    <g id="text_23">
     <!-- 2 -->
     <g transform="translate(263.739508 136.947545) scale(0.1 -0.1)">
      <use xlink:href="#DejaVuSans-32"/>
     </g>
    </g>
   </g>
   <g id="xtick_21">
    <g id="line2d_24">
     <path d="M 249.370361 112.797807 
L 252.737044 113.708363 
" style="fill: none; stroke: #000000; stroke-width: 0.8; stroke-linecap: square"/>
    </g>
    <g id="text_24">
     <!-- 3 -->
     <g transform="translate(264.652885 118.402489) scale(0.1 -0.1)">
      <use xlink:href="#DejaVuSans-33"/>
     </g>
    </g>
   </g>
   <g id="xtick_22">
    <g id="line2d_25">
     <path d="M 250.161309 93.943378 
L 253.554157 94.839323 
" style="fill: none; stroke: #000000; stroke-width: 0.8; stroke-linecap: square"/>
    </g>
    <g id="text_25">
     <!-- 4 -->
     <g transform="translate(265.57992 99.580103) scale(0.1 -0.1)">
      <use xlink:href="#DejaVuSans-34"/>
     </g>
    </g>
   </g>
   <g id="xtick_23">
    <g id="line2d_26">
     <path d="M 250.964204 74.804154 
L 254.383626 75.684942 
" style="fill: none; stroke: #000000; stroke-width: 0.8; stroke-linecap: square"/>
    </g>
    <g id="text_26">
     <!-- 5 -->
     <g transform="translate(266.520923 80.474121) scale(0.1 -0.1)">
      <use xlink:href="#DejaVuSans-35"/>
     </g>
    </g>
   </g>
   <g id="xtick_24">
    <g id="line2d_27">
     <path d="M 251.779319 55.373634 
L 255.225734 56.238697 
" style="fill: none; stroke: #000000; stroke-width: 0.8; stroke-linecap: square"/>
    </g>
    <g id="text_27">
     <!-- 6 -->
     <g transform="translate(267.476211 61.078083) scale(0.1 -0.1)">
      <use xlink:href="#DejaVuSans-36"/>
     </g>
    </g>
   </g>
  </g>
  <g id="axes_1">
   <g id="Poly3DCollection_1">
    <path d="M 63.075186 196.211854 
L 118.144281 149.071601 
L 120.092993 151.578092 
L 65.138955 198.8533 
z
" clip-path="url(#pad3fc5dfdc)" style="fill: #005e00"/>
    <path d="M 65.138955 198.8533 
L 120.092993 151.578092 
L 122.537645 153.541307 
L 67.699995 200.94386 
z
" clip-path="url(#pad3fc5dfdc)" style="fill: #005300"/>
    <path d="M 61.708045 193.274303 
L 116.879894 146.263781 
L 118.144281 149.071601 
L 63.075186 196.211854 
z
" clip-path="url(#pad3fc5dfdc)" style="fill: #006700"/>
    <path d="M 67.699995 200.94386 
L 122.537645 153.541307 
L 125.242434 154.770922 
L 70.511458 202.281006 
z
" clip-path="url(#pad3fc5dfdc)" style="fill: #004900"/>
    <path d="M 61.170892 190.324165 
L 116.423252 143.425804 
L 116.879894 146.263781 
L 61.708045 193.274303 
z
" clip-path="url(#pad3fc5dfdc)" style="fill: #006e00"/>
    <path d="M 70.511458 202.281006 
L 125.242434 154.770922 
L 127.945899 155.146161 
L 73.301718 202.733481 
z
" clip-path="url(#pad3fc5dfdc)" style="fill: #004000"/>
    <path d="M 61.518213 187.647471 
L 116.820872 140.832917 
L 116.423252 143.425804 
L 61.170892 190.324165 
z
" clip-path="url(#pad3fc5dfdc)" style="fill: #007300"/>
    <path d="M 73.301718 202.733481 
L 127.945899 155.146161 
L 130.385263 154.627772 
L 75.799597 202.25428 
z
" clip-path="url(#pad3fc5dfdc)" style="fill: #003800"/>
    <path d="M 62.719579 185.505812 
L 118.037126 138.738471 
L 116.820872 140.832917 
L 61.518213 187.647471 
z
" clip-path="url(#pad3fc5dfdc)" style="fill: #007500"/>
    <path d="M 75.799597 202.25428 
L 130.385263 154.627772 
L 132.321438 153.262811 
L 77.760166 200.886271 
z
" clip-path="url(#pad3fc5dfdc)" style="fill: #003400"/>
    <path d="M 64.661271 184.110911 
L 119.956487 137.349312 
L 118.037126 138.738471 
L 62.719579 185.505812 
z
" clip-path="url(#pad3fc5dfdc)" style="fill: #007300"/>
    <path d="M 77.760166 200.886271 
L 132.321438 153.262811 
L 133.562535 151.181442 
L 78.988856 198.759534 
z
" clip-path="url(#pad3fc5dfdc)" style="fill: #003200"/>
    <path d="M 67.155932 183.603118 
L 122.393487 136.804844 
L 119.956487 137.349312 
L 64.661271 184.110911 
z
" clip-path="url(#pad3fc5dfdc)" style="fill: #006e00"/>
    <path d="M 78.988856 198.759534 
L 133.562535 151.181442 
L 133.983537 148.585514 
L 79.361514 196.080091 
z
" clip-path="url(#pad3fc5dfdc)" style="fill: #003300"/>
    <path d="M 69.959861 184.036222 
L 125.109943 137.162087 
L 122.393487 136.804844 
L 67.155932 183.603118 
z
" clip-path="url(#pad3fc5dfdc)" style="fill: #006700"/>
    <path d="M 79.361514 196.080091 
L 133.983537 148.585514 
L 133.539887 145.729541 
L 78.838031 193.110583 
z
" clip-path="url(#pad3fc5dfdc)" style="fill: #003800"/>
    <path d="M 72.796661 185.370618 
L 127.838115 138.38866 
L 125.109943 137.162087 
L 69.959861 184.036222 
z
" clip-path="url(#pad3fc5dfdc)" style="fill: #005d00"/>
    <path d="M 78.838031 193.110583 
L 133.539887 145.729541 
L 132.273136 142.895642 
L 77.467672 190.14444 
z
" clip-path="url(#pad3fc5dfdc)" style="fill: #003f00"/>
    <path d="M 75.385026 187.476101 
L 130.30761 140.364952 
L 127.838115 138.38866 
L 72.796661 185.370618 
z
" clip-path="url(#pad3fc5dfdc)" style="fill: #005300"/>
    <path d="M 77.467672 190.14444 
L 132.273136 142.895642 
L 130.30761 140.364952 
L 75.385026 187.476101 
z
" clip-path="url(#pad3fc5dfdc)" style="fill: #004900"/>
   </g>
   <g id="Poly3DCollection_2">
    <path d="M 214.215592 167.18606 
L 216.870985 74.314904 
L 220.271283 74.397127 
L 217.491949 167.274872 
z
" clip-path="url(#pad3fc5dfdc)" style="fill: #8c008c"/>
    <path d="M 211.088172 167.625444 
L 213.626885 74.721695 
L 216.870985 74.314904 
L 214.215592 167.18606 
z
" clip-path="url(#pad3fc5dfdc)" style="fill: #a600a6"/>
    <path d="M 217.491949 167.274872 
L 220.271283 74.397127 
L 223.501164 74.960616 
L 220.602313 167.883499 
z
" clip-path="url(#pad3fc5dfdc)" style="fill: #740074"/>
    <path d="M 208.410922 168.551515 
L 210.851267 75.579124 
L 213.626885 74.721695 
L 211.088172 167.625444 
z
" clip-path="url(#pad3fc5dfdc)" style="fill: #c000c0"/>
    <path d="M 220.602313 167.883499 
L 223.501164 74.960616 
L 226.249306 75.952148 
L 223.246708 168.954378 
z
" clip-path="url(#pad3fc5dfdc)" style="fill: #620062"/>
    <path d="M 206.443745 169.876379 
L 208.813503 76.805908 
L 210.851267 75.579124 
L 208.410922 168.551515 
z
" clip-path="url(#pad3fc5dfdc)" style="fill: #d700d7"/>
    <path d="M 223.246708 168.954378 
L 226.249306 75.952148 
L 228.248324 77.277506 
L 225.167779 170.38564 
z
" clip-path="url(#pad3fc5dfdc)" style="fill: #560056"/>
    <path d="M 205.380606 171.473323 
L 207.714583 78.284819 
L 208.813503 76.805908 
L 206.443745 169.876379 
z
" clip-path="url(#pad3fc5dfdc)" style="fill: #ea00ea"/>
    <path d="M 225.167779 170.38564 
L 228.248324 77.277506 
L 229.300307 78.809633 
L 226.175393 172.039969 
z
" clip-path="url(#pad3fc5dfdc)" style="fill: #520052"/>
    <path d="M 205.330035 173.188087 
L 207.66689 79.873071 
L 207.714583 78.284819 
L 205.380606 171.473323 
z
" clip-path="url(#pad3fc5dfdc)" style="fill: #f600f6"/>
    <path d="M 226.175393 172.039969 
L 229.300307 78.809633 
L 229.297014 80.400048 
L 226.166024 173.756982 
z
" clip-path="url(#pad3fc5dfdc)" style="fill: #560056"/>
    <path d="M 206.302825 174.853173 
L 208.68139 81.41554 
L 207.66689 79.873071 
L 205.330035 173.188087 
z
" clip-path="url(#pad3fc5dfdc)" style="fill: #fa00fa"/>
    <path d="M 226.166024 173.756982 
L 229.297014 80.400048 
L 228.232453 81.892798 
L 225.13473 175.368321 
z
" clip-path="url(#pad3fc5dfdc)" style="fill: #620062"/>
    <path d="M 208.208751 176.304089 
L 210.664157 82.759794 
L 208.68139 81.41554 
L 206.302825 174.853173 
z
" clip-path="url(#pad3fc5dfdc)" style="fill: #f600f6"/>
    <path d="M 225.13473 175.368321 
L 228.232453 81.892798 
L 226.205882 83.139815 
L 223.177875 176.71423 
z
" clip-path="url(#pad3fc5dfdc)" style="fill: #740074"/>
    <path d="M 210.863467 177.396012 
L 213.42349 83.771559 
L 210.664157 82.759794 
L 208.208751 176.304089 
z
" clip-path="url(#pad3fc5dfdc)" style="fill: #ea00ea"/>
    <path d="M 223.177875 176.71423 
L 226.205882 83.139815 
L 223.414014 84.016141 
L 220.485482 177.659956 
z
" clip-path="url(#pad3fc5dfdc)" style="fill: #8c008c"/>
    <path d="M 214.005675 178.019036 
L 216.68773 84.34889 
L 213.42349 83.771559 
L 210.863467 177.396012 
z
" clip-path="url(#pad3fc5dfdc)" style="fill: #d700d7"/>
    <path d="M 220.485482 177.659956 
L 223.414014 84.016141 
L 220.13243 84.433275 
L 217.323236 178.110097 
z
" clip-path="url(#pad3fc5dfdc)" style="fill: #a600a6"/>
    <path d="M 217.323236 178.110097 
L 220.13243 84.433275 
L 216.68773 84.34889 
L 214.005675 178.019036 
z
" clip-path="url(#pad3fc5dfdc)" style="fill: #c000c0"/>
   </g>
   <g id="Poly3DCollection_3">
    <path d="M 70.672002 190.810922 
L 217.833547 77.770075 
L 219.900008 80.462014 
L 72.70873 193.467448 
z
" clip-path="url(#pad3fc5dfdc)" style="fill: #7e6a00"/>
    <path d="M 68.591531 188.384164 
L 215.82956 75.228982 
L 217.833547 77.770075 
L 70.672002 190.810922 
z
" clip-path="url(#pad3fc5dfdc)" style="fill: #937c00"/>
    <path d="M 72.70873 193.467448 
L 219.900008 80.462014 
L 221.831013 83.046963 
L 74.50657 196.099224 
z
" clip-path="url(#pad3fc5dfdc)" style="fill: #6d5c00"/>
    <path d="M 66.666966 186.420629 
L 214.08052 73.082943 
L 215.82956 75.228982 
L 68.591531 188.384164 
z
" clip-path="url(#pad3fc5dfdc)" style="fill: #aa8f00"/>
    <path d="M 74.50657 196.099224 
L 221.831013 83.046963 
L 223.440916 85.276564 
L 75.892398 198.453505 
z
" clip-path="url(#pad3fc5dfdc)" style="fill: #625200"/>
    <path d="M 65.084426 185.111403 
L 212.755996 71.540346 
L 214.08052 73.082943 
L 66.666966 186.420629 
z
" clip-path="url(#pad3fc5dfdc)" style="fill: #c0a200"/>
    <path d="M 75.892398 198.453505 
L 223.440916 85.276564 
L 224.573252 86.934487 
L 76.730975 200.302227 
z
" clip-path="url(#pad3fc5dfdc)" style="fill: #5d4e00"/>
    <path d="M 63.999151 184.586939 
L 211.986685 70.754007 
L 212.755996 71.540346 
L 65.084426 185.111403 
z
" clip-path="url(#pad3fc5dfdc)" style="fill: #d4b200"/>
    <path d="M 76.730975 200.302227 
L 224.573252 86.934487 
L 225.115618 87.856862 
L 76.938009 201.463409 
z
" clip-path="url(#pad3fc5dfdc)" style="fill: #5f5000"/>
    <path d="M 63.520203 184.903444 
L 211.851247 70.805559 
L 211.986685 70.754007 
L 63.999151 184.586939 
z
" clip-path="url(#pad3fc5dfdc)" style="fill: #e3bf00"/>
    <path d="M 76.938009 201.463409 
L 225.115618 87.856862 
L 225.011239 87.94889 
L 76.489226 201.819324 
z
" clip-path="url(#pad3fc5dfdc)" style="fill: #695800"/>
    <path d="M 63.698736 186.035541 
L 212.367347 71.695705 
L 211.851247 70.805559 
L 63.520203 184.903444 
z
" clip-path="url(#pad3fc5dfdc)" style="fill: #ecc700"/>
    <path d="M 76.489226 201.819324 
L 225.011239 87.94889 
L 224.265918 87.195816 
L 75.424259 201.329544 
z
" clip-path="url(#pad3fc5dfdc)" style="fill: #786500"/>
    <path d="M 64.521361 187.876613 
L 213.488244 73.341957 
L 212.367347 71.695705 
L 63.698736 186.035541 
z
" clip-path="url(#pad3fc5dfdc)" style="fill: #efc900"/>
    <path d="M 75.424259 201.329544 
L 224.265918 87.195816 
L 222.949152 85.666565 
L 73.844413 200.037028 
z
" clip-path="url(#pad3fc5dfdc)" style="fill: #8c7600"/>
    <path d="M 65.909882 190.247603 
L 215.105903 75.584903 
L 213.488244 73.341957 
L 64.521361 187.876613 
z
" clip-path="url(#pad3fc5dfdc)" style="fill: #eac500"/>
    <path d="M 73.844413 200.037028 
L 222.949152 85.666565 
L 221.188674 83.508857 
L 71.903897 198.065846 
z
" clip-path="url(#pad3fc5dfdc)" style="fill: #a28900"/>
    <path d="M 67.72803 192.914063 
L 217.060899 78.203116 
L 215.105903 75.584903 
L 65.909882 190.247603 
z
" clip-path="url(#pad3fc5dfdc)" style="fill: #debb00"/>
    <path d="M 71.903897 198.065846 
L 221.188674 83.508857 
L 219.15842 80.935534 
L 69.794925 195.610002 
z
" clip-path="url(#pad3fc5dfdc)" style="fill: #b99c00"/>
    <path d="M 69.794925 195.610002 
L 219.15842 80.935534 
L 217.060899 78.203116 
L 67.72803 192.914063 
z
" clip-path="url(#pad3fc5dfdc)" style="fill: #cdad00"/>
   </g>
   <g id="Poly3DCollection_4">
    <path d="M 75.804425 191.283386 
L 169.364422 220.765606 
L 168.572334 224.095408 
L 75.060741 194.513086 
z
" clip-path="url(#pad3fc5dfdc)" style="fill: #630000"/>
    <path d="M 75.060741 194.513086 
L 168.572334 224.095408 
L 167.358665 227.313147 
L 73.847693 197.6149 
z
" clip-path="url(#pad3fc5dfdc)" style="fill: #670000"/>
    <path d="M 76.006981 188.235921 
L 169.65859 217.643281 
L 169.364422 220.765606 
L 75.804425 191.283386 
z
" clip-path="url(#pad3fc5dfdc)" style="fill: #660000"/>
    <path d="M 73.847693 197.6149 
L 167.358665 227.313147 
L 165.839453 230.109659 
L 72.281291 200.290599 
z
" clip-path="url(#pad3fc5dfdc)" style="fill: #700000"/>
    <path d="M 75.647523 185.66462 
L 169.425212 215.029487 
L 169.65859 217.643281 
L 76.006981 188.235921 
z
" clip-path="url(#pad3fc5dfdc)" style="fill: #700000"/>
    <path d="M 72.281291 200.290599 
L 165.839453 230.109659 
L 164.16011 232.214237 
L 70.511458 202.281006 
z
" clip-path="url(#pad3fc5dfdc)" style="fill: #7f0000"/>
    <path d="M 74.758479 183.820103 
L 168.684585 213.179054 
L 169.425212 215.029487 
L 75.647523 185.66462 
z
" clip-path="url(#pad3fc5dfdc)" style="fill: #7e0000"/>
    <path d="M 70.511458 202.281006 
L 164.16011 232.214237 
L 162.482432 233.419962 
L 68.708643 203.390318 
z
" clip-path="url(#pad3fc5dfdc)" style="fill: #920000"/>
    <path d="M 73.423453 182.885582 
L 167.505895 212.27606 
L 168.684585 213.179054 
L 74.758479 183.820103 
z
" clip-path="url(#pad3fc5dfdc)" style="fill: #910000"/>
    <path d="M 68.708643 203.390318 
L 162.482432 233.419962 
L 160.969753 233.604279 
L 67.048198 203.505612 
z
" clip-path="url(#pad3fc5dfdc)" style="fill: #a60000"/>
    <path d="M 71.770335 182.957943 
L 166.001698 212.414724 
L 167.505895 212.27606 
L 73.423453 182.885582 
z
" clip-path="url(#pad3fc5dfdc)" style="fill: #a50000"/>
    <path d="M 67.048198 203.505612 
L 160.969753 233.604279 
L 159.771306 232.742685 
L 65.693656 202.609525 
z
" clip-path="url(#pad3fc5dfdc)" style="fill: #bb0000"/>
    <path d="M 69.959861 184.036222 
L 164.317989 213.58798 
L 166.001698 212.414724 
L 71.770335 182.957943 
z
" clip-path="url(#pad3fc5dfdc)" style="fill: #ba0000"/>
    <path d="M 65.693656 202.609525 
L 159.771306 232.742685 
L 159.007194 230.913587 
L 64.780364 200.784265 
z
" clip-path="url(#pad3fc5dfdc)" style="fill: #cd0000"/>
    <path d="M 68.170308 186.01935 
L 162.620402 215.685674 
L 164.317989 213.58798 
L 69.959861 184.036222 
z
" clip-path="url(#pad3fc5dfdc)" style="fill: #cc0000"/>
    <path d="M 64.780364 200.784265 
L 159.007194 230.913587 
L 158.755572 228.292911 
L 64.401185 198.205686 
z
" clip-path="url(#pad3fc5dfdc)" style="fill: #dc0000"/>
    <path d="M 66.579656 188.714304 
L 161.077704 218.50352 
L 162.620402 215.685674 
L 68.170308 186.01935 
z
" clip-path="url(#pad3fc5dfdc)" style="fill: #db0000"/>
    <path d="M 64.401185 198.205686 
L 158.755572 228.292911 
L 159.043706 225.138118 
L 64.596081 195.127189 
z
" clip-path="url(#pad3fc5dfdc)" style="fill: #e50000"/>
    <path d="M 65.347093 191.854554 
L 159.844277 221.76266 
L 161.077704 218.50352 
L 66.579656 188.714304 
z
" clip-path="url(#pad3fc5dfdc)" style="fill: #e50000"/>
    <path d="M 64.596081 195.127189 
L 159.043706 225.138118 
L 159.844277 221.76266 
L 65.347093 191.854554 
z
" clip-path="url(#pad3fc5dfdc)" style="fill: #e80000"/>
   </g>
   <g id="Poly3DCollection_5">
    <path d="M 69.589332 187.505162 
L 66.718092 93.143195 
L 70.185279 93.229499 
L 72.927746 187.598215 
z
" clip-path="url(#pad3fc5dfdc)" style="fill: #00008c"/>
    <path d="M 66.312522 187.965534 
L 63.312963 93.570179 
L 66.718092 93.143195 
L 69.589332 187.505162 
z
" clip-path="url(#pad3fc5dfdc)" style="fill: #0000a6"/>
    <path d="M 72.927746 187.598215 
L 70.185279 93.229499 
L 73.381609 93.820964 
L 76.006981 188.235921 
z
" clip-path="url(#pad3fc5dfdc)" style="fill: #000074"/>
    <path d="M 63.412674 188.935877 
L 60.29738 94.470204 
L 63.312963 93.570179 
L 66.312522 187.965534 
z
" clip-path="url(#pad3fc5dfdc)" style="fill: #0000c0"/>
    <path d="M 76.006981 188.235921 
L 73.381609 93.820964 
L 75.998888 94.861776 
L 78.529969 189.358016 
z
" clip-path="url(#pad3fc5dfdc)" style="fill: #000062"/>
    <path d="M 61.170892 190.324165 
L 57.963546 95.758021 
L 60.29738 94.470204 
L 63.412674 188.935877 
z
" clip-path="url(#pad3fc5dfdc)" style="fill: #0000d7"/>
    <path d="M 78.529969 189.358016 
L 75.998888 94.861776 
L 77.78204 96.253107 
L 80.250791 190.857832 
z
" clip-path="url(#pad3fc5dfdc)" style="fill: #000056"/>
    <path d="M 59.807562 191.997691 
L 56.54092 97.31064 
L 57.963546 95.758021 
L 61.170892 190.324165 
z
" clip-path="url(#pad3fc5dfdc)" style="fill: #0000ea"/>
    <path d="M 80.250791 190.857832 
L 77.78204 96.253107 
L 78.553626 97.861647 
L 80.998327 192.591547 
z
" clip-path="url(#pad3fc5dfdc)" style="fill: #000052"/>
    <path d="M 59.46045 193.79485 
L 56.173402 98.978215 
L 56.54092 97.31064 
L 59.807562 191.997691 
z
" clip-path="url(#pad3fc5dfdc)" style="fill: #0000f6"/>
    <path d="M 80.998327 192.591547 
L 78.553626 97.861647 
L 78.232283 99.531548 
L 80.694003 194.391119 
z
" clip-path="url(#pad3fc5dfdc)" style="fill: #000056"/>
    <path d="M 60.169595 195.540107 
L 56.903509 100.597881 
L 56.173402 98.978215 
L 59.46045 193.79485 
z
" clip-path="url(#pad3fc5dfdc)" style="fill: #0000fa"/>
    <path d="M 80.694003 194.391119 
L 78.232283 99.531548 
L 76.842891 101.099058 
L 79.361514 196.080091 
z
" clip-path="url(#pad3fc5dfdc)" style="fill: #000062"/>
    <path d="M 61.871084 197.061011 
L 58.665721 102.009543 
L 56.903509 100.597881 
L 60.169595 195.540107 
z
" clip-path="url(#pad3fc5dfdc)" style="fill: #0000f6"/>
    <path d="M 79.361514 196.080091 
L 76.842891 101.099058 
L 74.516657 102.408642 
L 77.126846 197.490958 
z
" clip-path="url(#pad3fc5dfdc)" style="fill: #000074"/>
    <path d="M 64.401185 198.205686 
L 61.290598 103.072122 
L 58.665721 102.009543 
L 61.871084 197.061011 
z
" clip-path="url(#pad3fc5dfdc)" style="fill: #0000ea"/>
    <path d="M 77.126846 197.490958 
L 74.516657 102.408642 
L 71.480135 103.328998 
L 74.207667 198.482391 
z
" clip-path="url(#pad3fc5dfdc)" style="fill: #00008c"/>
    <path d="M 67.511261 198.858839 
L 64.520162 103.67848 
L 61.290598 103.072122 
L 64.401185 198.205686 
z
" clip-path="url(#pad3fc5dfdc)" style="fill: #0000d7"/>
    <path d="M 74.207667 198.482391 
L 71.480135 103.328998 
L 68.033526 103.767109 
L 70.892464 198.954305 
z
" clip-path="url(#pad3fc5dfdc)" style="fill: #0000a6"/>
    <path d="M 70.892464 198.954305 
L 68.033526 103.767109 
L 64.520162 103.67848 
L 67.511261 198.858839 
z
" clip-path="url(#pad3fc5dfdc)" style="fill: #0000c0"/>
   </g>
  </g>
 </g>
 <defs>
  <clipPath id="pad3fc5dfdc">
   <rect x="7.2" y="7.2" width="266.112" height="266.112"/>
  </clipPath>
 </defs>
</svg>
