<?xml version="1.0" encoding="utf-8" standalone="no"?>
<!DOCTYPE svg PUBLIC "-//W3C//DTD SVG 1.1//EN"
  "http://www.w3.org/Graphics/SVG/1.1/DTD/svg11.dtd">
<svg xmlns:xlink="http://www.w3.org/1999/xlink" width="402.374687pt" height="300.989344pt" viewBox="0 0 402.374687 300.989344" xmlns="http://www.w3.org/2000/svg" version="1.1">
 <metadata>
  <rdf:RDF xmlns:dc="http://purl.org/dc/elements/1.1/" xmlns:cc="http://creativecommons.org/ns#" xmlns:rdf="http://www.w3.org/1999/02/22-rdf-syntax-ns#">
   <cc:Work>
    <dc:type rdf:resource="http://purl.org/dc/dcmitype/StillImage"/>
    <dc:date>2024-04-26T18:13:15.525833</dc:date>
    <dc:format>image/svg+xml</dc:format>
    <dc:creator>
     <cc:Agent>
      <dc:title>Matplotlib v3.6.3, https://matplotlib.org/</dc:title>
     </cc:Agent>
    </dc:creator>
   </cc:Work>
  </rdf:RDF>
 </metadata>
 <defs>
  <style type="text/css">*{stroke-linejoin: round; stroke-linecap: butt}</style>
 </defs>
 <g id="figure_1">
  <g id="patch_1">
   <path d="M 0 300.989344 
L 402.374687 300.989344 
L 402.374687 0 
L 0 0 
z
" style="fill: #ffffff"/>
  </g>
  <g id="axes_1">
   <g id="patch_2">
    <path d="M 30.103125 277.111219 
L 387.223125 277.111219 
L 387.223125 10.999219 
L 30.103125 10.999219 
z
" style="fill: #ffffff"/>
   </g>
   <g id="matplotlib.axis_1">
    <g id="xtick_1">
     <g id="line2d_1">
      <defs>
       <path id="mf53d8dc478" d="M 0 0 
L 0 3.5 
" style="stroke: #000000; stroke-width: 0.8"/>
      </defs>
      <g>
       <use xlink:href="#mf53d8dc478" x="30.103125" y="277.111219" style="stroke: #000000; stroke-width: 0.8"/>
      </g>
     </g>
     <g id="text_1">
      <!-- 0.0 -->
      <g transform="translate(22.151563 291.709656) scale(0.1 -0.1)">
       <defs>
        <path id="DejaVuSans-30" d="M 2034 4250 
Q 1547 4250 1301 3770 
Q 1056 3291 1056 2328 
Q 1056 1369 1301 889 
Q 1547 409 2034 409 
Q 2525 409 2770 889 
Q 3016 1369 3016 2328 
Q 3016 3291 2770 3770 
Q 2525 4250 2034 4250 
z
M 2034 4750 
Q 2819 4750 3233 4129 
Q 3647 3509 3647 2328 
Q 3647 1150 3233 529 
Q 2819 -91 2034 -91 
Q 1250 -91 836 529 
Q 422 1150 422 2328 
Q 422 3509 836 4129 
Q 1250 4750 2034 4750 
z
" transform="scale(0.015625)"/>
        <path id="DejaVuSans-2e" d="M 684 794 
L 1344 794 
L 1344 0 
L 684 0 
L 684 794 
z
" transform="scale(0.015625)"/>
       </defs>
       <use xlink:href="#DejaVuSans-30"/>
       <use xlink:href="#DejaVuSans-2e" x="63.623047"/>
       <use xlink:href="#DejaVuSans-30" x="95.410156"/>
      </g>
     </g>
    </g>
    <g id="xtick_2">
     <g id="line2d_2">
      <g>
       <use xlink:href="#mf53d8dc478" x="101.527125" y="277.111219" style="stroke: #000000; stroke-width: 0.8"/>
      </g>
     </g>
     <g id="text_2">
      <!-- 0.2 -->
      <g transform="translate(93.575563 291.709656) scale(0.1 -0.1)">
       <defs>
        <path id="DejaVuSans-32" d="M 1228 531 
L 3431 531 
L 3431 0 
L 469 0 
L 469 531 
Q 828 903 1448 1529 
Q 2069 2156 2228 2338 
Q 2531 2678 2651 2914 
Q 2772 3150 2772 3378 
Q 2772 3750 2511 3984 
Q 2250 4219 1831 4219 
Q 1534 4219 1204 4116 
Q 875 4013 500 3803 
L 500 4441 
Q 881 4594 1212 4672 
Q 1544 4750 1819 4750 
Q 2544 4750 2975 4387 
Q 3406 4025 3406 3419 
Q 3406 3131 3298 2873 
Q 3191 2616 2906 2266 
Q 2828 2175 2409 1742 
Q 1991 1309 1228 531 
z
" transform="scale(0.015625)"/>
       </defs>
       <use xlink:href="#DejaVuSans-30"/>
       <use xlink:href="#DejaVuSans-2e" x="63.623047"/>
       <use xlink:href="#DejaVuSans-32" x="95.410156"/>
      </g>
     </g>
    </g>
    <g id="xtick_3">
     <g id="line2d_3">
      <g>
       <use xlink:href="#mf53d8dc478" x="172.951125" y="277.111219" style="stroke: #000000; stroke-width: 0.8"/>
      </g>
     </g>
     <g id="text_3">
      <!-- 0.4 -->
      <g transform="translate(164.999563 291.709656) scale(0.1 -0.1)">
       <defs>
        <path id="DejaVuSans-34" d="M 2419 4116 
L 825 1625 
L 2419 1625 
L 2419 4116 
z
M 2253 4666 
L 3047 4666 
L 3047 1625 
L 3713 1625 
L 3713 1100 
L 3047 1100 
L 3047 0 
L 2419 0 
L 2419 1100 
L 313 1100 
L 313 1709 
L 2253 4666 
z
" transform="scale(0.015625)"/>
       </defs>
       <use xlink:href="#DejaVuSans-30"/>
       <use xlink:href="#DejaVuSans-2e" x="63.623047"/>
       <use xlink:href="#DejaVuSans-34" x="95.410156"/>
      </g>
     </g>
    </g>
    <g id="xtick_4">
     <g id="line2d_4">
      <g>
       <use xlink:href="#mf53d8dc478" x="244.375125" y="277.111219" style="stroke: #000000; stroke-width: 0.8"/>
      </g>
     </g>
     <g id="text_4">
      <!-- 0.6 -->
      <g transform="translate(236.423563 291.709656) scale(0.1 -0.1)">
       <defs>
        <path id="DejaVuSans-36" d="M 2113 2584 
Q 1688 2584 1439 2293 
Q 1191 2003 1191 1497 
Q 1191 994 1439 701 
Q 1688 409 2113 409 
Q 2538 409 2786 701 
Q 3034 994 3034 1497 
Q 3034 2003 2786 2293 
Q 2538 2584 2113 2584 
z
M 3366 4563 
L 3366 3988 
Q 3128 4100 2886 4159 
Q 2644 4219 2406 4219 
Q 1781 4219 1451 3797 
Q 1122 3375 1075 2522 
Q 1259 2794 1537 2939 
Q 1816 3084 2150 3084 
Q 2853 3084 3261 2657 
Q 3669 2231 3669 1497 
Q 3669 778 3244 343 
Q 2819 -91 2113 -91 
Q 1303 -91 875 529 
Q 447 1150 447 2328 
Q 447 3434 972 4092 
Q 1497 4750 2381 4750 
Q 2619 4750 2861 4703 
Q 3103 4656 3366 4563 
z
" transform="scale(0.015625)"/>
       </defs>
       <use xlink:href="#DejaVuSans-30"/>
       <use xlink:href="#DejaVuSans-2e" x="63.623047"/>
       <use xlink:href="#DejaVuSans-36" x="95.410156"/>
      </g>
     </g>
    </g>
    <g id="xtick_5">
     <g id="line2d_5">
      <g>
       <use xlink:href="#mf53d8dc478" x="315.799125" y="277.111219" style="stroke: #000000; stroke-width: 0.8"/>
      </g>
     </g>
     <g id="text_5">
      <!-- 0.8 -->
      <g transform="translate(307.847562 291.709656) scale(0.1 -0.1)">
       <defs>
        <path id="DejaVuSans-38" d="M 2034 2216 
Q 1584 2216 1326 1975 
Q 1069 1734 1069 1313 
Q 1069 891 1326 650 
Q 1584 409 2034 409 
Q 2484 409 2743 651 
Q 3003 894 3003 1313 
Q 3003 1734 2745 1975 
Q 2488 2216 2034 2216 
z
M 1403 2484 
Q 997 2584 770 2862 
Q 544 3141 544 3541 
Q 544 4100 942 4425 
Q 1341 4750 2034 4750 
Q 2731 4750 3128 4425 
Q 3525 4100 3525 3541 
Q 3525 3141 3298 2862 
Q 3072 2584 2669 2484 
Q 3125 2378 3379 2068 
Q 3634 1759 3634 1313 
Q 3634 634 3220 271 
Q 2806 -91 2034 -91 
Q 1263 -91 848 271 
Q 434 634 434 1313 
Q 434 1759 690 2068 
Q 947 2378 1403 2484 
z
M 1172 3481 
Q 1172 3119 1398 2916 
Q 1625 2713 2034 2713 
Q 2441 2713 2670 2916 
Q 2900 3119 2900 3481 
Q 2900 3844 2670 4047 
Q 2441 4250 2034 4250 
Q 1625 4250 1398 4047 
Q 1172 3844 1172 3481 
z
" transform="scale(0.015625)"/>
       </defs>
       <use xlink:href="#DejaVuSans-30"/>
       <use xlink:href="#DejaVuSans-2e" x="63.623047"/>
       <use xlink:href="#DejaVuSans-38" x="95.410156"/>
      </g>
     </g>
    </g>
    <g id="xtick_6">
     <g id="line2d_6">
      <g>
       <use xlink:href="#mf53d8dc478" x="387.223125" y="277.111219" style="stroke: #000000; stroke-width: 0.8"/>
      </g>
     </g>
     <g id="text_6">
      <!-- 1.0 -->
      <g transform="translate(379.271562 291.709656) scale(0.1 -0.1)">
       <defs>
        <path id="DejaVuSans-31" d="M 794 531 
L 1825 531 
L 1825 4091 
L 703 3866 
L 703 4441 
L 1819 4666 
L 2450 4666 
L 2450 531 
L 3481 531 
L 3481 0 
L 794 0 
L 794 531 
z
" transform="scale(0.015625)"/>
       </defs>
       <use xlink:href="#DejaVuSans-31"/>
       <use xlink:href="#DejaVuSans-2e" x="63.623047"/>
       <use xlink:href="#DejaVuSans-30" x="95.410156"/>
      </g>
     </g>
    </g>
   </g>
   <g id="matplotlib.axis_2">
    <g id="ytick_1">
     <g id="line2d_7">
      <defs>
       <path id="ma32321ee0b" d="M 0 0 
L -3.5 0 
" style="stroke: #000000; stroke-width: 0.8"/>
      </defs>
      <g>
       <use xlink:href="#ma32321ee0b" x="30.103125" y="277.111219" style="stroke: #000000; stroke-width: 0.8"/>
      </g>
     </g>
     <g id="text_7">
      <!-- 0.0 -->
      <g transform="translate(7.2 280.910437) scale(0.1 -0.1)">
       <use xlink:href="#DejaVuSans-30"/>
       <use xlink:href="#DejaVuSans-2e" x="63.623047"/>
       <use xlink:href="#DejaVuSans-30" x="95.410156"/>
      </g>
     </g>
    </g>
    <g id="ytick_2">
     <g id="line2d_8">
      <g>
       <use xlink:href="#ma32321ee0b" x="30.103125" y="223.888819" style="stroke: #000000; stroke-width: 0.8"/>
      </g>
     </g>
     <g id="text_8">
      <!-- 0.2 -->
      <g transform="translate(7.2 227.688037) scale(0.1 -0.1)">
       <use xlink:href="#DejaVuSans-30"/>
       <use xlink:href="#DejaVuSans-2e" x="63.623047"/>
       <use xlink:href="#DejaVuSans-32" x="95.410156"/>
      </g>
     </g>
    </g>
    <g id="ytick_3">
     <g id="line2d_9">
      <g>
       <use xlink:href="#ma32321ee0b" x="30.103125" y="170.666419" style="stroke: #000000; stroke-width: 0.8"/>
      </g>
     </g>
     <g id="text_9">
      <!-- 0.4 -->
      <g transform="translate(7.2 174.465637) scale(0.1 -0.1)">
       <use xlink:href="#DejaVuSans-30"/>
       <use xlink:href="#DejaVuSans-2e" x="63.623047"/>
       <use xlink:href="#DejaVuSans-34" x="95.410156"/>
      </g>
     </g>
    </g>
    <g id="ytick_4">
     <g id="line2d_10">
      <g>
       <use xlink:href="#ma32321ee0b" x="30.103125" y="117.444019" style="stroke: #000000; stroke-width: 0.8"/>
      </g>
     </g>
     <g id="text_10">
      <!-- 0.6 -->
      <g transform="translate(7.2 121.243237) scale(0.1 -0.1)">
       <use xlink:href="#DejaVuSans-30"/>
       <use xlink:href="#DejaVuSans-2e" x="63.623047"/>
       <use xlink:href="#DejaVuSans-36" x="95.410156"/>
      </g>
     </g>
    </g>
    <g id="ytick_5">
     <g id="line2d_11">
      <g>
       <use xlink:href="#ma32321ee0b" x="30.103125" y="64.221619" style="stroke: #000000; stroke-width: 0.8"/>
      </g>
     </g>
     <g id="text_11">
      <!-- 0.8 -->
      <g transform="translate(7.2 68.020837) scale(0.1 -0.1)">
       <use xlink:href="#DejaVuSans-30"/>
       <use xlink:href="#DejaVuSans-2e" x="63.623047"/>
       <use xlink:href="#DejaVuSans-38" x="95.410156"/>
      </g>
     </g>
    </g>
    <g id="ytick_6">
     <g id="line2d_12">
      <g>
       <use xlink:href="#ma32321ee0b" x="30.103125" y="10.999219" style="stroke: #000000; stroke-width: 0.8"/>
      </g>
     </g>
     <g id="text_12">
      <!-- 1.0 -->
      <g transform="translate(7.2 14.798437) scale(0.1 -0.1)">
       <use xlink:href="#DejaVuSans-31"/>
       <use xlink:href="#DejaVuSans-2e" x="63.623047"/>
       <use xlink:href="#DejaVuSans-30" x="95.410156"/>
      </g>
     </g>
    </g>
   </g>
   <g id="patch_3">
    <path d="M 30.103125 277.111219 
L 30.103125 10.999219 
" style="fill: none; stroke: #000000; stroke-width: 0.8; stroke-linejoin: miter; stroke-linecap: square"/>
   </g>
   <g id="patch_4">
    <path d="M 387.223125 277.111219 
L 387.223125 10.999219 
" style="fill: none; stroke: #000000; stroke-width: 0.8; stroke-linejoin: miter; stroke-linecap: square"/>
   </g>
   <g id="patch_5">
    <path d="M 30.103125 277.111219 
L 387.223125 277.111219 
" style="fill: none; stroke: #000000; stroke-width: 0.8; stroke-linejoin: miter; stroke-linecap: square"/>
   </g>
   <g id="patch_6">
    <path d="M 30.103125 10.999219 
L 387.223125 10.999219 
" style="fill: none; stroke: #000000; stroke-width: 0.8; stroke-linejoin: miter; stroke-linecap: square"/>
   </g>
   <g id="text_13">
    <g id="patch_7">
     <path d="M 121.54757 284.91089 
L 124.375997 284.91089 
L 124.368926 282.089534 
L 124.361855 279.268177 
L 127.183211 279.275249 
L 130.004567 279.28232 
L 129.997496 276.460964 
L 129.990425 273.639607 
L 132.811781 273.646679 
L 135.633137 273.65375 
L 135.626066 270.832394 
L 135.618995 268.011037 
L 138.440351 268.018109 
L 141.261707 268.02518 
L 141.254636 265.203824 
L 141.247564 262.382468 
L 144.068921 262.389539 
L 146.890277 262.39661 
L 146.883206 259.575254 
L 146.876134 256.753898 
L 149.697491 256.760969 
L 152.518847 256.76804 
L 152.511776 253.946684 
L 152.504704 251.125328 
L 155.32606 251.132399 
L 158.147417 251.13947 
L 158.140345 248.318114 
L 158.133274 245.496758 
L 160.95463 245.503829 
L 163.775987 245.5109 
L 163.768915 242.689544 
L 163.761844 239.868188 
L 166.5832 239.875259 
L 169.404557 239.88233 
L 169.397485 237.060974 
L 169.390414 234.239618 
L 172.21177 234.246689 
L 175.033126 234.25376 
L 175.026055 231.432404 
L 175.018984 228.611048 
L 177.84034 228.618119 
L 180.661696 228.62519 
L 180.654625 225.803834 
L 180.647554 222.982478 
L 183.46891 222.989549 
L 186.290266 222.99662 
L 186.283195 220.175264 
L 186.276124 217.353908 
L 189.09748 217.360979 
L 191.918836 217.36805 
L 191.911765 214.546694 
L 191.904694 211.725338 
L 194.72605 211.732409 
L 197.547406 211.73948 
L 197.540335 208.918124 
L 197.533264 206.096768 
L 200.35462 206.103839 
L 203.175976 206.11091 
L 203.168905 203.289554 
L 203.161834 200.468198 
L 205.98319 200.475269 
L 208.804546 200.48234 
L 208.797475 197.660984 
L 208.790404 194.839628 
L 211.61176 194.846699 
L 214.433116 194.85377 
L 214.426045 192.032414 
L 214.418974 189.211058 
L 217.24033 189.218129 
L 220.061686 189.2252 
L 220.054615 186.403844 
L 220.047544 183.582488 
L 222.8689 183.589559 
L 225.690256 183.59663 
L 225.683185 180.775274 
L 225.676114 177.953918 
L 228.49747 177.960989 
L 231.318826 177.96806 
L 231.311755 175.146704 
L 231.304684 172.325348 
L 234.12604 172.332419 
L 236.947396 172.33949 
L 236.940325 169.518134 
L 236.933254 166.696778 
L 239.75461 166.703849 
L 242.575966 166.71092 
L 242.568895 163.889564 
L 242.561824 161.068208 
L 245.38318 161.075279 
L 248.204536 161.08235 
L 248.197465 158.260994 
L 248.190394 155.439638 
L 251.01175 155.446709 
L 253.833106 155.45378 
L 253.826035 152.632424 
L 253.818964 149.811068 
L 256.64032 149.818139 
L 259.461676 149.82521 
L 259.454605 147.003854 
L 259.447534 144.182498 
L 262.26889 144.189569 
L 265.090246 144.19664 
L 265.083175 141.375284 
L 265.076104 138.553928 
L 267.89746 138.560999 
L 270.718816 138.56807 
L 270.711745 135.746714 
L 270.704674 132.925358 
L 273.52603 132.932429 
L 276.347386 132.9395 
L 276.340315 130.118144 
L 276.333244 127.296788 
L 279.1546 127.303859 
L 281.975956 127.31093 
L 281.968885 124.489574 
L 281.961814 121.668218 
L 284.78317 121.675289 
L 287.604526 121.68236 
L 287.597455 118.861004 
L 287.590384 116.039648 
L 290.41174 116.046719 
L 293.233096 116.05379 
L 293.226025 113.232434 
L 293.218954 110.411078 
L 296.04031 110.418149 
L 298.861666 110.42522 
L 298.854595 107.603864 
L 298.847524 104.782508 
L 301.66888 104.789579 
L 304.490236 104.79665 
L 304.483165 101.975294 
L 304.476094 99.153938 
L 307.29745 99.161009 
L 310.118806 99.16808 
L 310.111735 96.346724 
L 310.104664 93.525368 
L 312.92602 93.532439 
L 315.747376 93.53951 
L 315.740305 90.718154 
L 315.733234 87.896798 
L 318.55459 87.903869 
L 321.375946 87.91094 
L 321.368875 85.089584 
L 321.361804 82.268228 
L 324.18316 82.275299 
L 327.004516 82.28237 
L 326.997445 79.461014 
L 326.990374 76.639658 
L 329.81173 76.646729 
L 332.633086 76.6538 
L 332.626015 73.832444 
L 332.618944 71.011088 
L 335.4403 71.018159 
L 338.261656 71.02523 
L 338.254585 68.203874 
L 338.247514 65.382518 
L 341.06887 65.389589 
L 343.890226 65.39666 
L 343.883155 62.575304 
L 343.876084 59.753948 
L 346.69744 59.761019 
L 349.518796 59.76809 
L 349.518796 56.939663 
L 349.518796 54.111236 
L 346.690369 54.111236 
L 343.861942 54.111236 
L 343.861942 51.282809 
L 343.861942 48.454382 
L 341.033514 48.454382 
L 338.205087 48.454382 
L 338.205087 45.625955 
L 338.205087 42.797528 
L 335.37666 42.797528 
L 332.548233 42.797528 
L 332.548233 39.969101 
L 332.548233 37.140673 
L 329.719806 37.140673 
L 326.891379 37.140673 
L 326.891379 34.312246 
L 326.891379 31.483819 
L 324.062952 31.483819 
L 321.234525 31.483819 
L 321.234525 28.655392 
L 321.234525 25.826965 
L 318.406097 25.826965 
L 315.57767 25.826965 
L 315.57767 22.998538 
L 315.57767 20.170111 
L 312.749243 20.170111 
L 309.920816 20.170111 
L 309.920816 17.341684 
L 309.920816 14.513256 
L 307.092389 14.513256 
L 304.263962 14.513256 
L 304.263962 11.684829 
L 304.263962 8.856402 
L 301.435535 8.856402 
L 298.607108 8.856402 
L 298.607108 6.027975 
L 298.607108 3.199548 
L 295.77868 3.199548 
L 292.950253 3.199548 
L 292.957324 6.020904 
L 292.964395 8.84226 
L 290.143039 8.835189 
L 287.321683 8.828118 
L 287.328754 11.649474 
L 287.335825 14.47083 
L 284.514469 14.463759 
L 281.693113 14.456688 
L 281.700184 17.278044 
L 281.707255 20.0994 
L 278.885899 20.092329 
L 276.064543 20.085258 
L 276.071614 22.906614 
L 276.078686 25.72797 
L 273.257329 25.720899 
L 270.435973 25.713828 
L 270.443044 28.535184 
L 270.450116 31.35654 
L 267.628759 31.349469 
L 264.807403 31.342398 
L 264.814474 34.163754 
L 264.821546 36.98511 
L 262.00019 36.978039 
L 259.178833 36.970968 
L 259.185905 39.792324 
L 259.192976 42.61368 
L 256.37162 42.606609 
L 253.550263 42.599538 
L 253.557335 45.420894 
L 253.564406 48.24225 
L 250.74305 48.235179 
L 247.921693 48.228108 
L 247.928765 51.049464 
L 247.935836 53.87082 
L 245.11448 53.863749 
L 242.293124 53.856678 
L 242.300195 56.678034 
L 242.307266 59.49939 
L 239.48591 59.492319 
L 236.664554 59.485248 
L 236.671625 62.306604 
L 236.678696 65.12796 
L 233.85734 65.120889 
L 231.035984 65.113818 
L 231.043055 67.935174 
L 231.050126 70.75653 
L 228.22877 70.749459 
L 225.407414 70.742388 
L 225.414485 73.563744 
L 225.421556 76.3851 
L 222.6002 76.378029 
L 219.778844 76.370958 
L 219.785915 79.192314 
L 219.792986 82.01367 
L 216.97163 82.006599 
L 214.150274 81.999528 
L 214.157345 84.820884 
L 214.164416 87.64224 
L 211.34306 87.635169 
L 208.521704 87.628098 
L 208.528775 90.449454 
L 208.535846 93.27081 
L 205.71449 93.263739 
L 202.893134 93.256668 
L 202.900205 96.078024 
L 202.907276 98.89938 
L 200.08592 98.892309 
L 197.264564 98.885238 
L 197.271635 101.706594 
L 197.278706 104.52795 
L 194.45735 104.520879 
L 191.635994 104.513808 
L 191.643065 107.335164 
L 191.650136 110.15652 
L 188.82878 110.149449 
L 186.007424 110.142378 
L 186.014495 112.963734 
L 186.021566 115.78509 
L 183.20021 115.778019 
L 180.378854 115.770948 
L 180.385925 118.592304 
L 180.392996 121.41366 
L 177.57164 121.406589 
L 174.750284 121.399517 
L 174.757355 124.220874 
L 174.764426 127.04223 
L 171.94307 127.035159 
L 169.121714 127.028087 
L 169.128785 129.849444 
L 169.135856 132.6708 
L 166.3145 132.663729 
L 163.493144 132.656657 
L 163.500215 135.478013 
L 163.507286 138.29937 
L 160.68593 138.292298 
L 157.864574 138.285227 
L 157.871645 141.106583 
L 157.878716 143.92794 
L 155.05736 143.920868 
L 152.236004 143.913797 
L 152.243075 146.735153 
L 152.250146 149.55651 
L 149.42879 149.549438 
L 146.607434 149.542367 
L 146.614505 152.363723 
L 146.621576 155.185079 
L 143.80022 155.178008 
L 140.978864 155.170937 
L 140.985935 157.992293 
L 140.993006 160.813649 
L 138.17165 160.806578 
L 135.350294 160.799507 
L 135.357365 163.620863 
L 135.364436 166.442219 
L 132.54308 166.435148 
L 129.721724 166.428077 
L 129.728795 169.249433 
L 129.735866 172.070789 
L 126.91451 172.063718 
L 124.093154 172.056647 
L 124.100225 174.878003 
L 124.107296 177.699359 
L 121.28594 177.692288 
L 118.464584 177.685217 
L 118.471655 180.506573 
L 118.478726 183.327929 
L 115.65737 183.320858 
L 112.836014 183.313787 
L 112.843085 186.135143 
L 112.850156 188.956499 
L 110.0288 188.949428 
L 107.207444 188.942357 
L 107.214515 191.763713 
L 107.221586 194.585069 
L 104.40023 194.577998 
L 101.578874 194.570927 
L 101.585945 197.392283 
L 101.593016 200.213639 
L 98.77166 200.206568 
L 95.950304 200.199497 
L 95.957375 203.020853 
L 95.964446 205.842209 
L 93.14309 205.835138 
L 90.321734 205.828067 
L 90.328805 208.649423 
L 90.335876 211.470779 
L 87.51452 211.463708 
L 84.693164 211.456637 
L 84.700235 214.277993 
L 84.707306 217.099349 
L 81.88595 217.092278 
L 79.064594 217.085207 
L 79.071665 219.906563 
L 79.078736 222.727919 
L 76.25738 222.720848 
L 73.436024 222.713777 
L 73.443095 225.535133 
L 73.450166 228.356489 
L 70.62881 228.349418 
L 67.807454 228.342347 
L 67.807454 231.170774 
L 67.807454 233.999201 
L 70.635881 233.999201 
L 73.464308 233.999201 
L 73.464308 236.827628 
L 73.464308 239.656056 
L 76.292736 239.656056 
L 79.121163 239.656056 
L 79.121163 242.484483 
L 79.121163 245.31291 
L 81.94959 245.31291 
L 84.778017 245.31291 
L 84.778017 248.141337 
L 84.778017 250.969764 
L 87.606444 250.969764 
L 90.434871 250.969764 
L 90.434871 253.798191 
L 90.434871 256.626618 
L 93.263298 256.626618 
L 96.091725 256.626618 
L 96.091725 259.455045 
L 96.091725 262.283473 
L 98.920153 262.283473 
L 101.74858 262.283473 
L 101.74858 265.1119 
L 101.74858 267.940327 
L 104.577007 267.940327 
L 107.405434 267.940327 
L 107.405434 270.768754 
L 107.405434 273.597181 
L 110.233861 273.597181 
L 113.062288 273.597181 
L 113.062288 276.425608 
L 113.062288 279.254035 
L 115.890715 279.254035 
L 118.719142 279.254035 
L 118.719142 282.082462 
L 118.719142 284.91089 
z
" style="fill: #ffc0cb; opacity: 0.3; stroke: #000000; stroke-linejoin: miter"/>
    </g>
    <!-- message: $\frac{\alpha}{\beta} = \gamma$ -->
    <g style="fill: #0000ff" transform="translate(105.708378 254.929562) rotate(-45) scale(0.4 -0.4)">
     <defs>
      <path id="DejaVuSans-6d" d="M 3328 2828 
Q 3544 3216 3844 3400 
Q 4144 3584 4550 3584 
Q 5097 3584 5394 3201 
Q 5691 2819 5691 2113 
L 5691 0 
L 5113 0 
L 5113 2094 
Q 5113 2597 4934 2840 
Q 4756 3084 4391 3084 
Q 3944 3084 3684 2787 
Q 3425 2491 3425 1978 
L 3425 0 
L 2847 0 
L 2847 2094 
Q 2847 2600 2669 2842 
Q 2491 3084 2119 3084 
Q 1678 3084 1418 2786 
Q 1159 2488 1159 1978 
L 1159 0 
L 581 0 
L 581 3500 
L 1159 3500 
L 1159 2956 
Q 1356 3278 1631 3431 
Q 1906 3584 2284 3584 
Q 2666 3584 2933 3390 
Q 3200 3197 3328 2828 
z
" transform="scale(0.015625)"/>
      <path id="DejaVuSans-65" d="M 3597 1894 
L 3597 1613 
L 953 1613 
Q 991 1019 1311 708 
Q 1631 397 2203 397 
Q 2534 397 2845 478 
Q 3156 559 3463 722 
L 3463 178 
Q 3153 47 2828 -22 
Q 2503 -91 2169 -91 
Q 1331 -91 842 396 
Q 353 884 353 1716 
Q 353 2575 817 3079 
Q 1281 3584 2069 3584 
Q 2775 3584 3186 3129 
Q 3597 2675 3597 1894 
z
M 3022 2063 
Q 3016 2534 2758 2815 
Q 2500 3097 2075 3097 
Q 1594 3097 1305 2825 
Q 1016 2553 972 2059 
L 3022 2063 
z
" transform="scale(0.015625)"/>
      <path id="DejaVuSans-73" d="M 2834 3397 
L 2834 2853 
Q 2591 2978 2328 3040 
Q 2066 3103 1784 3103 
Q 1356 3103 1142 2972 
Q 928 2841 928 2578 
Q 928 2378 1081 2264 
Q 1234 2150 1697 2047 
L 1894 2003 
Q 2506 1872 2764 1633 
Q 3022 1394 3022 966 
Q 3022 478 2636 193 
Q 2250 -91 1575 -91 
Q 1294 -91 989 -36 
Q 684 19 347 128 
L 347 722 
Q 666 556 975 473 
Q 1284 391 1588 391 
Q 1994 391 2212 530 
Q 2431 669 2431 922 
Q 2431 1156 2273 1281 
Q 2116 1406 1581 1522 
L 1381 1569 
Q 847 1681 609 1914 
Q 372 2147 372 2553 
Q 372 3047 722 3315 
Q 1072 3584 1716 3584 
Q 2034 3584 2315 3537 
Q 2597 3491 2834 3397 
z
" transform="scale(0.015625)"/>
      <path id="DejaVuSans-61" d="M 2194 1759 
Q 1497 1759 1228 1600 
Q 959 1441 959 1056 
Q 959 750 1161 570 
Q 1363 391 1709 391 
Q 2188 391 2477 730 
Q 2766 1069 2766 1631 
L 2766 1759 
L 2194 1759 
z
M 3341 1997 
L 3341 0 
L 2766 0 
L 2766 531 
Q 2569 213 2275 61 
Q 1981 -91 1556 -91 
Q 1019 -91 701 211 
Q 384 513 384 1019 
Q 384 1609 779 1909 
Q 1175 2209 1959 2209 
L 2766 2209 
L 2766 2266 
Q 2766 2663 2505 2880 
Q 2244 3097 1772 3097 
Q 1472 3097 1187 3025 
Q 903 2953 641 2809 
L 641 3341 
Q 956 3463 1253 3523 
Q 1550 3584 1831 3584 
Q 2591 3584 2966 3190 
Q 3341 2797 3341 1997 
z
" transform="scale(0.015625)"/>
      <path id="DejaVuSans-67" d="M 2906 1791 
Q 2906 2416 2648 2759 
Q 2391 3103 1925 3103 
Q 1463 3103 1205 2759 
Q 947 2416 947 1791 
Q 947 1169 1205 825 
Q 1463 481 1925 481 
Q 2391 481 2648 825 
Q 2906 1169 2906 1791 
z
M 3481 434 
Q 3481 -459 3084 -895 
Q 2688 -1331 1869 -1331 
Q 1566 -1331 1297 -1286 
Q 1028 -1241 775 -1147 
L 775 -588 
Q 1028 -725 1275 -790 
Q 1522 -856 1778 -856 
Q 2344 -856 2625 -561 
Q 2906 -266 2906 331 
L 2906 616 
Q 2728 306 2450 153 
Q 2172 0 1784 0 
Q 1141 0 747 490 
Q 353 981 353 1791 
Q 353 2603 747 3093 
Q 1141 3584 1784 3584 
Q 2172 3584 2450 3431 
Q 2728 3278 2906 2969 
L 2906 3500 
L 3481 3500 
L 3481 434 
z
" transform="scale(0.015625)"/>
      <path id="DejaVuSans-3a" d="M 750 794 
L 1409 794 
L 1409 0 
L 750 0 
L 750 794 
z
M 750 3309 
L 1409 3309 
L 1409 2516 
L 750 2516 
L 750 3309 
z
" transform="scale(0.015625)"/>
      <path id="DejaVuSans-20" transform="scale(0.015625)"/>
      <path id="DejaVuSans-Oblique-3b1" d="M 2619 1628 
L 2622 2350 
Q 2625 3088 2069 3091 
Q 1653 3094 1394 2747 
Q 1069 2319 959 1747 
Q 825 1059 994 731 
Q 1169 397 1547 397 
Q 1966 397 2319 1063 
L 2619 1628 
z
M 2166 3578 
Q 3141 3594 3128 2584 
Q 3128 2584 3616 3500 
L 4128 3500 
L 3119 1603 
L 3109 919 
Q 3109 766 3194 638 
Q 3291 488 3391 488 
L 3669 488 
L 3575 0 
L 3228 0 
Q 2934 0 2722 263 
Q 2622 394 2619 669 
Q 2416 334 2066 50 
Q 1900 -81 1453 -78 
Q 722 -72 456 397 
Q 184 884 353 1747 
Q 534 2675 1009 3097 
Q 1544 3569 2166 3578 
z
" transform="scale(0.015625)"/>
      <path id="DejaVuSans-Oblique-3b2" d="M 872 216 
L 572 -1331 
L -6 -1331 
L 928 3478 
Q 1206 4903 2538 4903 
Q 3888 4903 3659 3700 
Q 3503 2844 2894 2531 
Q 3713 2250 3553 1416 
Q 3272 -69 1759 -66 
Q 1097 -63 872 216 
z
M 1019 966 
Q 1259 422 1875 425 
Q 2775 425 2966 1406 
Q 3138 2288 1675 2219 
L 1778 2750 
Q 2909 2731 3106 3750 
Q 3241 4438 2509 4434 
Q 1691 4434 1503 3459 
L 1019 966 
z
" transform="scale(0.015625)"/>
      <path id="DejaVuSans-3d" d="M 678 2906 
L 4684 2906 
L 4684 2381 
L 678 2381 
L 678 2906 
z
M 678 1631 
L 4684 1631 
L 4684 1100 
L 678 1100 
L 678 1631 
z
" transform="scale(0.015625)"/>
      <path id="DejaVuSans-Oblique-3b3" d="M 1491 2950 
L 1838 788 
L 3456 3500 
L 4066 3500 
L 1972 0 
L 1713 -1331 
L 1138 -1331 
L 1397 0 
L 988 2613 
Q 925 3006 628 3006 
L 475 3006 
L 569 3500 
L 788 3500 
Q 1403 3500 1491 2950 
z
" transform="scale(0.015625)"/>
     </defs>
     <use xlink:href="#DejaVuSans-6d" transform="translate(0 0.007812)"/>
     <use xlink:href="#DejaVuSans-65" transform="translate(97.412109 0.007812)"/>
     <use xlink:href="#DejaVuSans-73" transform="translate(158.935547 0.007812)"/>
     <use xlink:href="#DejaVuSans-73" transform="translate(211.035156 0.007812)"/>
     <use xlink:href="#DejaVuSans-61" transform="translate(263.134766 0.007812)"/>
     <use xlink:href="#DejaVuSans-67" transform="translate(324.414062 0.007812)"/>
     <use xlink:href="#DejaVuSans-65" transform="translate(387.890625 0.007812)"/>
     <use xlink:href="#DejaVuSans-3a" transform="translate(449.414062 0.007812)"/>
     <use xlink:href="#DejaVuSans-20" transform="translate(483.105469 0.007812)"/>
     <use xlink:href="#DejaVuSans-Oblique-3b1" transform="translate(514.892578 44.690625) scale(0.7)"/>
     <use xlink:href="#DejaVuSans-Oblique-3b2" transform="translate(515.892578 -41.071875) scale(0.7)"/>
     <use xlink:href="#DejaVuSans-3d" transform="translate(593.017578 0.007812)"/>
     <use xlink:href="#DejaVuSans-Oblique-3b3" transform="translate(696.289062 0.007812)"/>
     <path d="M 514.892578 18.804688 
L 514.892578 25.054688 
L 561.035156 25.054688 
L 561.035156 18.804688 
L 514.892578 18.804688 
z
"/>
    </g>
   </g>
  </g>
 </g>
</svg>
