<?xml version="1.0" encoding="utf-8" standalone="no"?>
<!DOCTYPE svg PUBLIC "-//W3C//DTD SVG 1.1//EN"
  "http://www.w3.org/Graphics/SVG/1.1/DTD/svg11.dtd">
<svg xmlns:xlink="http://www.w3.org/1999/xlink" width="265.756382pt" height="376.283604pt" viewBox="0 0 265.756382 376.283604" xmlns="http://www.w3.org/2000/svg" version="1.1">
 <metadata>
  <rdf:RDF xmlns:dc="http://purl.org/dc/elements/1.1/" xmlns:cc="http://creativecommons.org/ns#" xmlns:rdf="http://www.w3.org/1999/02/22-rdf-syntax-ns#">
   <cc:Work>
    <dc:type rdf:resource="http://purl.org/dc/dcmitype/StillImage"/>
    <dc:date>2024-09-19T20:43:51.899701</dc:date>
    <dc:format>image/svg+xml</dc:format>
    <dc:creator>
     <cc:Agent>
      <dc:title>Matplotlib v3.6.3, https://matplotlib.org/</dc:title>
     </cc:Agent>
    </dc:creator>
   </cc:Work>
  </rdf:RDF>
 </metadata>
 <defs>
  <style type="text/css">*{stroke-linejoin: round; stroke-linecap: butt}</style>
 </defs>
 <g id="figure_1">
  <g id="patch_1">
   <path d="M 0 376.283604 
L 265.756382 376.283604 
L 265.756382 0 
L 0 0 
z
" style="fill: #ffffff"/>
  </g>
  <g id="axes_1">
   <g id="patch_2">
    <path d="M 26.925 122.268493 
L 258.556382 122.268493 
L 258.556382 7.2 
L 26.925 7.2 
z
" style="fill: #ffffff"/>
   </g>
   <g id="matplotlib.axis_1">
    <g id="xtick_1">
     <g id="line2d_1">
      <defs>
       <path id="m9d5e8cdede" d="M 0 0 
L 0 3.5 
" style="stroke: #000000; stroke-width: 0.8"/>
      </defs>
      <g>
       <use xlink:href="#m9d5e8cdede" x="65.53023" y="122.268493" style="stroke: #000000; stroke-width: 0.8"/>
      </g>
     </g>
     <g id="text_1">
      <!-- 1 -->
      <g transform="translate(62.34898 136.866931) scale(0.1 -0.1)">
       <defs>
        <path id="DejaVuSans-31" d="M 794 531 
L 1825 531 
L 1825 4091 
L 703 3866 
L 703 4441 
L 1819 4666 
L 2450 4666 
L 2450 531 
L 3481 531 
L 3481 0 
L 794 0 
L 794 531 
z
" transform="scale(0.015625)"/>
       </defs>
       <use xlink:href="#DejaVuSans-31"/>
      </g>
     </g>
    </g>
    <g id="xtick_2">
     <g id="line2d_2">
      <g>
       <use xlink:href="#m9d5e8cdede" x="142.740691" y="122.268493" style="stroke: #000000; stroke-width: 0.8"/>
      </g>
     </g>
     <g id="text_2">
      <!-- 2 -->
      <g transform="translate(139.559441 136.866931) scale(0.1 -0.1)">
       <defs>
        <path id="DejaVuSans-32" d="M 1228 531 
L 3431 531 
L 3431 0 
L 469 0 
L 469 531 
Q 828 903 1448 1529 
Q 2069 2156 2228 2338 
Q 2531 2678 2651 2914 
Q 2772 3150 2772 3378 
Q 2772 3750 2511 3984 
Q 2250 4219 1831 4219 
Q 1534 4219 1204 4116 
Q 875 4013 500 3803 
L 500 4441 
Q 881 4594 1212 4672 
Q 1544 4750 1819 4750 
Q 2544 4750 2975 4387 
Q 3406 4025 3406 3419 
Q 3406 3131 3298 2873 
Q 3191 2616 2906 2266 
Q 2828 2175 2409 1742 
Q 1991 1309 1228 531 
z
" transform="scale(0.015625)"/>
       </defs>
       <use xlink:href="#DejaVuSans-32"/>
      </g>
     </g>
    </g>
    <g id="xtick_3">
     <g id="line2d_3">
      <g>
       <use xlink:href="#m9d5e8cdede" x="219.951152" y="122.268493" style="stroke: #000000; stroke-width: 0.8"/>
      </g>
     </g>
     <g id="text_3">
      <!-- 3 -->
      <g transform="translate(216.769902 136.866931) scale(0.1 -0.1)">
       <defs>
        <path id="DejaVuSans-33" d="M 2597 2516 
Q 3050 2419 3304 2112 
Q 3559 1806 3559 1356 
Q 3559 666 3084 287 
Q 2609 -91 1734 -91 
Q 1441 -91 1130 -33 
Q 819 25 488 141 
L 488 750 
Q 750 597 1062 519 
Q 1375 441 1716 441 
Q 2309 441 2620 675 
Q 2931 909 2931 1356 
Q 2931 1769 2642 2001 
Q 2353 2234 1838 2234 
L 1294 2234 
L 1294 2753 
L 1863 2753 
Q 2328 2753 2575 2939 
Q 2822 3125 2822 3475 
Q 2822 3834 2567 4026 
Q 2313 4219 1838 4219 
Q 1578 4219 1281 4162 
Q 984 4106 628 3988 
L 628 4550 
Q 988 4650 1302 4700 
Q 1616 4750 1894 4750 
Q 2613 4750 3031 4423 
Q 3450 4097 3450 3541 
Q 3450 3153 3228 2886 
Q 3006 2619 2597 2516 
z
" transform="scale(0.015625)"/>
       </defs>
       <use xlink:href="#DejaVuSans-33"/>
      </g>
     </g>
    </g>
   </g>
   <g id="matplotlib.axis_2">
    <g id="ytick_1">
     <g id="line2d_4">
      <defs>
       <path id="m889edfee01" d="M 0 0 
L -3.5 0 
" style="stroke: #000000; stroke-width: 0.8"/>
      </defs>
      <g>
       <use xlink:href="#m889edfee01" x="26.925" y="105.415027" style="stroke: #000000; stroke-width: 0.8"/>
      </g>
     </g>
     <g id="text_4">
      <!-- 2 -->
      <g transform="translate(13.5625 109.214246) scale(0.1 -0.1)">
       <use xlink:href="#DejaVuSans-32"/>
      </g>
     </g>
    </g>
    <g id="ytick_2">
     <g id="line2d_5">
      <g>
       <use xlink:href="#m889edfee01" x="26.925" y="82.168867" style="stroke: #000000; stroke-width: 0.8"/>
      </g>
     </g>
     <g id="text_5">
      <!-- 4 -->
      <g transform="translate(13.5625 85.968085) scale(0.1 -0.1)">
       <defs>
        <path id="DejaVuSans-34" d="M 2419 4116 
L 825 1625 
L 2419 1625 
L 2419 4116 
z
M 2253 4666 
L 3047 4666 
L 3047 1625 
L 3713 1625 
L 3713 1100 
L 3047 1100 
L 3047 0 
L 2419 0 
L 2419 1100 
L 313 1100 
L 313 1709 
L 2253 4666 
z
" transform="scale(0.015625)"/>
       </defs>
       <use xlink:href="#DejaVuSans-34"/>
      </g>
     </g>
    </g>
    <g id="ytick_3">
     <g id="line2d_6">
      <g>
       <use xlink:href="#m889edfee01" x="26.925" y="58.922707" style="stroke: #000000; stroke-width: 0.8"/>
      </g>
     </g>
     <g id="text_6">
      <!-- 6 -->
      <g transform="translate(13.5625 62.721925) scale(0.1 -0.1)">
       <defs>
        <path id="DejaVuSans-36" d="M 2113 2584 
Q 1688 2584 1439 2293 
Q 1191 2003 1191 1497 
Q 1191 994 1439 701 
Q 1688 409 2113 409 
Q 2538 409 2786 701 
Q 3034 994 3034 1497 
Q 3034 2003 2786 2293 
Q 2538 2584 2113 2584 
z
M 3366 4563 
L 3366 3988 
Q 3128 4100 2886 4159 
Q 2644 4219 2406 4219 
Q 1781 4219 1451 3797 
Q 1122 3375 1075 2522 
Q 1259 2794 1537 2939 
Q 1816 3084 2150 3084 
Q 2853 3084 3261 2657 
Q 3669 2231 3669 1497 
Q 3669 778 3244 343 
Q 2819 -91 2113 -91 
Q 1303 -91 875 529 
Q 447 1150 447 2328 
Q 447 3434 972 4092 
Q 1497 4750 2381 4750 
Q 2619 4750 2861 4703 
Q 3103 4656 3366 4563 
z
" transform="scale(0.015625)"/>
       </defs>
       <use xlink:href="#DejaVuSans-36"/>
      </g>
     </g>
    </g>
    <g id="ytick_4">
     <g id="line2d_7">
      <g>
       <use xlink:href="#m889edfee01" x="26.925" y="35.676546" style="stroke: #000000; stroke-width: 0.8"/>
      </g>
     </g>
     <g id="text_7">
      <!-- 8 -->
      <g transform="translate(13.5625 39.475765) scale(0.1 -0.1)">
       <defs>
        <path id="DejaVuSans-38" d="M 2034 2216 
Q 1584 2216 1326 1975 
Q 1069 1734 1069 1313 
Q 1069 891 1326 650 
Q 1584 409 2034 409 
Q 2484 409 2743 651 
Q 3003 894 3003 1313 
Q 3003 1734 2745 1975 
Q 2488 2216 2034 2216 
z
M 1403 2484 
Q 997 2584 770 2862 
Q 544 3141 544 3541 
Q 544 4100 942 4425 
Q 1341 4750 2034 4750 
Q 2731 4750 3128 4425 
Q 3525 4100 3525 3541 
Q 3525 3141 3298 2862 
Q 3072 2584 2669 2484 
Q 3125 2378 3379 2068 
Q 3634 1759 3634 1313 
Q 3634 634 3220 271 
Q 2806 -91 2034 -91 
Q 1263 -91 848 271 
Q 434 634 434 1313 
Q 434 1759 690 2068 
Q 947 2378 1403 2484 
z
M 1172 3481 
Q 1172 3119 1398 2916 
Q 1625 2713 2034 2713 
Q 2441 2713 2670 2916 
Q 2900 3119 2900 3481 
Q 2900 3844 2670 4047 
Q 2441 4250 2034 4250 
Q 1625 4250 1398 4047 
Q 1172 3844 1172 3481 
z
" transform="scale(0.015625)"/>
       </defs>
       <use xlink:href="#DejaVuSans-38"/>
      </g>
     </g>
    </g>
    <g id="ytick_5">
     <g id="line2d_8">
      <g>
       <use xlink:href="#m889edfee01" x="26.925" y="12.430386" style="stroke: #000000; stroke-width: 0.8"/>
      </g>
     </g>
     <g id="text_8">
      <!-- 10 -->
      <g transform="translate(7.2 16.229605) scale(0.1 -0.1)">
       <defs>
        <path id="DejaVuSans-30" d="M 2034 4250 
Q 1547 4250 1301 3770 
Q 1056 3291 1056 2328 
Q 1056 1369 1301 889 
Q 1547 409 2034 409 
Q 2525 409 2770 889 
Q 3016 1369 3016 2328 
Q 3016 3291 2770 3770 
Q 2525 4250 2034 4250 
z
M 2034 4750 
Q 2819 4750 3233 4129 
Q 3647 3509 3647 2328 
Q 3647 1150 3233 529 
Q 2819 -91 2034 -91 
Q 1250 -91 836 529 
Q 422 1150 422 2328 
Q 422 3509 836 4129 
Q 1250 4750 2034 4750 
z
" transform="scale(0.015625)"/>
       </defs>
       <use xlink:href="#DejaVuSans-31"/>
       <use xlink:href="#DejaVuSans-30" x="63.623047"/>
      </g>
     </g>
    </g>
   </g>
   <g id="line2d_9">
    <path d="M 53.948661 102.509257 
L 77.1118 102.509257 
L 77.1118 73.451557 
L 53.948661 73.451557 
L 53.948661 102.509257 
" clip-path="url(#p7e6af918f5)" style="fill: none; stroke: #000000; stroke-linecap: square"/>
   </g>
   <g id="line2d_10">
    <path d="M 65.53023 102.509257 
L 65.53023 117.038107 
" clip-path="url(#p7e6af918f5)" style="fill: none; stroke: #000000; stroke-linecap: square"/>
   </g>
   <g id="line2d_11">
    <path d="M 65.53023 73.451557 
L 65.53023 70.545787 
" clip-path="url(#p7e6af918f5)" style="fill: none; stroke: #000000; stroke-linecap: square"/>
   </g>
   <g id="line2d_12">
    <path d="M 59.739446 117.038107 
L 71.321015 117.038107 
" clip-path="url(#p7e6af918f5)" style="fill: none; stroke: #000000; stroke-linecap: square"/>
   </g>
   <g id="line2d_13">
    <path d="M 59.739446 70.545787 
L 71.321015 70.545787 
" clip-path="url(#p7e6af918f5)" style="fill: none; stroke: #000000; stroke-linecap: square"/>
   </g>
   <g id="line2d_14">
    <defs>
     <path id="m6fc4fdcb18" d="M 0 3 
C 0.795609 3 1.55874 2.683901 2.12132 2.12132 
C 2.683901 1.55874 3 0.795609 3 0 
C 3 -0.795609 2.683901 -1.55874 2.12132 -2.12132 
C 1.55874 -2.683901 0.795609 -3 0 -3 
C -0.795609 -3 -1.55874 -2.683901 -2.12132 -2.12132 
C -2.683901 -1.55874 -3 -0.795609 -3 0 
C -3 0.795609 -2.683901 1.55874 -2.12132 2.12132 
C -1.55874 2.683901 -0.795609 3 0 3 
z
" style="stroke: #000000"/>
    </defs>
    <g clip-path="url(#p7e6af918f5)">
     <use xlink:href="#m6fc4fdcb18" x="65.53023" y="12.430386" style="fill-opacity: 0; stroke: #000000"/>
    </g>
   </g>
   <g id="line2d_15">
    <path d="M 131.159122 82.168867 
L 154.32226 82.168867 
L 154.32226 35.676546 
L 131.159122 35.676546 
L 131.159122 82.168867 
" clip-path="url(#p7e6af918f5)" style="fill: none; stroke: #000000; stroke-linecap: square"/>
   </g>
   <g id="line2d_16">
    <path d="M 142.740691 82.168867 
L 142.740691 105.415027 
" clip-path="url(#p7e6af918f5)" style="fill: none; stroke: #000000; stroke-linecap: square"/>
   </g>
   <g id="line2d_17">
    <path d="M 142.740691 35.676546 
L 142.740691 12.430386 
" clip-path="url(#p7e6af918f5)" style="fill: none; stroke: #000000; stroke-linecap: square"/>
   </g>
   <g id="line2d_18">
    <path d="M 136.949907 105.415027 
L 148.531476 105.415027 
" clip-path="url(#p7e6af918f5)" style="fill: none; stroke: #000000; stroke-linecap: square"/>
   </g>
   <g id="line2d_19">
    <path d="M 136.949907 12.430386 
L 148.531476 12.430386 
" clip-path="url(#p7e6af918f5)" style="fill: none; stroke: #000000; stroke-linecap: square"/>
   </g>
   <g id="line2d_20"/>
   <g id="line2d_21">
    <path d="M 208.369583 82.168867 
L 231.532721 82.168867 
L 231.532721 58.922707 
L 208.369583 58.922707 
L 208.369583 82.168867 
" clip-path="url(#p7e6af918f5)" style="fill: none; stroke: #000000; stroke-linecap: square"/>
   </g>
   <g id="line2d_22">
    <path d="M 219.951152 82.168867 
L 219.951152 93.791947 
" clip-path="url(#p7e6af918f5)" style="fill: none; stroke: #000000; stroke-linecap: square"/>
   </g>
   <g id="line2d_23">
    <path d="M 219.951152 58.922707 
L 219.951152 58.922707 
" clip-path="url(#p7e6af918f5)" style="fill: none; stroke: #000000; stroke-linecap: square"/>
   </g>
   <g id="line2d_24">
    <path d="M 214.160367 93.791947 
L 225.741936 93.791947 
" clip-path="url(#p7e6af918f5)" style="fill: none; stroke: #000000; stroke-linecap: square"/>
   </g>
   <g id="line2d_25">
    <path d="M 214.160367 58.922707 
L 225.741936 58.922707 
" clip-path="url(#p7e6af918f5)" style="fill: none; stroke: #000000; stroke-linecap: square"/>
   </g>
   <g id="line2d_26">
    <g clip-path="url(#p7e6af918f5)">
     <use xlink:href="#m6fc4fdcb18" x="219.951152" y="12.430386" style="fill-opacity: 0; stroke: #000000"/>
    </g>
   </g>
   <g id="line2d_27">
    <path d="M 53.948661 87.980407 
L 77.1118 87.980407 
" clip-path="url(#p7e6af918f5)" style="fill: none; stroke: #ff7f0e; stroke-linecap: square"/>
   </g>
   <g id="line2d_28">
    <path d="M 131.159122 58.922707 
L 154.32226 58.922707 
" clip-path="url(#p7e6af918f5)" style="fill: none; stroke: #ff7f0e; stroke-linecap: square"/>
   </g>
   <g id="line2d_29">
    <path d="M 208.369583 70.545787 
L 231.532721 70.545787 
" clip-path="url(#p7e6af918f5)" style="fill: none; stroke: #ff7f0e; stroke-linecap: square"/>
   </g>
   <g id="patch_3">
    <path d="M 26.925 122.268493 
L 26.925 7.2 
" style="fill: none; stroke: #000000; stroke-width: 0.8; stroke-linejoin: miter; stroke-linecap: square"/>
   </g>
   <g id="patch_4">
    <path d="M 258.556382 122.268493 
L 258.556382 7.2 
" style="fill: none; stroke: #000000; stroke-width: 0.8; stroke-linejoin: miter; stroke-linecap: square"/>
   </g>
   <g id="patch_5">
    <path d="M 26.925 122.268493 
L 258.556382 122.268493 
" style="fill: none; stroke: #000000; stroke-width: 0.8; stroke-linejoin: miter; stroke-linecap: square"/>
   </g>
   <g id="patch_6">
    <path d="M 26.925 7.2 
L 258.556382 7.2 
" style="fill: none; stroke: #000000; stroke-width: 0.8; stroke-linejoin: miter; stroke-linecap: square"/>
   </g>
  </g>
  <g id="axes_2">
   <g id="patch_7">
    <path d="M 26.925 237.336986 
L 258.556382 237.336986 
L 258.556382 122.268493 
L 26.925 122.268493 
z
" style="fill: #ffffff"/>
   </g>
   <g id="matplotlib.axis_3">
    <g id="xtick_4">
     <g id="line2d_30">
      <g>
       <use xlink:href="#m9d5e8cdede" x="65.53023" y="237.336986" style="stroke: #000000; stroke-width: 0.8"/>
      </g>
     </g>
     <g id="text_9">
      <!-- 1 -->
      <g transform="translate(62.34898 251.935424) scale(0.1 -0.1)">
       <use xlink:href="#DejaVuSans-31"/>
      </g>
     </g>
    </g>
    <g id="xtick_5">
     <g id="line2d_31">
      <g>
       <use xlink:href="#m9d5e8cdede" x="142.740691" y="237.336986" style="stroke: #000000; stroke-width: 0.8"/>
      </g>
     </g>
     <g id="text_10">
      <!-- 2 -->
      <g transform="translate(139.559441 251.935424) scale(0.1 -0.1)">
       <use xlink:href="#DejaVuSans-32"/>
      </g>
     </g>
    </g>
    <g id="xtick_6">
     <g id="line2d_32">
      <g>
       <use xlink:href="#m9d5e8cdede" x="219.951152" y="237.336986" style="stroke: #000000; stroke-width: 0.8"/>
      </g>
     </g>
     <g id="text_11">
      <!-- 3 -->
      <g transform="translate(216.769902 251.935424) scale(0.1 -0.1)">
       <use xlink:href="#DejaVuSans-33"/>
      </g>
     </g>
    </g>
   </g>
   <g id="matplotlib.axis_4">
    <g id="ytick_6">
     <g id="line2d_33">
      <g>
       <use xlink:href="#m889edfee01" x="26.925" y="220.48352" style="stroke: #000000; stroke-width: 0.8"/>
      </g>
     </g>
     <g id="text_12">
      <!-- 2 -->
      <g transform="translate(13.5625 224.282739) scale(0.1 -0.1)">
       <use xlink:href="#DejaVuSans-32"/>
      </g>
     </g>
    </g>
    <g id="ytick_7">
     <g id="line2d_34">
      <g>
       <use xlink:href="#m889edfee01" x="26.925" y="197.23736" style="stroke: #000000; stroke-width: 0.8"/>
      </g>
     </g>
     <g id="text_13">
      <!-- 4 -->
      <g transform="translate(13.5625 201.036579) scale(0.1 -0.1)">
       <use xlink:href="#DejaVuSans-34"/>
      </g>
     </g>
    </g>
    <g id="ytick_8">
     <g id="line2d_35">
      <g>
       <use xlink:href="#m889edfee01" x="26.925" y="173.9912" style="stroke: #000000; stroke-width: 0.8"/>
      </g>
     </g>
     <g id="text_14">
      <!-- 6 -->
      <g transform="translate(13.5625 177.790418) scale(0.1 -0.1)">
       <use xlink:href="#DejaVuSans-36"/>
      </g>
     </g>
    </g>
    <g id="ytick_9">
     <g id="line2d_36">
      <g>
       <use xlink:href="#m889edfee01" x="26.925" y="150.745039" style="stroke: #000000; stroke-width: 0.8"/>
      </g>
     </g>
     <g id="text_15">
      <!-- 8 -->
      <g transform="translate(13.5625 154.544258) scale(0.1 -0.1)">
       <use xlink:href="#DejaVuSans-38"/>
      </g>
     </g>
    </g>
    <g id="ytick_10">
     <g id="line2d_37">
      <g>
       <use xlink:href="#m889edfee01" x="26.925" y="127.498879" style="stroke: #000000; stroke-width: 0.8"/>
      </g>
     </g>
     <g id="text_16">
      <!-- 10 -->
      <g transform="translate(7.2 131.298098) scale(0.1 -0.1)">
       <use xlink:href="#DejaVuSans-31"/>
       <use xlink:href="#DejaVuSans-30" x="63.623047"/>
      </g>
     </g>
    </g>
   </g>
   <g id="line2d_38">
    <path d="M 53.948661 217.57775 
L 77.1118 217.57775 
L 77.1118 188.52005 
L 53.948661 188.52005 
L 53.948661 217.57775 
" clip-path="url(#pf56164e67c)" style="fill: none; stroke: #000000; stroke-linecap: square"/>
   </g>
   <g id="line2d_39">
    <path d="M 65.53023 217.57775 
L 65.53023 232.1066 
" clip-path="url(#pf56164e67c)" style="fill: none; stroke: #000000; stroke-linecap: square"/>
   </g>
   <g id="line2d_40">
    <path d="M 65.53023 188.52005 
L 65.53023 185.61428 
" clip-path="url(#pf56164e67c)" style="fill: none; stroke: #000000; stroke-linecap: square"/>
   </g>
   <g id="line2d_41">
    <path d="M 59.739446 232.1066 
L 71.321015 232.1066 
" clip-path="url(#pf56164e67c)" style="fill: none; stroke: #000000; stroke-linecap: square"/>
   </g>
   <g id="line2d_42">
    <path d="M 59.739446 185.61428 
L 71.321015 185.61428 
" clip-path="url(#pf56164e67c)" style="fill: none; stroke: #000000; stroke-linecap: square"/>
   </g>
   <g id="line2d_43">
    <defs>
     <path id="m5ffa982657" d="M -3 0 
L 3 0 
M 0 3 
L 0 -3 
" style="stroke: #0000ff"/>
    </defs>
    <g clip-path="url(#pf56164e67c)">
     <use xlink:href="#m5ffa982657" x="65.53023" y="127.498879" style="fill: #0000ff; stroke: #0000ff"/>
    </g>
   </g>
   <g id="line2d_44">
    <path d="M 131.159122 197.23736 
L 154.32226 197.23736 
L 154.32226 150.745039 
L 131.159122 150.745039 
L 131.159122 197.23736 
" clip-path="url(#pf56164e67c)" style="fill: none; stroke: #000000; stroke-linecap: square"/>
   </g>
   <g id="line2d_45">
    <path d="M 142.740691 197.23736 
L 142.740691 220.48352 
" clip-path="url(#pf56164e67c)" style="fill: none; stroke: #000000; stroke-linecap: square"/>
   </g>
   <g id="line2d_46">
    <path d="M 142.740691 150.745039 
L 142.740691 127.498879 
" clip-path="url(#pf56164e67c)" style="fill: none; stroke: #000000; stroke-linecap: square"/>
   </g>
   <g id="line2d_47">
    <path d="M 136.949907 220.48352 
L 148.531476 220.48352 
" clip-path="url(#pf56164e67c)" style="fill: none; stroke: #000000; stroke-linecap: square"/>
   </g>
   <g id="line2d_48">
    <path d="M 136.949907 127.498879 
L 148.531476 127.498879 
" clip-path="url(#pf56164e67c)" style="fill: none; stroke: #000000; stroke-linecap: square"/>
   </g>
   <g id="line2d_49"/>
   <g id="line2d_50">
    <path d="M 208.369583 197.23736 
L 231.532721 197.23736 
L 231.532721 173.9912 
L 208.369583 173.9912 
L 208.369583 197.23736 
" clip-path="url(#pf56164e67c)" style="fill: none; stroke: #000000; stroke-linecap: square"/>
   </g>
   <g id="line2d_51">
    <path d="M 219.951152 197.23736 
L 219.951152 208.86044 
" clip-path="url(#pf56164e67c)" style="fill: none; stroke: #000000; stroke-linecap: square"/>
   </g>
   <g id="line2d_52">
    <path d="M 219.951152 173.9912 
L 219.951152 173.9912 
" clip-path="url(#pf56164e67c)" style="fill: none; stroke: #000000; stroke-linecap: square"/>
   </g>
   <g id="line2d_53">
    <path d="M 214.160367 208.86044 
L 225.741936 208.86044 
" clip-path="url(#pf56164e67c)" style="fill: none; stroke: #000000; stroke-linecap: square"/>
   </g>
   <g id="line2d_54">
    <path d="M 214.160367 173.9912 
L 225.741936 173.9912 
" clip-path="url(#pf56164e67c)" style="fill: none; stroke: #000000; stroke-linecap: square"/>
   </g>
   <g id="line2d_55">
    <g clip-path="url(#pf56164e67c)">
     <use xlink:href="#m5ffa982657" x="219.951152" y="127.498879" style="fill: #0000ff; stroke: #0000ff"/>
    </g>
   </g>
   <g id="line2d_56">
    <path d="M 53.948661 203.0489 
L 77.1118 203.0489 
" clip-path="url(#pf56164e67c)" style="fill: none; stroke: #ff7f0e; stroke-linecap: square"/>
   </g>
   <g id="line2d_57">
    <path d="M 131.159122 173.9912 
L 154.32226 173.9912 
" clip-path="url(#pf56164e67c)" style="fill: none; stroke: #ff7f0e; stroke-linecap: square"/>
   </g>
   <g id="line2d_58">
    <path d="M 208.369583 185.61428 
L 231.532721 185.61428 
" clip-path="url(#pf56164e67c)" style="fill: none; stroke: #ff7f0e; stroke-linecap: square"/>
   </g>
   <g id="patch_8">
    <path d="M 26.925 237.336986 
L 26.925 122.268493 
" style="fill: none; stroke: #000000; stroke-width: 0.8; stroke-linejoin: miter; stroke-linecap: square"/>
   </g>
   <g id="patch_9">
    <path d="M 258.556382 237.336986 
L 258.556382 122.268493 
" style="fill: none; stroke: #000000; stroke-width: 0.8; stroke-linejoin: miter; stroke-linecap: square"/>
   </g>
   <g id="patch_10">
    <path d="M 26.925 237.336986 
L 258.556382 237.336986 
" style="fill: none; stroke: #000000; stroke-width: 0.8; stroke-linejoin: miter; stroke-linecap: square"/>
   </g>
   <g id="patch_11">
    <path d="M 26.925 122.268493 
L 258.556382 122.268493 
" style="fill: none; stroke: #000000; stroke-width: 0.8; stroke-linejoin: miter; stroke-linecap: square"/>
   </g>
  </g>
  <g id="axes_3">
   <g id="patch_12">
    <path d="M 26.925 352.405479 
L 258.556382 352.405479 
L 258.556382 237.336986 
L 26.925 237.336986 
z
" style="fill: #ffffff"/>
   </g>
   <g id="matplotlib.axis_5">
    <g id="xtick_7">
     <g id="line2d_59">
      <g>
       <use xlink:href="#m9d5e8cdede" x="65.53023" y="352.405479" style="stroke: #000000; stroke-width: 0.8"/>
      </g>
     </g>
     <g id="text_17">
      <!-- A -->
      <g transform="translate(62.109918 367.003917) scale(0.1 -0.1)">
       <defs>
        <path id="DejaVuSans-41" d="M 2188 4044 
L 1331 1722 
L 3047 1722 
L 2188 4044 
z
M 1831 4666 
L 2547 4666 
L 4325 0 
L 3669 0 
L 3244 1197 
L 1141 1197 
L 716 0 
L 50 0 
L 1831 4666 
z
" transform="scale(0.015625)"/>
       </defs>
       <use xlink:href="#DejaVuSans-41"/>
      </g>
     </g>
    </g>
    <g id="xtick_8">
     <g id="line2d_60">
      <g>
       <use xlink:href="#m9d5e8cdede" x="142.740691" y="352.405479" style="stroke: #000000; stroke-width: 0.8"/>
      </g>
     </g>
     <g id="text_18">
      <!-- B -->
      <g transform="translate(139.310222 367.003917) scale(0.1 -0.1)">
       <defs>
        <path id="DejaVuSans-42" d="M 1259 2228 
L 1259 519 
L 2272 519 
Q 2781 519 3026 730 
Q 3272 941 3272 1375 
Q 3272 1813 3026 2020 
Q 2781 2228 2272 2228 
L 1259 2228 
z
M 1259 4147 
L 1259 2741 
L 2194 2741 
Q 2656 2741 2882 2914 
Q 3109 3088 3109 3444 
Q 3109 3797 2882 3972 
Q 2656 4147 2194 4147 
L 1259 4147 
z
M 628 4666 
L 2241 4666 
Q 2963 4666 3353 4366 
Q 3744 4066 3744 3513 
Q 3744 3084 3544 2831 
Q 3344 2578 2956 2516 
Q 3422 2416 3680 2098 
Q 3938 1781 3938 1306 
Q 3938 681 3513 340 
Q 3088 0 2303 0 
L 628 0 
L 628 4666 
z
" transform="scale(0.015625)"/>
       </defs>
       <use xlink:href="#DejaVuSans-42"/>
      </g>
     </g>
    </g>
    <g id="xtick_9">
     <g id="line2d_61">
      <g>
       <use xlink:href="#m9d5e8cdede" x="219.951152" y="352.405479" style="stroke: #000000; stroke-width: 0.8"/>
      </g>
     </g>
     <g id="text_19">
      <!-- C -->
      <g transform="translate(216.459746 367.003917) scale(0.1 -0.1)">
       <defs>
        <path id="DejaVuSans-43" d="M 4122 4306 
L 4122 3641 
Q 3803 3938 3442 4084 
Q 3081 4231 2675 4231 
Q 1875 4231 1450 3742 
Q 1025 3253 1025 2328 
Q 1025 1406 1450 917 
Q 1875 428 2675 428 
Q 3081 428 3442 575 
Q 3803 722 4122 1019 
L 4122 359 
Q 3791 134 3420 21 
Q 3050 -91 2638 -91 
Q 1578 -91 968 557 
Q 359 1206 359 2328 
Q 359 3453 968 4101 
Q 1578 4750 2638 4750 
Q 3056 4750 3426 4639 
Q 3797 4528 4122 4306 
z
" transform="scale(0.015625)"/>
       </defs>
       <use xlink:href="#DejaVuSans-43"/>
      </g>
     </g>
    </g>
   </g>
   <g id="matplotlib.axis_6">
    <g id="ytick_11">
     <g id="line2d_62">
      <g>
       <use xlink:href="#m889edfee01" x="26.925" y="335.552013" style="stroke: #000000; stroke-width: 0.8"/>
      </g>
     </g>
     <g id="text_20">
      <!-- 2 -->
      <g transform="translate(13.5625 339.351232) scale(0.1 -0.1)">
       <use xlink:href="#DejaVuSans-32"/>
      </g>
     </g>
    </g>
    <g id="ytick_12">
     <g id="line2d_63">
      <g>
       <use xlink:href="#m889edfee01" x="26.925" y="312.305853" style="stroke: #000000; stroke-width: 0.8"/>
      </g>
     </g>
     <g id="text_21">
      <!-- 4 -->
      <g transform="translate(13.5625 316.105072) scale(0.1 -0.1)">
       <use xlink:href="#DejaVuSans-34"/>
      </g>
     </g>
    </g>
    <g id="ytick_13">
     <g id="line2d_64">
      <g>
       <use xlink:href="#m889edfee01" x="26.925" y="289.059693" style="stroke: #000000; stroke-width: 0.8"/>
      </g>
     </g>
     <g id="text_22">
      <!-- 6 -->
      <g transform="translate(13.5625 292.858912) scale(0.1 -0.1)">
       <use xlink:href="#DejaVuSans-36"/>
      </g>
     </g>
    </g>
    <g id="ytick_14">
     <g id="line2d_65">
      <g>
       <use xlink:href="#m889edfee01" x="26.925" y="265.813533" style="stroke: #000000; stroke-width: 0.8"/>
      </g>
     </g>
     <g id="text_23">
      <!-- 8 -->
      <g transform="translate(13.5625 269.612751) scale(0.1 -0.1)">
       <use xlink:href="#DejaVuSans-38"/>
      </g>
     </g>
    </g>
    <g id="ytick_15">
     <g id="line2d_66">
      <g>
       <use xlink:href="#m889edfee01" x="26.925" y="242.567372" style="stroke: #000000; stroke-width: 0.8"/>
      </g>
     </g>
     <g id="text_24">
      <!-- 10 -->
      <g transform="translate(7.2 246.366591) scale(0.1 -0.1)">
       <use xlink:href="#DejaVuSans-31"/>
       <use xlink:href="#DejaVuSans-30" x="63.623047"/>
      </g>
     </g>
    </g>
   </g>
   <g id="line2d_67">
    <path d="M 53.948661 332.646243 
L 77.1118 332.646243 
L 77.1118 303.588543 
L 53.948661 303.588543 
L 53.948661 332.646243 
" clip-path="url(#pe18c2f6e26)" style="fill: none; stroke: #000000; stroke-linecap: square"/>
   </g>
   <g id="line2d_68">
    <path d="M 65.53023 332.646243 
L 65.53023 347.175093 
" clip-path="url(#pe18c2f6e26)" style="fill: none; stroke: #000000; stroke-linecap: square"/>
   </g>
   <g id="line2d_69">
    <path d="M 65.53023 303.588543 
L 65.53023 300.682773 
" clip-path="url(#pe18c2f6e26)" style="fill: none; stroke: #000000; stroke-linecap: square"/>
   </g>
   <g id="line2d_70">
    <path d="M 59.739446 347.175093 
L 71.321015 347.175093 
" clip-path="url(#pe18c2f6e26)" style="fill: none; stroke: #000000; stroke-linecap: square"/>
   </g>
   <g id="line2d_71">
    <path d="M 59.739446 300.682773 
L 71.321015 300.682773 
" clip-path="url(#pe18c2f6e26)" style="fill: none; stroke: #000000; stroke-linecap: square"/>
   </g>
   <g id="line2d_72">
    <path d="M 131.159122 312.305853 
L 154.32226 312.305853 
L 154.32226 265.813533 
L 131.159122 265.813533 
L 131.159122 312.305853 
" clip-path="url(#pe18c2f6e26)" style="fill: none; stroke: #000000; stroke-linecap: square"/>
   </g>
   <g id="line2d_73">
    <path d="M 142.740691 312.305853 
L 142.740691 335.552013 
" clip-path="url(#pe18c2f6e26)" style="fill: none; stroke: #000000; stroke-linecap: square"/>
   </g>
   <g id="line2d_74">
    <path d="M 142.740691 265.813533 
L 142.740691 242.567372 
" clip-path="url(#pe18c2f6e26)" style="fill: none; stroke: #000000; stroke-linecap: square"/>
   </g>
   <g id="line2d_75">
    <path d="M 136.949907 335.552013 
L 148.531476 335.552013 
" clip-path="url(#pe18c2f6e26)" style="fill: none; stroke: #000000; stroke-linecap: square"/>
   </g>
   <g id="line2d_76">
    <path d="M 136.949907 242.567372 
L 148.531476 242.567372 
" clip-path="url(#pe18c2f6e26)" style="fill: none; stroke: #000000; stroke-linecap: square"/>
   </g>
   <g id="line2d_77">
    <path d="M 208.369583 312.305853 
L 231.532721 312.305853 
L 231.532721 289.059693 
L 208.369583 289.059693 
L 208.369583 312.305853 
" clip-path="url(#pe18c2f6e26)" style="fill: none; stroke: #000000; stroke-linecap: square"/>
   </g>
   <g id="line2d_78">
    <path d="M 219.951152 312.305853 
L 219.951152 323.928933 
" clip-path="url(#pe18c2f6e26)" style="fill: none; stroke: #000000; stroke-linecap: square"/>
   </g>
   <g id="line2d_79">
    <path d="M 219.951152 289.059693 
L 219.951152 289.059693 
" clip-path="url(#pe18c2f6e26)" style="fill: none; stroke: #000000; stroke-linecap: square"/>
   </g>
   <g id="line2d_80">
    <path d="M 214.160367 323.928933 
L 225.741936 323.928933 
" clip-path="url(#pe18c2f6e26)" style="fill: none; stroke: #000000; stroke-linecap: square"/>
   </g>
   <g id="line2d_81">
    <path d="M 214.160367 289.059693 
L 225.741936 289.059693 
" clip-path="url(#pe18c2f6e26)" style="fill: none; stroke: #000000; stroke-linecap: square"/>
   </g>
   <g id="line2d_82">
    <path d="M 53.948661 318.117393 
L 77.1118 318.117393 
" clip-path="url(#pe18c2f6e26)" style="fill: none; stroke: #ff7f0e; stroke-linecap: square"/>
   </g>
   <g id="line2d_83">
    <path d="M 131.159122 289.059693 
L 154.32226 289.059693 
" clip-path="url(#pe18c2f6e26)" style="fill: none; stroke: #ff7f0e; stroke-linecap: square"/>
   </g>
   <g id="line2d_84">
    <path d="M 208.369583 300.682773 
L 231.532721 300.682773 
" clip-path="url(#pe18c2f6e26)" style="fill: none; stroke: #ff7f0e; stroke-linecap: square"/>
   </g>
   <g id="patch_13">
    <path d="M 26.925 352.405479 
L 26.925 237.336986 
" style="fill: none; stroke: #000000; stroke-width: 0.8; stroke-linejoin: miter; stroke-linecap: square"/>
   </g>
   <g id="patch_14">
    <path d="M 258.556382 352.405479 
L 258.556382 237.336986 
" style="fill: none; stroke: #000000; stroke-width: 0.8; stroke-linejoin: miter; stroke-linecap: square"/>
   </g>
   <g id="patch_15">
    <path d="M 26.925 352.405479 
L 258.556382 352.405479 
" style="fill: none; stroke: #000000; stroke-width: 0.8; stroke-linejoin: miter; stroke-linecap: square"/>
   </g>
   <g id="patch_16">
    <path d="M 26.925 237.336986 
L 258.556382 237.336986 
" style="fill: none; stroke: #000000; stroke-width: 0.8; stroke-linejoin: miter; stroke-linecap: square"/>
   </g>
  </g>
 </g>
 <defs>
  <clipPath id="p7e6af918f5">
   <rect x="26.925" y="7.2" width="231.631382" height="115.068493"/>
  </clipPath>
  <clipPath id="pf56164e67c">
   <rect x="26.925" y="122.268493" width="231.631382" height="115.068493"/>
  </clipPath>
  <clipPath id="pe18c2f6e26">
   <rect x="26.925" y="237.336986" width="231.631382" height="115.068493"/>
  </clipPath>
 </defs>
</svg>
