<?xml version="1.0" encoding="utf-8" standalone="no"?>
<!DOCTYPE svg PUBLIC "-//W3C//DTD SVG 1.1//EN"
  "http://www.w3.org/Graphics/SVG/1.1/DTD/svg11.dtd">
<svg xmlns:xlink="http://www.w3.org/1999/xlink" width="503.74714pt" height="178.64285pt" viewBox="0 0 503.74714 178.64285" xmlns="http://www.w3.org/2000/svg" version="1.1">
 <metadata>
  <rdf:RDF xmlns:dc="http://purl.org/dc/elements/1.1/" xmlns:cc="http://creativecommons.org/ns#" xmlns:rdf="http://www.w3.org/1999/02/22-rdf-syntax-ns#">
   <cc:Work>
    <dc:type rdf:resource="http://purl.org/dc/dcmitype/StillImage"/>
    <dc:date>2025-12-27T11:28:12.444173</dc:date>
    <dc:format>image/svg+xml</dc:format>
    <dc:creator>
     <cc:Agent>
      <dc:title>Matplotlib v3.6.3, https://matplotlib.org/</dc:title>
     </cc:Agent>
    </dc:creator>
   </cc:Work>
  </rdf:RDF>
 </metadata>
 <defs>
  <style type="text/css">*{stroke-linejoin: round; stroke-linecap: butt}</style>
 </defs>
 <g id="figure_1">
  <g id="patch_1">
   <path d="M 0 178.64285 
L 503.74714 178.64285 
L 503.74714 0 
L 0 0 
z
" style="fill: #ffffff"/>
  </g>
  <g id="axes_1">
   <g id="patch_2">
    <path d="M 30.103125 103.484263 
L 215.073214 103.484263 
L 215.073214 10.999219 
L 30.103125 10.999219 
z
" style="fill: #ffffff"/>
   </g>
   <g id="PathCollection_1">
    <path d="M 76.345647 103.484263 
L 99.466908 103.484263 
L 122.588169 103.484263 
L 145.709431 103.484263 
L 168.830692 103.484263 
L 168.830692 103.484263 
L 168.830692 103.484263 
L 166.90392 91.923633 
L 161.123605 80.363002 
L 151.489746 68.802372 
L 145.709431 63.847816 
L 122.588169 57.241741 
L 122.588169 57.241741 
L 122.588169 57.241741 
L 99.466908 63.847816 
L 93.686593 68.802372 
L 84.052734 80.363002 
L 78.272419 91.923633 
L 76.345647 103.484263 
L 76.345647 103.484263 
z
" clip-path="url(#p992694693a)" style="fill: #2020ff"/>
   </g>
   <g id="PathCollection_2">
    <path d="M 76.345647 103.484263 
L 78.272419 91.923633 
L 84.052734 80.363002 
L 93.686593 68.802372 
L 99.466908 63.847816 
L 122.588169 57.241741 
L 122.588169 57.241741 
L 122.588169 57.241741 
L 145.709431 63.847816 
L 151.489746 68.802372 
L 161.123605 80.363002 
L 166.90392 91.923633 
L 168.830692 103.484263 
L 168.830692 103.484263 
L 187.327701 103.484263 
L 186.171637 91.923633 
L 182.703448 80.363002 
L 176.923133 68.802372 
L 168.830692 57.241741 
L 168.830692 57.241741 
L 151.489746 45.68111 
L 145.709431 42.528211 
L 122.588169 38.324346 
L 99.466908 42.528211 
L 93.686593 45.68111 
L 76.345647 57.241741 
L 76.345647 57.241741 
L 68.253206 68.802372 
L 62.472891 80.363002 
L 59.004701 91.923633 
L 57.848638 103.484263 
L 76.345647 103.484263 
z
" clip-path="url(#p992694693a)" style="fill: #6060ff"/>
   </g>
   <g id="PathCollection_3">
    <path d="M 53.224386 103.484263 
L 57.848638 103.484263 
L 59.004701 91.923633 
L 62.472891 80.363002 
L 68.253206 68.802372 
L 76.345647 57.241741 
L 76.345647 57.241741 
L 93.686593 45.68111 
L 99.466908 42.528211 
L 122.588169 38.324346 
L 145.709431 42.528211 
L 151.489746 45.68111 
L 168.830692 57.241741 
L 168.830692 57.241741 
L 176.923133 68.802372 
L 182.703448 80.363002 
L 186.171637 91.923633 
L 187.327701 103.484263 
L 191.951953 103.484263 
L 201.861065 103.484263 
L 201.035305 91.923633 
L 198.558027 80.363002 
L 194.429231 68.802372 
L 191.951953 63.847816 
L 187.327701 57.241741 
L 176.923133 45.68111 
L 168.830692 38.324346 
L 161.123605 34.12048 
L 145.709431 27.006246 
L 122.588169 23.449129 
L 99.466908 27.006246 
L 84.052734 34.12048 
L 76.345647 38.324346 
L 68.253206 45.68111 
L 57.848638 57.241741 
L 53.224386 63.847816 
L 50.747108 68.802372 
L 46.618312 80.363002 
L 44.141034 91.923633 
L 43.315274 103.484263 
z
" clip-path="url(#p992694693a)" style="fill: #a0a0ff"/>
   </g>
   <g id="PathCollection_4">
    <path d="M 44.141034 91.923633 
L 46.618312 80.363002 
L 50.747108 68.802372 
L 53.224386 63.847816 
L 57.848638 57.241741 
L 68.253206 45.68111 
L 76.345647 38.324346 
L 84.052734 34.12048 
L 99.466908 27.006246 
L 122.588169 23.449129 
L 145.709431 27.006246 
L 161.123605 34.12048 
L 168.830692 38.324346 
L 176.923133 45.68111 
L 187.327701 57.241741 
L 191.951953 63.847816 
L 194.429231 68.802372 
L 198.558027 80.363002 
L 201.035305 91.923633 
L 201.861065 103.484263 
L 215.073214 103.484263 
L 215.073214 103.484263 
L 214.247455 91.923633 
L 211.770177 80.363002 
L 207.64138 68.802372 
L 201.861065 57.241741 
L 194.429231 45.68111 
L 191.951953 42.528211 
L 182.703448 34.12048 
L 168.830692 23.449129 
L 166.90392 22.559849 
L 145.709431 14.082054 
L 122.588169 10.999219 
L 122.588169 10.999219 
L 122.588169 10.999219 
L 99.466908 14.082054 
L 78.272419 22.559849 
L 76.345647 23.449129 
L 62.472891 34.12048 
L 53.224386 42.528211 
L 50.747108 45.68111 
L 43.315274 57.241741 
L 37.534959 68.802372 
L 33.406162 80.363002 
L 30.928884 91.923633 
L 30.103125 103.484263 
L 30.103125 103.484263 
L 43.315274 103.484263 
z
" clip-path="url(#p992694693a)" style="fill: #e0e0ff"/>
   </g>
   <g id="PathCollection_5">
    <path d="M 30.928884 91.923633 
L 33.406162 80.363002 
L 37.534959 68.802372 
L 43.315274 57.241741 
L 50.747108 45.68111 
L 53.224386 42.528211 
L 62.472891 34.12048 
L 76.345647 23.449129 
L 78.272419 22.559849 
L 99.466908 14.082054 
L 122.588169 10.999219 
L 99.466908 10.999219 
L 76.345647 10.999219 
L 76.345647 10.999219 
L 59.004701 22.559849 
L 53.224386 27.006246 
L 46.618312 34.12048 
L 37.534959 45.68111 
L 30.103125 57.241741 
L 30.103125 57.241741 
L 30.103125 68.802372 
L 30.103125 80.363002 
L 30.103125 91.923633 
L 30.103125 103.484263 
z
" clip-path="url(#p992694693a)" style="fill: #ffdede"/>
    <path d="M 215.073214 103.484263 
L 215.073214 91.923633 
L 215.073214 80.363002 
L 215.073214 68.802372 
L 215.073214 57.241741 
L 215.073214 57.241741 
L 207.64138 45.68111 
L 198.558027 34.12048 
L 191.951953 27.006246 
L 186.171637 22.559849 
L 168.830692 10.999219 
L 168.830692 10.999219 
L 145.709431 10.999219 
L 122.588169 10.999219 
L 145.709431 14.082054 
L 166.90392 22.559849 
L 168.830692 23.449129 
L 182.703448 34.12048 
L 191.951953 42.528211 
L 194.429231 45.68111 
L 201.861065 57.241741 
L 207.64138 68.802372 
L 211.770177 80.363002 
L 214.247455 91.923633 
z
" clip-path="url(#p992694693a)" style="fill: #ffdede"/>
   </g>
   <g id="PathCollection_6">
    <path d="M 37.534959 45.68111 
L 46.618312 34.12048 
L 53.224386 27.006246 
L 59.004701 22.559849 
L 76.345647 10.999219 
L 57.848638 10.999219 
L 53.224386 14.082054 
L 44.141034 22.559849 
L 33.406162 34.12048 
L 30.103125 38.324346 
L 30.103125 45.68111 
L 30.103125 57.241741 
z
" clip-path="url(#p992694693a)" style="fill: #ff9e9e"/>
    <path d="M 215.073214 57.241741 
L 215.073214 45.68111 
L 215.073214 38.324346 
L 211.770177 34.12048 
L 201.035305 22.559849 
L 191.951953 14.082054 
L 187.327701 10.999219 
L 168.830692 10.999219 
L 186.171637 22.559849 
L 191.951953 27.006246 
L 198.558027 34.12048 
L 207.64138 45.68111 
z
" clip-path="url(#p992694693a)" style="fill: #ff9e9e"/>
   </g>
   <g id="PathCollection_7">
    <path d="M 33.406162 34.12048 
L 44.141034 22.559849 
L 53.224386 14.082054 
L 57.848638 10.999219 
L 53.224386 10.999219 
L 43.315274 10.999219 
L 30.928884 22.559849 
L 30.103125 23.449129 
L 30.103125 34.12048 
L 30.103125 38.324346 
z
" clip-path="url(#p992694693a)" style="fill: #ff5e5e"/>
    <path d="M 215.073214 38.324346 
L 215.073214 34.12048 
L 215.073214 23.449129 
L 214.247455 22.559849 
L 201.861065 10.999219 
L 191.951953 10.999219 
L 187.327701 10.999219 
L 191.951953 14.082054 
L 201.035305 22.559849 
L 211.770177 34.12048 
z
" clip-path="url(#p992694693a)" style="fill: #ff5e5e"/>
   </g>
   <g id="PathCollection_8">
    <path d="M 30.928884 22.559849 
L 43.315274 10.999219 
L 30.103125 10.999219 
L 30.103125 22.559849 
L 30.103125 23.449129 
z
" clip-path="url(#p992694693a)" style="fill: #ff1e1e"/>
    <path d="M 215.073214 23.449129 
L 215.073214 22.559849 
L 215.073214 10.999219 
L 201.861065 10.999219 
L 214.247455 22.559849 
z
" clip-path="url(#p992694693a)" style="fill: #ff1e1e"/>
   </g>
   <g id="matplotlib.axis_1">
    <g id="xtick_1">
     <g id="line2d_1">
      <defs>
       <path id="m0abcc8a412" d="M 0 0 
L 0 3.5 
" style="stroke: #000000; stroke-width: 0.8"/>
      </defs>
      <g>
       <use xlink:href="#m0abcc8a412" x="30.103125" y="103.484263" style="stroke: #000000; stroke-width: 0.8"/>
      </g>
     </g>
     <g id="text_1">
      <!-- −2 -->
      <g transform="translate(22.732031 118.082701) scale(0.1 -0.1)">
       <defs>
        <path id="DejaVuSans-2212" d="M 678 2272 
L 4684 2272 
L 4684 1741 
L 678 1741 
L 678 2272 
z
" transform="scale(0.015625)"/>
        <path id="DejaVuSans-32" d="M 1228 531 
L 3431 531 
L 3431 0 
L 469 0 
L 469 531 
Q 828 903 1448 1529 
Q 2069 2156 2228 2338 
Q 2531 2678 2651 2914 
Q 2772 3150 2772 3378 
Q 2772 3750 2511 3984 
Q 2250 4219 1831 4219 
Q 1534 4219 1204 4116 
Q 875 4013 500 3803 
L 500 4441 
Q 881 4594 1212 4672 
Q 1544 4750 1819 4750 
Q 2544 4750 2975 4387 
Q 3406 4025 3406 3419 
Q 3406 3131 3298 2873 
Q 3191 2616 2906 2266 
Q 2828 2175 2409 1742 
Q 1991 1309 1228 531 
z
" transform="scale(0.015625)"/>
       </defs>
       <use xlink:href="#DejaVuSans-2212"/>
       <use xlink:href="#DejaVuSans-32" x="83.789062"/>
      </g>
     </g>
    </g>
    <g id="xtick_2">
     <g id="line2d_2">
      <g>
       <use xlink:href="#m0abcc8a412" x="76.345647" y="103.484263" style="stroke: #000000; stroke-width: 0.8"/>
      </g>
     </g>
     <g id="text_2">
      <!-- −1 -->
      <g transform="translate(68.974553 118.082701) scale(0.1 -0.1)">
       <defs>
        <path id="DejaVuSans-31" d="M 794 531 
L 1825 531 
L 1825 4091 
L 703 3866 
L 703 4441 
L 1819 4666 
L 2450 4666 
L 2450 531 
L 3481 531 
L 3481 0 
L 794 0 
L 794 531 
z
" transform="scale(0.015625)"/>
       </defs>
       <use xlink:href="#DejaVuSans-2212"/>
       <use xlink:href="#DejaVuSans-31" x="83.789062"/>
      </g>
     </g>
    </g>
    <g id="xtick_3">
     <g id="line2d_3">
      <g>
       <use xlink:href="#m0abcc8a412" x="122.588169" y="103.484263" style="stroke: #000000; stroke-width: 0.8"/>
      </g>
     </g>
     <g id="text_3">
      <!-- 0 -->
      <g transform="translate(119.406919 118.082701) scale(0.1 -0.1)">
       <defs>
        <path id="DejaVuSans-30" d="M 2034 4250 
Q 1547 4250 1301 3770 
Q 1056 3291 1056 2328 
Q 1056 1369 1301 889 
Q 1547 409 2034 409 
Q 2525 409 2770 889 
Q 3016 1369 3016 2328 
Q 3016 3291 2770 3770 
Q 2525 4250 2034 4250 
z
M 2034 4750 
Q 2819 4750 3233 4129 
Q 3647 3509 3647 2328 
Q 3647 1150 3233 529 
Q 2819 -91 2034 -91 
Q 1250 -91 836 529 
Q 422 1150 422 2328 
Q 422 3509 836 4129 
Q 1250 4750 2034 4750 
z
" transform="scale(0.015625)"/>
       </defs>
       <use xlink:href="#DejaVuSans-30"/>
      </g>
     </g>
    </g>
    <g id="xtick_4">
     <g id="line2d_4">
      <g>
       <use xlink:href="#m0abcc8a412" x="168.830692" y="103.484263" style="stroke: #000000; stroke-width: 0.8"/>
      </g>
     </g>
     <g id="text_4">
      <!-- 1 -->
      <g transform="translate(165.649442 118.082701) scale(0.1 -0.1)">
       <use xlink:href="#DejaVuSans-31"/>
      </g>
     </g>
    </g>
    <g id="xtick_5">
     <g id="line2d_5">
      <g>
       <use xlink:href="#m0abcc8a412" x="215.073214" y="103.484263" style="stroke: #000000; stroke-width: 0.8"/>
      </g>
     </g>
     <g id="text_5">
      <!-- 2 -->
      <g transform="translate(211.891964 118.082701) scale(0.1 -0.1)">
       <use xlink:href="#DejaVuSans-32"/>
      </g>
     </g>
    </g>
   </g>
   <g id="matplotlib.axis_2">
    <g id="ytick_1">
     <g id="line2d_6">
      <defs>
       <path id="mff1478b0c9" d="M 0 0 
L -3.5 0 
" style="stroke: #000000; stroke-width: 0.8"/>
      </defs>
      <g>
       <use xlink:href="#mff1478b0c9" x="30.103125" y="103.484263" style="stroke: #000000; stroke-width: 0.8"/>
      </g>
     </g>
     <g id="text_6">
      <!-- 0.0 -->
      <g transform="translate(7.2 107.283482) scale(0.1 -0.1)">
       <defs>
        <path id="DejaVuSans-2e" d="M 684 794 
L 1344 794 
L 1344 0 
L 684 0 
L 684 794 
z
" transform="scale(0.015625)"/>
       </defs>
       <use xlink:href="#DejaVuSans-30"/>
       <use xlink:href="#DejaVuSans-2e" x="63.623047"/>
       <use xlink:href="#DejaVuSans-30" x="95.410156"/>
      </g>
     </g>
    </g>
    <g id="ytick_2">
     <g id="line2d_7">
      <g>
       <use xlink:href="#mff1478b0c9" x="30.103125" y="80.363002" style="stroke: #000000; stroke-width: 0.8"/>
      </g>
     </g>
     <g id="text_7">
      <!-- 0.5 -->
      <g transform="translate(7.2 84.162221) scale(0.1 -0.1)">
       <defs>
        <path id="DejaVuSans-35" d="M 691 4666 
L 3169 4666 
L 3169 4134 
L 1269 4134 
L 1269 2991 
Q 1406 3038 1543 3061 
Q 1681 3084 1819 3084 
Q 2600 3084 3056 2656 
Q 3513 2228 3513 1497 
Q 3513 744 3044 326 
Q 2575 -91 1722 -91 
Q 1428 -91 1123 -41 
Q 819 9 494 109 
L 494 744 
Q 775 591 1075 516 
Q 1375 441 1709 441 
Q 2250 441 2565 725 
Q 2881 1009 2881 1497 
Q 2881 1984 2565 2268 
Q 2250 2553 1709 2553 
Q 1456 2553 1204 2497 
Q 953 2441 691 2322 
L 691 4666 
z
" transform="scale(0.015625)"/>
       </defs>
       <use xlink:href="#DejaVuSans-30"/>
       <use xlink:href="#DejaVuSans-2e" x="63.623047"/>
       <use xlink:href="#DejaVuSans-35" x="95.410156"/>
      </g>
     </g>
    </g>
    <g id="ytick_3">
     <g id="line2d_8">
      <g>
       <use xlink:href="#mff1478b0c9" x="30.103125" y="57.241741" style="stroke: #000000; stroke-width: 0.8"/>
      </g>
     </g>
     <g id="text_8">
      <!-- 1.0 -->
      <g transform="translate(7.2 61.04096) scale(0.1 -0.1)">
       <use xlink:href="#DejaVuSans-31"/>
       <use xlink:href="#DejaVuSans-2e" x="63.623047"/>
       <use xlink:href="#DejaVuSans-30" x="95.410156"/>
      </g>
     </g>
    </g>
    <g id="ytick_4">
     <g id="line2d_9">
      <g>
       <use xlink:href="#mff1478b0c9" x="30.103125" y="34.12048" style="stroke: #000000; stroke-width: 0.8"/>
      </g>
     </g>
     <g id="text_9">
      <!-- 1.5 -->
      <g transform="translate(7.2 37.919699) scale(0.1 -0.1)">
       <use xlink:href="#DejaVuSans-31"/>
       <use xlink:href="#DejaVuSans-2e" x="63.623047"/>
       <use xlink:href="#DejaVuSans-35" x="95.410156"/>
      </g>
     </g>
    </g>
    <g id="ytick_5">
     <g id="line2d_10">
      <g>
       <use xlink:href="#mff1478b0c9" x="30.103125" y="10.999219" style="stroke: #000000; stroke-width: 0.8"/>
      </g>
     </g>
     <g id="text_10">
      <!-- 2.0 -->
      <g transform="translate(7.2 14.798438) scale(0.1 -0.1)">
       <use xlink:href="#DejaVuSans-32"/>
       <use xlink:href="#DejaVuSans-2e" x="63.623047"/>
       <use xlink:href="#DejaVuSans-30" x="95.410156"/>
      </g>
     </g>
    </g>
   </g>
   <g id="PathCollection_9">
    <path d="M 122.588169 103.484263 
L 122.588169 103.484263 
L 122.588169 103.484263 
z
" clip-path="url(#p992694693a)" style="fill: none; stroke: #000000; stroke-width: 1.5"/>
   </g>
   <g id="PathCollection_10">
    <path d="M 76.345647 103.484263 
L 76.345647 103.484263 
L 78.272419 91.923633 
L 84.052734 80.363002 
L 91.774338 71.097078 
" clip-path="url(#p992694693a)" style="fill: none; stroke: #000000; stroke-width: 1.5"/>
    <path d="M 96.294796 66.566769 
L 99.466908 63.847816 
L 122.588169 57.241741 
L 122.588169 57.241741 
L 122.588169 57.241741 
L 145.709431 63.847816 
L 151.489746 68.802372 
L 161.123605 80.363002 
L 166.90392 91.923633 
L 168.830692 103.484263 
L 168.830692 103.484263 
" clip-path="url(#p992694693a)" style="fill: none; stroke: #000000; stroke-width: 1.5"/>
   </g>
   <g id="PathCollection_11">
    <path d="M 57.848638 103.484263 
L 59.004701 91.923633 
L 62.472891 80.363002 
L 68.253206 68.802372 
L 74.725993 59.555533 
" clip-path="url(#p992694693a)" style="fill: none; stroke: #000000; stroke-width: 1.5"/>
    <path d="M 79.590843 55.078277 
L 93.686593 45.68111 
L 99.466908 42.528211 
L 122.588169 38.324346 
L 145.709431 42.528211 
L 151.489746 45.68111 
L 168.830692 57.241741 
L 168.830692 57.241741 
L 176.923133 68.802372 
L 182.703448 80.363002 
L 186.171637 91.923633 
L 187.327701 103.484263 
" clip-path="url(#p992694693a)" style="fill: none; stroke: #000000; stroke-width: 1.5"/>
   </g>
   <g id="PathCollection_12">
    <path d="M 43.315274 103.484263 
L 44.141034 91.923633 
L 46.618312 80.363002 
L 50.747108 68.802372 
L 52.055978 66.184632 
" clip-path="url(#p992694693a)" style="fill: none; stroke: #000000; stroke-width: 1.5"/>
    <path d="M 54.84404 61.534024 
L 57.848638 57.241741 
L 68.253206 45.68111 
L 76.345647 38.324346 
L 84.052734 34.12048 
L 99.466908 27.006246 
L 122.588169 23.449129 
L 145.709431 27.006246 
L 161.123605 34.12048 
L 168.830692 38.324346 
L 176.923133 45.68111 
L 187.327701 57.241741 
L 191.951953 63.847816 
L 194.429231 68.802372 
L 198.558027 80.363002 
L 201.035305 91.923633 
L 201.861065 103.484263 
" clip-path="url(#p992694693a)" style="fill: none; stroke: #000000; stroke-width: 1.5"/>
   </g>
   <g id="PathCollection_13">
    <path d="M 30.103125 103.484263 
L 30.928884 91.923633 
L 33.406162 80.363002 
L 37.534959 68.802372 
L 42.146866 59.578557 
" clip-path="url(#p992694693a)" style="fill: none; stroke: #000000; stroke-width: 1.5"/>
    <path d="M 44.807397 54.920662 
L 50.747108 45.68111 
L 53.224386 42.528211 
L 62.472891 34.12048 
L 76.345647 23.449129 
L 78.272419 22.559849 
L 99.466908 14.082054 
L 122.588169 10.999219 
" clip-path="url(#p992694693a)" style="fill: none; stroke: #000000; stroke-width: 1.5"/>
    <path d="M 129.950466 11.980858 
L 145.709431 14.082054 
L 166.90392 22.559849 
L 168.830692 23.449129 
L 182.703448 34.12048 
L 191.951953 42.528211 
L 194.429231 45.68111 
L 201.861065 57.241741 
L 207.64138 68.802372 
L 211.770177 80.363002 
L 214.247455 91.923633 
L 215.073214 103.484263 
" clip-path="url(#p992694693a)" style="fill: none; stroke: #000000; stroke-width: 1.5"/>
   </g>
   <g id="PathCollection_14">
    <path d="M 30.103125 57.241741 
L 37.534959 45.68111 
L 46.618312 34.12048 
L 51.10781 29.285635 
" clip-path="url(#p992694693a)" style="fill: none; stroke: #000000; stroke-width: 1.5"/>
    <path d="M 56.094888 24.798167 
L 59.004701 22.559849 
L 76.345647 10.999219 
" clip-path="url(#p992694693a)" style="fill: none; stroke: #000000; stroke-width: 1.5"/>
    <path d="M 168.830692 10.999219 
L 186.171637 22.559849 
L 191.951953 27.006246 
L 196.441452 31.841091 
" clip-path="url(#p992694693a)" style="fill: none; stroke: #000000; stroke-width: 1.5"/>
    <path d="M 200.366622 36.422328 
L 207.64138 45.68111 
L 215.073214 57.241741 
" clip-path="url(#p992694693a)" style="fill: none; stroke: #000000; stroke-width: 1.5"/>
   </g>
   <g id="PathCollection_15">
    <path d="M 30.103125 38.324346 
L 33.406162 34.12048 
L 42.024458 24.839239 
" clip-path="url(#p992694693a)" style="fill: none; stroke: #000000; stroke-width: 1.5"/>
    <path d="M 46.556034 20.305849 
L 53.224386 14.082054 
L 57.848638 10.999219 
" clip-path="url(#p992694693a)" style="fill: none; stroke: #000000; stroke-width: 1.5"/>
    <path d="M 187.327701 10.999219 
L 191.951953 14.082054 
L 198.620305 20.305849 
" clip-path="url(#p992694693a)" style="fill: none; stroke: #000000; stroke-width: 1.5"/>
    <path d="M 203.151881 24.839239 
L 211.770177 34.12048 
L 215.073214 38.324346 
" clip-path="url(#p992694693a)" style="fill: none; stroke: #000000; stroke-width: 1.5"/>
   </g>
   <g id="PathCollection_16">
    <path d="M 33.343885 20.305849 
L 43.315274 10.999219 
" clip-path="url(#p992694693a)" style="fill: none; stroke: #000000; stroke-width: 1.5"/>
    <path d="M 201.861065 10.999219 
L 211.832454 20.305849 
" clip-path="url(#p992694693a)" style="fill: none; stroke: #000000; stroke-width: 1.5"/>
   </g>
   <g id="PathCollection_17"/>
   <g id="patch_3">
    <path d="M 30.103125 103.484263 
L 30.103125 10.999219 
" style="fill: none; stroke: #000000; stroke-width: 0.8; stroke-linejoin: miter; stroke-linecap: square"/>
   </g>
   <g id="patch_4">
    <path d="M 215.073214 103.484263 
L 215.073214 10.999219 
" style="fill: none; stroke: #000000; stroke-width: 0.8; stroke-linejoin: miter; stroke-linecap: square"/>
   </g>
   <g id="patch_5">
    <path d="M 30.103125 103.484263 
L 215.073214 103.484263 
" style="fill: none; stroke: #000000; stroke-width: 0.8; stroke-linejoin: miter; stroke-linecap: square"/>
   </g>
   <g id="patch_6">
    <path d="M 30.103125 10.999219 
L 215.073214 10.999219 
" style="fill: none; stroke: #000000; stroke-width: 0.8; stroke-linejoin: miter; stroke-linecap: square"/>
   </g>
   <g id="text_11">
    <g clip-path="url(#p992694693a)">
     <!-- 1 -->
     <g transform="translate(95.446831 72.628082) rotate(-73.769569) scale(0.1 -0.1)">
      <use xlink:href="#DejaVuSans-31"/>
     </g>
    </g>
   </g>
   <g id="text_12">
    <g clip-path="url(#p992694693a)">
     <!-- 2 -->
     <g transform="translate(78.014737 61.108088) rotate(-72.411758) scale(0.1 -0.1)">
      <use xlink:href="#DejaVuSans-32"/>
     </g>
    </g>
   </g>
   <g id="text_13">
    <g clip-path="url(#p992694693a)">
     <!-- 3 -->
     <g transform="translate(55.394427 67.456891) rotate(-80.07943) scale(0.1 -0.1)">
      <defs>
       <path id="DejaVuSans-33" d="M 2597 2516 
Q 3050 2419 3304 2112 
Q 3559 1806 3559 1356 
Q 3559 666 3084 287 
Q 2609 -91 1734 -91 
Q 1441 -91 1130 -33 
Q 819 25 488 141 
L 488 750 
Q 750 597 1062 519 
Q 1375 441 1716 441 
Q 2309 441 2620 675 
Q 2931 909 2931 1356 
Q 2931 1769 2642 2001 
Q 2353 2234 1838 2234 
L 1294 2234 
L 1294 2753 
L 1863 2753 
Q 2328 2753 2575 2939 
Q 2822 3125 2822 3475 
Q 2822 3834 2567 4026 
Q 2313 4219 1838 4219 
Q 1578 4219 1281 4162 
Q 984 4106 628 3988 
L 628 4550 
Q 988 4650 1302 4700 
Q 1616 4750 1894 4750 
Q 2613 4750 3031 4423 
Q 3450 4097 3450 3541 
Q 3450 3153 3228 2886 
Q 3006 2619 2597 2516 
z
" transform="scale(0.015625)"/>
      </defs>
      <use xlink:href="#DejaVuSans-33"/>
     </g>
    </g>
   </g>
   <g id="text_14">
    <g clip-path="url(#p992694693a)">
     <!-- 4 -->
     <g transform="translate(45.514216 60.833281) rotate(-80.539354) scale(0.1 -0.1)">
      <defs>
       <path id="DejaVuSans-34" d="M 2419 4116 
L 825 1625 
L 2419 1625 
L 2419 4116 
z
M 2253 4666 
L 3047 4666 
L 3047 1625 
L 3713 1625 
L 3713 1100 
L 3047 1100 
L 3047 0 
L 2419 0 
L 2419 1100 
L 313 1100 
L 313 1709 
L 2253 4666 
z
" transform="scale(0.015625)"/>
      </defs>
      <use xlink:href="#DejaVuSans-34"/>
     </g>
    </g>
   </g>
   <g id="text_15">
    <g clip-path="url(#p992694693a)">
     <!-- 4 -->
     <g transform="translate(118.547775 12.186534) rotate(-335.43807) scale(0.1 -0.1)">
      <use xlink:href="#DejaVuSans-34"/>
     </g>
    </g>
   </g>
   <g id="text_16">
    <g clip-path="url(#p992694693a)">
     <!-- 5 -->
     <g transform="translate(54.86811 30.883445) rotate(-72.03639) scale(0.1 -0.1)">
      <use xlink:href="#DejaVuSans-35"/>
     </g>
    </g>
   </g>
   <g id="text_17">
    <g clip-path="url(#p992694693a)">
     <!-- 5 -->
     <g transform="translate(195.109569 31.703326) rotate(-284.033997) scale(0.1 -0.1)">
      <use xlink:href="#DejaVuSans-35"/>
     </g>
    </g>
   </g>
   <g id="text_18">
    <g clip-path="url(#p992694693a)">
     <!-- 6 -->
     <g transform="translate(45.899446 26.3864) rotate(-73.742231) scale(0.1 -0.1)">
      <defs>
       <path id="DejaVuSans-36" d="M 2113 2584 
Q 1688 2584 1439 2293 
Q 1191 2003 1191 1497 
Q 1191 994 1439 701 
Q 1688 409 2113 409 
Q 2538 409 2786 701 
Q 3034 994 3034 1497 
Q 3034 2003 2786 2293 
Q 2538 2584 2113 2584 
z
M 3366 4563 
L 3366 3988 
Q 3128 4100 2886 4159 
Q 2644 4219 2406 4219 
Q 1781 4219 1451 3797 
Q 1122 3375 1075 2522 
Q 1259 2794 1537 2939 
Q 1816 3084 2150 3084 
Q 2853 3084 3261 2657 
Q 3669 2231 3669 1497 
Q 3669 778 3244 343 
Q 2819 -91 2113 -91 
Q 1303 -91 875 529 
Q 447 1150 447 2328 
Q 447 3434 972 4092 
Q 1497 4750 2381 4750 
Q 2619 4750 2861 4703 
Q 3103 4656 3366 4563 
z
" transform="scale(0.015625)"/>
      </defs>
      <use xlink:href="#DejaVuSans-36"/>
     </g>
    </g>
   </g>
   <g id="text_19">
    <g clip-path="url(#p992694693a)">
     <!-- 6 -->
     <g transform="translate(197.495652 20.278324) rotate(-286.257769) scale(0.1 -0.1)">
      <use xlink:href="#DejaVuSans-36"/>
     </g>
    </g>
   </g>
   <g id="text_20">
    <g clip-path="url(#p992694693a)">
     <!-- 7 -->
     <g transform="translate(32.680456 26.389536) rotate(-73.639838) scale(0.1 -0.1)">
      <defs>
       <path id="DejaVuSans-37" d="M 525 4666 
L 3525 4666 
L 3525 4397 
L 1831 0 
L 1172 0 
L 2766 4134 
L 525 4134 
L 525 4666 
z
" transform="scale(0.015625)"/>
      </defs>
      <use xlink:href="#DejaVuSans-37"/>
     </g>
    </g>
   </g>
   <g id="text_21">
    <g clip-path="url(#p992694693a)">
     <!-- 7 -->
     <g transform="translate(210.70373 20.284653) rotate(-286.360162) scale(0.1 -0.1)">
      <use xlink:href="#DejaVuSans-37"/>
     </g>
    </g>
   </g>
  </g>
  <g id="axes_2">
   <g id="patch_7">
    <path d="M 222.273214 103.484263 
L 231.521718 103.484263 
L 231.521718 10.999219 
L 222.273214 10.999219 
z
" style="fill: #ffffff"/>
   </g>
   <g id="patch_8">
    <path clip-path="url(#p66924c4a85)" style="fill: #ffffff; stroke: #ffffff; stroke-width: 0.01; stroke-linejoin: miter"/>
   </g>
   <g id="QuadMesh_1">
    <path d="M 222.273214 103.484263 
L 231.521718 103.484263 
L 231.521718 91.923633 
L 222.273214 91.923633 
L 222.273214 103.484263 
" clip-path="url(#p66924c4a85)" style="fill: #2020ff"/>
    <path d="M 222.273214 91.923633 
L 231.521718 91.923633 
L 231.521718 80.363002 
L 222.273214 80.363002 
L 222.273214 91.923633 
" clip-path="url(#p66924c4a85)" style="fill: #6060ff"/>
    <path d="M 222.273214 80.363002 
L 231.521718 80.363002 
L 231.521718 68.802372 
L 222.273214 68.802372 
L 222.273214 80.363002 
" clip-path="url(#p66924c4a85)" style="fill: #a0a0ff"/>
    <path d="M 222.273214 68.802372 
L 231.521718 68.802372 
L 231.521718 57.241741 
L 222.273214 57.241741 
L 222.273214 68.802372 
" clip-path="url(#p66924c4a85)" style="fill: #e0e0ff"/>
    <path d="M 222.273214 57.241741 
L 231.521718 57.241741 
L 231.521718 45.68111 
L 222.273214 45.68111 
L 222.273214 57.241741 
" clip-path="url(#p66924c4a85)" style="fill: #ffdede"/>
    <path d="M 222.273214 45.68111 
L 231.521718 45.68111 
L 231.521718 34.12048 
L 222.273214 34.12048 
L 222.273214 45.68111 
" clip-path="url(#p66924c4a85)" style="fill: #ff9e9e"/>
    <path d="M 222.273214 34.12048 
L 231.521718 34.12048 
L 231.521718 22.559849 
L 222.273214 22.559849 
L 222.273214 34.12048 
" clip-path="url(#p66924c4a85)" style="fill: #ff5e5e"/>
    <path d="M 222.273214 22.559849 
L 231.521718 22.559849 
L 231.521718 10.999219 
L 222.273214 10.999219 
L 222.273214 22.559849 
" clip-path="url(#p66924c4a85)" style="fill: #ff1e1e"/>
   </g>
   <g id="matplotlib.axis_3"/>
   <g id="matplotlib.axis_4">
    <g id="ytick_6">
     <g id="line2d_11">
      <defs>
       <path id="m131b2db9be" d="M 0 0 
L 3.5 0 
" style="stroke: #000000; stroke-width: 0.8"/>
      </defs>
      <g>
       <use xlink:href="#m131b2db9be" x="231.521718" y="103.484263" style="stroke: #000000; stroke-width: 0.8"/>
      </g>
     </g>
     <g id="text_22">
      <!-- 0 -->
      <g transform="translate(238.521718 107.283482) scale(0.1 -0.1)">
       <use xlink:href="#DejaVuSans-30"/>
      </g>
     </g>
    </g>
    <g id="ytick_7">
     <g id="line2d_12">
      <g>
       <use xlink:href="#m131b2db9be" x="231.521718" y="91.923633" style="stroke: #000000; stroke-width: 0.8"/>
      </g>
     </g>
     <g id="text_23">
      <!-- 1 -->
      <g transform="translate(238.521718 95.722851) scale(0.1 -0.1)">
       <use xlink:href="#DejaVuSans-31"/>
      </g>
     </g>
    </g>
    <g id="ytick_8">
     <g id="line2d_13">
      <g>
       <use xlink:href="#m131b2db9be" x="231.521718" y="80.363002" style="stroke: #000000; stroke-width: 0.8"/>
      </g>
     </g>
     <g id="text_24">
      <!-- 2 -->
      <g transform="translate(238.521718 84.162221) scale(0.1 -0.1)">
       <use xlink:href="#DejaVuSans-32"/>
      </g>
     </g>
    </g>
    <g id="ytick_9">
     <g id="line2d_14">
      <g>
       <use xlink:href="#m131b2db9be" x="231.521718" y="68.802372" style="stroke: #000000; stroke-width: 0.8"/>
      </g>
     </g>
     <g id="text_25">
      <!-- 3 -->
      <g transform="translate(238.521718 72.60159) scale(0.1 -0.1)">
       <use xlink:href="#DejaVuSans-33"/>
      </g>
     </g>
    </g>
    <g id="ytick_10">
     <g id="line2d_15">
      <g>
       <use xlink:href="#m131b2db9be" x="231.521718" y="57.241741" style="stroke: #000000; stroke-width: 0.8"/>
      </g>
     </g>
     <g id="text_26">
      <!-- 4 -->
      <g transform="translate(238.521718 61.04096) scale(0.1 -0.1)">
       <use xlink:href="#DejaVuSans-34"/>
      </g>
     </g>
    </g>
    <g id="ytick_11">
     <g id="line2d_16">
      <g>
       <use xlink:href="#m131b2db9be" x="231.521718" y="45.68111" style="stroke: #000000; stroke-width: 0.8"/>
      </g>
     </g>
     <g id="text_27">
      <!-- 5 -->
      <g transform="translate(238.521718 49.480329) scale(0.1 -0.1)">
       <use xlink:href="#DejaVuSans-35"/>
      </g>
     </g>
    </g>
    <g id="ytick_12">
     <g id="line2d_17">
      <g>
       <use xlink:href="#m131b2db9be" x="231.521718" y="34.12048" style="stroke: #000000; stroke-width: 0.8"/>
      </g>
     </g>
     <g id="text_28">
      <!-- 6 -->
      <g transform="translate(238.521718 37.919699) scale(0.1 -0.1)">
       <use xlink:href="#DejaVuSans-36"/>
      </g>
     </g>
    </g>
    <g id="ytick_13">
     <g id="line2d_18">
      <g>
       <use xlink:href="#m131b2db9be" x="231.521718" y="22.559849" style="stroke: #000000; stroke-width: 0.8"/>
      </g>
     </g>
     <g id="text_29">
      <!-- 7 -->
      <g transform="translate(238.521718 26.359068) scale(0.1 -0.1)">
       <use xlink:href="#DejaVuSans-37"/>
      </g>
     </g>
    </g>
    <g id="ytick_14">
     <g id="line2d_19">
      <g>
       <use xlink:href="#m131b2db9be" x="231.521718" y="10.999219" style="stroke: #000000; stroke-width: 0.8"/>
      </g>
     </g>
     <g id="text_30">
      <!-- 8 -->
      <g transform="translate(238.521718 14.798438) scale(0.1 -0.1)">
       <defs>
        <path id="DejaVuSans-38" d="M 2034 2216 
Q 1584 2216 1326 1975 
Q 1069 1734 1069 1313 
Q 1069 891 1326 650 
Q 1584 409 2034 409 
Q 2484 409 2743 651 
Q 3003 894 3003 1313 
Q 3003 1734 2745 1975 
Q 2488 2216 2034 2216 
z
M 1403 2484 
Q 997 2584 770 2862 
Q 544 3141 544 3541 
Q 544 4100 942 4425 
Q 1341 4750 2034 4750 
Q 2731 4750 3128 4425 
Q 3525 4100 3525 3541 
Q 3525 3141 3298 2862 
Q 3072 2584 2669 2484 
Q 3125 2378 3379 2068 
Q 3634 1759 3634 1313 
Q 3634 634 3220 271 
Q 2806 -91 2034 -91 
Q 1263 -91 848 271 
Q 434 634 434 1313 
Q 434 1759 690 2068 
Q 947 2378 1403 2484 
z
M 1172 3481 
Q 1172 3119 1398 2916 
Q 1625 2713 2034 2713 
Q 2441 2713 2670 2916 
Q 2900 3119 2900 3481 
Q 2900 3844 2670 4047 
Q 2441 4250 2034 4250 
Q 1625 4250 1398 4047 
Q 1172 3844 1172 3481 
z
" transform="scale(0.015625)"/>
       </defs>
       <use xlink:href="#DejaVuSans-38"/>
      </g>
     </g>
    </g>
    <g id="text_31">
     <!-- x² + y² -->
     <g transform="translate(256.482656 74.537835) rotate(-90) scale(0.1 -0.1)">
      <defs>
       <path id="DejaVuSans-78" d="M 3513 3500 
L 2247 1797 
L 3578 0 
L 2900 0 
L 1881 1375 
L 863 0 
L 184 0 
L 1544 1831 
L 300 3500 
L 978 3500 
L 1906 2253 
L 2834 3500 
L 3513 3500 
z
" transform="scale(0.015625)"/>
       <path id="DejaVuSans-b2" d="M 838 2444 
L 2163 2444 
L 2163 2088 
L 294 2088 
L 294 2431 
Q 400 2528 597 2703 
Q 1672 3656 1672 3950 
Q 1672 4156 1509 4282 
Q 1347 4409 1081 4409 
Q 919 4409 728 4354 
Q 538 4300 313 4191 
L 313 4575 
Q 553 4663 761 4706 
Q 969 4750 1147 4750 
Q 1600 4750 1872 4544 
Q 2144 4338 2144 4000 
Q 2144 3566 1109 2678 
Q 934 2528 838 2444 
z
" transform="scale(0.015625)"/>
       <path id="DejaVuSans-20" transform="scale(0.015625)"/>
       <path id="DejaVuSans-2b" d="M 2944 4013 
L 2944 2272 
L 4684 2272 
L 4684 1741 
L 2944 1741 
L 2944 0 
L 2419 0 
L 2419 1741 
L 678 1741 
L 678 2272 
L 2419 2272 
L 2419 4013 
L 2944 4013 
z
" transform="scale(0.015625)"/>
       <path id="DejaVuSans-79" d="M 2059 -325 
Q 1816 -950 1584 -1140 
Q 1353 -1331 966 -1331 
L 506 -1331 
L 506 -850 
L 844 -850 
Q 1081 -850 1212 -737 
Q 1344 -625 1503 -206 
L 1606 56 
L 191 3500 
L 800 3500 
L 1894 763 
L 2988 3500 
L 3597 3500 
L 2059 -325 
z
" transform="scale(0.015625)"/>
      </defs>
      <use xlink:href="#DejaVuSans-78"/>
      <use xlink:href="#DejaVuSans-b2" x="59.179688"/>
      <use xlink:href="#DejaVuSans-20" x="99.267578"/>
      <use xlink:href="#DejaVuSans-2b" x="131.054688"/>
      <use xlink:href="#DejaVuSans-20" x="214.84375"/>
      <use xlink:href="#DejaVuSans-79" x="246.630859"/>
      <use xlink:href="#DejaVuSans-b2" x="305.810547"/>
     </g>
    </g>
   </g>
   <g id="LineCollection_1"/>
   <g id="patch_9">
    <path d="M 222.273214 103.484263 
L 226.897466 103.484263 
L 231.521718 103.484263 
L 231.521718 10.999219 
L 226.897466 10.999219 
L 222.273214 10.999219 
L 222.273214 103.484263 
z
" style="fill: none; stroke: #000000; stroke-width: 0.8; stroke-linejoin: miter; stroke-linecap: square"/>
   </g>
  </g>
  <g id="axes_3">
   <g id="patch_10">
    <path d="M 291.947296 117.077357 
L 493.36589 117.077357 
L 493.36589 16.368061 
L 291.947296 16.368061 
z
" style="fill: #ffffff"/>
   </g>
   <g id="PathCollection_18">
    <path d="M 342.301945 117.077357 
L 367.479269 117.077357 
L 392.656593 117.077357 
L 417.833917 117.077357 
L 443.011241 117.077357 
L 443.011241 117.077357 
L 443.011241 117.077357 
L 440.913131 104.488695 
L 434.6188 91.900033 
L 424.128248 79.311371 
L 417.833917 73.91623 
L 392.656593 66.722709 
L 392.656593 66.722709 
L 392.656593 66.722709 
L 367.479269 73.91623 
L 361.184938 79.311371 
L 350.694386 91.900033 
L 344.400055 104.488695 
L 342.301945 117.077357 
L 342.301945 117.077357 
z
" clip-path="url(#p058e3e68af)" style="fill: #fcaeae"/>
   </g>
   <g id="PathCollection_19">
    <path d="M 342.301945 117.077357 
L 344.400055 104.488695 
L 350.694386 91.900033 
L 361.184938 79.311371 
L 367.479269 73.91623 
L 392.656593 66.722709 
L 392.656593 66.722709 
L 392.656593 66.722709 
L 417.833917 73.91623 
L 424.128248 79.311371 
L 434.6188 91.900033 
L 440.913131 104.488695 
L 443.011241 117.077357 
L 443.011241 117.077357 
L 463.153101 117.077357 
L 461.894234 104.488695 
L 458.117636 91.900033 
L 451.823305 79.311371 
L 443.011241 66.722709 
L 443.011241 66.722709 
L 424.128248 54.134047 
L 417.833917 50.700776 
L 392.656593 46.12308 
L 367.479269 50.700776 
L 361.184938 54.134047 
L 342.301945 66.722709 
L 342.301945 66.722709 
L 333.489881 79.311371 
L 327.19555 91.900033 
L 323.418952 104.488695 
L 322.160085 117.077357 
L 342.301945 117.077357 
z
" clip-path="url(#p058e3e68af)" style="fill: #da98d1"/>
   </g>
   <g id="PathCollection_20">
    <path d="M 317.12462 117.077357 
L 322.160085 117.077357 
L 323.418952 104.488695 
L 327.19555 91.900033 
L 333.489881 79.311371 
L 342.301945 66.722709 
L 342.301945 66.722709 
L 361.184938 54.134047 
L 367.479269 50.700776 
L 392.656593 46.12308 
L 417.833917 50.700776 
L 424.128248 54.134047 
L 443.011241 66.722709 
L 443.011241 66.722709 
L 451.823305 79.311371 
L 458.117636 91.900033 
L 461.894234 104.488695 
L 463.153101 117.077357 
L 468.188565 117.077357 
L 478.978847 117.077357 
L 478.079657 104.488695 
L 475.382087 91.900033 
L 470.886136 79.311371 
L 468.188565 73.91623 
L 463.153101 66.722709 
L 451.823305 54.134047 
L 443.011241 46.12308 
L 434.6188 41.545385 
L 417.833917 33.798516 
L 392.656593 29.925081 
L 367.479269 33.798516 
L 350.694386 41.545385 
L 342.301945 46.12308 
L 333.489881 54.134047 
L 322.160085 66.722709 
L 317.12462 73.91623 
L 314.42705 79.311371 
L 309.931099 91.900033 
L 307.233529 104.488695 
L 306.334339 117.077357 
z
" clip-path="url(#p058e3e68af)" style="fill: #c45178"/>
   </g>
   <g id="PathCollection_21">
    <path d="M 307.233529 104.488695 
L 309.931099 91.900033 
L 314.42705 79.311371 
L 317.12462 73.91623 
L 322.160085 66.722709 
L 333.489881 54.134047 
L 342.301945 46.12308 
L 350.694386 41.545385 
L 367.479269 33.798516 
L 392.656593 29.925081 
L 417.833917 33.798516 
L 434.6188 41.545385 
L 443.011241 46.12308 
L 451.823305 54.134047 
L 463.153101 66.722709 
L 468.188565 73.91623 
L 470.886136 79.311371 
L 475.382087 91.900033 
L 478.079657 104.488695 
L 478.978847 117.077357 
L 493.36589 117.077357 
L 493.36589 117.077357 
L 492.466699 104.488695 
L 489.769129 91.900033 
L 485.273178 79.311371 
L 478.978847 66.722709 
L 470.886136 54.134047 
L 468.188565 50.700776 
L 458.117636 41.545385 
L 443.011241 29.925081 
L 440.913131 28.956723 
L 417.833917 19.725037 
L 392.656593 16.368061 
L 392.656593 16.368061 
L 392.656593 16.368061 
L 367.479269 19.725037 
L 344.400055 28.956723 
L 342.301945 29.925081 
L 327.19555 41.545385 
L 317.12462 50.700776 
L 314.42705 54.134047 
L 306.334339 66.722709 
L 300.040008 79.311371 
L 295.544057 91.900033 
L 292.846486 104.488695 
L 291.947296 117.077357 
L 291.947296 117.077357 
L 306.334339 117.077357 
z
" clip-path="url(#p058e3e68af)" style="fill: #5594d2"/>
   </g>
   <g id="PathCollection_22">
    <path d="M 292.846486 104.488695 
L 295.544057 91.900033 
L 300.040008 79.311371 
L 306.334339 66.722709 
L 314.42705 54.134047 
L 317.12462 50.700776 
L 327.19555 41.545385 
L 342.301945 29.925081 
L 344.400055 28.956723 
L 367.479269 19.725037 
L 392.656593 16.368061 
L 367.479269 16.368061 
L 342.301945 16.368061 
L 342.301945 16.368061 
L 323.418952 28.956723 
L 317.12462 33.798516 
L 309.931099 41.545385 
L 300.040008 54.134047 
L 291.947296 66.722709 
L 291.947296 66.722709 
L 291.947296 79.311371 
L 291.947296 91.900033 
L 291.947296 104.488695 
L 291.947296 117.077357 
z
" clip-path="url(#p058e3e68af)" style="fill: #e6af69"/>
    <path d="M 493.36589 117.077357 
L 493.36589 104.488695 
L 493.36589 91.900033 
L 493.36589 79.311371 
L 493.36589 66.722709 
L 493.36589 66.722709 
L 485.273178 54.134047 
L 475.382087 41.545385 
L 468.188565 33.798516 
L 461.894234 28.956723 
L 443.011241 16.368061 
L 443.011241 16.368061 
L 417.833917 16.368061 
L 392.656593 16.368061 
L 417.833917 19.725037 
L 440.913131 28.956723 
L 443.011241 29.925081 
L 458.117636 41.545385 
L 468.188565 50.700776 
L 470.886136 54.134047 
L 478.978847 66.722709 
L 485.273178 79.311371 
L 489.769129 91.900033 
L 492.466699 104.488695 
z
" clip-path="url(#p058e3e68af)" style="fill: #e6af69"/>
   </g>
   <g id="PathCollection_23">
    <path d="M 300.040008 54.134047 
L 309.931099 41.545385 
L 317.12462 33.798516 
L 323.418952 28.956723 
L 342.301945 16.368061 
L 322.160085 16.368061 
L 317.12462 19.725037 
L 307.233529 28.956723 
L 295.544057 41.545385 
L 291.947296 46.12308 
L 291.947296 54.134047 
L 291.947296 66.722709 
z
" clip-path="url(#p058e3e68af)" style="fill: #e6d969"/>
    <path d="M 493.36589 66.722709 
L 493.36589 54.134047 
L 493.36589 46.12308 
L 489.769129 41.545385 
L 478.079657 28.956723 
L 468.188565 19.725037 
L 463.153101 16.368061 
L 443.011241 16.368061 
L 461.894234 28.956723 
L 468.188565 33.798516 
L 475.382087 41.545385 
L 485.273178 54.134047 
z
" clip-path="url(#p058e3e68af)" style="fill: #e6d969"/>
   </g>
   <g id="PathCollection_24">
    <path d="M 295.544057 41.545385 
L 307.233529 28.956723 
L 317.12462 19.725037 
L 322.160085 16.368061 
L 317.12462 16.368061 
L 306.334339 16.368061 
L 292.846486 28.956723 
L 291.947296 29.925081 
L 291.947296 41.545385 
L 291.947296 46.12308 
z
" clip-path="url(#p058e3e68af)" style="fill: #fcaeae"/>
    <path d="M 493.36589 46.12308 
L 493.36589 41.545385 
L 493.36589 29.925081 
L 492.466699 28.956723 
L 478.978847 16.368061 
L 468.188565 16.368061 
L 463.153101 16.368061 
L 468.188565 19.725037 
L 478.079657 28.956723 
L 489.769129 41.545385 
z
" clip-path="url(#p058e3e68af)" style="fill: #fcaeae"/>
   </g>
   <g id="PathCollection_25">
    <path d="M 292.846486 28.956723 
L 306.334339 16.368061 
L 291.947296 16.368061 
L 291.947296 28.956723 
L 291.947296 29.925081 
z
" clip-path="url(#p058e3e68af)" style="fill: #da98d1"/>
    <path d="M 493.36589 29.925081 
L 493.36589 28.956723 
L 493.36589 16.368061 
L 478.978847 16.368061 
L 492.466699 28.956723 
z
" clip-path="url(#p058e3e68af)" style="fill: #da98d1"/>
   </g>
   <g id="matplotlib.axis_5">
    <g id="xtick_6">
     <g id="line2d_20">
      <g>
       <use xlink:href="#m0abcc8a412" x="291.947296" y="117.077357" style="stroke: #000000; stroke-width: 0.8"/>
      </g>
     </g>
     <g id="text_32">
      <!-- −2 -->
      <g transform="translate(284.576203 131.675795) scale(0.1 -0.1)">
       <use xlink:href="#DejaVuSans-2212"/>
       <use xlink:href="#DejaVuSans-32" x="83.789062"/>
      </g>
     </g>
    </g>
    <g id="xtick_7">
     <g id="line2d_21">
      <g>
       <use xlink:href="#m0abcc8a412" x="342.301945" y="117.077357" style="stroke: #000000; stroke-width: 0.8"/>
      </g>
     </g>
     <g id="text_33">
      <!-- −1 -->
      <g transform="translate(334.930851 131.675795) scale(0.1 -0.1)">
       <use xlink:href="#DejaVuSans-2212"/>
       <use xlink:href="#DejaVuSans-31" x="83.789062"/>
      </g>
     </g>
    </g>
    <g id="xtick_8">
     <g id="line2d_22">
      <g>
       <use xlink:href="#m0abcc8a412" x="392.656593" y="117.077357" style="stroke: #000000; stroke-width: 0.8"/>
      </g>
     </g>
     <g id="text_34">
      <!-- 0 -->
      <g transform="translate(389.475343 131.675795) scale(0.1 -0.1)">
       <use xlink:href="#DejaVuSans-30"/>
      </g>
     </g>
    </g>
    <g id="xtick_9">
     <g id="line2d_23">
      <g>
       <use xlink:href="#m0abcc8a412" x="443.011241" y="117.077357" style="stroke: #000000; stroke-width: 0.8"/>
      </g>
     </g>
     <g id="text_35">
      <!-- 1 -->
      <g transform="translate(439.829991 131.675795) scale(0.1 -0.1)">
       <use xlink:href="#DejaVuSans-31"/>
      </g>
     </g>
    </g>
    <g id="xtick_10">
     <g id="line2d_24">
      <g>
       <use xlink:href="#m0abcc8a412" x="493.36589" y="117.077357" style="stroke: #000000; stroke-width: 0.8"/>
      </g>
     </g>
     <g id="text_36">
      <!-- 2 -->
      <g transform="translate(490.18464 131.675795) scale(0.1 -0.1)">
       <use xlink:href="#DejaVuSans-32"/>
      </g>
     </g>
    </g>
   </g>
   <g id="matplotlib.axis_6">
    <g id="ytick_15">
     <g id="line2d_25">
      <g>
       <use xlink:href="#mff1478b0c9" x="291.947296" y="117.077357" style="stroke: #000000; stroke-width: 0.8"/>
      </g>
     </g>
     <g id="text_37">
      <!-- 0.0 -->
      <g transform="translate(269.044171 120.876576) scale(0.1 -0.1)">
       <use xlink:href="#DejaVuSans-30"/>
       <use xlink:href="#DejaVuSans-2e" x="63.623047"/>
       <use xlink:href="#DejaVuSans-30" x="95.410156"/>
      </g>
     </g>
    </g>
    <g id="ytick_16">
     <g id="line2d_26">
      <g>
       <use xlink:href="#mff1478b0c9" x="291.947296" y="91.900033" style="stroke: #000000; stroke-width: 0.8"/>
      </g>
     </g>
     <g id="text_38">
      <!-- 0.5 -->
      <g transform="translate(269.044171 95.699252) scale(0.1 -0.1)">
       <use xlink:href="#DejaVuSans-30"/>
       <use xlink:href="#DejaVuSans-2e" x="63.623047"/>
       <use xlink:href="#DejaVuSans-35" x="95.410156"/>
      </g>
     </g>
    </g>
    <g id="ytick_17">
     <g id="line2d_27">
      <g>
       <use xlink:href="#mff1478b0c9" x="291.947296" y="66.722709" style="stroke: #000000; stroke-width: 0.8"/>
      </g>
     </g>
     <g id="text_39">
      <!-- 1.0 -->
      <g transform="translate(269.044171 70.521928) scale(0.1 -0.1)">
       <use xlink:href="#DejaVuSans-31"/>
       <use xlink:href="#DejaVuSans-2e" x="63.623047"/>
       <use xlink:href="#DejaVuSans-30" x="95.410156"/>
      </g>
     </g>
    </g>
    <g id="ytick_18">
     <g id="line2d_28">
      <g>
       <use xlink:href="#mff1478b0c9" x="291.947296" y="41.545385" style="stroke: #000000; stroke-width: 0.8"/>
      </g>
     </g>
     <g id="text_40">
      <!-- 1.5 -->
      <g transform="translate(269.044171 45.344604) scale(0.1 -0.1)">
       <use xlink:href="#DejaVuSans-31"/>
       <use xlink:href="#DejaVuSans-2e" x="63.623047"/>
       <use xlink:href="#DejaVuSans-35" x="95.410156"/>
      </g>
     </g>
    </g>
    <g id="ytick_19">
     <g id="line2d_29">
      <g>
       <use xlink:href="#mff1478b0c9" x="291.947296" y="16.368061" style="stroke: #000000; stroke-width: 0.8"/>
      </g>
     </g>
     <g id="text_41">
      <!-- 2.0 -->
      <g transform="translate(269.044171 20.167279) scale(0.1 -0.1)">
       <use xlink:href="#DejaVuSans-32"/>
       <use xlink:href="#DejaVuSans-2e" x="63.623047"/>
       <use xlink:href="#DejaVuSans-30" x="95.410156"/>
      </g>
     </g>
    </g>
   </g>
   <g id="PathCollection_26">
    <path d="M 392.656593 117.077357 
L 392.656593 117.077357 
L 392.656593 117.077357 
z
" clip-path="url(#p058e3e68af)" style="fill: none; stroke: #000000; stroke-width: 1.5"/>
   </g>
   <g id="PathCollection_27">
    <path d="M 342.301945 117.077357 
L 342.301945 117.077357 
L 344.400055 104.488695 
L 350.694386 91.900033 
L 359.102635 81.810135 
" clip-path="url(#p058e3e68af)" style="fill: none; stroke: #000000; stroke-width: 1.5"/>
    <path d="M 364.025076 76.876967 
L 367.479269 73.91623 
L 392.656593 66.722709 
L 392.656593 66.722709 
L 392.656593 66.722709 
L 417.833917 73.91623 
L 424.128248 79.311371 
L 434.6188 91.900033 
L 440.913131 104.488695 
L 443.011241 117.077357 
L 443.011241 117.077357 
" clip-path="url(#p058e3e68af)" style="fill: none; stroke: #000000; stroke-width: 1.5"/>
   </g>
   <g id="PathCollection_28">
    <path d="M 322.160085 117.077357 
L 323.418952 104.488695 
L 327.19555 91.900033 
L 333.489881 79.311371 
L 340.538262 69.242255 
" clip-path="url(#p058e3e68af)" style="fill: none; stroke: #000000; stroke-width: 1.5"/>
    <path d="M 345.835721 64.366858 
L 361.184938 54.134047 
L 367.479269 50.700776 
L 392.656593 46.12308 
L 417.833917 50.700776 
L 424.128248 54.134047 
L 443.011241 66.722709 
L 443.011241 66.722709 
L 451.823305 79.311371 
L 458.117636 91.900033 
L 461.894234 104.488695 
L 463.153101 117.077357 
" clip-path="url(#p058e3e68af)" style="fill: none; stroke: #000000; stroke-width: 1.5"/>
   </g>
   <g id="PathCollection_29">
    <path d="M 306.334339 117.077357 
L 307.233529 104.488695 
L 309.931099 91.900033 
L 314.42705 79.311371 
L 315.852311 76.460849 
" clip-path="url(#p058e3e68af)" style="fill: none; stroke: #000000; stroke-width: 1.5"/>
    <path d="M 318.888303 71.396684 
L 322.160085 66.722709 
L 333.489881 54.134047 
L 342.301945 46.12308 
L 350.694386 41.545385 
L 367.479269 33.798516 
L 392.656593 29.925081 
L 417.833917 33.798516 
L 434.6188 41.545385 
L 443.011241 46.12308 
L 451.823305 54.134047 
L 463.153101 66.722709 
L 468.188565 73.91623 
L 470.886136 79.311371 
L 475.382087 91.900033 
L 478.079657 104.488695 
L 478.978847 117.077357 
" clip-path="url(#p058e3e68af)" style="fill: none; stroke: #000000; stroke-width: 1.5"/>
   </g>
   <g id="PathCollection_30">
    <path d="M 291.947296 117.077357 
L 292.846486 104.488695 
L 295.544057 91.900033 
L 300.040008 79.311371 
L 305.06203 69.267327 
" clip-path="url(#p058e3e68af)" style="fill: none; stroke: #000000; stroke-width: 1.5"/>
    <path d="M 307.959148 64.195227 
L 314.42705 54.134047 
L 317.12462 50.700776 
L 327.19555 41.545385 
L 342.301945 29.925081 
L 344.400055 28.956723 
L 367.479269 19.725037 
L 392.656593 16.368061 
" clip-path="url(#p058e3e68af)" style="fill: none; stroke: #000000; stroke-width: 1.5"/>
    <path d="M 400.673583 17.436993 
L 417.833917 19.725037 
L 440.913131 28.956723 
L 443.011241 29.925081 
L 458.117636 41.545385 
L 468.188565 50.700776 
L 470.886136 54.134047 
L 478.978847 66.722709 
L 485.273178 79.311371 
L 489.769129 91.900033 
L 492.466699 104.488695 
L 493.36589 117.077357 
" clip-path="url(#p058e3e68af)" style="fill: none; stroke: #000000; stroke-width: 1.5"/>
   </g>
   <g id="PathCollection_31">
    <path d="M 291.947296 66.722709 
L 300.040008 54.134047 
L 309.931099 41.545385 
L 314.819828 36.2806 
" clip-path="url(#p058e3e68af)" style="fill: none; stroke: #000000; stroke-width: 1.5"/>
    <path d="M 320.250382 31.394084 
L 323.418952 28.956723 
L 342.301945 16.368061 
" clip-path="url(#p058e3e68af)" style="fill: none; stroke: #000000; stroke-width: 1.5"/>
    <path d="M 443.011241 16.368061 
L 461.894234 28.956723 
L 468.188565 33.798516 
L 473.077294 39.0633 
" clip-path="url(#p058e3e68af)" style="fill: none; stroke: #000000; stroke-width: 1.5"/>
    <path d="M 477.351511 44.051925 
L 485.273178 54.134047 
L 493.36589 66.722709 
" clip-path="url(#p058e3e68af)" style="fill: none; stroke: #000000; stroke-width: 1.5"/>
   </g>
   <g id="PathCollection_32">
    <path d="M 291.947296 46.12308 
L 295.544057 41.545385 
L 304.928736 31.438807 
" clip-path="url(#p058e3e68af)" style="fill: none; stroke: #000000; stroke-width: 1.5"/>
    <path d="M 309.863284 26.502285 
L 317.12462 19.725037 
L 322.160085 16.368061 
" clip-path="url(#p058e3e68af)" style="fill: none; stroke: #000000; stroke-width: 1.5"/>
    <path d="M 463.153101 16.368061 
L 468.188565 19.725037 
L 475.449902 26.502285 
" clip-path="url(#p058e3e68af)" style="fill: none; stroke: #000000; stroke-width: 1.5"/>
    <path d="M 480.38445 31.438807 
L 489.769129 41.545385 
L 493.36589 46.12308 
" clip-path="url(#p058e3e68af)" style="fill: none; stroke: #000000; stroke-width: 1.5"/>
   </g>
   <g id="PathCollection_33">
    <path d="M 295.476241 26.502285 
L 306.334339 16.368061 
" clip-path="url(#p058e3e68af)" style="fill: none; stroke: #000000; stroke-width: 1.5"/>
    <path d="M 478.978847 16.368061 
L 489.836945 26.502285 
" clip-path="url(#p058e3e68af)" style="fill: none; stroke: #000000; stroke-width: 1.5"/>
   </g>
   <g id="PathCollection_34"/>
   <g id="patch_11">
    <path d="M 291.947296 117.077357 
L 291.947296 16.368061 
" style="fill: none; stroke: #000000; stroke-width: 0.8; stroke-linejoin: miter; stroke-linecap: square"/>
   </g>
   <g id="patch_12">
    <path d="M 493.36589 117.077357 
L 493.36589 16.368061 
" style="fill: none; stroke: #000000; stroke-width: 0.8; stroke-linejoin: miter; stroke-linecap: square"/>
   </g>
   <g id="patch_13">
    <path d="M 291.947296 117.077357 
L 493.36589 117.077357 
" style="fill: none; stroke: #000000; stroke-width: 0.8; stroke-linejoin: miter; stroke-linecap: square"/>
   </g>
   <g id="patch_14">
    <path d="M 291.947296 16.368061 
L 493.36589 16.368061 
" style="fill: none; stroke: #000000; stroke-width: 0.8; stroke-linejoin: miter; stroke-linecap: square"/>
   </g>
   <g id="text_42">
    <g clip-path="url(#p058e3e68af)">
     <!-- 1 -->
     <g transform="translate(362.945176 83.137082) rotate(-73.769569) scale(0.1 -0.1)">
      <use xlink:href="#DejaVuSans-31"/>
     </g>
    </g>
   </g>
   <g id="text_43">
    <g clip-path="url(#p058e3e68af)">
     <!-- 2 -->
     <g transform="translate(343.971034 70.589056) rotate(-72.411758) scale(0.1 -0.1)">
      <use xlink:href="#DejaVuSans-32"/>
     </g>
    </g>
   </g>
   <g id="text_44">
    <g clip-path="url(#p058e3e68af)">
     <!-- 3 -->
     <g transform="translate(319.294661 77.525305) rotate(-80.07943) scale(0.1 -0.1)">
      <use xlink:href="#DejaVuSans-33"/>
     </g>
    </g>
   </g>
   <g id="text_45">
    <g clip-path="url(#p058e3e68af)">
     <!-- 4 -->
     <g transform="translate(308.53328 70.314249) rotate(-80.539354) scale(0.1 -0.1)">
      <use xlink:href="#DejaVuSans-34"/>
     </g>
    </g>
   </g>
   <g id="text_46">
    <g clip-path="url(#p058e3e68af)">
     <!-- 4 -->
     <g transform="translate(388.616199 17.555376) rotate(-335.43807) scale(0.1 -0.1)">
      <use xlink:href="#DejaVuSans-34"/>
     </g>
    </g>
   </g>
   <g id="text_47">
    <g clip-path="url(#p058e3e68af)">
     <!-- 5 -->
     <g transform="translate(318.768345 37.675715) rotate(-72.03639) scale(0.1 -0.1)">
      <use xlink:href="#DejaVuSans-35"/>
     </g>
    </g>
   </g>
   <g id="text_48">
    <g clip-path="url(#p058e3e68af)">
     <!-- 5 -->
     <g transform="translate(471.933628 39.128231) rotate(-284.033997) scale(0.1 -0.1)">
      <use xlink:href="#DejaVuSans-35"/>
     </g>
    </g>
   </g>
   <g id="text_49">
    <g clip-path="url(#p058e3e68af)">
     <!-- 6 -->
     <g transform="translate(308.991941 32.783273) rotate(-73.742231) scale(0.1 -0.1)">
      <use xlink:href="#DejaVuSans-36"/>
     </g>
    </g>
   </g>
   <g id="text_50">
    <g clip-path="url(#p058e3e68af)">
     <!-- 6 -->
     <g transform="translate(474.540004 26.675197) rotate(-286.257769) scale(0.1 -0.1)">
      <use xlink:href="#DejaVuSans-36"/>
     </g>
    </g>
   </g>
   <g id="text_51">
    <g clip-path="url(#p058e3e68af)">
     <!-- 7 -->
     <g transform="translate(294.598058 32.786409) rotate(-73.639838) scale(0.1 -0.1)">
      <use xlink:href="#DejaVuSans-37"/>
     </g>
    </g>
   </g>
   <g id="text_52">
    <g clip-path="url(#p058e3e68af)">
     <!-- 7 -->
     <g transform="translate(488.922975 26.681527) rotate(-286.360162) scale(0.1 -0.1)">
      <use xlink:href="#DejaVuSans-37"/>
     </g>
    </g>
   </g>
  </g>
  <g id="axes_4">
   <g id="patch_15">
    <path d="M 291.947296 154.764725 
L 493.36589 154.764725 
L 493.36589 144.693796 
L 291.947296 144.693796 
z
" style="fill: #ffffff"/>
   </g>
   <g id="patch_16">
    <path clip-path="url(#pb9c37c027f)" style="fill: #ffffff; stroke: #ffffff; stroke-width: 0.01; stroke-linejoin: miter"/>
   </g>
   <g id="QuadMesh_2">
    <path d="M 291.947296 154.764725 
L 291.947296 144.693796 
L 317.12462 144.693796 
L 317.12462 154.764725 
L 291.947296 154.764725 
" clip-path="url(#pb9c37c027f)" style="fill: #fcaeae"/>
    <path d="M 317.12462 154.764725 
L 317.12462 144.693796 
L 342.301945 144.693796 
L 342.301945 154.764725 
L 317.12462 154.764725 
" clip-path="url(#pb9c37c027f)" style="fill: #da98d1"/>
    <path d="M 342.301945 154.764725 
L 342.301945 144.693796 
L 367.479269 144.693796 
L 367.479269 154.764725 
L 342.301945 154.764725 
" clip-path="url(#pb9c37c027f)" style="fill: #c45178"/>
    <path d="M 367.479269 154.764725 
L 367.479269 144.693796 
L 392.656593 144.693796 
L 392.656593 154.764725 
L 367.479269 154.764725 
" clip-path="url(#pb9c37c027f)" style="fill: #5594d2"/>
    <path d="M 392.656593 154.764725 
L 392.656593 144.693796 
L 417.833917 144.693796 
L 417.833917 154.764725 
L 392.656593 154.764725 
" clip-path="url(#pb9c37c027f)" style="fill: #e6af69"/>
    <path d="M 417.833917 154.764725 
L 417.833917 144.693796 
L 443.011241 144.693796 
L 443.011241 154.764725 
L 417.833917 154.764725 
" clip-path="url(#pb9c37c027f)" style="fill: #e6d969"/>
    <path d="M 443.011241 154.764725 
L 443.011241 144.693796 
L 468.188565 144.693796 
L 468.188565 154.764725 
L 443.011241 154.764725 
" clip-path="url(#pb9c37c027f)" style="fill: #fcaeae"/>
    <path d="M 468.188565 154.764725 
L 468.188565 144.693796 
L 493.36589 144.693796 
L 493.36589 154.764725 
L 468.188565 154.764725 
" clip-path="url(#pb9c37c027f)" style="fill: #da98d1"/>
   </g>
   <g id="matplotlib.axis_7">
    <g id="xtick_11">
     <g id="line2d_30">
      <g>
       <use xlink:href="#m0abcc8a412" x="291.947296" y="154.764725" style="stroke: #000000; stroke-width: 0.8"/>
      </g>
     </g>
     <g id="text_53">
      <!-- 0 -->
      <g transform="translate(288.766046 169.363163) scale(0.1 -0.1)">
       <use xlink:href="#DejaVuSans-30"/>
      </g>
     </g>
    </g>
    <g id="xtick_12">
     <g id="line2d_31">
      <g>
       <use xlink:href="#m0abcc8a412" x="317.12462" y="154.764725" style="stroke: #000000; stroke-width: 0.8"/>
      </g>
     </g>
     <g id="text_54">
      <!-- 1 -->
      <g transform="translate(313.94337 169.363163) scale(0.1 -0.1)">
       <use xlink:href="#DejaVuSans-31"/>
      </g>
     </g>
    </g>
    <g id="xtick_13">
     <g id="line2d_32">
      <g>
       <use xlink:href="#m0abcc8a412" x="342.301945" y="154.764725" style="stroke: #000000; stroke-width: 0.8"/>
      </g>
     </g>
     <g id="text_55">
      <!-- 2 -->
      <g transform="translate(339.120695 169.363163) scale(0.1 -0.1)">
       <use xlink:href="#DejaVuSans-32"/>
      </g>
     </g>
    </g>
    <g id="xtick_14">
     <g id="line2d_33">
      <g>
       <use xlink:href="#m0abcc8a412" x="367.479269" y="154.764725" style="stroke: #000000; stroke-width: 0.8"/>
      </g>
     </g>
     <g id="text_56">
      <!-- 3 -->
      <g transform="translate(364.298019 169.363163) scale(0.1 -0.1)">
       <use xlink:href="#DejaVuSans-33"/>
      </g>
     </g>
    </g>
    <g id="xtick_15">
     <g id="line2d_34">
      <g>
       <use xlink:href="#m0abcc8a412" x="392.656593" y="154.764725" style="stroke: #000000; stroke-width: 0.8"/>
      </g>
     </g>
     <g id="text_57">
      <!-- 4 -->
      <g transform="translate(389.475343 169.363163) scale(0.1 -0.1)">
       <use xlink:href="#DejaVuSans-34"/>
      </g>
     </g>
    </g>
    <g id="xtick_16">
     <g id="line2d_35">
      <g>
       <use xlink:href="#m0abcc8a412" x="417.833917" y="154.764725" style="stroke: #000000; stroke-width: 0.8"/>
      </g>
     </g>
     <g id="text_58">
      <!-- 5 -->
      <g transform="translate(414.652667 169.363163) scale(0.1 -0.1)">
       <use xlink:href="#DejaVuSans-35"/>
      </g>
     </g>
    </g>
    <g id="xtick_17">
     <g id="line2d_36">
      <g>
       <use xlink:href="#m0abcc8a412" x="443.011241" y="154.764725" style="stroke: #000000; stroke-width: 0.8"/>
      </g>
     </g>
     <g id="text_59">
      <!-- 6 -->
      <g transform="translate(439.829991 169.363163) scale(0.1 -0.1)">
       <use xlink:href="#DejaVuSans-36"/>
      </g>
     </g>
    </g>
    <g id="xtick_18">
     <g id="line2d_37">
      <g>
       <use xlink:href="#m0abcc8a412" x="468.188565" y="154.764725" style="stroke: #000000; stroke-width: 0.8"/>
      </g>
     </g>
     <g id="text_60">
      <!-- 7 -->
      <g transform="translate(465.007315 169.363163) scale(0.1 -0.1)">
       <use xlink:href="#DejaVuSans-37"/>
      </g>
     </g>
    </g>
    <g id="xtick_19">
     <g id="line2d_38">
      <g>
       <use xlink:href="#m0abcc8a412" x="493.36589" y="154.764725" style="stroke: #000000; stroke-width: 0.8"/>
      </g>
     </g>
     <g id="text_61">
      <!-- 8 -->
      <g transform="translate(490.18464 169.363163) scale(0.1 -0.1)">
       <use xlink:href="#DejaVuSans-38"/>
      </g>
     </g>
    </g>
   </g>
   <g id="matplotlib.axis_8">
    <g id="text_62">
     <!-- x² + y² -->
     <g transform="translate(282.367609 167.025354) rotate(-90) scale(0.1 -0.1)">
      <use xlink:href="#DejaVuSans-78"/>
      <use xlink:href="#DejaVuSans-b2" x="59.179688"/>
      <use xlink:href="#DejaVuSans-20" x="99.267578"/>
      <use xlink:href="#DejaVuSans-2b" x="131.054688"/>
      <use xlink:href="#DejaVuSans-20" x="214.84375"/>
      <use xlink:href="#DejaVuSans-79" x="246.630859"/>
      <use xlink:href="#DejaVuSans-b2" x="305.810547"/>
     </g>
    </g>
   </g>
   <g id="LineCollection_2"/>
   <g id="patch_17">
    <path d="M 291.947296 154.764725 
L 291.947296 149.729261 
L 291.947296 144.693796 
L 493.36589 144.693796 
L 493.36589 149.729261 
L 493.36589 154.764725 
L 291.947296 154.764725 
z
" style="fill: none; stroke: #000000; stroke-width: 0.8; stroke-linejoin: miter; stroke-linecap: square"/>
   </g>
  </g>
 </g>
 <defs>
  <clipPath id="p992694693a">
   <rect x="30.103125" y="10.999219" width="184.970089" height="92.485044"/>
  </clipPath>
  <clipPath id="p66924c4a85">
   <rect x="222.273214" y="10.999219" width="9.248504" height="92.485044"/>
  </clipPath>
  <clipPath id="p058e3e68af">
   <rect x="291.947296" y="16.368061" width="201.418593" height="100.709297"/>
  </clipPath>
  <clipPath id="pb9c37c027f">
   <rect x="291.947296" y="144.693796" width="201.418593" height="10.07093"/>
  </clipPath>
 </defs>
</svg>
