<?xml version="1.0" encoding="utf-8" standalone="no"?>
<!DOCTYPE svg PUBLIC "-//W3C//DTD SVG 1.1//EN"
  "http://www.w3.org/Graphics/SVG/1.1/DTD/svg11.dtd">
<!-- Created with matplotlib (https://matplotlib.org/) -->
<svg height="298.004722pt" version="1.1" viewBox="0 0 297.359834 298.004722" width="297.359834pt" xmlns="http://www.w3.org/2000/svg" xmlns:xlink="http://www.w3.org/1999/xlink">
 <metadata>
  <rdf:RDF xmlns:cc="http://creativecommons.org/ns#" xmlns:dc="http://purl.org/dc/elements/1.1/" xmlns:rdf="http://www.w3.org/1999/02/22-rdf-syntax-ns#">
   <cc:Work>
    <dc:type rdf:resource="http://purl.org/dc/dcmitype/StillImage"/>
    <dc:date>2022-05-14T17:48:57.518616</dc:date>
    <dc:format>image/svg+xml</dc:format>
    <dc:creator>
     <cc:Agent>
      <dc:title>Matplotlib v3.3.4, https://matplotlib.org/</dc:title>
     </cc:Agent>
    </dc:creator>
   </cc:Work>
  </rdf:RDF>
 </metadata>
 <defs>
  <style type="text/css">*{stroke-linecap:butt;stroke-linejoin:round;}</style>
 </defs>
 <g id="figure_1">
  <g id="patch_1">
   <path d="M 0 298.004722 
L 297.359834 298.004722 
L 297.359834 0 
L 0 0 
z
" style="fill:#ffffff;"/>
  </g>
  <g id="patch_2">
   <path d="M 7.2 273.312 
L 273.312 273.312 
L 273.312 7.2 
L 7.2 7.2 
z
" style="fill:#ffffff;"/>
  </g>
  <g id="pane3d_1">
   <g id="patch_3">
    <path d="M 36.832607 218.845431 
L 117.342091 149.9149 
L 115.93652 18.519704 
L 30.668128 80.067902 
" style="fill:#f2f2f2;opacity:0.5;stroke:#f2f2f2;stroke-linejoin:miter;"/>
   </g>
  </g>
  <g id="pane3d_2">
   <g id="patch_4">
    <path d="M 117.342091 149.9149 
L 247.299674 188.383675 
L 253.048471 52.802633 
L 115.93652 18.519704 
" style="fill:#e6e6e6;opacity:0.5;stroke:#e6e6e6;stroke-linejoin:miter;"/>
   </g>
  </g>
  <g id="pane3d_3">
   <g id="patch_5">
    <path d="M 36.832607 218.845431 
L 173.947415 264.024759 
L 247.299674 188.383675 
L 117.342091 149.9149 
" style="fill:#ececec;opacity:0.5;stroke:#ececec;stroke-linejoin:miter;"/>
   </g>
  </g>
  <g id="axis3d_1">
   <g id="line2d_1">
    <path d="M 36.832607 218.845431 
L 173.947415 264.024759 
" style="fill:none;stroke:#000000;stroke-linecap:square;stroke-width:0.8;"/>
   </g>
   <g id="text_1">
    <!-- x -->
    <g transform="translate(86.026154 281.966821)scale(0.1 -0.1)">
     <defs>
      <path d="M 54.890625 54.6875 
L 35.109375 28.078125 
L 55.90625 0 
L 45.3125 0 
L 29.390625 21.484375 
L 13.484375 0 
L 2.875 0 
L 24.125 28.609375 
L 4.6875 54.6875 
L 15.28125 54.6875 
L 29.78125 35.203125 
L 44.28125 54.6875 
z
" id="DejaVuSans-120"/>
     </defs>
     <use xlink:href="#DejaVuSans-120"/>
    </g>
   </g>
   <g id="Line3DCollection_1">
    <path d="M 39.448023 219.707211 
L 119.830076 150.65137 
L 118.555248 19.17448 
" style="fill:none;stroke:#b0b0b0;stroke-width:0.8;"/>
    <path d="M 57.516229 225.660685 
L 137.008256 155.736287 
L 136.642755 23.697009 
" style="fill:none;stroke:#b0b0b0;stroke-width:0.8;"/>
    <path d="M 75.82148 231.692265 
L 154.394561 160.882811 
L 154.961183 28.277276 
" style="fill:none;stroke:#b0b0b0;stroke-width:0.8;"/>
    <path d="M 94.368471 237.803498 
L 171.992798 166.092069 
L 173.514982 32.916395 
" style="fill:none;stroke:#b0b0b0;stroke-width:0.8;"/>
    <path d="M 113.162024 243.995973 
L 189.806865 171.365215 
L 192.308719 37.615506 
" style="fill:none;stroke:#b0b0b0;stroke-width:0.8;"/>
    <path d="M 132.207087 250.271321 
L 207.840757 176.703432 
L 211.347079 42.375782 
" style="fill:none;stroke:#b0b0b0;stroke-width:0.8;"/>
    <path d="M 151.508744 256.631217 
L 226.098568 182.107931 
L 230.634868 47.198425 
" style="fill:none;stroke:#b0b0b0;stroke-width:0.8;"/>
    <path d="M 171.072215 263.07738 
L 244.584495 187.579954 
L 250.17702 52.084667 
" style="fill:none;stroke:#b0b0b0;stroke-width:0.8;"/>
   </g>
   <g id="xtick_1">
    <g id="line2d_2">
     <path d="M 40.14321 219.10998 
L 38.054918 220.904021 
" style="fill:none;stroke:#000000;stroke-linecap:square;stroke-width:0.8;"/>
    </g>
    <g id="text_2">
     <!-- −1 -->
     <g transform="translate(25.319002 244.436647)scale(0.1 -0.1)">
      <defs>
       <path d="M 10.59375 35.5 
L 73.1875 35.5 
L 73.1875 27.203125 
L 10.59375 27.203125 
z
" id="DejaVuSans-8722"/>
       <path d="M 12.40625 8.296875 
L 28.515625 8.296875 
L 28.515625 63.921875 
L 10.984375 60.40625 
L 10.984375 69.390625 
L 28.421875 72.90625 
L 38.28125 72.90625 
L 38.28125 8.296875 
L 54.390625 8.296875 
L 54.390625 0 
L 12.40625 0 
z
" id="DejaVuSans-49"/>
      </defs>
      <use xlink:href="#DejaVuSans-8722"/>
      <use x="83.789062" xlink:href="#DejaVuSans-49"/>
     </g>
    </g>
   </g>
   <g id="xtick_2">
    <g id="line2d_3">
     <path d="M 58.204054 225.055646 
L 56.137858 226.873155 
" style="fill:none;stroke:#000000;stroke-linecap:square;stroke-width:0.8;"/>
    </g>
    <g id="text_3">
     <!-- 0 -->
     <g transform="translate(47.574134 250.515601)scale(0.1 -0.1)">
      <defs>
       <path d="M 31.78125 66.40625 
Q 24.171875 66.40625 20.328125 58.90625 
Q 16.5 51.421875 16.5 36.375 
Q 16.5 21.390625 20.328125 13.890625 
Q 24.171875 6.390625 31.78125 6.390625 
Q 39.453125 6.390625 43.28125 13.890625 
Q 47.125 21.390625 47.125 36.375 
Q 47.125 51.421875 43.28125 58.90625 
Q 39.453125 66.40625 31.78125 66.40625 
z
M 31.78125 74.21875 
Q 44.046875 74.21875 50.515625 64.515625 
Q 56.984375 54.828125 56.984375 36.375 
Q 56.984375 17.96875 50.515625 8.265625 
Q 44.046875 -1.421875 31.78125 -1.421875 
Q 19.53125 -1.421875 13.0625 8.265625 
Q 6.59375 17.96875 6.59375 36.375 
Q 6.59375 54.828125 13.0625 64.515625 
Q 19.53125 74.21875 31.78125 74.21875 
z
" id="DejaVuSans-48"/>
      </defs>
      <use xlink:href="#DejaVuSans-48"/>
     </g>
    </g>
   </g>
   <g id="xtick_3">
    <g id="line2d_4">
     <path d="M 76.50169 231.079265 
L 74.458352 232.920705 
" style="fill:none;stroke:#000000;stroke-linecap:square;stroke-width:0.8;"/>
    </g>
    <g id="text_4">
     <!-- 1 -->
     <g transform="translate(65.876973 256.674491)scale(0.1 -0.1)">
      <use xlink:href="#DejaVuSans-49"/>
     </g>
    </g>
   </g>
   <g id="xtick_4">
    <g id="line2d_5">
     <path d="M 95.040804 237.182379 
L 93.021111 239.048226 
" style="fill:none;stroke:#000000;stroke-linecap:square;stroke-width:0.8;"/>
    </g>
    <g id="text_5">
     <!-- 2 -->
     <g transform="translate(84.42208 262.914903)scale(0.1 -0.1)">
      <defs>
       <path d="M 19.1875 8.296875 
L 53.609375 8.296875 
L 53.609375 0 
L 7.328125 0 
L 7.328125 8.296875 
Q 12.9375 14.109375 22.625 23.890625 
Q 32.328125 33.6875 34.8125 36.53125 
Q 39.546875 41.84375 41.421875 45.53125 
Q 43.3125 49.21875 43.3125 52.78125 
Q 43.3125 58.59375 39.234375 62.25 
Q 35.15625 65.921875 28.609375 65.921875 
Q 23.96875 65.921875 18.8125 64.3125 
Q 13.671875 62.703125 7.8125 59.421875 
L 7.8125 69.390625 
Q 13.765625 71.78125 18.9375 73 
Q 24.125 74.21875 28.421875 74.21875 
Q 39.75 74.21875 46.484375 68.546875 
Q 53.21875 62.890625 53.21875 53.421875 
Q 53.21875 48.921875 51.53125 44.890625 
Q 49.859375 40.875 45.40625 35.40625 
Q 44.1875 33.984375 37.640625 27.21875 
Q 31.109375 20.453125 19.1875 8.296875 
z
" id="DejaVuSans-50"/>
      </defs>
      <use xlink:href="#DejaVuSans-50"/>
     </g>
    </g>
   </g>
   <g id="xtick_5">
    <g id="line2d_6">
     <path d="M 113.82621 243.366572 
L 111.830972 245.257314 
" style="fill:none;stroke:#000000;stroke-linecap:square;stroke-width:0.8;"/>
    </g>
    <g id="text_6">
     <!-- 3 -->
     <g transform="translate(103.214296 269.238468)scale(0.1 -0.1)">
      <defs>
       <path d="M 40.578125 39.3125 
Q 47.65625 37.796875 51.625 33 
Q 55.609375 28.21875 55.609375 21.1875 
Q 55.609375 10.40625 48.1875 4.484375 
Q 40.765625 -1.421875 27.09375 -1.421875 
Q 22.515625 -1.421875 17.65625 -0.515625 
Q 12.796875 0.390625 7.625 2.203125 
L 7.625 11.71875 
Q 11.71875 9.328125 16.59375 8.109375 
Q 21.484375 6.890625 26.8125 6.890625 
Q 36.078125 6.890625 40.9375 10.546875 
Q 45.796875 14.203125 45.796875 21.1875 
Q 45.796875 27.640625 41.28125 31.265625 
Q 36.765625 34.90625 28.71875 34.90625 
L 20.21875 34.90625 
L 20.21875 43.015625 
L 29.109375 43.015625 
Q 36.375 43.015625 40.234375 45.921875 
Q 44.09375 48.828125 44.09375 54.296875 
Q 44.09375 59.90625 40.109375 62.90625 
Q 36.140625 65.921875 28.71875 65.921875 
Q 24.65625 65.921875 20.015625 65.03125 
Q 15.375 64.15625 9.8125 62.3125 
L 9.8125 71.09375 
Q 15.4375 72.65625 20.34375 73.4375 
Q 25.25 74.21875 29.59375 74.21875 
Q 40.828125 74.21875 47.359375 69.109375 
Q 53.90625 64.015625 53.90625 55.328125 
Q 53.90625 49.265625 50.4375 45.09375 
Q 46.96875 40.921875 40.578125 39.3125 
z
" id="DejaVuSans-51"/>
      </defs>
      <use xlink:href="#DejaVuSans-51"/>
     </g>
    </g>
   </g>
   <g id="xtick_6">
    <g id="line2d_7">
     <path d="M 132.862847 249.633472 
L 130.892903 251.549611 
" style="fill:none;stroke:#000000;stroke-linecap:square;stroke-width:0.8;"/>
    </g>
    <g id="text_7">
     <!-- 4 -->
     <g transform="translate(122.258595 275.646858)scale(0.1 -0.1)">
      <defs>
       <path d="M 37.796875 64.3125 
L 12.890625 25.390625 
L 37.796875 25.390625 
z
M 35.203125 72.90625 
L 47.609375 72.90625 
L 47.609375 25.390625 
L 58.015625 25.390625 
L 58.015625 17.1875 
L 47.609375 17.1875 
L 47.609375 0 
L 37.796875 0 
L 37.796875 17.1875 
L 4.890625 17.1875 
L 4.890625 26.703125 
z
" id="DejaVuSans-52"/>
      </defs>
      <use xlink:href="#DejaVuSans-52"/>
     </g>
    </g>
   </g>
   <g id="xtick_7">
    <g id="line2d_8">
     <path d="M 152.15579 255.984748 
L 150.212006 257.926799 
" style="fill:none;stroke:#000000;stroke-linecap:square;stroke-width:0.8;"/>
    </g>
    <g id="text_8">
     <!-- 5 -->
     <g transform="translate(141.560082 282.141792)scale(0.1 -0.1)">
      <defs>
       <path d="M 10.796875 72.90625 
L 49.515625 72.90625 
L 49.515625 64.59375 
L 19.828125 64.59375 
L 19.828125 46.734375 
Q 21.96875 47.46875 24.109375 47.828125 
Q 26.265625 48.1875 28.421875 48.1875 
Q 40.625 48.1875 47.75 41.5 
Q 54.890625 34.8125 54.890625 23.390625 
Q 54.890625 11.625 47.5625 5.09375 
Q 40.234375 -1.421875 26.90625 -1.421875 
Q 22.3125 -1.421875 17.546875 -0.640625 
Q 12.796875 0.140625 7.71875 1.703125 
L 7.71875 11.625 
Q 12.109375 9.234375 16.796875 8.0625 
Q 21.484375 6.890625 26.703125 6.890625 
Q 35.15625 6.890625 40.078125 11.328125 
Q 45.015625 15.765625 45.015625 23.390625 
Q 45.015625 31 40.078125 35.4375 
Q 35.15625 39.890625 26.703125 39.890625 
Q 22.75 39.890625 18.8125 39.015625 
Q 14.890625 38.140625 10.796875 36.28125 
z
" id="DejaVuSans-53"/>
      </defs>
      <use xlink:href="#DejaVuSans-53"/>
     </g>
    </g>
   </g>
   <g id="xtick_8">
    <g id="line2d_9">
     <path d="M 171.71025 262.422116 
L 169.793518 264.390608 
" style="fill:none;stroke:#000000;stroke-linecap:square;stroke-width:0.8;"/>
    </g>
    <g id="text_9">
     <!-- 6 -->
     <g transform="translate(161.124003 288.725034)scale(0.1 -0.1)">
      <defs>
       <path d="M 33.015625 40.375 
Q 26.375 40.375 22.484375 35.828125 
Q 18.609375 31.296875 18.609375 23.390625 
Q 18.609375 15.53125 22.484375 10.953125 
Q 26.375 6.390625 33.015625 6.390625 
Q 39.65625 6.390625 43.53125 10.953125 
Q 47.40625 15.53125 47.40625 23.390625 
Q 47.40625 31.296875 43.53125 35.828125 
Q 39.65625 40.375 33.015625 40.375 
z
M 52.59375 71.296875 
L 52.59375 62.3125 
Q 48.875 64.0625 45.09375 64.984375 
Q 41.3125 65.921875 37.59375 65.921875 
Q 27.828125 65.921875 22.671875 59.328125 
Q 17.53125 52.734375 16.796875 39.40625 
Q 19.671875 43.65625 24.015625 45.921875 
Q 28.375 48.1875 33.59375 48.1875 
Q 44.578125 48.1875 50.953125 41.515625 
Q 57.328125 34.859375 57.328125 23.390625 
Q 57.328125 12.15625 50.6875 5.359375 
Q 44.046875 -1.421875 33.015625 -1.421875 
Q 20.359375 -1.421875 13.671875 8.265625 
Q 6.984375 17.96875 6.984375 36.375 
Q 6.984375 53.65625 15.1875 63.9375 
Q 23.390625 74.21875 37.203125 74.21875 
Q 40.921875 74.21875 44.703125 73.484375 
Q 48.484375 72.75 52.59375 71.296875 
z
" id="DejaVuSans-54"/>
      </defs>
      <use xlink:href="#DejaVuSans-54"/>
     </g>
    </g>
   </g>
  </g>
  <g id="axis3d_2">
   <g id="line2d_10">
    <path d="M 247.299674 188.383675 
L 173.947415 264.024759 
" style="fill:none;stroke:#000000;stroke-linecap:square;stroke-width:0.8;"/>
   </g>
   <g id="text_10">
    <!-- y -->
    <g transform="translate(233.680665 258.992768)scale(0.1 -0.1)">
     <defs>
      <path d="M 32.171875 -5.078125 
Q 28.375 -14.84375 24.75 -17.8125 
Q 21.140625 -20.796875 15.09375 -20.796875 
L 7.90625 -20.796875 
L 7.90625 -13.28125 
L 13.1875 -13.28125 
Q 16.890625 -13.28125 18.9375 -11.515625 
Q 21 -9.765625 23.484375 -3.21875 
L 25.09375 0.875 
L 2.984375 54.6875 
L 12.5 54.6875 
L 29.59375 11.921875 
L 46.6875 54.6875 
L 56.203125 54.6875 
z
" id="DejaVuSans-121"/>
     </defs>
     <use xlink:href="#DejaVuSans-121"/>
    </g>
   </g>
   <g id="Line3DCollection_2">
    <path d="M 32.517647 78.732887 
L 38.571502 217.356626 
L 175.537518 262.385039 
" style="fill:none;stroke:#b0b0b0;stroke-width:0.8;"/>
    <path d="M 45.030176 69.701127 
L 50.344216 207.277075 
L 186.29613 251.290724 
" style="fill:none;stroke:#b0b0b0;stroke-width:0.8;"/>
    <path d="M 57.253526 60.878102 
L 61.859319 197.418086 
L 196.807954 240.450897 
" style="fill:none;stroke:#b0b0b0;stroke-width:0.8;"/>
    <path d="M 69.197605 52.256659 
L 73.125174 187.772497 
L 207.081386 229.856902 
" style="fill:none;stroke:#b0b0b0;stroke-width:0.8;"/>
    <path d="M 80.871878 43.829968 
L 84.149789 178.333453 
L 217.124444 219.500468 
" style="fill:none;stroke:#b0b0b0;stroke-width:0.8;"/>
    <path d="M 92.285384 35.591502 
L 94.940829 169.094391 
L 226.944792 209.373695 
" style="fill:none;stroke:#b0b0b0;stroke-width:0.8;"/>
    <path d="M 103.446764 27.535025 
L 105.505639 160.049022 
L 236.549755 199.469026 
" style="fill:none;stroke:#b0b0b0;stroke-width:0.8;"/>
    <path d="M 114.36428 19.654574 
L 115.851261 151.191318 
L 245.946344 189.779234 
" style="fill:none;stroke:#b0b0b0;stroke-width:0.8;"/>
   </g>
   <g id="xtick_9">
    <g id="line2d_11">
     <path d="M 174.388096 262.007159 
L 177.839091 263.141695 
" style="fill:none;stroke:#000000;stroke-linecap:square;stroke-width:0.8;"/>
    </g>
    <g id="text_11">
     <!-- −1 -->
     <g transform="translate(179.934968 285.09549)scale(0.1 -0.1)">
      <use xlink:href="#DejaVuSans-8722"/>
      <use x="83.789062" xlink:href="#DejaVuSans-49"/>
     </g>
    </g>
   </g>
   <g id="xtick_10">
    <g id="line2d_12">
     <path d="M 185.155837 250.921561 
L 188.579393 252.029917 
" style="fill:none;stroke:#000000;stroke-linecap:square;stroke-width:0.8;"/>
    </g>
    <g id="text_12">
     <!-- 0 -->
     <g transform="translate(194.740225 273.832901)scale(0.1 -0.1)">
      <use xlink:href="#DejaVuSans-48"/>
     </g>
    </g>
   </g>
   <g id="xtick_11">
    <g id="line2d_13">
     <path d="M 195.676675 240.090152 
L 199.073136 241.173225 
" style="fill:none;stroke:#000000;stroke-linecap:square;stroke-width:0.8;"/>
    </g>
    <g id="text_13">
     <!-- 1 -->
     <g transform="translate(205.112286 262.8285)scale(0.1 -0.1)">
      <use xlink:href="#DejaVuSans-49"/>
     </g>
    </g>
   </g>
   <g id="xtick_12">
    <g id="line2d_14">
     <path d="M 205.959008 229.504289 
L 209.328716 230.562935 
" style="fill:none;stroke:#000000;stroke-linecap:square;stroke-width:0.8;"/>
    </g>
    <g id="text_14">
     <!-- 2 -->
     <g transform="translate(215.249269 252.07351)scale(0.1 -0.1)">
      <use xlink:href="#DejaVuSans-50"/>
     </g>
    </g>
   </g>
   <g id="xtick_13">
    <g id="line2d_15">
     <path d="M 216.010855 219.155717 
L 219.354148 220.190752 
" style="fill:none;stroke:#000000;stroke-linecap:square;stroke-width:0.8;"/>
    </g>
    <g id="text_15">
     <!-- 3 -->
     <g transform="translate(225.159075 241.559546)scale(0.1 -0.1)">
      <use xlink:href="#DejaVuSans-51"/>
     </g>
    </g>
   </g>
   <g id="xtick_14">
    <g id="line2d_16">
     <path d="M 225.839879 209.036545 
L 229.157094 210.04875 
" style="fill:none;stroke:#000000;stroke-linecap:square;stroke-width:0.8;"/>
    </g>
    <g id="text_16">
     <!-- 4 -->
     <g transform="translate(234.849257 231.278596)scale(0.1 -0.1)">
      <use xlink:href="#DejaVuSans-52"/>
     </g>
    </g>
   </g>
   <g id="xtick_15">
    <g id="line2d_17">
     <path d="M 235.453409 199.139229 
L 238.744879 200.129352 
" style="fill:none;stroke:#000000;stroke-linecap:square;stroke-width:0.8;"/>
    </g>
    <g id="text_17">
     <!-- 5 -->
     <g transform="translate(244.327036 221.222998)scale(0.1 -0.1)">
      <use xlink:href="#DejaVuSans-53"/>
     </g>
    </g>
   </g>
   <g id="xtick_16">
    <g id="line2d_18">
     <path d="M 244.858454 189.456551 
L 248.12451 190.425307 
" style="fill:none;stroke:#000000;stroke-linecap:square;stroke-width:0.8;"/>
    </g>
    <g id="text_18">
     <!-- 6 -->
     <g transform="translate(253.599319 211.385424)scale(0.1 -0.1)">
      <use xlink:href="#DejaVuSans-54"/>
     </g>
    </g>
   </g>
  </g>
  <g id="axis3d_3">
   <g id="line2d_19">
    <path d="M 247.299674 188.383675 
L 253.048471 52.802633 
" style="fill:none;stroke:#000000;stroke-linecap:square;stroke-width:0.8;"/>
   </g>
   <g id="text_19">
    <!-- z -->
    <g transform="translate(284.911397 120.169327)scale(0.1 -0.1)">
     <defs>
      <path d="M 5.515625 54.6875 
L 48.1875 54.6875 
L 48.1875 46.484375 
L 14.40625 7.171875 
L 48.1875 7.171875 
L 48.1875 0 
L 4.296875 0 
L 4.296875 8.203125 
L 38.09375 47.515625 
L 5.515625 47.515625 
z
" id="DejaVuSans-122"/>
     </defs>
     <use xlink:href="#DejaVuSans-122"/>
    </g>
   </g>
   <g id="Line3DCollection_3">
    <path d="M 247.408712 185.812104 
L 117.315368 147.416798 
L 36.715905 216.218187 
" style="fill:none;stroke:#b0b0b0;stroke-width:0.8;"/>
    <path d="M 248.162636 168.031371 
L 117.130664 130.150335 
L 35.908756 198.04728 
" style="fill:none;stroke:#b0b0b0;stroke-width:0.8;"/>
    <path d="M 248.927618 149.989841 
L 116.94337 112.641827 
L 35.089352 179.6005 
" style="fill:none;stroke:#b0b0b0;stroke-width:0.8;"/>
    <path d="M 249.703904 131.681734 
L 116.753433 94.886148 
L 34.257414 160.871517 
" style="fill:none;stroke:#b0b0b0;stroke-width:0.8;"/>
    <path d="M 250.491745 113.101097 
L 116.560795 76.878028 
L 33.412649 141.853805 
" style="fill:none;stroke:#b0b0b0;stroke-width:0.8;"/>
    <path d="M 251.291401 94.2418 
L 116.365399 58.612044 
L 32.554761 122.540636 
" style="fill:none;stroke:#b0b0b0;stroke-width:0.8;"/>
    <path d="M 252.103141 75.097526 
L 116.167184 40.082618 
L 31.68344 102.925071 
" style="fill:none;stroke:#b0b0b0;stroke-width:0.8;"/>
    <path d="M 252.92724 55.661767 
L 115.96609 21.284009 
L 30.798369 82.99995 
" style="fill:none;stroke:#b0b0b0;stroke-width:0.8;"/>
   </g>
   <g id="xtick_17">
    <g id="line2d_20">
     <path d="M 246.320862 185.491039 
L 249.586798 186.454936 
" style="fill:none;stroke:#000000;stroke-linecap:square;stroke-width:0.8;"/>
    </g>
    <g id="text_20">
     <!-- −1 -->
     <g transform="translate(256.888536 190.978705)scale(0.1 -0.1)">
      <use xlink:href="#DejaVuSans-8722"/>
      <use x="83.789062" xlink:href="#DejaVuSans-49"/>
     </g>
    </g>
   </g>
   <g id="xtick_18">
    <g id="line2d_21">
     <path d="M 247.066591 167.714507 
L 250.357146 168.665799 
" style="fill:none;stroke:#000000;stroke-linecap:square;stroke-width:0.8;"/>
    </g>
    <g id="text_21">
     <!-- 0 -->
     <g transform="translate(261.952543 173.22983)scale(0.1 -0.1)">
      <use xlink:href="#DejaVuSans-48"/>
     </g>
    </g>
   </g>
   <g id="xtick_19">
    <g id="line2d_22">
     <path d="M 247.823255 149.677336 
L 251.138801 150.615547 
" style="fill:none;stroke:#000000;stroke-linecap:square;stroke-width:0.8;"/>
    </g>
    <g id="text_22">
     <!-- 1 -->
     <g transform="translate(262.839491 155.221356)scale(0.1 -0.1)">
      <use xlink:href="#DejaVuSans-49"/>
     </g>
    </g>
   </g>
   <g id="xtick_20">
    <g id="line2d_23">
     <path d="M 248.591095 131.373751 
L 251.932014 132.298389 
" style="fill:none;stroke:#000000;stroke-linecap:square;stroke-width:0.8;"/>
    </g>
    <g id="text_23">
     <!-- 2 -->
     <g transform="translate(263.739508 136.947545)scale(0.1 -0.1)">
      <use xlink:href="#DejaVuSans-50"/>
     </g>
    </g>
   </g>
   <g id="xtick_21">
    <g id="line2d_24">
     <path d="M 249.370361 112.797807 
L 252.737044 113.708363 
" style="fill:none;stroke:#000000;stroke-linecap:square;stroke-width:0.8;"/>
    </g>
    <g id="text_24">
     <!-- 3 -->
     <g transform="translate(264.652885 118.402489)scale(0.1 -0.1)">
      <use xlink:href="#DejaVuSans-51"/>
     </g>
    </g>
   </g>
   <g id="xtick_22">
    <g id="line2d_25">
     <path d="M 250.161309 93.943378 
L 253.554157 94.839323 
" style="fill:none;stroke:#000000;stroke-linecap:square;stroke-width:0.8;"/>
    </g>
    <g id="text_25">
     <!-- 4 -->
     <g transform="translate(265.57992 99.580103)scale(0.1 -0.1)">
      <use xlink:href="#DejaVuSans-52"/>
     </g>
    </g>
   </g>
   <g id="xtick_23">
    <g id="line2d_26">
     <path d="M 250.964204 74.804154 
L 254.383626 75.684942 
" style="fill:none;stroke:#000000;stroke-linecap:square;stroke-width:0.8;"/>
    </g>
    <g id="text_26">
     <!-- 5 -->
     <g transform="translate(266.520923 80.474121)scale(0.1 -0.1)">
      <use xlink:href="#DejaVuSans-53"/>
     </g>
    </g>
   </g>
   <g id="xtick_24">
    <g id="line2d_27">
     <path d="M 251.779319 55.373634 
L 255.225734 56.238697 
" style="fill:none;stroke:#000000;stroke-linecap:square;stroke-width:0.8;"/>
    </g>
    <g id="text_27">
     <!-- 6 -->
     <g transform="translate(267.476211 61.078083)scale(0.1 -0.1)">
      <use xlink:href="#DejaVuSans-54"/>
     </g>
    </g>
   </g>
  </g>
  <g id="axes_1">
   <g id="Poly3DCollection_1">
    <path clip-path="url(#pb68daa96cc)" d="M 63.075186 196.211854 
L 118.144281 149.071601 
L 120.092993 151.578092 
L 65.138955 198.8533 
z
" style="fill:#bb5d0a;"/>
    <path clip-path="url(#pb68daa96cc)" d="M 65.138955 198.8533 
L 120.092993 151.578092 
L 122.537645 153.541307 
L 67.699995 200.94386 
z
" style="fill:#a65309;"/>
    <path clip-path="url(#pb68daa96cc)" d="M 61.708045 193.274303 
L 116.879894 146.263781 
L 118.144281 149.071601 
L 63.075186 196.211854 
z
" style="fill:#cd660b;"/>
    <path clip-path="url(#pb68daa96cc)" d="M 67.699995 200.94386 
L 122.537645 153.541307 
L 125.242434 154.770922 
L 70.511458 202.281006 
z
" style="fill:#924908;"/>
    <path clip-path="url(#pb68daa96cc)" d="M 61.170892 190.324165 
L 116.423252 143.425804 
L 116.879894 146.263781 
L 61.708045 193.274303 
z
" style="fill:#dc6e0c;"/>
    <path clip-path="url(#pb68daa96cc)" d="M 70.511458 202.281006 
L 125.242434 154.770922 
L 127.945899 155.146161 
L 73.301718 202.733481 
z
" style="fill:#7f3f07;"/>
    <path clip-path="url(#pb68daa96cc)" d="M 61.518213 187.647471 
L 116.820872 140.832917 
L 116.423252 143.425804 
L 61.170892 190.324165 
z
" style="fill:#e5720d;"/>
    <path clip-path="url(#pb68daa96cc)" d="M 73.301718 202.733481 
L 127.945899 155.146161 
L 130.385263 154.627772 
L 75.799597 202.25428 
z
" style="fill:#703806;"/>
    <path clip-path="url(#pb68daa96cc)" d="M 62.719579 185.505812 
L 118.037126 138.738471 
L 116.820872 140.832917 
L 61.518213 187.647471 
z
" style="fill:#e8740d;"/>
    <path clip-path="url(#pb68daa96cc)" d="M 75.799597 202.25428 
L 130.385263 154.627772 
L 132.321438 153.262811 
L 77.760166 200.886271 
z
" style="fill:#673306;"/>
    <path clip-path="url(#pb68daa96cc)" d="M 64.661271 184.110911 
L 119.956487 137.349312 
L 118.037126 138.738471 
L 62.719579 185.505812 
z
" style="fill:#e5720d;"/>
    <path clip-path="url(#pb68daa96cc)" d="M 77.760166 200.886271 
L 132.321438 153.262811 
L 133.562535 151.181442 
L 78.988856 198.759534 
z
" style="fill:#633105;"/>
    <path clip-path="url(#pb68daa96cc)" d="M 67.155932 183.603118 
L 122.393487 136.804844 
L 119.956487 137.349312 
L 64.661271 184.110911 
z
" style="fill:#db6d0c;"/>
    <path clip-path="url(#pb68daa96cc)" d="M 78.988856 198.759534 
L 133.562535 151.181442 
L 133.983537 148.585514 
L 79.361514 196.080091 
z
" style="fill:#663306;"/>
    <path clip-path="url(#pb68daa96cc)" d="M 69.959861 184.036222 
L 125.109943 137.162087 
L 122.393487 136.804844 
L 67.155932 183.603118 
z
" style="fill:#cc660b;"/>
    <path clip-path="url(#pb68daa96cc)" d="M 79.361514 196.080091 
L 133.983537 148.585514 
L 133.539887 145.729541 
L 78.838031 193.110583 
z
" style="fill:#703806;"/>
    <path clip-path="url(#pb68daa96cc)" d="M 72.796661 185.370618 
L 127.838115 138.38866 
L 125.109943 137.162087 
L 69.959861 184.036222 
z
" style="fill:#ba5d0a;"/>
    <path clip-path="url(#pb68daa96cc)" d="M 78.838031 193.110583 
L 133.539887 145.729541 
L 132.273136 142.895642 
L 77.467672 190.14444 
z
" style="fill:#7e3f07;"/>
    <path clip-path="url(#pb68daa96cc)" d="M 75.385026 187.476101 
L 130.30761 140.364952 
L 127.838115 138.38866 
L 72.796661 185.370618 
z
" style="fill:#a55209;"/>
    <path clip-path="url(#pb68daa96cc)" d="M 77.467672 190.14444 
L 132.273136 142.895642 
L 130.30761 140.364952 
L 75.385026 187.476101 
z
" style="fill:#914808;"/>
   </g>
   <g id="Poly3DCollection_2">
    <path clip-path="url(#pb68daa96cc)" d="M 214.215592 167.18606 
L 216.870985 74.314904 
L 220.271283 74.397127 
L 217.491949 167.274872 
z
" style="fill:#513868;"/>
    <path clip-path="url(#pb68daa96cc)" d="M 211.088172 167.625444 
L 213.626885 74.721695 
L 216.870985 74.314904 
L 214.215592 167.18606 
z
" style="fill:#60437b;"/>
    <path clip-path="url(#pb68daa96cc)" d="M 217.491949 167.274872 
L 220.271283 74.397127 
L 223.501164 74.960616 
L 220.602313 167.883499 
z
" style="fill:#432f56;"/>
    <path clip-path="url(#pb68daa96cc)" d="M 208.410922 168.551515 
L 210.851267 75.579124 
L 213.626885 74.721695 
L 211.088172 167.625444 
z
" style="fill:#6f4d8e;"/>
    <path clip-path="url(#pb68daa96cc)" d="M 220.602313 167.883499 
L 223.501164 74.960616 
L 226.249306 75.952148 
L 223.246708 168.954378 
z
" style="fill:#392748;"/>
    <path clip-path="url(#pb68daa96cc)" d="M 206.443745 169.876379 
L 208.813503 76.805908 
L 210.851267 75.579124 
L 208.410922 168.551515 
z
" style="fill:#7d57a0;"/>
    <path clip-path="url(#pb68daa96cc)" d="M 223.246708 168.954378 
L 226.249306 75.952148 
L 228.248324 77.277506 
L 225.167779 170.38564 
z
" style="fill:#322340;"/>
    <path clip-path="url(#pb68daa96cc)" d="M 205.380606 171.473323 
L 207.714583 78.284819 
L 208.813503 76.805908 
L 206.443745 169.876379 
z
" style="fill:#885ead;"/>
    <path clip-path="url(#pb68daa96cc)" d="M 225.167779 170.38564 
L 228.248324 77.277506 
L 229.300307 78.809633 
L 226.175393 172.039969 
z
" style="fill:#2f213c;"/>
    <path clip-path="url(#pb68daa96cc)" d="M 205.330035 173.188087 
L 207.66689 79.873071 
L 207.714583 78.284819 
L 205.380606 171.473323 
z
" style="fill:#8f63b6;"/>
    <path clip-path="url(#pb68daa96cc)" d="M 226.175393 172.039969 
L 229.300307 78.809633 
L 229.297014 80.400048 
L 226.166024 173.756982 
z
" style="fill:#322340;"/>
    <path clip-path="url(#pb68daa96cc)" d="M 206.302825 174.853173 
L 208.68139 81.41554 
L 207.66689 79.873071 
L 205.330035 173.188087 
z
" style="fill:#9165b9;"/>
    <path clip-path="url(#pb68daa96cc)" d="M 226.166024 173.756982 
L 229.297014 80.400048 
L 228.232453 81.892798 
L 225.13473 175.368321 
z
" style="fill:#392748;"/>
    <path clip-path="url(#pb68daa96cc)" d="M 208.208751 176.304089 
L 210.664157 82.759794 
L 208.68139 81.41554 
L 206.302825 174.853173 
z
" style="fill:#8f63b6;"/>
    <path clip-path="url(#pb68daa96cc)" d="M 225.13473 175.368321 
L 228.232453 81.892798 
L 226.205882 83.139815 
L 223.177875 176.71423 
z
" style="fill:#432f56;"/>
    <path clip-path="url(#pb68daa96cc)" d="M 210.863467 177.396012 
L 213.42349 83.771559 
L 210.664157 82.759794 
L 208.208751 176.304089 
z
" style="fill:#885ead;"/>
    <path clip-path="url(#pb68daa96cc)" d="M 223.177875 176.71423 
L 226.205882 83.139815 
L 223.414014 84.016141 
L 220.485482 177.659956 
z
" style="fill:#513868;"/>
    <path clip-path="url(#pb68daa96cc)" d="M 214.005675 178.019036 
L 216.68773 84.34889 
L 213.42349 83.771559 
L 210.863467 177.396012 
z
" style="fill:#7d57a0;"/>
    <path clip-path="url(#pb68daa96cc)" d="M 220.485482 177.659956 
L 223.414014 84.016141 
L 220.13243 84.433275 
L 217.323236 178.110097 
z
" style="fill:#60437b;"/>
    <path clip-path="url(#pb68daa96cc)" d="M 217.323236 178.110097 
L 220.13243 84.433275 
L 216.68773 84.34889 
L 214.005675 178.019036 
z
" style="fill:#6f4d8e;"/>
   </g>
   <g id="Poly3DCollection_3">
    <path clip-path="url(#pb68daa96cc)" d="M 70.672002 190.810922 
L 217.833547 77.770075 
L 219.900008 80.462014 
L 72.70873 193.467448 
z
" style="fill:#6a1314;"/>
    <path clip-path="url(#pb68daa96cc)" d="M 68.591531 188.384164 
L 215.82956 75.228982 
L 217.833547 77.770075 
L 70.672002 190.810922 
z
" style="fill:#7b1617;"/>
    <path clip-path="url(#pb68daa96cc)" d="M 72.70873 193.467448 
L 219.900008 80.462014 
L 221.831013 83.046963 
L 74.50657 196.099224 
z
" style="fill:#5c1111;"/>
    <path clip-path="url(#pb68daa96cc)" d="M 66.666966 186.420629 
L 214.08052 73.082943 
L 215.82956 75.228982 
L 68.591531 188.384164 
z
" style="fill:#8e1a1b;"/>
    <path clip-path="url(#pb68daa96cc)" d="M 74.50657 196.099224 
L 221.831013 83.046963 
L 223.440916 85.276564 
L 75.892398 198.453505 
z
" style="fill:#520f0f;"/>
    <path clip-path="url(#pb68daa96cc)" d="M 65.084426 185.111403 
L 212.755996 71.540346 
L 214.08052 73.082943 
L 66.666966 186.420629 
z
" style="fill:#a11d1e;"/>
    <path clip-path="url(#pb68daa96cc)" d="M 75.892398 198.453505 
L 223.440916 85.276564 
L 224.573252 86.934487 
L 76.730975 200.302227 
z
" style="fill:#4e0e0f;"/>
    <path clip-path="url(#pb68daa96cc)" d="M 63.999151 184.586939 
L 211.986685 70.754007 
L 212.755996 71.540346 
L 65.084426 185.111403 
z
" style="fill:#b22021;"/>
    <path clip-path="url(#pb68daa96cc)" d="M 76.730975 200.302227 
L 224.573252 86.934487 
L 225.115618 87.856862 
L 76.938009 201.463409 
z
" style="fill:#500f0f;"/>
    <path clip-path="url(#pb68daa96cc)" d="M 63.520203 184.903444 
L 211.851247 70.805559 
L 211.986685 70.754007 
L 63.999151 184.586939 
z
" style="fill:#be2324;"/>
    <path clip-path="url(#pb68daa96cc)" d="M 76.938009 201.463409 
L 225.115618 87.856862 
L 225.011239 87.94889 
L 76.489226 201.819324 
z
" style="fill:#581010;"/>
    <path clip-path="url(#pb68daa96cc)" d="M 63.698736 186.035541 
L 212.367347 71.695705 
L 211.851247 70.805559 
L 63.520203 184.903444 
z
" style="fill:#c62425;"/>
    <path clip-path="url(#pb68daa96cc)" d="M 76.489226 201.819324 
L 225.011239 87.94889 
L 224.265918 87.195816 
L 75.424259 201.329544 
z
" style="fill:#651213;"/>
    <path clip-path="url(#pb68daa96cc)" d="M 64.521361 187.876613 
L 213.488244 73.341957 
L 212.367347 71.695705 
L 63.698736 186.035541 
z
" style="fill:#c82425;"/>
    <path clip-path="url(#pb68daa96cc)" d="M 75.424259 201.329544 
L 224.265918 87.195816 
L 222.949152 85.666565 
L 73.844413 200.037028 
z
" style="fill:#751516;"/>
    <path clip-path="url(#pb68daa96cc)" d="M 65.909882 190.247603 
L 215.105903 75.584903 
L 213.488244 73.341957 
L 64.521361 187.876613 
z
" style="fill:#c42425;"/>
    <path clip-path="url(#pb68daa96cc)" d="M 73.844413 200.037028 
L 222.949152 85.666565 
L 221.188674 83.508857 
L 71.903897 198.065846 
z
" style="fill:#881919;"/>
    <path clip-path="url(#pb68daa96cc)" d="M 67.72803 192.914063 
L 217.060899 78.203116 
L 215.105903 75.584903 
L 65.909882 190.247603 
z
" style="fill:#bb2223;"/>
    <path clip-path="url(#pb68daa96cc)" d="M 71.903897 198.065846 
L 221.188674 83.508857 
L 219.15842 80.935534 
L 69.794925 195.610002 
z
" style="fill:#9b1c1d;"/>
    <path clip-path="url(#pb68daa96cc)" d="M 69.794925 195.610002 
L 219.15842 80.935534 
L 217.060899 78.203116 
L 67.72803 192.914063 
z
" style="fill:#ac1f20;"/>
   </g>
   <g id="Poly3DCollection_4">
    <path clip-path="url(#pb68daa96cc)" d="M 75.804425 191.283386 
L 169.364422 220.765606 
L 168.572334 224.095408 
L 75.060741 194.513086 
z
" style="fill:#0c2e46;"/>
    <path clip-path="url(#pb68daa96cc)" d="M 75.060741 194.513086 
L 168.572334 224.095408 
L 167.358665 227.313147 
L 73.847693 197.6149 
z
" style="fill:#0c3048;"/>
    <path clip-path="url(#pb68daa96cc)" d="M 76.006981 188.235921 
L 169.65859 217.643281 
L 169.364422 220.765606 
L 75.804425 191.283386 
z
" style="fill:#0c3048;"/>
    <path clip-path="url(#pb68daa96cc)" d="M 73.847693 197.6149 
L 167.358665 227.313147 
L 165.839453 230.109659 
L 72.281291 200.290599 
z
" style="fill:#0e344f;"/>
    <path clip-path="url(#pb68daa96cc)" d="M 75.647523 185.66462 
L 169.425212 215.029487 
L 169.65859 217.643281 
L 76.006981 188.235921 
z
" style="fill:#0e344f;"/>
    <path clip-path="url(#pb68daa96cc)" d="M 72.281291 200.290599 
L 165.839453 230.109659 
L 164.16011 232.214237 
L 70.511458 202.281006 
z
" style="fill:#0f3b5a;"/>
    <path clip-path="url(#pb68daa96cc)" d="M 74.758479 183.820103 
L 168.684585 213.179054 
L 169.425212 215.029487 
L 75.647523 185.66462 
z
" style="fill:#0f3b59;"/>
    <path clip-path="url(#pb68daa96cc)" d="M 70.511458 202.281006 
L 164.16011 232.214237 
L 162.482432 233.419962 
L 68.708643 203.390318 
z
" style="fill:#124467;"/>
    <path clip-path="url(#pb68daa96cc)" d="M 73.423453 182.885582 
L 167.505895 212.27606 
L 168.684585 213.179054 
L 74.758479 183.820103 
z
" style="fill:#124466;"/>
    <path clip-path="url(#pb68daa96cc)" d="M 68.708643 203.390318 
L 162.482432 233.419962 
L 160.969753 233.604279 
L 67.048198 203.505612 
z
" style="fill:#144e75;"/>
    <path clip-path="url(#pb68daa96cc)" d="M 71.770335 182.957943 
L 166.001698 212.414724 
L 167.505895 212.27606 
L 73.423453 182.885582 
z
" style="fill:#144d75;"/>
    <path clip-path="url(#pb68daa96cc)" d="M 67.048198 203.505612 
L 160.969753 233.604279 
L 159.771306 232.742685 
L 65.693656 202.609525 
z
" style="fill:#175784;"/>
    <path clip-path="url(#pb68daa96cc)" d="M 69.959861 184.036222 
L 164.317989 213.58798 
L 166.001698 212.414724 
L 71.770335 182.957943 
z
" style="fill:#175783;"/>
    <path clip-path="url(#pb68daa96cc)" d="M 65.693656 202.609525 
L 159.771306 232.742685 
L 159.007194 230.913587 
L 64.780364 200.784265 
z
" style="fill:#196091;"/>
    <path clip-path="url(#pb68daa96cc)" d="M 68.170308 186.01935 
L 162.620402 215.685674 
L 164.317989 213.58798 
L 69.959861 184.036222 
z
" style="fill:#195f90;"/>
    <path clip-path="url(#pb68daa96cc)" d="M 64.780364 200.784265 
L 159.007194 230.913587 
L 158.755572 228.292911 
L 64.401185 198.205686 
z
" style="fill:#1b679b;"/>
    <path clip-path="url(#pb68daa96cc)" d="M 66.579656 188.714304 
L 161.077704 218.50352 
L 162.620402 215.685674 
L 68.170308 186.01935 
z
" style="fill:#1b669b;"/>
    <path clip-path="url(#pb68daa96cc)" d="M 64.401185 198.205686 
L 158.755572 228.292911 
L 159.043706 225.138118 
L 64.596081 195.127189 
z
" style="fill:#1c6ba2;"/>
    <path clip-path="url(#pb68daa96cc)" d="M 65.347093 191.854554 
L 159.844277 221.76266 
L 161.077704 218.50352 
L 66.579656 188.714304 
z
" style="fill:#1c6ba2;"/>
    <path clip-path="url(#pb68daa96cc)" d="M 64.596081 195.127189 
L 159.043706 225.138118 
L 159.844277 221.76266 
L 65.347093 191.854554 
z
" style="fill:#1c6ca4;"/>
   </g>
   <g id="Poly3DCollection_5">
    <path clip-path="url(#pb68daa96cc)" d="M 69.589332 187.505162 
L 66.718092 93.143195 
L 70.185279 93.229499 
L 72.927746 187.598215 
z
" style="fill:#185818;"/>
    <path clip-path="url(#pb68daa96cc)" d="M 66.312522 187.965534 
L 63.312963 93.570179 
L 66.718092 93.143195 
L 69.589332 187.505162 
z
" style="fill:#1d681d;"/>
    <path clip-path="url(#pb68daa96cc)" d="M 72.927746 187.598215 
L 70.185279 93.229499 
L 73.381609 93.820964 
L 76.006981 188.235921 
z
" style="fill:#144914;"/>
    <path clip-path="url(#pb68daa96cc)" d="M 63.412674 188.935877 
L 60.29738 94.470204 
L 63.312963 93.570179 
L 66.312522 187.965534 
z
" style="fill:#217821;"/>
    <path clip-path="url(#pb68daa96cc)" d="M 76.006981 188.235921 
L 73.381609 93.820964 
L 75.998888 94.861776 
L 78.529969 189.358016 
z
" style="fill:#113d11;"/>
    <path clip-path="url(#pb68daa96cc)" d="M 61.170892 190.324165 
L 57.963546 95.758021 
L 60.29738 94.470204 
L 63.412674 188.935877 
z
" style="fill:#258725;"/>
    <path clip-path="url(#pb68daa96cc)" d="M 78.529969 189.358016 
L 75.998888 94.861776 
L 77.78204 96.253107 
L 80.250791 190.857832 
z
" style="fill:#0f360f;"/>
    <path clip-path="url(#pb68daa96cc)" d="M 59.807562 191.997691 
L 56.54092 97.31064 
L 57.963546 95.758021 
L 61.170892 190.324165 
z
" style="fill:#289328;"/>
    <path clip-path="url(#pb68daa96cc)" d="M 80.250791 190.857832 
L 77.78204 96.253107 
L 78.553626 97.861647 
L 80.998327 192.591547 
z
" style="fill:#0e330e;"/>
    <path clip-path="url(#pb68daa96cc)" d="M 59.46045 193.79485 
L 56.173402 98.978215 
L 56.54092 97.31064 
L 59.807562 191.997691 
z
" style="fill:#2a9a2a;"/>
    <path clip-path="url(#pb68daa96cc)" d="M 80.998327 192.591547 
L 78.553626 97.861647 
L 78.232283 99.531548 
L 80.694003 194.391119 
z
" style="fill:#0f360f;"/>
    <path clip-path="url(#pb68daa96cc)" d="M 60.169595 195.540107 
L 56.903509 100.597881 
L 56.173402 98.978215 
L 59.46045 193.79485 
z
" style="fill:#2b9d2b;"/>
    <path clip-path="url(#pb68daa96cc)" d="M 80.694003 194.391119 
L 78.232283 99.531548 
L 76.842891 101.099058 
L 79.361514 196.080091 
z
" style="fill:#113d11;"/>
    <path clip-path="url(#pb68daa96cc)" d="M 61.871084 197.061011 
L 58.665721 102.009543 
L 56.903509 100.597881 
L 60.169595 195.540107 
z
" style="fill:#2a9a2a;"/>
    <path clip-path="url(#pb68daa96cc)" d="M 79.361514 196.080091 
L 76.842891 101.099058 
L 74.516657 102.408642 
L 77.126846 197.490958 
z
" style="fill:#144914;"/>
    <path clip-path="url(#pb68daa96cc)" d="M 64.401185 198.205686 
L 61.290598 103.072122 
L 58.665721 102.009543 
L 61.871084 197.061011 
z
" style="fill:#289328;"/>
    <path clip-path="url(#pb68daa96cc)" d="M 77.126846 197.490958 
L 74.516657 102.408642 
L 71.480135 103.328998 
L 74.207667 198.482391 
z
" style="fill:#185818;"/>
    <path clip-path="url(#pb68daa96cc)" d="M 67.511261 198.858839 
L 64.520162 103.67848 
L 61.290598 103.072122 
L 64.401185 198.205686 
z
" style="fill:#258725;"/>
    <path clip-path="url(#pb68daa96cc)" d="M 74.207667 198.482391 
L 71.480135 103.328998 
L 68.033526 103.767109 
L 70.892464 198.954305 
z
" style="fill:#1d681d;"/>
    <path clip-path="url(#pb68daa96cc)" d="M 70.892464 198.954305 
L 68.033526 103.767109 
L 64.520162 103.67848 
L 67.511261 198.858839 
z
" style="fill:#217821;"/>
   </g>
  </g>
 </g>
 <defs>
  <clipPath id="pb68daa96cc">
   <rect height="266.112" width="266.112" x="7.2" y="7.2"/>
  </clipPath>
 </defs>
</svg>
