<?xml version="1.0" encoding="utf-8" standalone="no"?>
<!DOCTYPE svg PUBLIC "-//W3C//DTD SVG 1.1//EN"
  "http://www.w3.org/Graphics/SVG/1.1/DTD/svg11.dtd">
<svg xmlns:xlink="http://www.w3.org/1999/xlink" width="411.63885pt" height="314.667469pt" viewBox="0 0 411.63885 314.667469" xmlns="http://www.w3.org/2000/svg" version="1.1">
 <metadata>
  <rdf:RDF xmlns:dc="http://purl.org/dc/elements/1.1/" xmlns:cc="http://creativecommons.org/ns#" xmlns:rdf="http://www.w3.org/1999/02/22-rdf-syntax-ns#">
   <cc:Work>
    <dc:type rdf:resource="http://purl.org/dc/dcmitype/StillImage"/>
    <dc:date>2023-10-09T17:08:26.989840</dc:date>
    <dc:format>image/svg+xml</dc:format>
    <dc:creator>
     <cc:Agent>
      <dc:title>Matplotlib v3.6.3, https://matplotlib.org/</dc:title>
     </cc:Agent>
    </dc:creator>
   </cc:Work>
  </rdf:RDF>
 </metadata>
 <defs>
  <style type="text/css">*{stroke-linejoin: round; stroke-linecap: butt}</style>
 </defs>
 <g id="figure_1">
  <g id="patch_1">
   <path d="M 0 314.667469 
L 411.63885 314.667469 
L 411.63885 0 
L 0 0 
z
" style="fill: #ffffff"/>
  </g>
  <g id="axes_1">
   <g id="patch_2">
    <path d="M 52.160938 277.111219 
L 337.856938 277.111219 
L 337.856938 10.999219 
L 52.160938 10.999219 
z
" style="fill: #ffffff"/>
   </g>
   <g id="PathCollection_1">
    <path d="M 123.584938 277.111219 
L 137.869738 277.111219 
L 152.154538 277.111219 
L 166.439338 277.111219 
L 180.724138 277.111219 
L 195.008938 277.111219 
L 209.293738 277.111219 
L 223.578538 277.111219 
L 237.863338 277.111219 
L 252.148138 277.111219 
L 266.432938 277.111219 
L 266.432938 277.111219 
L 266.432938 277.111219 
L 252.148138 270.808566 
L 237.863338 265.906503 
L 229.292458 263.805619 
L 223.578538 262.240254 
L 209.293738 259.892207 
L 195.008938 259.109525 
L 180.724138 259.892207 
L 166.439338 262.240254 
L 160.725418 263.805619 
L 152.154538 265.906503 
L 137.869738 270.808566 
L 123.584938 277.111219 
L 123.584938 277.111219 
z
" clip-path="url(#pe4761e2a52)" style="fill: #1e5ec4"/>
    <path d="M 166.439338 25.870183 
L 180.724138 28.218231 
L 195.008938 29.000913 
L 209.293738 28.218231 
L 223.578538 25.870183 
L 229.292458 24.304819 
L 237.863338 22.203935 
L 252.148138 17.301871 
L 266.432938 10.999219 
L 266.432938 10.999219 
L 266.432938 10.999219 
L 252.148138 10.999219 
L 237.863338 10.999219 
L 223.578538 10.999219 
L 209.293738 10.999219 
L 195.008938 10.999219 
L 180.724138 10.999219 
L 166.439338 10.999219 
L 152.154538 10.999219 
L 137.869738 10.999219 
L 123.584938 10.999219 
L 123.584938 10.999219 
L 123.584938 10.999219 
L 137.869738 17.301871 
L 152.154538 22.203935 
L 160.725417 24.304819 
z
" clip-path="url(#pe4761e2a52)" style="fill: #1e5ec4"/>
   </g>
   <g id="PathCollection_2">
    <path d="M 95.015338 277.111219 
L 109.300138 277.111219 
L 123.584938 277.111219 
L 123.584938 277.111219 
L 137.869738 270.808566 
L 152.154538 265.906503 
L 160.725418 263.805619 
L 166.439338 262.240254 
L 180.724138 259.892207 
L 195.008938 259.109525 
L 209.293738 259.892207 
L 223.578538 262.240254 
L 229.292458 263.805619 
L 237.863338 265.906503 
L 252.148138 270.808566 
L 266.432938 277.111219 
L 266.432938 277.111219 
L 280.717738 277.111219 
L 295.002538 277.111219 
L 295.954858 277.111219 
L 295.002538 276.410924 
L 280.717738 267.307092 
L 274.224647 263.805619 
L 266.432938 259.109525 
L 252.148138 252.065383 
L 248.066766 250.500019 
L 237.863338 246.064819 
L 223.578538 241.629619 
L 209.293738 238.968499 
L 195.008938 238.081459 
L 180.724138 238.968499 
L 166.439338 241.629619 
L 152.154538 246.064819 
L 141.951109 250.500019 
L 137.869738 252.065383 
L 123.584938 259.109525 
L 115.793228 263.805619 
L 109.300138 267.307092 
L 95.015338 276.410924 
L 94.063018 277.111219 
z
" clip-path="url(#pe4761e2a52)" style="fill: #00acc4"/>
    <path d="M 152.154538 42.045619 
L 166.439338 46.480819 
L 180.724138 49.141939 
L 195.008938 50.028979 
L 209.293738 49.141939 
L 223.578538 46.480819 
L 237.863338 42.045619 
L 248.066766 37.610419 
L 252.148138 36.045054 
L 266.432938 29.000913 
L 274.224647 24.304819 
L 280.717738 20.803345 
L 295.002538 11.699513 
L 295.954858 10.999219 
L 295.002538 10.999219 
L 280.717738 10.999219 
L 266.432938 10.999219 
L 266.432938 10.999219 
L 252.148138 17.301871 
L 237.863338 22.203935 
L 229.292458 24.304819 
L 223.578538 25.870183 
L 209.293738 28.218231 
L 195.008938 29.000913 
L 180.724138 28.218231 
L 166.439338 25.870183 
L 160.725417 24.304819 
L 152.154538 22.203935 
L 137.869738 17.301871 
L 123.584938 10.999219 
L 123.584938 10.999219 
L 109.300138 10.999219 
L 95.015338 10.999219 
L 94.063018 10.999219 
L 95.015338 11.699513 
L 109.300138 20.803345 
L 115.793228 24.304819 
L 123.584938 29.000913 
L 137.869738 36.045054 
L 141.951109 37.610419 
z
" clip-path="url(#pe4761e2a52)" style="fill: #00acc4"/>
   </g>
   <g id="PathCollection_3">
    <path d="M 80.730538 277.111219 
L 94.063018 277.111219 
L 95.015338 276.410924 
L 109.300138 267.307092 
L 115.793228 263.805619 
L 123.584938 259.109525 
L 137.869738 252.065383 
L 141.951109 250.500019 
L 152.154538 246.064819 
L 166.439338 241.629619 
L 180.724138 238.968499 
L 195.008938 238.081459 
L 209.293738 238.968499 
L 223.578538 241.629619 
L 237.863338 246.064819 
L 248.066766 250.500019 
L 252.148138 252.065383 
L 266.432938 259.109525 
L 274.224647 263.805619 
L 280.717738 267.307092 
L 295.002538 276.410924 
L 295.954858 277.111219 
L 309.287338 277.111219 
L 318.530443 277.111219 
L 309.287338 269.407977 
L 301.668778 263.805619 
L 295.002538 258.326842 
L 284.01423 250.500019 
L 280.717738 247.838899 
L 266.432938 238.081459 
L 264.845738 237.194419 
L 252.148138 229.006357 
L 241.944709 223.888819 
L 237.863338 221.469619 
L 223.578538 215.421619 
L 209.293738 211.792819 
L 195.008938 210.583219 
L 195.008938 210.583219 
L 195.008938 210.583219 
L 180.724138 211.792819 
L 166.439338 215.421619 
L 152.154538 221.469619 
L 148.073166 223.888819 
L 137.869738 229.006357 
L 125.172138 237.194419 
L 123.584938 238.081459 
L 109.300138 247.838899 
L 106.003645 250.500019 
L 95.015338 258.326842 
L 88.349098 263.805619 
L 80.730538 269.407977 
L 71.487432 277.111219 
z
" clip-path="url(#pe4761e2a52)" style="fill: #41d973"/>
    <path d="M 195.008938 77.527219 
L 195.008938 77.527219 
L 209.293738 76.317619 
L 223.578538 72.688819 
L 237.863338 66.640819 
L 241.944709 64.221619 
L 252.148138 59.10408 
L 264.845738 50.916019 
L 266.432938 50.028979 
L 280.717738 40.271539 
L 284.01423 37.610419 
L 295.002538 29.783595 
L 301.668778 24.304819 
L 309.287338 18.702461 
L 318.530443 10.999219 
L 309.287338 10.999219 
L 295.954858 10.999219 
L 295.002538 11.699513 
L 280.717738 20.803345 
L 274.224647 24.304819 
L 266.432938 29.000913 
L 252.148138 36.045054 
L 248.066766 37.610419 
L 237.863338 42.045619 
L 223.578538 46.480819 
L 209.293738 49.141939 
L 195.008938 50.028979 
L 180.724138 49.141939 
L 166.439338 46.480819 
L 152.154538 42.045619 
L 141.951109 37.610419 
L 137.869738 36.045054 
L 123.584938 29.000913 
L 115.793228 24.304819 
L 109.300138 20.803345 
L 95.015338 11.699513 
L 94.063018 10.999219 
L 80.730538 10.999219 
L 71.487432 10.999219 
L 80.730538 18.702461 
L 88.349098 24.304819 
L 95.015338 29.783595 
L 106.003645 37.610419 
L 109.300138 40.271539 
L 123.584938 50.028979 
L 125.172137 50.916019 
L 137.869738 59.10408 
L 148.073166 64.221619 
L 152.154538 66.640819 
L 166.439338 72.688819 
L 180.724138 76.317619 
L 195.008938 77.527219 
z
" clip-path="url(#pe4761e2a52)" style="fill: #41d973"/>
   </g>
   <g id="PathCollection_4">
    <path d="M 66.445738 277.111219 
L 71.487432 277.111219 
L 80.730538 269.407977 
L 88.349098 263.805619 
L 95.015338 258.326842 
L 106.003645 250.500019 
L 109.300138 247.838899 
L 123.584938 238.081459 
L 125.172138 237.194419 
L 137.869738 229.006357 
L 148.073166 223.888819 
L 152.154538 221.469619 
L 166.439338 215.421619 
L 180.724138 211.792819 
L 195.008938 210.583219 
L 195.008938 210.583219 
L 195.008938 210.583219 
L 209.293738 211.792819 
L 223.578538 215.421619 
L 237.863338 221.469619 
L 241.944709 223.888819 
L 252.148138 229.006357 
L 264.845738 237.194419 
L 266.432938 238.081459 
L 280.717738 247.838899 
L 284.01423 250.500019 
L 295.002538 258.326842 
L 301.668778 263.805619 
L 309.287338 269.407977 
L 318.530443 277.111219 
L 323.572138 277.111219 
L 337.856938 277.111219 
L 337.856938 277.111219 
L 323.572138 263.805619 
L 323.572138 263.805619 
L 309.287338 250.500019 
L 309.287338 250.500019 
L 295.002538 237.194419 
L 295.002538 237.194419 
L 280.717738 223.888819 
L 280.717738 223.888819 
L 266.432938 210.583219 
L 266.432938 210.583219 
L 252.148138 197.277619 
L 252.148138 197.277619 
L 237.863338 183.972019 
L 237.863338 183.972019 
L 223.578538 170.666419 
L 223.578538 170.666419 
L 209.293738 157.360819 
L 209.293738 157.360819 
L 195.008938 144.055219 
L 209.293738 130.749619 
L 209.293738 130.749619 
L 223.578538 117.444019 
L 223.578538 117.444019 
L 237.863338 104.138419 
L 237.863338 104.138419 
L 252.148138 90.832819 
L 252.148138 90.832819 
L 266.432938 77.527219 
L 266.432938 77.527219 
L 280.717738 64.221619 
L 280.717738 64.221619 
L 295.002538 50.916019 
L 295.002538 50.916019 
L 309.287338 37.610419 
L 309.287338 37.610419 
L 323.572138 24.304819 
L 323.572138 24.304819 
L 337.856938 10.999219 
L 337.856938 10.999219 
L 323.572138 10.999219 
L 318.530443 10.999219 
L 309.287338 18.702461 
L 301.668778 24.304819 
L 295.002538 29.783595 
L 284.01423 37.610419 
L 280.717738 40.271539 
L 266.432938 50.028979 
L 264.845738 50.916019 
L 252.148138 59.10408 
L 241.944709 64.221619 
L 237.863338 66.640819 
L 223.578538 72.688819 
L 209.293738 76.317619 
L 195.008938 77.527219 
L 195.008938 77.527219 
L 195.008938 77.527219 
L 180.724138 76.317619 
L 166.439338 72.688819 
L 152.154538 66.640819 
L 148.073166 64.221619 
L 137.869738 59.10408 
L 125.172138 50.916019 
L 123.584938 50.028979 
L 109.300138 40.271539 
L 106.003645 37.610419 
L 95.015338 29.783595 
L 88.349098 24.304819 
L 80.730538 18.702461 
L 71.487432 10.999219 
L 66.445738 10.999219 
L 52.160938 10.999219 
L 52.160938 10.999219 
L 66.445738 24.304819 
L 66.445738 24.304819 
L 80.730538 37.610419 
L 80.730538 37.610419 
L 95.015338 50.916019 
L 95.015338 50.916019 
L 109.300138 64.221619 
L 109.300138 64.221619 
L 123.584938 77.527219 
L 123.584938 77.527219 
L 137.869738 90.832819 
L 137.869738 90.832819 
L 152.154538 104.138419 
L 152.154538 104.138419 
L 166.439338 117.444019 
L 166.439338 117.444019 
L 180.724138 130.749619 
L 180.724138 130.749619 
L 195.008938 144.055219 
L 180.724138 157.360819 
L 180.724138 157.360819 
L 166.439338 170.666419 
L 166.439338 170.666419 
L 152.154538 183.972019 
L 152.154538 183.972019 
L 137.869738 197.277619 
L 137.869738 197.277619 
L 123.584938 210.583219 
L 123.584938 210.583219 
L 109.300138 223.888819 
L 109.300138 223.888819 
L 95.015338 237.194419 
L 95.015338 237.194419 
L 80.730538 250.500019 
L 80.730538 250.500019 
L 66.445738 263.805619 
L 66.445738 263.805619 
L 52.160938 277.111219 
L 52.160938 277.111219 
z
" clip-path="url(#pe4761e2a52)" style="fill: #c1f38d"/>
   </g>
   <g id="PathCollection_5">
    <path d="M 66.445738 263.805619 
L 66.445738 263.805619 
L 80.730538 250.500019 
L 80.730538 250.500019 
L 95.015338 237.194419 
L 95.015338 237.194419 
L 109.300138 223.888819 
L 109.300138 223.888819 
L 123.584938 210.583219 
L 123.584938 210.583219 
L 137.869738 197.277619 
L 137.869738 197.277619 
L 152.154538 183.972019 
L 152.154538 183.972019 
L 166.439338 170.666419 
L 166.439338 170.666419 
L 180.724138 157.360819 
L 180.724138 157.360819 
L 195.008938 144.055219 
L 180.724138 130.749619 
L 180.724138 130.749619 
L 166.439338 117.444019 
L 166.439338 117.444019 
L 152.154538 104.138419 
L 152.154538 104.138419 
L 137.869738 90.832819 
L 137.869738 90.832819 
L 123.584938 77.527219 
L 123.584938 77.527219 
L 109.300138 64.221619 
L 109.300138 64.221619 
L 95.015338 50.916019 
L 95.015338 50.916019 
L 80.730538 37.610419 
L 80.730538 37.610419 
L 66.445738 24.304819 
L 66.445738 24.304819 
L 52.160938 10.999219 
L 52.160938 24.304819 
L 52.160938 29.000913 
L 60.431085 37.610419 
L 66.445738 44.706739 
L 72.327714 50.916019 
L 80.730538 61.151096 
L 83.587498 64.221619 
L 94.063018 77.527219 
L 95.015338 79.005619 
L 103.805984 90.832819 
L 109.300138 100.336819 
L 111.897374 104.138419 
L 118.390465 117.444019 
L 122.286319 130.749619 
L 123.584938 144.055219 
L 122.286319 157.360819 
L 118.390465 170.666419 
L 111.897374 183.972019 
L 109.300138 187.773619 
L 103.805984 197.277619 
L 95.015338 209.104819 
L 94.063018 210.583219 
L 83.587498 223.888819 
L 80.730538 226.959342 
L 72.327714 237.194419 
L 66.445738 243.403699 
L 60.431085 250.500019 
L 52.160938 259.109525 
L 52.160938 263.805619 
L 52.160938 277.111219 
z
" clip-path="url(#pe4761e2a52)" style="fill: #ded587"/>
    <path d="M 323.572138 263.805619 
L 337.856938 277.111219 
L 337.856938 263.805619 
L 337.856938 259.109525 
L 329.58679 250.500019 
L 323.572138 243.403699 
L 317.690161 237.194419 
L 309.287338 226.959342 
L 306.430378 223.888819 
L 295.954858 210.583219 
L 295.002538 209.104819 
L 286.211891 197.277619 
L 280.717738 187.773619 
L 278.120501 183.972019 
L 271.62741 170.666419 
L 267.731556 157.360819 
L 266.432938 144.055219 
L 267.731556 130.749619 
L 271.62741 117.444019 
L 278.120501 104.138419 
L 280.717738 100.336819 
L 286.211891 90.832819 
L 295.002538 79.005619 
L 295.954858 77.527219 
L 306.430378 64.221619 
L 309.287338 61.151096 
L 317.690161 50.916019 
L 323.572138 44.706739 
L 329.58679 37.610419 
L 337.856938 29.000913 
L 337.856938 24.304819 
L 337.856938 10.999219 
L 323.572138 24.304819 
L 323.572138 24.304819 
L 309.287338 37.610419 
L 309.287338 37.610419 
L 295.002538 50.916019 
L 295.002538 50.916019 
L 280.717738 64.221619 
L 280.717738 64.221619 
L 266.432938 77.527219 
L 266.432938 77.527219 
L 252.148138 90.832819 
L 252.148138 90.832819 
L 237.863338 104.138419 
L 237.863338 104.138419 
L 223.578538 117.444019 
L 223.578538 117.444019 
L 209.293738 130.749619 
L 209.293738 130.749619 
L 195.008938 144.055219 
L 209.293738 157.360819 
L 209.293738 157.360819 
L 223.578538 170.666419 
L 223.578538 170.666419 
L 237.863338 183.972019 
L 237.863338 183.972019 
L 252.148138 197.277619 
L 252.148138 197.277619 
L 266.432938 210.583219 
L 266.432938 210.583219 
L 280.717738 223.888819 
L 280.717738 223.888819 
L 295.002538 237.194419 
L 295.002538 237.194419 
L 309.287338 250.500019 
L 309.287338 250.500019 
L 323.572138 263.805619 
z
" clip-path="url(#pe4761e2a52)" style="fill: #ded587"/>
   </g>
   <g id="PathCollection_6">
    <path d="M 60.431085 250.500019 
L 66.445738 243.403699 
L 72.327714 237.194419 
L 80.730538 226.959342 
L 83.587498 223.888819 
L 94.063018 210.583219 
L 95.015338 209.104819 
L 103.805984 197.277619 
L 109.300138 187.773619 
L 111.897374 183.972019 
L 118.390465 170.666419 
L 122.286319 157.360819 
L 123.584938 144.055219 
L 122.286319 130.749619 
L 118.390465 117.444019 
L 111.897374 104.138419 
L 109.300138 100.336819 
L 103.805984 90.832819 
L 95.015338 79.005619 
L 94.063018 77.527219 
L 83.587498 64.221619 
L 80.730538 61.151096 
L 72.327714 50.916019 
L 66.445738 44.706739 
L 60.431085 37.610419 
L 52.160938 29.000913 
L 52.160938 37.610419 
L 52.160938 50.028979 
L 52.912769 50.916019 
L 62.68658 64.221619 
L 66.445738 70.269619 
L 71.487432 77.527219 
L 79.049973 90.832819 
L 80.730538 94.634419 
L 85.492138 104.138419 
L 90.253738 117.444019 
L 93.110698 130.749619 
L 94.063018 144.055219 
L 93.110698 157.360819 
L 90.253738 170.666419 
L 85.492138 183.972019 
L 80.730537 193.476019 
L 79.049973 197.277619 
L 71.487432 210.583219 
L 66.445738 217.840819 
L 62.68658 223.888819 
L 52.912769 237.194419 
L 52.160938 238.081459 
L 52.160938 250.500019 
L 52.160938 259.109525 
z
" clip-path="url(#pe4761e2a52)" style="fill: #9e8365"/>
    <path d="M 337.856938 259.109525 
L 337.856938 250.500019 
L 337.856938 238.081459 
L 337.105106 237.194419 
L 327.331295 223.888819 
L 323.572138 217.840819 
L 318.530443 210.583219 
L 310.967902 197.277619 
L 309.287338 193.476019 
L 304.525738 183.972019 
L 299.764138 170.666419 
L 296.907178 157.360819 
L 295.954858 144.055219 
L 296.907178 130.749619 
L 299.764138 117.444019 
L 304.525738 104.138419 
L 309.287338 94.634419 
L 310.967902 90.832819 
L 318.530443 77.527219 
L 323.572138 70.269619 
L 327.331295 64.221619 
L 337.105106 50.916019 
L 337.856938 50.028979 
L 337.856938 37.610419 
L 337.856938 29.000913 
L 329.58679 37.610419 
L 323.572138 44.706739 
L 317.690161 50.916019 
L 309.287338 61.151096 
L 306.430378 64.221619 
L 295.954858 77.527219 
L 295.002538 79.005619 
L 286.211891 90.832819 
L 280.717738 100.336819 
L 278.120501 104.138419 
L 271.62741 117.444019 
L 267.731556 130.749619 
L 266.432938 144.055219 
L 267.731556 157.360819 
L 271.62741 170.666419 
L 278.120501 183.972019 
L 280.717738 187.773619 
L 286.211891 197.277619 
L 295.002538 209.104819 
L 295.954858 210.583219 
L 306.430378 223.888819 
L 309.287338 226.959342 
L 317.690161 237.194419 
L 323.572138 243.403699 
L 329.58679 250.500019 
z
" clip-path="url(#pe4761e2a52)" style="fill: #9e8365"/>
   </g>
   <g id="PathCollection_7">
    <path d="M 52.912769 237.194419 
L 62.68658 223.888819 
L 66.445738 217.840819 
L 71.487432 210.583219 
L 79.049973 197.277619 
L 80.730538 193.476019 
L 85.492138 183.972019 
L 90.253738 170.666419 
L 93.110698 157.360819 
L 94.063018 144.055219 
L 93.110698 130.749619 
L 90.253738 117.444019 
L 85.492138 104.138419 
L 80.730538 94.634419 
L 79.049973 90.832819 
L 71.487432 77.527219 
L 66.445738 70.269619 
L 62.68658 64.221619 
L 52.912769 50.916019 
L 52.160938 50.028979 
L 52.160938 50.916019 
L 52.160938 64.221619 
L 52.160938 77.527219 
L 52.160938 77.527219 
L 58.927422 90.832819 
L 64.190243 104.138419 
L 66.445738 112.121779 
L 68.126302 117.444019 
L 70.647149 130.749619 
L 71.487432 144.055219 
L 70.647149 157.360819 
L 68.126302 170.666419 
L 66.445738 175.988659 
L 64.190243 183.972019 
L 58.927422 197.277619 
L 52.160938 210.583219 
L 52.160938 210.583219 
L 52.160938 223.888819 
L 52.160938 237.194419 
L 52.160938 238.081459 
z
" clip-path="url(#pe4761e2a52)" style="fill: #a18781"/>
    <path d="M 337.856938 238.081459 
L 337.856938 237.194419 
L 337.856938 223.888819 
L 337.856938 210.583219 
L 337.856938 210.583219 
L 331.090453 197.277619 
L 325.827632 183.972019 
L 323.572138 175.988659 
L 321.891573 170.666419 
L 319.370726 157.360819 
L 318.530443 144.055219 
L 319.370726 130.749619 
L 321.891573 117.444019 
L 323.572138 112.121779 
L 325.827632 104.138419 
L 331.090453 90.832819 
L 337.856938 77.527219 
L 337.856938 77.527219 
L 337.856938 64.221619 
L 337.856938 50.916019 
L 337.856938 50.028979 
L 337.105106 50.916019 
L 327.331295 64.221619 
L 323.572138 70.269619 
L 318.530443 77.527219 
L 310.967902 90.832819 
L 309.287338 94.634419 
L 304.525738 104.138419 
L 299.764138 117.444019 
L 296.907178 130.749619 
L 295.954858 144.055219 
L 296.907178 157.360819 
L 299.764138 170.666419 
L 304.525738 183.972019 
L 309.287338 193.476019 
L 310.967902 197.277619 
L 318.530443 210.583219 
L 323.572138 217.840819 
L 327.331295 223.888819 
L 337.105106 237.194419 
z
" clip-path="url(#pe4761e2a52)" style="fill: #a18781"/>
   </g>
   <g id="PathCollection_8">
    <path d="M 58.927422 197.277619 
L 64.190243 183.972019 
L 66.445738 175.988659 
L 68.126302 170.666419 
L 70.647149 157.360819 
L 71.487432 144.055219 
L 70.647149 130.749619 
L 68.126302 117.444019 
L 66.445738 112.121779 
L 64.190243 104.138419 
L 58.927422 90.832819 
L 52.160938 77.527219 
L 52.160938 90.832819 
L 52.160938 104.138419 
L 52.160938 117.444019 
L 52.160938 130.749619 
L 52.160938 144.055219 
L 52.160938 157.360819 
L 52.160938 170.666419 
L 52.160938 183.972019 
L 52.160938 197.277619 
L 52.160938 210.583219 
z
" clip-path="url(#pe4761e2a52)" style="fill: #e1d9d7"/>
    <path d="M 337.856938 210.583219 
L 337.856938 197.277619 
L 337.856938 183.972019 
L 337.856938 170.666419 
L 337.856938 157.360819 
L 337.856938 144.055219 
L 337.856938 130.749619 
L 337.856938 117.444019 
L 337.856938 104.138419 
L 337.856938 90.832819 
L 337.856938 77.527219 
L 331.090453 90.832819 
L 325.827632 104.138419 
L 323.572138 112.121779 
L 321.891573 117.444019 
L 319.370726 130.749619 
L 318.530443 144.055219 
L 319.370726 157.360819 
L 321.891573 170.666419 
L 323.572138 175.988659 
L 325.827632 183.972019 
L 331.090453 197.277619 
z
" clip-path="url(#pe4761e2a52)" style="fill: #e1d9d7"/>
   </g>
   <g id="matplotlib.axis_1">
    <g id="xtick_1">
     <g id="line2d_1">
      <defs>
       <path id="m1fb05cbe23" d="M 0 0 
L 0 3.5 
" style="stroke: #000000; stroke-width: 0.8"/>
      </defs>
      <g>
       <use xlink:href="#m1fb05cbe23" x="52.160938" y="277.111219" style="stroke: #000000; stroke-width: 0.8"/>
      </g>
     </g>
     <g id="text_1">
      <!-- −2.0 -->
      <g transform="translate(40.019531 291.709656) scale(0.1 -0.1)">
       <defs>
        <path id="DejaVuSans-2212" d="M 678 2272 
L 4684 2272 
L 4684 1741 
L 678 1741 
L 678 2272 
z
" transform="scale(0.015625)"/>
        <path id="DejaVuSans-32" d="M 1228 531 
L 3431 531 
L 3431 0 
L 469 0 
L 469 531 
Q 828 903 1448 1529 
Q 2069 2156 2228 2338 
Q 2531 2678 2651 2914 
Q 2772 3150 2772 3378 
Q 2772 3750 2511 3984 
Q 2250 4219 1831 4219 
Q 1534 4219 1204 4116 
Q 875 4013 500 3803 
L 500 4441 
Q 881 4594 1212 4672 
Q 1544 4750 1819 4750 
Q 2544 4750 2975 4387 
Q 3406 4025 3406 3419 
Q 3406 3131 3298 2873 
Q 3191 2616 2906 2266 
Q 2828 2175 2409 1742 
Q 1991 1309 1228 531 
z
" transform="scale(0.015625)"/>
        <path id="DejaVuSans-2e" d="M 684 794 
L 1344 794 
L 1344 0 
L 684 0 
L 684 794 
z
" transform="scale(0.015625)"/>
        <path id="DejaVuSans-30" d="M 2034 4250 
Q 1547 4250 1301 3770 
Q 1056 3291 1056 2328 
Q 1056 1369 1301 889 
Q 1547 409 2034 409 
Q 2525 409 2770 889 
Q 3016 1369 3016 2328 
Q 3016 3291 2770 3770 
Q 2525 4250 2034 4250 
z
M 2034 4750 
Q 2819 4750 3233 4129 
Q 3647 3509 3647 2328 
Q 3647 1150 3233 529 
Q 2819 -91 2034 -91 
Q 1250 -91 836 529 
Q 422 1150 422 2328 
Q 422 3509 836 4129 
Q 1250 4750 2034 4750 
z
" transform="scale(0.015625)"/>
       </defs>
       <use xlink:href="#DejaVuSans-2212"/>
       <use xlink:href="#DejaVuSans-32" x="83.789062"/>
       <use xlink:href="#DejaVuSans-2e" x="147.412109"/>
       <use xlink:href="#DejaVuSans-30" x="179.199219"/>
      </g>
     </g>
    </g>
    <g id="xtick_2">
     <g id="line2d_2">
      <g>
       <use xlink:href="#m1fb05cbe23" x="87.872938" y="277.111219" style="stroke: #000000; stroke-width: 0.8"/>
      </g>
     </g>
     <g id="text_2">
      <!-- −1.5 -->
      <g transform="translate(75.731531 291.709656) scale(0.1 -0.1)">
       <defs>
        <path id="DejaVuSans-31" d="M 794 531 
L 1825 531 
L 1825 4091 
L 703 3866 
L 703 4441 
L 1819 4666 
L 2450 4666 
L 2450 531 
L 3481 531 
L 3481 0 
L 794 0 
L 794 531 
z
" transform="scale(0.015625)"/>
        <path id="DejaVuSans-35" d="M 691 4666 
L 3169 4666 
L 3169 4134 
L 1269 4134 
L 1269 2991 
Q 1406 3038 1543 3061 
Q 1681 3084 1819 3084 
Q 2600 3084 3056 2656 
Q 3513 2228 3513 1497 
Q 3513 744 3044 326 
Q 2575 -91 1722 -91 
Q 1428 -91 1123 -41 
Q 819 9 494 109 
L 494 744 
Q 775 591 1075 516 
Q 1375 441 1709 441 
Q 2250 441 2565 725 
Q 2881 1009 2881 1497 
Q 2881 1984 2565 2268 
Q 2250 2553 1709 2553 
Q 1456 2553 1204 2497 
Q 953 2441 691 2322 
L 691 4666 
z
" transform="scale(0.015625)"/>
       </defs>
       <use xlink:href="#DejaVuSans-2212"/>
       <use xlink:href="#DejaVuSans-31" x="83.789062"/>
       <use xlink:href="#DejaVuSans-2e" x="147.412109"/>
       <use xlink:href="#DejaVuSans-35" x="179.199219"/>
      </g>
     </g>
    </g>
    <g id="xtick_3">
     <g id="line2d_3">
      <g>
       <use xlink:href="#m1fb05cbe23" x="123.584938" y="277.111219" style="stroke: #000000; stroke-width: 0.8"/>
      </g>
     </g>
     <g id="text_3">
      <!-- −1.0 -->
      <g transform="translate(111.443531 291.709656) scale(0.1 -0.1)">
       <use xlink:href="#DejaVuSans-2212"/>
       <use xlink:href="#DejaVuSans-31" x="83.789062"/>
       <use xlink:href="#DejaVuSans-2e" x="147.412109"/>
       <use xlink:href="#DejaVuSans-30" x="179.199219"/>
      </g>
     </g>
    </g>
    <g id="xtick_4">
     <g id="line2d_4">
      <g>
       <use xlink:href="#m1fb05cbe23" x="159.296938" y="277.111219" style="stroke: #000000; stroke-width: 0.8"/>
      </g>
     </g>
     <g id="text_4">
      <!-- −0.5 -->
      <g transform="translate(147.155531 291.709656) scale(0.1 -0.1)">
       <use xlink:href="#DejaVuSans-2212"/>
       <use xlink:href="#DejaVuSans-30" x="83.789062"/>
       <use xlink:href="#DejaVuSans-2e" x="147.412109"/>
       <use xlink:href="#DejaVuSans-35" x="179.199219"/>
      </g>
     </g>
    </g>
    <g id="xtick_5">
     <g id="line2d_5">
      <g>
       <use xlink:href="#m1fb05cbe23" x="195.008938" y="277.111219" style="stroke: #000000; stroke-width: 0.8"/>
      </g>
     </g>
     <g id="text_5">
      <!-- 0.0 -->
      <g transform="translate(187.057375 291.709656) scale(0.1 -0.1)">
       <use xlink:href="#DejaVuSans-30"/>
       <use xlink:href="#DejaVuSans-2e" x="63.623047"/>
       <use xlink:href="#DejaVuSans-30" x="95.410156"/>
      </g>
     </g>
    </g>
    <g id="xtick_6">
     <g id="line2d_6">
      <g>
       <use xlink:href="#m1fb05cbe23" x="230.720938" y="277.111219" style="stroke: #000000; stroke-width: 0.8"/>
      </g>
     </g>
     <g id="text_6">
      <!-- 0.5 -->
      <g transform="translate(222.769375 291.709656) scale(0.1 -0.1)">
       <use xlink:href="#DejaVuSans-30"/>
       <use xlink:href="#DejaVuSans-2e" x="63.623047"/>
       <use xlink:href="#DejaVuSans-35" x="95.410156"/>
      </g>
     </g>
    </g>
    <g id="xtick_7">
     <g id="line2d_7">
      <g>
       <use xlink:href="#m1fb05cbe23" x="266.432938" y="277.111219" style="stroke: #000000; stroke-width: 0.8"/>
      </g>
     </g>
     <g id="text_7">
      <!-- 1.0 -->
      <g transform="translate(258.481375 291.709656) scale(0.1 -0.1)">
       <use xlink:href="#DejaVuSans-31"/>
       <use xlink:href="#DejaVuSans-2e" x="63.623047"/>
       <use xlink:href="#DejaVuSans-30" x="95.410156"/>
      </g>
     </g>
    </g>
    <g id="xtick_8">
     <g id="line2d_8">
      <g>
       <use xlink:href="#m1fb05cbe23" x="302.144938" y="277.111219" style="stroke: #000000; stroke-width: 0.8"/>
      </g>
     </g>
     <g id="text_8">
      <!-- 1.5 -->
      <g transform="translate(294.193375 291.709656) scale(0.1 -0.1)">
       <use xlink:href="#DejaVuSans-31"/>
       <use xlink:href="#DejaVuSans-2e" x="63.623047"/>
       <use xlink:href="#DejaVuSans-35" x="95.410156"/>
      </g>
     </g>
    </g>
    <g id="xtick_9">
     <g id="line2d_9">
      <g>
       <use xlink:href="#m1fb05cbe23" x="337.856938" y="277.111219" style="stroke: #000000; stroke-width: 0.8"/>
      </g>
     </g>
     <g id="text_9">
      <!-- 2.0 -->
      <g transform="translate(329.905375 291.709656) scale(0.1 -0.1)">
       <use xlink:href="#DejaVuSans-32"/>
       <use xlink:href="#DejaVuSans-2e" x="63.623047"/>
       <use xlink:href="#DejaVuSans-30" x="95.410156"/>
      </g>
     </g>
    </g>
    <g id="text_10">
     <!-- x -->
     <g transform="translate(192.049563 305.387781) scale(0.1 -0.1)">
      <defs>
       <path id="DejaVuSans-78" d="M 3513 3500 
L 2247 1797 
L 3578 0 
L 2900 0 
L 1881 1375 
L 863 0 
L 184 0 
L 1544 1831 
L 300 3500 
L 978 3500 
L 1906 2253 
L 2834 3500 
L 3513 3500 
z
" transform="scale(0.015625)"/>
      </defs>
      <use xlink:href="#DejaVuSans-78"/>
     </g>
    </g>
   </g>
   <g id="matplotlib.axis_2">
    <g id="ytick_1">
     <g id="line2d_10">
      <defs>
       <path id="m600c6980b5" d="M 0 0 
L -3.5 0 
" style="stroke: #000000; stroke-width: 0.8"/>
      </defs>
      <g>
       <use xlink:href="#m600c6980b5" x="52.160938" y="277.111219" style="stroke: #000000; stroke-width: 0.8"/>
      </g>
     </g>
     <g id="text_11">
      <!-- −2.0 -->
      <g transform="translate(20.878125 280.910437) scale(0.1 -0.1)">
       <use xlink:href="#DejaVuSans-2212"/>
       <use xlink:href="#DejaVuSans-32" x="83.789062"/>
       <use xlink:href="#DejaVuSans-2e" x="147.412109"/>
       <use xlink:href="#DejaVuSans-30" x="179.199219"/>
      </g>
     </g>
    </g>
    <g id="ytick_2">
     <g id="line2d_11">
      <g>
       <use xlink:href="#m600c6980b5" x="52.160938" y="243.847219" style="stroke: #000000; stroke-width: 0.8"/>
      </g>
     </g>
     <g id="text_12">
      <!-- −1.5 -->
      <g transform="translate(20.878125 247.646437) scale(0.1 -0.1)">
       <use xlink:href="#DejaVuSans-2212"/>
       <use xlink:href="#DejaVuSans-31" x="83.789062"/>
       <use xlink:href="#DejaVuSans-2e" x="147.412109"/>
       <use xlink:href="#DejaVuSans-35" x="179.199219"/>
      </g>
     </g>
    </g>
    <g id="ytick_3">
     <g id="line2d_12">
      <g>
       <use xlink:href="#m600c6980b5" x="52.160938" y="210.583219" style="stroke: #000000; stroke-width: 0.8"/>
      </g>
     </g>
     <g id="text_13">
      <!-- −1.0 -->
      <g transform="translate(20.878125 214.382437) scale(0.1 -0.1)">
       <use xlink:href="#DejaVuSans-2212"/>
       <use xlink:href="#DejaVuSans-31" x="83.789062"/>
       <use xlink:href="#DejaVuSans-2e" x="147.412109"/>
       <use xlink:href="#DejaVuSans-30" x="179.199219"/>
      </g>
     </g>
    </g>
    <g id="ytick_4">
     <g id="line2d_13">
      <g>
       <use xlink:href="#m600c6980b5" x="52.160938" y="177.319219" style="stroke: #000000; stroke-width: 0.8"/>
      </g>
     </g>
     <g id="text_14">
      <!-- −0.5 -->
      <g transform="translate(20.878125 181.118437) scale(0.1 -0.1)">
       <use xlink:href="#DejaVuSans-2212"/>
       <use xlink:href="#DejaVuSans-30" x="83.789062"/>
       <use xlink:href="#DejaVuSans-2e" x="147.412109"/>
       <use xlink:href="#DejaVuSans-35" x="179.199219"/>
      </g>
     </g>
    </g>
    <g id="ytick_5">
     <g id="line2d_14">
      <g>
       <use xlink:href="#m600c6980b5" x="52.160938" y="144.055219" style="stroke: #000000; stroke-width: 0.8"/>
      </g>
     </g>
     <g id="text_15">
      <!-- 0.0 -->
      <g transform="translate(29.257812 147.854437) scale(0.1 -0.1)">
       <use xlink:href="#DejaVuSans-30"/>
       <use xlink:href="#DejaVuSans-2e" x="63.623047"/>
       <use xlink:href="#DejaVuSans-30" x="95.410156"/>
      </g>
     </g>
    </g>
    <g id="ytick_6">
     <g id="line2d_15">
      <g>
       <use xlink:href="#m600c6980b5" x="52.160938" y="110.791219" style="stroke: #000000; stroke-width: 0.8"/>
      </g>
     </g>
     <g id="text_16">
      <!-- 0.5 -->
      <g transform="translate(29.257812 114.590437) scale(0.1 -0.1)">
       <use xlink:href="#DejaVuSans-30"/>
       <use xlink:href="#DejaVuSans-2e" x="63.623047"/>
       <use xlink:href="#DejaVuSans-35" x="95.410156"/>
      </g>
     </g>
    </g>
    <g id="ytick_7">
     <g id="line2d_16">
      <g>
       <use xlink:href="#m600c6980b5" x="52.160938" y="77.527219" style="stroke: #000000; stroke-width: 0.8"/>
      </g>
     </g>
     <g id="text_17">
      <!-- 1.0 -->
      <g transform="translate(29.257812 81.326437) scale(0.1 -0.1)">
       <use xlink:href="#DejaVuSans-31"/>
       <use xlink:href="#DejaVuSans-2e" x="63.623047"/>
       <use xlink:href="#DejaVuSans-30" x="95.410156"/>
      </g>
     </g>
    </g>
    <g id="ytick_8">
     <g id="line2d_17">
      <g>
       <use xlink:href="#m600c6980b5" x="52.160938" y="44.263219" style="stroke: #000000; stroke-width: 0.8"/>
      </g>
     </g>
     <g id="text_18">
      <!-- 1.5 -->
      <g transform="translate(29.257812 48.062437) scale(0.1 -0.1)">
       <use xlink:href="#DejaVuSans-31"/>
       <use xlink:href="#DejaVuSans-2e" x="63.623047"/>
       <use xlink:href="#DejaVuSans-35" x="95.410156"/>
      </g>
     </g>
    </g>
    <g id="ytick_9">
     <g id="line2d_18">
      <g>
       <use xlink:href="#m600c6980b5" x="52.160938" y="10.999219" style="stroke: #000000; stroke-width: 0.8"/>
      </g>
     </g>
     <g id="text_19">
      <!-- 2.0 -->
      <g transform="translate(29.257812 14.798437) scale(0.1 -0.1)">
       <use xlink:href="#DejaVuSans-32"/>
       <use xlink:href="#DejaVuSans-2e" x="63.623047"/>
       <use xlink:href="#DejaVuSans-30" x="95.410156"/>
      </g>
     </g>
    </g>
    <g id="text_20">
     <!-- y -->
     <g transform="translate(14.798438 147.014594) rotate(-90) scale(0.1 -0.1)">
      <defs>
       <path id="DejaVuSans-79" d="M 2059 -325 
Q 1816 -950 1584 -1140 
Q 1353 -1331 966 -1331 
L 506 -1331 
L 506 -850 
L 844 -850 
Q 1081 -850 1212 -737 
Q 1344 -625 1503 -206 
L 1606 56 
L 191 3500 
L 800 3500 
L 1894 763 
L 2988 3500 
L 3597 3500 
L 2059 -325 
z
" transform="scale(0.015625)"/>
      </defs>
      <use xlink:href="#DejaVuSans-79"/>
     </g>
    </g>
   </g>
   <g id="PathCollection_9">
    <path d="M 195.008938 277.111219 
L 195.008938 277.111219 
L 195.008938 277.111219 
z
" clip-path="url(#pe4761e2a52)" style="fill: none; stroke-dasharray: 5.55,2.4; stroke-dashoffset: 0; stroke: #000000; stroke-width: 1.5"/>
    <path d="M 195.008938 10.999219 
L 195.008938 10.999219 
L 195.008938 10.999219 
z
" clip-path="url(#pe4761e2a52)" style="fill: none; stroke-dasharray: 5.55,2.4; stroke-dashoffset: 0; stroke: #000000; stroke-width: 1.5"/>
   </g>
   <g id="PathCollection_10">
    <path d="M 123.584938 277.111219 
L 123.584938 277.111219 
L 137.869738 270.808566 
L 152.154538 265.906503 
L 160.725418 263.805619 
L 166.439338 262.240254 
L 180.724138 259.892207 
L 186.233364 259.590349 
" clip-path="url(#pe4761e2a52)" style="fill: none; stroke-dasharray: 5.55,2.4; stroke-dashoffset: 0; stroke: #000000; stroke-width: 1.5"/>
    <path d="M 203.784511 259.590349 
L 209.293738 259.892207 
L 223.578538 262.240254 
L 229.292458 263.805619 
L 237.863338 265.906503 
L 252.148138 270.808566 
L 266.432938 277.111219 
L 266.432938 277.111219 
" clip-path="url(#pe4761e2a52)" style="fill: none; stroke-dasharray: 5.55,2.4; stroke-dashoffset: 0; stroke: #000000; stroke-width: 1.5"/>
    <path d="M 266.432938 10.999219 
L 266.432938 10.999219 
L 252.148138 17.301871 
L 237.863338 22.203935 
L 229.292458 24.304819 
L 223.578538 25.870183 
L 209.293738 28.218231 
L 203.784511 28.520088 
" clip-path="url(#pe4761e2a52)" style="fill: none; stroke-dasharray: 5.55,2.4; stroke-dashoffset: 0; stroke: #000000; stroke-width: 1.5"/>
    <path d="M 186.233364 28.520088 
L 180.724138 28.218231 
L 166.439338 25.870183 
L 160.725417 24.304819 
L 152.154538 22.203935 
L 137.869738 17.301871 
L 123.584938 10.999219 
L 123.584938 10.999219 
" clip-path="url(#pe4761e2a52)" style="fill: none; stroke-dasharray: 5.55,2.4; stroke-dashoffset: 0; stroke: #000000; stroke-width: 1.5"/>
   </g>
   <g id="PathCollection_11">
    <path d="M 94.063018 277.111219 
L 95.015338 276.410924 
L 109.300138 267.307092 
L 115.793228 263.805619 
L 123.584938 259.109525 
L 137.869738 252.065383 
L 141.951109 250.500019 
L 152.154538 246.064819 
L 166.439338 241.629619 
L 180.724138 238.968499 
L 186.235756 238.626245 
" clip-path="url(#pe4761e2a52)" style="fill: none; stroke-dasharray: 5.55,2.4; stroke-dashoffset: 0; stroke: #000000; stroke-width: 1.5"/>
    <path d="M 203.782119 238.626245 
L 209.293738 238.968499 
L 223.578538 241.629619 
L 237.863338 246.064819 
L 248.066766 250.500019 
L 252.148138 252.065383 
L 266.432938 259.109525 
L 274.224647 263.805619 
L 280.717738 267.307092 
L 295.002538 276.410924 
L 295.954858 277.111219 
" clip-path="url(#pe4761e2a52)" style="fill: none; stroke-dasharray: 5.55,2.4; stroke-dashoffset: 0; stroke: #000000; stroke-width: 1.5"/>
    <path d="M 295.954858 10.999219 
L 295.002538 11.699513 
L 280.717738 20.803345 
L 274.224647 24.304819 
L 266.432938 29.000913 
L 252.148138 36.045054 
L 248.066766 37.610419 
L 237.863338 42.045619 
L 223.578538 46.480819 
L 209.293738 49.141939 
L 203.782119 49.484192 
" clip-path="url(#pe4761e2a52)" style="fill: none; stroke-dasharray: 5.55,2.4; stroke-dashoffset: 0; stroke: #000000; stroke-width: 1.5"/>
    <path d="M 186.235756 49.484192 
L 180.724138 49.141939 
L 166.439338 46.480819 
L 152.154538 42.045619 
L 141.951109 37.610419 
L 137.869738 36.045054 
L 123.584938 29.000913 
L 115.793228 24.304819 
L 109.300138 20.803345 
L 95.015338 11.699513 
L 94.063018 10.999219 
" clip-path="url(#pe4761e2a52)" style="fill: none; stroke-dasharray: 5.55,2.4; stroke-dashoffset: 0; stroke: #000000; stroke-width: 1.5"/>
   </g>
   <g id="PathCollection_12">
    <path d="M 71.487432 277.111219 
L 80.730538 269.407977 
L 88.349098 263.805619 
L 95.015338 258.326842 
L 106.003645 250.500019 
L 109.300138 247.838899 
L 123.584938 238.081459 
L 125.172138 237.194419 
L 137.869738 229.006357 
L 144.113045 225.875021 
" clip-path="url(#pe4761e2a52)" style="fill: none; stroke-dasharray: 5.55,2.4; stroke-dashoffset: 0; stroke: #000000; stroke-width: 1.5"/>
    <path d="M 160.474255 217.947158 
L 166.439338 215.421619 
L 180.724138 211.792819 
L 195.008938 210.583219 
L 195.008938 210.583219 
L 195.008938 210.583219 
L 209.293738 211.792819 
L 223.578538 215.421619 
L 237.863338 221.469619 
L 241.944709 223.888819 
L 252.148138 229.006357 
L 264.845738 237.194419 
L 266.432938 238.081459 
L 280.717738 247.838899 
L 284.01423 250.500019 
L 295.002538 258.326842 
L 301.668778 263.805619 
L 309.287338 269.407977 
L 318.530443 277.111219 
" clip-path="url(#pe4761e2a52)" style="fill: none; stroke-dasharray: 5.55,2.4; stroke-dashoffset: 0; stroke: #000000; stroke-width: 1.5"/>
    <path d="M 318.530443 10.999219 
L 309.287338 18.702461 
L 301.668778 24.304819 
L 295.002538 29.783595 
L 284.01423 37.610419 
L 280.717738 40.271539 
L 266.432938 50.028979 
L 264.845738 50.916019 
L 252.148138 59.10408 
L 245.90483 62.235416 
" clip-path="url(#pe4761e2a52)" style="fill: none; stroke-dasharray: 5.55,2.4; stroke-dashoffset: 0; stroke: #000000; stroke-width: 1.5"/>
    <path d="M 229.54362 70.16328 
L 223.578538 72.688819 
L 209.293738 76.317619 
L 195.008938 77.527219 
L 195.008938 77.527219 
L 195.008938 77.527219 
L 180.724138 76.317619 
L 166.439338 72.688819 
L 152.154538 66.640819 
L 148.073166 64.221619 
L 137.869738 59.10408 
L 125.172138 50.916019 
L 123.584938 50.028979 
L 109.300138 40.271539 
L 106.003645 37.610419 
L 95.015338 29.783595 
L 88.349098 24.304819 
L 80.730538 18.702461 
L 71.487432 10.999219 
" clip-path="url(#pe4761e2a52)" style="fill: none; stroke-dasharray: 5.55,2.4; stroke-dashoffset: 0; stroke: #000000; stroke-width: 1.5"/>
   </g>
   <g id="PathCollection_13">
    <path d="M 52.160938 277.111219 
L 66.445738 263.805619 
L 66.445738 263.805619 
L 76.371635 254.560126 
" clip-path="url(#pe4761e2a52)" style="fill: none; stroke: #000000; stroke-width: 1.5"/>
    <path d="M 85.08944 246.439912 
L 95.015338 237.194419 
L 95.015338 237.194419 
L 109.300138 223.888819 
L 109.300138 223.888819 
L 123.584938 210.583219 
L 123.584938 210.583219 
L 137.869738 197.277619 
L 137.869738 197.277619 
L 152.154538 183.972019 
L 152.154538 183.972019 
L 166.439338 170.666419 
L 166.439338 170.666419 
L 180.724138 157.360819 
L 180.724138 157.360819 
L 195.008938 144.055219 
L 180.724138 130.749619 
L 180.724138 130.749619 
L 166.439338 117.444019 
L 166.439338 117.444019 
L 152.154538 104.138419 
L 152.154538 104.138419 
L 137.869738 90.832819 
L 137.869738 90.832819 
L 123.584938 77.527219 
L 123.584938 77.527219 
L 109.300138 64.221619 
L 109.300138 64.221619 
L 95.015338 50.916019 
L 95.015338 50.916019 
L 80.730538 37.610419 
L 80.730538 37.610419 
L 66.445738 24.304819 
L 66.445738 24.304819 
L 52.160938 10.999219 
" clip-path="url(#pe4761e2a52)" style="fill: none; stroke: #000000; stroke-width: 1.5"/>
    <path d="M 337.856938 10.999219 
L 323.572138 24.304819 
L 323.572138 24.304819 
L 309.287338 37.610419 
L 309.287338 37.610419 
L 295.002538 50.916019 
L 295.002538 50.916019 
L 280.717738 64.221619 
L 280.717738 64.221619 
L 266.432938 77.527219 
L 266.432938 77.527219 
L 252.148138 90.832819 
L 252.148138 90.832819 
L 237.863338 104.138419 
L 237.863338 104.138419 
L 223.578538 117.444019 
L 223.578538 117.444019 
L 209.293738 130.749619 
L 209.293738 130.749619 
L 195.008938 144.055219 
L 209.293738 157.360819 
L 209.293738 157.360819 
L 223.578538 170.666419 
L 223.578538 170.666419 
L 237.863338 183.972019 
L 237.863338 183.972019 
L 252.148138 197.277619 
L 252.148138 197.277619 
L 262.074035 206.523112 
" clip-path="url(#pe4761e2a52)" style="fill: none; stroke: #000000; stroke-width: 1.5"/>
    <path d="M 270.79184 214.643326 
L 280.717738 223.888819 
L 280.717738 223.888819 
L 295.002538 237.194419 
L 295.002538 237.194419 
L 309.287338 250.500019 
L 309.287338 250.500019 
L 323.572138 263.805619 
L 323.572138 263.805619 
L 337.856938 277.111219 
" clip-path="url(#pe4761e2a52)" style="fill: none; stroke: #000000; stroke-width: 1.5"/>
   </g>
   <g id="PathCollection_14">
    <path d="M 52.160938 259.109525 
L 60.431085 250.500019 
L 66.445738 243.403699 
L 72.327714 237.194419 
L 76.837274 231.701539 
" clip-path="url(#pe4761e2a52)" style="fill: none; stroke: #000000; stroke-width: 1.5"/>
    <path d="M 84.757629 222.402564 
L 94.063018 210.583219 
L 95.015338 209.104819 
L 103.805984 197.277619 
L 109.300138 187.773619 
L 111.897374 183.972019 
L 118.390465 170.666419 
L 122.286319 157.360819 
L 123.584938 144.055219 
L 122.286319 130.749619 
L 118.390465 117.444019 
L 111.897374 104.138419 
L 109.300138 100.336819 
L 103.805984 90.832819 
L 95.015338 79.005619 
L 94.063018 77.527219 
L 83.587498 64.221619 
L 80.730538 61.151096 
L 72.327714 50.916019 
L 66.445738 44.706739 
L 60.431085 37.610419 
L 52.160938 29.000913 
" clip-path="url(#pe4761e2a52)" style="fill: none; stroke: #000000; stroke-width: 1.5"/>
    <path d="M 337.856938 29.000913 
L 329.58679 37.610419 
L 323.572138 44.706739 
L 317.690161 50.916019 
L 313.180601 56.408898 
" clip-path="url(#pe4761e2a52)" style="fill: none; stroke: #000000; stroke-width: 1.5"/>
    <path d="M 305.260246 65.707874 
L 295.954858 77.527219 
L 295.002538 79.005619 
L 286.211891 90.832819 
L 280.717738 100.336819 
L 278.120501 104.138419 
L 271.62741 117.444019 
L 267.731556 130.749619 
L 266.432938 144.055219 
L 267.731556 157.360819 
L 271.62741 170.666419 
L 278.120501 183.972019 
L 280.717738 187.773619 
L 286.211891 197.277619 
L 295.002538 209.104819 
L 295.954858 210.583219 
L 306.430378 223.888819 
L 309.287338 226.959342 
L 317.690161 237.194419 
L 323.572138 243.403699 
L 329.58679 250.500019 
L 337.856938 259.109525 
" clip-path="url(#pe4761e2a52)" style="fill: none; stroke: #000000; stroke-width: 1.5"/>
   </g>
   <g id="PathCollection_15">
    <path d="M 52.160938 238.081459 
L 52.912769 237.194419 
L 62.68658 223.888819 
L 66.445738 217.840819 
L 67.923291 215.713856 
" clip-path="url(#pe4761e2a52)" style="fill: none; stroke: #000000; stroke-width: 1.5"/>
    <path d="M 74.635824 205.04391 
L 79.049973 197.277619 
L 80.730538 193.476019 
L 85.492138 183.972019 
L 90.253738 170.666419 
L 93.110698 157.360819 
L 94.063018 144.055219 
L 93.110698 130.749619 
L 90.253738 117.444019 
L 85.492138 104.138419 
L 80.730538 94.634419 
L 79.049973 90.832819 
L 71.487432 77.527219 
L 66.445738 70.269619 
L 62.68658 64.221619 
L 52.912769 50.916019 
L 52.160938 50.028979 
" clip-path="url(#pe4761e2a52)" style="fill: none; stroke: #000000; stroke-width: 1.5"/>
    <path d="M 337.856938 50.028979 
L 337.105106 50.916019 
L 327.331295 64.221619 
L 323.572138 70.269619 
L 322.094584 72.396581 
" clip-path="url(#pe4761e2a52)" style="fill: none; stroke: #000000; stroke-width: 1.5"/>
    <path d="M 315.382051 83.066527 
L 310.967902 90.832819 
L 309.287338 94.634419 
L 304.525738 104.138419 
L 299.764138 117.444019 
L 296.907178 130.749619 
L 295.954858 144.055219 
L 296.907178 157.360819 
L 299.764138 170.666419 
L 304.525738 183.972019 
L 309.287338 193.476019 
L 310.967902 197.277619 
L 318.530443 210.583219 
L 323.572138 217.840819 
L 327.331295 223.888819 
L 337.105106 237.194419 
L 337.856938 238.081459 
" clip-path="url(#pe4761e2a52)" style="fill: none; stroke: #000000; stroke-width: 1.5"/>
   </g>
   <g id="PathCollection_16">
    <path d="M 52.160938 210.583219 
L 58.927422 197.277619 
L 64.190243 183.972019 
L 66.159842 177.000591 
" clip-path="url(#pe4761e2a52)" style="fill: none; stroke: #000000; stroke-width: 1.5"/>
    <path d="M 69.379017 164.054308 
L 70.647149 157.360819 
L 71.487432 144.055219 
L 70.647149 130.749619 
L 68.126302 117.444019 
L 66.445738 112.121779 
L 64.190243 104.138419 
L 58.927422 90.832819 
L 52.160938 77.527219 
" clip-path="url(#pe4761e2a52)" style="fill: none; stroke: #000000; stroke-width: 1.5"/>
    <path d="M 337.856938 77.527219 
L 331.090453 90.832819 
L 325.827632 104.138419 
L 323.858033 111.109847 
" clip-path="url(#pe4761e2a52)" style="fill: none; stroke: #000000; stroke-width: 1.5"/>
    <path d="M 320.638858 124.056129 
L 319.370726 130.749619 
L 318.530443 144.055219 
L 319.370726 157.360819 
L 321.891573 170.666419 
L 323.572138 175.988659 
L 325.827632 183.972019 
L 331.090453 197.277619 
L 337.856938 210.583219 
" clip-path="url(#pe4761e2a52)" style="fill: none; stroke: #000000; stroke-width: 1.5"/>
   </g>
   <g id="PathCollection_17"/>
   <g id="PathCollection_18">
    <path d="M 52.160938 277.111219 
L 66.445738 263.805619 
L 66.445738 263.805619 
L 80.730538 250.500019 
L 80.730538 250.500019 
L 95.015338 237.194419 
L 95.015338 237.194419 
L 109.300138 223.888819 
L 109.300138 223.888819 
L 123.584938 210.583219 
L 123.584938 210.583219 
L 137.869738 197.277619 
L 137.869738 197.277619 
L 152.154538 183.972019 
L 152.154538 183.972019 
L 166.439338 170.666419 
L 166.439338 170.666419 
L 180.724138 157.360819 
L 180.724138 157.360819 
L 195.008938 144.055219 
L 180.724138 130.749619 
L 180.724138 130.749619 
L 166.439338 117.444019 
L 166.439338 117.444019 
L 152.154538 104.138419 
L 152.154538 104.138419 
L 137.869738 90.832819 
L 137.869738 90.832819 
L 123.584938 77.527219 
L 123.584938 77.527219 
L 109.300138 64.221619 
L 109.300138 64.221619 
L 95.015338 50.916019 
L 95.015338 50.916019 
L 80.730538 37.610419 
L 80.730538 37.610419 
L 66.445738 24.304819 
L 66.445738 24.304819 
L 52.160938 10.999219 
" clip-path="url(#pe4761e2a52)" style="fill: none; stroke: #ffff00; stroke-width: 2"/>
    <path d="M 337.856938 10.999219 
L 323.572138 24.304819 
L 323.572138 24.304819 
L 309.287338 37.610419 
L 309.287338 37.610419 
L 295.002538 50.916019 
L 295.002538 50.916019 
L 280.717738 64.221619 
L 280.717738 64.221619 
L 266.432938 77.527219 
L 266.432938 77.527219 
L 252.148138 90.832819 
L 252.148138 90.832819 
L 237.863338 104.138419 
L 237.863338 104.138419 
L 223.578538 117.444019 
L 223.578538 117.444019 
L 209.293738 130.749619 
L 209.293738 130.749619 
L 195.008938 144.055219 
L 209.293738 157.360819 
L 209.293738 157.360819 
L 223.578538 170.666419 
L 223.578538 170.666419 
L 237.863338 183.972019 
L 237.863338 183.972019 
L 252.148138 197.277619 
L 252.148138 197.277619 
L 266.432938 210.583219 
L 266.432938 210.583219 
L 280.717738 223.888819 
L 280.717738 223.888819 
L 295.002538 237.194419 
L 295.002538 237.194419 
L 309.287338 250.500019 
L 309.287338 250.500019 
L 323.572138 263.805619 
L 323.572138 263.805619 
L 337.856938 277.111219 
" clip-path="url(#pe4761e2a52)" style="fill: none; stroke: #ffff00; stroke-width: 2"/>
   </g>
   <g id="patch_3">
    <path d="M 52.160938 277.111219 
L 52.160938 10.999219 
" style="fill: none; stroke: #000000; stroke-width: 0.8; stroke-linejoin: miter; stroke-linecap: square"/>
   </g>
   <g id="patch_4">
    <path d="M 337.856938 277.111219 
L 337.856938 10.999219 
" style="fill: none; stroke: #000000; stroke-width: 0.8; stroke-linejoin: miter; stroke-linecap: square"/>
   </g>
   <g id="patch_5">
    <path d="M 52.160938 277.111219 
L 337.856938 277.111219 
" style="fill: none; stroke: #000000; stroke-width: 0.8; stroke-linejoin: miter; stroke-linecap: square"/>
   </g>
   <g id="patch_6">
    <path d="M 52.160938 10.999219 
L 337.856938 10.999219 
" style="fill: none; stroke: #000000; stroke-width: 0.8; stroke-linejoin: miter; stroke-linecap: square"/>
   </g>
   <g id="text_21">
    <g clip-path="url(#pe4761e2a52)">
     <!-- −3 -->
     <g transform="translate(187.637844 261.8689) scale(0.1 -0.1)">
      <defs>
       <path id="DejaVuSans-33" d="M 2597 2516 
Q 3050 2419 3304 2112 
Q 3559 1806 3559 1356 
Q 3559 666 3084 287 
Q 2609 -91 1734 -91 
Q 1441 -91 1130 -33 
Q 819 25 488 141 
L 488 750 
Q 750 597 1062 519 
Q 1375 441 1716 441 
Q 2309 441 2620 675 
Q 2931 909 2931 1356 
Q 2931 1769 2642 2001 
Q 2353 2234 1838 2234 
L 1294 2234 
L 1294 2753 
L 1863 2753 
Q 2328 2753 2575 2939 
Q 2822 3125 2822 3475 
Q 2822 3834 2567 4026 
Q 2313 4219 1838 4219 
Q 1578 4219 1281 4162 
Q 984 4106 628 3988 
L 628 4550 
Q 988 4650 1302 4700 
Q 1616 4750 1894 4750 
Q 2613 4750 3031 4423 
Q 3450 4097 3450 3541 
Q 3450 3153 3228 2886 
Q 3006 2619 2597 2516 
z
" transform="scale(0.015625)"/>
      </defs>
      <use xlink:href="#DejaVuSans-2212"/>
      <use xlink:href="#DejaVuSans-33" x="83.789062"/>
     </g>
    </g>
   </g>
   <g id="text_22">
    <g clip-path="url(#pe4761e2a52)">
     <!-- −3 -->
     <g transform="translate(187.637844 31.760288) scale(0.1 -0.1)">
      <use xlink:href="#DejaVuSans-2212"/>
      <use xlink:href="#DejaVuSans-33" x="83.789062"/>
     </g>
    </g>
   </g>
   <g id="text_23">
    <g clip-path="url(#pe4761e2a52)">
     <!-- −2 -->
     <g transform="translate(187.637844 240.840834) scale(0.1 -0.1)">
      <use xlink:href="#DejaVuSans-2212"/>
      <use xlink:href="#DejaVuSans-32" x="83.789062"/>
     </g>
    </g>
   </g>
   <g id="text_24">
    <g clip-path="url(#pe4761e2a52)">
     <!-- −2 -->
     <g transform="translate(187.637844 52.788354) scale(0.1 -0.1)">
      <use xlink:href="#DejaVuSans-2212"/>
      <use xlink:href="#DejaVuSans-32" x="83.789062"/>
     </g>
    </g>
   </g>
   <g id="text_25">
    <g clip-path="url(#pe4761e2a52)">
     <!-- −1 -->
     <g transform="translate(146.319488 226.751604) rotate(-21.6285) scale(0.1 -0.1)">
      <use xlink:href="#DejaVuSans-2212"/>
      <use xlink:href="#DejaVuSans-31" x="83.789062"/>
     </g>
    </g>
   </g>
   <g id="text_26">
    <g clip-path="url(#pe4761e2a52)">
     <!-- −1 -->
     <g transform="translate(232.028288 71.922804) rotate(-21.6285) scale(0.1 -0.1)">
      <use xlink:href="#DejaVuSans-2212"/>
      <use xlink:href="#DejaVuSans-31" x="83.789062"/>
     </g>
    </g>
   </g>
   <g id="text_27">
    <g clip-path="url(#pe4761e2a52)">
     <!-- 0 -->
     <g transform="translate(79.82839 254.613488) rotate(-36.692053) scale(0.1 -0.1)">
      <use xlink:href="#DejaVuSans-30"/>
     </g>
    </g>
   </g>
   <g id="text_28">
    <g clip-path="url(#pe4761e2a52)">
     <!-- 0 -->
     <g transform="translate(262.23326 210.895006) rotate(-323.307947) scale(0.1 -0.1)">
      <use xlink:href="#DejaVuSans-30"/>
     </g>
    </g>
   </g>
   <g id="text_29">
    <g clip-path="url(#pe4761e2a52)">
     <!-- 1 -->
     <g transform="translate(80.247359 231.142766) rotate(-42.473682) scale(0.1 -0.1)">
      <use xlink:href="#DejaVuSans-31"/>
     </g>
    </g>
   </g>
   <g id="text_30">
    <g clip-path="url(#pe4761e2a52)">
     <!-- 1 -->
     <g transform="translate(308.804159 65.33452) rotate(-42.473682) scale(0.1 -0.1)">
      <use xlink:href="#DejaVuSans-31"/>
     </g>
    </g>
   </g>
   <g id="text_31">
    <g clip-path="url(#pe4761e2a52)">
     <!-- 2 -->
     <g transform="translate(71.689995 214.789579) rotate(-51.819086) scale(0.1 -0.1)">
      <use xlink:href="#DejaVuSans-32"/>
     </g>
    </g>
   </g>
   <g id="text_32">
    <g clip-path="url(#pe4761e2a52)">
     <!-- 2 -->
     <g transform="translate(318.733007 81.733579) rotate(-51.819086) scale(0.1 -0.1)">
      <use xlink:href="#DejaVuSans-32"/>
     </g>
    </g>
   </g>
   <g id="text_33">
    <g clip-path="url(#pe4761e2a52)">
     <!-- 3 -->
     <g transform="translate(69.805971 174.528182) rotate(-72.568622) scale(0.1 -0.1)">
      <use xlink:href="#DejaVuSans-33"/>
     </g>
    </g>
   </g>
   <g id="text_34">
    <g clip-path="url(#pe4761e2a52)">
     <!-- 3 -->
     <g transform="translate(323.571242 121.305782) rotate(-72.568622) scale(0.1 -0.1)">
      <use xlink:href="#DejaVuSans-33"/>
     </g>
    </g>
   </g>
  </g>
  <g id="axes_2">
   <g id="patch_7">
    <path d="M 355.712938 277.111219 
L 369.018538 277.111219 
L 369.018538 10.999219 
L 355.712938 10.999219 
z
" style="fill: #ffffff"/>
   </g>
   <g id="patch_8">
    <path clip-path="url(#p7dd7dd564f)" style="fill: #ffffff; stroke: #ffffff; stroke-width: 0.01; stroke-linejoin: miter"/>
   </g>
   <g id="QuadMesh_1">
    <path d="M 355.712938 277.111219 
L 369.018538 277.111219 
L 369.018538 243.847219 
L 355.712938 243.847219 
L 355.712938 277.111219 
" clip-path="url(#p7dd7dd564f)" style="fill: #1e5ec4"/>
    <path d="M 355.712938 243.847219 
L 369.018538 243.847219 
L 369.018538 210.583219 
L 355.712938 210.583219 
L 355.712938 243.847219 
" clip-path="url(#p7dd7dd564f)" style="fill: #00acc4"/>
    <path d="M 355.712938 210.583219 
L 369.018538 210.583219 
L 369.018538 177.319219 
L 355.712938 177.319219 
L 355.712938 210.583219 
" clip-path="url(#p7dd7dd564f)" style="fill: #41d973"/>
    <path d="M 355.712938 177.319219 
L 369.018538 177.319219 
L 369.018538 144.055219 
L 355.712938 144.055219 
L 355.712938 177.319219 
" clip-path="url(#p7dd7dd564f)" style="fill: #c1f38d"/>
    <path d="M 355.712938 144.055219 
L 369.018538 144.055219 
L 369.018538 110.791219 
L 355.712938 110.791219 
L 355.712938 144.055219 
" clip-path="url(#p7dd7dd564f)" style="fill: #ded587"/>
    <path d="M 355.712938 110.791219 
L 369.018538 110.791219 
L 369.018538 77.527219 
L 355.712938 77.527219 
L 355.712938 110.791219 
" clip-path="url(#p7dd7dd564f)" style="fill: #9e8365"/>
    <path d="M 355.712938 77.527219 
L 369.018538 77.527219 
L 369.018538 44.263219 
L 355.712938 44.263219 
L 355.712938 77.527219 
" clip-path="url(#p7dd7dd564f)" style="fill: #a18781"/>
    <path d="M 355.712938 44.263219 
L 369.018538 44.263219 
L 369.018538 10.999219 
L 355.712938 10.999219 
L 355.712938 44.263219 
" clip-path="url(#p7dd7dd564f)" style="fill: #e1d9d7"/>
   </g>
   <g id="matplotlib.axis_3"/>
   <g id="matplotlib.axis_4">
    <g id="ytick_10">
     <g id="line2d_19">
      <defs>
       <path id="m55fdbcf329" d="M 0 0 
L 3.5 0 
" style="stroke: #000000; stroke-width: 0.8"/>
      </defs>
      <g>
       <use xlink:href="#m55fdbcf329" x="369.018538" y="277.111219" style="stroke: #000000; stroke-width: 0.8"/>
      </g>
     </g>
     <g id="text_35">
      <!-- −4 -->
      <g transform="translate(376.018538 280.910437) scale(0.1 -0.1)">
       <defs>
        <path id="DejaVuSans-34" d="M 2419 4116 
L 825 1625 
L 2419 1625 
L 2419 4116 
z
M 2253 4666 
L 3047 4666 
L 3047 1625 
L 3713 1625 
L 3713 1100 
L 3047 1100 
L 3047 0 
L 2419 0 
L 2419 1100 
L 313 1100 
L 313 1709 
L 2253 4666 
z
" transform="scale(0.015625)"/>
       </defs>
       <use xlink:href="#DejaVuSans-2212"/>
       <use xlink:href="#DejaVuSans-34" x="83.789062"/>
      </g>
     </g>
    </g>
    <g id="ytick_11">
     <g id="line2d_20">
      <g>
       <use xlink:href="#m55fdbcf329" x="369.018538" y="243.847219" style="stroke: #000000; stroke-width: 0.8"/>
      </g>
     </g>
     <g id="text_36">
      <!-- −3 -->
      <g transform="translate(376.018538 247.646437) scale(0.1 -0.1)">
       <use xlink:href="#DejaVuSans-2212"/>
       <use xlink:href="#DejaVuSans-33" x="83.789062"/>
      </g>
     </g>
    </g>
    <g id="ytick_12">
     <g id="line2d_21">
      <g>
       <use xlink:href="#m55fdbcf329" x="369.018538" y="210.583219" style="stroke: #000000; stroke-width: 0.8"/>
      </g>
     </g>
     <g id="text_37">
      <!-- −2 -->
      <g transform="translate(376.018538 214.382437) scale(0.1 -0.1)">
       <use xlink:href="#DejaVuSans-2212"/>
       <use xlink:href="#DejaVuSans-32" x="83.789062"/>
      </g>
     </g>
    </g>
    <g id="ytick_13">
     <g id="line2d_22">
      <g>
       <use xlink:href="#m55fdbcf329" x="369.018538" y="177.319219" style="stroke: #000000; stroke-width: 0.8"/>
      </g>
     </g>
     <g id="text_38">
      <!-- −1 -->
      <g transform="translate(376.018538 181.118437) scale(0.1 -0.1)">
       <use xlink:href="#DejaVuSans-2212"/>
       <use xlink:href="#DejaVuSans-31" x="83.789062"/>
      </g>
     </g>
    </g>
    <g id="ytick_14">
     <g id="line2d_23">
      <g>
       <use xlink:href="#m55fdbcf329" x="369.018538" y="144.055219" style="stroke: #000000; stroke-width: 0.8"/>
      </g>
     </g>
     <g id="text_39">
      <!-- 0 -->
      <g transform="translate(376.018538 147.854437) scale(0.1 -0.1)">
       <use xlink:href="#DejaVuSans-30"/>
      </g>
     </g>
    </g>
    <g id="ytick_15">
     <g id="line2d_24">
      <g>
       <use xlink:href="#m55fdbcf329" x="369.018538" y="110.791219" style="stroke: #000000; stroke-width: 0.8"/>
      </g>
     </g>
     <g id="text_40">
      <!-- 1 -->
      <g transform="translate(376.018538 114.590437) scale(0.1 -0.1)">
       <use xlink:href="#DejaVuSans-31"/>
      </g>
     </g>
    </g>
    <g id="ytick_16">
     <g id="line2d_25">
      <g>
       <use xlink:href="#m55fdbcf329" x="369.018538" y="77.527219" style="stroke: #000000; stroke-width: 0.8"/>
      </g>
     </g>
     <g id="text_41">
      <!-- 2 -->
      <g transform="translate(376.018538 81.326437) scale(0.1 -0.1)">
       <use xlink:href="#DejaVuSans-32"/>
      </g>
     </g>
    </g>
    <g id="ytick_17">
     <g id="line2d_26">
      <g>
       <use xlink:href="#m55fdbcf329" x="369.018538" y="44.263219" style="stroke: #000000; stroke-width: 0.8"/>
      </g>
     </g>
     <g id="text_42">
      <!-- 3 -->
      <g transform="translate(376.018538 48.062437) scale(0.1 -0.1)">
       <use xlink:href="#DejaVuSans-33"/>
      </g>
     </g>
    </g>
    <g id="ytick_18">
     <g id="line2d_27">
      <g>
       <use xlink:href="#m55fdbcf329" x="369.018538" y="10.999219" style="stroke: #000000; stroke-width: 0.8"/>
      </g>
     </g>
     <g id="text_43">
      <!-- 4 -->
      <g transform="translate(376.018538 14.798437) scale(0.1 -0.1)">
       <use xlink:href="#DejaVuSans-34"/>
      </g>
     </g>
    </g>
    <g id="text_44">
     <!-- temperature -->
     <g transform="translate(402.359163 175.481) rotate(-90) scale(0.1 -0.1)">
      <defs>
       <path id="DejaVuSans-74" d="M 1172 4494 
L 1172 3500 
L 2356 3500 
L 2356 3053 
L 1172 3053 
L 1172 1153 
Q 1172 725 1289 603 
Q 1406 481 1766 481 
L 2356 481 
L 2356 0 
L 1766 0 
Q 1100 0 847 248 
Q 594 497 594 1153 
L 594 3053 
L 172 3053 
L 172 3500 
L 594 3500 
L 594 4494 
L 1172 4494 
z
" transform="scale(0.015625)"/>
       <path id="DejaVuSans-65" d="M 3597 1894 
L 3597 1613 
L 953 1613 
Q 991 1019 1311 708 
Q 1631 397 2203 397 
Q 2534 397 2845 478 
Q 3156 559 3463 722 
L 3463 178 
Q 3153 47 2828 -22 
Q 2503 -91 2169 -91 
Q 1331 -91 842 396 
Q 353 884 353 1716 
Q 353 2575 817 3079 
Q 1281 3584 2069 3584 
Q 2775 3584 3186 3129 
Q 3597 2675 3597 1894 
z
M 3022 2063 
Q 3016 2534 2758 2815 
Q 2500 3097 2075 3097 
Q 1594 3097 1305 2825 
Q 1016 2553 972 2059 
L 3022 2063 
z
" transform="scale(0.015625)"/>
       <path id="DejaVuSans-6d" d="M 3328 2828 
Q 3544 3216 3844 3400 
Q 4144 3584 4550 3584 
Q 5097 3584 5394 3201 
Q 5691 2819 5691 2113 
L 5691 0 
L 5113 0 
L 5113 2094 
Q 5113 2597 4934 2840 
Q 4756 3084 4391 3084 
Q 3944 3084 3684 2787 
Q 3425 2491 3425 1978 
L 3425 0 
L 2847 0 
L 2847 2094 
Q 2847 2600 2669 2842 
Q 2491 3084 2119 3084 
Q 1678 3084 1418 2786 
Q 1159 2488 1159 1978 
L 1159 0 
L 581 0 
L 581 3500 
L 1159 3500 
L 1159 2956 
Q 1356 3278 1631 3431 
Q 1906 3584 2284 3584 
Q 2666 3584 2933 3390 
Q 3200 3197 3328 2828 
z
" transform="scale(0.015625)"/>
       <path id="DejaVuSans-70" d="M 1159 525 
L 1159 -1331 
L 581 -1331 
L 581 3500 
L 1159 3500 
L 1159 2969 
Q 1341 3281 1617 3432 
Q 1894 3584 2278 3584 
Q 2916 3584 3314 3078 
Q 3713 2572 3713 1747 
Q 3713 922 3314 415 
Q 2916 -91 2278 -91 
Q 1894 -91 1617 61 
Q 1341 213 1159 525 
z
M 3116 1747 
Q 3116 2381 2855 2742 
Q 2594 3103 2138 3103 
Q 1681 3103 1420 2742 
Q 1159 2381 1159 1747 
Q 1159 1113 1420 752 
Q 1681 391 2138 391 
Q 2594 391 2855 752 
Q 3116 1113 3116 1747 
z
" transform="scale(0.015625)"/>
       <path id="DejaVuSans-72" d="M 2631 2963 
Q 2534 3019 2420 3045 
Q 2306 3072 2169 3072 
Q 1681 3072 1420 2755 
Q 1159 2438 1159 1844 
L 1159 0 
L 581 0 
L 581 3500 
L 1159 3500 
L 1159 2956 
Q 1341 3275 1631 3429 
Q 1922 3584 2338 3584 
Q 2397 3584 2469 3576 
Q 2541 3569 2628 3553 
L 2631 2963 
z
" transform="scale(0.015625)"/>
       <path id="DejaVuSans-61" d="M 2194 1759 
Q 1497 1759 1228 1600 
Q 959 1441 959 1056 
Q 959 750 1161 570 
Q 1363 391 1709 391 
Q 2188 391 2477 730 
Q 2766 1069 2766 1631 
L 2766 1759 
L 2194 1759 
z
M 3341 1997 
L 3341 0 
L 2766 0 
L 2766 531 
Q 2569 213 2275 61 
Q 1981 -91 1556 -91 
Q 1019 -91 701 211 
Q 384 513 384 1019 
Q 384 1609 779 1909 
Q 1175 2209 1959 2209 
L 2766 2209 
L 2766 2266 
Q 2766 2663 2505 2880 
Q 2244 3097 1772 3097 
Q 1472 3097 1187 3025 
Q 903 2953 641 2809 
L 641 3341 
Q 956 3463 1253 3523 
Q 1550 3584 1831 3584 
Q 2591 3584 2966 3190 
Q 3341 2797 3341 1997 
z
" transform="scale(0.015625)"/>
       <path id="DejaVuSans-75" d="M 544 1381 
L 544 3500 
L 1119 3500 
L 1119 1403 
Q 1119 906 1312 657 
Q 1506 409 1894 409 
Q 2359 409 2629 706 
Q 2900 1003 2900 1516 
L 2900 3500 
L 3475 3500 
L 3475 0 
L 2900 0 
L 2900 538 
Q 2691 219 2414 64 
Q 2138 -91 1772 -91 
Q 1169 -91 856 284 
Q 544 659 544 1381 
z
M 1991 3584 
L 1991 3584 
z
" transform="scale(0.015625)"/>
      </defs>
      <use xlink:href="#DejaVuSans-74"/>
      <use xlink:href="#DejaVuSans-65" x="39.208984"/>
      <use xlink:href="#DejaVuSans-6d" x="100.732422"/>
      <use xlink:href="#DejaVuSans-70" x="198.144531"/>
      <use xlink:href="#DejaVuSans-65" x="261.621094"/>
      <use xlink:href="#DejaVuSans-72" x="323.144531"/>
      <use xlink:href="#DejaVuSans-61" x="364.257812"/>
      <use xlink:href="#DejaVuSans-74" x="425.537109"/>
      <use xlink:href="#DejaVuSans-75" x="464.746094"/>
      <use xlink:href="#DejaVuSans-72" x="528.125"/>
      <use xlink:href="#DejaVuSans-65" x="566.988281"/>
     </g>
    </g>
   </g>
   <g id="LineCollection_1"/>
   <g id="patch_9">
    <path d="M 355.712938 277.111219 
L 362.365738 277.111219 
L 369.018538 277.111219 
L 369.018538 10.999219 
L 362.365738 10.999219 
L 355.712938 10.999219 
L 355.712938 277.111219 
z
" style="fill: none; stroke: #000000; stroke-width: 0.8; stroke-linejoin: miter; stroke-linecap: square"/>
   </g>
  </g>
 </g>
 <defs>
  <clipPath id="pe4761e2a52">
   <rect x="52.160938" y="10.999219" width="285.696" height="266.112"/>
  </clipPath>
  <clipPath id="p7dd7dd564f">
   <rect x="355.712938" y="10.999219" width="13.3056" height="266.112"/>
  </clipPath>
 </defs>
</svg>
